<svg width="92" height="89" viewBox="0 0 92 89" fill="none" xmlns="http://www.w3.org/2000/svg">
<g clip-path="url(#clip0_580_21607)">
<path d="M53.5895 31.2195C44.6426 19.4109 35.8662 14.6352 25.2484 19.5656C12.5312 25.3908 11.7676 48.5745 15.2621 59.6636C17.4576 66.3821 24.6557 71.6737 31.8199 70.0962C32.1723 70.0505 32.346 69.9242 32.4875 70.2949C34.3748 75.2377 45.1119 80.6929 54.4246 76.6061C64.8316 72.092 73.6575 66.149 77.2579 54.2694C81.3965 40.8935 69.1045 29.6224 53.5895 31.2195Z" fill="#B2CC1E"/>
<path d="M50.446 34.61C50.2673 34.5294 50.1779 34.4891 50.0414 34.3253C49.6318 33.8337 49.7061 33.2534 50.2271 32.8746C50.443 32.665 55.3855 28.7559 52.5767 20.431C52.4301 19.8534 52.7253 19.2705 53.3407 19.1388C53.9561 19.0071 54.5816 19.2891 54.7282 19.8667C58.0138 29.6341 51.8977 34.3439 51.6818 34.5535C51.3344 34.806 50.8927 34.8114 50.446 34.61Z" fill="#010101"/>
<path d="M29.096 74.3919C28.8279 74.2711 28.6021 74.0669 28.5499 73.7365C28.4033 73.1589 28.6985 72.576 29.3139 72.4443L31.2445 71.8827C31.7706 71.7107 32.396 71.9927 32.5848 72.487L33.2875 74.1337C33.5656 74.6682 33.2704 75.2512 32.7021 75.5065C32.1339 75.7617 31.5084 75.4797 31.2304 74.9452L30.9473 74.2037L30.0266 74.5047C29.5849 74.5101 29.364 74.5128 29.096 74.3919Z" fill="#1E1E1C"/>
<path d="M24.0708 32.9467C23.9814 32.9064 23.9814 32.9064 24.0708 32.9467C23.4453 32.6647 23.2516 31.9635 23.5939 31.5041C28.6048 23.1248 38.6634 24.2845 38.7949 24.2415C39.4153 24.3167 39.8249 24.8082 39.7506 25.3885C39.6763 25.9688 39.1552 26.3476 38.5348 26.2724C38.2246 26.2349 29.8959 25.3437 25.6068 32.514C25.2223 33.0567 24.6069 33.1884 24.0708 32.9467Z" fill="#E5E573"/>
<path d="M79.2355 22.8357C70.3166 14.0063 56.7653 18.2278 57.3424 23.8074C58.0661 29.9645 67.0674 31.2613 79.2355 22.8357Z" fill="#41A935"/>
<path d="M51.0397 35.389C49.5207 34.7041 47.9918 33.6055 46.9316 31.7976C46.6536 31.263 46.8594 30.6398 47.4276 30.3845C47.9959 30.1293 48.6635 30.328 48.9416 30.8626C50.8359 34.2741 55.3898 34.3839 55.3898 34.3839C56.0524 34.3758 56.462 34.8673 56.4771 35.4879C56.4921 36.1085 55.971 36.4873 55.3084 36.4954C55.2613 36.3718 53.1841 36.3559 51.0397 35.389Z" fill="#010101"/>
</g>
<defs>
<clipPath id="clip0_580_21607">
<rect width="66.159" height="68.7981" fill="white" transform="matrix(0.911613 0.411049 -0.451724 0.892158 31.3135 0)"/>
</clipPath>
</defs>
</svg>
