<svg xmlns="http://www.w3.org/2000/svg" width="139" height="144" viewBox="0 0 139 144" fill="none"> <g clip-path="url(#clip0_1421_18442)"> <path d="M78.3974 48.2948C101.727 46.364 116.373 51.5823 120.563 69.2307C125.77 90.2189 97.6396 115.469 80.4527 123.169C70.0127 127.618 56.3949 124.769 51.3055 114.567C51.0431 114.051 51.0241 113.728 50.3454 113.982C42.3603 116.967 25.1066 110.05 21.0357 94.8376C16.4806 77.8832 15.2442 61.2466 26.5488 44.5058C39.1438 25.8379 65.2313 28.3027 78.3974 48.2948Z" fill="#8DC63F"/> <path d="M74.5145 53.5915C93.9421 51.7886 107.646 57.8027 110.998 72.7383C115.164 90.4752 91.1584 112.374 76.8 119.028C68.0718 122.883 56.7619 120.57 52.6035 111.965C52.3848 111.535 52.3746 111.266 51.8157 111.475C45.1245 114.056 30.2725 107.834 26.9646 94.9528C23.3112 80.6078 21.1753 66.2414 30.6846 51.9922C41.3709 36.0288 63.7269 36.7147 74.5145 53.5915Z" fill="#E5E573"/> <path d="M73.9436 54.7377C73.7123 54.639 73.5093 54.4842 73.353 54.2873C73.2069 54.1179 73.096 53.9213 73.0265 53.7089C72.9571 53.4965 72.9306 53.2725 72.9486 53.0498C72.9665 52.8272 73.0286 52.6104 73.1311 52.4121C73.2337 52.2137 73.3746 52.0378 73.5459 51.8944C73.8851 51.5855 81.3271 44.9465 76.852 31.5344C76.7087 31.1052 76.7419 30.637 76.9443 30.2328C77.1466 29.8285 77.5016 29.5214 77.9312 29.3789C78.3607 29.2364 78.8296 29.2703 79.2346 29.473C79.6396 29.6757 79.9477 30.0307 80.091 30.4599C85.3416 46.1759 76.1484 54.1523 75.7905 54.5023C75.5381 54.7146 75.2297 54.8497 74.9022 54.8914C74.5746 54.9332 74.2419 54.8798 73.9436 54.7377V54.7377Z" fill="#010101"/> <path d="M117.805 34.687C103.947 20.6647 83.4901 27.9036 84.5076 36.9657C85.6232 47.015 99.4885 48.7366 117.805 34.687Z" fill="#41A935"/> <path d="M45.1113 121.558C44.7823 121.422 44.5039 121.187 44.3153 120.886C44.1267 120.584 44.0373 120.231 44.0596 119.876C44.0819 119.522 44.2148 119.183 44.4397 118.908C44.6646 118.633 44.9702 118.435 45.3136 118.343L48.1995 117.389C48.6056 117.26 49.0454 117.286 49.4337 117.462C49.822 117.639 50.131 117.953 50.3006 118.344L51.4382 120.945C51.58 121.353 51.5625 121.8 51.3892 122.195C51.2159 122.591 50.8995 122.907 50.5031 123.079C50.1068 123.252 49.6597 123.269 49.2509 123.127C48.8422 122.984 48.5019 122.694 48.298 122.312L47.7879 121.138L46.368 121.6C45.9593 121.747 45.5097 121.732 45.1113 121.558V121.558Z" fill="#1E1E1C"/> <path d="M62.1896 77.9718C62.2132 77.9551 62.2408 77.9449 62.2697 77.9422C62.2985 77.9395 62.3276 77.9444 62.354 77.9564C62.3804 77.9684 62.4032 77.9871 62.4201 78.0106C62.4371 78.0341 62.4475 78.0616 62.4505 78.0904C62.7912 79.7833 64.355 88.4818 58.8057 87.5304C53.2564 86.5791 60.814 79.2484 62.1896 77.9718Z" fill="#010101"/> <path d="M65.2929 83.8311C65.1758 83.8473 65.0564 83.8312 64.9477 83.7846C64.8389 83.7379 64.745 83.6625 64.676 83.5664C64.607 83.4704 64.5657 83.3573 64.5564 83.2395C64.5471 83.1218 64.5703 83.0038 64.6233 82.8983C65.872 80.4064 69.2674 74.7228 72.7194 78.2103C76.1715 81.6978 68.3926 83.3547 65.2929 83.8311Z" fill="#010101"/> </g> <defs> <clipPath id="clip0_1421_18442"> <rect width="101.837" height="111.002" fill="white" transform="translate(45.9336) rotate(24.4443)"/> </clipPath> </defs> </svg>