<svg width="86" height="83" viewBox="0 0 86 83" fill="none" xmlns="http://www.w3.org/2000/svg">
<g clip-path="url(#clip0_580_7732)">
<path d="M24.0433 12.8385C22.8337 19.0021 24.2576 28.6058 29.1867 38.702C34.1158 48.7982 49.4729 56.2074 61.2183 58.4034C72.9637 60.5994 77.4289 57.1865 78.491 59.6238C77.846 57.1709 77.8069 56.6298 72.2849 56.0122C66.7629 55.3945 50.5042 52.3809 41.7817 42.9842C33.0592 33.5875 25.3288 19.2767 27.0982 8.74032C27.7945 4.53988 29.8786 4.57621 29.1974 3.27877C28.9118 2.73826 27.9925 2.39834 26.9788 2.25921C25.7244 5.70321 24.7429 9.24054 24.0433 12.8385Z" fill="#FBEE6F"/>
<path d="M23.6011 2.83965C23.0292 3.84108 23.3155 4.7852 23.2386 5.98533C23.2386 5.98533 23.227 10.5508 18.3426 15.2545C13.4582 19.9583 14.8604 29.9452 16.8622 36.1148C18.9412 42.5665 26.8918 58.0138 44.2464 64.8204C58.0476 70.2438 64.7317 68.4791 70.2433 66.1504C75.7548 63.8216 79.146 62.0655 78.5044 59.6089C77.4422 57.1717 72.977 60.5846 61.2316 58.3886C49.4862 56.1926 34.5989 47.9688 29.6698 37.8726C24.7406 27.7764 22.8408 19.009 24.043 12.8386C24.7357 9.23539 25.7109 5.69235 26.9598 2.24229C25.5474 2.05363 23.9313 2.25296 23.6011 2.83965Z" fill="#FCC406"/>
<path d="M29.0352 4.41488C29.0352 4.41488 27.0635 5.19135 26.0274 5.03182C24.9914 4.87229 23.3392 4.13028 23.6078 2.8249C23.8764 1.51951 26.9256 1.26143 28.2172 2.08431C29.5088 2.90718 29.7235 3.84744 29.0352 4.41488Z" fill="#533913"/>
<path d="M49.9013 63.8995C49.798 63.8016 49.7346 63.6688 49.7235 63.5269C49.7123 63.385 49.7542 63.244 49.841 63.1311C49.9277 63.0183 50.0533 62.9416 50.1933 62.916C50.3333 62.8903 50.4779 62.9175 50.599 62.9923C50.6363 63.0263 54.7783 65.6362 59.1709 64.2197C59.243 64.1958 59.3191 64.1863 59.3948 64.1917C59.4706 64.1972 59.5445 64.2175 59.6124 64.2515C59.6803 64.2856 59.7409 64.3326 59.7906 64.39C59.8403 64.4475 59.8782 64.5141 59.9021 64.5862C59.9261 64.6583 59.9356 64.7343 59.9302 64.8101C59.9247 64.8858 59.9044 64.9598 59.8704 65.0277C59.8363 65.0956 59.7893 65.1561 59.7319 65.2058C59.6744 65.2555 59.6078 65.2935 59.5357 65.3174C54.6153 66.9081 50.1743 64.0869 49.9902 63.9668L49.9013 63.8995Z" fill="#FBEE6F"/>
</g>
<defs>
<clipPath id="clip0_580_7732">
<rect width="80.0315" height="38.5927" fill="white" transform="translate(26.0068) rotate(42.3673)"/>
</clipPath>
</defs>
</svg>
