<svg xmlns="http://www.w3.org/2000/svg" width="90" height="88" viewBox="0 0 90 88" fill="none"> <path d="M65.5657 6.9289C45.7983 10.3332 40.5227 31.7753 48.8286 36.1883C58.0399 41.0945 67.2805 30.4747 65.5657 6.9289Z" fill="#41A935"/> <path d="M89.4512 38.8358C74.0715 19.9352 48.2416 27.1284 48.5046 38.5407C48.8048 51.2081 65.556 54.6645 89.4512 38.8358Z" fill="#70B62E"/> <path d="M65.137 48.9792C68.0127 36.9878 60.6229 24.9357 48.6315 22.06C36.6402 19.1843 24.588 26.574 21.7123 38.5654C18.8366 50.5568 26.2263 62.6089 38.2177 65.4846C50.2091 68.3603 62.2613 60.9706 65.137 48.9792Z" fill="#1769B2"/> <path d="M54.1506 40.0907C55.6926 42.1606 54.4417 45.0384 50.7201 43.3715C48.3184 42.2882 47.0239 41.9332 44.6895 44.8004C42.266 47.7797 40.0772 45.4746 40.6355 42.404C41.2164 39.2765 38.6202 38.9298 36.7192 38.1713C33.168 36.7589 33.7466 33.6041 36.9044 32.7592C40.2172 31.8624 40.9142 30.3294 41.13 28.7611C42.0365 22.1601 45.007 23.6557 47.7517 28.3196C48.6162 29.7998 51.4174 29.8484 53.4589 29.5013C56.0203 29.0652 57.7673 30.8371 54.8764 33.6866C54.1069 34.4456 51.8812 37.0451 54.1506 40.0907ZM51.407 36.2015C52.6934 29.7984 42.3413 28.0902 41.2923 34.5058C40.1794 41.2621 50.6803 42.721 51.407 36.2015Z" fill="#04528F"/> <path d="M26.8604 46.5421C26.7039 46.6381 26.5281 46.7028 26.3332 46.7361C25.5784 46.84 24.8679 46.3135 24.7641 45.5587C23.7723 38.4847 27.3797 33.9466 27.5396 33.7624C28.0209 33.1658 28.904 33.0838 29.5007 33.5651C30.0974 34.0465 30.1834 34.9127 29.702 35.5094C29.5735 35.6744 26.7053 39.3571 27.517 45.1775C27.5915 45.7205 27.3196 46.2606 26.8604 46.5421Z" fill="#2D80C3"/> </svg>