<svg xmlns="http://www.w3.org/2000/svg" width="189" height="192" viewBox="0 0 189 192" fill="none"> <g clip-path="url(#clip0_1440_19003)"> <path fill-rule="evenodd" clip-rule="evenodd" d="M163.231 82.6984C169.367 89.4634 172.564 98.3886 172.119 107.511C171.674 116.633 167.624 125.205 160.859 131.34C154.094 137.476 145.168 140.673 136.046 140.228C126.924 139.783 118.352 135.733 112.217 128.968C104.423 120.375 103.962 110.184 108.902 103.346C112.002 99.0102 118.359 97.5987 123.307 93.6081C131.902 86.6544 132.166 81.1529 137.353 77.9592C148.404 71.1488 155.933 74.6447 163.231 82.6984Z" fill="#CA151A"/> <path d="M157.176 128.042C156.832 128.204 156.446 128.251 156.074 128.177C155.702 128.103 155.363 127.911 155.108 127.629C154.953 127.458 154.834 127.258 154.756 127.04C154.679 126.822 154.645 126.591 154.657 126.361C154.669 126.13 154.727 125.904 154.827 125.695C154.926 125.487 155.066 125.3 155.238 125.146C157.775 122.847 159.834 120.071 161.297 116.976C162.76 113.881 163.599 110.528 163.766 107.109C163.933 103.69 163.424 100.271 162.268 97.0489C161.113 93.8264 159.334 90.8633 157.033 88.3288L156.743 87.8989C156.564 87.511 156.53 87.071 156.65 86.6605C156.769 86.2499 157.033 85.8964 157.393 85.6654C157.753 85.4343 158.184 85.3414 158.607 85.4036C159.03 85.4659 159.416 85.6792 159.694 86.0042C164.945 91.8212 167.674 99.4836 167.282 107.31C166.891 115.137 163.411 122.489 157.606 127.753C157.476 127.868 157.331 127.965 157.176 128.042V128.042Z" fill="#B01918"/> <path fill-rule="evenodd" clip-rule="evenodd" d="M130.659 125.872C132.12 130.15 132.724 134.674 132.437 139.185C132.149 143.696 130.976 148.107 128.984 152.164C126.992 156.222 124.221 159.848 120.828 162.835C117.434 165.821 113.486 168.11 109.209 169.571C104.931 171.032 100.407 171.636 95.8959 171.348C91.3847 171.061 86.9743 169.888 82.9165 167.896C78.8587 165.904 75.233 163.132 72.2463 159.739C69.2597 156.346 66.9706 152.398 65.5098 148.12C61.7677 137.129 65.3839 127.568 72.6502 123.287C77.2723 120.533 83.5998 121.78 89.7274 120.065C100.354 117.114 102.801 112.159 108.834 111.297C121.668 109.379 127.166 115.588 130.659 125.872Z" fill="#E20E17"/> <path d="M110.787 163.688C109.747 164.183 108.678 164.615 107.585 164.98C107.144 165.13 106.661 165.098 106.243 164.892C105.824 164.686 105.505 164.322 105.356 163.88C105.206 163.438 105.237 162.955 105.444 162.537C105.65 162.119 106.014 161.8 106.456 161.65C112.999 159.418 118.389 154.682 121.444 148.48C124.498 142.278 124.966 135.117 122.747 128.57L122.664 128.214C122.628 127.783 122.751 127.355 123.009 127.008C123.268 126.662 123.644 126.422 124.066 126.334C124.489 126.246 124.93 126.315 125.305 126.529C125.68 126.743 125.964 127.087 126.103 127.496C128.415 134.358 128.133 141.83 125.311 148.498C122.489 155.166 117.322 160.57 110.787 163.688Z" fill="#B01918"/> <path d="M72.4676 147.506L72.2852 147.593C71.8417 147.742 71.357 147.71 70.9372 147.503C70.5174 147.296 70.1966 146.932 70.045 146.489C67.2834 138.332 69.2508 130.839 75.0828 127.374C75.4848 127.136 75.965 127.068 76.4177 127.184C76.8704 127.299 77.2585 127.59 77.4966 127.993C77.7347 128.395 77.8034 128.875 77.6875 129.327C77.5716 129.78 77.2806 130.168 76.8785 130.406C72.5452 132.973 71.1684 138.846 73.3892 145.353C73.5279 145.762 73.5107 146.208 73.3406 146.606C73.1705 147.003 72.8596 147.324 72.4676 147.506Z" fill="#E94455"/> <path d="M128.3 98.7508C127.937 98.9218 127.527 98.9643 127.136 98.8713C126.746 98.7784 126.398 98.5555 126.151 98.2392C73.6702 30.3259 55.4602 40.6625 55.2778 40.7489C54.8892 40.9976 54.4195 41.0862 53.967 40.9961C53.5145 40.9061 53.1144 40.6444 52.8506 40.2659C52.5917 39.8882 52.4906 39.4242 52.5692 38.973C52.6477 38.5219 52.8995 38.1193 53.2708 37.8513C55.2947 36.4296 74.6286 25.8186 128.907 96.0416C129.19 96.4131 129.315 96.8814 129.254 97.3445C129.194 97.8076 128.952 98.2279 128.583 98.5139C128.498 98.6038 128.404 98.6834 128.3 98.7508V98.7508Z" fill="#010101"/> <path d="M54.3323 48.8399C25.186 41.0787 8.33498 60.5284 5.89812 72.3999C15.3492 73.2366 24.8498 71.486 33.382 67.3357C41.9141 63.1854 49.1562 56.7917 54.3323 48.8399" fill="#41A935"/> <path d="M52.2008 42.377C51.6255 42.6493 51.2887 42.8087 51.2466 42.8286C50.8108 42.9466 50.3465 42.8936 49.9485 42.6806C49.5506 42.4675 49.2491 42.1104 49.1057 41.6823C48.9624 41.2543 48.988 40.7876 49.1773 40.3778C49.3667 39.968 49.7055 39.6461 50.1244 39.4779C53.06 38.2023 55.5128 36.0246 57.1269 33.2607C57.3825 32.8874 57.7724 32.6273 58.2152 32.5346C58.658 32.442 59.1195 32.524 59.5033 32.7635C59.8871 33.003 60.1635 33.3815 60.2749 33.82C60.3862 34.2584 60.3239 34.723 60.1009 35.1166C58.2081 38.2359 55.4686 40.7537 52.2008 42.377Z" fill="#010101"/> <path d="M93.2972 126.809C93.1872 126.878 93.0694 126.934 92.9464 126.975C92.4922 127.075 92.017 126.992 91.6234 126.745C91.2298 126.497 90.9494 126.105 90.8429 125.652C76.8136 62.6243 63.3621 46.8333 56.5827 43.0341C55.5103 42.3082 54.2315 41.9492 52.938 42.0109C52.7193 42.0851 52.4882 42.1155 52.2578 42.1003C52.0274 42.0852 51.8022 42.0248 51.5951 41.9226C51.3881 41.8205 51.2032 41.6785 51.051 41.5049C50.8988 41.3312 50.7823 41.1293 50.7081 40.9107C50.6339 40.692 50.6036 40.4609 50.6187 40.2305C50.6339 40.0001 50.6943 39.7749 50.7964 39.5679C50.8986 39.3608 51.0406 39.1759 51.2142 39.0237C51.3878 38.8715 51.5897 38.755 51.8084 38.6809C52.061 38.5613 54.5417 37.8509 58.3087 39.967C67.2012 44.9647 80.6717 63.7354 94.2903 124.879C94.3626 125.265 94.3042 125.665 94.1244 126.014C93.9446 126.364 93.6535 126.643 93.2972 126.809V126.809Z" fill="#010101"/> <path d="M94.5073 127.044C92.2948 128.107 89.8166 128.491 87.386 128.147C87.1573 128.116 86.9369 128.041 86.7372 127.926C86.5376 127.81 86.3627 127.656 86.2225 127.473C86.0823 127.289 85.9796 127.08 85.9202 126.857C85.8609 126.634 85.846 126.402 85.8765 126.173C85.9069 125.945 85.9822 125.724 86.0978 125.524C86.2135 125.325 86.3674 125.15 86.5507 125.01C86.7339 124.87 86.943 124.767 87.1659 124.708C87.3889 124.648 87.6214 124.633 87.8501 124.664C89.2853 124.855 90.7453 124.708 92.1141 124.236C93.4829 123.764 94.7228 122.98 95.7355 121.945C96.0469 121.597 96.4837 121.387 96.9499 121.361C97.4161 121.336 97.8734 121.496 98.2212 121.808C98.5691 122.119 98.7789 122.556 98.8047 123.022C98.8304 123.488 98.6699 123.945 98.3585 124.293C97.2582 125.443 95.9519 126.376 94.5073 127.044V127.044Z" fill="#010101"/> <path d="M126.434 101.231C125.779 101.539 125.1 101.791 124.404 101.986C124.181 102.048 123.949 102.065 123.72 102.037C123.49 102.009 123.269 101.935 123.068 101.821C122.868 101.707 122.691 101.555 122.55 101.373C122.408 101.19 122.303 100.982 122.243 100.759C122.177 100.537 122.157 100.305 122.182 100.075C122.208 99.8458 122.279 99.6236 122.391 99.4217C122.503 99.2198 122.655 99.0423 122.836 98.8996C123.018 98.7569 123.226 98.6519 123.449 98.5906C124.84 98.1949 126.12 97.4806 127.188 96.5044C128.255 95.5281 129.081 94.3167 129.599 92.9661C129.776 92.5621 130.098 92.2388 130.501 92.0598C130.904 91.8807 131.36 91.8587 131.779 91.9982C132.197 92.1376 132.549 92.4284 132.764 92.8135C132.979 93.1986 133.043 93.6503 132.943 94.08C131.77 97.2098 129.44 99.7698 126.434 101.231V101.231Z" fill="#010101"/> </g> <defs> <clipPath id="clip0_1440_19003"> <rect width="139.293" height="146" fill="white" transform="translate(0 59.9387) rotate(-25.3287)"/> </clipPath> </defs> </svg>