<svg width="692" height="405" viewBox="0 0 692 405" fill="none" xmlns="http://www.w3.org/2000/svg">
<path fill-rule="evenodd" clip-rule="evenodd" d="M273.772 9.05873C313.245 -2.78156 355.455 -3.02001 395.067 8.37352C421.384 15.9462 445.903 28.4674 467.223 45.2216C471.302 48.4276 475.249 51.7765 479.057 55.2601C482.641 53.8966 486.284 52.659 489.98 51.5514C519.444 42.7223 550.95 42.5547 580.512 51.0695C620.153 62.4936 653.487 88.701 673.182 123.928C692.877 159.155 697.321 200.518 685.536 238.918C676.744 267.553 659.383 293.02 635.648 312.097C611.914 331.175 582.873 343.007 552.196 346.097C530.807 348.252 509.293 346.089 488.98 339.857C482.763 346.366 476.089 352.497 468.989 358.201C437.184 383.754 398.272 399.599 357.171 403.734C316.07 407.868 274.627 400.107 238.079 381.429C211.843 368.021 188.975 349.421 170.88 326.971C156.684 337.872 139.561 344.637 121.513 346.454C102.759 348.341 83.8475 344.799 67.1712 336.275C50.4949 327.752 36.8025 314.629 27.8256 298.568C18.8487 282.506 14.9905 264.226 16.7389 246.041C18.2773 230.04 24.0955 214.744 33.5666 201.641C26.1129 194.126 19.6931 185.638 14.5157 176.375C3.18302 156.1 -1.68819 133.025 0.518245 110.068C2.72468 87.1113 11.9097 65.3038 26.9116 47.4035C41.9134 29.5031 62.0583 16.3139 84.7989 9.50381C107.539 2.69371 131.854 2.56861 154.668 9.14428C175.509 15.1513 194.09 26.4542 208.623 41.6458C228.086 27.2239 250.119 16.1538 273.772 9.05873Z" fill="#FFF4C3"/>
</svg>
