<svg width="165" height="99" viewBox="0 0 165 99" fill="none" xmlns="http://www.w3.org/2000/svg">
<path fill-rule="evenodd" clip-rule="evenodd" d="M65.3966 2.49049C74.7081 -0.408456 84.6699 -0.481626 94.0229 2.28024C100.237 4.1159 106.028 7.1579 111.066 11.2324C112.03 12.0122 112.963 12.8269 113.863 13.6744C114.708 13.3408 115.568 13.0378 116.44 12.7666C123.391 10.6049 130.826 10.5528 137.806 12.6168C147.166 15.3861 155.043 21.7596 159.704 30.3356C164.365 38.9115 165.429 48.9877 162.662 58.3481C160.597 65.3281 156.509 71.5391 150.915 76.1958C145.321 80.8525 138.471 83.7457 131.232 84.5095C126.185 85.0422 121.106 84.5228 116.309 83.0114C114.845 84.5997 113.272 86.0959 111.598 87.4883C104.101 93.7256 94.9234 97.6002 85.2248 98.6223C75.5263 99.6443 65.7424 97.768 57.1101 93.2304C50.9133 89.973 45.5097 85.4492 41.2309 79.9862C37.8845 82.6469 33.8461 84.3013 29.5875 84.7503C25.1619 85.2168 20.6974 84.3606 16.7586 82.2898C12.8197 80.219 9.58333 77.0266 7.4588 73.1164C5.33426 69.2063 4.41696 64.7539 4.8229 60.3224C5.18007 56.4233 6.54755 52.6944 8.77792 49.4985C7.01585 47.6703 5.49748 45.6043 4.27208 43.3491C1.59 38.4132 0.431857 32.7927 0.94413 27.1985C1.4564 21.6044 3.6161 16.2877 7.15005 11.921C10.684 7.55427 15.4335 4.33355 20.7979 2.66617C26.1623 0.998785 31.9007 0.959624 37.2874 2.55362C42.2083 4.00979 46.5978 6.75708 50.0331 10.4533C54.6212 6.9326 59.8171 4.2276 65.3966 2.49049Z" fill="#FDDA64"/>
</svg>
