<svg width="161" height="123" viewBox="0 0 161 123" fill="none" xmlns="http://www.w3.org/2000/svg">
<path d="M22.79 30.5591C22.79 30.5591 9.47197 36.545 29.2818 68.9823C49.7082 102.524 99.4923 109.247 108.388 94.7561L22.79 30.5591Z" fill="#643112"/>
<path d="M32.4065 28.7763C31.8671 29.3672 30.8846 29.5535 30.1525 29.0205C27.009 26.8278 23.4126 22.4613 23.2649 22.3265C22.6676 21.6459 22.7574 20.5092 23.4381 19.912C24.1187 19.3147 25.2553 19.4045 25.8526 20.0852C25.9265 20.1526 29.3687 24.2429 32.1494 26.2398C32.8816 26.7728 33.0743 27.8965 32.5413 28.6286C32.4739 28.7025 32.4065 28.7763 32.4065 28.7763Z" fill="#643114"/>
<path d="M42.8021 14.5709C40.4164 13.4762 37.5364 13.9612 35.6485 16.0291C34.8395 16.9154 34.3194 17.93 34.1557 18.9992C34.1012 19.3556 34.114 19.6382 34.0595 19.9946C33.8606 21.844 33.1256 25.9122 31.8991 26.959C30.1943 28.3815 24.6012 29.9103 24.6012 29.9103C23.41 30.1768 22.3055 30.7934 21.3616 31.8273C19.5412 33.8214 19.3135 36.5923 20.4053 38.8077C20.4053 38.8077 40.8036 82.6145 81.8288 92.8507C81.8288 92.8507 95.2792 97.5471 103.386 96.8241C104.523 96.9139 105.714 96.6473 106.751 96.1046C107.027 95.9505 107.377 95.8638 107.58 95.6422L107.506 95.5748C107.782 95.4206 108.052 95.1252 108.321 94.8298C108.591 94.5344 108.793 94.3128 108.989 93.95L109.063 94.0174C109.191 93.7284 109.32 93.4395 109.448 93.1505C109.894 92.0684 110.052 90.8579 109.859 89.7341C109.842 81.5948 103.943 68.6267 103.943 68.6267C90.0887 28.6275 42.8021 14.5709 42.8021 14.5709Z" fill="#A55B16"/>
<path d="M49.0956 25.3266C47.2878 24.4887 45.1142 24.9416 43.6983 26.4925C43.0915 27.1572 42.7737 27.9503 42.5297 28.8108C42.4688 29.0259 42.4816 29.3085 42.4206 29.5236C42.2024 30.9492 41.705 34.0156 40.822 34.8344C39.5956 35.8812 35.3285 36.9957 35.3285 36.9957C34.4199 37.2494 33.5177 37.6444 32.8434 38.3829C31.495 39.86 31.3089 41.992 32.1664 43.7225C32.1664 43.7225 47.6224 76.9244 78.771 84.7789C78.771 84.7789 88.9817 88.2779 95.1175 87.7862C96.039 87.815 96.8802 87.6352 97.6411 87.2466C97.8498 87.1663 98.1259 87.0122 98.2608 86.8645L98.1869 86.7971C98.3892 86.5755 98.5979 86.4952 98.8002 86.2737C99.0024 86.0521 99.1373 85.9044 99.2657 85.6154L99.3395 85.6828C99.4005 85.4677 99.6028 85.2461 99.6638 85.031C99.9816 84.2379 100.152 83.31 99.9718 82.4688C99.9714 76.2398 95.4916 66.4632 95.4916 66.4632C84.9739 36.0095 49.0956 25.3266 49.0956 25.3266Z" fill="#643112"/>
<path d="M76.5834 69.377C77.2769 69.0623 77.9961 69.3127 78.3109 70.0062C78.7861 71.1171 79.2262 73.0082 78.186 75.0375C77.2004 76.7104 75.7717 77.9788 74.7411 78.6628C74.054 79.1188 73.0458 78.74 72.7985 77.9726C72.3713 76.364 71.9666 73.6927 73.9282 71.6922C75.0005 70.3693 75.9637 69.7591 76.5834 69.377Z" fill="#A55B16"/>
<path d="M86.4444 72.9628C87.1379 72.648 87.8571 72.8984 88.1718 73.5919C88.6471 74.7028 89.0871 76.594 88.047 78.6233C87.0614 80.2962 85.6327 81.5646 84.6021 82.2485C83.915 82.7045 82.9068 82.3257 82.6595 81.5584C82.2323 79.9498 81.8276 77.2784 83.7892 75.2779C84.8615 73.955 85.7509 73.2775 86.4444 72.9628Z" fill="#A55B16"/>
<path d="M67.3646 64.3464C68.0582 64.0316 68.7774 64.282 69.0921 64.9755C69.5674 66.0865 70.0074 67.9776 68.9672 70.0069C67.9817 71.6798 66.5529 72.9482 65.5223 73.6321C64.8352 74.0881 63.827 73.7093 63.5797 72.942C63.1526 71.3334 62.7478 68.662 64.7095 66.6615C65.8492 65.2648 66.8124 64.6546 67.3646 64.3464Z" fill="#A55B16"/>
<path d="M59.8995 57.3954C60.593 57.0807 61.3122 57.331 61.6269 58.0246C62.1022 59.1355 62.5422 61.0266 61.5021 63.0559C60.5165 64.7288 59.0878 65.9972 58.0571 66.6812C57.3701 67.1371 56.3618 66.7583 56.1145 65.991C55.6874 64.3824 55.2826 61.711 57.2443 59.7106C58.3166 58.3876 59.2059 57.7101 59.8995 57.3954Z" fill="#A55B16"/>
<path d="M57.571 45.1141C56.8775 45.4288 56.0844 45.111 55.8436 44.4849C55.3683 43.374 54.9283 41.4829 56.1097 39.4472C57.0953 37.7743 58.5979 36.5733 59.6285 35.8893C60.3156 35.4333 61.3238 35.8122 61.5036 36.6534C61.9308 38.262 62.2617 40.8659 60.2326 42.9402C59.1603 44.2632 58.2645 44.7994 57.571 45.1141Z" fill="#A55B16"/>
<path d="M47.8445 41.3807C47.1509 41.6954 46.3579 41.3776 46.117 40.7515C45.6417 39.6406 45.2017 37.7495 46.3831 35.7138C47.3687 34.0409 48.8713 32.8399 49.9019 32.1559C50.589 31.7 51.5972 32.0788 51.7771 32.92C52.2042 34.5286 52.5351 37.1325 50.5061 39.2068C49.3599 40.4623 48.4705 41.1399 47.8445 41.3807Z" fill="#A55B16"/>
<path d="M66.7283 50.3601C66.0347 50.6748 65.2416 50.357 65.0008 49.7309C64.5255 48.62 64.0855 46.7289 65.2669 44.6931C66.2525 43.0202 67.7551 41.8193 68.7857 41.1353C69.4728 40.6793 70.481 41.0581 70.6609 41.8993C71.088 43.5079 71.4189 46.1119 69.3898 48.1862C68.2437 49.4417 67.2805 50.0518 66.7283 50.3601Z" fill="#A55B16"/>
<path d="M74.1267 57.3847C73.4332 57.6994 72.6401 57.3816 72.3992 56.7555C71.9239 55.6446 71.4839 53.7535 72.6654 51.7177C73.6509 50.0448 75.1535 48.8439 76.1841 48.1599C76.8712 47.7039 77.8794 48.0827 78.0593 48.9239C78.4865 50.5325 78.8174 53.1365 76.7883 55.2108C75.6421 56.4663 74.7528 57.1438 74.1267 57.3847Z" fill="#A55B16"/>
<path d="M157.831 29.7144C159.131 29.4144 160.331 30.2144 160.631 31.5144C161.031 33.6144 161.131 37.1144 158.331 40.2144C155.931 42.8144 153.031 44.3144 150.931 45.1144C149.531 45.6144 147.931 44.6144 147.831 43.1144C147.631 40.1144 148.031 35.4144 152.231 32.5144C154.731 30.8144 156.531 30.0144 157.831 29.7144Z" fill="#643112"/>
<path d="M149.63 50.6144C150.43 51.6144 150.23 53.1144 149.13 53.9144C147.43 55.1144 144.23 56.7144 140.33 55.5144C136.93 54.4144 134.33 52.4144 132.83 50.8144C131.73 49.7144 132.03 47.9144 133.33 47.2144C135.93 45.8144 140.43 44.2144 144.83 46.8144C147.43 48.2144 148.83 49.6144 149.63 50.6144Z" fill="#643112"/>
<path d="M155.73 57.8144C157.03 57.9144 158.03 59.0144 157.83 60.3144C157.63 62.4144 156.73 65.9144 153.23 68.0144C150.23 69.9144 146.93 70.4144 144.73 70.6144C143.23 70.7144 142.03 69.3144 142.33 67.9144C142.93 65.0144 144.73 60.6144 149.53 59.0144C152.53 57.9144 154.53 57.7144 155.73 57.8144Z" fill="#643112"/>
<path d="M128.031 30.8144C127.831 29.5144 128.631 28.3144 129.931 28.1144C132.031 27.8144 135.631 27.9144 138.531 30.8144C141.031 33.3144 142.331 36.3144 143.031 38.5144C143.531 39.9144 142.431 41.4144 140.931 41.5144C137.931 41.6144 133.231 40.9144 130.531 36.6144C128.931 33.9144 128.231 32.0144 128.031 30.8144Z" fill="#643112"/>
</svg>
