<svg width="43" height="34" viewBox="0 0 43 34" fill="none" xmlns="http://www.w3.org/2000/svg">
<path d="M30.0426 17.6074L43 14L32.9574 30.4172L20 34L30.0426 17.6074Z" fill="white"/>
<path d="M13 3.51563L26.6798 0L43 11.4844L29.3453 15L13 3.51563Z" fill="white"/>
<path d="M10.9688 4L0 21.4436L17.0312 34L28 16.5564L10.9688 4ZM15.7725 15.1278C16.5431 15.203 17.1083 15.8797 17.0312 16.6065C16.9541 17.3584 16.2862 17.9098 15.4899 17.8346C14.7193 17.7594 14.1541 17.0827 14.2312 16.3308C14.3083 15.6291 15.0018 15.0526 15.7725 15.1278ZM10.9688 13.6742C11.9706 13.7744 12.7156 14.6516 12.6385 15.6291C12.5358 16.6065 11.6367 17.3333 10.6349 17.2581C9.60734 17.1579 8.86239 16.2807 8.96514 15.3033C9.06789 14.3008 9.94128 13.5739 10.9688 13.6742ZM19.1376 26.0802C19.1119 26.0802 19.0862 26.0802 19.0606 26.0802C18.7009 26.0551 18.4183 25.7794 18.4183 25.4035C18.3927 23.4987 15.9009 21.0426 13.3835 20.391C10.2752 19.6892 6.98716 20.817 6.2422 22.2957C6.06239 22.6466 5.65138 22.7719 5.29174 22.6216C4.9578 22.4461 4.80367 22.0201 4.98349 21.6942C6.11376 19.4887 10.1982 18.2356 13.7431 19.0627C16.9028 19.8647 19.8055 22.8722 19.8312 25.3784C19.8312 25.7544 19.5229 26.0802 19.1376 26.0802Z" fill="white"/>
</svg>
