<svg xmlns="http://www.w3.org/2000/svg" width="108" height="123" viewBox="0 0 108 123" fill="none"> <path d="M52.5866 89.2912C52.3058 89.2912 51.9548 89.0806 51.8144 88.7998C51.6038 88.2382 46.3388 74.9704 52.6568 63.3873C52.8674 62.9661 53.3588 62.8257 53.7098 63.0363C54.131 63.2469 54.2714 63.7383 54.0608 64.0893C48.164 75.0406 53.2184 88.0276 53.2886 88.168C53.429 88.5892 53.2886 89.0104 52.8674 89.221C52.7972 89.2912 52.6568 89.2912 52.5866 89.2912Z" fill="#28A437"/> <path d="M30.8245 77.1466C29.3503 77.1466 28.4377 77.0062 28.2973 76.936C27.8761 76.8658 27.5953 76.4446 27.6655 76.0234C27.7357 75.6022 28.1569 75.3214 28.5781 75.3916C28.7185 75.3916 41.8459 77.5679 52.727 63.247C53.0078 62.896 53.4992 62.8258 53.8502 63.1066C54.2012 63.3874 54.2714 63.8788 53.9906 64.2298C45.2858 75.6724 35.3876 77.1466 30.8245 77.1466Z" fill="#28A437"/> <path d="M35.9494 93.3628C35.809 93.3628 35.6686 93.3628 35.5282 93.2926C35.1772 93.082 35.0368 92.5906 35.2474 92.2396C36.7216 89.7124 70.9793 29.7615 83.6855 23.3732C84.1067 23.1626 84.5279 23.303 84.7385 23.7242C84.9491 24.1454 84.8087 24.5666 84.3875 24.7772C72.1025 30.8847 37.0024 92.38 36.6514 93.0118C36.511 93.2224 36.2302 93.3628 35.9494 93.3628Z" fill="#28A437"/> <path d="M72.6637 63.6682C72.3829 63.6682 72.1722 63.5278 72.0318 63.3172C71.9616 63.1768 63.6781 50.4003 70.1365 37.5537C70.3471 37.1325 70.8385 36.9921 71.1895 37.2027C71.6107 37.4133 71.7511 37.9047 71.5405 38.2557C65.5033 50.3301 73.2253 62.3344 73.3657 62.4748C73.5763 62.8258 73.5061 63.3172 73.1551 63.598C72.9445 63.598 72.8041 63.6682 72.6637 63.6682Z" fill="#28A437"/> <path d="M21.8391 116.599C21.4179 116.599 21.0669 116.248 21.0669 115.827C21.0669 115.406 21.3477 114.984 21.8391 114.984C23.1027 114.914 24.7173 113.931 25.2789 113.58C25.6299 113.37 26.1213 113.44 26.4021 113.791C26.6127 114.142 26.5425 114.634 26.1915 114.914C26.0511 114.985 23.8749 116.459 21.8391 116.599C21.9093 116.599 21.9093 116.599 21.8391 116.599Z" fill="#B65817"/> <path d="M26.1913 119.337C25.9105 119.337 25.6297 119.196 25.4893 118.916C24.6469 117.161 24.9277 114.353 24.9277 114.282C24.9979 113.861 25.349 113.51 25.7702 113.58C26.1914 113.651 26.5424 114.002 26.4722 114.423C26.402 115.125 26.3317 117.09 26.8933 118.214C27.1039 118.635 26.8933 119.056 26.5423 119.267C26.4019 119.267 26.2615 119.337 26.1913 119.337Z" fill="#B65817"/> <path d="M23.1026 118.635C22.892 118.635 22.7516 118.565 22.6112 118.424C22.2602 118.144 22.2601 117.652 22.5409 117.301C23.5939 116.108 24.9277 113.932 24.9277 113.932C25.1383 113.581 25.6297 113.44 26.0509 113.651C26.4019 113.861 26.5424 114.353 26.3318 114.774C26.2616 114.844 24.9278 117.091 23.8046 118.354C23.594 118.565 23.3834 118.635 23.1026 118.635Z" fill="#B65817"/> <path d="M68.5919 105.297C68.5217 105.297 68.4515 105.297 68.3111 105.227C67.8899 105.086 67.6793 104.665 67.8197 104.244C68.2409 103.05 68.0303 101.155 67.8899 100.523C67.8197 100.102 68.1005 99.6808 68.5217 99.6106C68.9429 99.5404 69.3641 99.8212 69.4343 100.242C69.4343 100.383 69.9257 102.91 69.2939 104.735C69.2237 105.086 68.8727 105.297 68.5919 105.297Z" fill="#B65817"/> <path d="M72.5932 102.419C70.6978 102.419 68.3812 101.155 68.311 101.155C67.96 100.944 67.7494 100.453 67.96 100.102C68.1706 99.751 68.662 99.5404 69.013 99.751C69.6448 100.102 71.3998 100.874 72.6634 100.874C73.1548 100.874 73.5058 101.155 73.5058 101.646C73.5058 102.068 73.225 102.489 72.7336 102.489C72.7336 102.419 72.6634 102.419 72.5932 102.419Z" fill="#B65817"/> <path d="M70.9783 104.946C70.6975 104.946 70.4167 104.805 70.2763 104.525C69.5743 103.121 68.1001 101.015 68.1001 101.015C67.8193 100.664 67.8895 100.172 68.3107 99.8914C68.6617 99.6106 69.1531 99.6808 69.4339 100.102C69.5041 100.172 70.9783 102.278 71.7505 103.823C71.9611 104.244 71.7505 104.665 71.3995 104.876C71.1889 104.946 71.0485 104.946 70.9783 104.946Z" fill="#B65817"/> <path d="M6.25518 78.1294C6.18498 78.1294 6.11474 78.1294 6.04454 78.1294C5.90414 78.1294 3.37695 77.4976 1.97294 76.234C1.62194 75.9532 1.62196 75.4618 1.90276 75.1108C2.18356 74.7598 2.67495 74.7598 3.02595 75.0406C4.14915 76.0234 6.32534 76.585 6.39555 76.585C6.81675 76.6552 7.09758 77.1466 6.95718 77.5678C6.88698 77.8486 6.60618 78.1294 6.25518 78.1294Z" fill="#B65817"/> <path d="M3.51718 81.3587C3.44698 81.3587 3.30659 81.3587 3.23639 81.2885C2.81518 81.1481 2.60458 80.6567 2.74498 80.2355C3.44698 78.4103 5.62319 76.7255 5.76359 76.6553C6.1146 76.3745 6.60598 76.4447 6.88678 76.7957C7.16758 77.1467 7.09737 77.6381 6.74637 77.9189C6.18477 78.3401 4.71059 79.6739 4.28939 80.8673C4.07879 81.1481 3.79798 81.3587 3.51718 81.3587Z" fill="#B65817"/> <path d="M1.90258 78.691C1.48138 78.691 1.13037 78.34 1.13037 77.9188C1.13037 77.4976 1.48138 77.0764 1.90258 77.0764C3.51718 77.0062 5.97418 76.5148 5.97418 76.5148C6.39538 76.4446 6.81657 76.7254 6.88677 77.1466C6.95697 77.5678 6.6762 77.989 6.25499 78.0592C6.18479 78.0592 3.65758 78.6208 1.90258 78.691Z" fill="#B65817"/> <path d="M29.5488 82.2136C33.398 75.9785 31.4638 67.8036 25.2288 63.9544C18.9937 60.1052 10.8188 62.0393 6.96959 68.2744C3.12039 74.5094 5.05452 82.6844 11.2896 86.5336C17.5247 90.3828 25.6996 88.4486 29.5488 82.2136Z" fill="#00446B"/> <path d="M72.6225 98.9792C76.4717 92.7441 74.5376 84.5692 68.3025 80.72C62.0674 76.8708 53.8925 78.8049 50.0433 85.04C46.1941 91.2751 48.1283 99.45 54.3633 103.299C60.5984 107.148 68.7733 105.214 72.6225 98.9792Z" fill="#00446B"/> <path d="M8.99226 74.2684C8.92206 74.2684 8.85188 74.2684 8.71148 74.1982C8.29028 74.0578 8.07967 73.6366 8.22007 73.2154C9.90488 68.0206 13.9765 66.1252 14.1169 66.055C14.5381 65.8444 14.9593 66.055 15.1699 66.4762C15.3805 66.8974 15.1699 67.3186 14.7487 67.5292C14.6785 67.5292 11.1685 69.214 9.69426 73.777C9.62406 74.0578 9.34326 74.2684 8.99226 74.2684Z" fill="#2D80C3"/> <path d="M51.8844 90.1336C51.8142 90.1336 51.744 90.1336 51.6036 90.0634C51.1824 89.923 50.9718 89.5018 51.1122 89.0806C52.797 83.8858 56.8686 81.9904 57.009 81.9202C57.4302 81.7096 57.8514 81.9202 58.062 82.3414C58.2726 82.7626 58.062 83.1838 57.6408 83.3944C57.5706 83.3944 54.0606 85.0792 52.5864 89.6422C52.5162 89.923 52.2354 90.1336 51.8844 90.1336Z" fill="#2D80C3"/> <path d="M91.5478 28.8489C75.3315 21.1269 60.3789 34.0437 64.1697 41.5551C68.3115 49.9089 80.5965 46.9605 91.5478 28.8489Z" fill="#41A935"/> <path d="M55.395 0.347656C39.4596 22.0395 54.2717 47.6626 66.4164 44.2227C79.8948 40.3617 78.9822 21.4779 55.395 0.347656Z" fill="#41A935"/> <path d="M83.0537 12.1413C61.9234 17.2659 57.8518 40.8532 67.1182 45.0652C77.4377 49.6984 86.6339 37.4835 83.0537 12.1413Z" fill="#70B62E"/> <path d="M35.9492 43.3102C46.058 28.4278 65.5035 32.0782 65.9949 40.432C66.6267 49.7686 54.5523 53.3488 35.9492 43.3102Z" fill="#41A935"/> <path d="M34.8262 24.5667C55.6756 18.3189 71.1197 36.6411 65.1526 44.9248C58.624 54.121 44.5138 48.2944 34.8262 24.5667Z" fill="#70B62E"/> <path d="M43.8536 110.241C48.1508 103.281 45.9915 94.1541 39.0307 89.8569C32.0698 85.5596 22.9433 87.7189 18.6461 94.6797C14.3488 101.641 16.5081 110.767 23.469 115.064C30.4298 119.362 39.5563 117.202 43.8536 110.241Z" fill="#00446B"/> <path d="M19.8731 100.523C19.8029 100.523 19.7327 100.523 19.5923 100.453C19.1711 100.313 18.9605 99.8915 19.1009 99.4703C20.7857 94.2755 24.8573 92.3801 24.9977 92.3099C25.4189 92.0993 25.8401 92.3099 26.0507 92.7311C26.2613 93.1523 26.0507 93.5735 25.6295 93.7841C25.5593 93.7841 22.0493 95.4689 20.5751 100.032C20.5049 100.313 20.2241 100.523 19.8731 100.523Z" fill="#2D80C3"/> <path d="M98.0064 84.307H97.9362C97.515 84.2368 97.164 83.8858 97.2342 83.4646C97.3746 82.201 96.6726 80.446 96.462 79.8844C96.2514 79.4632 96.462 79.042 96.8832 78.8314C97.3044 78.6208 97.7256 78.8314 97.9362 79.2526C98.0064 79.3228 99.0594 81.7798 98.8488 83.6752C98.7786 83.956 98.4276 84.307 98.0064 84.307Z" fill="#B65817"/> <path d="M99.9717 80.6566C98.4975 80.6566 97.0233 80.3056 96.9531 80.2354C96.5319 80.095 96.2511 79.6738 96.3915 79.2526C96.5319 78.8314 96.9531 78.5506 97.3743 78.691C98.0061 78.9016 99.9717 79.2526 101.235 78.9016C101.657 78.7612 102.078 79.042 102.218 79.4632C102.359 79.8844 102.078 80.3056 101.657 80.446C101.095 80.5864 100.533 80.6566 99.9717 80.6566Z" fill="#B65817"/> <path d="M100.253 83.3944C100.042 83.3944 99.7615 83.3242 99.6211 83.1136C98.5681 81.85 96.6727 80.2354 96.6727 80.2354C96.3217 79.9546 96.3216 79.4632 96.6024 79.1122C96.8832 78.7612 97.3747 78.7612 97.7257 79.042C97.7959 79.1122 99.7615 80.797 100.885 82.1308C101.165 82.4818 101.095 82.9732 100.744 83.254C100.604 83.3242 100.463 83.3944 100.253 83.3944Z" fill="#B65817"/> <path d="M102.093 73.4101C105.041 64.4619 100.177 54.8181 91.2287 51.8702C82.2804 48.9223 72.6366 53.7866 69.6887 62.7349C66.7408 71.6831 71.6051 81.3269 80.5534 84.2748C89.5016 87.2227 99.1454 82.3584 102.093 73.4101Z" fill="#00446B"/> <path d="M71.681 67.5993C71.681 67.5993 71.681 67.5291 71.681 67.5993C71.1896 67.5291 70.8386 67.1782 70.9088 66.7569C71.4002 61.2813 74.84 58.5435 74.9804 58.4031C75.3314 58.1223 75.8229 58.1925 76.1037 58.5435C76.3845 58.8945 76.3143 59.3859 75.9633 59.6667C75.9633 59.6667 72.8744 62.1237 72.5234 66.8973C72.4532 67.2483 72.1022 67.5993 71.681 67.5993Z" fill="#2D80C3"/> </svg>