<svg width="253" height="148" viewBox="0 0 253 148"  xmlns="http://www.w3.org/2000/svg">
<path fill-rule="evenodd" clip-rule="evenodd" d="M100.087 3.29311C114.436 -1.01118 129.781 -1.09786 144.181 3.04402C153.748 5.79691 162.661 10.3487 170.411 16.4394C171.895 17.6049 173.329 18.8224 174.714 20.0889C176.017 19.5932 177.341 19.1432 178.685 18.7405C189.396 15.5309 200.849 15.4699 211.596 18.5653C226.007 22.7183 238.125 32.2455 245.284 45.0516C252.444 57.8577 254.06 72.8941 249.776 86.8538C246.579 97.2635 240.268 106.521 231.64 113.457C223.012 120.392 212.454 124.693 201.303 125.816C193.527 126.6 185.706 125.813 178.321 123.548C176.061 125.914 173.635 128.143 171.054 130.216C159.492 139.506 145.346 145.266 130.404 146.769C115.463 148.272 100.397 145.45 87.1112 138.661C77.5736 133.787 69.2607 127.025 62.6827 118.864C57.5219 122.826 51.2974 125.286 44.7367 125.946C37.9188 126.632 31.044 125.345 24.9817 122.246C18.9194 119.147 13.9418 114.377 10.6784 108.538C7.41504 102.699 6.01248 96.0542 6.64808 89.4432C7.20733 83.6264 9.32238 78.0658 12.7653 73.3025C10.0555 70.5708 7.72161 67.485 5.83939 64.1175C1.71962 56.7469 -0.0512065 48.3584 0.750897 40.0129C1.553 31.6674 4.89203 23.7398 10.3456 17.2325C15.7992 10.7252 23.1225 5.9305 31.3894 3.45483C39.6562 0.979158 48.4953 0.933681 56.7888 3.32413C64.3652 5.50786 71.12 9.61676 76.4029 15.1394C83.4783 9.89662 91.488 5.87235 100.087 3.29311Z" />
</svg>
