<svg width="1719" height="1059" viewBox="0 0 1719 1059"  xmlns="http://www.w3.org/2000/svg">
<path d="M66.0066 680.255C45.483 700.135 29.2066 723.739 18.1075 749.72C7.00837 775.702 1.30352 803.55 1.31928 831.676C1.33496 859.802 7.07071 887.653 18.1988 913.64C29.327 939.626 45.6293 963.238 66.1751 983.127L78.4422 995.01C98.9755 1014.91 123.352 1030.7 150.179 1041.48C177.007 1052.26 205.76 1057.82 234.796 1057.83C263.833 1057.85 292.583 1052.32 319.405 1041.57C346.227 1030.82 370.597 1015.05 391.12 995.174C432.566 955.028 488.788 932.482 547.423 932.496C606.059 932.509 662.307 955.08 703.798 995.245C745.275 1035.42 801.516 1058.01 860.152 1058.04C918.788 1058.07 975.017 1035.54 1016.48 995.409C1037 975.529 1061.37 959.763 1088.19 949.012C1115.01 938.261 1143.76 932.735 1172.8 932.75C1201.84 932.765 1230.59 938.321 1257.42 949.1C1284.24 959.88 1308.62 975.671 1329.15 995.573C1370.64 1035.76 1426.89 1058.35 1485.54 1058.37C1544.19 1058.39 1600.42 1035.84 1641.88 995.69L1654.18 983.772C1695.49 943.588 1718.64 889.16 1718.56 832.431C1718.47 775.701 1695.16 721.304 1653.73 681.175C1612.26 640.985 1588.96 586.501 1588.95 529.704C1588.93 472.907 1612.21 418.447 1653.66 378.301C1695.11 338.147 1718.38 283.674 1718.36 226.866C1718.34 170.057 1695.02 115.567 1653.53 75.382L1641.27 63.5003C1599.78 23.315 1543.53 0.726824 1484.88 0.704657C1426.23 0.682575 1370 23.2282 1328.54 63.3821C1287.1 103.528 1230.87 126.073 1172.24 126.06C1113.6 126.046 1057.35 103.476 1015.86 63.3106C974.386 23.1333 918.145 0.545709 859.51 0.515048C800.874 0.484303 744.644 23.0129 703.186 63.1466C682.668 83.0327 658.304 98.8059 631.485 109.565C604.666 120.324 575.918 125.858 546.882 125.852C517.846 125.845 489.091 120.298 462.26 109.526C435.429 98.7551 411.048 82.9708 390.509 63.0753C349.022 22.8901 292.767 0.301659 234.12 0.279577C175.473 0.257495 119.237 22.8036 77.783 62.9576L65.5258 74.8304C24.072 114.984 0.79595 169.457 0.818725 226.265C0.841544 283.074 24.1616 337.564 65.6477 377.75C86.1934 397.639 102.496 421.251 113.624 447.237C124.752 473.224 130.488 501.076 130.503 529.201C130.519 557.327 124.814 585.175 113.715 611.157C102.616 637.138 86.3398 660.742 65.8162 680.622L66.0066 680.255Z" />
</svg>
