<svg width="637" height="400" viewBox="0 0 637 400" fill="none" xmlns="http://www.w3.org/2000/svg">
<path d="M78.1065 188.318H45.7213V300.137H78.1065V188.318Z" fill="#ADC910"/>
<path d="M126.684 176.818H94.2989V300.137H126.684V176.818Z" fill="#EFE41A"/>
<path d="M175.218 165.818H142.833V300.182H175.218V165.818Z" fill="#FFEB43"/>
<path d="M223.75 153.954H191.365V300.136H223.75V153.954Z" fill="#FBBE1F"/>
<path d="M271.691 142.591H239.306V300.182H271.691V142.591Z" fill="#F7A900"/>
<path d="M320.225 131.318H287.84V300.137H320.225V131.318Z" fill="#F18C16"/>
<path d="M368.803 119.637H336.417V300.137H368.803V119.637Z" fill="#F3722B"/>
<path d="M417.335 109.091H384.949V300.137H417.335V109.091Z" fill="#E75C68"/>
<path d="M610.921 63.5002H578.536V300.182H610.921V63.5002Z" fill="#3A3D4C"/>
<path d="M465.278 98.046H432.893V300.137H465.278V98.046Z" fill="#ED7BAD"/>
<path d="M513.81 86.3641H481.425V300.137H513.81V86.3641Z" fill="#B11116"/>
<path d="M562.342 74.6818H529.957V300.136H562.342V74.6818Z" fill="#AE0270"/>
<path d="M610.921 63.5002H578.536V300.182H610.921V63.5002Z" fill="#2F3289"/>
<path d="M25.7642 23.3181V319.318H595.953" stroke="#ADC910" stroke-width="5" stroke-miterlimit="10" stroke-linecap="round"/>
<path d="M68.6722 319.318C68.6722 323.046 65.6333 326.091 61.914 326.091C58.1946 326.091 55.1557 323.046 55.1557 319.318C55.1557 315.591 58.1946 312.546 61.914 312.546C65.6333 312.546 68.6722 315.591 68.6722 319.318Z" fill="#ADC910"/>
<path d="M117.206 319.318C117.206 323.046 114.167 326.091 110.448 326.091C106.728 326.091 103.689 323.046 103.689 319.318C103.689 315.591 106.728 312.546 110.448 312.546C114.167 312.546 117.206 315.591 117.206 319.318Z" fill="#ADC910"/>
<path d="M165.738 319.318C165.738 323.046 162.699 326.091 158.98 326.091C155.26 326.091 152.221 323.046 152.221 319.318C152.221 315.591 155.26 312.546 158.98 312.546C162.699 312.546 165.738 315.591 165.738 319.318Z" fill="#ADC910"/>
<path d="M214.314 319.318C214.314 323.046 211.275 326.091 207.555 326.091C203.836 326.091 200.797 323.046 200.797 319.318C200.797 315.591 203.836 312.546 207.555 312.546C211.275 312.546 214.314 315.591 214.314 319.318Z" fill="#ADC910"/>
<path d="M262.848 319.318C262.848 323.046 259.809 326.091 256.089 326.091C252.37 326.091 249.331 323.046 249.331 319.318C249.331 315.591 252.37 312.546 256.089 312.546C259.809 312.546 262.848 315.591 262.848 319.318Z" fill="#ADC910"/>
<path d="M311.425 319.318C311.425 323.045 308.386 326.091 304.667 326.091C300.948 326.091 297.909 323.045 297.909 319.318C297.909 315.591 300.948 312.545 304.667 312.545C308.386 312.545 311.425 315.591 311.425 319.318Z" fill="#ADC910"/>
<path d="M359.957 319.318C359.957 323.046 356.918 326.091 353.199 326.091C349.479 326.091 346.44 323.046 346.44 319.318C346.44 315.591 349.479 312.546 353.199 312.546C356.918 312.546 359.957 315.591 359.957 319.318Z" fill="#ADC910"/>
<path d="M408.491 319.318C408.491 323.046 405.452 326.091 401.732 326.091C398.013 326.091 394.974 323.046 394.974 319.318C394.974 315.591 398.013 312.546 401.732 312.546C405.452 312.546 408.491 315.591 408.491 319.318Z" fill="#ADC910"/>
<path d="M457.068 319.318C457.068 323.046 454.029 326.091 450.31 326.091C446.591 326.091 443.552 323.046 443.552 319.318C443.552 315.591 446.591 312.546 450.31 312.546C454.029 312.546 457.068 315.591 457.068 319.318Z" fill="#ADC910"/>
<path d="M505.602 319.318C505.602 323.046 502.563 326.091 498.844 326.091C495.125 326.091 492.086 323.046 492.086 319.318C492.086 315.591 495.125 312.546 498.844 312.546C502.563 312.546 505.602 315.591 505.602 319.318Z" fill="#ADC910"/>
<path d="M554.132 319.318C554.132 323.045 551.093 326.091 547.374 326.091C543.655 326.091 540.616 323.045 540.616 319.318C540.616 315.591 543.655 312.545 547.374 312.545C551.093 312.545 554.132 315.591 554.132 319.318Z" fill="#ADC910"/>
<path d="M602.71 319.318C602.71 323.046 599.671 326.091 595.952 326.091C592.233 326.091 589.194 323.046 589.194 319.318C589.194 315.591 592.233 312.546 595.952 312.546C599.671 312.546 602.71 315.591 602.71 319.318Z" fill="#ADC910"/>
<path d="M49.5318 339.681C48.8061 339.681 48.3525 340.091 48.3525 341.136V342.681H46.2207V341.272C46.2207 338.954 47.3546 337.636 49.6225 337.636C51.8904 337.636 53.0243 338.954 53.0243 341.272C53.0243 343.181 52.2986 344.772 50.2122 347C48.8514 348.454 48.4886 349.136 48.4886 349.909C48.4886 350 48.4886 350.136 48.4886 350.227H52.7975V352.318H46.2207V350.545C46.2207 348.909 46.8103 347.727 48.4886 345.909C50.2122 344.045 50.7111 342.909 50.7111 341.363C50.7111 340.045 50.2575 339.681 49.5318 339.681Z" fill="black"/>
<path d="M54.2025 341.272C54.2025 338.954 55.4271 337.636 57.6496 337.636C59.8721 337.636 61.0968 338.954 61.0968 341.272V348.818C61.0968 351.136 59.8721 352.454 57.6496 352.454C55.4271 352.454 54.2025 351.136 54.2025 348.818V341.272ZM56.4703 348.954C56.4703 350 56.9239 350.363 57.6496 350.363C58.3753 350.363 58.8289 349.954 58.8289 348.954V341.136C58.8289 340.091 58.3753 339.681 57.6496 339.681C56.9239 339.681 56.4703 340.091 56.4703 341.136V348.954Z" fill="black"/>
<path d="M63.9541 339.59C65.723 339.59 66.0859 338.727 66.4488 337.772H67.9909V352.272H65.723V341.181H63.9541V339.545V339.59Z" fill="black"/>
<path d="M70.5779 341.409C70.5779 338.954 71.7119 337.636 74.0705 337.636C76.293 337.636 77.4723 338.954 77.4723 341.272V341.636H75.3405V341.136C75.3405 340.091 74.8869 339.681 74.1612 339.681C73.3447 339.681 72.8912 340.091 72.8912 341.454V344.091C73.2994 343.272 73.9344 342.818 74.9776 342.818C76.6558 342.818 77.5176 344 77.5176 346.136V348.772C77.5176 351.091 76.293 352.409 74.0705 352.409C71.8479 352.409 70.6233 351.091 70.6233 348.772V341.363L70.5779 341.409ZM72.8458 346.363V349C72.8458 350.045 73.2994 350.409 74.0251 350.409C74.7508 350.409 75.2044 350.045 75.2044 349V346.363C75.2044 345.318 74.7508 344.954 74.0251 344.954C73.2994 344.954 72.8458 345.363 72.8458 346.363Z" fill="black"/>
<path d="M98.4265 339.681C97.7008 339.681 97.2472 340.091 97.2472 341.136V342.681H95.1154V341.272C95.1154 338.954 96.2494 337.636 98.5172 337.636C100.785 337.636 101.919 338.954 101.919 341.272C101.919 343.181 101.193 344.772 99.1069 347C97.7462 348.454 97.3833 349.136 97.3833 349.909C97.3833 350 97.3833 350.136 97.3833 350.227H101.692V352.318H95.1154V350.545C95.1154 348.909 95.7051 347.727 97.3833 345.909C99.1069 344.045 99.6058 342.909 99.6058 341.363C99.6058 340.045 99.1522 339.681 98.4265 339.681Z" fill="black"/>
<path d="M103.097 341.272C103.097 338.954 104.322 337.636 106.544 337.636C108.767 337.636 109.992 338.954 109.992 341.272V348.818C109.992 351.136 108.767 352.454 106.544 352.454C104.322 352.454 103.097 351.136 103.097 348.818V341.272ZM105.365 348.954C105.365 350 105.819 350.363 106.544 350.363C107.27 350.363 107.724 349.954 107.724 348.954V341.136C107.724 340.091 107.27 339.681 106.544 339.681C105.819 339.681 105.365 340.091 105.365 341.136V348.954Z" fill="black"/>
<path d="M112.894 339.59C114.663 339.59 115.026 338.727 115.389 337.772H116.931V352.272H114.663V341.181H112.894V339.545V339.59Z" fill="black"/>
<path d="M126.322 337.772V339.772L122.965 352.318H120.697L124.008 339.863H119.473V337.772H126.322Z" fill="black"/>
<path d="M144.647 339.681C143.921 339.681 143.468 340.091 143.468 341.136V342.681H141.336V341.272C141.336 338.954 142.47 337.636 144.738 337.636C147.006 337.636 148.14 338.954 148.14 341.272C148.14 343.181 147.414 344.772 145.328 347C143.967 348.454 143.604 349.136 143.604 349.909C143.604 350 143.604 350.136 143.604 350.227H147.913V352.318H141.336V350.545C141.336 348.909 141.926 347.727 143.604 345.909C145.328 344.045 145.827 342.909 145.827 341.363C145.827 340.045 145.373 339.681 144.647 339.681Z" fill="black"/>
<path d="M149.318 341.272C149.318 338.954 150.543 337.636 152.765 337.636C154.988 337.636 156.212 338.954 156.212 341.272V348.818C156.212 351.136 154.988 352.454 152.765 352.454C150.543 352.454 149.318 351.136 149.318 348.818V341.272ZM151.586 348.954C151.586 350 152.039 350.363 152.765 350.363C153.491 350.363 153.944 349.954 153.944 348.954V341.136C153.944 340.091 153.491 339.681 152.765 339.681C152.039 339.681 151.586 340.091 151.586 341.136V348.954Z" fill="black"/>
<path d="M159.115 339.59C160.884 339.59 161.247 338.727 161.61 337.772H163.152V352.272H160.884V341.181H159.115V339.545V339.59Z" fill="black"/>
<path d="M169.142 352.454C166.828 352.454 165.558 351.136 165.558 348.818V347.681C165.558 346.272 165.967 345.227 166.964 344.681C166.012 344.136 165.558 343.181 165.558 341.727V341.272C165.558 338.954 166.828 337.636 169.142 337.636C171.455 337.636 172.725 338.954 172.725 341.272V341.727C172.725 343.136 172.226 344.091 171.319 344.636C172.317 345.227 172.725 346.318 172.725 347.681V348.818C172.725 351.136 171.455 352.454 169.142 352.454ZM167.872 342.136C167.872 343.318 168.416 343.681 169.142 343.681C169.867 343.681 170.412 343.318 170.412 342.136V341.318C170.412 340 169.867 339.636 169.142 339.636C168.416 339.636 167.872 340 167.872 341.318V342.136ZM169.142 350.363C169.867 350.363 170.412 350 170.412 348.727V347.363C170.412 346.227 169.913 345.727 169.142 345.727C168.37 345.727 167.872 346.227 167.872 347.363V348.727C167.872 350 168.416 350.363 169.142 350.363Z" fill="black"/>
<path d="M195.538 339.681C194.812 339.681 194.358 340.091 194.358 341.136V342.681H192.227V341.272C192.227 338.954 193.36 337.636 195.628 337.636C197.896 337.636 199.03 338.954 199.03 341.272C199.03 343.181 198.304 344.772 196.218 347C194.857 348.454 194.494 349.136 194.494 349.909C194.494 350 194.494 350.136 194.494 350.227H198.803V352.318H192.227V350.545C192.227 348.909 192.816 347.727 194.494 345.909C196.218 344.045 196.717 342.909 196.717 341.363C196.717 340.045 196.263 339.681 195.538 339.681Z" fill="black"/>
<path d="M200.208 341.272C200.208 338.954 201.433 337.636 203.656 337.636C205.878 337.636 207.103 338.954 207.103 341.272V348.818C207.103 351.136 205.878 352.454 203.656 352.454C201.433 352.454 200.208 351.136 200.208 348.818V341.272ZM202.476 348.954C202.476 350 202.93 350.363 203.656 350.363C204.381 350.363 204.835 349.954 204.835 348.954V341.136C204.835 340.091 204.381 339.681 203.656 339.681C202.93 339.681 202.476 340.091 202.476 341.136V348.954Z" fill="black"/>
<path d="M210.005 339.59C211.774 339.59 212.137 338.727 212.5 337.772H214.042V352.272H211.774V341.181H210.005V339.545V339.59Z" fill="black"/>
<path d="M223.434 348.681C223.434 351.136 222.3 352.454 219.941 352.454C217.719 352.454 216.54 351.136 216.54 348.818V348.454H218.671V348.954C218.671 350 219.125 350.363 219.851 350.363C220.667 350.363 221.121 349.954 221.121 348.591V345.954C220.713 346.772 220.078 347.227 219.034 347.227C217.356 347.227 216.494 346.045 216.494 343.909V341.272C216.494 338.954 217.719 337.636 219.941 337.636C222.164 337.636 223.389 338.954 223.389 341.272V348.681H223.434ZM221.166 343.727V341.136C221.166 340.091 220.713 339.727 219.987 339.727C219.261 339.727 218.808 340.091 218.808 341.136V343.727C218.808 344.772 219.261 345.181 219.987 345.181C220.713 345.181 221.166 344.772 221.166 343.727Z" fill="black"/>
<path d="M243.479 339.681C242.754 339.681 242.3 340.091 242.3 341.136V342.681H240.168V341.272C240.168 338.954 241.302 337.636 243.57 337.636C245.838 337.636 246.972 338.954 246.972 341.272C246.972 343.181 246.246 344.772 244.16 347C242.799 348.454 242.436 349.136 242.436 349.909C242.436 350 242.436 350.136 242.436 350.227H246.745V352.318H240.168V350.545C240.168 348.909 240.758 347.727 242.436 345.909C244.16 344.045 244.659 342.909 244.659 341.363C244.659 340.045 244.205 339.681 243.479 339.681Z" fill="black"/>
<path d="M248.104 341.272C248.104 338.954 249.329 337.636 251.552 337.636C253.774 337.636 254.999 338.954 254.999 341.272V348.818C254.999 351.136 253.774 352.454 251.552 352.454C249.329 352.454 248.104 351.136 248.104 348.818V341.272ZM250.372 348.954C250.372 350 250.826 350.363 251.552 350.363C252.277 350.363 252.731 349.954 252.731 348.954V341.136C252.731 340.091 252.277 339.681 251.552 339.681C250.826 339.681 250.372 340.091 250.372 341.136V348.954Z" fill="black"/>
<path d="M259.855 339.681C259.129 339.681 258.675 340.091 258.675 341.136V342.681H256.544V341.272C256.544 338.954 257.723 337.636 259.945 337.636C262.168 337.636 263.347 338.954 263.347 341.272C263.347 343.181 262.621 344.772 260.535 347C259.174 348.454 258.811 349.136 258.811 349.909C258.811 350 258.811 350.136 258.811 350.227H263.12V352.318H256.544V350.545C256.544 348.909 257.133 347.727 258.811 345.909C260.535 344.045 261.034 342.909 261.034 341.363C261.034 340.045 260.58 339.681 259.855 339.681Z" fill="black"/>
<path d="M264.48 341.272C264.48 338.954 265.704 337.636 267.927 337.636C270.149 337.636 271.374 338.954 271.374 341.272V348.818C271.374 351.136 270.149 352.454 267.927 352.454C265.704 352.454 264.48 351.136 264.48 348.818V341.272ZM266.748 348.954C266.748 350 267.201 350.363 267.927 350.363C268.653 350.363 269.106 349.954 269.106 348.954V341.136C269.106 340.091 268.653 339.681 267.927 339.681C267.201 339.681 266.748 340.091 266.748 341.136V348.954Z" fill="black"/>
<path d="M292.011 339.681C291.286 339.681 290.832 340.091 290.832 341.136V342.681H288.7V341.272C288.7 338.954 289.834 337.636 292.102 337.636C294.37 337.636 295.504 338.954 295.504 341.272C295.504 343.181 294.778 344.772 292.692 347C291.331 348.454 290.968 349.136 290.968 349.909C290.968 350 290.968 350.136 290.968 350.227H295.277V352.318H288.7V350.545C288.7 348.909 289.29 347.727 290.968 345.909C292.692 344.045 293.191 342.909 293.191 341.363C293.191 340.045 292.737 339.681 292.011 339.681Z" fill="black"/>
<path d="M296.682 341.272C296.682 338.954 297.907 337.636 300.129 337.636C302.352 337.636 303.576 338.954 303.576 341.272V348.818C303.576 351.136 302.352 352.454 300.129 352.454C297.907 352.454 296.682 351.136 296.682 348.818V341.272ZM298.95 348.954C298.95 350 299.403 350.363 300.129 350.363C300.855 350.363 301.308 349.954 301.308 348.954V341.136C301.308 340.091 300.855 339.681 300.129 339.681C299.403 339.681 298.95 340.091 298.95 341.136V348.954Z" fill="black"/>
<path d="M308.387 339.681C307.661 339.681 307.207 340.091 307.207 341.136V342.681H305.076V341.272C305.076 338.954 306.255 337.636 308.477 337.636C310.7 337.636 311.879 338.954 311.879 341.272C311.879 343.181 311.153 344.772 309.067 347C307.706 348.454 307.343 349.136 307.343 349.909C307.343 350 307.343 350.136 307.343 350.227H311.652V352.318H305.076V350.545C305.076 348.909 305.665 347.727 307.343 345.909C309.067 344.045 309.566 342.909 309.566 341.363C309.566 340.045 309.112 339.681 308.387 339.681Z" fill="black"/>
<path d="M314.645 339.591C316.414 339.591 316.777 338.727 317.14 337.772H318.682V352.272H316.414V341.182H314.645V339.545V339.591Z" fill="black"/>
<path d="M340.545 339.681C339.819 339.681 339.366 340.091 339.366 341.136V342.681H337.234V341.272C337.234 338.954 338.368 337.636 340.636 337.636C342.904 337.636 344.038 338.954 344.038 341.272C344.038 343.181 343.312 344.772 341.225 347C339.865 348.454 339.502 349.136 339.502 349.909C339.502 350 339.502 350.136 339.502 350.227H343.811V352.318H337.234V350.545C337.234 348.909 337.824 347.727 339.502 345.909C341.225 344.045 341.724 342.909 341.724 341.363C341.724 340.045 341.271 339.681 340.545 339.681Z" fill="black"/>
<path d="M345.216 341.272C345.216 338.954 346.44 337.636 348.663 337.636C350.885 337.636 352.11 338.954 352.11 341.272V348.818C352.11 351.136 350.885 352.454 348.663 352.454C346.44 352.454 345.216 351.136 345.216 348.818V341.272ZM347.484 348.954C347.484 350 347.937 350.363 348.663 350.363C349.389 350.363 349.842 349.954 349.842 348.954V341.136C349.842 340.091 349.389 339.681 348.663 339.681C347.937 339.681 347.484 340.091 347.484 341.136V348.954Z" fill="black"/>
<path d="M356.92 339.681C356.195 339.681 355.741 340.091 355.741 341.136V342.681H353.609V341.272C353.609 338.954 354.789 337.636 357.011 337.636C359.234 337.636 360.413 338.954 360.413 341.272C360.413 343.181 359.687 344.772 357.601 347C356.24 348.454 355.877 349.136 355.877 349.909C355.877 350 355.877 350.136 355.877 350.227H360.186V352.318H353.609V350.545C353.609 348.909 354.199 347.727 355.877 345.909C357.601 344.045 358.1 342.909 358.1 341.363C358.1 340.045 357.646 339.681 356.92 339.681Z" fill="black"/>
<path d="M365.128 339.681C364.402 339.681 363.949 340.091 363.949 341.136V342.681H361.817V341.272C361.817 338.954 362.951 337.636 365.219 337.636C367.487 337.636 368.621 338.954 368.621 341.272C368.621 343.181 367.895 344.772 365.808 347C364.448 348.454 364.085 349.136 364.085 349.909C364.085 350 364.085 350.136 364.085 350.227H368.394V352.318H361.817V350.545C361.817 348.909 362.407 347.727 364.085 345.909C365.808 344.045 366.307 342.909 366.307 341.363C366.307 340.045 365.854 339.681 365.128 339.681Z" fill="black"/>
<path d="M389.123 339.681C388.397 339.681 387.943 340.091 387.943 341.136V342.681H385.812V341.272C385.812 338.954 386.945 337.636 389.213 337.636C391.481 337.636 392.615 338.954 392.615 341.272C392.615 343.181 391.889 344.772 389.803 347C388.442 348.454 388.079 349.136 388.079 349.909C388.079 350 388.079 350.136 388.079 350.227H392.388V352.318H385.812V350.545C385.812 348.909 386.401 347.727 388.079 345.909C389.803 344.045 390.302 342.909 390.302 341.363C390.302 340.045 389.848 339.681 389.123 339.681Z" fill="black"/>
<path d="M393.793 341.272C393.793 338.954 395.018 337.636 397.24 337.636C399.463 337.636 400.688 338.954 400.688 341.272V348.818C400.688 351.136 399.463 352.454 397.24 352.454C395.018 352.454 393.793 351.136 393.793 348.818V341.272ZM396.061 348.954C396.061 350 396.515 350.363 397.24 350.363C397.966 350.363 398.42 349.954 398.42 348.954V341.136C398.42 340.091 397.966 339.681 397.24 339.681C396.515 339.681 396.061 340.091 396.061 341.136V348.954Z" fill="black"/>
<path d="M405.498 339.681C404.772 339.681 404.319 340.091 404.319 341.136V342.681H402.187V341.272C402.187 338.954 403.366 337.636 405.589 337.636C407.811 337.636 408.99 338.954 408.99 341.272C408.99 343.181 408.265 344.772 406.178 347C404.818 348.454 404.455 349.136 404.455 349.909C404.455 350 404.455 350.136 404.455 350.227H408.764V352.318H402.187V350.545C402.187 348.909 402.777 347.727 404.455 345.909C406.178 344.045 406.677 342.909 406.677 341.363C406.677 340.045 406.224 339.681 405.498 339.681Z" fill="black"/>
<path d="M414.705 341.363C414.705 340.045 414.251 339.682 413.525 339.682C412.8 339.682 412.346 340.091 412.346 341.136V342.091H410.214V341.318C410.214 339 411.348 337.682 413.616 337.682C415.884 337.682 417.018 339 417.018 341.318V341.682C417.018 343.227 416.519 344.182 415.43 344.636C416.564 345.182 417.018 346.227 417.018 347.727V348.863C417.018 351.182 415.884 352.5 413.616 352.5C411.348 352.5 410.214 351.182 410.214 348.863V347.682H412.346V349.045C412.346 350.091 412.8 350.454 413.525 350.454C414.251 350.454 414.705 350.091 414.705 348.818V347.682C414.705 346.318 414.251 345.818 413.208 345.818H412.437V343.727H413.344C414.206 343.727 414.705 343.363 414.705 342.182V341.363Z" fill="black"/>
<path d="M438.79 339.681C438.064 339.681 437.611 340.091 437.611 341.136V342.681H435.479V341.272C435.479 338.954 436.613 337.636 438.881 337.636C441.149 337.636 442.283 338.954 442.283 341.272C442.283 343.181 441.557 344.772 439.47 347C438.11 348.454 437.747 349.136 437.747 349.909C437.747 350 437.747 350.136 437.747 350.227H442.056V352.318H435.479V350.545C435.479 348.909 436.069 347.727 437.747 345.909C439.47 344.045 439.969 342.909 439.969 341.363C439.969 340.045 439.516 339.681 438.79 339.681Z" fill="black"/>
<path d="M443.461 341.272C443.461 338.954 444.685 337.636 446.908 337.636C449.13 337.636 450.355 338.954 450.355 341.272V348.818C450.355 351.136 449.13 352.454 446.908 352.454C444.685 352.454 443.461 351.136 443.461 348.818V341.272ZM445.729 348.954C445.729 350 446.182 350.363 446.908 350.363C447.634 350.363 448.087 349.954 448.087 348.954V341.136C448.087 340.091 447.634 339.681 446.908 339.681C446.182 339.681 445.729 340.091 445.729 341.136V348.954Z" fill="black"/>
<path d="M455.165 339.681C454.44 339.681 453.986 340.091 453.986 341.136V342.681H451.854V341.272C451.854 338.954 453.034 337.636 455.256 337.636C457.479 337.636 458.658 338.954 458.658 341.272C458.658 343.181 457.932 344.772 455.846 347C454.485 348.454 454.122 349.136 454.122 349.909C454.122 350 454.122 350.136 454.122 350.227H458.431V352.318H451.854V350.545C451.854 348.909 452.444 347.727 454.122 345.909C455.846 344.045 456.345 342.909 456.345 341.363C456.345 340.045 455.891 339.681 455.165 339.681Z" fill="black"/>
<path d="M459.473 347.59L463.601 337.772H466.096V347.59H467.184V349.681H466.096V352.317H463.828V349.681H459.473V347.59ZM463.828 347.59V342.227L461.605 347.59H463.873H463.828Z" fill="black"/>
<path d="M488.048 339.681C487.322 339.681 486.868 340.091 486.868 341.136V342.681H484.736V341.272C484.736 338.954 485.87 337.636 488.138 337.636C490.406 337.636 491.54 338.954 491.54 341.272C491.54 343.181 490.814 344.772 488.728 347C487.367 348.454 487.004 349.136 487.004 349.909C487.004 350 487.004 350.136 487.004 350.227H491.313V352.318H484.736V350.545C484.736 348.909 485.326 347.727 487.004 345.909C488.728 344.045 489.227 342.909 489.227 341.363C489.227 340.045 488.773 339.681 488.048 339.681Z" fill="black"/>
<path d="M492.673 341.272C492.673 338.954 493.897 337.636 496.12 337.636C498.342 337.636 499.567 338.954 499.567 341.272V348.818C499.567 351.136 498.342 352.454 496.12 352.454C493.897 352.454 492.673 351.136 492.673 348.818V341.272ZM494.941 348.954C494.941 350 495.394 350.363 496.12 350.363C496.846 350.363 497.299 349.954 497.299 348.954V341.136C497.299 340.091 496.846 339.681 496.12 339.681C495.394 339.681 494.941 340.091 494.941 341.136V348.954Z" fill="black"/>
<path d="M504.376 339.681C503.65 339.681 503.196 340.091 503.196 341.136V342.681H501.064V341.272C501.064 338.954 502.244 337.636 504.466 337.636C506.689 337.636 507.868 338.954 507.868 341.272C507.868 343.181 507.142 344.772 505.056 347C503.695 348.454 503.332 349.136 503.332 349.909C503.332 350 503.332 350.136 503.332 350.227H507.641V352.318H501.064V350.545C501.064 348.909 501.654 347.727 503.332 345.909C505.056 344.045 505.555 342.909 505.555 341.363C505.555 340.045 505.101 339.681 504.376 339.681Z" fill="black"/>
<path d="M511.316 347.636V349C511.316 350.045 511.77 350.409 512.495 350.409C513.221 350.409 513.675 350.045 513.675 349V345.818C513.675 344.772 513.221 344.409 512.495 344.409C511.77 344.409 511.316 344.818 511.316 345.818V346.272H509.184L509.593 337.863H515.58V339.954H511.588L511.407 343.409C511.815 342.727 512.45 342.363 513.357 342.363C515.036 342.363 515.897 343.545 515.897 345.681V348.909C515.897 351.227 514.718 352.545 512.495 352.545C510.273 352.545 509.094 351.227 509.094 348.909V347.727H511.225L511.316 347.636Z" fill="black"/>
<path d="M537.848 339.681C537.122 339.681 536.669 340.091 536.669 341.136V342.681H534.537V341.272C534.537 338.954 535.671 337.636 537.939 337.636C540.207 337.636 541.341 338.954 541.341 341.272C541.341 343.181 540.615 344.772 538.529 347C537.168 348.454 536.805 349.136 536.805 349.909C536.805 350 536.805 350.136 536.805 350.227H541.114V352.318H534.537V350.545C534.537 348.909 535.127 347.727 536.805 345.909C538.529 344.045 539.027 342.909 539.027 341.363C539.027 340.045 538.574 339.681 537.848 339.681Z" fill="black"/>
<path d="M542.519 341.272C542.519 338.954 543.744 337.636 545.966 337.636C548.189 337.636 549.413 338.954 549.413 341.272V348.818C549.413 351.136 548.189 352.454 545.966 352.454C543.744 352.454 542.519 351.136 542.519 348.818V341.272ZM544.787 348.954C544.787 350 545.24 350.363 545.966 350.363C546.692 350.363 547.145 349.954 547.145 348.954V341.136C547.145 340.091 546.692 339.681 545.966 339.681C545.24 339.681 544.787 340.091 544.787 341.136V348.954Z" fill="black"/>
<path d="M554.224 339.681C553.498 339.681 553.044 340.091 553.044 341.136V342.681H550.912V341.272C550.912 338.954 552.092 337.636 554.314 337.636C556.537 337.636 557.716 338.954 557.716 341.272C557.716 343.181 556.99 344.772 554.904 347C553.543 348.454 553.18 349.136 553.18 349.909C553.18 350 553.18 350.136 553.18 350.227H557.489V352.318H550.912V350.545C550.912 348.909 551.502 347.727 553.18 345.909C554.904 344.045 555.403 342.909 555.403 341.363C555.403 340.045 554.949 339.681 554.224 339.681Z" fill="black"/>
<path d="M558.94 341.409C558.94 338.954 560.074 337.636 562.432 337.636C564.655 337.636 565.834 338.954 565.834 341.272V341.636H563.702V341.136C563.702 340.091 563.249 339.681 562.523 339.681C561.707 339.681 561.253 340.091 561.253 341.454V344.091C561.661 343.272 562.296 342.818 563.339 342.818C565.018 342.818 565.88 344 565.88 346.136V348.772C565.88 351.091 564.655 352.409 562.432 352.409C560.21 352.409 558.985 351.091 558.985 348.772V341.363L558.94 341.409ZM561.208 346.363V349C561.208 350.045 561.661 350.409 562.387 350.409C563.113 350.409 563.566 350.045 563.566 349V346.363C563.566 345.318 563.113 344.954 562.387 344.954C561.661 344.954 561.208 345.363 561.208 346.363Z" fill="black"/>
<path d="M582.662 339.681C581.936 339.681 581.482 340.091 581.482 341.136V342.681H579.351V341.272C579.351 338.954 580.485 337.636 582.752 337.636C585.02 337.636 586.154 338.954 586.154 341.272C586.154 343.181 585.429 344.772 583.342 347C581.981 348.454 581.619 349.136 581.619 349.909C581.619 350 581.619 350.136 581.619 350.227H585.927V352.318H579.351V350.545C579.351 348.909 579.94 347.727 581.619 345.909C583.342 344.045 583.841 342.909 583.841 341.363C583.841 340.045 583.388 339.681 582.662 339.681Z" fill="black"/>
<path d="M587.332 341.272C587.332 338.954 588.557 337.636 590.78 337.636C593.002 337.636 594.227 338.954 594.227 341.272V348.818C594.227 351.136 593.002 352.454 590.78 352.454C588.557 352.454 587.332 351.136 587.332 348.818V341.272ZM589.6 348.954C589.6 350 590.054 350.363 590.78 350.363C591.505 350.363 591.959 349.954 591.959 348.954V341.136C591.959 340.091 591.505 339.681 590.78 339.681C590.054 339.681 589.6 340.091 589.6 341.136V348.954Z" fill="black"/>
<path d="M599.037 339.681C598.311 339.681 597.858 340.091 597.858 341.136V342.681H595.726V341.272C595.726 338.954 596.905 337.636 599.128 337.636C601.35 337.636 602.53 338.954 602.53 341.272C602.53 343.181 601.804 344.772 599.718 347C598.357 348.454 597.994 349.136 597.994 349.909C597.994 350 597.994 350.136 597.994 350.227H602.303V352.318H595.726V350.545C595.726 348.909 596.316 347.727 597.994 345.909C599.718 344.045 600.216 342.909 600.216 341.363C600.216 340.045 599.763 339.681 599.037 339.681Z" fill="black"/>
<path d="M610.602 337.772V339.772L607.246 352.318H604.978L608.289 339.863H603.753V337.772H610.602Z" fill="black"/>
<path d="M145.508 145.045C144.782 145.045 144.328 145.454 144.328 146.454V148H142.197V146.591C142.197 144.272 143.376 142.954 145.598 142.954C147.821 142.954 149 144.272 149 146.591C149 148.5 148.274 150.091 146.188 152.318C144.827 153.772 144.464 154.454 144.464 155.227C144.464 155.318 144.464 155.454 144.464 155.545H148.773V157.636H142.197V155.863C142.197 154.227 142.786 153.045 144.464 151.227C146.188 149.363 146.687 148.227 146.687 146.681C146.687 145.363 146.233 145.045 145.508 145.045Z" fill="#ADC910"/>
<path d="M157.029 154.045C157.029 156.499 155.895 157.818 153.536 157.818C151.314 157.818 150.134 156.499 150.134 154.181V153.818H152.266V154.318C152.266 155.363 152.72 155.727 153.445 155.727C154.262 155.727 154.715 155.318 154.715 153.954V151.318C154.307 152.136 153.672 152.59 152.629 152.59C150.951 152.59 150.089 151.408 150.089 149.272V146.636C150.089 144.318 151.314 142.999 153.536 142.999C155.759 142.999 156.983 144.318 156.983 146.636V154.045H157.029ZM154.761 149.09V146.499C154.761 145.454 154.307 145.09 153.581 145.09C152.856 145.09 152.402 145.454 152.402 146.499V149.09C152.402 150.136 152.856 150.499 153.581 150.499C154.307 150.499 154.761 150.09 154.761 149.09Z" fill="#ADC910"/>
<path d="M160.702 155.454V157.636H158.525V155.454H160.702Z" fill="#ADC910"/>
<path d="M162.154 146.591C162.154 144.272 163.378 142.954 165.601 142.954C167.823 142.954 169.048 144.272 169.048 146.591V154.136C169.048 156.454 167.823 157.772 165.601 157.772C163.378 157.772 162.154 156.454 162.154 154.136V146.591ZM164.421 154.272C164.421 155.318 164.875 155.681 165.601 155.681C166.327 155.681 166.78 155.272 166.78 154.272V146.454C166.78 145.409 166.327 145.045 165.601 145.045C164.875 145.045 164.421 145.454 164.421 146.454V154.272Z" fill="#ADC910"/>
<path d="M174.945 146.681C174.945 145.363 174.491 145.045 173.765 145.045C173.04 145.045 172.586 145.454 172.586 146.454V147.408H170.454V146.636C170.454 144.318 171.588 142.999 173.856 142.999C176.124 142.999 177.258 144.318 177.258 146.636V146.999C177.258 148.545 176.759 149.499 175.67 149.954C176.804 150.499 177.258 151.545 177.258 153.045V154.181C177.258 156.499 176.124 157.818 173.856 157.818C171.588 157.818 170.454 156.499 170.454 154.181V152.999H172.586V154.363C172.586 155.408 173.04 155.772 173.765 155.772C174.491 155.772 174.945 155.408 174.945 154.136V152.999C174.945 151.636 174.491 151.136 173.448 151.136H172.677V149.045H173.584C174.446 149.045 174.945 148.681 174.945 147.499V146.681Z" fill="#ADC910"/>
<path d="M194.267 134.591C194.267 133.272 193.814 132.954 193.088 132.954C192.362 132.954 191.909 133.363 191.909 134.363V135.318H189.777V134.545C189.777 132.227 190.911 130.909 193.179 130.909C195.447 130.909 196.581 132.227 196.581 134.545V134.909C196.581 136.454 196.082 137.409 194.993 137.863C196.127 138.409 196.581 139.454 196.581 140.954V142.091C196.581 144.409 195.447 145.727 193.179 145.727C190.911 145.727 189.777 144.409 189.777 142.091V140.909H191.909V142.272C191.909 143.318 192.362 143.681 193.088 143.681C193.814 143.681 194.267 143.318 194.267 142.045V140.909C194.267 139.545 193.814 139.045 192.771 139.045H192V136.954H192.907C193.768 136.954 194.267 136.591 194.267 135.409V134.591Z" fill="#ADC910"/>
<path d="M199.483 132.818C201.252 132.818 201.615 131.954 201.978 130.999H203.52V145.499H201.252V134.408H199.483V132.772V132.818Z" fill="#ADC910"/>
<path d="M208.419 143.318V145.5H206.242V143.318H208.419Z" fill="#ADC910"/>
<path d="M209.915 134.5C209.915 132.181 211.139 130.863 213.362 130.863C215.584 130.863 216.809 132.181 216.809 134.5V142.045C216.809 144.363 215.584 145.681 213.362 145.681C211.139 145.681 209.915 144.363 209.915 142.045V134.5ZM212.182 142.181C212.182 143.227 212.636 143.591 213.362 143.591C214.087 143.591 214.541 143.181 214.541 142.181V134.363C214.541 133.318 214.087 132.954 213.362 132.954C212.636 132.954 212.182 133.363 212.182 134.363V142.181Z" fill="#ADC910"/>
<path d="M218.126 134.636C218.126 132.181 219.26 130.863 221.618 130.863C223.841 130.863 225.02 132.181 225.02 134.5V134.863H222.888V134.363C222.888 133.318 222.435 132.954 221.709 132.954C220.893 132.954 220.439 133.363 220.439 134.727V137.363C220.847 136.545 221.482 136.091 222.526 136.091C224.204 136.091 225.066 137.272 225.066 139.409V142.045C225.066 144.363 223.841 145.681 221.618 145.681C219.396 145.681 218.171 144.363 218.171 142.045V134.636H218.126ZM220.394 139.591V142.227C220.394 143.272 220.847 143.636 221.573 143.636C222.299 143.636 222.752 143.272 222.752 142.227V139.591C222.752 138.545 222.299 138.181 221.573 138.181C220.847 138.181 220.394 138.591 220.394 139.591Z" fill="#ADC910"/>
<path d="M195.808 377.364H197.759L199.165 384.364L200.525 377.364H202.567L203.973 384.364L205.379 377.364H207.148L205.243 386.5H202.884L201.523 379.773L200.163 386.5H197.668L195.763 377.364H195.808Z" fill="black"/>
<path d="M208.055 377.364H210.006L211.412 384.364L212.772 377.364H214.813L216.22 384.364L217.626 377.364H219.395L217.49 386.5H215.131L213.77 379.773L212.41 386.5H209.915L208.01 377.364H208.055Z" fill="black"/>
<path d="M220.3 377.363H222.251L223.657 384.363L225.018 377.363H227.059L228.465 384.363L229.871 377.363H231.64L229.735 386.5H227.376L226.015 379.772L224.655 386.5H222.16L220.255 377.363H220.3Z" fill="black"/>
<path d="M232.502 384.227H234.543V386.5H232.502V384.227Z" fill="black"/>
<path d="M238.762 376.636V377.363H240.712V379H238.762V386.5H236.766V379H235.36V377.363H236.766V376.409C236.766 374.591 237.628 373.727 239.442 373.727C239.941 373.727 240.304 373.818 240.712 373.954V375.636C240.395 375.5 240.077 375.454 239.805 375.454C239.034 375.454 238.762 375.773 238.762 376.636Z" fill="black"/>
<path d="M241.891 383.318V380.546C241.891 378.409 243.115 377.182 245.338 377.182C247.56 377.182 248.785 378.409 248.785 380.546V383.318C248.785 385.5 247.56 386.682 245.338 386.682C243.115 386.682 241.891 385.5 241.891 383.318ZM246.835 383.5V380.409C246.835 379.455 246.29 378.909 245.338 378.909C244.385 378.909 243.841 379.455 243.841 380.409V383.5C243.841 384.455 244.34 385 245.338 385C246.336 385 246.835 384.455 246.835 383.5Z" fill="black"/>
<path d="M255.408 377.318V379.227C255.408 379.227 254.999 379.136 254.727 379.136C253.276 379.136 252.55 380 252.55 381.773V386.5H250.554V377.364H252.278V379.182C252.641 377.818 253.457 377.182 254.637 377.182C254.954 377.182 255.181 377.182 255.362 377.318H255.408Z" fill="black"/>
<path d="M259.807 379V383.727C259.807 384.591 260.079 384.909 260.85 384.909C261.122 384.909 261.44 384.909 261.757 384.727V386.409C261.349 386.591 260.986 386.636 260.487 386.636C258.673 386.636 257.811 385.773 257.811 383.909V378.954H256.405V377.318H257.857L257.993 374.909H259.762V377.318H261.712V378.954H259.762L259.807 379Z" fill="black"/>
<path d="M270.149 377.363V386.5H268.426V384.909C268.018 386.045 267.111 386.681 265.84 386.681C264.162 386.681 263.3 385.636 263.3 383.636V377.363H265.296V383.318C265.296 384.454 265.659 384.954 266.566 384.954C267.609 384.954 268.154 384.272 268.154 382.954V377.363H270.149Z" fill="black"/>
<path d="M279.086 380.227V386.5H277.091V380.546C277.091 379.409 276.728 378.909 275.821 378.909C274.777 378.909 274.233 379.591 274.233 380.909V386.5H272.237V377.364H273.961V378.955C274.369 377.818 275.276 377.182 276.546 377.182C278.179 377.182 279.041 378.227 279.041 380.227H279.086Z" fill="black"/>
<path d="M287.747 380.545V382.363H282.804V383.545C282.804 384.5 283.302 385.045 284.346 385.045C285.389 385.045 285.888 384.5 285.888 383.545H287.793C287.793 385.5 286.477 386.681 284.3 386.681C282.123 386.681 280.808 385.454 280.808 383.318V380.545C280.808 378.409 282.032 377.181 284.3 377.181C286.568 377.181 287.793 378.409 287.793 380.545H287.747ZM285.797 380.909V380.318C285.797 379.363 285.253 378.818 284.3 378.818C283.348 378.818 282.804 379.318 282.804 380.318V380.909H285.842H285.797Z" fill="black"/>
<path d="M296.457 380.227V383.636C296.457 385.636 295.595 386.681 293.917 386.681C292.601 386.681 291.74 386.045 291.331 384.909L291.014 386.5H289.562V373.863H291.558V378.5C292.012 377.681 292.828 377.181 293.917 377.181C295.595 377.181 296.457 378.227 296.457 380.227ZM294.461 380.545C294.461 379.409 294.098 378.909 293.146 378.909C292.102 378.909 291.513 379.591 291.513 380.909V382.909C291.513 384.227 292.102 384.909 293.146 384.909C294.098 384.909 294.461 384.409 294.461 383.272V380.5V380.545Z" fill="black"/>
<path d="M305.075 377.363V386.5H303.351V384.909C302.943 386.045 302.036 386.681 300.766 386.681C299.088 386.681 298.226 385.636 298.226 383.636V377.363H300.222V383.318C300.222 384.454 300.585 384.954 301.492 384.954C302.535 384.954 303.079 384.272 303.079 382.954V377.363H305.075Z" fill="black"/>
<path d="M306.752 383.909V383.636H308.657V383.909C308.657 384.681 309.156 385.09 310.063 385.09C310.88 385.09 311.424 384.727 311.424 383.909C311.424 383.09 310.653 382.954 309.519 382.681C308.204 382.409 306.888 381.818 306.888 379.954C306.888 378.272 308.022 377.181 310.063 377.181C311.968 377.181 313.193 378.227 313.193 379.818V380H311.333V379.818C311.333 379.136 310.88 378.772 310.063 378.772C309.338 378.772 308.793 379.09 308.793 379.818C308.793 380.636 309.564 380.818 310.698 381.09C312.014 381.409 313.329 381.863 313.329 383.727C313.329 385.59 312.195 386.636 310.109 386.636C308.022 386.636 306.707 385.59 306.707 383.863L306.752 383.909Z" fill="black"/>
<path d="M315.008 377.363H317.003V386.5H315.008V377.363ZM315.008 373.682H317.003V375.954H315.008V373.682Z" fill="black"/>
<path d="M325.892 380.227V386.5H323.896V380.546C323.896 379.409 323.534 378.909 322.626 378.909C321.583 378.909 321.039 379.591 321.039 380.909V386.5H319.043V377.364H320.767V378.955C321.175 377.818 322.082 377.182 323.352 377.182C324.985 377.182 325.847 378.227 325.847 380.227H325.892Z" fill="black"/>
<path d="M334.603 380.545V382.363H329.659V383.545C329.659 384.5 330.157 385.045 331.201 385.045C332.244 385.045 332.743 384.5 332.743 383.545H334.648C334.648 385.5 333.333 386.681 331.155 386.681C328.978 386.681 327.663 385.454 327.663 383.318V380.545C327.663 378.409 328.888 377.181 331.155 377.181C333.423 377.181 334.648 378.409 334.648 380.545H334.603ZM332.652 380.909V380.318C332.652 379.363 332.108 378.818 331.155 378.818C330.203 378.818 329.659 379.318 329.659 380.318V380.909H332.698H332.652Z" fill="black"/>
<path d="M335.963 383.909V383.636H337.868V383.909C337.868 384.681 338.367 385.09 339.274 385.09C340.091 385.09 340.635 384.727 340.635 383.909C340.635 383.09 339.864 382.954 338.73 382.681C337.415 382.409 336.099 381.818 336.099 379.954C336.099 378.272 337.233 377.181 339.274 377.181C341.179 377.181 342.404 378.227 342.404 379.818V380H340.544V379.818C340.544 379.136 340.136 378.772 339.274 378.772C338.549 378.772 338.004 379.09 338.004 379.818C338.004 380.636 338.776 380.818 339.909 381.09C341.225 381.409 342.54 381.863 342.54 383.727C342.54 385.59 341.406 386.636 339.32 386.636C337.233 386.636 335.918 385.59 335.918 383.863L335.963 383.909Z" fill="black"/>
<path d="M343.81 383.909V383.636H345.715V383.909C345.715 384.681 346.214 385.09 347.121 385.09C347.938 385.09 348.482 384.727 348.482 383.909C348.482 383.09 347.711 382.954 346.577 382.681C345.262 382.409 343.946 381.818 343.946 379.954C343.946 378.272 345.08 377.181 347.121 377.181C349.026 377.181 350.251 378.227 350.251 379.818V380H348.391V379.818C348.391 379.136 347.983 378.772 347.121 378.772C346.396 378.772 345.851 379.09 345.851 379.818C345.851 380.636 346.622 380.818 347.756 381.09C349.072 381.409 350.387 381.863 350.387 383.727C350.387 385.59 349.253 386.636 347.167 386.636C345.08 386.636 343.765 385.59 343.765 383.863L343.81 383.909Z" fill="black"/>
<path d="M352.066 377.363H354.061V386.5H352.066V377.363ZM352.066 373.682H354.061V375.954H352.066V373.682Z" fill="black"/>
<path d="M362.95 380.227V386.5H360.954V380.546C360.954 379.409 360.591 378.909 359.684 378.909C358.641 378.909 358.097 379.591 358.097 380.909V386.5H356.101V377.364H357.825V378.955C358.233 377.818 359.14 377.182 360.41 377.182C362.043 377.182 362.905 378.227 362.905 380.227H362.95Z" fill="black"/>
<path d="M364.537 383.909V383.636H366.442V383.909C366.442 384.682 366.94 385.091 367.848 385.091C368.664 385.091 369.208 384.727 369.208 383.909C369.208 383.091 368.437 382.955 367.303 382.682C365.988 382.409 364.673 381.818 364.673 379.955C364.673 378.273 365.807 377.182 367.848 377.182C369.753 377.182 370.977 378.227 370.977 379.818V380H369.118V379.818C369.118 379.136 368.709 378.773 367.848 378.773C367.122 378.773 366.578 379.091 366.578 379.818C366.578 380.636 367.349 380.818 368.483 381.091C369.798 381.409 371.113 381.864 371.113 383.727C371.113 385.591 369.979 386.636 367.893 386.636C365.807 386.636 364.491 385.591 364.491 383.864L364.537 383.909Z" fill="black"/>
<path d="M372.792 377.363H374.788V386.5H372.792V377.363ZM372.792 373.682H374.788V375.954H372.792V373.682Z" fill="black"/>
<path d="M383.543 377.364V386.273C383.543 388.182 382.726 389.455 380.096 389.455C378.009 389.455 376.83 388.636 376.739 386.909H378.644C378.735 387.546 379.189 387.818 380.05 387.818C381.094 387.818 381.547 387.364 381.547 386.273V384.727C381.094 385.546 380.277 386 379.189 386C377.51 386 376.603 384.955 376.603 382.955V380.227C376.603 378.227 377.465 377.182 379.189 377.182C380.459 377.182 381.366 377.818 381.774 378.955V377.364H383.498H383.543ZM381.547 382.273V380.955C381.547 379.636 381.003 378.955 379.914 378.955C378.962 378.955 378.599 379.455 378.599 380.591V382.682C378.599 383.818 379.007 384.318 379.914 384.318C380.957 384.318 381.547 383.636 381.547 382.318V382.273Z" fill="black"/>
<path d="M392.434 380.227V386.5H390.439V380.546C390.439 379.409 390.076 378.909 389.169 378.909C388.126 378.909 387.581 379.591 387.581 380.909V386.5H385.586V373.864H387.581V378.455C388.035 377.637 388.851 377.182 389.94 377.182C391.573 377.182 392.434 378.227 392.434 380.227Z" fill="black"/>
<path d="M397.239 379V383.727C397.239 384.591 397.511 384.909 398.282 384.909C398.554 384.909 398.872 384.909 399.189 384.727V386.409C398.781 386.591 398.418 386.636 397.919 386.636C396.105 386.636 395.243 385.773 395.243 383.909V378.954H393.837V377.318H395.289L395.425 374.909H397.194V377.318H399.144V378.954H397.194L397.239 379Z" fill="black"/>
<path d="M400.417 383.909V383.636H402.322V383.909C402.322 384.682 402.821 385.091 403.728 385.091C404.544 385.091 405.089 384.727 405.089 383.909C405.089 383.091 404.318 382.955 403.184 382.682C401.868 382.409 400.553 381.818 400.553 379.955C400.553 378.273 401.687 377.182 403.728 377.182C405.633 377.182 406.858 378.227 406.858 379.818V380H404.998V379.818C404.998 379.136 404.59 378.773 403.728 378.773C403.002 378.773 402.458 379.091 402.458 379.818C402.458 380.636 403.229 380.818 404.363 381.091C405.678 381.409 406.994 381.864 406.994 383.727C406.994 385.591 405.86 386.636 403.773 386.636C401.687 386.636 400.371 385.591 400.371 383.864L400.417 383.909Z" fill="black"/>
<path d="M408.807 384.227H410.848V386.5H408.807V384.227Z" fill="black"/>
<path d="M412.708 383.318V380.545C412.708 378.409 413.932 377.182 416.109 377.182C418.287 377.182 419.421 378.454 419.466 380.5V380.682H417.561V380.363C417.561 379.409 417.107 378.863 416.109 378.863C415.202 378.863 414.658 379.409 414.658 380.363V383.5C414.658 384.454 415.157 384.954 416.109 384.954C417.062 384.954 417.561 384.409 417.561 383.5V382.954H419.466V383.318C419.466 385.363 418.377 386.682 416.109 386.682C413.842 386.682 412.708 385.454 412.708 383.318Z" fill="black"/>
<path d="M420.963 383.318V380.545C420.963 378.409 422.188 377.181 424.41 377.181C426.633 377.181 427.857 378.409 427.857 380.545V383.318C427.857 385.5 426.633 386.681 424.41 386.681C422.188 386.681 420.963 385.5 420.963 383.318ZM425.907 383.5V380.409C425.907 379.454 425.363 378.909 424.41 378.909C423.458 378.909 422.913 379.454 422.913 380.409V383.5C422.913 384.454 423.412 385 424.41 385C425.408 385 425.907 384.454 425.907 383.5Z" fill="black"/>
<path d="M441.193 380.227V386.5H439.197V380.546C439.197 379.546 438.879 378.909 437.927 378.909C436.929 378.909 436.43 379.591 436.43 380.909V386.5H434.434V380.546C434.434 379.455 434.117 378.909 433.21 378.909C432.212 378.909 431.668 379.591 431.668 380.909V386.5H429.672V377.364H431.395V378.909C431.804 377.773 432.711 377.182 433.935 377.182C435.16 377.182 435.931 377.773 436.249 378.864C436.612 377.818 437.473 377.182 438.698 377.182C440.331 377.182 441.193 378.227 441.193 380.227Z" fill="black"/>
<path d="M111.307 16.7272H117.974V18.5454H113.348V22.0454H117.067V23.8635H113.348V27.5454H117.974V29.3635H111.307V16.7272Z" fill="black"/>
<path d="M126.322 20.2269V29.3633H124.598V27.7724C124.19 28.9087 123.283 29.5451 122.013 29.5451C120.334 29.5451 119.473 28.4997 119.473 26.4997V20.2269H121.468V26.1815C121.468 27.3178 121.831 27.8178 122.738 27.8178C123.781 27.8178 124.326 27.136 124.326 25.8178V20.2269H126.322Z" fill="black"/>
<path d="M133.215 20.1817V22.0907C133.215 22.0907 132.807 21.9998 132.535 21.9998C131.083 21.9998 130.358 22.8635 130.358 24.6362V29.3635H128.362V20.2271H130.086V22.0453C130.448 20.6817 131.265 20.0453 132.444 20.0453C132.762 20.0453 132.988 20.0453 133.17 20.1817H133.215Z" fill="black"/>
<path d="M134.348 26.182V23.4093C134.348 21.2729 135.573 20.0457 137.795 20.0457C140.018 20.0457 141.242 21.2729 141.242 23.4093V26.182C141.242 28.3638 140.018 29.5457 137.795 29.5457C135.573 29.5457 134.348 28.3638 134.348 26.182ZM139.292 26.3638V23.2729C139.292 22.3184 138.748 21.7729 137.795 21.7729C136.843 21.7729 136.298 22.3184 136.298 23.2729V26.3638C136.298 27.3184 136.797 27.8638 137.795 27.8638C138.793 27.8638 139.292 27.3184 139.292 26.3638Z" fill="black"/>
<path d="M149.997 23.0908V26.4999C149.997 28.4999 149.135 29.5454 147.457 29.5454C146.368 29.5454 145.552 29.0908 145.098 28.2726V32.1817H143.102V20.2726H144.826V21.8635C145.234 20.7272 146.141 20.0908 147.457 20.0908C149.135 20.0908 149.997 21.1363 149.997 23.1363V23.0908ZM148.001 23.409C148.001 22.2726 147.638 21.7726 146.686 21.7726C145.642 21.7726 145.053 22.4545 145.053 23.7726V25.7726C145.053 27.0908 145.642 27.7726 146.686 27.7726C147.638 27.7726 148.001 27.2726 148.001 26.1363V23.3635V23.409Z" fill="black"/>
<path d="M158.571 23.4093V25.2275H153.627V26.4093C153.627 27.3638 154.126 27.9093 155.169 27.9093C156.212 27.9093 156.711 27.3638 156.711 26.4093H158.616C158.616 28.3638 157.301 29.5457 155.123 29.5457C152.946 29.5457 151.631 28.3184 151.631 26.182V23.4093C151.631 21.2729 152.856 20.0457 155.123 20.0457C157.391 20.0457 158.616 21.2729 158.616 23.4093H158.571ZM156.62 23.7729V23.182C156.62 22.2275 156.076 21.682 155.123 21.682C154.171 21.682 153.627 22.182 153.627 23.182V23.7729H156.666H156.62Z" fill="black"/>
<path d="M163.648 16.7275H165.689V22.0457H169.091V16.7275H171.132V29.3639H169.091V23.8639H165.689V29.3639H163.648V16.7275Z" fill="black"/>
<path d="M179.977 23.4093V25.2275H175.033V26.4093C175.033 27.3638 175.532 27.9093 176.575 27.9093C177.618 27.9093 178.117 27.3638 178.117 26.4093H180.022C180.022 28.3638 178.707 29.5457 176.53 29.5457C174.353 29.5457 173.037 28.3184 173.037 26.182V23.4093C173.037 21.2729 174.262 20.0457 176.53 20.0457C178.798 20.0457 180.022 21.2729 180.022 23.4093H179.977ZM178.026 23.7729V23.182C178.026 22.2275 177.482 21.682 176.53 21.682C175.577 21.682 175.033 22.182 175.033 23.182V23.7729H178.072H178.026Z" fill="black"/>
<path d="M186.599 29.3638C186.599 29.3638 186.418 28.6366 186.418 27.7729C186.055 28.9093 185.193 29.5457 183.832 29.5457C182.245 29.5457 181.292 28.6366 181.292 27.1366C181.292 25.7275 181.927 24.7729 183.968 24.2729C185.873 23.7729 186.191 23.5911 186.191 22.9547C186.191 22.0911 185.783 21.682 184.876 21.682C183.878 21.682 183.469 22.2275 183.469 23.0911H181.61C181.61 21.182 182.744 20.0457 184.876 20.0457C187.234 20.0457 188.096 21.2729 188.096 23.3638V26.682C188.096 28.0002 188.187 28.8184 188.368 29.3638H186.554H186.599ZM186.191 25.8638V24.9547C185.919 25.182 185.465 25.3638 184.603 25.5911C183.606 25.8638 183.243 26.2729 183.243 26.8638C183.243 27.5457 183.606 27.9093 184.467 27.9093C185.465 27.9093 186.191 27.3184 186.191 25.8638Z" fill="black"/>
<path d="M190.182 16.7275H192.177V29.3639H190.182V16.7275Z" fill="black"/>
<path d="M197.034 21.8635V26.5908C197.034 27.4544 197.306 27.7726 198.077 27.7726C198.349 27.7726 198.667 27.7726 198.984 27.5908V29.2726C198.576 29.4544 198.213 29.4999 197.714 29.4999C195.9 29.4999 195.038 28.6362 195.038 26.7726V21.818H193.632V20.1817H195.084L195.22 17.7726H196.989V20.1817H198.939V21.818H196.989L197.034 21.8635Z" fill="black"/>
<path d="M207.51 23.0908V29.3635H205.514V23.409C205.514 22.2726 205.151 21.7726 204.244 21.7726C203.201 21.7726 202.656 22.4544 202.656 23.7726V29.3635H200.661V16.7272H202.656V21.3181C203.11 20.4999 203.926 20.0454 205.015 20.0454C206.648 20.0454 207.51 21.0908 207.51 23.0908Z" fill="black"/>
<path d="M216.354 20.2269L213.588 30.136C213.134 31.6815 212.272 32.3178 210.73 32.3178C210.14 32.3178 209.732 32.2269 209.415 32.0451V30.3633C209.777 30.5451 210.095 30.5906 210.503 30.5906C211.138 30.5906 211.501 30.3178 211.728 29.7269L211.819 29.4997L208.916 20.2269H211.002L212.907 26.7269L214.54 20.2269H216.445H216.354Z" fill="black"/>
<path d="M220.663 26.1818V25.6363H222.568V26.1818C222.568 27.1363 223.158 27.8181 224.246 27.8181C225.29 27.8181 225.879 27.1818 225.879 26.1818C225.879 25 225.426 24.5909 223.566 23.7272C221.298 22.6818 220.709 21.6363 220.709 19.909C220.709 17.909 221.979 16.5454 224.337 16.5454C226.696 16.5454 227.875 17.909 227.875 19.9545V20.3181H225.925V20C225.925 19.0454 225.38 18.3181 224.337 18.3181C223.385 18.3181 222.795 18.9545 222.795 19.909C222.795 21 223.294 21.3636 225.154 22.2727C227.421 23.3181 227.966 24.409 227.966 26.1818C227.966 28.2272 226.65 29.5909 224.292 29.5909C221.933 29.5909 220.709 28.2272 220.709 26.2272L220.663 26.1818Z" fill="black"/>
<path d="M236.493 23.0911V29.3638H234.497V23.4093C234.497 22.2729 234.134 21.7729 233.227 21.7729C232.184 21.7729 231.64 22.4547 231.64 23.7729V29.3638H229.644V20.2275H231.367V21.8184C231.776 20.682 232.683 20.0457 233.953 20.0457C235.586 20.0457 236.447 21.0911 236.447 23.0911H236.493Z" fill="black"/>
<path d="M243.341 29.3638C243.341 29.3638 243.159 28.6366 243.159 27.7729C242.796 28.9093 241.935 29.5457 240.574 29.5457C238.986 29.5457 238.034 28.6366 238.034 27.1366C238.034 25.7275 238.669 24.7729 240.71 24.2729C242.615 23.7729 242.932 23.5911 242.932 22.9547C242.932 22.0911 242.524 21.682 241.617 21.682C240.619 21.682 240.256 22.2275 240.256 23.0911H238.397C238.397 21.182 239.531 20.0457 241.662 20.0457C244.021 20.0457 244.883 21.2729 244.883 23.3638V26.682C244.883 28.0002 244.974 28.8184 245.155 29.3638H243.341ZM242.932 25.8638V24.9547C242.66 25.182 242.207 25.3638 241.345 25.5911C240.347 25.8638 239.984 26.2729 239.984 26.8638C239.984 27.5457 240.347 27.9093 241.209 27.9093C242.207 27.9093 242.932 27.3184 242.932 25.8638Z" fill="black"/>
<path d="M246.699 26.2272V23.4545C246.699 21.3181 247.924 20.0908 250.101 20.0908C252.278 20.0908 253.412 21.3635 253.457 23.409V23.5908H251.552V23.2726C251.552 22.3181 251.099 21.7726 250.101 21.7726C249.194 21.7726 248.649 22.3181 248.649 23.2726V26.409C248.649 27.3635 249.148 27.8635 250.101 27.8635C251.053 27.8635 251.552 27.3635 251.552 26.409V25.909H253.457V26.2726C253.457 28.3181 252.369 29.6363 250.101 29.6363C247.833 29.6363 246.699 28.409 246.699 26.2726V26.2272Z" fill="black"/>
<path d="M258.402 25.2275L257.178 26.773V29.3639H255.182V16.7275H257.178V24.273L260.307 20.2275H262.53L259.763 23.6366L262.666 29.3639H260.489L258.402 25.2275Z" fill="black"/>
<path d="M263.528 26.7729V26.5002H265.433V26.7729C265.433 27.5457 265.932 27.9547 266.839 27.9547C267.656 27.9547 268.2 27.5911 268.2 26.7729C268.2 25.9547 267.429 25.8184 266.295 25.5457C264.979 25.2729 263.664 24.682 263.664 22.8184C263.664 21.1366 264.798 20.0457 266.839 20.0457C268.744 20.0457 269.969 21.0911 269.969 22.682V22.8638H268.109V22.682C268.109 22.0002 267.656 21.6366 266.839 21.6366C266.113 21.6366 265.569 21.9547 265.569 22.682C265.569 23.5002 266.34 23.682 267.474 23.9547C268.789 24.2729 270.105 24.7275 270.105 26.5911C270.105 28.4547 268.971 29.5002 266.884 29.5002C264.798 29.5002 263.483 28.4547 263.483 26.7275L263.528 26.7729Z" fill="black"/>
<path d="M275.137 16.7274H278.04L280.126 26.1365L282.213 16.7274H285.161V29.3638H283.211V19.4092L280.943 29.3638H279.219L276.951 19.4092V29.3638H275.137V16.7274Z" fill="black"/>
<path d="M292.146 29.3638C292.146 29.3638 291.965 28.6366 291.965 27.7729C291.602 28.9093 290.74 29.5457 289.379 29.5457C287.792 29.5457 286.839 28.6366 286.839 27.1366C286.839 25.7275 287.474 24.7729 289.516 24.2729C291.421 23.7729 291.738 23.5911 291.738 22.9547C291.738 22.0911 291.33 21.682 290.423 21.682C289.425 21.682 289.062 22.2275 289.062 23.0911H287.202C287.202 21.182 288.336 20.0457 290.468 20.0457C292.827 20.0457 293.688 21.2729 293.688 23.3638V26.682C293.688 28.0002 293.779 28.8184 293.961 29.3638H292.146ZM291.738 25.8638V24.9547C291.466 25.182 291.012 25.3638 290.151 25.5911C289.153 25.8638 288.79 26.2729 288.79 26.8638C288.79 27.5457 289.153 27.9093 290.014 27.9093C291.012 27.9093 291.738 27.3184 291.738 25.8638Z" fill="black"/>
<path d="M300.536 20.182V22.0911C300.536 22.0911 300.128 22.0002 299.856 22.0002C298.405 22.0002 297.679 22.8638 297.679 24.6366V29.3638H295.683V20.2275H297.407V22.0457C297.77 20.682 298.586 20.0457 299.765 20.0457C300.083 20.0457 300.31 20.0457 300.491 20.182H300.536Z" fill="black"/>
<path d="M305.208 25.2275L303.984 26.773V29.3639H301.988V16.7275H303.984V24.273L307.113 20.2275H309.336L306.569 23.6366L309.472 29.3639H307.295L305.208 25.2275Z" fill="black"/>
<path d="M317.412 23.4093V25.2275H312.468V26.4093C312.468 27.3638 312.967 27.9093 314.011 27.9093C315.054 27.9093 315.553 27.3638 315.553 26.4093H317.458C317.458 28.3638 316.142 29.5457 313.965 29.5457C311.788 29.5457 310.473 28.3184 310.473 26.182V23.4093C310.473 21.2729 311.697 20.0457 313.965 20.0457C316.233 20.0457 317.458 21.2729 317.458 23.4093H317.412ZM315.462 23.7729V23.182C315.462 22.2275 314.918 21.682 313.965 21.682C313.013 21.682 312.468 22.182 312.468 23.182V23.7729H315.507H315.462Z" fill="black"/>
<path d="M321.946 21.8635V26.5908C321.946 27.4544 322.218 27.7726 322.989 27.7726C323.261 27.7726 323.579 27.7726 323.896 27.5908V29.2726C323.488 29.4544 323.125 29.4999 322.626 29.4999C320.812 29.4999 319.95 28.6362 319.95 26.7726V21.818H318.544V20.1817H319.995L320.131 17.7726H321.9V20.1817H323.851V21.818H321.9L321.946 21.8635Z" fill="black"/>
<path d="M328.479 26.1818V25.6363H330.384V26.1818C330.384 27.1363 330.974 27.8181 332.063 27.8181C333.106 27.8181 333.695 27.1818 333.695 26.1818C333.695 25 333.242 24.5909 331.382 23.7272C329.114 22.6818 328.525 21.6363 328.525 19.909C328.525 17.909 329.795 16.5454 332.153 16.5454C334.512 16.5454 335.691 17.909 335.691 19.9545V20.3181H333.741V20C333.741 19.0454 333.197 18.3181 332.153 18.3181C331.201 18.3181 330.611 18.9545 330.611 19.909C330.611 21 331.11 21.3636 332.97 22.2727C335.238 23.3181 335.782 24.409 335.782 26.1818C335.782 28.2272 334.467 29.5909 332.108 29.5909C329.749 29.5909 328.525 28.2272 328.525 26.2272L328.479 26.1818Z" fill="black"/>
<path d="M337.458 20.2272H339.454V29.3636H337.458V20.2272ZM337.458 16.5454H339.454V18.8181H337.458V16.5454Z" fill="black"/>
<path d="M341.042 27.7274L345.396 21.9546H341.268V20.2728H347.528V21.9092L343.173 27.7274H347.528V29.4092H341.042V27.7728V27.7274Z" fill="black"/>
<path d="M355.874 23.4093V25.2275H350.93V26.4093C350.93 27.3638 351.429 27.9093 352.472 27.9093C353.515 27.9093 354.014 27.3638 354.014 26.4093H355.919C355.919 28.3638 354.604 29.5457 352.427 29.5457C350.249 29.5457 348.934 28.3184 348.934 26.182V23.4093C348.934 21.2729 350.159 20.0457 352.427 20.0457C354.694 20.0457 355.919 21.2729 355.919 23.4093H355.874ZM353.923 23.7729V23.182C353.923 22.2275 353.379 21.682 352.427 21.682C351.474 21.682 350.93 22.182 350.93 23.182V23.7729H353.969H353.923Z" fill="black"/>
<path d="M358.414 29.3637H357.688V27.0909H359.729V29.1819L358.505 31.4091H357.552L358.414 29.4091V29.3637Z" fill="black"/>
<path d="M364.856 27.9545C364.856 26.1818 365.536 24.909 367.713 23.2727C369.391 21.9545 370.162 21.3181 370.162 19.9545C370.162 19 369.618 18.3636 368.484 18.3636C367.35 18.3636 366.806 19.0909 366.806 20.0909V20.9545H364.901V20.0909C364.901 18.0454 366.035 16.5454 368.575 16.5454C371.115 16.5454 372.249 18 372.249 19.8636C372.249 21.7272 371.251 22.8181 368.938 24.6363C367.441 25.8181 366.897 26.4545 366.897 27.4545V27.5454H371.977V29.3636H364.856V27.9545Z" fill="black"/>
<path d="M373.654 25.9545V20.1363C373.654 17.8636 374.969 16.5454 377.373 16.5454C379.777 16.5454 381.093 17.8636 381.093 20.1363V25.9545C381.093 28.2272 379.777 29.5454 377.373 29.5454C374.969 29.5454 373.654 28.2272 373.654 25.9545ZM379.052 26.0454V20.0454C379.052 18.9545 378.462 18.3636 377.373 18.3636C376.285 18.3636 375.695 18.9545 375.695 20.0454V26.0454C375.695 27.1363 376.285 27.7272 377.373 27.7272C378.462 27.7272 379.052 27.1363 379.052 26.0454Z" fill="black"/>
<path d="M385.085 19.5908C384.223 19.7272 383.361 19.7726 382.409 19.7726V18.3181C384.359 18.3181 385.175 17.9544 385.72 16.7272H387.126V29.3635H385.085V19.5908Z" fill="black"/>
<path d="M389.121 25.9545V20.2272C389.121 17.8636 390.346 16.5454 392.841 16.5454C395.199 16.5454 396.515 17.909 396.515 19.9545H394.564C394.564 18.909 393.975 18.3181 392.886 18.3181C391.752 18.3181 391.162 18.8636 391.162 20.3181V22.4545C391.661 21.5909 392.523 21.1363 393.657 21.1363C395.653 21.1363 396.515 22.3636 396.515 24.4545V25.9545C396.515 28.2272 395.199 29.5454 392.795 29.5454C390.391 29.5454 389.076 28.2272 389.076 25.9545H389.121ZM394.519 26.0454V24.6818C394.519 23.5909 394.065 22.9545 392.886 22.9545C391.707 22.9545 391.162 23.6363 391.162 24.7272V26.0454C391.162 27.1363 391.752 27.7272 392.841 27.7272C393.975 27.7272 394.519 27.1818 394.519 26.0454Z" fill="black"/>
<path d="M397.876 23.136H402.684V24.7723H397.876V23.136Z" fill="black"/>
<path d="M403.999 27.9545C403.999 26.1818 404.679 24.909 406.856 23.2727C408.534 21.9545 409.306 21.3181 409.306 19.9545C409.306 19 408.761 18.3636 407.627 18.3636C406.493 18.3636 405.949 19.0909 405.949 20.0909V20.9545H404.044V20.0909C404.044 18.0454 405.178 16.5454 407.718 16.5454C410.258 16.5454 411.392 18 411.392 19.8636C411.392 21.7272 410.394 22.8181 408.081 24.6363C406.584 25.8181 406.04 26.4545 406.04 27.4545V27.5454H411.12V29.3636H403.999V27.9545Z" fill="black"/>
<path d="M412.797 25.9545V20.1363C412.797 17.8636 414.112 16.5454 416.516 16.5454C418.92 16.5454 420.236 17.8636 420.236 20.1363V25.9545C420.236 28.2272 418.92 29.5454 416.516 29.5454C414.112 29.5454 412.797 28.2272 412.797 25.9545ZM418.195 26.0454V20.0454C418.195 18.9545 417.605 18.3636 416.516 18.3636C415.428 18.3636 414.838 18.9545 414.838 20.0454V26.0454C414.838 27.1363 415.428 27.7272 416.516 27.7272C417.605 27.7272 418.195 27.1363 418.195 26.0454Z" fill="black"/>
<path d="M421.779 27.9545C421.779 26.1818 422.46 24.909 424.637 23.2727C426.315 21.9545 427.086 21.3181 427.086 19.9545C427.086 19 426.542 18.3636 425.408 18.3636C424.274 18.3636 423.73 19.0909 423.73 20.0909V20.9545H421.825V20.0909C421.825 18.0454 422.959 16.5454 425.499 16.5454C428.039 16.5454 429.173 18 429.173 19.8636C429.173 21.7272 428.175 22.8181 425.862 24.6363C424.365 25.8181 423.82 26.4545 423.82 27.4545V27.5454H428.901V29.3636H421.779V27.9545Z" fill="black"/>
<path d="M435.567 18.5454H430.261V16.7272H437.654V18.4544L433.481 29.3635H431.304L435.613 18.5454H435.567Z" fill="black"/>
<path d="M442.642 27.8183V20.0456C442.642 17.682 443.595 16.7274 445.953 16.7274H446.634V18.2729H446.044C444.956 18.2729 444.502 18.8183 444.502 20.0456V27.8183C444.502 29.0911 444.956 29.5911 446.044 29.5911H446.634V31.1365H445.953C443.595 31.1365 442.642 30.182 442.642 27.8183Z" fill="black"/>
<path d="M448.494 25.9547V16.7274H450.535V26.0911C450.535 27.2274 451.124 27.7729 452.168 27.7729C453.211 27.7729 453.846 27.2274 453.846 26.0911V16.7274H455.841V25.9547C455.841 28.2274 454.571 29.5456 452.168 29.5456C449.764 29.5456 448.494 28.2274 448.494 25.9547Z" fill="black"/>
<path d="M457.476 26.1818V25.6363H459.381V26.1818C459.381 27.1363 459.97 27.8181 461.059 27.8181C462.102 27.8181 462.692 27.1818 462.692 26.1818C462.692 25 462.238 24.5909 460.378 23.7272C458.111 22.6818 457.521 21.6363 457.521 19.909C457.521 17.909 458.791 16.5454 461.149 16.5454C463.508 16.5454 464.687 17.909 464.687 19.9545V20.3181H462.737V20C462.737 19.0454 462.193 18.3181 461.149 18.3181C460.197 18.3181 459.607 18.9545 459.607 19.909C459.607 21 460.106 21.3636 461.966 22.2727C464.234 23.3181 464.778 24.409 464.778 26.1818C464.778 28.2272 463.463 29.5909 461.104 29.5909C458.746 29.5909 457.521 28.2272 457.521 26.2272L457.476 26.1818Z" fill="black"/>
<path d="M466.5 16.7272H470.219C472.623 16.7272 473.893 17.909 473.893 20.2272V25.8181C473.893 28.1363 472.623 29.3181 470.219 29.3181H466.5V16.7272ZM470.174 27.5454C471.353 27.5454 471.852 27.0454 471.852 25.8635V20.1817C471.852 18.9999 471.353 18.4999 470.174 18.4999H468.541V27.4999H470.174V27.5454Z" fill="black"/>
<path d="M479.11 16.7272H482.738C485.188 16.7272 486.412 17.7726 486.412 19.8635V20.0908C486.412 21.4544 485.868 22.2726 484.689 22.6817C486.004 23.1363 486.639 24.0908 486.639 25.6817V25.9544C486.639 28.2726 485.46 29.3635 482.965 29.3635H479.11V16.7272ZM482.466 21.9544C483.782 21.9544 484.371 21.4544 484.371 20.3181V20.0908C484.371 18.9999 483.872 18.4999 482.693 18.4999H481.151V21.909H482.466V21.9544ZM483.011 27.5454C484.144 27.5454 484.643 27.0908 484.643 25.909V25.5454C484.643 24.2272 484.099 23.7272 482.648 23.7272H481.242V27.4999H483.056L483.011 27.5454Z" fill="black"/>
<path d="M488.364 20.2272H490.359V29.3636H488.364V20.2272ZM488.364 16.5454H490.359V18.8181H488.364V16.5454Z" fill="black"/>
<path d="M492.445 16.7274H494.441V29.3638H492.445V16.7274Z" fill="black"/>
<path d="M496.48 16.7275H498.476V29.3639H496.48V16.7275Z" fill="black"/>
<path d="M500.52 20.2272H502.515V29.3636H500.52V20.2272ZM500.52 16.5454H502.515V18.8181H500.52V16.5454Z" fill="black"/>
<path d="M504.331 26.182V23.4093C504.331 21.2729 505.555 20.0457 507.778 20.0457C510 20.0457 511.225 21.2729 511.225 23.4093V26.182C511.225 28.3638 510 29.5457 507.778 29.5457C505.555 29.5457 504.331 28.3638 504.331 26.182ZM509.275 26.3638V23.2729C509.275 22.3184 508.73 21.7729 507.778 21.7729C506.825 21.7729 506.281 22.3184 506.281 23.2729V26.3638C506.281 27.3184 506.78 27.8638 507.778 27.8638C508.776 27.8638 509.275 27.3184 509.275 26.3638Z" fill="black"/>
<path d="M519.885 23.0911V29.3638H517.89V23.4093C517.89 22.2729 517.527 21.7729 516.62 21.7729C515.576 21.7729 515.032 22.4547 515.032 23.7729V29.3638H513.036V20.2275H514.76V21.8184C515.168 20.682 516.075 20.0457 517.345 20.0457C518.978 20.0457 519.84 21.0911 519.84 23.0911H519.885Z" fill="black"/>
<path d="M521.745 29.6363H522.29C523.378 29.6363 523.832 29.0909 523.832 27.8636V20.0909C523.832 18.8636 523.424 18.3182 522.29 18.3182H521.745V16.7727H522.426C524.784 16.7727 525.737 17.7273 525.737 20.0909V27.8636C525.737 30.2272 524.784 31.1818 522.426 31.1818H521.745V29.6363Z" fill="black"/>
</svg>
