<svg width="60" height="49" viewBox="0 0 60 49" fill="none" xmlns="http://www.w3.org/2000/svg">
<g clip-path="url(#clip0_580_6766)">
<path d="M28.5289 25.033C28.5069 24.8961 28.4508 24.767 28.3659 24.6573C28.281 24.5477 28.17 24.4611 28.0429 24.4054C27.9159 24.3498 27.7769 24.3268 27.6387 24.3388C27.5006 24.3507 27.3675 24.3971 27.2519 24.4737L26.7187 24.8225C27.1768 23.7063 27.4008 22.508 27.377 21.3018C27.3767 21.1972 27.3474 21.0948 27.2925 21.0059C27.2375 20.9169 27.1589 20.845 27.0655 20.7979C26.9721 20.7509 26.8675 20.7307 26.7633 20.7395C26.6591 20.7483 26.5594 20.7857 26.4752 20.8477L25.2837 21.6637C25.6303 20.6495 25.7996 19.5832 25.784 18.5116C25.7834 18.4063 25.7539 18.3033 25.6985 18.2138C25.6432 18.1243 25.5643 18.0517 25.4704 18.0041C25.3765 17.9565 25.2714 17.9357 25.1664 17.944C25.0615 17.9522 24.9609 17.9892 24.8756 18.0509L23.6644 18.9261C23.912 18.0373 24.0317 17.1177 24.0199 16.1952C24.0208 16.09 23.9924 15.9868 23.9379 15.8969C23.8835 15.807 23.805 15.734 23.7114 15.6862C23.6178 15.6384 23.5127 15.6176 23.4079 15.6261C23.3031 15.6346 23.2027 15.6722 23.1181 15.7345L21.953 16.5768L21.9201 16.5374C22.1218 15.7148 22.2213 14.8704 22.2163 14.0235C22.2157 13.9183 22.1861 13.8153 22.1308 13.7258C22.0755 13.6362 21.9965 13.5637 21.9027 13.5161C21.8088 13.4685 21.7036 13.4477 21.5987 13.4559C21.4938 13.4642 21.3932 13.5012 21.3079 13.5629L20.1428 14.4052C20.3049 13.6572 20.3844 12.8936 20.3797 12.1283C20.3791 12.023 20.3496 11.92 20.2942 11.8305C20.2389 11.741 20.16 11.6685 20.0661 11.6209C19.9723 11.5733 19.8671 11.5524 19.7622 11.5607C19.6572 11.5689 19.5566 11.6059 19.4713 11.6676L18.4379 12.4178C18.5627 11.7539 18.6244 11.0797 18.6222 10.4041C18.6204 10.2995 18.59 10.1973 18.5342 10.1087C18.4784 10.0201 18.3994 9.94857 18.3057 9.90175C18.2121 9.85494 18.1074 9.83469 18.003 9.8432C17.8986 9.85172 17.7986 9.88868 17.7138 9.95005L16.6079 10.7463C16.6742 10.26 16.705 9.76957 16.7001 9.27882C16.6998 9.17427 16.6705 9.07185 16.6156 8.98292C16.5606 8.89398 16.4821 8.82201 16.3887 8.77498C16.2953 8.72795 16.1906 8.70772 16.0864 8.7165C15.9822 8.72528 15.8825 8.76276 15.7983 8.82476L15.0808 9.33805L15.0347 9.29857C14.8907 8.64338 14.688 8.00246 14.4291 7.38358C14.3875 7.28738 14.3203 7.20444 14.2348 7.1438C14.1493 7.08316 14.0488 7.04714 13.9442 7.03967C13.8397 7.0322 13.7351 7.05358 13.6418 7.10146C13.5486 7.14933 13.4702 7.22188 13.4154 7.31119L13.1718 7.70603C13.0393 7.16915 12.8654 6.64332 12.6518 6.13324C12.6102 6.03704 12.543 5.9541 12.4575 5.89346C12.372 5.83282 12.2715 5.79681 12.167 5.78934C12.0624 5.78187 11.9578 5.80324 11.8645 5.85111C11.7713 5.89899 11.693 5.97154 11.6381 6.06085L11.4736 6.33066C11.3385 5.80737 11.1646 5.29486 10.9535 4.79735C10.913 4.70096 10.8466 4.61768 10.7617 4.55672C10.6767 4.49577 10.5765 4.45953 10.4722 4.45203C10.3679 4.44453 10.2635 4.46607 10.1707 4.51425C10.0779 4.56242 10.0003 4.63536 9.94639 4.72496L9.76206 5.0211C9.63779 4.59665 9.49058 4.17926 9.32104 3.77076C9.27945 3.67456 9.21225 3.59163 9.12675 3.53098C9.04125 3.47034 8.94075 3.43433 8.83619 3.42687C8.73163 3.4194 8.62699 3.44076 8.53374 3.48864C8.44049 3.53652 8.36219 3.60906 8.30734 3.69837L8.202 3.87606C8.02554 3.52989 7.81612 3.20153 7.57665 2.89553C7.5386 2.84558 7.48756 2.80707 7.42908 2.7842C7.3706 2.76133 7.30696 2.75498 7.24511 2.76585C7.18326 2.77672 7.12559 2.8044 7.07842 2.84584C7.03125 2.88728 6.99638 2.9409 6.97765 3.00082L6.91839 3.18508C6.53723 2.99387 6.11351 2.90326 5.68746 2.92185C5.12136 3.02715 4.89758 3.94845 4.60136 4.54729C-4.55498 25.2897 11.3221 44.7489 21.4132 40.2279C22.6419 39.6883 23.7721 38.9477 24.7571 38.0365V38.0694C29.3715 34.0947 28.9568 27.718 28.5289 25.033Z" fill="#70B62E"/>
<path d="M24.178 37.7536C21.545 34.5816 7.77425 20.3607 6.01012 4.1919L6.05621 4.03397H5.9904C5.9904 3.82339 5.94433 3.61281 5.92459 3.3759C5.8456 2.48092 5.26631 2.86918 5.04251 3.27718C4.97668 3.42196 4.91086 3.56674 4.83845 3.71151L4.53564 3.63255C4.47456 3.61612 4.41014 3.61692 4.3495 3.63488C4.28886 3.65283 4.23436 3.68724 4.19209 3.73428C4.14981 3.78131 4.1214 3.83913 4.11001 3.90132C4.09861 3.96352 4.10467 4.02765 4.12752 4.08661C4.20281 4.27975 4.28852 4.46868 4.38425 4.65255L3.8313 4.51436C3.75418 4.49243 3.67245 4.4926 3.59542 4.51485C3.51839 4.53711 3.44919 4.58056 3.39566 4.64024C3.34214 4.69992 3.30648 4.77344 3.29273 4.85241C3.27898 4.93138 3.28768 5.01262 3.31788 5.08688C3.45635 5.43991 3.6191 5.78292 3.80498 6.11347L3.14673 5.94895C3.04656 5.92738 2.94242 5.93308 2.8452 5.96545C2.74798 5.99782 2.66125 6.05567 2.59402 6.13297C2.52678 6.21027 2.48152 6.30418 2.46296 6.40493C2.4444 6.50568 2.4532 6.60956 2.48847 6.70574C2.67639 7.18073 2.89632 7.64244 3.14673 8.08768H2.17252C2.0678 8.08792 1.96512 8.11686 1.8757 8.17136C1.78628 8.22585 1.71352 8.30382 1.66533 8.39678C1.61714 8.48973 1.5954 8.59411 1.60241 8.69857C1.60943 8.80303 1.64496 8.90357 1.70515 8.98925C1.97578 9.36748 2.27042 9.72797 2.58723 10.0685H1.66565C1.56093 10.0687 1.45829 10.0977 1.36887 10.1521C1.27945 10.2066 1.20669 10.2846 1.1585 10.3776C1.11032 10.4705 1.08853 10.5749 1.09555 10.6794C1.10256 10.7838 1.13809 10.8844 1.19828 10.97C1.50036 11.3866 1.83024 11.7824 2.18566 12.1546H1.26413C1.1594 12.1548 1.05676 12.1837 0.967341 12.2382C0.877922 12.2927 0.805162 12.3707 0.756976 12.4637C0.708789 12.5566 0.687002 12.661 0.694019 12.7655C0.701036 12.8699 0.736564 12.9704 0.796751 13.0561C1.11497 13.5075 1.4694 13.9323 1.85653 14.3262H0.92841C0.823686 14.3264 0.721043 14.3554 0.631624 14.4099C0.542206 14.4644 0.469446 14.5423 0.421259 14.6353C0.373072 14.7282 0.351285 14.8326 0.358302 14.9371C0.36532 15.0415 0.400847 15.1421 0.461034 15.2278C0.80664 15.7129 1.19195 16.1686 1.61298 16.59L0.605871 17.0111C0.510446 17.052 0.427913 17.1181 0.367141 17.2022C0.306369 17.2864 0.269623 17.3855 0.260833 17.4889C0.252044 17.5923 0.271542 17.6962 0.317241 17.7894C0.362941 17.8826 0.433138 17.9616 0.520295 18.018C0.932109 18.2632 1.35858 18.483 1.79731 18.6761C1.80082 18.7045 1.80082 18.7332 1.79731 18.7616L0.342553 19.367C0.245546 19.4072 0.161474 19.4734 0.0995238 19.5581C0.0375737 19.6429 0.000121475 19.7431 -0.00871234 19.8477C-0.0175461 19.9523 0.00256571 20.0574 0.0494234 20.1513C0.0962811 20.2453 0.168087 20.3246 0.256976 20.3805C0.824273 20.7327 1.42381 21.0301 2.04745 21.2689C2.04745 21.2689 2.04745 21.3149 2.04745 21.3347L0.48739 21.9927C0.391965 22.0336 0.309432 22.0997 0.24866 22.1838C0.187888 22.268 0.151142 22.3671 0.142352 22.4705C0.133562 22.5739 0.153061 22.6778 0.19876 22.771C0.244459 22.8642 0.314657 22.9432 0.401814 22.9996C1.06221 23.4163 1.76918 23.7542 2.50824 24.0064L1.15223 24.5724C1.05504 24.6115 0.970592 24.6768 0.908322 24.761C0.846051 24.8453 0.808393 24.9451 0.799523 25.0495C0.790653 25.1538 0.810939 25.2586 0.858101 25.3521C0.905263 25.4457 0.977458 25.5243 1.06666 25.5792C1.7748 26.0245 2.5354 26.3804 3.33106 26.6387V26.7045L2.01455 27.2442C1.91754 27.2844 1.83347 27.3505 1.77152 27.4353C1.70957 27.52 1.67212 27.6202 1.66328 27.7248C1.65445 27.8295 1.67456 27.9345 1.72142 28.0284C1.76828 28.1224 1.84008 28.2017 1.92897 28.2576C2.6964 28.7362 3.52434 29.1102 4.39084 29.3697V29.4026L3.07433 29.962C2.9789 30.0029 2.89637 30.0689 2.8356 30.1531C2.77483 30.2372 2.73808 30.3363 2.72929 30.4397C2.7205 30.5432 2.74 30.647 2.7857 30.7402C2.8314 30.8334 2.9016 30.9124 2.98875 30.9688C3.89411 31.5446 4.89156 31.9609 5.93773 32.1994L4.62121 32.7456C4.52402 32.7847 4.43961 32.85 4.37734 32.9343C4.31507 33.0185 4.27741 33.1184 4.26854 33.2227C4.25967 33.3271 4.27992 33.4319 4.32708 33.5254C4.37424 33.6189 4.44644 33.6975 4.53564 33.7525C5.55156 34.414 6.69157 34.8618 7.88618 35.0686L7.29373 35.3384C7.16639 35.3964 7.0558 35.4856 6.97224 35.5978C6.88867 35.71 6.83484 35.8415 6.81579 35.9801C6.79674 36.1187 6.81309 36.2599 6.86328 36.3904C6.91347 36.521 6.99587 36.6368 7.10285 36.727C8.87356 38.2471 12.9745 41.1821 17.7534 40.7346C18.9563 40.7944 20.1563 40.5689 21.2553 40.0765C22.259 39.6315 23.1996 39.0562 24.0529 38.3656C24.1445 38.2961 24.2076 38.1957 24.2306 38.0831C24.2536 37.9705 24.2349 37.8534 24.178 37.7536Z" fill="#41A935"/>
<path d="M42.5627 19.8343C42.6335 19.757 42.6817 19.6617 42.702 19.5589C42.7223 19.4561 42.7141 19.3497 42.6781 19.2513C42.6421 19.1529 42.5798 19.0662 42.4979 19.0008C42.4161 18.9353 42.3178 18.8936 42.2138 18.8801L40.792 18.6892C41.4268 18.2571 42.0118 17.7562 42.5364 17.1954C42.6072 17.1181 42.6553 17.0229 42.6757 16.9201C42.696 16.8173 42.6877 16.7109 42.6517 16.6124C42.6157 16.514 42.5534 16.4274 42.4716 16.3619C42.3897 16.2965 42.2915 16.2547 42.1875 16.2412L40.9237 16.0767C41.47 15.6883 41.977 15.2475 42.4377 14.7606C42.5088 14.6844 42.5575 14.5901 42.5785 14.488C42.5994 14.386 42.5917 14.2801 42.5563 14.1821C42.5209 14.0841 42.4592 13.9978 42.3778 13.9327C42.2965 13.8675 42.1987 13.8261 42.0954 13.8129L40.7394 13.6287V13.5892C41.119 13.2801 41.4775 12.946 41.8123 12.5889C41.8829 12.512 41.9312 12.4173 41.9519 12.315C41.9725 12.2127 41.9648 12.1067 41.9296 12.0084C41.8943 11.9102 41.8329 11.8234 41.7519 11.7576C41.6709 11.6917 41.5735 11.6492 41.4701 11.6347L40.5946 11.5163C40.5914 11.4967 40.5914 11.4767 40.5946 11.457C40.943 10.8828 41.2361 10.2769 41.4701 9.64735C41.5038 9.55153 41.5114 9.44846 41.4921 9.34873C41.4728 9.249 41.4273 9.15619 41.3603 9.07983C41.2933 9.00347 41.2072 8.94631 41.1108 8.91421C41.0144 8.8821 40.9112 8.87622 40.8118 8.89715L40.3642 9.02217C40.636 8.54124 40.8693 8.03954 41.0619 7.52177C41.0956 7.42595 41.1032 7.32289 41.084 7.22316C41.0647 7.12343 41.0192 7.03062 40.9522 6.95426C40.8852 6.8779 40.7991 6.82074 40.7027 6.78863C40.6063 6.75653 40.5031 6.75064 40.4036 6.77157L40.1009 6.85712C40.3568 6.3874 40.5768 5.89904 40.7591 5.3962C40.7928 5.30038 40.8004 5.19732 40.7811 5.09759C40.7619 4.99786 40.7164 4.90506 40.6494 4.8287C40.5824 4.75234 40.4963 4.69517 40.3999 4.66306C40.3035 4.63096 40.2003 4.62507 40.1009 4.646L39.7652 4.73813C39.9715 4.34681 40.1518 3.94232 40.3049 3.52728C40.3386 3.43146 40.3462 3.32839 40.3269 3.22866C40.3077 3.12893 40.2622 3.03614 40.1952 2.95978C40.1282 2.88341 40.0421 2.82625 39.9457 2.79414C39.8493 2.76204 39.7461 2.75615 39.6467 2.77708L39.4426 2.83631C39.5524 2.46234 39.6273 2.07902 39.6664 1.69126C39.6726 1.62847 39.6613 1.5652 39.6338 1.50843C39.6063 1.45165 39.5636 1.40357 39.5105 1.36952C39.4574 1.33548 39.3959 1.31678 39.3328 1.31549C39.2697 1.3142 39.2075 1.33037 39.153 1.36222L38.9884 1.45435C38.8435 1.05308 38.5989 0.695271 38.2775 0.414609C37.7904 0.0987343 36.961 0.618603 36.3686 0.848928C15.4558 9.63418 13.6258 34.6738 24.0658 38.3261C25.3335 38.7805 26.6686 39.0185 28.0153 39.0302C34.0976 39.4317 38.1787 34.5159 39.7125 32.2718C39.7964 32.1566 39.8494 32.0217 39.8664 31.8802C39.8835 31.7387 39.864 31.5951 39.8099 31.4632C39.7558 31.3313 39.6689 31.2155 39.5574 31.1266C39.4458 31.0378 39.3134 30.9789 39.1727 30.9557L38.5145 30.8438C39.6106 30.3425 40.592 29.6213 41.3976 28.7248C41.4687 28.6487 41.5175 28.5544 41.5384 28.4523C41.5593 28.3503 41.5517 28.2444 41.5163 28.1464C41.4809 28.0484 41.4191 27.9621 41.3378 27.897C41.2565 27.8318 41.1587 27.7904 41.0554 27.7772L39.6533 27.5864C40.602 27.0767 41.4568 26.4091 42.1809 25.6122C42.2516 25.5353 42.2998 25.4406 42.3205 25.3383C42.3411 25.2359 42.3334 25.1299 42.2982 25.0317C42.2629 24.9334 42.2015 24.8467 42.1205 24.7808C42.0395 24.7149 41.9421 24.6724 41.8387 24.6579L40.351 24.4605C41.1146 23.9559 41.8037 23.3467 42.3982 22.6508C42.4712 22.5749 42.5216 22.48 42.5436 22.377C42.5656 22.274 42.5584 22.1668 42.5228 22.0677C42.4873 21.9685 42.4247 21.8812 42.3422 21.8157C42.2597 21.7501 42.1605 21.7089 42.0559 21.6966L40.6341 21.5058C40.6312 21.4884 40.6312 21.4706 40.6341 21.4531C41.3418 20.9958 41.9897 20.452 42.5627 19.8343Z" fill="#70B62E"/>
<path d="M37.4483 0.256628C37.2969 0.309274 37.1521 0.375084 37.0073 0.43431L36.8361 0.164499C36.8031 0.109724 36.7554 0.0652974 36.6984 0.0362603C36.6414 0.0072233 36.5774 -0.00525956 36.5136 0.000221858C36.4499 0.00570327 36.389 0.0289257 36.3378 0.0672681C36.2866 0.10561 36.2471 0.157537 36.224 0.217146C36.1581 0.381664 36.0857 0.579078 36.0133 0.796242L35.7171 0.315852C35.6747 0.248164 35.6144 0.193482 35.543 0.157811C35.4715 0.12214 35.3915 0.106868 35.3119 0.113669C35.2323 0.120471 35.1561 0.149079 35.0917 0.19636C35.0273 0.243641 34.9772 0.307762 34.9469 0.381664C34.8058 0.731325 34.6871 1.08959 34.5915 1.45431L34.2492 0.9147C34.1938 0.825616 34.115 0.753458 34.0214 0.7061C33.9278 0.658742 33.8229 0.638005 33.7183 0.646153C33.6137 0.654302 33.5134 0.691017 33.4282 0.752301C33.3431 0.813585 33.2764 0.897079 33.2355 0.993665C33.043 1.46941 32.8824 1.95747 32.7549 2.45458L32.044 1.79651C31.9689 1.72382 31.8751 1.67334 31.7731 1.65068C31.671 1.62802 31.5646 1.63406 31.4658 1.66813C31.3669 1.70221 31.2794 1.76299 31.213 1.84373C31.1466 1.92447 31.1039 2.02201 31.0896 2.12555C31.027 2.5859 30.9918 3.04956 30.9842 3.51408L30.326 2.85601C30.2504 2.78317 30.1561 2.73277 30.0535 2.71044C29.951 2.6881 29.8442 2.69471 29.7452 2.72953C29.6462 2.76434 29.5588 2.826 29.4928 2.9076C29.4268 2.9892 29.3848 3.08753 29.3715 3.19162C29.301 3.70181 29.268 4.2165 29.2728 4.73152L28.6145 4.07344C28.5386 4.00125 28.4444 3.95124 28.3421 3.92886C28.2398 3.90648 28.1333 3.91258 28.0342 3.94651C27.9351 3.98044 27.8472 4.04089 27.78 4.12128C27.7129 4.20168 27.6691 4.29894 27.6535 4.40248C27.5796 4.94986 27.5466 5.50196 27.5547 6.05424L26.8965 5.39616C26.8209 5.32333 26.7266 5.27293 26.624 5.2506C26.5215 5.22826 26.4147 5.23487 26.3157 5.26968C26.2167 5.3045 26.1293 5.36616 26.0633 5.44776C25.9973 5.52936 25.9553 5.62769 25.942 5.73178C25.858 6.3201 25.825 6.91458 25.8432 7.50858L24.823 7.1269C24.7267 7.08924 24.622 7.07866 24.5201 7.09628C24.4183 7.1139 24.3232 7.15906 24.2452 7.22687C24.1672 7.29467 24.1093 7.38252 24.0777 7.4809C24.0461 7.57929 24.0421 7.68445 24.066 7.78497C24.1898 8.25287 24.3437 8.71228 24.5267 9.16033L24.4741 9.22615L22.993 8.66678C22.8971 8.63077 22.7932 8.62145 22.6924 8.63983C22.5916 8.65821 22.4977 8.70358 22.4207 8.77113C22.3436 8.83868 22.2864 8.92587 22.255 9.02338C22.2237 9.1209 22.2194 9.22509 22.2426 9.32485C22.4016 9.97598 22.622 10.6106 22.9009 11.2201V11.2662L21.3079 10.6607C21.2117 10.6255 21.1078 10.6167 21.007 10.6352C20.9062 10.6538 20.8123 10.699 20.7349 10.7662C20.6576 10.8334 20.5998 10.9202 20.5674 11.0174C20.535 11.1146 20.5293 11.2187 20.5509 11.3188C20.7494 12.072 21.032 12.8004 21.3935 13.4904L20.0177 13.1088C19.9215 13.0735 19.8176 13.0647 19.7168 13.0832C19.616 13.1018 19.5221 13.147 19.4448 13.2143C19.3675 13.2815 19.3096 13.3682 19.2772 13.4654C19.2448 13.5626 19.2391 13.6667 19.2607 13.7668C19.4712 14.5782 19.7807 15.3606 20.1823 16.0964V16.1556L18.8658 15.6555C18.7696 15.6202 18.6656 15.6114 18.5649 15.63C18.4641 15.6485 18.3702 15.6938 18.2928 15.761C18.2155 15.8282 18.1576 15.9149 18.1253 16.0121C18.0929 16.1093 18.0872 16.2134 18.1087 16.3136C18.3356 17.1951 18.6834 18.0411 19.1422 18.8274L17.7731 18.3075C17.6768 18.2699 17.5721 18.2593 17.4702 18.2769C17.3684 18.2945 17.2733 18.3397 17.1953 18.4075C17.1173 18.4753 17.0594 18.5632 17.0278 18.6615C16.9962 18.7599 16.9921 18.8651 17.0161 18.9656C17.2814 20.0108 17.7269 21.0018 18.3326 21.894L17.0161 21.3939C16.9198 21.3562 16.8151 21.3457 16.7132 21.3633C16.6114 21.3809 16.5163 21.4261 16.4383 21.4939C16.3603 21.5617 16.3024 21.6495 16.2708 21.7479C16.2392 21.8463 16.2351 21.9514 16.259 22.052C16.5453 23.2272 17.0696 24.3314 17.7994 25.2962L17.1806 25.0922C17.0485 25.0489 16.9077 25.0392 16.7709 25.064C16.6342 25.0887 16.5057 25.1472 16.3972 25.2341C16.2887 25.321 16.2037 25.4336 16.1496 25.5616C16.0956 25.6897 16.0744 25.8292 16.0879 25.9675C16.3315 28.3102 17.3123 33.3247 21.1697 36.2729C21.98 37.1053 22.971 37.7402 24.066 38.1286C25.1038 38.4859 26.1836 38.7071 27.2783 38.7867C27.4025 38.7904 27.5233 38.7458 27.6153 38.6624C27.7074 38.579 27.7635 38.4632 27.772 38.3392C28.0353 34.2329 27.772 14.4381 37.6458 1.48722L37.7906 1.40168V1.34244C37.9223 1.17792 38.0408 1.00683 38.179 0.835734C38.5805 0.230309 37.8696 0.0921105 37.4483 0.256628Z" fill="#41A935"/>
<path d="M59.3151 35.9899C59.6199 35.6949 59.8462 35.3285 59.9734 34.9238C60.0721 34.3513 59.2757 33.8249 58.8215 33.3445C42.4967 17.5968 18.7534 25.7964 19.517 36.8257C19.6003 38.1637 19.9073 39.4783 20.4254 40.7149C22.4528 46.4598 28.5878 48.2695 31.2471 48.7894C31.3833 48.8173 31.5244 48.8105 31.6573 48.7696C31.7902 48.7288 31.9108 48.6552 32.0078 48.5555C32.1048 48.4559 32.1752 48.3335 32.2125 48.1996C32.2498 48.0657 32.2528 47.9246 32.2213 47.7892L32.0765 47.164C32.9692 47.971 34.0175 48.5869 35.1572 48.9737C35.2558 49.0087 35.3621 49.016 35.4646 48.9948C35.5671 48.9736 35.6618 48.9248 35.7385 48.8535C35.8152 48.7823 35.8709 48.6914 35.8995 48.5908C35.9281 48.4902 35.9287 48.3836 35.901 48.2827L35.5192 46.9205C36.3532 47.5964 37.2973 48.124 38.3102 48.4801C38.4088 48.5151 38.5152 48.5224 38.6177 48.5012C38.7201 48.4801 38.8149 48.4312 38.8916 48.36C38.9683 48.2888 39.0239 48.1979 39.0526 48.0972C39.0812 47.9966 39.0817 47.8901 39.054 47.7892L38.6459 46.3414C39.3975 46.8825 40.2219 47.3145 41.0946 47.6246C41.193 47.6605 41.2994 47.6684 41.402 47.6474C41.5046 47.6265 41.5994 47.5775 41.6758 47.5058C41.7522 47.4342 41.8073 47.3428 41.8348 47.2418C41.8624 47.1408 41.8614 47.0341 41.8319 46.9336L41.4435 45.5517H41.4962C42.1979 46.0263 42.9564 46.411 43.754 46.6968C43.8524 46.7326 43.9588 46.7405 44.0614 46.7196C44.164 46.6986 44.2588 46.6496 44.3352 46.578C44.4116 46.5063 44.4666 46.415 44.4942 46.3139C44.5217 46.2129 44.5207 46.1062 44.4912 46.0058L44.1094 44.6172C44.7572 45.0273 45.4481 45.365 46.1698 45.6241C46.2684 45.6591 46.3747 45.6664 46.4772 45.6452C46.5797 45.624 46.6745 45.5752 46.7512 45.504C46.8278 45.4327 46.8835 45.3419 46.9121 45.2412C46.9408 45.1406 46.9413 45.034 46.9136 44.9331L46.5647 43.7025C47.1457 44.0495 47.7585 44.3404 48.3947 44.5712C48.4936 44.6052 48.5999 44.6115 48.7022 44.5893C48.8044 44.5672 48.8986 44.5175 48.9746 44.4456C49.0506 44.3737 49.1054 44.2824 49.1332 44.1816C49.1609 44.0807 49.1604 43.9742 49.1319 43.8736L48.7633 42.5575H48.8028C49.2281 42.7836 49.6679 42.9814 50.1193 43.1497C50.2177 43.1856 50.3241 43.1935 50.4267 43.1726C50.5293 43.1516 50.6241 43.1026 50.7005 43.031C50.7769 42.9594 50.832 42.868 50.8595 42.7669C50.8871 42.6659 50.886 42.5592 50.8565 42.4588L50.6196 41.6033H50.6788C51.3435 41.6988 52.0159 41.7297 52.6865 41.6954C52.7911 41.6907 52.8924 41.6571 52.9791 41.5983C53.0657 41.5395 53.1343 41.4578 53.1773 41.3623C53.2203 41.2668 53.2359 41.1613 53.2225 41.0574C53.2091 40.9536 53.1671 40.8555 53.1012 40.7741L52.8182 40.4056C53.3669 40.4636 53.9191 40.4812 54.4704 40.4582C54.575 40.4535 54.6763 40.4199 54.7629 40.3611C54.8496 40.3023 54.9182 40.2206 54.9612 40.1251C55.0042 40.0296 55.0198 39.9241 55.0063 39.8203C54.9929 39.7164 54.9509 39.6183 54.8851 39.5369L54.6876 39.2869C55.2232 39.343 55.7624 39.3584 56.3003 39.3329C56.4044 39.3271 56.505 39.2929 56.5911 39.2341C56.6772 39.1753 56.7456 39.0941 56.789 38.9993C56.8323 38.9045 56.849 38.7997 56.8371 38.6961C56.8252 38.5925 56.7853 38.4942 56.7216 38.4116L56.5044 38.1352C56.9429 38.1573 57.3823 38.1573 57.8209 38.1352C57.9262 38.1302 58.028 38.0963 58.1152 38.0371C58.2024 37.978 58.2716 37.8959 58.3151 37.8C58.3587 37.7041 58.3749 37.598 58.3621 37.4934C58.3492 37.3888 58.3077 37.2899 58.2422 37.2074L58.1105 37.0428C58.4968 36.9968 58.878 36.9153 59.2493 36.7993C59.3087 36.7787 59.3614 36.7424 59.4018 36.6943C59.4422 36.6462 59.4689 36.5881 59.4791 36.526C59.4892 36.464 59.4824 36.4004 59.4593 36.3419C59.4362 36.2835 59.3978 36.2323 59.348 36.1939L59.3151 35.9899Z" fill="#70B62E"/>
<path d="M59.7495 34.2394C59.6376 34.1209 59.5192 34.0223 59.4073 33.9038L59.5916 33.6406C59.6283 33.5886 59.6498 33.5275 59.6537 33.464C59.6576 33.4005 59.6438 33.3372 59.6137 33.2812C59.5836 33.2252 59.5385 33.1786 59.4835 33.1468C59.4284 33.1149 59.3655 33.0991 59.3019 33.101L58.6832 33.1404L59.0057 32.6732C59.0468 32.6089 59.07 32.5348 59.0728 32.4586C59.0756 32.3823 59.058 32.3067 59.0217 32.2396C58.9854 32.1725 58.9318 32.1163 58.8665 32.0768C58.8012 32.0373 58.7266 32.016 58.6503 32.0151C58.2712 32.02 57.8929 32.0508 57.518 32.1073L57.8801 31.5808C57.9413 31.4953 57.9774 31.3944 57.9845 31.2895C57.9915 31.1846 57.9691 31.0797 57.9199 30.9868C57.8707 30.8939 57.7966 30.8165 57.7058 30.7633C57.6151 30.7102 57.5113 30.6833 57.4062 30.6858C56.8948 30.6962 56.3846 30.7402 55.879 30.8174L56.2147 29.9027C56.2484 29.8069 56.2561 29.7038 56.2368 29.6041C56.2175 29.5044 56.172 29.4116 56.105 29.3352C56.038 29.2589 55.9519 29.2017 55.8555 29.1696C55.7591 29.1375 55.6559 29.1316 55.5565 29.1525C55.1081 29.2747 54.6683 29.4264 54.2399 29.6066L54.5559 28.7445C54.5919 28.6486 54.6013 28.5448 54.5829 28.444C54.5645 28.3432 54.5191 28.2493 54.4515 28.1723C54.384 28.0953 54.2967 28.0381 54.1992 28.0067C54.1017 27.9754 53.9974 27.9711 53.8976 27.9943C53.3984 28.1287 52.91 28.3003 52.4363 28.5076L52.7589 27.6389C52.7933 27.5434 52.8014 27.4404 52.7823 27.3406C52.7631 27.2409 52.7176 27.1481 52.6502 27.0721C52.5829 26.996 52.4963 26.9395 52.3997 26.9084C52.303 26.8773 52.1997 26.8728 52.1006 26.8953C51.568 27.0379 51.0484 27.225 50.5471 27.4547L50.8631 26.5926C50.8968 26.4968 50.9044 26.3937 50.8851 26.294C50.8659 26.1943 50.8204 26.1015 50.7534 26.0251C50.6864 25.9488 50.6003 25.8916 50.5039 25.8595C50.4075 25.8274 50.3043 25.8215 50.2048 25.8424C49.6291 26.0017 49.0677 26.2086 48.5263 26.461L48.4802 25.3686C48.4755 25.264 48.4421 25.1626 48.3838 25.0756C48.3254 24.9886 48.2443 24.9193 48.1493 24.8752C48.0542 24.831 47.9489 24.8138 47.8448 24.8254C47.7406 24.837 47.6417 24.8769 47.5587 24.9409C47.1796 25.2412 46.819 25.5642 46.4791 25.9082H46.4001L46.3343 24.3288C46.3296 24.2242 46.2962 24.1229 46.2379 24.0359C46.1795 23.9489 46.0984 23.8795 46.0034 23.8354C45.9083 23.7913 45.803 23.7741 45.6989 23.7857C45.5947 23.7973 45.4958 23.8372 45.4128 23.9011C44.8822 24.3159 44.3908 24.7785 43.9448 25.2831H43.8922L43.8197 23.5852C43.815 23.4806 43.7817 23.3792 43.7233 23.2922C43.665 23.2052 43.5839 23.1359 43.4888 23.0918C43.3938 23.0477 43.2885 23.0305 43.1843 23.042C43.0802 23.0536 42.9812 23.0936 42.8982 23.1575C42.2833 23.637 41.7247 24.1845 41.2328 24.7895L41.167 23.322C41.1637 23.2174 41.1315 23.1158 41.074 23.0285C41.0164 22.9411 40.9358 22.8714 40.841 22.8271C40.7462 22.7828 40.641 22.7656 40.537 22.7774C40.433 22.7893 40.3344 22.8297 40.252 22.8943C39.5871 23.4043 38.9899 23.997 38.4747 24.6579H38.4089L38.3431 23.243C38.3398 23.1385 38.3076 23.0369 38.2501 22.9495C38.1925 22.8621 38.1119 22.7924 38.0171 22.7481C37.9223 22.7038 37.8171 22.6866 37.7131 22.6985C37.6091 22.7103 37.5105 22.7508 37.4281 22.8153C36.7075 23.3716 36.0673 24.0249 35.5257 24.7566L35.4599 23.2957C35.4567 23.1911 35.4244 23.0895 35.3669 23.0021C35.3093 22.9148 35.2287 22.8451 35.1339 22.8008C35.0391 22.7564 34.9339 22.7393 34.8299 22.7511C34.726 22.763 34.6273 22.8034 34.545 22.8679C33.6897 23.5208 32.9527 24.3154 32.3661 25.2172L32.3069 23.7892C32.3021 23.6846 32.2688 23.5832 32.2104 23.4962C32.1521 23.4092 32.071 23.3399 31.9759 23.2958C31.8809 23.2517 31.7756 23.2345 31.6714 23.246C31.5673 23.2576 31.4683 23.2976 31.3853 23.3615C30.4187 24.0908 29.6103 25.0087 29.009 26.0596L28.9564 25.4015C28.9458 25.2621 28.9002 25.1276 28.8237 25.0105C28.7472 24.8934 28.6423 24.7976 28.5188 24.7319C28.3953 24.6662 28.2572 24.6329 28.1174 24.6349C27.9775 24.6369 27.8404 24.6742 27.7188 24.7434C25.6651 25.8951 21.4391 28.7708 20.2542 33.4826C19.8108 34.5548 19.6172 35.7137 19.6881 36.8717C19.7656 37.9664 19.9869 39.0461 20.3464 40.0831C20.3894 40.2007 20.4773 40.2965 20.5908 40.3495C20.7043 40.4025 20.8341 40.4085 20.952 40.3661C24.8357 38.9907 42.9311 30.9688 58.7227 34.8777L58.8609 34.9765L58.8938 34.9238L59.5126 35.0752C60.2235 35.2726 60.0655 34.5619 59.7495 34.2394Z" fill="#41A935"/>
</g>
<defs>
<clipPath id="clip0_580_6766">
<rect width="60" height="49" fill="white"/>
</clipPath>
</defs>
</svg>
