<svg width="27" height="27" viewBox="0 0 27 27"  xmlns="http://www.w3.org/2000/svg">
            <path d="M13.4963 8.99808C11.0175 8.99808 8.99452 11.0211 8.99452 13.5C8.99452 15.979 11.0175 18.0019 13.4963 18.0019C15.9753 18.0019 17.9982 15.979 17.9982 13.5C17.9982 11.0211 15.9753 8.99808 13.4963 8.99808ZM26.9985 13.5C26.9985 11.6357 27.0153 9.78837 26.9106 7.92748C26.8059 5.76602 26.3129 3.84773 24.7323 2.26716C23.1484 0.683215 21.2335 0.193509 19.0722 0.0888138C17.2079 -0.0158819 15.3605 0.00100455 13.4997 0.00100455C11.6355 0.00100455 9.78818 -0.0158819 7.92733 0.0888138C5.76591 0.193509 3.84766 0.686592 2.26711 2.26716C0.683202 3.85111 0.193506 5.76602 0.0888121 7.92748C-0.0158816 9.79174 0.00100454 11.6391 0.00100454 13.5C0.00100454 15.3609 -0.0158816 17.2116 0.0888121 19.0725C0.193506 21.234 0.68658 23.1522 2.26711 24.7328C3.85103 26.3168 5.76591 26.8064 7.92733 26.9111C9.79155 27.0158 11.6389 26.999 13.4997 26.999C15.364 26.999 17.2113 27.0158 19.0722 26.9111C21.2335 26.8064 23.1519 26.3135 24.7323 24.7328C26.3163 23.1489 26.8059 21.234 26.9106 19.0725C27.0187 17.2116 26.9985 15.3642 26.9985 13.5ZM13.4963 20.4268C9.66321 20.4268 6.56969 17.3333 6.56969 13.5C6.56969 9.66678 9.66321 6.5732 13.4963 6.5732C17.3294 6.5732 20.423 9.66678 20.423 13.5C20.423 17.3333 17.3294 20.4268 13.4963 20.4268ZM20.7068 7.90722C19.8117 7.90722 19.089 7.18448 19.089 6.2895C19.089 5.39452 19.8117 4.67178 20.7068 4.67178C21.6017 4.67178 22.3244 5.39452 22.3244 6.2895C22.3247 6.50201 22.283 6.7125 22.2018 6.90889C22.1206 7.10528 22.0014 7.28373 21.8512 7.43399C21.7009 7.58427 21.5225 7.70342 21.3261 7.78462C21.1297 7.86582 20.9192 7.90749 20.7068 7.90722Z" ></path>
        </svg>