<svg width="132" height="31" viewBox="0 0 132 31"  xmlns="http://www.w3.org/2000/svg">
<path d="M0.395822 22.976C0.627298 11.3111 0.729635 5.17272 0.700396 4.55606C0.627298 2.90377 0.634608 1.9011 0.722326 1.5504C0.909943 0.780749 1.47767 0.34061 2.4182 0.227634C3.28806 0.128779 5.20079 0.199389 8.15881 0.437111C10.0862 0.590101 11.5432 0.969044 12.5301 1.57159C13.2099 1.9929 13.841 2.76255 14.4209 3.8829C14.9569 4.93264 15.2834 5.94708 15.4004 6.92857C15.588 8.55261 15.4077 10.0943 14.857 11.5488C14.7839 11.7442 14.5232 12.2149 14.0749 12.9563C13.741 13.5024 13.5827 13.9567 13.5973 14.3215C13.5973 14.6157 13.7703 14.9946 14.1187 15.456C14.1748 15.5407 14.3283 15.736 14.5768 16.0444C14.7498 16.268 14.8814 16.4516 14.9667 16.5904C16.6187 19.1395 17.0841 21.8486 16.358 24.7201C15.8779 26.6101 15.0982 27.9846 14.0091 28.8366C12.82 29.7616 10.8488 30.2512 8.09546 30.3077C7.19636 30.3218 5.97319 30.2936 4.42108 30.223C2.52297 30.1265 1.28274 30.07 0.702833 30.0559C0.410442 29.2274 0.310541 26.869 0.395822 22.976ZM10.6173 21.1895C10.5296 19.2713 10.1032 18.1156 9.33325 17.7249C8.84106 17.4731 8.24653 17.3671 7.54966 17.4095C6.81138 17.4519 6.33868 17.6543 6.13644 18.0191C5.9342 18.3839 5.8611 19.3772 5.91958 21.0012C5.97806 22.5711 6.01217 23.4585 6.02923 23.668C6.14375 24.6753 6.38984 25.3344 6.76752 25.6427C8.14419 25.8663 9.13832 25.6568 9.74747 25.0119C10.398 24.3411 10.688 23.0678 10.6173 21.1895ZM7.65931 12.4527C8.20998 12.3962 8.65831 12.2361 9.00675 11.9702C9.75965 11.3676 10.1519 10.212 10.1812 8.50553C10.2104 6.75439 9.78158 5.71171 8.8971 5.37514C8.43415 5.20803 7.95414 5.16566 7.46195 5.25039C6.8528 5.34925 6.40934 5.62698 6.13644 6.09066C6.26802 6.65083 6.22172 7.73588 6.00486 9.3458C5.81725 10.6756 5.93177 11.5794 6.3533 12.0549C6.63107 12.3773 7.06478 12.5091 7.65931 12.4527ZM11.726 23.901C11.5091 23.8727 11.2996 23.9433 11.0949 24.1105C10.5735 24.5318 10.4784 25.0425 10.8123 25.6427C11.2192 25.7557 11.5871 25.6498 11.9209 25.3273C12.2401 24.9907 12.3327 24.6471 12.2036 24.2987C12.1158 24.061 11.9575 23.9292 11.726 23.901ZM12.5959 16.381C12.8566 16.3245 12.9735 16.1927 12.9443 15.9808C12.9443 15.8137 12.8785 15.6937 12.7494 15.6231C12.647 15.5525 12.5179 15.5383 12.3571 15.5807C11.9794 15.6654 11.8576 15.8961 11.9891 16.2727C12.1597 16.388 12.3644 16.4233 12.5959 16.381Z" />
<path d="M30.3374 0.541755C30.9758 0.779477 31.6263 1.41026 32.294 2.43176C32.8739 3.32851 33.3149 4.30058 33.6195 5.35033C33.9387 6.37182 34.041 7.9888 33.924 10.2036C33.7632 13.1999 33.6999 14.9934 33.7291 15.5818C33.8875 18.9993 33.8071 21.6731 33.4903 23.6055C33.0128 26.4064 31.9967 28.2258 30.447 29.066C29.5772 29.5415 28.3101 29.8992 26.6411 30.1369C24.7137 30.417 23.1982 30.3323 22.0968 29.8851C21.5461 29.6756 20.9735 29.1225 20.379 28.2258C19.8137 27.3855 19.4287 26.5805 19.2265 25.8109C19.0389 25.0695 18.9512 24.1233 18.9658 22.9747C18.9804 21.4354 18.9585 20.3974 18.9 19.8655C18.4078 14.2355 18.342 10.3166 18.7051 8.10178C18.7635 7.70872 19.2557 6.4495 20.1841 4.32177C20.7469 3.02018 21.3707 2.09519 22.0505 1.54913C22.8351 0.904222 23.9706 0.499389 25.4642 0.329924C27.6693 0.0804335 29.2921 0.151044 30.3374 0.541755ZM21.3342 8.2077C21.188 8.01234 20.9857 7.92055 20.725 7.93467C20.4935 7.96291 20.2742 8.05941 20.072 8.22888C19.8551 8.41011 19.7163 8.62194 19.6578 8.85967C19.5993 9.11151 19.6651 9.33511 19.8527 9.53282C20.6373 9.53282 21.1319 9.09033 21.3342 8.2077ZM20.9004 23.2054C21.1319 22.8264 21.1027 22.4993 20.8127 22.2192C20.4667 22.2333 20.2036 22.3604 20.0306 22.5981C19.843 22.85 19.821 23.1371 19.9648 23.4596C20.34 23.6667 20.6543 23.5843 20.9004 23.2054ZM22.6402 27.449C22.1187 27.2396 21.6533 27.2396 21.2489 27.449C21.1319 27.8821 21.1831 28.2681 21.3999 28.6047C21.59 28.8848 21.8629 29.0801 22.2259 29.1931C22.5598 29.292 22.8497 29.2708 23.0958 29.1296C23.3711 28.9884 23.4954 28.7294 23.4662 28.3529C23.4369 27.9739 23.1616 27.6726 22.6402 27.449ZM23.683 17.2199C23.5807 18.9711 23.6392 20.5951 23.856 22.0921C24.1314 24.0527 24.6382 25.1165 25.3789 25.2837C26.3365 25.5214 27.0967 25.1989 27.662 24.3163C28.0957 23.6314 28.3589 22.7276 28.4441 21.6072C28.5879 19.7031 28.661 16.874 28.661 13.1222C28.661 12.9268 28.6902 12.0724 28.7463 10.559C28.8048 9.45279 28.7974 8.59135 28.7243 7.97468C28.5197 6.15529 27.7156 5.37857 26.3097 5.64218C25.5422 5.79753 25.0329 6.52481 24.7868 7.8264C24.6991 8.24771 24.626 8.82671 24.57 9.57048C24.4969 10.5096 24.4457 11.0768 24.4164 11.2722C23.9291 15.0428 23.683 17.0246 23.683 17.2199ZM32.1405 25.6626C32.3135 25.4955 32.4377 25.2719 32.5108 24.9894C32.5693 24.7094 32.5449 24.4787 32.445 24.2951C32.3281 24.0998 32.1258 24.0221 31.8359 24.0644C31.4168 24.1209 31.1415 24.4151 31.0099 24.9471C30.8637 25.4931 31.0318 25.8156 31.5094 25.9144C31.7433 25.9568 31.9528 25.8744 32.1405 25.6626Z" />
<path d="M35.9039 22.9734C36.1354 11.3085 36.2377 5.17012 36.2085 4.55346C36.1354 2.90117 36.1427 1.90086 36.2304 1.55016C36.418 0.780505 36.9857 0.340366 37.9263 0.22739C38.7961 0.128535 40.7089 0.199145 43.6669 0.436867C45.5942 0.589857 47.0513 0.9688 48.0381 1.57134C48.718 1.99265 49.349 2.76231 49.929 3.88266C50.465 4.9324 50.7915 5.94684 50.9085 6.92832C51.0961 8.55237 50.9158 10.094 50.3651 11.5486C50.292 11.744 50.0313 12.2147 49.583 12.9561C49.2491 13.5022 49.0883 13.9564 49.1054 14.3212C49.1054 14.6155 49.2784 14.9944 49.6268 15.4557C49.6853 15.5404 49.8364 15.7358 50.0825 16.0441C50.2555 16.2677 50.387 16.4513 50.4747 16.5902C52.1268 19.1392 52.5922 21.8483 51.866 24.7198C51.386 26.6098 50.6039 27.9844 49.5172 28.8364C48.3281 29.7614 46.3569 30.251 43.6035 30.3075C42.7044 30.3216 41.4788 30.2933 39.9291 30.2227C38.0286 30.1262 36.7908 30.0697 36.2109 30.0556C35.9185 29.2248 35.8186 26.8664 35.9039 22.9734ZM46.1254 21.1869C46.0401 19.2687 45.6113 18.113 44.8438 17.7223C44.3516 17.4705 43.757 17.3646 43.0602 17.4069C42.3194 17.4493 41.8492 17.6517 41.6469 18.0165C41.4447 18.3813 41.3716 19.3746 41.4301 20.9986C41.4861 22.5685 41.5227 23.4559 41.5397 23.6654C41.6543 24.6727 41.9028 25.3318 42.278 25.6401C43.6547 25.8637 44.6488 25.6542 45.2555 25.0093C45.9061 24.3385 46.1961 23.0652 46.1254 21.1869ZM43.1674 12.4501C43.7181 12.3936 44.1688 12.2335 44.5148 11.9676C45.2677 11.365 45.66 10.2094 45.6893 8.50294C45.7185 6.7518 45.2897 5.70912 44.4076 5.37254C43.9447 5.20543 43.4646 5.16306 42.9725 5.2478C42.3633 5.34665 41.9223 5.62438 41.6469 6.08806C41.7785 6.64824 41.7347 7.73328 41.5178 9.3432C41.3278 10.673 41.4447 11.5768 41.8662 12.0523C42.1391 12.3747 42.5729 12.5066 43.1674 12.4501ZM47.2341 23.8984C47.0172 23.8701 46.8077 23.9407 46.6054 24.1079C46.084 24.5292 45.989 25.0399 46.3228 25.6401C46.7297 25.7531 47.0976 25.6472 47.4314 25.3247C47.7506 24.9881 47.8432 24.6445 47.7141 24.2961C47.6239 24.0584 47.4655 23.9266 47.2341 23.8984ZM48.1039 16.3784C48.3647 16.3219 48.4816 16.1901 48.4524 15.9782C48.4524 15.8111 48.3866 15.6911 48.2574 15.6205C48.1551 15.5499 48.026 15.5357 47.8652 15.5781C47.4875 15.6628 47.3656 15.8935 47.4948 16.2701C47.6678 16.3854 47.87 16.4207 48.1039 16.3784ZM49.1029 9.78334C49.4221 9.71273 49.7194 9.48913 49.9947 9.11254C50.2701 8.71948 50.3773 8.38525 50.3212 8.10281C50.2628 7.78036 49.9606 7.66267 49.4075 7.74505C49.1322 7.78742 48.8715 7.94041 48.6254 8.20637C48.3354 8.51471 48.2404 8.83716 48.3427 9.17138C48.4865 9.64918 48.7399 9.85395 49.1029 9.78334Z" />
<path d="M70.9517 1.46506C72.6206 2.59182 73.5618 4.19272 73.7813 6.27333C73.891 7.38336 73.7928 8.10293 73.4752 8.43762C73.2673 8.64958 72.6495 8.80019 71.61 8.89501C70.5533 9.001 69.8661 8.93964 69.5312 8.71652C69.2829 8.56591 69.075 8.15871 68.9191 7.50608C68.7459 6.74746 68.613 6.3068 68.5206 6.18408C68.1395 5.65417 67.5852 5.38642 66.846 5.38642C66.0722 5.36969 65.6218 5.6709 65.4774 6.27333C65.4312 6.52992 65.4601 6.8144 65.5698 7.11562C65.7084 7.47819 65.7835 7.72362 65.7835 7.84634C65.8008 8.01368 65.7604 8.29258 65.668 8.68863C65.5872 9.04004 65.5641 9.31337 65.5987 9.5086C65.6449 9.87117 65.8874 10.2895 66.3321 10.7581C67.2156 11.7175 67.6371 12.1693 67.6083 12.1247C68.4744 13.218 69.1789 14.0714 69.7333 14.6739C71.5696 16.7266 72.788 18.6064 73.3886 20.3244C73.6716 21.1779 73.7986 22.2991 73.764 23.6991C73.7178 25.2498 73.4579 26.4101 72.9844 27.1854C72.482 27.9775 71.5581 28.6357 70.2241 29.1656C68.8267 29.729 67.4177 29.941 66.0029 29.8015C64.1955 29.6342 62.6421 28.8923 61.3371 27.5703C59.9512 26.1423 59.2871 24.4522 59.3333 22.4887C59.3449 21.4121 59.5123 20.7595 59.8299 20.5308C60.1591 20.3021 60.904 20.2408 62.0705 20.3467C63.2196 20.4527 63.9241 20.6424 64.1955 20.9157C64.4438 21.189 64.6113 21.8417 64.6921 22.8736C64.7556 23.7549 65.0617 24.3072 65.6103 24.5359C66.6497 24.9431 67.4754 24.759 68.0876 23.9669C68.6823 23.2083 68.8036 22.26 68.4398 21.1165C68.3301 20.8153 68.0529 20.4639 67.614 20.0678C66.9673 19.5045 66.5688 19.1363 66.4129 18.9522C66.2397 18.7682 66.026 18.4725 65.7777 18.0653C65.5236 17.6525 65.3273 17.3681 65.1887 17.2007C64.9058 16.866 64.4496 16.4644 63.8201 15.9959C63.1618 15.5106 62.7114 15.1313 62.4747 14.8579C61.4526 13.7368 60.6961 12.3813 60.211 10.8027C59.7375 9.25201 59.6047 7.73478 59.8068 6.24544C60.0147 4.67801 60.5517 3.38391 61.4352 2.35197C62.3938 1.2252 63.6873 0.550259 65.3042 0.321559C67.4466 0.00918837 69.3291 0.388497 70.9517 1.46506ZM62.6017 11.0091C63.0117 10.6131 63.2311 10.111 63.26 9.5086C62.6768 9.49187 62.1802 9.609 61.7759 9.84886C61.2909 10.1668 61.0772 10.6354 61.1407 11.2601C61.672 11.5055 62.1628 11.4219 62.6017 11.0091ZM65.5756 16.1353C65.5121 16.3919 65.5698 16.7043 65.7373 17.0724C65.9105 17.435 66.1473 17.7083 66.4418 17.8924C66.7883 18.1044 67.1405 18.1434 67.5043 18.004C67.8508 17.6414 67.8104 17.1673 67.3888 16.5927C66.9788 16.0628 66.5746 15.7783 66.1877 15.7504C65.8412 15.717 65.6391 15.8508 65.5756 16.1353ZM70.6457 24.045C70.5822 23.2864 70.4205 22.829 70.1722 22.6784C69.9701 22.5724 69.7275 22.6895 69.4388 23.0186C68.792 23.8107 68.486 24.6028 68.5206 25.4116C69.1385 25.2722 69.843 24.8203 70.6457 24.045Z" />
<path d="M87.086 8.85059C87.086 8.30394 87.0687 7.57322 87.0398 6.664C87.011 5.38662 86.9936 4.63359 86.9936 4.41047C86.9763 4.15388 86.9532 3.78573 86.9243 3.31717C86.8724 2.81515 86.8551 2.45815 86.8551 2.24619C86.8262 1.44295 86.9417 0.812629 87.2073 0.355229C87.7443 0.187888 88.4315 0.14326 89.2804 0.221353C90.1639 0.310602 90.7875 0.494679 91.1687 0.768003C91.3592 20.0736 91.4574 29.6288 91.4747 29.428C90.8164 29.7627 89.9733 29.9077 88.9512 29.8631C87.9465 29.8017 87.2189 29.5898 86.78 29.2216C86.4797 28.9818 86.0928 27.9387 85.6251 26.0979C85.498 25.6126 85.3248 25.0492 85.1054 24.4133C84.8051 23.5487 84.6319 23.03 84.5857 22.8626C84.4586 22.4833 84.2854 21.8921 84.0659 21.0832C83.8638 20.3246 83.7022 19.7612 83.5924 19.3987C83.1998 18.1994 82.7262 17.3404 82.1777 16.8272C81.8485 16.9332 81.6579 17.2009 81.6118 17.6249C81.5829 17.7476 81.5656 17.9316 81.5656 18.1715C81.5656 18.4448 81.5598 18.6345 81.5425 18.7405C81.4789 19.3596 81.3808 21.1223 81.2364 24.0285C81.1094 26.427 80.9361 28.1953 80.7167 29.3388C80.324 29.5507 79.7177 29.6734 78.9035 29.7013C78.147 29.7292 77.5349 29.679 77.0614 29.5396C76.7496 29.0822 76.5821 28.4909 76.5648 27.7602C76.5648 27.5315 76.5706 27.1968 76.5879 26.7561C76.6168 26.2876 76.6341 25.9306 76.6341 25.6851C76.6341 24.893 76.5648 23.6547 76.4262 21.9702C76.2818 20.3135 76.2125 19.0696 76.2125 18.2329C76.2125 17.887 76.2645 17.1675 76.38 16.0909C76.4724 15.2096 76.4897 14.5123 76.4262 13.9935C76.4089 13.8262 76.3165 13.5361 76.1433 13.1289C75.9873 12.7664 75.9065 12.4763 75.9065 12.2644C75.9065 12.1137 75.9931 11.846 76.1663 11.4667C76.3685 11.0428 76.4955 10.736 76.5475 10.5575C76.6283 10.1001 76.6572 8.68883 76.6399 6.31816C76.611 2.09558 76.5359 0.104216 76.432 0.34965C77.0614 0.182308 78.1759 0.159995 79.7812 0.282712C81.4327 0.405429 82.4087 0.600663 82.7089 0.873987C82.8822 1.02459 83.1593 2.00075 83.5347 3.7913C84.5106 8.3653 85.4923 11.1599 86.4855 12.1751C86.8781 11.7065 87.086 10.6021 87.086 8.85059ZM78.6898 5.96116C78.8169 5.7492 78.8457 5.48145 78.7822 5.1635C78.6263 4.37142 78.2221 3.94749 77.5811 3.88613C77.2058 4.23755 77.0614 4.72842 77.1596 5.36989C77.252 5.99463 77.5349 6.31258 78.0084 6.32374C78.3203 6.32374 78.5455 6.20102 78.6898 5.96116ZM77.8179 2.22387C77.8352 1.90592 77.7255 1.75532 77.4887 1.76647C77.3328 1.87246 77.252 2.06211 77.252 2.33543C77.2635 2.60876 77.379 2.75936 77.5811 2.79283C77.7197 2.71474 77.8006 2.52509 77.8179 2.22387ZM80.4107 15.4829C80.6936 15.1203 80.7225 14.7577 80.503 14.3896C80.0815 14.4063 79.7408 14.5904 79.4925 14.9362C79.2557 15.2709 79.1749 15.6279 79.2557 16.0072C79.7408 16.0072 80.1277 15.8343 80.4107 15.4829ZM80.8322 8.57727C80.6416 8.47128 80.428 8.42666 80.197 8.43782C79.6138 8.47128 79.3712 8.80039 79.4636 9.44186C79.7293 9.71519 80.0873 9.79886 80.5261 9.69287C80.9477 9.58689 81.1498 9.36377 81.1383 9.03467C81.1267 8.85059 81.0228 8.69998 80.8322 8.57727ZM82.4837 10.312C82.5646 10.2674 82.6339 10.2507 82.6974 10.2674C82.7262 10.0554 82.6974 9.88253 82.605 9.74308H82.2758C82.2123 9.82117 82.1834 9.92715 82.1834 10.061C82.1834 10.2005 82.2123 10.2953 82.2758 10.3567C82.3509 10.3734 82.4202 10.3567 82.4837 10.312Z" />
<path d="M107.178 29.8642C106.312 29.8921 105.677 29.7973 105.267 29.5686C104.782 29.312 104.435 28.6594 104.227 27.6107C103.991 26.4114 103.748 25.6639 103.494 25.3795C102.674 25.0615 101.825 24.8496 100.947 24.7436C99.7982 24.6097 98.9898 24.7157 98.522 25.0615C98.0947 25.3962 97.8464 26.1046 97.7656 27.1812C97.6847 28.3358 97.4942 29.1 97.1766 29.4793C95.3345 29.92 93.9544 29.92 93.0247 29.4793C93.1517 27.7167 93.4635 25.3181 93.9659 22.2781C94.578 18.6468 94.9591 16.2036 95.0977 14.9429C95.7907 9.09715 96.6568 4.37812 97.6905 0.797012C97.9908 0.568312 98.7819 0.40097 100.075 0.294987C102.558 0.110912 104.083 0.250362 104.649 0.707762C104.949 0.953196 105.174 1.65045 105.33 2.80511C105.376 3.16768 105.423 3.64181 105.475 4.21635C105.521 4.82436 105.561 5.18693 105.59 5.30965C105.746 6.61491 105.983 8.24371 106.295 10.1849C106.641 12.232 106.884 13.8218 107.028 14.9485C107.455 18.1838 107.663 19.7847 107.663 19.7568C107.819 20.1194 108.102 20.4094 108.512 20.6214C108.905 20.8334 109.141 21.0453 109.217 21.2629C109.309 21.5976 109.234 22.1386 108.98 22.8805C108.668 23.7897 108.5 24.42 108.483 24.7715C108.454 25.5133 108.547 26.3835 108.766 27.3653C109.003 28.386 109.113 29.061 109.095 29.3957C108.714 29.6746 108.073 29.8363 107.178 29.8642ZM96.1371 18.9312C96.166 18.6914 96.1371 18.4962 96.0447 18.3623C95.6809 18.2563 95.4673 18.3958 95.4038 18.7751C95.3864 18.9257 95.4095 19.0651 95.4731 19.1878C95.5539 19.3106 95.6694 19.3719 95.8253 19.3719C96.0043 19.3496 96.1083 19.2046 96.1371 18.9312ZM102.27 16.8562C101.738 12.6671 101.352 10.3578 101.115 9.92827H100.901C100.901 9.85018 100.866 9.81671 100.809 9.81671C100.15 10.7761 99.7231 12.3436 99.5326 14.5302C99.4691 15.1828 99.4171 16.1088 99.3709 17.308C99.3247 18.5854 99.2843 19.4667 99.2554 19.952C99.6134 20.3146 100.156 20.4819 100.884 20.4541C101.577 20.4094 102.039 20.2086 102.275 19.8628C102.472 19.5281 102.472 18.5296 102.27 16.8562ZM102.934 2.43696C103.454 2.58757 103.852 2.51505 104.135 2.20826C104.198 1.85684 104.123 1.57236 103.921 1.34366C103.748 1.14843 103.523 1.02571 103.24 0.981089C102.94 0.953199 102.691 0.997823 102.483 1.12054C102.247 1.25999 102.137 1.45522 102.154 1.71181C102.166 2.04092 102.426 2.28077 102.934 2.43696ZM103.095 23.0534C102.622 23.0088 102.414 23.2152 102.46 23.667C102.934 23.7172 103.142 23.5108 103.095 23.0534ZM103.615 13.6433C103.344 13.3253 103.113 13.3253 102.911 13.6433C102.691 13.95 102.714 14.2122 102.98 14.4409C103.402 14.4577 103.615 14.1899 103.615 13.6433ZM105.169 11.73C105.532 11.5013 105.711 11.228 105.711 10.91C105.694 10.6534 105.573 10.4247 105.336 10.2239C105.099 10.0287 104.874 9.96732 104.655 10.0398C104.401 10.1012 104.262 10.3299 104.233 10.7204C104.193 11.228 104.51 11.5626 105.169 11.73ZM105.665 24.1244C105.838 23.8344 105.879 23.5164 105.781 23.1706C105.342 23.1092 105.001 23.2542 104.77 23.6056C104.533 23.9571 104.528 24.275 104.747 24.5595C105.169 24.6041 105.48 24.4591 105.665 24.1244ZM105.267 13.5317C105.359 13.5484 105.4 13.5875 105.388 13.6433H105.602C105.602 13.554 105.631 13.515 105.694 13.5317V13.3253C105.613 13.3253 105.584 13.2918 105.602 13.2361H105.388C105.371 13.3141 105.33 13.342 105.267 13.3253V13.5317Z" />
<path d="M116.021 22.3444C115.819 26.7511 115.675 29.1106 115.6 29.4285C115.161 29.7186 114.433 29.8636 113.429 29.8636C112.441 29.8636 111.725 29.7186 111.28 29.4285C111.044 26.7065 110.928 22.5954 110.928 17.0787C110.911 10.7923 110.859 6.55855 110.761 4.38869C110.668 2.55351 110.767 1.41559 111.067 0.991657C111.413 0.472898 112.135 0.216309 113.238 0.216309C114.197 0.216309 114.982 0.378072 115.594 0.696021C116.177 8.53876 116.322 15.7567 116.021 22.3444ZM112.724 5.57681C112.453 5.28675 112.193 5.28675 111.945 5.57681C111.673 5.87803 111.69 6.14577 111.991 6.37447C112.522 6.40794 112.77 6.14019 112.724 5.57681ZM111.8 19.0924C111.817 19.4996 111.979 19.7227 112.297 19.7506C112.707 19.6725 112.909 19.3881 112.909 18.886C112.909 18.384 112.637 18.172 112.106 18.2501C111.869 18.4119 111.771 18.6964 111.8 19.0924ZM112.106 26.6284C112.326 26.6618 112.43 26.4945 112.412 26.1263H112.106V26.6284Z" />
<path d="M131.634 27.1472C131.761 28.101 131.68 28.7815 131.397 29.1776C131.068 29.635 129.74 29.8637 127.412 29.8637C126.939 29.8637 125.31 29.7633 122.533 29.568C119.923 29.384 118.491 29.1218 118.242 28.7704C118.023 28.4803 117.936 27.5376 117.983 25.9479C118 25.5686 118.029 24.9159 118.081 23.99C118.127 23.2146 118.15 22.6792 118.15 22.3724C118.15 21.3516 118.219 19.7061 118.364 17.4302C118.491 15.1655 118.554 13.4642 118.554 12.3263C118.554 12.3598 118.45 10.2903 118.248 6.12909C118.248 5.97848 118.202 5.49319 118.104 4.67322C118.023 3.89787 117.977 3.27871 117.959 2.80457C117.931 1.28734 118.231 0.456211 118.854 0.322338C119.276 0.23309 119.986 0.221933 120.98 0.300026C122.048 0.378118 122.7 0.511994 122.937 0.712804C123.203 0.941504 123.376 1.63876 123.457 2.81015C123.474 3.1281 123.486 3.61339 123.503 4.26602C123.52 4.87402 123.532 5.29796 123.549 5.54339C123.567 5.64937 123.567 7.38972 123.549 10.7589C123.549 11.6402 123.572 13.308 123.618 15.768C123.647 18.0326 123.659 19.6391 123.642 20.5985C123.642 20.7826 123.636 21.1285 123.618 21.6472C123.584 22.0879 123.572 22.4281 123.572 22.6736C123.601 23.4154 123.769 23.9119 124.069 24.1518C124.606 24.6092 125.72 24.7765 127.418 24.6538C129.335 24.5311 130.635 24.5924 131.31 24.8379C131.304 24.7932 131.414 25.5686 131.634 27.1472ZM120.171 3.84209C120.027 3.64686 119.848 3.54645 119.628 3.54645C119.438 3.54645 119.264 3.61339 119.109 3.75284C118.953 3.88671 118.866 4.04847 118.849 4.23255C118.849 4.42778 118.953 4.59512 119.155 4.73458C119.784 4.81825 120.125 4.52261 120.171 3.84209ZM119.605 19.2877C119.432 19.3044 119.276 19.3993 119.132 19.5833C118.785 20.0073 118.791 20.4089 119.155 20.7882C119.94 20.8942 120.281 20.4981 120.171 19.6056C119.998 19.3937 119.807 19.2877 119.605 19.2877ZM119.039 16.7832C119.01 17.3912 119.178 17.737 119.559 17.8318C120.061 17.7872 120.321 17.4581 120.339 16.8501C120.367 16.2421 120.148 15.8851 119.68 15.7791C119.282 15.8237 119.068 16.1584 119.039 16.7832ZM119.911 7.01042C120.038 6.81519 120.021 6.61438 119.865 6.41914C119.599 6.40241 119.403 6.4805 119.276 6.64785C119.149 6.81519 119.143 6.99926 119.253 7.19449C119.553 7.28374 119.773 7.22238 119.911 7.01042ZM122.106 10.9485C122.013 11.0378 121.979 11.1326 122.013 11.2218C122.03 11.3111 122.082 11.3669 122.175 11.3836C122.256 11.4003 122.325 11.3669 122.389 11.2944C122.452 11.2163 122.458 11.1047 122.412 10.9541H122.106V10.9485Z" />
</svg>
