<svg width="132" height="31" viewBox="0 0 132 31"  xmlns="http://www.w3.org/2000/svg">
<path d="M0.21589 22.976C0.447367 11.3111 0.549704 5.17272 0.520465 4.55606C0.447367 2.90377 0.454677 1.9011 0.542394 1.5504C0.730012 0.780749 1.29774 0.34061 2.23826 0.227634C3.10813 0.128779 5.02085 0.199389 7.97888 0.437111C9.90623 0.590101 11.3633 0.969044 12.3501 1.57159C13.0299 1.9929 13.661 2.76255 14.2409 3.8829C14.777 4.93264 15.1035 5.94708 15.2204 6.92857C15.4081 8.55261 15.2277 10.0943 14.6771 11.5488C14.604 11.7442 14.3433 12.2149 13.8949 12.9563C13.5611 13.5024 13.4027 13.9567 13.4174 14.3215C13.4174 14.6157 13.5904 14.9946 13.9388 15.456C13.9948 15.5407 14.1483 15.736 14.3969 16.0444C14.5699 16.268 14.7014 16.4516 14.7867 16.5904C16.4387 19.1395 16.9041 21.8486 16.178 24.7201C15.698 26.6101 14.9183 27.9846 13.8291 28.8366C12.6401 29.7616 10.6689 30.2512 7.91553 30.3077C7.01643 30.3218 5.79326 30.2936 4.24114 30.223C2.34304 30.1265 1.10281 30.07 0.522901 30.0559C0.23051 29.2274 0.13061 26.869 0.21589 22.976ZM10.4374 21.1895C10.3497 19.2713 9.92328 18.1156 9.15332 17.7249C8.66113 17.4731 8.0666 17.3671 7.36973 17.4095C6.63144 17.4519 6.15874 17.6543 5.95651 18.0191C5.75427 18.3839 5.68117 19.3772 5.73965 21.0012C5.79813 22.5711 5.83224 23.4585 5.8493 23.668C5.96382 24.6753 6.20991 25.3344 6.58759 25.6427C7.96426 25.8663 8.95839 25.6568 9.56754 25.0119C10.2181 24.3411 10.5081 23.0678 10.4374 21.1895ZM7.47938 12.4527C8.03005 12.3962 8.47838 12.2361 8.82682 11.9702C9.57972 11.3676 9.97201 10.212 10.0013 8.50553C10.0305 6.75439 9.60165 5.71171 8.71717 5.37514C8.25422 5.20803 7.77421 5.16566 7.28202 5.25039C6.67287 5.34925 6.22941 5.62698 5.95651 6.09066C6.08808 6.65083 6.04179 7.73588 5.82493 9.3458C5.63731 10.6756 5.75183 11.5794 6.17336 12.0549C6.45114 12.3773 6.88485 12.5091 7.47938 12.4527ZM11.5461 23.901C11.3292 23.8727 11.1197 23.9433 10.915 24.1105C10.3935 24.5318 10.2985 25.0425 10.6323 25.6427C11.0392 25.7557 11.4072 25.6498 11.741 25.3273C12.0602 24.9907 12.1528 24.6471 12.0236 24.2987C11.9359 24.061 11.7775 23.9292 11.5461 23.901ZM12.4159 16.381C12.6766 16.3245 12.7936 16.1927 12.7644 15.9808C12.7644 15.8137 12.6986 15.6937 12.5694 15.6231C12.4671 15.5525 12.3379 15.5383 12.1771 15.5807C11.7995 15.6654 11.6776 15.8961 11.8092 16.2727C11.9798 16.388 12.1844 16.4233 12.4159 16.381Z" />
<path d="M30.1579 0.541755C30.7963 0.779477 31.4469 1.41026 32.1145 2.43176C32.6944 3.32851 33.1355 4.30058 33.44 5.35033C33.7592 6.37182 33.8616 7.9888 33.7446 10.2036C33.5838 13.1999 33.5204 14.9934 33.5497 15.5818C33.7081 18.9993 33.6276 21.6731 33.3109 23.6055C32.8333 26.4064 31.8173 28.2258 30.2676 29.066C29.3977 29.5415 28.1307 29.8992 26.4616 30.1369C24.5343 30.417 23.0187 30.3323 21.9174 29.8851C21.3667 29.6756 20.7941 29.1225 20.1996 28.2258C19.6343 27.3855 19.2493 26.5805 19.0471 25.8109C18.8594 25.0695 18.7717 24.1233 18.7863 22.9747C18.801 21.4354 18.779 20.3974 18.7206 19.8655C18.2284 14.2355 18.1626 10.3166 18.5256 8.10178C18.5841 7.70872 19.0763 6.4495 20.0046 4.32177C20.5675 3.02018 21.1913 2.09519 21.8711 1.54913C22.6557 0.904222 23.7911 0.499389 25.2847 0.329924C27.4899 0.0804335 29.1126 0.151044 30.1579 0.541755ZM21.1547 8.2077C21.0085 8.01234 20.8063 7.92055 20.5456 7.93467C20.3141 7.96291 20.0948 8.05941 19.8926 8.22888C19.6757 8.41011 19.5368 8.62194 19.4783 8.85967C19.4199 9.11151 19.4856 9.33511 19.6733 9.53282C20.4578 9.53282 20.9525 9.09033 21.1547 8.2077ZM20.721 23.2054C20.9525 22.8264 20.9232 22.4993 20.6333 22.2192C20.2873 22.2333 20.0241 22.3604 19.8511 22.5981C19.6635 22.85 19.6416 23.1371 19.7853 23.4596C20.1606 23.6667 20.4749 23.5843 20.721 23.2054ZM22.4607 27.449C21.9393 27.2396 21.4739 27.2396 21.0694 27.449C20.9525 27.8821 21.0036 28.2681 21.2205 28.6047C21.4106 28.8848 21.6835 29.0801 22.0465 29.1931C22.3803 29.292 22.6703 29.2708 22.9164 29.1296C23.1917 28.9884 23.316 28.7294 23.2867 28.3529C23.2575 27.9739 22.9822 27.6726 22.4607 27.449ZM23.5036 17.2199C23.4013 18.9711 23.4597 20.5951 23.6766 22.0921C23.9519 24.0527 24.4587 25.1165 25.1995 25.2837C26.157 25.5214 26.9173 25.1989 27.4826 24.3163C27.9163 23.6314 28.1794 22.7276 28.2647 21.6072C28.4085 19.7031 28.4816 16.874 28.4816 13.1222C28.4816 12.9268 28.5108 12.0724 28.5668 10.559C28.6253 9.45279 28.618 8.59135 28.5449 7.97468C28.3402 6.15529 27.5362 5.37857 26.1302 5.64218C25.3627 5.79753 24.8535 6.52481 24.6074 7.8264C24.5197 8.24771 24.4466 8.82671 24.3905 9.57048C24.3174 10.5096 24.2662 11.0768 24.237 11.2722C23.7497 15.0428 23.5036 17.0246 23.5036 17.2199ZM31.961 25.6626C32.134 25.4955 32.2583 25.2719 32.3314 24.9894C32.3899 24.7094 32.3655 24.4787 32.2656 24.2951C32.1486 24.0998 31.9464 24.0221 31.6564 24.0644C31.2373 24.1209 30.962 24.4151 30.8304 24.9471C30.6842 25.4931 30.8524 25.8156 31.3299 25.9144C31.5638 25.9568 31.7734 25.8744 31.961 25.6626Z" />
<path d="M35.7237 22.9734C35.9552 11.3085 36.0575 5.17012 36.0283 4.55346C35.9552 2.90117 35.9625 1.90086 36.0502 1.55016C36.2378 0.780505 36.8056 0.340366 37.7461 0.22739C38.6159 0.128535 40.5287 0.199145 43.4867 0.436867C45.4141 0.589857 46.8711 0.9688 47.858 1.57134C48.5378 1.99265 49.1689 2.76231 49.7488 3.88266C50.2848 4.9324 50.6113 5.94684 50.7283 6.92832C50.9159 8.55237 50.7356 10.094 50.1849 11.5486C50.1118 11.744 49.8511 12.2147 49.4028 12.9561C49.069 13.5022 48.9081 13.9564 48.9252 14.3212C48.9252 14.6155 49.0982 14.9944 49.4466 15.4557C49.5051 15.5404 49.6562 15.7358 49.9023 16.0441C50.0753 16.2677 50.2069 16.4513 50.2946 16.5902C51.9466 19.1392 52.412 21.8483 51.6859 24.7198C51.2059 26.6098 50.4237 27.9844 49.337 28.8364C48.1479 29.7614 46.1767 30.251 43.4234 30.3075C42.5243 30.3216 41.2986 30.2933 39.749 30.2227C37.8484 30.1262 36.6106 30.0697 36.0307 30.0556C35.7383 29.2248 35.6384 26.8664 35.7237 22.9734ZM45.9452 21.1869C45.86 19.2687 45.4311 18.113 44.6636 17.7223C44.1714 17.4705 43.5769 17.3646 42.88 17.4069C42.1393 17.4493 41.669 17.6517 41.4668 18.0165C41.2645 18.3813 41.1914 19.3746 41.2499 20.9986C41.306 22.5685 41.3425 23.4559 41.3596 23.6654C41.4741 24.6727 41.7226 25.3318 42.0978 25.6401C43.4745 25.8637 44.4687 25.6542 45.0754 25.0093C45.7259 24.3385 46.0159 23.0652 45.9452 21.1869ZM42.9872 12.4501C43.5379 12.3936 43.9887 12.2335 44.3346 11.9676C45.0876 11.365 45.4798 10.2094 45.5091 8.50294C45.5383 6.7518 45.1095 5.70912 44.2274 5.37254C43.7645 5.20543 43.2845 5.16306 42.7923 5.2478C42.1831 5.34665 41.7421 5.62438 41.4668 6.08806C41.5983 6.64824 41.5545 7.73328 41.3376 9.3432C41.1476 10.673 41.2645 11.5768 41.6861 12.0523C41.959 12.3747 42.3927 12.5066 42.9872 12.4501ZM47.0539 23.8984C46.837 23.8701 46.6275 23.9407 46.4253 24.1079C45.9038 24.5292 45.8088 25.0399 46.1426 25.6401C46.5495 25.7531 46.9174 25.6472 47.2513 25.3247C47.5705 24.9881 47.663 24.6445 47.5339 24.2961C47.4438 24.0584 47.2854 23.9266 47.0539 23.8984ZM47.9238 16.3784C48.1845 16.3219 48.3014 16.1901 48.2722 15.9782C48.2722 15.8111 48.2064 15.6911 48.0773 15.6205C47.9749 15.5499 47.8458 15.5357 47.685 15.5781C47.3073 15.6628 47.1855 15.8935 47.3146 16.2701C47.4876 16.3854 47.6898 16.4207 47.9238 16.3784ZM48.9228 9.78334C49.242 9.71273 49.5392 9.48913 49.8146 9.11254C50.0899 8.71948 50.1971 8.38525 50.1411 8.10281C50.0826 7.78036 49.7805 7.66267 49.2273 7.74505C48.952 7.78742 48.6913 7.94041 48.4452 8.20637C48.1552 8.51471 48.0602 8.83716 48.1625 9.17138C48.3063 9.64918 48.5597 9.85395 48.9228 9.78334Z" />
<path d="M70.772 1.46506C72.4409 2.59182 73.3822 4.19272 73.6016 6.27333C73.7113 7.38336 73.6131 8.10293 73.2955 8.43762C73.0877 8.64958 72.4698 8.80019 71.4303 8.89501C70.3736 9.001 69.6864 8.93964 69.3515 8.71652C69.1032 8.56591 68.8953 8.15871 68.7394 7.50608C68.5662 6.74746 68.4334 6.3068 68.341 6.18408C67.9598 5.65417 67.4055 5.38642 66.6663 5.38642C65.8925 5.36969 65.4421 5.6709 65.2978 6.27333C65.2516 6.52992 65.2804 6.8144 65.3902 7.11562C65.5287 7.47819 65.6038 7.72362 65.6038 7.84634C65.6211 8.01368 65.5807 8.29258 65.4883 8.68863C65.4075 9.04004 65.3844 9.31337 65.419 9.5086C65.4652 9.87117 65.7078 10.2895 66.1524 10.7581C67.0359 11.7175 67.4574 12.1693 67.4286 12.1247C68.2948 13.218 68.9993 14.0714 69.5536 14.6739C71.3899 16.7266 72.6084 18.6064 73.2089 20.3244C73.4919 21.1779 73.6189 22.2991 73.5843 23.6991C73.5381 25.2498 73.2782 26.4101 72.8047 27.1854C72.3023 27.9775 71.3784 28.6357 70.0445 29.1656C68.647 29.729 67.238 29.941 65.8232 29.8015C64.0158 29.6342 62.4624 28.8923 61.1574 27.5703C59.7715 26.1423 59.1074 24.4522 59.1536 22.4887C59.1652 21.4121 59.3326 20.7595 59.6502 20.5308C59.9794 20.3021 60.7243 20.2408 61.8908 20.3467C63.0399 20.4527 63.7444 20.6424 64.0158 20.9157C64.2641 21.189 64.4316 21.8417 64.5124 22.8736C64.5759 23.7549 64.882 24.3072 65.4306 24.5359C66.47 24.9431 67.2958 24.759 67.9079 23.9669C68.5026 23.2083 68.6239 22.26 68.2601 21.1165C68.1504 20.8153 67.8732 20.4639 67.4343 20.0678C66.7876 19.5045 66.3891 19.1363 66.2332 18.9522C66.06 18.7682 65.8463 18.4725 65.598 18.0653C65.344 17.6525 65.1476 17.3681 65.009 17.2007C64.7261 16.866 64.2699 16.4644 63.6405 15.9959C62.9822 15.5106 62.5317 15.1313 62.295 14.8579C61.2729 13.7368 60.5164 12.3813 60.0314 10.8027C59.5578 9.25201 59.425 7.73478 59.6271 6.24544C59.835 4.67801 60.3721 3.38391 61.2556 2.35197C62.2141 1.2252 63.5076 0.550259 65.1245 0.321559C67.2669 0.00918837 69.1494 0.388497 70.772 1.46506ZM62.422 11.0091C62.832 10.6131 63.0515 10.111 63.0803 9.5086C62.4971 9.49187 62.0005 9.609 61.5963 9.84886C61.1112 10.1668 60.8975 10.6354 60.9611 11.2601C61.4923 11.5055 61.9832 11.4219 62.422 11.0091ZM65.3959 16.1353C65.3324 16.3919 65.3902 16.7043 65.5576 17.0724C65.7308 17.435 65.9676 17.7083 66.2621 17.8924C66.6086 18.1044 66.9608 18.1434 67.3246 18.004C67.6711 17.6414 67.6307 17.1673 67.2091 16.5927C66.7991 16.0628 66.3949 15.7783 66.008 15.7504C65.6616 15.717 65.4594 15.8508 65.3959 16.1353ZM70.466 24.045C70.4025 23.2864 70.2408 22.829 69.9925 22.6784C69.7904 22.5724 69.5478 22.6895 69.2591 23.0186C68.6124 23.8107 68.3063 24.6028 68.341 25.4116C68.9588 25.2722 69.6633 24.8203 70.466 24.045Z"/>
<path d="M86.9061 8.85059C86.9061 8.30394 86.8888 7.57322 86.8599 6.664C86.831 5.38662 86.8137 4.63359 86.8137 4.41047C86.7964 4.15388 86.7733 3.78573 86.7444 3.31717C86.6924 2.81515 86.6751 2.45815 86.6751 2.24619C86.6463 1.44295 86.7617 0.812629 87.0274 0.355229C87.5644 0.187888 88.2516 0.14326 89.1004 0.221353C89.984 0.310602 90.6076 0.494679 90.9887 0.768003C91.1793 20.0736 91.2774 29.6288 91.2948 29.428C90.6365 29.7627 89.7934 29.9077 88.7713 29.8631C87.7665 29.8017 87.0389 29.5898 86.6001 29.2216C86.2998 28.9818 85.9129 27.9387 85.4451 26.0979C85.3181 25.6126 85.1449 25.0492 84.9254 24.4133C84.6252 23.5487 84.4519 23.03 84.4057 22.8626C84.2787 22.4833 84.1054 21.8921 83.886 21.0832C83.6839 20.3246 83.5222 19.7612 83.4125 19.3987C83.0198 18.1994 82.5463 17.3404 81.9977 16.8272C81.6686 16.9332 81.478 17.2009 81.4318 17.6249C81.4029 17.7476 81.3856 17.9316 81.3856 18.1715C81.3856 18.4448 81.3799 18.6345 81.3625 18.7405C81.299 19.3596 81.2008 21.1223 81.0565 24.0285C80.9294 26.427 80.7562 28.1953 80.5368 29.3388C80.1441 29.5507 79.5378 29.6734 78.7236 29.7013C77.9671 29.7292 77.355 29.679 76.8815 29.5396C76.5696 29.0822 76.4022 28.4909 76.3849 27.7602C76.3849 27.5315 76.3906 27.1968 76.408 26.7561C76.4368 26.2876 76.4542 25.9306 76.4542 25.6851C76.4542 24.893 76.3849 23.6547 76.2463 21.9702C76.1019 20.3135 76.0326 19.0696 76.0326 18.2329C76.0326 17.887 76.0846 17.1675 76.2001 16.0909C76.2925 15.2096 76.3098 14.5123 76.2463 13.9935C76.229 13.8262 76.1366 13.5361 75.9633 13.1289C75.8074 12.7664 75.7266 12.4763 75.7266 12.2644C75.7266 12.1137 75.8132 11.846 75.9864 11.4667C76.1885 11.0428 76.3156 10.736 76.3675 10.5575C76.4484 10.1001 76.4773 8.68883 76.4599 6.31816C76.4311 2.09558 76.356 0.104216 76.252 0.34965C76.8815 0.182308 77.996 0.159995 79.6013 0.282712C81.2528 0.405429 82.2287 0.600663 82.529 0.873987C82.7022 1.02459 82.9794 2.00075 83.3548 3.7913C84.3307 8.3653 85.3123 11.1599 86.3055 12.1751C86.6982 11.7065 86.9061 10.6021 86.9061 8.85059ZM78.5099 5.96116C78.6369 5.7492 78.6658 5.48145 78.6023 5.1635C78.4464 4.37142 78.0422 3.94749 77.4012 3.88613C77.0258 4.23755 76.8815 4.72842 76.9796 5.36989C77.072 5.99463 77.355 6.31258 77.8285 6.32374C78.1403 6.32374 78.3655 6.20102 78.5099 5.96116ZM77.6379 2.22387C77.6553 1.90592 77.5456 1.75532 77.3088 1.76647C77.1529 1.87246 77.072 2.06211 77.072 2.33543C77.0836 2.60876 77.1991 2.75936 77.4012 2.79283C77.5398 2.71474 77.6206 2.52509 77.6379 2.22387ZM80.2307 15.4829C80.5137 15.1203 80.5425 14.7577 80.3231 14.3896C79.9016 14.4063 79.5609 14.5904 79.3126 14.9362C79.0758 15.2709 78.995 15.6279 79.0758 16.0072C79.5609 16.0072 79.9478 15.8343 80.2307 15.4829ZM80.6523 8.57727C80.4617 8.47128 80.248 8.42666 80.0171 8.43782C79.4338 8.47128 79.1913 8.80039 79.2837 9.44186C79.5493 9.71519 79.9074 9.79886 80.3462 9.69287C80.7678 9.58689 80.9699 9.36377 80.9583 9.03467C80.9468 8.85059 80.8428 8.69998 80.6523 8.57727ZM82.3038 10.312C82.3846 10.2674 82.4539 10.2507 82.5174 10.2674C82.5463 10.0554 82.5174 9.88253 82.425 9.74308H82.0959C82.0324 9.82117 82.0035 9.92715 82.0035 10.061C82.0035 10.2005 82.0324 10.2953 82.0959 10.3567C82.171 10.3734 82.2403 10.3567 82.3038 10.312Z" />
<path d="M106.998 29.8642C106.132 29.8921 105.497 29.7973 105.087 29.5686C104.602 29.312 104.255 28.6594 104.047 27.6107C103.811 26.4114 103.568 25.6639 103.314 25.3795C102.494 25.0615 101.645 24.8496 100.767 24.7436C99.6183 24.6097 98.8098 24.7157 98.3421 25.0615C97.9148 25.3962 97.6665 26.1046 97.5856 27.1812C97.5048 28.3358 97.3142 29.1 96.9966 29.4793C95.1546 29.92 93.7744 29.92 92.8447 29.4793C92.9718 27.7167 93.2836 25.3181 93.786 22.2781C94.3981 18.6468 94.7792 16.2036 94.9178 14.9429C95.6107 9.09715 96.4769 4.37812 97.5106 0.797012C97.8108 0.568312 98.602 0.40097 99.8955 0.294987C102.379 0.110912 103.903 0.250362 104.469 0.707762C104.769 0.953196 104.994 1.65045 105.15 2.80511C105.197 3.16768 105.243 3.64181 105.295 4.21635C105.341 4.82436 105.381 5.18693 105.41 5.30965C105.566 6.61491 105.803 8.24371 106.115 10.1849C106.461 12.232 106.704 13.8218 106.848 14.9485C107.275 18.1838 107.483 19.7847 107.483 19.7568C107.639 20.1194 107.922 20.4094 108.332 20.6214C108.725 20.8334 108.962 21.0453 109.037 21.2629C109.129 21.5976 109.054 22.1386 108.8 22.8805C108.488 23.7897 108.321 24.42 108.303 24.7715C108.274 25.5133 108.367 26.3835 108.586 27.3653C108.823 28.386 108.933 29.061 108.915 29.3957C108.534 29.6746 107.893 29.8363 106.998 29.8642ZM95.9572 18.9312C95.9861 18.6914 95.9572 18.4962 95.8648 18.3623C95.501 18.2563 95.2874 18.3958 95.2238 18.7751C95.2065 18.9257 95.2296 19.0651 95.2931 19.1878C95.374 19.3106 95.4895 19.3719 95.6454 19.3719C95.8244 19.3496 95.9283 19.2046 95.9572 18.9312ZM102.09 16.8562C101.559 12.6671 101.172 10.3578 100.935 9.92827H100.721C100.721 9.85018 100.687 9.81671 100.629 9.81671C99.9705 10.7761 99.5432 12.3436 99.3526 14.5302C99.2891 15.1828 99.2372 16.1088 99.191 17.308C99.1448 18.5854 99.1044 19.4667 99.0755 19.952C99.4335 20.3146 99.9763 20.4819 100.704 20.4541C101.397 20.4094 101.859 20.2086 102.096 19.8628C102.292 19.5281 102.292 18.5296 102.09 16.8562ZM102.754 2.43696C103.274 2.58757 103.672 2.51505 103.955 2.20826C104.018 1.85684 103.943 1.57236 103.741 1.34366C103.568 1.14843 103.343 1.02571 103.06 0.981089C102.76 0.953199 102.511 0.997823 102.303 1.12054C102.067 1.25999 101.957 1.45522 101.974 1.71181C101.986 2.04092 102.246 2.28077 102.754 2.43696ZM102.916 23.0534C102.442 23.0088 102.234 23.2152 102.28 23.667C102.754 23.7172 102.962 23.5108 102.916 23.0534ZM103.435 13.6433C103.164 13.3253 102.933 13.3253 102.731 13.6433C102.511 13.95 102.534 14.2122 102.8 14.4409C103.222 14.4577 103.435 14.1899 103.435 13.6433ZM104.989 11.73C105.352 11.5013 105.531 11.228 105.531 10.91C105.514 10.6534 105.393 10.4247 105.156 10.2239C104.919 10.0287 104.694 9.96732 104.475 10.0398C104.221 10.1012 104.082 10.3299 104.053 10.7204C104.013 11.228 104.33 11.5626 104.989 11.73ZM105.485 24.1244C105.658 23.8344 105.699 23.5164 105.601 23.1706C105.162 23.1092 104.821 23.2542 104.59 23.6056C104.353 23.9571 104.348 24.275 104.567 24.5595C104.989 24.6041 105.3 24.4591 105.485 24.1244ZM105.087 13.5317C105.179 13.5484 105.22 13.5875 105.208 13.6433H105.422C105.422 13.554 105.451 13.515 105.514 13.5317V13.3253C105.433 13.3253 105.404 13.2918 105.422 13.2361H105.208C105.191 13.3141 105.15 13.342 105.087 13.3253V13.5317Z" />
<path d="M115.842 22.3444C115.64 26.7511 115.495 29.1106 115.42 29.4285C114.981 29.7186 114.254 29.8636 113.249 29.8636C112.262 29.8636 111.546 29.7186 111.101 29.4285C110.864 26.7065 110.749 22.5954 110.749 17.0787C110.731 10.7923 110.679 6.55855 110.581 4.38869C110.489 2.55351 110.587 1.41559 110.887 0.991657C111.234 0.472898 111.956 0.216309 113.059 0.216309C114.017 0.216309 114.802 0.378072 115.415 0.696021C115.998 8.53876 116.142 15.7567 115.842 22.3444ZM112.545 5.57681C112.273 5.28675 112.013 5.28675 111.765 5.57681C111.494 5.87803 111.511 6.14577 111.811 6.37447C112.343 6.40794 112.591 6.14019 112.545 5.57681ZM111.621 19.0924C111.638 19.4996 111.8 19.7227 112.117 19.7506C112.527 19.6725 112.729 19.3881 112.729 18.886C112.729 18.384 112.458 18.172 111.927 18.2501C111.69 18.4119 111.592 18.6964 111.621 19.0924ZM111.927 26.6284C112.146 26.6618 112.25 26.4945 112.233 26.1263H111.927V26.6284Z" />
<path d="M131.453 27.1472C131.58 28.101 131.5 28.7815 131.217 29.1776C130.888 29.635 129.559 29.8637 127.232 29.8637C126.759 29.8637 125.13 29.7633 122.353 29.568C119.743 29.384 118.31 29.1218 118.062 28.7704C117.843 28.4803 117.756 27.5376 117.802 25.9479C117.82 25.5686 117.849 24.9159 117.901 23.99C117.947 23.2146 117.97 22.6792 117.97 22.3724C117.97 21.3516 118.039 19.7061 118.183 17.4302C118.311 15.1655 118.374 13.4642 118.374 12.3263C118.374 12.3598 118.27 10.2903 118.068 6.12909C118.068 5.97848 118.022 5.49319 117.924 4.67322C117.843 3.89787 117.797 3.27871 117.779 2.80457C117.75 1.28734 118.051 0.456211 118.674 0.322338C119.096 0.23309 119.806 0.221933 120.799 0.300026C121.868 0.378118 122.52 0.511994 122.757 0.712804C123.023 0.941504 123.196 1.63876 123.277 2.81015C123.294 3.1281 123.306 3.61339 123.323 4.26602C123.34 4.87402 123.352 5.29796 123.369 5.54339C123.386 5.64937 123.386 7.38972 123.369 10.7589C123.369 11.6402 123.392 13.308 123.438 15.768C123.467 18.0326 123.479 19.6391 123.461 20.5985C123.461 20.7826 123.456 21.1285 123.438 21.6472C123.404 22.0879 123.392 22.4281 123.392 22.6736C123.421 23.4154 123.588 23.9119 123.889 24.1518C124.426 24.6092 125.54 24.7765 127.238 24.6538C129.155 24.5311 130.454 24.5924 131.13 24.8379C131.124 24.7932 131.234 25.5686 131.453 27.1472ZM119.991 3.84209C119.847 3.64686 119.668 3.54645 119.448 3.54645C119.258 3.54645 119.084 3.61339 118.928 3.75284C118.772 3.88671 118.686 4.04847 118.669 4.23255C118.669 4.42778 118.772 4.59512 118.975 4.73458C119.604 4.81825 119.945 4.52261 119.991 3.84209ZM119.425 19.2877C119.252 19.3044 119.096 19.3993 118.951 19.5833C118.605 20.0073 118.611 20.4089 118.975 20.7882C119.76 20.8942 120.101 20.4981 119.991 19.6056C119.818 19.3937 119.627 19.2877 119.425 19.2877ZM118.859 16.7832C118.83 17.3912 118.998 17.737 119.379 17.8318C119.881 17.7872 120.141 17.4581 120.158 16.8501C120.187 16.2421 119.968 15.8851 119.5 15.7791C119.102 15.8237 118.888 16.1584 118.859 16.7832ZM119.731 7.01042C119.858 6.81519 119.841 6.61438 119.685 6.41914C119.419 6.40241 119.223 6.4805 119.096 6.64785C118.969 6.81519 118.963 6.99926 119.073 7.19449C119.373 7.28374 119.592 7.22238 119.731 7.01042ZM121.925 10.9485C121.833 11.0378 121.798 11.1326 121.833 11.2218C121.85 11.3111 121.902 11.3669 121.995 11.3836C122.076 11.4003 122.145 11.3669 122.208 11.2944C122.272 11.2163 122.278 11.1047 122.231 10.9541H121.925V10.9485Z" />
</svg>
