<svg xmlns="http://www.w3.org/2000/svg" width="126" height="140" viewBox="0 0 126 140" fill="none"> <path d="M101.849 52.6375C69.6776 42.401 65.4544 12.8509 65.4544 12.8509C77.5851 11.8798 89.4734 16.0035 98.4996 33.083C107.138 49.3862 97.9191 64.4288 97.9191 64.4288" fill="#41A935"/> <path d="M23.9215 58.8529C45.8039 34.9299 74.6262 29.9789 93.9875 43.2245C113.349 56.4701 115.874 89.1743 90.2547 101.986C64.6354 114.797 49.69 107.714 36.0068 112.373C22.3237 117.032 19.1697 117.275 14.1717 114.8C5.7285 110.531 2.08766 82.6304 23.9215 58.8529Z" fill="#FECA05"/> <path d="M49.4468 101.649C49.3012 101.6 49.1557 101.551 49.0101 101.503C48.2337 100.921 47.9425 99.8533 48.5247 99.0769C65.9429 72.0486 101.365 78.3546 101.802 78.5001C102.724 78.6456 103.354 79.6646 103.209 80.5865C103.063 81.5084 102.044 82.1393 101.122 81.9938C100.831 81.8967 67.6899 76.0274 51.4362 101.018C50.9025 101.648 50.1747 101.891 49.4468 101.649Z" fill="#F4961B"/> <path d="M37.7042 92.2358C37.5587 92.1873 37.5587 92.1873 37.4132 92.1388C36.5883 91.7022 36.1515 90.5862 36.5882 89.7612C36.7337 89.3245 56.2861 51.0389 100.443 64.1375C101.462 64.4771 101.801 65.399 101.656 66.3209C101.365 67.1944 100.394 67.6797 99.4724 67.5341C58.1303 55.2117 40.4699 89.761 39.6451 91.2653C39.5481 92.0416 38.5777 92.5269 37.7042 92.2358Z" fill="#F4961B"/> <path d="M23.6807 85.7829C22.6617 85.4433 22.1764 84.4729 22.6616 83.5024C22.8072 83.0657 40.8549 36.6768 92.0473 50.5028C92.9207 50.7939 93.6001 51.6673 93.2605 52.6863C92.9694 53.5597 92.0961 54.2391 91.0771 53.8995C70.7457 48.4176 53.7144 51.9608 40.1773 64.4319C30.1336 73.7004 25.8157 84.7153 25.7672 84.8608C25.6702 85.6372 24.6997 86.1225 23.6807 85.7829Z" fill="#F4961B"/> <path d="M62.3059 103.832C61.7236 103.637 61.2383 103.152 61.1412 102.473C53.9579 68.2162 26.5908 64.433 25.5232 64.239C24.6013 64.0935 23.9219 63.2201 24.0675 62.2982C24.213 61.3763 25.0864 60.6969 26.0083 60.8424C26.2995 60.9394 56.772 65.1106 64.5863 101.842C64.7805 102.715 64.1497 103.637 63.2278 103.977C62.9366 103.88 62.597 103.929 62.3059 103.832Z" fill="#F4961B"/> <path d="M78.4638 96.6006C77.8815 96.4066 77.3962 95.9214 77.2992 95.2421C71.9111 59.9663 41.7779 50.8943 41.4868 50.7972C40.5648 50.6517 39.9825 49.4872 40.2735 48.6138C40.5646 47.7404 41.5835 47.1095 42.457 47.4006C42.7481 47.4976 74.9678 57.1032 80.8898 94.6596C81.0354 95.6785 80.4532 96.4549 79.4342 96.6006C78.949 96.6006 78.6094 96.6491 78.4638 96.6006Z" fill="#F4961B"/> <path d="M94.6695 91.6502C93.9417 91.4076 93.4078 90.5827 93.5048 89.8063C95.0569 78.8401 86.1272 53.2206 63.6606 43.4688C62.8357 43.0321 62.3504 42.0617 62.7871 41.2368C63.2237 40.4119 64.1942 39.9266 65.0191 40.3633C87.2916 50.2121 98.7445 76.5108 96.8529 90.4369C96.7074 91.3589 95.8341 92.0383 94.9122 91.8928C94.8151 91.6987 94.6695 91.6502 94.6695 91.6502Z" fill="#F4961B"/> </svg>