<svg width="106" height="98" viewBox="0 0 106 98" fill="none" xmlns="http://www.w3.org/2000/svg">
<path d="M51.8528 50.3582C51.7438 50.2001 51.5964 50.0722 51.4243 49.9861C51.2521 49.9 51.0606 49.8586 50.8673 49.8656C50.674 49.8726 50.4851 49.9278 50.3178 50.0262C50.1505 50.1245 50.0102 50.2629 49.9097 50.4287L49.4439 51.1873C49.3597 49.513 48.9317 47.8771 48.1862 46.3808C48.1239 46.2501 48.0262 46.1395 47.9041 46.0613C47.782 45.9831 47.6402 45.9404 47.4944 45.9379C47.3487 45.9354 47.2047 45.9732 47.0784 46.0471C46.9522 46.121 46.8485 46.2281 46.7791 46.3566L45.7597 48.0978C45.5955 46.6184 45.1766 45.1809 44.5214 43.8482C44.4582 43.7168 44.3598 43.6056 44.2369 43.5269C44.114 43.4482 43.9714 43.405 43.8247 43.402C43.678 43.3991 43.533 43.4365 43.4055 43.5102C43.278 43.5839 43.173 43.691 43.102 43.8197L42.0928 45.647C41.878 44.3844 41.4836 43.1605 40.9216 42.0122C40.8604 41.88 40.7633 41.7678 40.6413 41.6881C40.5192 41.6085 40.3769 41.5645 40.2305 41.5611C40.084 41.5577 39.939 41.5951 39.8119 41.669C39.6847 41.743 39.5803 41.8506 39.5105 41.9798L38.54 43.738L38.4751 43.7085C38.2418 42.5565 37.8665 41.439 37.3578 40.3814C37.2947 40.25 37.1962 40.1388 37.0734 40.0601C36.9505 39.9814 36.8078 39.9382 36.6612 39.9353C36.5145 39.9324 36.3694 39.9698 36.2419 40.0435C36.1144 40.1171 36.0094 40.2242 35.9384 40.3529L34.9679 42.1112C34.7289 41.0765 34.3763 40.0723 33.9164 39.1166C33.8533 38.9852 33.7549 38.8741 33.632 38.7954C33.5091 38.7167 33.3665 38.6734 33.2198 38.6705C33.0732 38.6676 32.9281 38.705 32.8006 38.7787C32.6731 38.8523 32.5681 38.9594 32.497 39.0882L31.638 40.6516C31.4017 39.7448 31.0797 38.8631 30.6762 38.0184C30.6119 37.8884 30.5129 37.7789 30.39 37.7016C30.267 37.6244 30.1249 37.5824 29.979 37.5804C29.833 37.5783 29.6889 37.6161 29.5623 37.6898C29.4356 37.7635 29.3314 37.8701 29.2608 37.9982L28.3377 39.663C28.1329 39.014 27.8809 38.3812 27.5836 37.7695C27.5212 37.6388 27.4235 37.5282 27.3014 37.45C27.1793 37.3718 27.0375 37.3291 26.8918 37.3266C26.746 37.3241 26.6021 37.3619 26.4758 37.4358C26.3495 37.5097 26.2459 37.6168 26.1764 37.7453L25.5755 38.8213L25.494 38.7997C24.9236 38.0661 24.2878 37.3858 23.5941 36.767C23.4845 36.6717 23.3505 36.6084 23.2067 36.584C23.0628 36.5597 22.9146 36.5753 22.7783 36.6291C22.6419 36.6828 22.5226 36.7728 22.4333 36.889C22.3441 37.0053 22.2883 37.1434 22.272 37.2884L22.1989 37.9299C21.7132 37.3376 21.182 36.784 20.6099 36.2741C20.5004 36.1788 20.3664 36.1155 20.2226 36.0911C20.0787 36.0668 19.9306 36.0824 19.7942 36.1362C19.6578 36.1899 19.5385 36.2799 19.4492 36.3961C19.36 36.5124 19.3042 36.6505 19.288 36.7954L19.2404 37.2327C18.7596 36.6589 18.2362 36.122 17.6748 35.6264C17.5665 35.5301 17.4333 35.4659 17.29 35.4409C17.1466 35.4158 16.9987 35.4309 16.8626 35.4845C16.7266 35.5381 16.6077 35.6281 16.5191 35.7444C16.4306 35.8608 16.3759 35.999 16.3611 36.1437L16.3042 36.6259C15.8956 36.1694 15.4623 35.7355 15.0061 35.3263C14.8966 35.2309 14.7626 35.1676 14.6187 35.1433C14.4749 35.119 14.3267 35.1345 14.1904 35.1883C14.054 35.2421 13.9346 35.332 13.8454 35.4483C13.7561 35.5645 13.7004 35.7026 13.6841 35.8476L13.6566 36.1337C13.2286 35.8067 12.7696 35.5219 12.286 35.2833C12.2083 35.2437 12.1211 35.2263 12.0338 35.2329C11.9464 35.2396 11.8623 35.2701 11.7907 35.321C11.7192 35.372 11.6628 35.4415 11.6279 35.5218C11.5929 35.6022 11.5807 35.6904 11.5926 35.7767L11.6272 36.0433C11.0328 36.0339 10.4444 36.1763 9.91789 36.4567C9.26606 36.9304 9.53014 38.2192 9.51157 39.148C10.2611 70.6524 41.8357 85.4371 51.8868 73.6833C53.1171 72.2658 54.1038 70.656 54.8063 68.9202L54.8258 68.9614C58.2905 61.1979 53.9851 53.4624 51.8528 50.3582Z" fill="#70B62E"/>
<path d="M53.9125 68.9152C48.7089 66.5325 22.899 57.0363 11.0831 37.8523L11.0476 37.6267L10.9645 37.6665C10.8396 37.4027 10.6566 37.1668 10.4912 36.8821C9.86068 35.8089 9.36005 36.6449 9.31965 37.2909C9.32246 37.512 9.32528 37.733 9.31979 37.9581L8.89088 38.042C8.80407 38.0583 8.72326 38.0982 8.6574 38.1573C8.59153 38.2164 8.54318 38.2924 8.51774 38.3768C8.49229 38.4612 8.49074 38.5508 8.51325 38.6355C8.53576 38.7203 8.58144 38.797 8.64525 38.857C8.85479 39.0534 9.07499 39.2383 9.30484 39.4108L8.52519 39.5715C8.41487 39.5906 8.31185 39.6402 8.22786 39.7145C8.14387 39.7889 8.08232 39.8851 8.05018 39.9922C8.01805 40.0992 8.01667 40.2128 8.04615 40.32C8.07564 40.4272 8.13481 40.5237 8.21695 40.5985C8.60105 40.957 9.00985 41.2883 9.44044 41.59L8.51231 41.7814C8.37312 41.8149 8.24511 41.8849 8.14164 41.9841C8.03817 42.0833 7.96305 42.2081 7.92406 42.3455C7.88507 42.4829 7.88367 42.6279 7.92001 42.7652C7.95634 42.9026 8.02906 43.0274 8.13061 43.1266C8.64945 43.608 9.20078 44.0534 9.78082 44.4598L8.55161 45.048C8.41961 45.1115 8.30722 45.2097 8.22672 45.332C8.14621 45.4542 8.10065 45.5958 8.09499 45.7413C8.08932 45.8868 8.12379 46.0306 8.1946 46.1572C8.26541 46.2838 8.36987 46.3882 8.49663 46.4592C9.06243 46.7695 9.64801 47.0431 10.2497 47.2783L9.08691 47.8346C8.95491 47.8981 8.84256 47.9963 8.76206 48.1186C8.68156 48.2408 8.636 48.3824 8.63033 48.5279C8.62466 48.6734 8.65908 48.8172 8.72989 48.9438C8.8007 49.0704 8.90516 49.1749 9.03192 49.2458C9.66017 49.5852 10.3111 49.8817 10.9803 50.1332L9.81757 50.6895C9.68557 50.753 9.57323 50.8513 9.49273 50.9735C9.41222 51.0957 9.36666 51.2373 9.36099 51.3828C9.35532 51.5283 9.38975 51.6722 9.46056 51.7987C9.53137 51.9253 9.63582 52.0298 9.76258 52.1007C10.4318 52.4739 11.131 52.7919 11.8531 53.0515L10.682 53.6118C10.55 53.6754 10.4377 53.7736 10.3572 53.8958C10.2767 54.018 10.2311 54.1596 10.2254 54.3051C10.2198 54.4506 10.2542 54.5945 10.325 54.7211C10.3958 54.8476 10.5003 54.9521 10.627 55.0231C11.3508 55.422 12.1073 55.76 12.8884 56.0336L11.8675 57.169C11.7714 57.2778 11.7064 57.4104 11.6796 57.5525C11.6529 57.6945 11.6653 57.8408 11.7155 57.9756C11.7658 58.1105 11.852 58.2288 11.9649 58.3179C12.0779 58.407 12.2133 58.4636 12.3567 58.4816C13.0218 58.5401 13.6902 58.5579 14.3583 58.5348C14.3796 58.5683 14.3966 58.6042 14.4091 58.6419L12.9326 60.2784C12.834 60.3873 12.7672 60.5209 12.7393 60.6644C12.7114 60.808 12.7236 60.9561 12.7745 61.0924C12.8254 61.2288 12.9131 61.3482 13.0279 61.4376C13.1428 61.5269 13.2804 61.5829 13.4257 61.5992C14.3504 61.6978 15.2833 61.7084 16.2118 61.6309C16.2118 61.6309 16.2391 61.6886 16.2508 61.7133L14.6727 63.4793C14.5765 63.5881 14.5116 63.7206 14.4848 63.8627C14.458 64.0048 14.4704 64.151 14.5207 64.2859C14.5709 64.4207 14.6571 64.539 14.7701 64.6281C14.883 64.7172 15.0185 64.7738 15.1619 64.7918C16.2423 64.915 17.3347 64.9114 18.4169 64.7811L17.0416 66.3085C16.9421 66.4162 16.8743 66.5489 16.8457 66.692C16.8171 66.8351 16.8288 66.9829 16.8795 67.1189C16.9302 67.255 17.018 67.3739 17.1329 67.4626C17.2479 67.5513 17.3857 67.6061 17.5308 67.6211C18.6884 67.7512 19.8592 67.7377 21.0163 67.5809L21.0553 67.6633L19.7143 69.1339C19.6157 69.2428 19.5489 69.3764 19.521 69.52C19.4931 69.6635 19.5053 69.8116 19.5562 69.9479C19.6071 70.0843 19.6948 70.2037 19.8096 70.2931C19.9245 70.3825 20.0621 70.4384 20.2074 70.4547C21.4596 70.5909 22.7261 70.5594 23.9733 70.3613L23.9928 70.4025L22.6635 71.8978C22.5673 72.0066 22.5023 72.1391 22.4756 72.2812C22.4488 72.4233 22.4612 72.5696 22.5115 72.7044C22.5617 72.8392 22.6479 72.9575 22.7609 73.0467C22.8738 73.1358 23.0092 73.1924 23.1527 73.2104C24.6365 73.3849 26.1419 73.304 27.6034 72.9712L26.2663 74.45C26.1668 74.5577 26.0991 74.6904 26.0705 74.8335C26.0418 74.9766 26.0536 75.1244 26.1043 75.2604C26.155 75.3965 26.2427 75.5155 26.3576 75.6041C26.4726 75.6928 26.6103 75.7476 26.7555 75.7626C28.4297 75.9777 30.1337 75.8503 31.7637 75.3881L31.1762 76.0837C31.0499 76.2332 30.9633 76.4117 30.9244 76.6027C30.8855 76.7936 30.8956 76.9908 30.9537 77.1759C31.0119 77.3609 31.1162 77.5278 31.257 77.6611C31.3978 77.7943 31.5704 77.8895 31.7589 77.9379C34.8947 78.7726 41.8099 79.9726 47.5743 76.5271C49.1275 75.8758 50.5079 74.869 51.6026 73.5888C52.6049 72.4256 53.4505 71.1373 54.1177 69.7572C54.1919 69.6149 54.2121 69.451 54.1743 69.2961C54.1366 69.1412 54.0435 69.0059 53.9125 68.9152Z" fill="#41A935"/>
<path d="M66.4817 35.3749C66.5252 35.2354 66.5294 35.087 66.4941 34.946C66.4588 34.805 66.3853 34.6767 66.2815 34.5752C66.1777 34.4736 66.0477 34.4027 65.9056 34.3702C65.7635 34.3376 65.6147 34.3447 65.4756 34.3905L63.5684 35.0099C64.113 34.0855 64.5541 33.1049 64.8834 32.086C64.9268 31.9465 64.9311 31.7981 64.8958 31.6571C64.8605 31.5161 64.7869 31.3878 64.6831 31.2863C64.5793 31.1848 64.4493 31.1139 64.3072 31.0813C64.1651 31.0488 64.0164 31.0558 63.8772 31.1016L62.185 31.6586C62.6439 30.8424 63.0222 29.9842 63.3146 29.0963C63.3592 28.958 63.3647 28.8105 63.3306 28.6701C63.2965 28.5296 63.224 28.4017 63.1212 28.3003C63.0185 28.199 62.8894 28.1281 62.7481 28.0957C62.6069 28.0632 62.4589 28.0703 62.3207 28.1162L60.5004 28.7041L60.477 28.6546C60.7727 28.0384 61.0268 27.4035 61.2376 26.7542C61.2811 26.6153 61.2858 26.4676 61.2511 26.3269C61.2165 26.1863 61.1439 26.0582 61.0412 25.9565C60.9384 25.8547 60.8095 25.7831 60.6682 25.7495C60.527 25.716 60.3788 25.7216 60.2397 25.7658L59.0648 26.146C59.0492 26.1234 59.0373 26.0984 59.0297 26.0719C59.1287 25.1424 59.1392 24.2066 59.061 23.277C59.0467 23.1366 58.9951 23.003 58.9117 22.8897C58.8282 22.7764 58.7158 22.6877 58.586 22.6325C58.4561 22.5773 58.3135 22.5577 58.1729 22.5757C58.0322 22.5937 57.8985 22.6486 57.7855 22.7348L57.2948 23.1617C57.3526 22.3953 57.3494 21.6261 57.2853 20.8614C57.271 20.7211 57.2195 20.5874 57.136 20.4741C57.0525 20.3609 56.9401 20.2721 56.8103 20.2169C56.6805 20.1617 56.5379 20.1421 56.3972 20.1601C56.2565 20.1781 56.1228 20.233 56.0098 20.3193L55.6785 20.6092C55.7228 19.8665 55.7107 19.122 55.6426 18.3822C55.6283 18.2419 55.5767 18.1082 55.4932 17.995C55.4098 17.8817 55.2974 17.7929 55.1675 17.7378C55.0377 17.6826 54.8952 17.663 54.7545 17.681C54.6138 17.6989 54.4801 17.7539 54.3671 17.8401L53.9981 18.1582C54.0263 17.5435 54.014 16.9281 53.961 16.3159C53.9467 16.1755 53.8951 16.0419 53.8117 15.9286C53.7282 15.8154 53.6158 15.7266 53.486 15.6714C53.3561 15.6162 53.2136 15.5966 53.0729 15.6146C52.9322 15.6326 52.7985 15.6875 52.6855 15.7738L52.4631 15.9711C52.3798 15.4365 52.2469 14.9113 52.0663 14.402C52.0369 14.3197 51.9852 14.2472 51.9168 14.1927C51.8484 14.1382 51.7661 14.1038 51.6788 14.0932C51.5916 14.0827 51.5029 14.0964 51.4225 14.1329C51.3421 14.1693 51.2732 14.2271 51.2234 14.2999L51.0704 14.5147C50.6496 14.0996 50.1287 13.7992 49.5567 13.6417C48.7547 13.5402 48.0166 14.692 47.4057 15.3381C26.2295 38.9653 38.7719 71.4284 54.1108 69.6997C55.9799 69.5034 57.8057 68.9955 59.5118 68.1972C67.4243 65.0281 69.6581 56.408 70.2623 52.6718C70.2998 52.4767 70.2867 52.2759 70.2242 52.0884C70.1618 51.9008 70.0521 51.7328 69.9056 51.6003C69.7592 51.4677 69.5807 51.3751 69.3873 51.3312C69.1939 51.2873 68.9919 51.2935 68.8006 51.3493L67.9037 51.6066C68.9895 50.3171 69.7999 48.8213 70.2848 47.2124C70.3293 47.0741 70.3349 46.9265 70.3008 46.7861C70.2666 46.6456 70.1942 46.5177 70.0914 46.4163C69.9886 46.315 69.8595 46.2442 69.7182 46.2117C69.577 46.1792 69.4291 46.1863 69.2909 46.2322L67.4086 46.8397C68.3033 45.6287 68.9859 44.2765 69.4269 42.8413C69.4705 42.7024 69.4752 42.5546 69.4405 42.414C69.4059 42.2734 69.3333 42.1453 69.2306 42.0436C69.1278 41.9418 68.9989 41.8702 68.8576 41.8366C68.7163 41.803 68.5682 41.8087 68.4291 41.8529L66.435 42.5038C67.0992 41.4108 67.6073 40.2319 67.9446 39.0016C67.9917 38.8623 67.999 38.7132 67.9657 38.5708C67.9324 38.4285 67.8598 38.2987 67.7561 38.196C67.6524 38.0933 67.5217 38.0217 67.3787 37.9894C67.2357 37.9571 67.0861 37.9654 66.9468 38.0132L65.0396 38.6326C65.0257 38.6124 65.0152 38.5902 65.0084 38.5666C65.6301 37.5666 66.1251 36.4945 66.4817 35.3749Z" fill="#70B62E"/>
<path d="M48.4141 13.9451C48.2543 14.1024 48.1106 14.2722 47.963 14.4338L47.587 14.1992C47.5129 14.1506 47.4263 14.1237 47.3372 14.1218C47.2481 14.1198 47.1599 14.1429 47.0827 14.1882C47.0055 14.2336 46.9424 14.2994 46.9006 14.3783C46.8587 14.4573 46.8397 14.5461 46.8458 14.6347C46.8604 14.8805 46.8861 15.1715 46.9235 15.4871L46.2648 15.0644C46.1712 15.0052 46.0628 14.9731 45.9514 14.9716C45.8401 14.97 45.7301 14.9992 45.6337 15.0558C45.5373 15.1123 45.4581 15.1942 45.4049 15.2922C45.3517 15.3903 45.3265 15.5009 45.3321 15.6117C45.3615 16.1348 45.4242 16.6551 45.5199 17.1696L44.7679 16.7005C44.6452 16.6224 44.503 16.5796 44.3567 16.5768C44.2105 16.574 44.066 16.6113 43.9388 16.6847C43.8117 16.758 43.7068 16.8646 43.6357 16.9927C43.5646 17.1209 43.53 17.2657 43.5357 17.4114C43.575 18.1234 43.6619 18.8315 43.7958 19.5311L42.5086 19.1361C42.3707 19.0904 42.2224 19.0838 42.0801 19.117C41.9379 19.1503 41.8073 19.2221 41.7028 19.3244C41.5983 19.4267 41.5239 19.5557 41.488 19.6969C41.4521 19.8381 41.4561 19.986 41.4994 20.1244C41.6935 20.7387 41.9241 21.3406 42.19 21.9269L40.9692 21.5001C40.8306 21.4545 40.6817 21.4484 40.5391 21.4823C40.3964 21.5163 40.2657 21.589 40.1614 21.6923C40.0571 21.7957 39.9834 21.9257 39.9485 22.0677C39.9137 22.2098 39.919 22.3582 39.964 22.4966C40.1776 23.1782 40.4412 23.8427 40.7527 24.4847L39.5318 24.058C39.3933 24.0134 39.2447 24.0076 39.1023 24.0414C38.9599 24.0751 38.8292 24.1471 38.7243 24.2494C38.6194 24.3517 38.5443 24.4805 38.5073 24.6217C38.4703 24.7629 38.4727 24.9111 38.5143 25.0503C38.7458 25.7803 39.0317 26.4917 39.3695 27.1784L38.1486 26.7517C38.0101 26.7061 37.8612 26.6999 37.7185 26.7339C37.5759 26.7678 37.445 26.8405 37.3408 26.9439C37.2365 27.0473 37.1628 27.1773 37.1279 27.3193C37.0931 27.4613 37.0984 27.6098 37.1433 27.7482C37.3863 28.5357 37.6972 29.3001 38.0726 30.033L36.5588 30.1709C36.4151 30.1819 36.2767 30.2319 36.1586 30.3154C36.0406 30.399 35.9474 30.5129 35.8892 30.6449C35.831 30.7769 35.81 30.9219 35.8284 31.0642C35.8469 31.2065 35.9042 31.3406 35.994 31.4521C36.4278 31.9633 36.8944 32.4457 37.3911 32.8964L37.3638 33.0105L35.1632 33.2041C35.0209 33.217 34.8842 33.268 34.7679 33.3519C34.6516 33.4358 34.5601 33.5493 34.503 33.6804C34.4458 33.8115 34.4253 33.9552 34.4436 34.0963C34.4618 34.2373 34.5182 34.3704 34.6067 34.4813C35.1935 35.2008 35.848 35.8624 36.5614 36.4574L36.5887 36.5151L34.2197 36.7186C34.0774 36.7325 33.941 36.7842 33.8249 36.8683C33.7087 36.9523 33.617 37.0657 33.5593 37.1966C33.5016 37.3275 33.4801 37.471 33.4969 37.6123C33.5137 37.7535 33.5682 37.8873 33.6548 37.9997C34.352 38.8231 35.1407 39.5648 36.006 40.2107L34.0437 40.5633C33.9014 40.5772 33.7651 40.6289 33.6489 40.7129C33.5328 40.797 33.4411 40.9104 33.3834 41.0413C33.3257 41.1721 33.3041 41.3157 33.3209 41.4569C33.3377 41.5982 33.3922 41.732 33.4789 41.8444C34.2257 42.7334 35.0803 43.5264 36.0234 44.2055L36.0585 44.2797L34.1007 44.4481C33.9584 44.462 33.8221 44.5137 33.706 44.5978C33.5898 44.6818 33.4981 44.7952 33.4404 44.9261C33.3827 45.057 33.3611 45.2005 33.3779 45.3418C33.3947 45.483 33.4493 45.6168 33.5359 45.7292C34.3451 46.6963 35.2856 47.5458 36.3309 48.2535L34.295 48.429C34.1512 48.44 34.0128 48.4899 33.8947 48.5735C33.7767 48.6571 33.6835 48.771 33.6253 48.903C33.5671 49.035 33.5461 49.18 33.5646 49.3223C33.5831 49.4646 33.6403 49.5987 33.7301 49.7102C34.6848 50.8589 35.8347 51.831 37.1282 52.5828L35.1704 52.7512C35.0266 52.7622 34.8882 52.8121 34.7702 52.8957C34.6521 52.9792 34.5589 53.0932 34.5007 53.2252C34.4425 53.3572 34.4215 53.5022 34.44 53.6445C34.4585 53.7868 34.5157 53.9209 34.6055 54.0324C35.6639 55.3314 36.9802 56.3977 38.4733 57.1654L37.5716 57.2835C37.3792 57.309 37.1958 57.3818 37.0379 57.4954C36.88 57.609 36.7526 57.7598 36.6673 57.9341C36.5819 58.1084 36.5413 58.3007 36.5491 58.4937C36.5569 58.6867 36.6129 58.8742 36.712 59.0393C38.4088 61.8261 42.6205 67.514 49.2362 68.8774C50.7524 69.4307 52.3794 69.6276 53.9913 69.4529C55.5127 69.2739 57.0063 68.899 58.4348 68.3378C58.5937 68.2674 58.7197 68.1387 58.7863 67.9786C58.853 67.8186 58.8551 67.6396 58.7923 67.4793C56.689 62.1778 44.6161 37.5468 49.3932 15.3669L49.5251 15.1724L49.49 15.0982C49.5585 14.8127 49.6066 14.5269 49.6795 14.2292C49.8271 13.2286 48.8481 13.4847 48.4141 13.9451Z" fill="#41A935"/>
<path d="M97.2026 45.494C97.4122 44.9406 97.4804 44.3451 97.4009 43.7615C97.1859 42.9849 95.8687 42.8065 95.0107 42.4791C65.0726 32.6128 39.9776 57.2153 47.4827 70.5669C48.3814 72.1923 49.5486 73.6533 50.9357 74.8891C56.9012 80.8598 65.7154 79.4225 69.3792 78.4681C69.5676 78.4208 69.7415 78.3272 69.885 78.1957C70.0285 78.0643 70.1369 77.8994 70.2002 77.7161C70.2636 77.5327 70.2798 77.337 70.2474 77.1467C70.2151 76.9565 70.1352 76.7779 70.0151 76.6273L69.4616 75.9318C71.0666 76.4036 72.7546 76.542 74.422 76.3384C74.5672 76.3227 74.7057 76.2676 74.8225 76.1792C74.9392 76.0908 75.0298 75.9725 75.0843 75.837C75.1388 75.7015 75.1551 75.5541 75.1316 75.4108C75.108 75.2674 75.0455 75.1337 74.9507 75.024L73.661 73.5486C75.1143 73.8916 76.6184 73.9823 78.1076 73.8168C78.2528 73.8011 78.3913 73.7461 78.5081 73.6577C78.6249 73.5693 78.7154 73.4509 78.7699 73.3154C78.8244 73.1799 78.8408 73.0325 78.8172 72.8891C78.7937 72.7458 78.7311 72.6121 78.6363 72.5024L77.2627 70.9357C78.5319 71.1596 79.8284 71.203 81.1135 71.0645C81.2589 71.05 81.3979 70.9957 81.5149 70.9075C81.6319 70.8193 81.7224 70.7007 81.7764 70.5648C81.8303 70.429 81.8456 70.2813 81.8204 70.1382C81.7953 69.9951 81.7307 69.8621 81.6339 69.7541L80.3242 68.2578L80.3906 68.226C81.5576 68.3967 82.7428 68.4206 83.9186 68.297C84.064 68.2826 84.203 68.2282 84.32 68.14C84.4371 68.0518 84.5276 67.9332 84.5815 67.7973C84.6355 67.6615 84.6507 67.5139 84.6255 67.3707C84.6004 67.2276 84.5358 67.0946 84.439 66.9866L83.1337 65.4782C84.1943 65.6007 85.2663 65.6064 86.3305 65.4953C86.4757 65.4795 86.6142 65.4245 86.731 65.3361C86.8478 65.2477 86.9384 65.1293 86.9929 64.9938C87.0474 64.8583 87.0637 64.7109 87.0402 64.5676C87.0166 64.4243 86.954 64.2905 86.8592 64.1808L85.6892 62.8503C86.6281 62.9341 87.5737 62.9285 88.5133 62.8335C88.6583 62.8163 88.7962 62.76 88.9121 62.6705C89.028 62.5811 89.1174 62.462 89.1706 62.3261C89.2238 62.1902 89.2389 62.0427 89.214 61.8997C89.1892 61.7567 89.1255 61.6236 89.0298 61.5148L87.7841 60.0891L87.8339 60.0652C88.5047 60.0916 89.177 60.0738 89.8463 60.0122C89.9917 59.9977 90.1307 59.9433 90.2477 59.8551C90.3648 59.7669 90.4553 59.6483 90.5092 59.5125C90.5632 59.3767 90.5784 59.229 90.5532 59.0859C90.5281 58.9428 90.4635 58.8098 90.3667 58.7018L89.5603 57.7734L89.6351 57.7376C90.5304 57.4561 91.3971 57.0888 92.2229 56.641C92.3521 56.5719 92.46 56.4687 92.5345 56.3427C92.6089 56.2168 92.647 56.073 92.6446 55.9275C92.6422 55.782 92.5994 55.6404 92.5208 55.5184C92.4423 55.3965 92.3311 55.299 92.1997 55.2369L91.624 54.9462C92.3508 54.6876 93.058 54.3763 93.74 54.0147C93.8692 53.9456 93.977 53.8424 94.0514 53.7164C94.1259 53.5905 94.164 53.4467 94.1616 53.3012C94.1592 53.1557 94.1164 53.0141 94.0378 52.8922C93.9593 52.7702 93.8481 52.6728 93.7167 52.6106L93.3193 52.4166C94.0284 52.1635 94.7178 51.8573 95.3815 51.5007C95.5094 51.4305 95.6159 51.327 95.6897 51.2014C95.7635 51.0758 95.8017 50.9328 95.8002 50.7879C95.7986 50.643 95.7575 50.5016 95.6811 50.3791C95.6046 50.2566 95.4959 50.1575 95.3666 50.0926L94.9286 49.8776C95.495 49.6404 96.0494 49.3751 96.5897 49.0828C96.7195 49.013 96.8279 48.909 96.9028 48.7823C96.9778 48.6556 97.0164 48.511 97.0145 48.3646C97.0125 48.2181 96.9701 48.0755 96.8918 47.9523C96.8136 47.8291 96.7025 47.7302 96.5709 47.6664L96.3072 47.5399C96.7673 47.2491 97.2 46.9169 97.5996 46.5475C97.6623 46.4858 97.7073 46.4085 97.7298 46.3239C97.7523 46.2392 97.7515 46.1503 97.7275 46.0665C97.7034 45.9827 97.6571 45.9072 97.5933 45.8479C97.5295 45.7886 97.4507 45.7477 97.3652 45.7296L97.2026 45.494Z" fill="#70B62E"/>
<path d="M96.71 43.0395C96.4985 42.9587 96.2905 42.9066 96.0791 42.8258L96.1555 42.3849C96.171 42.2977 96.1619 42.2082 96.1292 42.1263C96.0965 42.0444 96.0414 41.9735 95.9702 41.9215C95.8991 41.8695 95.8145 41.8384 95.7262 41.8318C95.6378 41.8251 95.5491 41.8432 95.47 41.884L94.7127 42.307L94.8425 41.5271C94.8562 41.4218 94.8415 41.315 94.7998 41.2179C94.7581 41.1207 94.6911 41.0366 94.6055 40.9744C94.5199 40.9123 94.419 40.8742 94.3132 40.8642C94.2073 40.8542 94.1005 40.8726 94.0037 40.9176C93.5283 41.1525 93.0692 41.4194 92.6298 41.7165L92.7744 40.8386C92.8008 40.6945 92.7866 40.5464 92.7332 40.4107C92.6799 40.2751 92.5895 40.1573 92.4723 40.0706C92.3551 39.984 92.2156 39.9318 92.0696 39.92C91.9235 39.9082 91.7767 39.9373 91.6455 40.0039C91.0064 40.3256 90.3888 40.6886 89.7967 41.0907L89.6777 39.7424C89.6634 39.6021 89.6119 39.4684 89.5284 39.3551C89.445 39.2419 89.3325 39.1531 89.2027 39.098C89.0729 39.0428 88.9303 39.0231 88.7896 39.0411C88.649 39.0591 88.5152 39.1141 88.4022 39.2003C87.9089 39.624 87.444 40.0794 87.0104 40.5637L86.8978 39.2934C86.8863 39.1516 86.8365 39.0158 86.7536 38.9007C86.6706 38.7856 86.5576 38.6955 86.4267 38.6398C86.2957 38.5842 86.1518 38.5651 86.0101 38.5848C85.8684 38.6044 85.7344 38.6619 85.6222 38.7513C85.0721 39.221 84.5575 39.7307 84.0829 40.2763L83.9746 38.9937C83.9614 38.8533 83.9105 38.7193 83.8272 38.606C83.7439 38.4926 83.6314 38.404 83.5013 38.3494C83.3713 38.2948 83.2285 38.2762 83.0881 38.2957C82.9476 38.3151 82.8146 38.3718 82.703 38.4598C82.1156 38.9599 81.5709 39.508 81.0747 40.0982L80.962 38.8278C80.9477 38.6874 80.8962 38.5538 80.8127 38.4405C80.7292 38.3273 80.6168 38.2385 80.487 38.1833C80.3571 38.1282 80.2146 38.1085 80.0739 38.1265C79.9332 38.1445 79.7995 38.1995 79.6865 38.2857C79.0545 38.8327 78.4688 39.4308 77.9355 40.0737L77.2294 38.7335C77.1614 38.6053 77.0592 38.4985 76.934 38.4247C76.8087 38.351 76.6653 38.3132 76.5192 38.3153C76.3731 38.3174 76.23 38.3595 76.1055 38.4368C75.9809 38.5142 75.8798 38.624 75.813 38.7541C75.5127 39.3591 75.2494 39.9813 75.0246 40.6173L74.9249 40.665L73.9051 38.7268C73.837 38.5986 73.7349 38.4918 73.6096 38.4181C73.4844 38.3444 73.3409 38.3065 73.1948 38.3086C73.0488 38.3108 72.9057 38.3528 72.7811 38.4302C72.6566 38.5076 72.5555 38.6173 72.4886 38.7475C72.0652 39.5872 71.7196 40.4632 71.4561 41.3643L71.3897 41.3961L70.2913 39.3136C70.2233 39.1854 70.1211 39.0786 69.9958 39.0049C69.8706 38.9311 69.7271 38.8933 69.581 38.8954C69.435 38.8975 69.2919 38.9396 69.1673 39.0169C69.0428 39.0943 68.9417 39.2041 68.8748 39.3342C68.3834 40.306 68.0032 41.3289 67.7415 42.3835L66.788 40.5854C66.7219 40.4564 66.621 40.3486 66.4965 40.274C66.3721 40.1993 66.229 40.1607 66.0831 40.1624C65.9372 40.1641 65.7943 40.2061 65.6701 40.2837C65.546 40.3614 65.4455 40.4716 65.3798 40.6021C64.8434 41.6423 64.4414 42.745 64.1834 43.8837L64.1003 43.9234L63.1781 42.1913C63.112 42.0623 63.0111 41.9545 62.8866 41.8799C62.7622 41.8052 62.6191 41.7666 62.4732 41.7683C62.3273 41.77 62.1844 41.812 62.0602 41.8896C61.9361 41.9673 61.8356 42.0775 61.7699 42.208C61.1906 43.3397 60.7704 44.5444 60.521 45.7877L59.5715 43.9978C59.5053 43.8688 59.4044 43.761 59.28 43.6863C59.1555 43.6117 59.0124 43.5731 58.8666 43.5748C58.7207 43.5765 58.5777 43.6185 58.4536 43.6962C58.3294 43.7738 58.229 43.8839 58.1633 44.0145C57.4714 45.3484 57.0128 46.7884 56.8076 48.272L55.8858 46.5194C55.8178 46.3912 55.7156 46.2844 55.5904 46.2107C55.4651 46.1369 55.3217 46.0991 55.1756 46.1012C55.0295 46.1034 54.8864 46.1454 54.7619 46.2228C54.6374 46.3001 54.5362 46.4099 54.4694 46.54C53.6823 48.0369 53.2066 49.6745 53.0713 51.3536L52.6146 50.5612C52.5186 50.3929 52.3812 50.2521 52.2152 50.1516C52.0492 50.0512 51.8601 49.9945 51.6653 49.9868C51.4705 49.9791 51.2765 50.0207 51.1012 50.1076C50.926 50.1946 50.7751 50.3241 50.6628 50.4842C48.7545 53.1663 45.128 59.319 46.4276 65.9351C46.504 67.5455 46.9471 69.1137 47.7234 70.5211C48.4705 71.8453 49.3902 73.0639 50.4587 74.1455C50.5828 74.2668 50.7505 74.3337 50.9251 74.3316C51.0997 74.3295 51.2671 74.2586 51.3907 74.1343C55.4752 70.0673 73.5493 49.0968 95.7929 44.4588L96.0259 44.499L96.0362 44.4132L96.9067 44.2292C97.9208 44.0473 97.2999 43.2526 96.71 43.0395Z" fill="#41A935"/>
</svg>
