<svg xmlns="http://www.w3.org/2000/svg" width="103" height="87" viewBox="0 0 103 87" fill="none"> <path fill-rule="evenodd" clip-rule="evenodd" d="M86.0057 1.39204L52.0931 26.0818L50.6398 27.1476C52.9495 30.2959 53.7243 33.646 50.5679 35.9377C49.0512 37.0376 47.1598 37.4922 45.3085 37.2016C43.4571 36.9111 41.7971 35.8992 40.6926 34.388V34.388L6.01196 58.4469C6.34809 58.9436 7.20992 60.1665 7.55966 60.6455C11.362 65.8643 16.1571 70.2839 21.6711 73.6518C27.185 77.0198 33.3098 79.2702 39.6959 80.2745C46.0819 81.2788 52.6041 81.0174 58.8901 79.5051C65.176 77.9929 71.1026 75.2595 76.3314 71.461C81.5603 67.6625 85.989 62.8732 89.3648 57.3666C92.7405 51.8601 94.9971 45.7441 96.0058 39.3678C97.0145 32.9916 96.7554 26.48 95.2435 20.2048C93.7315 13.9295 90.9962 8.01364 87.1939 2.7948C86.7345 2.33023 86.3711 1.86895 86.0057 1.39204Z" fill="#EE731B"/> <path fill-rule="evenodd" clip-rule="evenodd" d="M85.9632 0.824969L54.9813 23.8093C55.6259 24.4425 56.2124 25.1321 56.7338 25.8697C57.2961 26.6267 57.7006 27.4886 57.9234 28.4046C58.1461 29.3205 58.1827 30.2719 58.0307 31.2023C57.8788 32.1327 57.5415 33.0234 57.0389 33.8216C56.5362 34.6197 55.8784 35.3092 55.1043 35.8493C54.3302 36.3893 53.4555 36.7689 52.532 36.9656C51.6086 37.1624 50.655 37.1722 49.7278 36.9946C48.8007 36.817 47.9187 36.4555 47.1341 35.9315C46.3494 35.4076 45.678 34.7318 45.1596 33.9442C44.6431 33.2024 44.1838 32.4226 43.7855 31.6114L12.1976 53.8642C12.5181 54.3629 13.3799 55.5859 13.716 56.0825C20.8294 65.5201 31.3449 71.8203 43.0343 73.6482C54.7237 75.4762 66.6687 72.6882 76.3383 65.8752C86.008 59.0621 92.6425 48.7591 94.8363 37.1493C97.0301 25.5394 94.6108 13.5348 88.0909 3.67907C87.763 3.24494 86.3286 1.30189 85.9632 0.824969Z" fill="#FFF8C8"/> <path fill-rule="evenodd" clip-rule="evenodd" d="M84.446 28.6866L62.2444 28.5179C61.6596 28.5143 61.0912 28.3256 60.6208 27.979C60.1503 27.6324 59.8021 27.1458 59.6263 26.589C59.4504 26.0323 59.456 25.4342 59.6421 24.8806C59.8282 24.3271 60.1853 23.8466 60.6621 23.5083L78.726 10.6202C79.7784 9.8729 80.9925 9.38419 82.2696 9.19391C83.5467 9.00363 84.8507 9.11714 86.0752 9.52523C87.2998 9.93333 88.4104 10.6244 89.3166 11.5423C90.2228 12.4602 90.899 13.5789 91.2901 14.8072L92.3011 18.0148C92.7007 19.2452 92.8012 20.553 92.5946 21.8302C92.3879 23.1073 91.8799 24.3172 91.1125 25.3598C90.345 26.4024 89.3402 27.2479 88.181 27.8263C87.0218 28.4048 85.7416 28.6997 84.446 28.6866V28.6866Z" fill="#F9B812"/> <path fill-rule="evenodd" clip-rule="evenodd" d="M78.7729 48.934L60.9458 35.7353C60.4712 35.3904 60.1189 34.9035 59.94 34.3451C59.7612 33.7868 59.7652 33.186 59.9513 32.6299C60.1374 32.0738 60.496 31.5912 60.9751 31.252C61.4543 30.9129 62.029 30.7349 62.6162 30.7438L84.8144 31.0084C86.1059 31.0231 87.3755 31.3423 88.5198 31.9399C89.6641 32.5375 90.6506 33.3966 91.3991 34.4473C92.1475 35.4979 92.6367 36.7103 92.8267 37.9857C93.0167 39.2611 92.9022 40.5634 92.4925 41.7865L91.4147 44.9823C90.9995 46.2029 90.3016 47.3084 89.3777 48.209C88.4539 49.1095 87.3302 49.7796 86.0981 50.1648C84.866 50.5499 83.5604 50.6392 82.2875 50.4253C81.0146 50.2114 79.8104 49.7005 78.7729 48.934Z" fill="#F9B812"/> <path fill-rule="evenodd" clip-rule="evenodd" d="M62.236 61.9238L55.6176 40.7782C55.4475 40.223 55.4571 39.6283 55.6452 39.0787C55.8332 38.5292 56.1901 38.0528 56.6649 37.7172C57.1397 37.3817 57.7083 37.2042 58.2899 37.21C58.8714 37.2158 59.4363 37.4045 59.904 37.7493L77.6766 51.0188C78.7098 51.7917 79.5454 52.7974 80.1153 53.954C80.6853 55.1106 80.9736 56.3853 80.9566 57.6744C80.9397 58.9635 80.618 60.2305 80.0177 61.3722C79.4175 62.514 78.5556 63.4981 77.5024 64.2445L74.7632 66.1951C73.706 66.9337 72.4894 67.4128 71.212 67.5936C69.9347 67.7744 68.6327 67.6517 67.4121 67.2355C66.1914 66.8193 65.0864 66.1213 64.187 65.1984C63.2876 64.2754 62.6192 63.1535 62.236 61.9238V61.9238Z" fill="#F9B812"/> <path fill-rule="evenodd" clip-rule="evenodd" d="M41.2101 62.6981L48.397 41.7269C48.5826 41.1752 48.9389 40.6967 49.4146 40.3603C49.8903 40.024 50.4607 39.8473 51.0434 39.8557C51.6261 39.8641 52.191 40.0572 52.6565 40.4071C53.122 40.757 53.4639 41.2456 53.633 41.8024L60.1303 62.9958C60.5134 64.2298 60.5978 65.5371 60.3766 66.8103C60.1554 68.0835 59.635 69.2862 58.858 70.3199C58.0809 71.3535 57.0694 72.1885 55.9066 72.7563C54.7438 73.324 53.4629 73.6084 52.1689 73.5861L48.816 73.5335C47.5239 73.5105 46.2556 73.1829 45.1147 72.5773C43.9738 71.9717 42.9926 71.1054 42.2511 70.049C41.5095 68.9926 41.0286 67.776 40.8477 66.4985C40.6668 65.221 40.791 63.9188 41.2101 62.6981V62.6981Z" fill="#F9B812"/> <path fill-rule="evenodd" clip-rule="evenodd" d="M23.7779 50.9269L41.9762 38.212C42.453 37.876 43.0243 37.7002 43.6076 37.7099C44.191 37.7196 44.7561 37.9143 45.2211 38.266C45.686 38.6177 46.0267 39.108 46.194 39.666C46.3613 40.2239 46.3464 40.8206 46.1514 41.3697L38.8977 62.318C38.4765 63.5376 37.7721 64.6405 36.8421 65.5363C35.9121 66.4322 34.7829 67.0955 33.547 67.472C32.3111 67.8486 31.0036 67.9276 29.7314 67.7027C28.4593 67.4777 27.2587 66.9552 26.228 66.1779L23.541 64.1608C22.5097 63.3832 21.6773 62.3732 21.1116 61.213C20.546 60.0528 20.2632 58.7755 20.2863 57.4851C20.3094 56.1948 20.6377 54.9281 21.2445 53.7883C21.8513 52.6485 22.7194 51.6681 23.7779 50.9269V50.9269Z" fill="#F9B812"/> </svg>