<svg xmlns="http://www.w3.org/2000/svg" width="104" height="85" viewBox="0 0 104 85" fill="none"> <path fill-rule="evenodd" clip-rule="evenodd" d="M99.2978 42.4527L59.2915 29.8618L57.4638 29.2907C56.3578 32.9992 54.0733 35.6218 50.3491 34.4409C49.4639 34.1637 48.6422 33.7151 47.931 33.1206C47.2197 32.5262 46.6328 31.7976 46.2038 30.9765C45.7748 30.1554 45.5121 29.2578 45.4308 28.3351C45.3494 27.4125 45.4511 26.4827 45.7298 25.5991V25.5991L5.714 12.0868C5.51759 12.6535 5.05203 14.0827 4.87128 14.6472C0.95043 27.0826 2.13747 40.5617 8.17111 52.1191C14.2047 63.6765 24.5908 72.3655 37.0445 76.2747C49.4982 80.184 62.9993 78.9931 74.5779 72.9642C86.1564 66.9353 94.8639 56.5621 98.7848 44.1267C98.9853 43.5914 99.1504 43.0288 99.2978 42.4527Z" fill="#EE731B"/> <path fill-rule="evenodd" clip-rule="evenodd" d="M99.7444 42.0918L62.7657 30.837C62.6406 31.7334 62.4369 32.6172 62.1568 33.478C61.5167 35.1921 60.2359 36.5919 58.5837 37.383C56.9316 38.174 55.0368 38.2948 53.2979 37.7197C51.559 37.1447 50.1115 35.9188 49.2598 34.2997C48.4081 32.6807 48.2185 30.7947 48.7311 29.0384C49.0143 28.1843 49.3691 27.3554 49.7917 26.5607L13.1448 14.4351C12.9307 14.9881 12.4495 16.4194 12.2688 16.984C10.3896 22.6517 9.64691 28.6329 10.0829 34.5862C10.5189 40.5396 12.1251 46.3483 14.8099 51.6809C17.4946 57.0135 21.2053 61.7655 25.7302 65.6655C30.255 69.5655 35.5054 72.5372 41.1814 74.4109C46.8574 76.2846 52.848 77.0237 58.811 76.5858C64.7741 76.148 70.5928 74.5418 75.9352 71.8591C81.2775 69.1763 86.0387 65.4695 89.9469 60.9502C93.8551 56.431 96.8339 51.1878 98.713 45.5201C98.8625 44.9596 99.5793 42.6544 99.7444 42.0918Z" fill="#FFF8C8"/> <path fill-rule="evenodd" clip-rule="evenodd" d="M76.3949 57.4401L63.3203 39.5447C62.9805 39.0731 62.7987 38.5064 62.8005 37.9254C62.8022 37.3443 62.9876 36.7786 63.3302 36.3087C63.6728 35.8389 64.1551 35.4889 64.7085 35.3087C65.2618 35.1284 65.858 35.1271 66.412 35.3049L87.5055 42.0775C88.7349 42.4758 89.8524 43.1587 90.7669 44.0706C91.6813 44.9824 92.3667 46.0973 92.7672 47.3243C93.1677 48.5512 93.2718 49.8555 93.0712 51.1305C92.8705 52.4056 92.3707 53.6154 91.6127 54.6611L89.6423 57.3696C88.8886 58.4181 87.8969 59.2736 86.7484 59.8659C85.6 60.4582 84.3275 60.7706 83.0351 60.7775C81.7427 60.7844 80.4673 60.4855 79.3131 59.9054C78.159 59.3253 77.1589 58.4805 76.3949 57.4401Z" fill="#F9B812"/> <path fill-rule="evenodd" clip-rule="evenodd" d="M56.7306 64.9391L56.766 42.776C56.7642 42.1943 56.9477 41.6269 57.2899 41.1559C57.6321 40.6848 58.1153 40.3345 58.6698 40.1554C59.2243 39.9763 59.8214 39.9778 60.3749 40.1596C60.9283 40.3414 61.4095 40.6942 61.7489 41.1669L74.767 59.1174C75.524 60.1628 76.0227 61.3722 76.2223 62.647C76.4219 63.9217 76.3169 65.2256 75.9157 66.4523C75.5145 67.679 74.8286 68.7938 73.9139 69.7057C72.9992 70.6176 71.8817 71.3008 70.6524 71.6996L67.4413 72.726C66.2115 73.1217 64.9056 73.2217 63.63 73.0179C62.3544 72.814 61.1454 72.3121 60.1013 71.553C59.0571 70.7939 58.2075 69.7991 57.6217 68.6497C57.0359 67.5004 56.7306 66.229 56.7306 64.9391V64.9391Z" fill="#F9B812"/> <path fill-rule="evenodd" clip-rule="evenodd" d="M36.4381 59.4135L49.5512 41.4653C49.8903 40.9849 50.3749 40.6258 50.9336 40.4408C51.4923 40.2558 52.0957 40.2547 52.6549 40.4377C53.2141 40.6207 53.6996 40.978 54.0401 41.4572C54.3805 41.9364 54.5578 42.5121 54.546 43.0996L54.3934 65.3418C54.3957 66.636 54.0901 67.9124 53.5016 69.0658C52.9131 70.2192 52.0586 71.2166 51.0086 71.976C49.9585 72.7353 48.7429 73.2347 47.4619 73.4332C46.1808 73.6317 44.871 73.5235 43.6403 73.1175L40.4576 72.0564C39.2237 71.654 38.1036 70.9643 37.1897 70.0442C36.2758 69.1241 35.5944 68.0001 35.2017 66.7649C34.8091 65.5297 34.7164 64.2188 34.9314 62.9406C35.1464 61.6623 35.6628 60.4533 36.4381 59.4135V59.4135Z" fill="#F9B812"/> <path fill-rule="evenodd" clip-rule="evenodd" d="M23.3178 42.9875L44.4722 36.2788C45.0274 36.1047 45.6234 36.1099 46.1753 36.2936C46.7271 36.4773 47.2068 36.8302 47.546 37.3021C47.8851 37.7739 48.0665 38.3406 48.0642 38.9215C48.062 39.5024 47.8762 40.0678 47.5333 40.5373L34.3569 58.3666C33.5887 59.404 32.5859 60.2456 31.4302 60.8227C30.2746 61.3999 28.9989 61.6962 27.707 61.6876C26.4151 61.679 25.1435 61.3658 23.9962 60.7734C22.8488 60.1809 21.8581 59.3261 21.1047 58.2786L19.1521 55.5446C18.4011 54.4963 17.9088 53.2855 17.7154 52.011C17.5219 50.7365 17.6327 49.4343 18.0387 48.2103C18.4447 46.9864 19.1345 45.8754 20.0519 44.9678C20.9692 44.0602 22.0883 43.3817 23.3178 42.9875V42.9875Z" fill="#F9B812"/> <path fill-rule="evenodd" clip-rule="evenodd" d="M22.424 21.9965L43.4721 29.0295C44.0299 29.2083 44.5159 29.5604 44.859 30.0344C45.2022 30.5085 45.3846 31.0797 45.3796 31.6647C45.3746 32.2497 45.1826 32.8178 44.8314 33.2863C44.4802 33.7548 43.9883 34.099 43.4275 34.2688L22.2492 40.9169C21.0187 41.2966 19.7158 41.381 18.4467 41.1633C17.1775 40.9455 15.9779 40.4317 14.9453 39.6637C13.9128 38.8956 13.0766 37.895 12.5046 36.7433C11.9326 35.5915 11.641 34.3212 11.6536 33.0354L11.6899 29.6743C11.7039 28.3906 12.0208 27.1281 12.6147 25.9892C13.2087 24.8504 14.0631 23.8672 15.1086 23.1194C16.1541 22.3716 17.3613 21.8802 18.6322 21.6851C19.9032 21.49 21.2023 21.5967 22.424 21.9965V21.9965Z" fill="#F9B812"/> </svg>