<svg width="117" height="79" viewBox="0 0 117 79" fill="none" xmlns="http://www.w3.org/2000/svg">
<path fill-rule="evenodd" clip-rule="evenodd" d="M46.0278 1.74916C52.664 -0.537095 59.7606 -0.583139 66.4204 1.61686C70.845 3.07907 74.9672 5.49681 78.5516 8.73191C79.2375 9.35099 79.9011 9.99768 80.5413 10.6704C81.144 10.407 81.7567 10.168 82.3783 9.95405C87.3319 8.24924 92.6288 8.21687 97.599 9.861C104.264 12.0669 109.868 17.1273 113.179 23.9294C116.49 30.7315 117.237 38.7182 115.256 46.133C113.778 51.6621 110.859 56.5795 106.869 60.2632C102.878 63.9469 97.9958 66.2316 92.8384 66.8283C89.2421 67.2443 85.6249 66.8266 82.2096 65.6232C81.1645 66.8801 80.0423 68.064 78.8486 69.1655C73.5013 74.0996 66.9592 77.1592 60.0492 77.9576C53.1391 78.7559 46.1714 77.2571 40.0269 73.6507C35.6161 71.0619 31.7716 67.4703 28.7294 63.1357C26.3426 65.2403 23.464 66.5467 20.4298 66.8974C17.2767 67.2618 14.0972 66.5779 11.2935 64.932C8.48981 63.2862 6.18778 60.7524 4.67854 57.651C3.1693 54.5496 2.52065 51.02 2.8146 47.5085C3.07323 44.4189 4.05137 41.4655 5.6436 38.9354C4.39035 37.4845 3.31095 35.8453 2.44045 34.0567C0.535143 30.1417 -0.283826 25.6861 0.0871298 21.2533C0.458086 16.8206 2.00231 12.6097 4.52449 9.15331C7.04667 5.6969 10.4335 3.15017 14.2568 1.8352C18.08 0.520227 22.1679 0.496072 26.0035 1.76578C29.5074 2.92567 32.6313 5.10812 35.0745 8.04145C38.3467 5.2567 42.0511 3.11915 46.0278 1.74916Z" fill="#FEBC11"/>
</svg>
