<svg xmlns="http://www.w3.org/2000/svg" width="148" height="190" viewBox="0 0 148 190" fill="none"> <g clip-path="url(#clip0_1421_18363)"> <path d="M47.3538 79.3502C47.6683 79.2714 47.9593 79.1183 48.2024 78.9037C48.4455 78.689 48.6336 78.4192 48.751 78.1166C48.8685 77.8141 48.9118 77.4877 48.8773 77.1649C48.8428 76.842 48.7315 76.5321 48.5528 76.2611C47.0748 73.9946 45.1228 72.0764 42.832 70.6393C40.5411 69.2022 37.9661 68.2806 35.2852 67.9382C35.0168 67.9157 34.7466 67.9464 34.49 68.0285C34.2335 68.1106 33.9957 68.2425 33.7902 68.4167C33.5846 68.5909 33.4153 68.804 33.292 69.0437C33.1687 69.2835 33.0938 69.5453 33.0715 69.8141C33.0492 70.0829 33.08 70.3535 33.1621 70.6105C33.2443 70.8674 33.3762 71.1057 33.5502 71.3117C33.7243 71.5177 33.9372 71.6873 34.1767 71.811C34.4161 71.9346 34.6776 72.0098 34.9461 72.0323C36.9954 72.3092 38.962 73.0223 40.7138 74.1234C42.4656 75.2246 43.9621 76.6884 45.1025 78.4164C45.3263 78.7952 45.6668 79.091 46.0728 79.2594C46.4788 79.4278 46.9284 79.4597 47.3538 79.3502V79.3502Z" fill="#010101"/> <path d="M90.0694 74.787C76.2179 67.6439 55.8468 70.4774 44.7179 76.9406C27.584 86.7839 23.0151 104.691 22.0828 116.324C21.1505 127.958 23.7112 149.57 39.1932 164.266C46.0382 170.839 54.4969 175.483 63.7105 177.726C72.9242 179.969 82.5649 179.73 91.6539 177.036C108.34 172.088 125.382 157.074 124.945 127.192C124.636 108.183 116.743 88.4933 90.0694 74.787Z" fill="#EE731B"/> <path d="M89.5125 36.7734C81.6209 66.9568 55.216 72.4357 43.1111 68.688C43.1111 68.688 54.2966 39.8795 89.5125 36.7734Z" fill="#41A935"/> <path d="M60.6489 31.7447C66.4857 53.9744 51.9816 66.7592 43.0831 68.5545C42.4519 61.3388 43.753 54.1016 46.8472 47.6176C49.9415 41.1336 54.7122 35.6468 60.6489 31.7447" fill="#70B62E"/> <path d="M107.581 148.669C108.029 148.572 108.433 148.33 108.732 147.981C120.895 133.44 112.459 116.961 112.368 116.795C112.114 116.313 111.679 115.951 111.159 115.79C110.639 115.628 110.077 115.68 109.595 115.934C109.114 116.188 108.753 116.623 108.592 117.144C108.431 117.665 108.484 118.228 108.737 118.71C109.053 119.33 115.928 132.968 105.581 145.328C105.406 145.534 105.273 145.772 105.191 146.029C105.108 146.286 105.078 146.557 105.1 146.826C105.122 147.095 105.198 147.357 105.321 147.597C105.445 147.837 105.615 148.051 105.822 148.225C106.063 148.426 106.347 148.57 106.651 148.647C106.956 148.724 107.274 148.731 107.581 148.669V148.669Z" fill="#F9B812"/> </g> <defs> <clipPath id="clip0_1421_18363"> <rect width="115.534" height="168.897" fill="white" transform="matrix(-0.97846 0.206436 0.206436 0.97846 113.045 0)"/> </clipPath> </defs> </svg>