<svg xmlns="http://www.w3.org/2000/svg" width="304" height="259" viewBox="0 0 304 259" fill="none"> <rect x="44.7559" y="2.06917" width="234.07" height="233.896" rx="13" transform="rotate(5.36487 44.7559 2.06917)" fill="#092355"/> <path fill-rule="evenodd" clip-rule="evenodd" d="M39.885 139.127C43.4194 134.254 46.1291 126.84 46.5241 118.028C46.9191 109.216 44.8838 101.589 41.7996 96.4195C38.6658 91.1671 35.2186 89.4812 32.7404 89.3701C30.2622 89.259 26.678 90.6297 23.0869 95.5806C19.5525 100.453 16.8428 107.868 16.4478 116.68C16.0528 125.491 18.0881 133.119 21.1723 138.288C24.3061 143.541 27.7533 145.227 30.2315 145.338C32.7097 145.449 36.2939 144.078 39.885 139.127ZM29.7836 155.328C43.6063 155.947 55.5739 139.448 56.5141 118.476C57.4542 97.5036 47.0109 79.9998 33.1883 79.3802C19.3656 78.7605 7.398 95.2596 6.45784 116.232C5.51767 137.204 15.961 154.708 29.7836 155.328Z" fill="#515D75"/> <path fill-rule="evenodd" clip-rule="evenodd" d="M281.535 149.96C285.07 145.087 287.779 137.673 288.174 128.861C288.57 120.049 286.534 112.422 283.45 107.252C280.316 102 276.869 100.314 274.391 100.203C271.913 100.092 268.328 101.463 264.737 106.414C261.203 111.286 258.493 118.701 258.098 127.513C257.703 136.324 259.738 143.952 262.823 149.121C265.956 154.374 269.404 156.059 271.882 156.171C274.36 156.282 277.944 154.911 281.535 149.96ZM271.434 166.161C285.257 166.78 297.224 150.281 298.164 129.309C299.105 108.337 288.661 90.8328 274.839 90.2131C261.016 89.5935 249.048 106.093 248.108 127.065C247.168 148.037 257.611 165.541 271.434 166.161Z" fill="#515D75"/> <rect x="33.2188" y="1.55194" width="245.349" height="245.349" rx="13" transform="rotate(2.56679 33.2188 1.55194)" fill="#515D75"/> <path d="M43.2937 13.3408C43.8736 7.16538 49.3499 2.62935 55.5253 3.20928L266.469 23.0188C272.644 23.5987 277.18 29.075 276.6 35.2504L256.807 246.021C256.227 252.196 250.751 256.732 244.575 256.152L33.632 236.343C27.4565 235.763 22.9205 230.287 23.5004 224.111L43.2937 13.3408Z" fill="#092355"/> <path fill-rule="evenodd" clip-rule="evenodd" d="M266.226 25.5992L55.283 5.78964C50.5327 5.34354 46.3202 8.8328 45.8741 13.5831L26.0808 224.354C25.6347 229.104 29.124 233.316 33.8743 233.762L244.818 253.572C249.568 254.018 253.78 250.529 254.227 245.779L274.02 35.0081C274.466 30.2578 270.977 26.0453 266.226 25.5992ZM55.5253 3.20928C49.3499 2.62935 43.8736 7.16538 43.2937 13.3408L23.5004 224.111C22.9205 230.287 27.4565 235.763 33.632 236.343L244.575 256.152C250.751 256.732 256.227 252.196 256.807 246.021L276.6 35.2504C277.18 29.075 272.644 23.5987 266.469 23.0188L55.5253 3.20928Z" fill="#727D92"/> <path d="M89.3207 224.86L120.967 226.278C122.708 224.85 128.905 222.115 139.755 222.602C153.317 223.21 159.488 231.52 177.392 236.339C195.295 241.159 206.863 230.129 219.084 238.208C231.305 246.288 236.297 235.967 236.702 226.948C237.106 217.928 238.995 209.477 238.297 191.369C237.598 173.262 242.928 155.425 249.54 142.667C256.152 129.908 249.981 121.598 251.562 97.5675C253.142 73.5371 262.437 45.8356 258.845 36.1346C255.254 26.4335 247.794 35.6392 238.753 35.2338C229.711 34.8285 211.305 29.9865 199.752 29.4686C188.199 28.9507 160.391 31.721 148.336 31.1805C136.28 30.6401 134.518 25.0379 110.339 25.4603C86.1609 25.8827 89.5648 28.5459 77.8911 19.4867C66.2173 10.4275 57.8657 17.0827 54.4026 26.9696C50.9394 36.8565 48.3318 61.343 52.1113 78.082C55.8908 94.8211 46.1303 110.451 40.6291 143.344C35.128 176.236 47.0569 190.83 46.6076 200.852C46.1583 210.874 41.4578 214.68 48.6331 223.036C55.8084 231.391 70.735 224.027 89.3207 224.86Z" fill="#F9B812"/> <path d="M66.7944 56.0187C67.1691 56.6834 67.4008 58.9841 66.644 59.297C65.8873 59.6099 64.7638 58.0357 64.3947 57.3683C64.3061 57.2108 64.2494 57.0373 64.2278 56.8578C64.2062 56.6783 64.2202 56.4964 64.2689 56.3223C64.3177 56.1482 64.4003 55.9854 64.5119 55.8433C64.6236 55.7011 64.7621 55.5823 64.9197 55.4937C65.0773 55.4051 65.2507 55.3484 65.4302 55.3268C65.6097 55.3052 65.7917 55.3192 65.9658 55.3679C66.3173 55.4664 66.6154 55.7005 66.7944 56.0187Z" fill="#B81819"/> <path d="M115.419 194.046C115.044 193.381 114.812 191.08 115.569 190.767C116.326 190.454 117.449 192.029 117.818 192.696C117.907 192.854 117.964 193.027 117.985 193.206C118.007 193.386 117.993 193.568 117.944 193.742C117.895 193.916 117.813 194.079 117.701 194.221C117.589 194.363 117.451 194.482 117.293 194.571C117.136 194.659 116.962 194.716 116.783 194.738C116.603 194.759 116.421 194.745 116.247 194.696C115.896 194.598 115.598 194.364 115.419 194.046Z" fill="#B81819"/> <path d="M164.645 60.4674C164.212 61.0959 163.775 63.3666 164.501 63.746C165.227 64.1254 166.487 62.658 166.914 62.0264C167.016 61.8774 167.088 61.7097 167.126 61.5328C167.163 61.356 167.166 61.1735 167.133 60.9958C167.1 60.818 167.032 60.6485 166.934 60.4969C166.835 60.3453 166.708 60.2146 166.559 60.1122C166.41 60.0099 166.242 59.9379 166.065 59.9003C165.888 59.8628 165.706 59.8604 165.528 59.8934C165.169 59.96 164.851 60.1665 164.645 60.4674Z" fill="#B81819"/> <path d="M190.243 202.315C190.713 201.713 191.283 199.472 190.581 199.051C189.88 198.629 188.535 200.019 188.071 200.624C187.96 200.766 187.878 200.93 187.83 201.104C187.782 201.278 187.769 201.46 187.791 201.64C187.813 201.819 187.871 201.992 187.96 202.149C188.049 202.307 188.169 202.445 188.311 202.556C188.454 202.667 188.617 202.748 188.791 202.796C188.966 202.844 189.148 202.858 189.327 202.835C189.689 202.79 190.019 202.603 190.243 202.315Z" fill="#B81819"/> <path d="M225.216 203.456C225.685 202.854 226.256 200.613 225.554 200.191C224.852 199.769 223.507 201.159 223.043 201.764C222.932 201.907 222.85 202.07 222.802 202.245C222.754 202.419 222.741 202.601 222.764 202.78C222.786 202.96 222.843 203.133 222.933 203.29C223.022 203.447 223.141 203.585 223.284 203.696C223.427 203.807 223.59 203.889 223.764 203.937C223.938 203.985 224.12 203.998 224.3 203.976C224.662 203.931 224.992 203.744 225.216 203.456Z" fill="#B81819"/> <path d="M58.9721 111.935C59.3469 112.599 59.5785 114.9 58.8218 115.213C58.065 115.526 56.9415 113.952 56.5724 113.284C56.4838 113.127 56.4271 112.953 56.4055 112.774C56.384 112.594 56.3979 112.412 56.4467 112.238C56.4954 112.064 56.578 111.901 56.6897 111.759C56.8013 111.617 56.9399 111.498 57.0974 111.41C57.255 111.321 57.4285 111.264 57.608 111.243C57.7874 111.221 57.9694 111.235 58.1435 111.284C58.4951 111.382 58.7931 111.616 58.9721 111.935Z" fill="#B81819"/> <path d="M123.239 138.13C122.864 137.465 122.632 135.164 123.389 134.851C124.146 134.538 125.269 136.113 125.638 136.78C125.727 136.938 125.784 137.111 125.805 137.29C125.827 137.47 125.813 137.652 125.764 137.826C125.716 138 125.633 138.163 125.521 138.305C125.41 138.447 125.271 138.566 125.113 138.655C124.956 138.743 124.782 138.8 124.603 138.822C124.423 138.843 124.242 138.829 124.067 138.78C123.716 138.682 123.418 138.448 123.239 138.13Z" fill="#B81819"/> <path d="M167.43 116.859C166.997 117.487 166.561 119.758 167.286 120.137C168.012 120.517 169.272 119.049 169.699 118.418C169.802 118.269 169.874 118.101 169.911 117.924C169.949 117.747 169.951 117.565 169.918 117.387C169.885 117.209 169.817 117.04 169.719 116.888C169.62 116.737 169.493 116.606 169.344 116.504C169.195 116.401 169.027 116.329 168.85 116.292C168.674 116.254 168.491 116.252 168.313 116.285C167.954 116.351 167.637 116.558 167.43 116.859Z" fill="#B81819"/> <path d="M190.815 145.858C191.285 145.256 191.856 143.015 191.154 142.593C190.452 142.172 189.107 143.561 188.643 144.167C188.532 144.309 188.45 144.472 188.402 144.647C188.354 144.821 188.341 145.003 188.363 145.182C188.385 145.362 188.443 145.535 188.532 145.692C188.622 145.849 188.741 145.987 188.884 146.098C189.026 146.209 189.189 146.291 189.364 146.339C189.538 146.387 189.72 146.4 189.899 146.378C190.262 146.333 190.591 146.146 190.815 145.858Z" fill="#B81819"/> <path d="M236.265 147.895C236.734 147.293 237.305 145.053 236.603 144.631C235.901 144.209 234.556 145.599 234.092 146.204C233.981 146.347 233.899 146.51 233.851 146.684C233.803 146.858 233.79 147.04 233.812 147.22C233.835 147.399 233.892 147.572 233.981 147.73C234.071 147.887 234.19 148.025 234.333 148.136C234.475 148.247 234.639 148.329 234.813 148.377C234.987 148.425 235.169 148.438 235.349 148.416C235.711 148.37 236.04 148.183 236.265 147.895Z" fill="#B81819"/> <path d="M50.9194 156.542C51.2941 157.207 51.5258 159.507 50.769 159.82C50.0123 160.133 48.8888 158.559 48.5197 157.892C48.4311 157.734 48.3744 157.56 48.3528 157.381C48.3312 157.201 48.3452 157.02 48.3939 156.845C48.4427 156.671 48.5253 156.509 48.6369 156.366C48.7486 156.224 48.8871 156.105 49.0447 156.017C49.2023 155.928 49.3757 155.872 49.5552 155.85C49.7347 155.828 49.9167 155.842 50.0908 155.891C50.4423 155.99 50.7404 156.224 50.9194 156.542Z" fill="#B81819"/> <path d="M131.292 93.5224C130.917 92.8577 130.685 90.557 131.442 90.2441C132.199 89.9312 133.322 91.5054 133.691 92.1728C133.78 92.3303 133.837 92.5038 133.858 92.6833C133.88 92.8628 133.866 93.0448 133.817 93.2188C133.768 93.3929 133.686 93.5557 133.574 93.6979C133.462 93.84 133.324 93.9588 133.166 94.0474C133.009 94.1361 132.835 94.1928 132.656 94.2143C132.476 94.2359 132.294 94.2219 132.12 94.1732C131.769 94.0747 131.471 93.8406 131.292 93.5224Z" fill="#B81819"/> <path d="M171.459 162.008C171.026 162.636 170.59 164.907 171.316 165.286C172.041 165.666 173.301 164.198 173.728 163.567C173.831 163.418 173.903 163.25 173.94 163.073C173.978 162.896 173.98 162.714 173.947 162.536C173.914 162.358 173.847 162.189 173.748 162.037C173.65 161.886 173.522 161.755 173.373 161.653C173.224 161.55 173.057 161.478 172.88 161.441C172.703 161.403 172.52 161.401 172.343 161.434C171.984 161.5 171.666 161.707 171.459 162.008Z" fill="#B81819"/> <path d="M183.397 75.3241C183.867 74.7224 184.438 72.4817 183.736 72.0598C183.034 71.638 181.689 73.0278 181.225 73.633C181.114 73.7756 181.032 73.9387 180.984 74.113C180.936 74.2873 180.923 74.4694 180.945 74.6487C180.968 74.8281 181.025 75.0013 181.114 75.1585C181.204 75.3157 181.323 75.4538 181.466 75.5648C181.608 75.6758 181.771 75.7577 181.946 75.8057C182.12 75.8537 182.302 75.8669 182.481 75.8445C182.844 75.7994 183.173 75.6122 183.397 75.3241Z" fill="#B81819"/> <path d="M236.442 88.0793C236.912 87.4776 237.483 85.2369 236.781 84.815C236.079 84.3932 234.734 85.783 234.27 86.3881C234.159 86.5308 234.077 86.6939 234.029 86.8682C233.981 87.0425 233.968 87.2245 233.99 87.4039C234.012 87.5833 234.07 87.7565 234.159 87.9137C234.249 88.0709 234.368 88.209 234.511 88.32C234.653 88.431 234.816 88.5129 234.991 88.5609C235.165 88.6089 235.347 88.6221 235.526 88.5997C235.889 88.5546 236.218 88.3674 236.442 88.0793Z" fill="#B81819"/> <path d="M56.4037 207.809C56.7785 208.474 57.0102 210.775 56.2534 211.088C55.4967 211.4 54.3731 209.826 54.0041 209.159C53.9155 209.001 53.8587 208.828 53.8372 208.648C53.8156 208.469 53.8296 208.287 53.8783 208.113C53.9271 207.939 54.0096 207.776 54.1213 207.634C54.233 207.492 54.3715 207.373 54.5291 207.284C54.6866 207.196 54.8601 207.139 55.0396 207.117C55.2191 207.096 55.4011 207.11 55.5751 207.159C55.9267 207.257 56.2248 207.491 56.4037 207.809Z" fill="#B81819"/> <path d="M125.807 42.255C125.432 41.5903 125.201 39.2896 125.958 38.9767C126.714 38.6638 127.838 40.238 128.207 40.9053C128.295 41.0629 128.352 41.2364 128.374 41.4159C128.395 41.5954 128.381 41.7773 128.333 41.9514C128.284 42.1255 128.201 42.2882 128.09 42.4304C127.978 42.5726 127.839 42.6914 127.682 42.78C127.524 42.8686 127.351 42.9253 127.171 42.9469C126.992 42.9685 126.81 42.9545 126.636 42.9057C126.284 42.8073 125.986 42.5732 125.807 42.255Z" fill="#B81819"/> <path d="M161.41 212.579C160.978 213.207 160.541 215.478 161.267 215.857C161.992 216.237 163.252 214.769 163.68 214.138C163.782 213.989 163.854 213.821 163.892 213.644C163.929 213.467 163.931 213.285 163.898 213.107C163.866 212.929 163.798 212.76 163.699 212.608C163.601 212.457 163.473 212.326 163.324 212.224C163.175 212.121 163.008 212.049 162.831 212.012C162.654 211.974 162.472 211.972 162.294 212.005C161.935 212.071 161.617 212.278 161.41 212.579Z" fill="#B81819"/> <path d="M202.517 50.6649C202.986 50.0633 203.557 47.8225 202.855 47.4007C202.153 46.9788 200.808 48.3687 200.344 48.9738C200.233 49.1165 200.151 49.2796 200.103 49.4539C200.055 49.6282 200.042 49.8102 200.064 49.9896C200.087 50.169 200.144 50.3422 200.233 50.4994C200.323 50.6566 200.442 50.7946 200.585 50.9057C200.727 51.0167 200.891 51.0986 201.065 51.1466C201.239 51.1946 201.421 51.2078 201.601 51.1854C201.963 51.1403 202.292 50.953 202.517 50.6649Z" fill="#B81819"/> <path d="M247.966 52.7024C248.435 52.1008 249.006 49.86 248.304 49.4382C247.602 49.0163 246.257 50.4062 245.793 51.0113C245.682 51.154 245.6 51.3171 245.552 51.4914C245.504 51.6657 245.491 51.8477 245.514 52.0271C245.536 52.2065 245.593 52.3797 245.683 52.5369C245.772 52.694 245.891 52.8321 246.034 52.9432C246.177 53.0542 246.34 53.136 246.514 53.184C246.688 53.232 246.87 53.2452 247.05 53.2229C247.412 53.1777 247.742 52.9905 247.966 52.7024Z" fill="#B81819"/> <path d="M88.5949 42.5157C88.3488 43.238 86.7871 44.9433 86.0496 44.5873C85.3122 44.2313 85.7379 42.3447 85.9898 41.6249C86.0483 41.4539 86.1399 41.296 86.2594 41.1603C86.3789 41.0247 86.524 40.9139 86.6863 40.8343C86.8486 40.7547 87.025 40.7079 87.2054 40.6965C87.3858 40.6851 87.5667 40.7093 87.7378 40.7678C87.9088 40.8263 88.0667 40.9179 88.2023 41.0374C88.338 41.1569 88.4487 41.3019 88.5283 41.4642C88.6891 41.792 88.713 42.1703 88.5949 42.5157Z" fill="#B81819"/> <path d="M93.616 207.549C93.8622 206.826 95.4239 205.121 96.1613 205.477C96.8988 205.833 96.473 207.72 96.2211 208.439C96.1626 208.61 96.071 208.768 95.9515 208.904C95.832 209.04 95.687 209.15 95.5247 209.23C95.3623 209.31 95.1859 209.356 95.0055 209.368C94.8251 209.379 94.6442 209.355 94.4732 209.296C94.3021 209.238 94.1443 209.146 94.0086 209.027C93.873 208.907 93.7622 208.762 93.6826 208.6C93.5219 208.272 93.4979 207.894 93.616 207.549Z" fill="#B81819"/> <path d="M144.139 45.0678C144.32 45.8092 145.723 47.6474 146.489 47.3588C147.256 47.0702 147 45.1531 146.814 44.4137C146.771 44.2381 146.694 44.0726 146.587 43.9268C146.48 43.7811 146.345 43.6577 146.191 43.5639C146.036 43.4701 145.865 43.4077 145.686 43.3802C145.508 43.3527 145.325 43.3606 145.15 43.4036C144.974 43.4465 144.809 43.5236 144.663 43.6305C144.517 43.7374 144.394 43.872 144.3 44.0265C144.11 44.3386 144.053 44.7132 144.139 45.0678Z" fill="#B81819"/> <path d="M202.331 222.917C202.195 222.166 200.903 220.248 200.121 220.491C199.339 220.733 199.48 222.662 199.622 223.411C199.655 223.589 199.722 223.759 199.82 223.911C199.918 224.062 200.045 224.194 200.194 224.296C200.342 224.399 200.51 224.472 200.686 224.51C200.863 224.548 201.046 224.551 201.223 224.518C201.401 224.486 201.571 224.419 201.723 224.321C201.875 224.223 202.006 224.096 202.109 223.947C202.316 223.647 202.396 223.276 202.331 222.917Z" fill="#B81819"/> <path d="M82.8605 93.2802C82.6144 94.0025 81.0527 95.7078 80.3152 95.3518C79.5778 94.9958 80.0035 93.1092 80.2555 92.3894C80.314 92.2184 80.4056 92.0605 80.5251 91.9249C80.6446 91.7892 80.7896 91.6784 80.9519 91.5988C81.1142 91.5193 81.2906 91.4724 81.471 91.461C81.6514 91.4496 81.8324 91.4738 82.0034 91.5323C82.1745 91.5908 82.3323 91.6824 82.4679 91.8019C82.6036 91.9214 82.7144 92.0664 82.794 92.2288C82.9547 92.5566 82.9786 92.9348 82.8605 93.2802Z" fill="#B81819"/> <path d="M99.3504 156.784C99.5965 156.062 101.158 154.357 101.896 154.712C102.633 155.068 102.207 156.955 101.955 157.675C101.897 157.846 101.805 158.004 101.686 158.139C101.566 158.275 101.421 158.386 101.259 158.465C101.097 158.545 100.92 158.592 100.74 158.603C100.559 158.615 100.379 158.59 100.208 158.532C100.036 158.473 99.8786 158.382 99.743 158.262C99.6073 158.143 99.4966 157.998 99.417 157.836C99.2562 157.508 99.2323 157.13 99.3504 156.784Z" fill="#B81819"/> <path d="M153.593 104.234C153.773 104.975 155.176 106.814 155.942 106.525C156.709 106.236 156.453 104.319 156.267 103.58C156.224 103.404 156.147 103.239 156.04 103.093C155.933 102.947 155.799 102.824 155.644 102.73C155.489 102.636 155.318 102.574 155.139 102.546C154.961 102.519 154.778 102.527 154.603 102.57C154.427 102.613 154.262 102.69 154.116 102.797C153.97 102.904 153.847 103.038 153.753 103.193C153.564 103.505 153.506 103.879 153.593 104.234Z" fill="#B81819"/> <path d="M211.667 167.853C211.531 167.102 210.239 165.184 209.457 165.427C208.675 165.669 208.816 167.598 208.958 168.347C208.991 168.525 209.058 168.695 209.156 168.847C209.254 168.999 209.381 169.13 209.529 169.232C209.678 169.335 209.846 169.408 210.022 169.446C210.199 169.484 210.382 169.487 210.559 169.454C210.737 169.422 210.907 169.355 211.059 169.257C211.211 169.159 211.342 169.032 211.445 168.883C211.652 168.583 211.732 168.212 211.667 167.853Z" fill="#B81819"/> <path d="M76.5343 137.965C76.2882 138.687 74.7265 140.392 73.9891 140.036C73.2516 139.68 73.6773 137.794 73.9293 137.074C73.9878 136.903 74.0794 136.745 74.1989 136.609C74.3184 136.474 74.4634 136.363 74.6257 136.283C74.7881 136.204 74.9644 136.157 75.1449 136.146C75.3253 136.134 75.5062 136.158 75.6772 136.217C75.8483 136.275 76.0061 136.367 76.1418 136.486C76.2774 136.606 76.3882 136.751 76.4678 136.913C76.6285 137.241 76.6525 137.619 76.5343 137.965Z" fill="#B81819"/> <path d="M105.679 112.1C105.925 111.377 107.486 109.672 108.224 110.028C108.961 110.384 108.536 112.271 108.284 112.99C108.225 113.161 108.133 113.319 108.014 113.455C107.894 113.591 107.749 113.701 107.587 113.781C107.425 113.86 107.248 113.907 107.068 113.919C106.888 113.93 106.707 113.906 106.536 113.847C106.365 113.789 106.207 113.697 106.071 113.578C105.935 113.458 105.825 113.313 105.745 113.151C105.584 112.823 105.56 112.445 105.679 112.1Z" fill="#B81819"/> <path d="M147.612 141.213C147.793 141.955 149.196 143.793 149.962 143.504C150.728 143.216 150.473 141.299 150.286 140.559C150.244 140.384 150.166 140.218 150.06 140.072C149.953 139.927 149.818 139.803 149.664 139.709C149.509 139.616 149.338 139.553 149.159 139.526C148.98 139.498 148.798 139.506 148.622 139.549C148.447 139.592 148.281 139.669 148.135 139.776C147.99 139.883 147.866 140.017 147.773 140.172C147.583 140.484 147.525 140.859 147.612 141.213Z" fill="#B81819"/> <path d="M212.047 122.725C211.911 121.974 210.62 120.055 209.838 120.298C209.056 120.54 209.197 122.469 209.339 123.219C209.371 123.396 209.439 123.566 209.537 123.718C209.635 123.87 209.762 124.001 209.91 124.104C210.059 124.207 210.226 124.279 210.403 124.317C210.58 124.355 210.762 124.358 210.94 124.326C211.118 124.293 211.288 124.226 211.44 124.128C211.592 124.03 211.723 123.903 211.825 123.755C212.033 123.454 212.113 123.084 212.047 122.725Z" fill="#B81819"/> <path d="M75.9406 193.52C75.6945 194.243 74.1328 195.948 73.3953 195.592C72.6579 195.236 73.0836 193.349 73.3355 192.629C73.394 192.458 73.4856 192.301 73.6051 192.165C73.7246 192.029 73.8697 191.918 74.032 191.839C74.1943 191.759 74.3707 191.712 74.5511 191.701C74.7315 191.69 74.9124 191.714 75.0835 191.772C75.2545 191.831 75.4124 191.922 75.548 192.042C75.6837 192.161 75.7945 192.306 75.874 192.469C76.0348 192.797 76.0587 193.175 75.9406 193.52Z" fill="#B81819"/> <path d="M106.27 56.544C106.516 55.8218 108.078 54.1165 108.816 54.4725C109.553 54.8285 109.127 56.7151 108.875 57.4349C108.817 57.6059 108.725 57.7638 108.606 57.8994C108.486 58.0351 108.341 58.1458 108.179 58.2254C108.017 58.305 107.84 58.3519 107.66 58.3633C107.479 58.3747 107.299 58.3505 107.127 58.292C106.956 58.2335 106.799 58.1419 106.663 58.0224C106.527 57.9029 106.416 57.7578 106.337 57.5955C106.176 57.2677 106.152 56.8895 106.27 56.544Z" fill="#B81819"/> <path d="M143.231 196.599C143.412 197.34 144.815 199.178 145.581 198.89C146.347 198.601 146.092 196.684 145.906 195.945C145.863 195.769 145.786 195.604 145.679 195.458C145.572 195.312 145.437 195.189 145.283 195.095C145.128 195.001 144.957 194.939 144.778 194.911C144.599 194.884 144.417 194.892 144.241 194.935C144.066 194.978 143.9 195.055 143.755 195.162C143.609 195.268 143.485 195.403 143.392 195.558C143.202 195.87 143.145 196.244 143.231 196.599Z" fill="#B81819"/> <path d="M219.713 67.6974C219.577 66.9466 218.286 65.0283 217.504 65.2708C216.722 65.5133 216.863 67.4422 217.005 68.1914C217.037 68.3692 217.105 68.539 217.203 68.6908C217.301 68.8427 217.428 68.9738 217.576 69.0767C217.725 69.1795 217.892 69.252 218.069 69.2901C218.246 69.3282 218.428 69.3311 218.606 69.2986C218.784 69.2662 218.954 69.1991 219.106 69.101C219.258 69.003 219.389 68.876 219.492 68.7274C219.699 68.4271 219.779 68.0566 219.713 67.6974Z" fill="#B81819"/> <path d="M83.7883 72.5673C83.5421 73.2896 81.9804 74.9949 81.243 74.6389C80.5055 74.2829 80.9313 72.3963 81.1832 71.6765C81.2417 71.5055 81.3333 71.3476 81.4528 71.212C81.5723 71.0763 81.7173 70.9655 81.8796 70.8859C82.042 70.8063 82.2184 70.7595 82.3988 70.7481C82.5792 70.7367 82.7601 70.7609 82.9311 70.8194C83.1022 70.8779 83.26 70.9695 83.3957 71.089C83.5313 71.2085 83.6421 71.3535 83.7217 71.5158C83.8824 71.8436 83.9064 72.2219 83.7883 72.5673Z" fill="#B81819"/> <path d="M98.4227 177.497C98.6688 176.775 100.231 175.069 100.968 175.425C101.705 175.781 101.28 177.668 101.028 178.388C100.969 178.559 100.878 178.717 100.758 178.852C100.639 178.988 100.494 179.099 100.331 179.178C100.169 179.258 99.9926 179.305 99.8122 179.316C99.6318 179.328 99.4508 179.303 99.2798 179.245C99.1087 179.186 98.9509 179.095 98.8153 178.975C98.6796 178.856 98.5688 178.711 98.4892 178.548C98.3285 178.221 98.3046 177.842 98.4227 177.497Z" fill="#B81819"/> <path d="M146.237 75.4289C146.418 76.1703 147.821 78.0085 148.587 77.7199C149.353 77.4313 149.098 75.5142 148.911 74.7748C148.869 74.5992 148.791 74.4337 148.685 74.2879C148.578 74.1422 148.443 74.0188 148.289 73.925C148.134 73.8312 147.963 73.7688 147.784 73.7413C147.605 73.7138 147.423 73.7217 147.247 73.7647C147.072 73.8076 146.906 73.8847 146.76 73.9916C146.615 74.0985 146.491 74.2331 146.398 74.3876C146.208 74.6997 146.15 75.0743 146.237 75.4289Z" fill="#B81819"/> <path d="M209.508 188.474C209.372 187.723 208.081 185.805 207.299 186.048C206.517 186.29 206.658 188.219 206.8 188.968C206.832 189.146 206.9 189.316 206.998 189.468C207.096 189.62 207.223 189.751 207.371 189.854C207.52 189.956 207.687 190.029 207.864 190.067C208.041 190.105 208.223 190.108 208.401 190.076C208.579 190.043 208.749 189.976 208.901 189.878C209.053 189.78 209.184 189.653 209.286 189.504C209.494 189.204 209.574 188.833 209.508 188.474Z" fill="#B81819"/> <path d="M84.2883 119.287C84.0421 120.01 82.4804 121.715 81.743 121.359C81.0055 121.003 81.4313 119.116 81.6832 118.397C81.7417 118.226 81.8333 118.068 81.9528 117.932C82.0723 117.796 82.2173 117.686 82.3796 117.606C82.542 117.526 82.7184 117.48 82.8988 117.468C83.0792 117.457 83.2601 117.481 83.4311 117.54C83.6022 117.598 83.76 117.69 83.8957 117.809C84.0313 117.929 84.1421 118.074 84.2217 118.236C84.3824 118.564 84.4064 118.942 84.2883 119.287Z" fill="#B81819"/> <path d="M97.9227 130.777C98.1688 130.055 99.7305 128.349 100.468 128.705C101.205 129.061 100.78 130.948 100.528 131.668C100.469 131.839 100.378 131.997 100.258 132.132C100.139 132.268 99.9936 132.379 99.8313 132.458C99.669 132.538 99.4926 132.585 99.3122 132.596C99.1318 132.607 98.9508 132.583 98.7798 132.525C98.6087 132.466 98.4509 132.375 98.3153 132.255C98.1796 132.136 98.0688 131.991 97.9892 131.828C97.8285 131.501 97.8046 131.122 97.9227 130.777Z" fill="#B81819"/> <path d="M141.559 121.917C141.74 122.658 143.143 124.496 143.909 124.208C144.675 123.919 144.42 122.002 144.234 121.263C144.191 121.087 144.114 120.922 144.007 120.776C143.9 120.63 143.765 120.507 143.611 120.413C143.456 120.319 143.285 120.257 143.106 120.229C142.927 120.202 142.745 120.21 142.569 120.253C142.394 120.296 142.228 120.373 142.083 120.48C141.937 120.587 141.814 120.721 141.72 120.876C141.53 121.188 141.473 121.562 141.559 121.917Z" fill="#B81819"/> <path d="M216.942 142.347C216.806 141.596 215.515 139.678 214.733 139.92C213.951 140.163 214.091 142.091 214.234 142.841C214.266 143.019 214.333 143.188 214.431 143.34C214.529 143.492 214.656 143.623 214.805 143.726C214.954 143.829 215.121 143.901 215.298 143.939C215.474 143.977 215.657 143.98 215.835 143.948C216.013 143.916 216.182 143.848 216.334 143.75C216.486 143.652 216.617 143.525 216.72 143.377C216.928 143.076 217.008 142.706 216.942 142.347Z" fill="#B81819"/> <path d="M80.5519 164.088C80.3058 164.81 78.7441 166.516 78.0066 166.16C77.2692 165.804 77.6949 163.917 77.9469 163.197C78.0054 163.026 78.097 162.868 78.2165 162.733C78.336 162.597 78.481 162.486 78.6433 162.407C78.8056 162.327 78.982 162.28 79.1624 162.269C79.3429 162.257 79.5238 162.282 79.6948 162.34C79.8659 162.399 80.0237 162.49 80.1594 162.61C80.295 162.729 80.4058 162.874 80.4854 163.037C80.6461 163.364 80.6701 163.743 80.5519 164.088Z" fill="#B81819"/> <path d="M101.661 85.9762C101.907 85.2539 103.469 83.5487 104.206 83.9047C104.944 84.2607 104.518 86.1472 104.266 86.867C104.208 87.0381 104.116 87.1959 103.996 87.3316C103.877 87.4672 103.732 87.578 103.57 87.6576C103.407 87.7372 103.231 87.784 103.05 87.7955C102.87 87.8069 102.689 87.7826 102.518 87.7242C102.347 87.6657 102.189 87.5741 102.054 87.4546C101.918 87.3351 101.807 87.19 101.728 87.0277C101.567 86.6999 101.543 86.3217 101.661 85.9762Z" fill="#B81819"/> <path d="M141.272 166.872C141.453 167.614 142.856 169.452 143.622 169.163C144.388 168.875 144.133 166.958 143.947 166.218C143.904 166.043 143.827 165.877 143.72 165.731C143.613 165.586 143.478 165.462 143.324 165.369C143.169 165.275 142.998 165.212 142.819 165.185C142.64 165.157 142.458 165.165 142.282 165.208C142.107 165.251 141.941 165.328 141.796 165.435C141.65 165.542 141.526 165.677 141.433 165.831C141.243 166.143 141.186 166.518 141.272 166.872Z" fill="#B81819"/> <path d="M219.899 97.4878C219.763 96.7369 218.472 94.8186 217.69 95.0611C216.908 95.3036 217.048 97.2325 217.191 97.9818C217.223 98.1596 217.29 98.3293 217.388 98.4812C217.486 98.6331 217.613 98.7642 217.762 98.867C217.911 98.9698 218.078 99.0423 218.255 99.0804C218.431 99.1185 218.614 99.1214 218.792 99.089C218.97 99.0566 219.139 98.9894 219.291 98.8914C219.443 98.7934 219.574 98.6664 219.677 98.5177C219.885 98.2174 219.965 97.8469 219.899 97.4878Z" fill="#B81819"/> <path d="M77.4445 214.106C77.1984 214.828 75.6367 216.533 74.8992 216.177C74.1618 215.821 74.5875 213.935 74.8394 213.215C74.8979 213.044 74.9896 212.886 75.1091 212.75C75.2285 212.615 75.3736 212.504 75.5359 212.424C75.6982 212.345 75.8746 212.298 76.055 212.286C76.2354 212.275 76.4163 212.299 76.5874 212.358C76.7584 212.416 76.9163 212.508 77.0519 212.627C77.1876 212.747 77.2984 212.892 77.3779 213.054C77.5387 213.382 77.5626 213.76 77.4445 214.106Z" fill="#B81819"/> <path d="M104.768 35.9587C105.015 35.2364 106.576 33.5311 107.314 33.8871C108.051 34.2431 107.625 36.1297 107.373 36.8495C107.315 37.0205 107.223 37.1784 107.104 37.314C106.984 37.4497 106.839 37.5605 106.677 37.6401C106.515 37.7196 106.338 37.7665 106.158 37.7779C105.977 37.7893 105.797 37.7651 105.625 37.7066C105.454 37.6481 105.297 37.5565 105.161 37.437C105.025 37.3175 104.915 37.1725 104.835 37.0102C104.674 36.6824 104.65 36.3041 104.768 35.9587Z" fill="#B81819"/> <path d="M134.987 210.632C135.168 211.373 136.571 213.211 137.337 212.923C138.103 212.634 137.848 210.717 137.661 209.978C137.619 209.802 137.541 209.637 137.435 209.491C137.328 209.345 137.193 209.222 137.039 209.128C136.884 209.034 136.713 208.972 136.534 208.944C136.355 208.917 136.173 208.925 135.997 208.968C135.822 209.011 135.656 209.088 135.51 209.195C135.365 209.301 135.241 209.436 135.148 209.591C134.958 209.903 134.9 210.277 134.987 210.632Z" fill="#B81819"/> <path d="M224.256 47.5637C224.12 46.8129 222.829 44.8946 222.047 45.1371C221.265 45.3796 221.406 47.3084 221.548 48.0577C221.58 48.2355 221.648 48.4052 221.746 48.5571C221.844 48.709 221.971 48.8401 222.119 48.9429C222.268 49.0458 222.435 49.1183 222.612 49.1564C222.789 49.1945 222.971 49.1974 223.149 49.1649C223.327 49.1325 223.497 49.0654 223.649 48.9673C223.801 48.8693 223.932 48.7423 224.034 48.5936C224.242 48.2933 224.322 47.9229 224.256 47.5637Z" fill="#B81819"/> <path d="M66.522 32.5751C66.972 33.1914 67.471 35.4492 66.756 35.8484C66.041 36.2477 64.7412 34.8156 64.2966 34.196C64.1902 34.0499 64.1136 33.8842 64.0712 33.7085C64.0288 33.5327 64.0214 33.3504 64.0494 33.1718C64.0775 32.9932 64.1405 32.8219 64.2348 32.6677C64.329 32.5134 64.4528 32.3792 64.5989 32.2728C64.745 32.1664 64.9106 32.0898 65.0864 32.0474C65.2621 32.005 65.4445 31.9976 65.6231 32.0256C65.9837 32.0823 66.3071 32.28 66.522 32.5751Z" fill="#B81819"/> <path d="M115.691 217.489C115.241 216.873 114.742 214.615 115.457 214.216C116.172 213.817 117.472 215.249 117.916 215.868C118.023 216.014 118.099 216.18 118.142 216.356C118.184 216.532 118.192 216.714 118.163 216.893C118.135 217.071 118.072 217.242 117.978 217.397C117.884 217.551 117.76 217.685 117.614 217.791C117.468 217.898 117.302 217.975 117.127 218.017C116.951 218.059 116.768 218.067 116.59 218.039C116.229 217.982 115.906 217.784 115.691 217.489Z" fill="#B81819"/> <path d="M167.013 37.1421C166.51 37.7157 165.811 39.9198 166.487 40.3814C167.164 40.843 168.586 39.533 169.085 38.9557C169.204 38.8196 169.295 38.6615 169.353 38.4903C169.411 38.319 169.434 38.1381 169.422 37.9577C169.41 37.7773 169.363 37.6011 169.283 37.439C169.203 37.2769 169.092 37.1322 168.956 37.0131C168.82 36.8941 168.661 36.8029 168.49 36.745C168.319 36.687 168.138 36.6633 167.958 36.6753C167.593 36.6995 167.254 36.8674 167.013 37.1421Z" fill="#B81819"/> <path d="M182.452 230.149C182.988 229.606 183.817 227.448 183.169 226.947C182.522 226.446 181.023 227.669 180.492 228.216C180.365 228.344 180.264 228.497 180.196 228.664C180.128 228.832 180.094 229.011 180.095 229.192C180.096 229.372 180.133 229.551 180.204 229.718C180.274 229.884 180.376 230.035 180.505 230.162C180.634 230.289 180.786 230.39 180.954 230.458C181.121 230.526 181.3 230.56 181.481 230.559C181.846 230.556 182.195 230.409 182.452 230.149Z" fill="#B81819"/> <path d="M221.752 221.534C222.289 220.991 223.118 218.832 222.47 218.331C221.822 217.83 220.324 219.053 219.793 219.6C219.666 219.729 219.565 219.881 219.497 220.049C219.429 220.216 219.395 220.395 219.396 220.576C219.397 220.757 219.434 220.936 219.504 221.102C219.575 221.269 219.677 221.42 219.806 221.547C219.934 221.674 220.087 221.774 220.254 221.842C220.422 221.91 220.601 221.945 220.782 221.943C221.147 221.941 221.496 221.794 221.752 221.534Z" fill="#B81819"/> <path d="M64.3131 81.8302C64.763 82.4465 65.262 84.7044 64.547 85.1036C63.8321 85.5029 62.5322 84.0708 62.0876 83.4512C61.9812 83.305 61.9046 83.1394 61.8622 82.9636C61.8198 82.7879 61.8124 82.6056 61.8405 82.427C61.8685 82.2484 61.9315 82.0771 62.0258 81.9228C62.12 81.7686 62.2438 81.6344 62.3899 81.528C62.536 81.4215 62.7017 81.345 62.8774 81.3025C63.0531 81.2601 63.2355 81.2527 63.4141 81.2808C63.7747 81.3375 64.0981 81.5351 64.3131 81.8302Z" fill="#B81819"/> <path d="M117.898 168.234C117.448 167.618 116.949 165.36 117.664 164.961C118.379 164.561 119.679 165.993 120.123 166.613C120.23 166.759 120.306 166.925 120.349 167.101C120.391 167.276 120.399 167.459 120.37 167.637C120.342 167.816 120.279 167.987 120.185 168.141C120.091 168.296 119.967 168.43 119.821 168.536C119.675 168.643 119.509 168.719 119.334 168.762C119.158 168.804 118.975 168.812 118.797 168.783C118.436 168.727 118.113 168.529 117.898 168.234Z" fill="#B81819"/> <path d="M164.806 86.3973C164.303 86.9709 163.604 89.175 164.28 89.6367C164.957 90.0983 166.379 88.7883 166.878 88.2109C166.997 88.0749 167.088 87.9167 167.146 87.7455C167.204 87.5743 167.227 87.3933 167.215 87.2129C167.203 87.0325 167.156 86.8563 167.076 86.6942C166.996 86.5322 166.885 86.3875 166.749 86.2684C166.613 86.1493 166.454 86.0582 166.283 86.0002C166.112 85.9423 165.931 85.9186 165.751 85.9306C165.386 85.9547 165.047 86.1226 164.806 86.3973Z" fill="#B81819"/> <path d="M191.624 176.421C192.16 175.879 192.989 173.72 192.341 173.219C191.693 172.718 190.195 173.941 189.664 174.488C189.537 174.616 189.436 174.769 189.368 174.936C189.3 175.104 189.266 175.283 189.267 175.464C189.268 175.645 189.305 175.823 189.375 175.99C189.446 176.157 189.548 176.308 189.677 176.435C189.806 176.562 189.958 176.662 190.125 176.73C190.293 176.798 190.472 176.832 190.653 176.831C191.018 176.829 191.367 176.681 191.624 176.421Z" fill="#B81819"/> <path d="M61.8599 143.119C62.3099 143.735 62.8089 145.993 62.0939 146.393C61.3789 146.792 60.0791 145.36 59.6345 144.74C59.5281 144.594 59.4515 144.428 59.4091 144.253C59.3667 144.077 59.3593 143.894 59.3873 143.716C59.4154 143.537 59.4784 143.366 59.5726 143.212C59.6669 143.058 59.7906 142.923 59.9368 142.817C60.0829 142.71 60.2485 142.634 60.4243 142.591C60.6 142.549 60.7824 142.542 60.9609 142.57C61.3216 142.626 61.645 142.824 61.8599 143.119Z" fill="#B81819"/> <path d="M120.351 106.945C119.901 106.329 119.402 104.071 120.117 103.672C120.832 103.273 122.132 104.705 122.576 105.324C122.683 105.47 122.759 105.636 122.802 105.812C122.844 105.987 122.852 106.17 122.824 106.348C122.796 106.527 122.733 106.698 122.638 106.853C122.544 107.007 122.42 107.141 122.274 107.247C122.128 107.354 121.962 107.43 121.787 107.473C121.611 107.515 121.429 107.523 121.25 107.495C120.889 107.438 120.566 107.24 120.351 106.945Z" fill="#B81819"/> <path d="M161.765 147.66C161.262 148.233 160.563 150.438 161.239 150.899C161.916 151.361 163.338 150.051 163.837 149.473C163.956 149.337 164.047 149.179 164.105 149.008C164.163 148.837 164.186 148.656 164.174 148.475C164.162 148.295 164.115 148.119 164.035 147.957C163.955 147.795 163.844 147.65 163.708 147.531C163.572 147.412 163.413 147.321 163.242 147.263C163.071 147.205 162.89 147.181 162.71 147.193C162.345 147.217 162.006 147.385 161.765 147.66Z" fill="#B81819"/> <path d="M191.68 120.737C192.217 120.194 193.046 118.035 192.398 117.534C191.75 117.033 190.252 118.256 189.72 118.803C189.593 118.932 189.493 119.084 189.425 119.252C189.357 119.419 189.322 119.598 189.324 119.779C189.325 119.96 189.362 120.139 189.432 120.305C189.502 120.472 189.605 120.623 189.733 120.75C189.862 120.877 190.015 120.977 190.182 121.045C190.35 121.113 190.529 121.148 190.71 121.146C191.075 121.144 191.424 120.997 191.68 120.737Z" fill="#B81819"/> <path d="M240.719 126.394C241.256 125.851 242.085 123.693 241.437 123.192C240.789 122.691 239.291 123.914 238.759 124.461C238.632 124.589 238.532 124.742 238.464 124.909C238.396 125.077 238.362 125.256 238.363 125.437C238.364 125.617 238.401 125.796 238.471 125.963C238.541 126.129 238.644 126.28 238.773 126.407C238.901 126.534 239.054 126.635 239.221 126.703C239.389 126.771 239.568 126.805 239.749 126.804C240.114 126.801 240.463 126.654 240.719 126.394Z" fill="#B81819"/> <path d="M59.897 180.341C60.347 180.957 60.846 183.215 60.131 183.614C59.416 184.013 58.1162 182.581 57.6716 181.961C57.5652 181.815 57.4886 181.65 57.4462 181.474C57.4038 181.298 57.3964 181.116 57.4244 180.937C57.4525 180.759 57.5155 180.587 57.6098 180.433C57.704 180.279 57.8278 180.145 57.9739 180.038C58.12 179.932 58.2856 179.855 58.4614 179.813C58.6371 179.77 58.8195 179.763 58.9981 179.791C59.3587 179.848 59.6821 180.045 59.897 180.341Z" fill="#B81819"/> <path d="M122.314 69.7237C121.864 69.1074 121.365 66.8496 122.08 66.4504C122.795 66.0511 124.095 67.4832 124.539 68.1028C124.646 68.2489 124.722 68.4146 124.765 68.5903C124.807 68.7661 124.815 68.9484 124.786 69.127C124.758 69.3056 124.695 69.4769 124.601 69.6311C124.507 69.7854 124.383 69.9196 124.237 70.026C124.091 70.1324 123.925 70.209 123.75 70.2514C123.574 70.2939 123.391 70.3012 123.213 70.2732C122.852 70.2165 122.529 70.0189 122.314 69.7237Z" fill="#B81819"/> <path d="M160.39 184.908C159.887 185.481 159.188 187.685 159.864 188.147C160.541 188.609 161.963 187.299 162.462 186.721C162.581 186.585 162.672 186.427 162.73 186.256C162.788 186.085 162.811 185.904 162.799 185.723C162.787 185.543 162.74 185.367 162.66 185.205C162.58 185.042 162.469 184.898 162.333 184.779C162.197 184.66 162.038 184.569 161.867 184.511C161.696 184.453 161.515 184.429 161.335 184.441C160.97 184.465 160.631 184.633 160.39 184.908Z" fill="#B81819"/> <path d="M201.889 78.3478C202.426 77.8052 203.255 75.6465 202.607 75.1455C201.959 74.6445 200.461 75.8676 199.929 76.4143C199.802 76.543 199.702 76.6955 199.634 76.8629C199.566 77.0304 199.531 77.2097 199.533 77.3904C199.534 77.5712 199.571 77.75 199.641 77.9165C199.711 78.083 199.814 78.2341 199.942 78.3611C200.071 78.488 200.224 78.5884 200.391 78.6564C200.559 78.7245 200.738 78.7588 200.919 78.7576C201.284 78.7551 201.633 78.6077 201.889 78.3478Z" fill="#B81819"/> <path d="M247.34 80.3853C247.877 79.8427 248.706 77.684 248.058 77.183C247.41 76.682 245.912 77.905 245.38 78.4518C245.253 78.5805 245.153 78.7329 245.085 78.9004C245.017 79.0679 244.983 79.2471 244.984 79.4279C244.985 79.6087 245.022 79.7874 245.092 79.954C245.163 80.1205 245.265 80.2716 245.394 80.3985C245.522 80.5255 245.675 80.6258 245.842 80.6939C246.01 80.7619 246.189 80.7963 246.37 80.7951C246.735 80.7926 247.084 80.6452 247.34 80.3853Z" fill="#B81819"/> </svg>