<svg width="65" height="60" viewBox="0 0 65 60" fill="none" xmlns="http://www.w3.org/2000/svg">
<path d="M2.95983 26.2487C2.95983 26.2487 6.58019 44.5611 20.6272 53.5806C39.3083 65.4699 64.3613 60.1402 64.2165 35.2682L8.31797 3.97327C8.31797 3.97327 -3.84647 5.33986 2.95983 26.2487Z" fill="#B2CC1E"/>
<path d="M12.9518 4.24676C12.9518 4.24676 13.8207 4.38343 14.8344 3.01684C16.2825 1.10361 18.7444 -0.126323 21.2062 0.0103365C21.9303 0.0103365 22.6544 0.146979 23.3784 0.420298C27.5781 1.78689 29.0262 4.93005 37.1358 7.93656C45.3903 10.9431 63.0577 24.7456 64.0714 35.2684C64.9403 44.4246 59.4373 48.251 55.2377 48.5244C53.6447 48.661 52.0518 48.9343 50.8932 50.1643C48.721 52.6241 44.3766 54.1274 37.4255 53.4441C28.0125 52.3508 9.47623 40.3248 5.71105 18.3227C5.56624 17.9127 2.66994 6.70663 6.29031 4.65674C9.04179 3.29015 9.76586 4.52008 12.9518 4.24676Z" fill="#E5E573"/>
<path d="M16.5723 8.75659C16.5723 8.75659 17.2964 8.75659 18.1652 7.52666C19.3238 5.75009 21.2064 4.52014 23.3786 4.52014C23.9578 4.52014 24.5371 4.65682 25.2612 4.79348C28.8815 5.75009 30.1849 8.48327 37.136 10.8065C44.0871 13.1297 59.7271 24.6091 61.1752 33.7652C62.3337 41.4181 57.1204 44.8346 53.9345 45.9279C52.776 46.3379 51.7623 46.7479 50.8934 47.4312C49.0108 48.6611 45.3904 51.8043 40.0323 51.5309C32.2123 50.9843 15.993 41.0082 11.6486 21.6025C11.5038 21.1926 8.46265 11.3531 11.2141 9.43988C13.2415 8.07329 13.9656 9.16656 16.5723 8.75659Z" fill="#F39582"/>
<path d="M21.0611 16.4095C21.0611 16.4095 23.0885 15.5895 24.1022 18.5961C25.1159 21.6026 25.4055 25.7023 29.1707 28.9822C32.9359 32.262 41.9144 34.4485 42.0592 38.275C42.204 42.1015 41.7696 45.1079 34.9633 43.468C28.157 41.8281 19.6129 33.0819 18.5992 26.5223C17.7303 20.236 17.5855 16.8195 21.0611 16.4095Z" fill="#ED6B5C"/>
<path d="M29.6059 16.1363C29.6059 16.1363 28.3026 17.7762 31.1989 19.4162C34.0952 20.9194 38.2948 22.1493 40.9015 26.3858C43.5081 30.6222 43.7978 39.2317 47.7078 40.1884C51.6178 41.145 54.8037 41.2816 54.6589 34.8586C54.514 28.4357 47.1285 18.4595 40.6118 16.273C34.24 13.8131 30.7644 12.9932 29.6059 16.1363Z" fill="#ED6B5C"/>
</svg>
