<svg width="108" height="109" viewBox="0 0 108 109" fill="none" xmlns="http://www.w3.org/2000/svg">
<path d="M78.9395 38.7297C78.289 38.5919 77.7177 38.2065 77.3463 37.655C76.983 37.0968 76.8549 36.4176 76.9901 35.7653C77.1253 35.1131 77.5127 34.5407 78.068 34.1728C88.7956 27.008 87.2044 18.1255 87.1265 17.8006C87.0543 17.4728 87.0487 17.1339 87.11 16.8039C87.1713 16.4739 87.2982 16.1595 87.4833 15.8795C87.6683 15.5995 87.9077 15.3595 88.1873 15.1737C88.4668 14.9879 88.7808 14.8602 89.1106 14.798C89.4322 14.7295 89.7642 14.7255 90.0873 14.786C90.4105 14.8466 90.7185 14.9706 90.9935 15.1508C91.2685 15.331 91.505 15.564 91.6895 15.8361C91.874 16.1083 92.0027 16.4143 92.0682 16.7365C92.1834 17.2325 94.5234 29.2482 80.8495 38.3629C80.5712 38.5473 80.2591 38.6746 79.9312 38.7376C79.6034 38.8005 79.2663 38.7979 78.9395 38.7297Z" fill="#043314"/>
<path d="M96.8912 40.9607C109.904 55.2789 87.7244 86.9455 58.3045 96.2471C37.2198 102.918 16.215 95.0966 7.99289 74.9252C4.26612 65.7454 3.60213 41.8744 31.7551 29.2232C49.1656 21.3551 67.6818 17.9653 79.2031 25.5463C85.8543 29.9027 81.3755 32.5881 83.0733 33.1579C90.4276 35.6989 94.5864 38.413 96.8912 40.9607Z" fill="#EE7509"/>
<path d="M78.3996 28.1947C81.1602 32.3985 76.0552 34.8634 81.0168 35.4558C85.9785 36.0483 105.817 42.6654 89.4318 62.4948C76.3531 78.2881 45.723 97.6349 15.1917 74.1839C0.200023 62.6695 16.5626 35.4994 39.8001 27.6404C63.0377 19.7814 75.9332 24.3242 78.3996 28.1947Z" fill="#FAB90B"/>
<path d="M65.3997 37.7396C68.2889 39.4823 70.5783 43.2435 69.8789 46.5306C69.168 50.2501 67.5541 53.738 65.1792 56.6877C62.8043 59.6373 59.7411 61.9582 56.2589 63.4465C49.1449 66.677 41.3668 68.1765 33.5616 67.822C32.639 67.7947 31.7354 67.5527 30.9226 67.1151C30.1097 66.6776 29.4101 66.0566 28.8792 65.3015C28.3483 64.5464 28.0007 63.6779 27.8641 62.765C27.7274 61.8521 27.8055 60.9199 28.092 60.0424C30.5285 52.6665 36.6179 40.0189 49.5398 37.2492C57.4293 35.543 62.5693 36.0635 65.3997 37.7396Z" fill="#9B5625"/>
</svg>
