<svg width="105" height="112" viewBox="0 0 105 112" fill="none" xmlns="http://www.w3.org/2000/svg">
<g clip-path="url(#clip0_586_28447)">
<path d="M61.4142 23.2883C53.8243 17.687 43.1855 19.286 37.6475 26.8529C34.7944 30.7447 33.8673 35.4633 34.6606 39.8918L34.651 39.899C34.651 39.899 37.6036 49.2761 34.2037 65.5139C33.3032 68.5031 33.0249 71.601 33.3372 74.6652C33.3324 74.699 33.3277 74.7328 33.323 74.7666L33.3495 74.7619C34.0228 81.0958 37.241 87.1574 42.7776 91.2406C50.6405 97.0459 60.8936 97.2183 68.7224 92.4894C76.378 93.0642 84.1266 89.8326 88.9826 83.2001C93.7426 76.7001 95.6645 69.1183 91.9404 61.4386C91.9355 61.412 91.9283 61.4023 91.9306 61.3854L91.921 61.3926C76.6254 34.5128 62.9119 24.4056 61.4142 23.2883Z" fill="#FEC90A"/>
<path d="M50.2307 27.6098C48.7873 28.6909 46.5525 29.5175 43.6407 28.7785C42.9097 28.5847 42.4617 27.8461 42.6501 27.115C42.8313 26.3741 43.5726 25.9399 44.3036 26.1338C47.7726 27.0152 49.3116 24.7581 49.4772 24.4979C49.8756 23.8667 50.7212 23.6721 51.3539 24.0756C51.9963 24.472 52.1987 25.3038 51.8075 25.9447C51.5075 26.4266 50.9813 27.0476 50.2307 27.6098Z" fill="black"/>
<path d="M48.5018 28.511C48.3478 28.6263 48.1721 28.7126 47.9601 28.7503C47.2228 28.9092 46.4983 28.4231 46.3347 27.6833C45.0621 21.6924 41.4098 13.8076 36.8705 10.3541C36.2714 9.89515 36.1509 9.03231 36.6048 8.43512C37.0588 7.83793 37.9191 7.72309 38.5182 8.18208C43.8185 12.2305 47.6705 20.8431 49.0042 27.1362C49.1263 27.6802 48.906 28.2083 48.5018 28.511Z" fill="black"/>
<path d="M73.139 99.6502C72.7156 99.9673 72.1227 100.018 71.6446 99.7407L70.2659 98.9427L69.2334 100.412C68.8012 101.038 67.9458 101.18 67.3275 100.735C66.7091 100.291 66.5524 99.4396 66.9919 98.823L68.7279 96.3277C69.1265 95.7568 69.9095 95.5788 70.5228 95.9364L72.9856 97.3596C73.6472 97.7416 73.8665 98.5758 73.4995 99.2289C73.4059 99.4049 73.2834 99.5421 73.139 99.6502Z" fill="#1E1E1C"/>
<path d="M44.7299 79.0067C44.7202 79.0139 44.701 79.0284 44.6914 79.0356C44.0706 79.4702 43.2144 79.3097 42.7932 78.6872C38.4463 72.4422 42.2649 66.39 42.4305 66.1298C42.8386 65.4913 43.6818 65.3136 44.3218 65.7269C44.9521 66.1474 45.1449 66.9863 44.7296 67.6151C44.6072 67.8127 41.7585 72.4123 45.0284 77.119C45.4496 77.7415 45.3169 78.5671 44.7299 79.0067Z" fill="#FDF187"/>
</g>
<defs>
<clipPath id="clip0_586_28447">
<rect width="59.7039" height="94.9576" fill="white" transform="translate(0 35.7909) rotate(-36.8322)"/>
</clipPath>
</defs>
</svg>
