<svg xmlns="http://www.w3.org/2000/svg" width="260" height="240" viewBox="0 0 260 240" fill="none"> <path d="M237.804 111.786C234.4 100.685 222.856 94.4693 211.755 97.8734C206.131 99.6494 201.691 103.498 199.175 108.382C199.175 108.382 195.179 119.778 179.787 133.098C176.679 135.318 174.163 138.13 172.239 141.386C172.239 141.386 172.239 141.386 172.091 141.534C168.095 148.194 166.763 156.483 169.279 164.623C172.683 176.019 182.747 183.715 193.995 184.899C201.099 191.115 211.164 193.631 220.784 190.671C230.256 187.859 237.804 181.791 239.728 171.579C244.464 133.838 238.396 113.858 237.804 111.786Z" fill="#FEC90A"/> <path d="M192.959 194.963C192.367 194.963 191.627 194.519 191.479 193.927L190.739 192.151L188.667 192.891C187.779 193.187 186.891 192.743 186.595 191.855C186.299 190.967 186.743 190.079 187.631 189.783L191.183 188.599C192.071 188.303 192.959 188.747 193.255 189.487L194.587 192.743C194.883 193.631 194.587 194.519 193.699 194.963C193.403 194.963 193.107 194.963 192.959 194.963Z" fill="#1E1E1C"/> <path d="M232.624 115.782C229.96 106.902 220.636 102.018 211.756 104.682C207.168 106.014 203.764 109.27 201.692 113.118C201.692 113.118 193.996 127.178 181.711 137.834C179.195 139.61 177.123 141.978 175.643 144.494C175.643 144.494 175.643 144.494 175.495 144.642C172.239 149.97 171.203 156.631 173.127 163.143C175.939 172.319 183.931 178.387 192.812 179.275C198.436 184.159 206.576 186.231 214.272 183.863C221.82 181.495 227.888 176.759 229.516 168.619C236.62 138.13 233.216 117.558 232.624 115.782Z" fill="#FDF187"/> <path d="M221.227 107.346C220.931 107.346 220.783 107.346 220.487 107.198C219.599 106.754 219.303 105.866 219.747 104.978C222.855 98.1694 225.075 87.8092 223.151 81.149C222.855 80.261 223.447 79.373 224.335 79.077C225.223 78.781 226.111 79.373 226.407 80.261C228.627 88.1052 226.111 99.3534 222.707 106.458C222.411 107.05 221.819 107.346 221.227 107.346Z" fill="#010101"/> <path d="M203.616 139.314C203.616 139.166 203.764 139.166 203.912 139.314C204.948 140.646 209.832 147.898 204.504 149.23C199.176 150.71 203.024 141.09 203.616 139.314Z" fill="#010101"/> <path d="M208.796 143.31C208.352 143.606 207.76 143.31 207.76 142.718C207.908 139.906 208.648 133.542 213.088 135.17C217.824 137.094 211.46 141.682 208.796 143.31Z" fill="#010101"/> </svg>