<svg width="105" height="164" viewBox="0 0 105 164" fill="none" xmlns="http://www.w3.org/2000/svg">
<g clip-path="url(#clip0_580_7719)">
<path d="M98.7848 47.4215C94.4569 31.9905 78.4868 23.0165 63.1157 27.3639C55.2036 29.5948 49.013 34.9452 45.4379 41.7046L45.4175 41.7042C45.4175 41.7042 39.5575 57.3466 17.9725 75.5397C13.6299 78.6018 10.0093 82.4598 7.21766 86.8895C7.17588 86.9299 7.13411 86.9702 7.09234 87.0105L7.1329 87.0319C1.39972 96.2174 -0.628785 107.697 2.53121 118.95C7.01205 134.94 20.6077 145.883 36.0825 147.729C45.7662 156.498 59.5642 160.266 73.0396 156.457C86.2471 152.726 96.7751 144.58 99.8195 130.405C99.8408 130.364 99.8412 130.344 99.8621 130.323L99.8416 130.323C107.46 78.3455 99.6263 50.4825 98.7848 47.4215Z" fill="#FEC90A"/>
<path d="M34.513 161.934C33.6117 161.916 32.762 161.364 32.4102 160.494L31.394 157.985L28.4669 158.873C27.2508 159.24 25.9324 158.556 25.5674 157.315C25.2025 156.073 25.8837 154.77 27.1204 154.404L32.0881 152.897C33.2219 152.549 34.4604 153.128 34.9097 154.248L36.7274 158.727C37.216 159.93 36.6364 161.276 35.4588 161.767C35.1286 161.884 34.8202 161.94 34.513 161.934Z" fill="#1E1E1C"/>
<path d="M91.6706 52.8565C88.2043 40.5076 75.4364 33.3245 63.1354 36.8064C56.8097 38.5953 51.8489 42.8795 48.9973 48.2749C48.9973 48.2749 37.9217 67.6206 20.6495 82.175C17.1592 84.6161 14.25 87.7269 12.0295 91.2422C11.9877 91.2825 11.9669 91.3026 11.9251 91.343L11.9657 91.3643C7.37485 98.7209 5.76024 107.905 8.28831 116.903C11.8891 129.707 22.7616 138.458 35.1501 139.915C42.901 146.938 53.9475 149.952 64.724 146.893C75.2944 143.891 83.7206 137.392 86.1563 126.043C86.1772 126.023 86.1776 126.002 86.178 125.982L86.1575 125.981C96.427 84.0328 92.3603 55.2975 91.6706 52.8565Z" fill="#FDF187"/>
<path d="M75.9628 40.9255C75.6351 40.9191 75.3086 40.851 74.9841 40.68C73.8275 40.1019 73.363 38.7145 73.9186 37.5529C78.4871 28.2004 81.8428 13.8254 79.3629 4.45802C79.039 3.2174 79.7813 1.93599 81.0171 1.61054C82.2529 1.28509 83.5291 2.03013 83.8531 3.27076C86.7525 14.2303 82.8818 29.7884 78.0787 39.6094C77.6726 40.4654 76.8231 40.9424 75.9628 40.9255Z" fill="#010101"/>
<path d="M50.9007 84.9082C50.9654 84.7449 51.1911 84.7287 51.2907 84.8747C52.6259 86.7934 59.2106 96.8585 51.8186 98.6882C44.3857 100.517 49.8707 87.2742 50.9007 84.9082Z" fill="#010101"/>
<path d="M57.9198 90.6002C57.3182 90.9792 56.5282 90.5112 56.5829 89.8128C56.801 86.0115 57.981 77.045 64.1608 79.5526C70.4627 82.1037 61.5298 88.326 57.9198 90.6002Z" fill="#010101"/>
</g>
<defs>
<clipPath id="clip0_580_7719">
<rect width="101.735" height="161.287" fill="white" transform="translate(3.16553) rotate(1.12461)"/>
</clipPath>
</defs>
</svg>
