<svg width="234" height="205" viewBox="0 0 234 205" fill="none" xmlns="http://www.w3.org/2000/svg">
<path fill-rule="evenodd" clip-rule="evenodd" d="M25.6822 1.46017L114.022 63.4971L117.858 66.2088C112.105 74.4276 110.229 83.0635 118.441 88.8208C126.654 94.5781 137.952 92.5756 143.705 84.3985L233.797 144.767C232.963 146.06 230.795 149.231 229.919 150.524C189.814 207.721 110.979 221.572 53.8227 181.438C-3.33369 141.304 -17.1746 62.4124 22.9307 5.21493C23.8062 3.96334 24.7234 2.75348 25.6405 1.54361L25.6822 1.46017Z" fill="#E9520E"/>
<path fill-rule="evenodd" clip-rule="evenodd" d="M25.7661 1.08965e-08L106.519 57.7815C105.393 58.7828 102.975 61.8283 102.1 63.1633C96.4716 71.4655 98.5978 82.7715 106.894 88.4036C115.19 94.0358 126.488 91.9081 132.116 83.6059C132.992 82.3126 135.034 78.975 135.535 77.5565L217.621 133.419C216.829 134.712 214.661 137.925 213.786 139.176C177.474 192.619 104.768 206.512 51.3635 170.174C-2.04082 133.836 -15.8817 61.0773 20.3882 7.63467C21.2637 6.38308 24.849 1.2933 25.7661 0.083439L25.7661 1.08965e-08Z" fill="#F9B812"/>
<path d="M131.322 100.878L159.63 134.337" stroke="#E9520E" stroke-width="2.27" stroke-linecap="round" stroke-linejoin="round"/>
<path d="M111.812 106.051L105.893 141.471" stroke="#E9520E" stroke-width="2.27" stroke-linecap="round" stroke-linejoin="round"/>
<path d="M91.677 87.9448L65.3292 112.392" stroke="#E9520E" stroke-width="2.27" stroke-linecap="round" stroke-linejoin="round"/>
<path d="M88.7996 66.1673L53.0299 63.2469" stroke="#E9520E" stroke-width="2.27" stroke-linecap="round" stroke-linejoin="round"/>
</svg>
