<svg xmlns="http://www.w3.org/2000/svg" width="116" height="116" viewBox="0 0 116 116" fill="none"> <path d="M67.9917 18.5668C41.7951 29.8905 56.2612 51.978 56.2612 51.978C66.5947 49.9274 80.8947 38.5096 67.9917 18.5668Z" fill="#41A935"/> <path d="M87.0988 29.2667C56.0769 31.6859 55.25 46.0696 55.25 46.0696C67.5163 47.6329 89.7887 44.2765 87.0988 29.2667Z" fill="#009640"/> <path d="M44.7235 18.0436C37.9654 32.9047 60.6189 48.9987 60.6189 48.9987C67.2463 45.8587 69.5176 33.4324 44.7235 18.0436Z" fill="#009640"/> <path d="M83.1168 64.4925C77.4009 83.4631 55.8841 94.8371 44.836 91.6648C35.9916 89.1139 24.8333 68.3073 30.5521 49.3464C36.2709 30.3856 46.7186 30.4091 61.1672 34.782C75.6158 39.1549 88.8356 45.5317 83.1168 64.4925Z" fill="#E20E17"/> <path d="M61.4322 53.5146C61.0362 56.8724 54.225 69.4719 51.2446 68.0098C48.4825 66.6421 50.9944 54.3144 52.4448 51.1965C53.6536 48.6583 55.8588 46.7372 58.2622 47.2468C60.6656 47.7563 61.7731 50.7238 61.4322 53.5146Z" fill="#E84252"/> <path d="M73.9823 46.6057C73.5638 46.2097 73.0418 45.9406 72.4769 45.8295C71.912 45.7184 71.3274 45.7699 70.7907 45.978C70.2541 46.1861 69.7875 46.5423 69.445 47.0052C69.1026 47.4681 68.8983 48.0189 68.856 48.5935L68.8732 48.652C68.8235 49.3457 68.9336 50.0418 69.1952 50.6864C69.4567 51.331 69.8627 51.907 70.3817 52.3698C70.69 52.5543 70.9885 52.7417 71.2802 52.9417C73.0285 54.0998 74.5101 55.3577 74.1673 56.1684C73.9353 56.7451 72.9048 57.0172 71.5728 57.0921C70.6 57.1302 69.6257 57.0988 68.6573 56.9983C68.0086 57.0493 67.3703 57.1911 66.761 57.4196C66.3003 57.6172 65.9151 57.9574 65.662 58.3905C65.4088 58.8235 65.3011 59.3264 65.3546 59.8254C65.5577 61.6918 66.0928 63.507 66.9346 65.1851V65.1851C68.081 67.4951 69.0833 70.0699 68.3212 70.75C67.559 71.4301 65.6974 70.3902 63.8178 69.0378C62.8356 68.3964 61.7139 68.0005 60.5473 67.8835C60.0722 68.7121 59.5845 69.5337 59.0911 70.3358C58.7677 72.2529 58.5767 74.9783 58.4963 76.4637C58.4783 76.7973 58.47 77.1281 58.4394 77.4549L58.4623 77.5329C58.3356 79.1484 58.0168 80.471 57.3096 80.5841C56.6025 80.6973 55.3614 79.3579 54.3232 77.6303C54.3232 77.6303 54.2458 77.5472 54.1306 77.4435C51.3181 80.857 48.6926 82.8596 46.8615 81.9589C45.0304 81.0582 44.4578 77.5729 44.5588 72.9993C44.3521 72.9695 44.1421 72.9707 43.9358 73.0029C42.0295 73.7132 40.3347 74.0645 39.7729 73.4145C39.0476 72.5692 40.8234 70.1603 42.5138 68.1792C43.6132 66.7416 44.601 65.2217 45.4684 63.6329C45.5657 62.9582 45.6755 62.2903 45.7923 61.6098C45.1952 60.5889 43.0538 60.394 43.0538 60.394C40.4045 60.3065 37.6616 59.8653 37.5203 58.8478C37.3791 57.8302 40.8819 55.8973 43.5323 54.8406C46.854 53.2259 47.7204 52.0385 47.9451 51.5803L48.0192 51.2937C47.9699 50.706 47.7997 50.1348 47.5193 49.6159C47.239 49.0971 46.8544 48.6418 46.3899 48.2787C45.7057 47.8238 45.0519 47.328 44.4135 46.849C43.0208 45.7131 41.9946 44.5646 42.2195 43.8204C42.4445 43.0762 44.2402 42.9599 46.2476 43.1308L46.6828 43.1719C47.9382 43.2679 51.4337 43.2119 51.7776 39.9648C51.6188 39.2692 51.2258 38.6493 50.6646 38.2092C50.1034 37.769 49.4081 37.5354 48.6955 37.5476C42.3121 37.6394 37.4689 41.0901 34.3447 51.4483C29.6557 67.0128 38.805 84.0903 46.0661 86.1864C55.1425 88.8066 72.7935 79.4619 77.4921 63.8946C79.8293 55.6749 78.0043 50.3452 73.9823 46.6057Z" fill="#E84252"/> </svg>