<svg xmlns="http://www.w3.org/2000/svg" width="171" height="241" viewBox="0 0 171 241" fill="none"> <path d="M47.7359 223.234C92.0639 177.612 87.4129 122.599 87.4129 122.599C68.845 131.193 37.7636 170.009 47.7359 223.234Z" fill="#41A935"/> <path d="M21.369 195.833C74.1083 180.66 85.0085 139.207 85.0085 139.207C65.842 137.929 26.8541 153.433 21.369 195.833Z" fill="#70B62E"/> <path d="M83.545 216.905C104.66 172.481 78.1309 132.101 78.1309 132.101C65.1926 143.075 53.0718 179.234 83.545 216.905Z" fill="#70B62E"/> <path d="M105.501 183.217C99.0708 150.646 108.404 126.127 87.7483 122.729C71.4376 120.054 65.9141 158.584 105.501 183.217Z" fill="#41A935"/> <path d="M28.5746 151.981C85.5271 161.192 99.5779 137.928 87.0777 122.469C75.7596 108.433 59.4471 129.083 28.5746 151.981Z" fill="#41A935"/> <path d="M39.5072 123.842C82.749 143.534 92.0771 131.929 89.3011 121.212C86.3203 110.03 68.9887 115.441 39.5072 123.842Z" fill="#70B62E"/> <path d="M116.498 154.912C104.733 139.545 98.2228 119.088 89.5902 123.445C79.7947 128.314 82.6572 147.74 116.498 154.912Z" fill="#70B62E"/> <path d="M57.786 55.9549C70.02 24.4664 82.7404 1.64909 122.939 17.2669C163.137 32.8846 161.303 59.9318 149.069 91.4203C136.835 122.909 116.494 144.5 81.1536 130.77C45.8128 117.039 45.5521 87.4434 57.786 55.9549Z" fill="#D26D13"/> <path d="M109.544 56.2087C109.879 56.3389 110.046 56.4039 110.316 56.7016C111.126 57.5945 111.07 58.7296 110.178 59.5393C109.945 59.6418 105.053 64.2953 100.327 65.5435C99.2288 65.8881 98.1866 65.0976 97.842 63.9999C97.4974 62.9021 98.2879 61.8598 99.3856 61.5152C102.549 60.8164 106.288 57.6426 107.478 56.5629C108.074 56.0231 108.874 55.9484 109.544 56.2087Z" fill="#B65817"/> <path d="M109.543 56.2084C110.213 56.4687 110.753 57.064 110.828 57.8641C110.912 59.6318 111.63 64.7301 113.557 67.2137C114.199 68.0415 114.079 69.3441 113.018 70.0888C112.19 70.731 110.888 70.6105 110.143 69.5501C107.267 65.541 106.595 58.34 106.725 58.005C106.613 56.8048 107.506 55.9951 108.539 55.818C109.041 56.0132 109.208 56.0783 109.543 56.2084Z" fill="#B65817"/> <path d="M119.956 29.4099C120.291 29.54 120.458 29.6051 120.728 29.9027C121.538 30.7957 121.483 31.9308 120.59 32.7405C120.357 32.8429 115.465 37.4964 110.739 38.7446C109.641 39.0892 108.599 38.2988 108.254 37.201C107.909 36.1033 108.7 35.0609 109.798 34.7163C112.961 34.0175 116.7 30.8437 117.891 29.7641C118.421 29.3918 119.286 29.1496 119.956 29.4099Z" fill="#B65817"/> <path d="M119.956 29.4096C120.626 29.6699 121.165 30.2652 121.24 31.0653C121.324 32.8331 122.042 37.9314 123.969 40.4149C124.611 41.2428 124.491 42.5454 123.43 43.29C122.603 43.9323 121.3 43.8117 120.555 42.7513C117.679 38.7422 117.007 31.5412 117.137 31.2062C117.025 30.006 117.918 29.1963 118.951 29.0192C119.388 29.3819 119.621 29.2795 119.956 29.4096Z" fill="#B65817"/> <path d="M71.3798 87.4539C71.7147 87.584 71.8822 87.6491 72.1521 87.9467C72.9619 88.8396 72.9064 89.9747 72.0135 90.7845C71.7809 90.8869 66.8885 95.5404 62.1625 96.7887C61.0648 97.1333 60.0225 96.3428 59.6779 95.245C59.3333 94.1472 60.1238 93.105 61.2216 92.7604C64.8498 91.8567 69.1469 87.743 69.3144 87.8081C69.6771 87.3707 70.5423 87.1285 71.3798 87.4539Z" fill="#B65817"/> <path d="M71.3794 87.4536C72.0494 87.7139 72.5892 88.3092 72.6639 89.1093C72.7482 90.877 73.4662 95.9754 75.393 98.4589C76.0352 99.2867 75.9147 100.589 74.8542 101.334C74.0264 101.976 72.7238 101.856 71.9791 100.795C69.1029 96.7862 68.4308 89.5852 68.5609 89.2502C68.4489 88.05 69.3418 87.2403 70.3745 87.0632C70.6444 87.3608 71.0444 87.3235 71.3794 87.4536Z" fill="#B65817"/> <path d="M81.7264 60.8223C82.0614 60.9524 82.2289 61.0175 82.4988 61.3151C83.3086 62.208 83.2531 63.3431 82.3602 64.1529C82.1276 64.2553 77.2352 68.9088 72.5092 70.1571C71.4115 70.5017 70.3692 69.7112 70.0246 68.6134C69.68 67.5156 70.4705 66.4733 71.5682 66.1287C75.1965 65.2251 79.4936 61.1114 79.6611 61.1765C80.0889 60.5716 80.889 60.4969 81.7264 60.8223Z" fill="#B65817"/> <path d="M81.7261 60.822C82.3961 61.0823 82.9359 61.6776 83.0106 62.4777C83.0949 64.2454 83.8129 69.3438 85.7396 71.8273C86.3819 72.6552 86.2613 73.9578 85.2009 74.7024C84.3731 75.3447 83.0705 75.2241 82.3258 74.1637C79.4496 70.1546 78.7774 62.9536 78.9076 62.6186C78.7955 61.4184 79.6885 60.6087 80.7212 60.4316C81.0561 60.5618 81.3911 60.6919 81.7261 60.822Z" fill="#B65817"/> <path d="M99.3637 82.9042C99.6986 83.0344 99.8661 83.0995 100.136 83.3971C100.946 84.29 100.89 85.4251 99.9974 86.2349C99.7648 86.3373 94.8724 90.9908 90.1464 92.239C89.0487 92.5836 88.0064 91.7931 87.6618 90.6954C87.3172 89.5976 88.1077 88.5553 89.2054 88.2107C92.8337 87.3071 97.1308 83.1934 97.2983 83.2585C97.661 82.8211 98.5262 82.5789 99.3637 82.9042Z" fill="#B65817"/> <path d="M99.1963 82.8392C99.8663 83.0995 100.406 83.6948 100.481 84.4949C100.565 86.2627 101.283 91.361 103.21 93.8445C103.852 94.6724 103.732 95.975 102.671 96.7196C101.843 97.3619 100.541 97.2413 99.796 96.1809C96.9198 92.1718 96.2477 84.9708 96.3778 84.6358C96.2658 83.4356 97.1587 82.6259 98.1914 82.4488C98.6288 82.8115 99.0288 82.7742 99.1963 82.8392Z" fill="#B65817"/> <path d="M92.1385 34.0238C92.4735 34.1539 92.641 34.219 92.9109 34.5166C93.7207 35.4095 93.6652 36.5446 92.7723 37.3544C92.5397 37.4568 87.6473 42.1103 82.9213 43.3585C81.8236 43.7031 80.7813 42.9127 80.4367 41.8149C80.0921 40.7171 80.8826 39.6748 81.9803 39.3302C85.1435 38.6314 88.8826 35.4576 90.0732 34.378C90.4359 33.9406 91.3011 33.6984 92.1385 34.0238Z" fill="#B65817"/> <path d="M92.1382 34.0239C92.8082 34.2842 93.348 34.8795 93.4227 35.6796C93.507 37.4473 94.225 42.5456 96.1517 45.0292C96.794 45.857 96.6734 47.1596 95.613 47.9043C94.7852 48.5465 93.4826 48.426 92.7379 47.3655C89.8617 43.3565 89.1895 36.1554 89.3197 35.8205C89.2077 34.6203 90.1006 33.8106 91.1333 33.6334C91.4032 33.9311 91.8032 33.8937 92.1382 34.0239Z" fill="#B65817"/> <path d="M138.534 52.0495C138.869 52.1796 139.037 52.2447 139.306 52.5423C140.116 53.4352 140.061 54.5703 139.168 55.3801C138.935 55.4825 134.043 60.136 129.317 61.3842C128.219 61.7288 127.177 60.9384 126.832 59.8406C126.488 58.7428 127.278 57.7005 128.376 57.3559C131.539 56.6571 135.278 53.4833 136.469 52.4037C136.831 51.9663 137.697 51.7241 138.534 52.0495Z" fill="#B65817"/> <path d="M138.534 52.0494C139.204 52.3097 139.744 52.905 139.818 53.7051C139.902 55.4728 140.621 60.5711 142.547 63.0547C143.189 63.8825 143.069 65.1851 142.009 65.9298C141.181 66.572 139.878 66.4515 139.133 65.3911C136.257 61.382 135.585 54.181 135.715 53.846C135.603 52.6458 136.496 51.8361 137.529 51.659C137.799 51.9566 138.199 51.9193 138.534 52.0494Z" fill="#B65817"/> <path d="M127.516 105.216C127.684 105.281 127.851 105.346 128.019 105.411C128.959 105.969 129.173 107.402 128.448 108.276C122.031 117.35 114.924 120.757 110.133 122.173C109.035 122.518 107.928 121.895 107.583 120.797C107.238 119.699 107.861 118.592 108.959 118.247C113.22 117.204 119.462 114.038 125.088 106.007C125.814 105.132 126.679 104.89 127.516 105.216Z" fill="#F4961B"/> </svg>