<svg width="201" height="139" viewBox="0 0 201 139" fill="none" xmlns="http://www.w3.org/2000/svg">
<path d="M177.364 64.0221C182.439 61.5029 186.796 57.7546 190.033 53.1226C193.27 48.4906 195.284 43.1239 195.888 37.5171C196.491 31.9104 195.666 26.2439 193.488 21.0398C191.311 15.8357 187.85 11.2614 183.425 7.73856C179.001 4.2157 173.755 1.85757 168.171 0.881426C162.586 -0.0947137 156.844 0.342563 151.472 2.15296C146.1 3.96336 141.272 7.08861 137.432 11.2408C133.592 15.3929 130.864 20.4384 129.5 25.9123C126.801 19.3635 122.089 13.8321 116.037 10.1085C109.984 6.38484 102.902 4.65946 95.8004 5.17882C88.6993 5.69819 81.943 8.43573 76.4969 13.0003C71.0508 17.5649 67.1935 23.7231 65.4762 30.5949C62.7736 24.0501 58.0602 18.5232 52.0086 14.8028C45.9571 11.0825 38.8766 9.35896 31.7778 9.87813C23.9854 10.4516 16.6316 13.6925 10.9682 19.0492C5.30477 24.4058 1.68189 31.5471 0.716406 39.2571C-0.249082 46.9671 1.50251 54.7692 5.6729 61.3352C9.8433 67.9013 16.1747 72.8253 23.5893 75.269C17.6025 78.2457 12.6379 82.9223 9.32512 88.7058C6.01233 94.4892 4.50052 101.119 4.9813 107.755C5.63318 116.64 9.80724 124.9 16.5857 130.721C23.3642 136.541 32.1922 139.445 41.1288 138.794C48.2276 138.274 54.9819 135.539 60.4278 130.978C65.8736 126.416 69.7327 120.263 71.4543 113.394C74.1532 119.943 78.8655 125.474 84.9178 129.198C90.97 132.922 98.0527 134.647 105.154 134.128C112.255 133.608 119.011 130.871 124.457 126.306C129.903 121.741 133.761 115.583 135.478 108.712C138.525 116.105 144.124 122.173 151.269 125.826C158.414 129.48 166.638 130.479 174.463 128.644C182.287 126.81 189.2 122.262 193.958 115.817C198.717 109.372 201.01 101.454 200.425 93.4835C199.948 86.8519 197.502 80.5119 193.397 75.267C189.291 70.0221 183.711 66.1085 177.364 64.0221Z" fill="#E62856"/>
</svg>
