<svg width="81" height="101" viewBox="0 0 81 101" fill="none" xmlns="http://www.w3.org/2000/svg">
<g clip-path="url(#clip0_580_17424)">
<path d="M45.0394 40.698C44.4804 40.4082 44.2412 39.6537 44.531 39.0948C50.2307 28.1018 47.8796 19.8693 47.8497 19.775C47.6404 19.1148 48.0567 18.4638 48.6226 18.2844C49.2827 18.0751 49.9337 18.4914 50.1131 19.0573C50.2328 19.4345 52.7932 28.3271 46.6748 40.1275C46.3206 40.8107 45.6605 41.02 45.0394 40.698Z" fill="#0A642E"/>
<path d="M45.8116 41.4916C45.2526 41.2018 45.0134 40.4473 45.3032 39.8883C51.2927 28.3364 65.4549 14.2448 66.0898 13.6283C66.5659 13.1659 67.2859 13.1452 67.7482 13.6213C68.2106 14.0975 68.2313 14.8174 67.7552 15.2798C67.5965 15.4339 53.2756 29.6797 47.4471 40.9211C47.0928 41.6043 46.4327 41.8136 45.8116 41.4916Z" fill="#0A642E"/>
<path d="M46.9028 41.6641C46.8407 41.6319 46.7786 41.5997 46.7786 41.5997C46.2518 41.2478 46.1069 40.4634 46.4588 39.9366C53.8078 29.5624 67.4757 25.6953 68.0715 25.6102C68.6994 25.4629 69.3826 25.8172 69.5298 26.4451C69.6771 27.0731 69.3228 27.7563 68.6949 27.9035C68.5385 27.9012 55.2478 31.6486 48.4416 41.2799C48.0897 41.8067 47.4617 41.9539 46.9028 41.6641Z" fill="#0A642E"/>
<path d="M28.8541 32.8569C28.8541 32.8569 33.9076 29.6457 45.0455 34.002C52.9791 37.091 59.4682 44.7898 60.1768 49.8066C60.8854 54.8234 60.352 61.3238 54.5992 67.4035C48.8465 73.4832 40.7843 79.1535 29.0117 79.6691C17.2391 80.1846 16.1483 60.7062 15.9779 55.2593C15.8076 49.8123 19.368 37.4738 28.8541 32.8569Z" fill="#E51F52"/>
<path d="M50.7657 49.4181C49.1509 48.5808 48.3251 47.2858 48.263 47.2536C48.0491 46.9063 48.1503 46.4071 48.4976 46.1932C48.8449 45.9793 49.3441 46.0805 49.558 46.4278C49.65 46.5543 51.396 49.1144 54.6278 48.5048C55.0671 48.4174 55.4697 48.7049 55.5571 49.1442C55.6445 49.5836 55.357 49.9861 54.9177 50.0735C53.2247 50.299 51.8215 49.9655 50.7657 49.4181Z" fill="#C51F2D"/>
<path d="M36.4884 54.1523C34.8736 53.3151 34.0478 52.0201 33.9857 51.9879C33.7717 51.6405 33.8729 51.1414 34.2203 50.9275C34.5676 50.7135 35.0667 50.8147 35.2807 51.162C35.3727 51.2886 37.1186 53.8487 40.3504 53.239C40.7898 53.1516 41.1923 53.4391 41.2798 53.8785C41.3672 54.3178 41.0797 54.7204 40.6403 54.8078C38.9773 55.1276 37.6063 54.732 36.4884 54.1523Z" fill="#C51F2D"/>
<path d="M33.5509 41.1238C31.9361 40.2866 31.1103 38.9916 31.0482 38.9594C30.8342 38.612 30.9354 38.1129 31.2828 37.8989C31.6301 37.685 32.1292 37.7862 32.3432 38.1335C32.4352 38.2601 34.1811 40.8202 37.4129 40.2105C37.8523 40.1231 38.2548 40.4106 38.3423 40.85C38.4297 41.2893 38.1422 41.6919 37.7028 41.7793C36.0398 42.0991 34.6067 41.6713 33.5509 41.1238Z" fill="#C51F2D"/>
<path d="M42.0391 66.2491C40.4244 65.4118 39.5985 64.1168 39.5364 64.0846C39.3225 63.7373 39.4237 63.2381 39.771 63.0242C40.1184 62.8103 40.6175 62.9115 40.8314 63.2588C40.9235 63.3853 42.6694 65.9454 45.9012 65.3358C46.3406 65.2484 46.7431 65.5359 46.8305 65.9752C46.918 66.4146 46.6304 66.8171 46.1911 66.9045C44.4981 67.13 43.095 66.7965 42.0391 66.2491Z" fill="#C51F2D"/>
<path d="M27.7306 71.0455C26.1158 70.2082 25.2899 68.9132 25.2278 68.881C25.0139 68.5337 25.1151 68.0345 25.4624 67.8206C25.8098 67.6067 26.3089 67.7078 26.5229 68.0552C26.6149 68.1817 28.3608 70.7418 31.5926 70.1322C32.032 70.0447 32.4345 70.3323 32.5219 70.7716C32.6094 71.2109 32.3218 71.6135 31.8825 71.7009C30.2516 71.9586 28.8485 71.6251 27.7306 71.0455Z" fill="#C51F2D"/>
<path d="M24.8243 57.9549C23.2095 57.1177 22.3837 55.8227 22.3216 55.7905C22.1077 55.4431 22.2089 54.944 22.5562 54.7301C22.9035 54.5161 23.4027 54.6173 23.6166 54.9647C23.7086 55.0912 25.4546 57.6513 28.6864 57.0416C29.1257 56.9542 29.5283 57.2417 29.6157 57.6811C29.7031 58.1204 29.4156 58.523 28.9763 58.6104C27.3132 58.9302 25.8801 58.5024 24.8243 57.9549Z" fill="#C51F2D"/>
<path d="M23.3426 88.4722C23.2184 88.4078 23.0643 88.2491 22.9723 88.1226C21.0906 84.1524 23.7956 81.0631 23.9543 80.909C24.2717 80.6007 24.7731 80.5455 25.0814 80.863C25.3896 81.1804 25.4448 81.6818 25.1274 81.9901C25.063 82.1143 22.963 84.4928 24.4214 87.4554C24.6031 87.8649 24.4398 88.3318 24.0304 88.5136C23.8418 88.5734 23.591 88.601 23.3426 88.4722Z" fill="#E62253"/>
<path d="M18.7555 89.719C19.373 90.0391 20.133 89.7981 20.4531 89.1807C20.7732 88.5633 20.5322 87.8033 19.9148 87.4831C19.2974 87.163 18.5374 87.404 18.2172 88.0214C17.8971 88.6389 18.1381 89.3989 18.7555 89.719Z" fill="#E51F52"/>
<path d="M20.2344 74.4087C20.2344 74.4087 22.1253 77.7532 21.4697 79.7774C20.8142 81.8016 18.1875 88.0836 18.1875 88.0836L19.3676 88.6955L25.3893 77.0814L20.2344 74.4087Z" fill="#E51F52"/>
<path d="M30.7326 79.5379C30.7326 79.5379 26.6566 80.1039 25.38 81.8061C24.1035 83.5083 20.4209 89.2429 20.4209 89.2429L19.3651 88.6954L25.3868 77.0814L30.7326 79.5379Z" fill="#E51F52"/>
</g>
<defs>
<clipPath id="clip0_580_17424">
<rect width="43.5145" height="90.1072" fill="white" transform="translate(41.4766) rotate(27.4061)"/>
</clipPath>
</defs>
</svg>
