<svg width="43" height="38" viewBox="0 0 43 38" fill="none" xmlns="http://www.w3.org/2000/svg">
<path d="M21.123 29.628C25.8879 29.628 29.7645 25.7514 29.7645 20.9865C29.7645 20.3047 29.2118 19.752 28.53 19.752C27.8482 19.752 27.2955 20.3047 27.2955 20.9865C27.2955 24.39 24.5265 27.159 21.123 27.159C17.7195 27.159 14.9505 24.39 14.9505 20.9865C14.9505 20.3047 14.3977 19.752 13.716 19.752C13.0342 19.752 12.4814 20.3047 12.4814 20.9865C12.4814 25.7514 16.358 29.628 21.123 29.628Z" fill="white"/>
<path d="M23.591 17.2831C24.2727 17.2831 24.8255 16.7303 24.8255 16.0485C24.8255 15.3678 25.3793 14.814 26.06 14.814C26.7407 14.814 27.2945 15.3678 27.2945 16.0485C27.2945 16.7303 27.8472 17.2831 28.529 17.2831C29.2107 17.2831 29.7635 16.7303 29.7635 16.0485C29.7635 14.0064 28.1021 12.345 26.06 12.345C24.0178 12.345 22.3564 14.0064 22.3564 16.0485C22.3564 16.7303 22.9092 17.2831 23.591 17.2831Z" fill="white"/>
<path d="M13.716 17.2831C14.3977 17.2831 14.9505 16.7303 14.9505 16.0485C14.9505 15.3678 15.5043 14.814 16.185 14.814C16.8657 14.814 17.4195 15.3678 17.4195 16.0485C17.4195 16.7303 17.9722 17.2831 18.654 17.2831C19.3357 17.2831 19.8885 16.7303 19.8885 16.0485C19.8885 14.0064 18.2271 12.345 16.185 12.345C14.1428 12.345 12.4814 14.0064 12.4814 16.0485C12.4814 16.7303 13.0342 17.2831 13.716 17.2831Z" fill="white"/>
<path d="M4.00908 11.2465C3.02205 13.5433 2.52174 15.9838 2.52174 18.5176C2.52174 28.7315 10.894 37.0352 21.1216 37.0352C25.4581 37.0352 29.6042 35.5566 32.9118 32.853C34.1843 33.7913 35.4128 34.4093 35.4659 34.4358C35.6397 34.5227 35.8288 34.5661 36.018 34.5661C36.2072 34.5661 36.3963 34.5226 36.5701 34.4358C38.7862 33.3277 42.1905 30.9687 42.1905 28.3936C42.1905 26.4096 40.6223 24.7853 38.6602 24.6945C39.3594 22.7222 39.7215 20.6353 39.7215 18.5176C39.7215 8.30361 31.3493 0 21.1216 0C17.437 0 13.8032 1.09937 10.7771 3.11211C10.1832 2.70661 9.46608 2.46901 8.69427 2.46901C7.74658 2.46901 6.88095 2.82677 6.22526 3.41431C5.56957 2.82677 4.70394 2.46901 3.75625 2.46901C1.71413 2.46901 0.0527344 4.13041 0.0527344 6.17253C0.0527344 8.29423 2.23806 10.0981 4.00908 11.2465ZM39.7215 28.3936C39.7215 29.3908 37.7189 30.9736 36.018 31.9327C34.3168 30.9732 32.3145 29.3906 32.3145 28.3936C32.3145 27.7129 32.8683 27.1591 33.549 27.1591C34.2297 27.1591 34.7835 27.7129 34.7835 28.3936C34.7835 29.0754 35.3362 29.6281 36.018 29.6281C36.6998 29.6281 37.2525 29.0754 37.2525 28.3936C37.2525 27.7129 37.8063 27.1591 38.487 27.1591C39.1677 27.1591 39.7215 27.7129 39.7215 28.3936ZM37.2525 18.5176C37.2525 20.906 36.7214 23.2489 35.7061 25.3859C35.0981 24.9486 34.3534 24.6901 33.549 24.6901C31.5069 24.6901 29.8455 26.3515 29.8455 28.3936C29.8455 29.3079 30.2517 30.2389 31.0555 31.1759C28.2383 33.37 24.758 34.5662 21.1216 34.5662C12.227 34.5662 4.99076 27.3668 4.99076 18.5176C4.99076 16.3682 5.40687 14.2973 6.22608 12.3451C6.41505 12.345 6.60384 12.3015 6.77733 12.2148C8.9936 11.1066 12.3978 8.74771 12.3978 6.17253C12.3978 5.80119 12.3422 5.44277 12.2401 5.10427C14.844 3.39917 17.9601 2.46901 21.1216 2.46901C30.0162 2.46901 37.2525 9.6684 37.2525 18.5176ZM3.75625 4.93802C4.43696 4.93802 4.99076 5.49182 4.99076 6.17253C4.99076 6.8543 5.54348 7.40703 6.22526 7.40703C6.90704 7.40703 7.45977 6.8543 7.45977 6.17253C7.45977 5.49182 8.01357 4.93802 8.69427 4.93802C9.37498 4.93802 9.92878 5.49182 9.92878 6.17253C9.92878 7.16902 7.92871 8.75042 6.22855 9.70971C5.17914 9.08053 2.52174 7.39419 2.52174 6.17253C2.52174 5.49182 3.07554 4.93802 3.75625 4.93802Z" fill="white"/>
</svg>
