<svg width="185" height="136" viewBox="0 0 185 136" fill="none" xmlns="http://www.w3.org/2000/svg">
<path fill-rule="evenodd" clip-rule="evenodd" d="M46.0278 1.74916C52.664 -0.537095 59.7606 -0.583139 66.4204 1.61686C70.845 3.07907 74.9672 5.49681 78.5516 8.73191C79.2375 9.35099 79.9011 9.99768 80.5413 10.6704C81.144 10.407 81.7567 10.168 82.3783 9.95405C87.3319 8.24924 92.6288 8.21687 97.599 9.861C104.264 12.0669 109.868 17.1273 113.179 23.9294C116.49 30.7315 117.237 38.7182 115.256 46.133C113.778 51.6621 110.859 56.5795 106.869 60.2632C102.878 63.9469 97.9958 66.2316 92.8384 66.8283C89.2421 67.2443 85.6249 66.8266 82.2096 65.6232C81.1645 66.8801 80.0423 68.064 78.8486 69.1655C73.5013 74.0996 66.9592 77.1592 60.0492 77.9576C53.1391 78.7559 46.1714 77.2571 40.0269 73.6507C35.6161 71.0619 31.7716 67.4703 28.7294 63.1357C26.3426 65.2403 23.464 66.5467 20.4298 66.8974C17.2767 67.2618 14.0972 66.5779 11.2935 64.932C8.48981 63.2862 6.18778 60.7524 4.67854 57.651C3.1693 54.5496 2.52065 51.02 2.8146 47.5085C3.07323 44.4189 4.05137 41.4655 5.6436 38.9354C4.39035 37.4845 3.31095 35.8453 2.44045 34.0567C0.535143 30.1417 -0.283826 25.6861 0.0871298 21.2533C0.458086 16.8206 2.00231 12.6097 4.52449 9.15331C7.04667 5.6969 10.4335 3.15017 14.2568 1.8352C18.08 0.520227 22.1679 0.496072 26.0035 1.76578C29.5074 2.92567 32.6313 5.10812 35.0745 8.04145C38.3467 5.2567 42.0511 3.11915 46.0278 1.74916Z" fill="#FEBC11"/>
<path d="M14.9121 35.2076C14.9121 33.5863 15.4508 32.2209 16.5281 31.1116C17.6055 30.0023 18.9708 29.4476 20.6241 29.4476C22.2668 29.4476 23.6268 29.9863 24.7041 31.0636C25.7921 32.1409 26.3361 33.5223 26.3361 35.2076C26.3361 36.8503 25.7921 38.2263 24.7041 39.3356C23.6161 40.4236 22.2561 40.9676 20.6241 40.9676C18.9921 40.9676 17.6268 40.4289 16.5281 39.3516C15.4508 38.2743 14.9121 36.8929 14.9121 35.2076ZM16.3521 35.2076C16.3521 36.4663 16.7628 37.5329 17.5841 38.4076C18.4055 39.2609 19.4188 39.6876 20.6241 39.6876C21.8828 39.6876 22.9068 39.2609 23.6961 38.4076C24.4961 37.5543 24.8961 36.4876 24.8961 35.2076C24.8961 33.9276 24.4855 32.8609 23.6641 32.0076C22.8428 31.1543 21.8295 30.7276 20.6241 30.7276C19.3975 30.7276 18.3788 31.1489 17.5681 31.9916C16.7575 32.8343 16.3521 33.9063 16.3521 35.2076ZM33.7354 35.4476L29.5754 40.8076H28.2954V33.6076H29.5754V38.9676L33.7354 33.6076H35.0154V40.8076H33.7354V35.4476ZM29.3194 29.9276H30.5194C30.5834 30.7703 30.9941 31.1916 31.7514 31.1916C32.4661 31.1916 32.8554 30.7703 32.9194 29.9276H34.1194C34.1194 30.5783 33.8954 31.1169 33.4474 31.5436C33.0101 31.9596 32.4447 32.1676 31.7514 32.1676C30.9941 32.1676 30.3967 31.9649 29.9594 31.5596C29.5327 31.1436 29.3194 30.5996 29.3194 29.9276ZM37.0543 40.0716C37.0543 39.8156 37.1343 39.6129 37.2943 39.4636C37.4543 39.3036 37.6783 39.2236 37.9663 39.2236C38.3076 39.2236 38.5849 39.3676 38.7983 39.6556C39.0116 39.9329 39.1183 40.3063 39.1183 40.7756C39.1183 41.3516 38.9583 41.8476 38.6383 42.2636C38.3289 42.6903 37.9023 42.9836 37.3583 43.1436L37.0063 42.5356C37.5609 42.3649 37.9023 42.0076 38.0303 41.4636C38.1049 41.1009 38.0996 40.8343 38.0143 40.6636C37.9503 40.7596 37.8329 40.8076 37.6623 40.8076C37.5023 40.8076 37.3583 40.7383 37.2303 40.5996C37.1129 40.4503 37.0543 40.2743 37.0543 40.0716ZM52.8998 40.8076H43.7798V33.6076H45.0598V39.6076H47.6998V33.6076H48.9798V39.6076H51.6198V33.6076H52.8998V39.6076H54.0998V42.5676H52.8998V40.8076ZM56.0745 39.9116C55.3705 39.1863 55.0185 38.2849 55.0185 37.2076C55.0185 36.1196 55.3705 35.2236 56.0745 34.5196C56.7892 33.8049 57.7172 33.4476 58.8585 33.4476C59.9999 33.4476 60.9225 33.8049 61.6265 34.5196C62.3412 35.2236 62.6985 36.1196 62.6985 37.2076C62.6985 38.2956 62.3412 39.1969 61.6265 39.9116C60.9225 40.6156 59.9999 40.9676 58.8585 40.9676C57.7278 40.9676 56.7999 40.6156 56.0745 39.9116ZM57.0825 35.3676C56.6132 35.8369 56.3785 36.4503 56.3785 37.2076C56.3785 37.9649 56.6078 38.5783 57.0665 39.0476C57.5359 39.5276 58.1332 39.7676 58.8585 39.7676C59.5838 39.7676 60.1758 39.5329 60.6345 39.0636C61.1038 38.5836 61.3385 37.9649 61.3385 37.2076C61.3385 36.4716 61.1038 35.8583 60.6345 35.3676C60.1758 34.8876 59.5838 34.6476 58.8585 34.6476C58.1332 34.6476 57.5412 34.8876 57.0825 35.3676ZM73.7071 29.4476L74.3951 30.4556C74.1391 30.8076 73.8298 31.0476 73.4671 31.1756C73.0725 31.3143 72.6245 31.4209 72.1231 31.4956C71.6325 31.5703 71.1685 31.7036 70.7311 31.8956C69.6431 32.3969 69.0351 33.5543 68.9071 35.3676H68.9391C69.1738 34.8663 69.5525 34.4609 70.0751 34.1516C70.6085 33.8423 71.1791 33.6876 71.7871 33.6876C72.8111 33.6876 73.6218 34.0129 74.2191 34.6636C74.8271 35.3143 75.1311 36.1836 75.1311 37.2716C75.1311 38.2956 74.7845 39.1703 74.0911 39.8956C73.4085 40.6103 72.5231 40.9676 71.4351 40.9676C70.2618 40.9676 69.3338 40.5676 68.6511 39.7676C67.9685 38.9783 67.6271 37.8849 67.6271 36.4876C67.6271 33.3729 68.5178 31.4369 70.2991 30.6796C70.7045 30.4983 71.1738 30.3649 71.7071 30.2796C72.1231 30.2049 72.4218 30.1463 72.6031 30.1036C72.7845 30.0609 72.9765 29.9863 73.1791 29.8796C73.3925 29.7729 73.5685 29.6289 73.7071 29.4476ZM68.9871 36.7276C68.9871 37.6449 69.2111 38.3809 69.6591 38.9356C70.1071 39.4903 70.6885 39.7676 71.4031 39.7676C72.0965 39.7676 72.6618 39.5329 73.0991 39.0636C73.5471 38.6049 73.7711 38.0289 73.7711 37.3356C73.7711 36.5996 73.5631 36.0076 73.1471 35.5596C72.7418 35.1116 72.1818 34.8876 71.4671 34.8876C70.8165 34.8876 70.2725 35.0689 69.8351 35.4316C69.3765 35.8049 69.0938 36.2369 68.9871 36.7276ZM81.774 33.6076H83.23L80.35 40.8076C79.8273 42.0769 79.374 42.9196 78.99 43.3356C78.5847 43.7836 78.1207 44.0076 77.598 44.0076C77.1287 44.0076 76.6753 43.8583 76.238 43.5596L76.654 42.5836C76.9953 42.7436 77.262 42.8236 77.454 42.8236C77.7527 42.8236 78.0193 42.6956 78.254 42.4396C78.4993 42.1836 78.7447 41.7676 78.99 41.1916L79.15 40.8076L75.694 33.6076H77.23L79.342 38.1836C79.3847 38.2583 79.5287 38.6209 79.774 39.2716C79.87 38.9196 79.982 38.5516 80.11 38.1676L81.774 33.6076ZM84.2378 42.5676H83.0378V39.6076H83.9338C84.2004 39.2769 84.4351 38.7436 84.6378 38.0076C84.8404 37.2609 84.9738 36.4289 85.0378 35.5116L85.1498 33.6076H90.0618V39.6076H91.2618V42.5676H90.0618V40.8076H84.2378V42.5676ZM86.3498 34.8076L86.2698 36.0076C86.2058 36.8076 86.0778 37.5383 85.8858 38.1996C85.6938 38.8609 85.4964 39.3303 85.2938 39.6076H88.7818V34.8076H86.3498ZM98.3348 39.0156L98.7348 40.0236C98.0414 40.6529 97.1401 40.9676 96.0308 40.9676C94.8574 40.9676 93.9241 40.6263 93.2308 39.9436C92.5268 39.2609 92.1748 38.3489 92.1748 37.2076C92.1748 36.1303 92.5054 35.2343 93.1668 34.5196C93.8174 33.8049 94.7241 33.4476 95.8868 33.4476C96.8468 33.4476 97.6414 33.7569 98.2708 34.3756C98.9108 34.9836 99.2308 35.7729 99.2308 36.7436C99.2308 37.0529 99.2041 37.3409 99.1508 37.6076H93.6148C93.6681 38.2796 93.9188 38.8076 94.3668 39.1916C94.8254 39.5756 95.4121 39.7676 96.1268 39.7676C97.0654 39.7676 97.8014 39.5169 98.3348 39.0156ZM95.8228 34.6476C95.1934 34.6476 94.6708 34.8236 94.2548 35.1756C93.8494 35.5276 93.6094 35.9916 93.5348 36.5676H97.9028C97.8708 35.9703 97.6681 35.5009 97.2948 35.1596C96.9321 34.8183 96.4414 34.6476 95.8228 34.6476ZM102.967 37.3676H101.607V29.6076H102.967V37.3676ZM101.399 39.9436C101.399 39.7089 101.485 39.5116 101.655 39.3516C101.826 39.1809 102.05 39.0956 102.327 39.0956C102.551 39.0956 102.749 39.1809 102.919 39.3516C103.09 39.5223 103.175 39.7196 103.175 39.9436C103.175 40.1996 103.095 40.4183 102.935 40.5996C102.775 40.7703 102.573 40.8556 102.327 40.8556C102.05 40.8556 101.826 40.7703 101.655 40.5996C101.485 40.4183 101.399 40.1996 101.399 39.9436Z" fill="#043314"/>
<path d="M117.533 40.1095C117.396 42.1937 117.195 44.3491 117.589 46.379C117.913 48.2867 118.633 50.0892 119.415 51.756C120.2 53.4872 121.115 55.1404 121.964 56.8003C122.884 58.5825 123.537 60.3917 123.268 62.4895C123.1 63.5417 121.493 63.2531 121.661 62.2008C121.933 60.1676 120.809 58.2123 119.893 56.5591C119.044 54.8992 118.197 53.3037 117.415 51.637C116.7 50.028 116.117 48.3409 115.863 46.5554C115.535 44.5187 115.672 42.4345 115.807 40.2859C115.975 39.2336 117.635 39.064 117.533 40.1095Z" fill="black"/>
<path d="M135.441 115.388C134.081 116.793 130.333 114.573 129.612 111.454C124.352 88.6394 147.401 61.6924 173.341 63.9685C166.655 65.962 164.637 71.2656 167.347 75.0431C157.908 76.3373 152.985 80.0176 149.119 89.8535C145.253 99.6893 144.409 108.438 144.409 108.438L135.441 115.388Z" fill="#364193"/>
<path d="M161.986 64.8493C141.136 69.7239 125.083 92.07 129.616 111.515C130.26 114.141 133.113 116.209 134.756 115.84C135.008 115.749 135.26 115.659 135.445 115.45L144.351 108.57C144.351 108.57 145.258 99.8144 149.061 89.986C152.45 81.3323 156.668 77.4167 163.998 75.729C165.009 75.4919 166.148 75.3033 167.287 75.1147C164.578 71.337 166.596 66.0336 173.282 64.0407C169.458 63.7104 165.651 64.0054 161.986 64.8493ZM161.834 63.9253C165.689 63.0604 169.623 62.7514 173.446 63.0817C173.892 63.0952 174.221 63.4979 174.233 63.9357C174.244 64.3734 173.938 64.7836 173.497 64.9577C170.47 65.8566 168.292 67.6025 167.458 69.7017C166.804 71.3421 167.041 73.0721 168.098 74.5234C168.296 74.8151 168.305 75.1278 168.187 75.4544C168.067 75.7186 167.755 75.9412 167.503 76.0318L167.439 76.0388C166.298 76.1648 165.224 76.4089 164.213 76.646C157.074 78.3127 153.232 81.9987 150.022 90.2562C146.277 99.89 145.367 108.521 145.369 108.583C145.312 108.84 145.192 109.105 144.944 109.32L136.036 116.137C135.726 116.422 135.351 116.652 134.909 116.764C133.834 117.008 132.424 116.599 131.189 115.606C129.955 114.614 129.028 113.273 128.735 111.863C127.656 107.216 127.715 102.379 128.788 97.3685C129.867 92.6079 131.84 87.9994 134.709 83.6055C137.823 78.8709 141.841 74.6012 146.392 71.2759C151.188 67.61 156.401 65.2153 161.834 63.9253Z" fill="black"/>
<path d="M137.162 77.1522L135.861 75.4682L138.363 73.2736C137.864 73.3247 133.025 74.8498 128.455 72.7129C122.233 69.7758 124.834 75.2037 124.834 75.2037C124.834 75.2037 131.555 78.0897 137.162 77.1522Z" fill="#364193"/>
<path d="M135.241 77.7806C135.93 77.7702 136.555 77.7057 137.24 77.5741C137.428 77.5548 137.549 77.4207 137.67 77.2866C137.728 77.0984 137.722 76.9167 137.594 76.8084L136.552 75.4576L138.691 73.596C138.875 73.4554 138.93 73.2066 138.863 73.0313C138.795 72.856 138.604 72.7542 138.354 72.78C138.292 72.7865 138.167 72.7994 138.043 72.8729C134.497 73.7254 131.357 73.5028 128.751 72.2528C126.528 71.2064 125.145 71.0455 124.352 71.7958C123.254 72.8207 124.195 75.0326 124.395 75.4373C124.461 75.552 124.525 75.6062 124.589 75.6603C124.843 75.7557 130.109 78.0069 135.241 77.7806ZM136.214 76.7686C131.466 77.2591 126.143 75.196 125.191 74.8082C124.854 73.9922 124.569 72.8064 124.934 72.4041C125.055 72.2701 125.733 71.8961 128.15 73.1049C130.564 74.2532 133.393 74.5686 136.636 74.0513L135.476 75.0827C135.294 75.2838 135.238 75.5326 135.37 75.762L136.214 76.7686Z" fill="black"/>
<path d="M155.636 119.605C164.299 120.4 173.377 120.222 180.939 119.96C182.135 119.893 182.802 121.181 181.881 122.085C179.977 123.961 175.064 126.471 168.136 126.849C156.108 127.532 155.745 125.84 146.1 126.017C136.645 126.236 133.608 128.172 121.448 128.684C110.486 129.128 98.7255 128.111 94.2978 127.663C93.2865 127.587 92.6337 126.791 92.6064 125.805C92.6487 125.058 93.0702 124.332 93.7534 123.949C96.0528 122.711 99.8735 121.741 105.059 117.655C112.835 111.495 115.235 97.9387 112.476 91.6817C111.656 89.4202 108.513 85.2455 110.855 85.5488C122.564 87.0034 123.717 76.2414 123.717 76.2414C123.717 76.2414 117.437 77.2299 112.135 74.8348C110.155 73.9358 112.453 72.6359 113.965 70.3078C115.603 67.966 117.709 66.5632 120.52 65.5788C126.018 63.6853 131.185 65.7857 132.91 71.1034C134.217 75.0437 133.381 79.0303 130.865 83.8172C128.647 88.0151 126.392 90.8565 125.94 97.2756C125.488 103.756 127.763 108.458 131.768 111.859" fill="#8CC800"/>
<path d="M166.211 127.684C166.841 127.677 167.47 127.609 168.101 127.602C174.841 127.243 180.136 124.814 182.345 122.595C182.959 121.972 183.188 121.143 182.916 120.43C182.642 119.655 181.872 119.182 180.927 119.222C173.238 119.499 164.35 119.719 155.746 118.857C155.367 118.836 154.934 119.131 154.881 119.508C154.828 119.884 155.092 120.289 155.471 120.31C164.136 121.103 173.152 120.931 180.84 120.655C181.218 120.614 181.413 120.84 181.481 121.018C181.548 121.135 181.553 121.32 181.306 121.532C179.342 123.477 174.356 125.688 168.058 126.061C161.444 126.406 158.343 126.061 155.305 125.71C152.9 125.414 150.369 125.131 146.019 125.231C141.353 125.304 138.213 125.829 134.886 126.437C131.306 127.011 127.54 127.666 121.364 127.902C110.4 128.348 98.7636 127.319 94.3353 126.871C93.7029 126.816 93.2473 126.308 93.293 125.685C93.2794 125.191 93.5818 124.725 94.017 124.493C94.6391 124.178 95.3241 123.856 96.1978 123.514C98.4415 122.529 101.559 121.201 105.448 118.12C109.151 115.182 111.984 110.421 113.404 104.761C114.649 99.6153 114.572 94.5509 113.092 91.2468C112.82 90.5339 112.354 89.6564 111.953 88.8338C111.553 88.0728 110.887 86.7841 110.744 86.1809C114.542 86.6356 117.739 85.918 120.146 83.987C123.849 81.0493 124.352 76.417 124.409 76.2251C124.404 76.0401 124.334 75.8002 124.204 75.6288C124.073 75.4574 123.819 75.4229 123.631 75.4434C123.568 75.4502 117.537 76.351 112.491 74.1138C112.234 73.956 112.107 73.9079 112.105 73.8462C112.098 73.5995 112.71 72.9146 113.077 72.5037C113.567 71.9557 114.054 71.3461 114.54 70.6748C115.997 68.5992 117.914 67.2161 120.663 66.2379C125.849 64.4388 130.575 66.5251 132.158 71.3026C133.33 74.8875 132.738 78.5398 130.161 83.4587C129.803 84.1781 129.381 84.9042 129.021 85.5619C127.218 88.7885 125.534 91.7548 125.181 97.2371C124.725 103.535 126.822 108.628 131.278 112.352C131.601 112.626 132.042 112.579 132.348 112.236C132.653 111.894 132.642 111.462 132.318 111.188C128.185 107.738 126.287 102.994 126.694 97.1969C127.057 92.0848 128.558 89.3239 130.362 86.1589C130.723 85.5013 131.144 84.7751 131.564 83.9873C134.32 78.7396 134.964 74.6487 133.656 70.7074C131.861 65.1484 126.369 62.7121 120.307 64.7917C117.246 65.8657 115.019 67.4679 113.381 69.8106C112.956 70.4134 112.468 71.023 112.04 71.5025C111.246 72.4545 110.512 73.2764 110.662 74.1263C110.74 74.6746 111.129 75.0655 111.832 75.3606C116.048 77.2547 120.838 77.1069 122.851 76.8889C122.509 78.225 121.638 80.9177 119.355 82.7735C117.256 84.4237 114.497 85.0319 111.079 84.598C110.256 84.5016 109.822 84.796 109.579 85.1316C108.91 86.0084 109.576 87.2972 110.711 89.5252C111.112 90.3478 111.576 91.1636 111.784 91.8216L111.785 91.8833C113.13 94.8926 113.201 99.7104 112.009 104.479C110.706 109.817 108.053 114.249 104.596 116.975C100.891 119.851 97.899 121.165 95.7182 122.143C94.8462 122.547 94.0983 122.875 93.4133 123.197C92.4818 123.731 91.8139 124.669 91.843 125.718C91.8178 127.082 92.7937 128.151 94.1231 128.317C98.6143 128.758 110.313 129.78 121.403 129.321C127.705 129.071 131.597 128.402 135.114 127.835C138.38 127.296 141.519 126.77 146.058 126.65C150.282 126.563 152.623 126.805 155.092 127.094C157.881 127.596 160.729 127.906 166.211 127.684Z" fill="black"/>
<path d="M122.173 128.807C118.33 128.976 114.417 128.905 110.692 128.813C113.016 126.148 111.432 116.792 108.011 116.296C110.891 113.201 112.854 108.905 113.81 104.718C114.337 105.527 115.842 107.468 119.995 107.08C124.462 106.658 126.211 103.747 126.633 103.021C128.038 110.478 134.212 114.759 142.104 117.246C141.854 117.335 141.475 117.314 140.968 117.245C138.306 116.791 135.412 123.91 137.391 127.036C133.31 127.726 129.357 128.525 122.173 128.807Z" fill="#364193"/>
<path d="M126.603 103.07C126.183 103.857 124.37 106.712 119.967 107.126C119.716 107.154 119.527 107.174 119.276 107.201C115.622 107.349 114.246 105.52 113.723 104.834C112.767 109.019 110.803 113.25 107.927 116.405C111.409 116.894 112.929 126.19 110.608 128.914C114.268 129.012 118.243 129.077 122.086 128.908C129.268 128.626 133.282 127.821 137.299 127.139C135.325 124.199 137.977 117.482 140.56 117.388C140.686 117.374 140.749 117.367 140.876 117.415C141.192 117.443 141.446 117.477 141.697 117.45C141.823 117.437 141.949 117.423 142.074 117.409C134.181 114.801 128.071 110.516 126.603 103.07ZM127.093 100.296L127.543 102.844C128.727 109.146 133.58 113.568 142.361 116.389L145.353 117.364L142.224 118.259C142.037 118.341 141.848 118.361 141.595 118.327C141.281 118.361 140.965 118.333 140.584 118.251C140.521 118.258 140.521 118.258 140.458 118.264C140.081 118.305 139.401 118.812 138.739 119.934C137.658 121.906 137.049 124.94 138.101 126.495L138.956 127.763L137.323 128.002C136.757 128.063 136.256 128.179 135.692 128.302C132.238 128.861 128.284 129.536 121.984 129.785C118.519 129.913 114.608 129.903 110.443 129.797L108.487 129.762L109.833 128.256C110.871 127.031 110.96 123.435 109.996 120.509C109.377 118.66 108.523 117.454 107.638 117.364L105.865 117.123L107.089 115.754C109.661 113.002 111.633 109.079 112.647 104.703L113.212 102.355L114.464 104.26C115.385 105.644 116.981 106.337 119.187 106.283C119.376 106.263 119.564 106.243 119.816 106.215C123.276 105.903 124.922 103.87 125.646 102.679L127.093 100.296Z" fill="black"/>
<path d="M123.149 117.623C123.089 117.554 123.029 117.485 122.968 117.416C122.845 117.342 122.784 117.273 122.787 117.209C122.666 117.07 122.546 116.932 122.548 116.868C122.554 116.74 122.623 116.616 122.757 116.433C122.957 116.191 123.026 116.067 123.092 116.008C123.303 115.509 123.386 115.064 123.281 114.541C123.232 114.215 123.056 113.879 122.881 113.543C122.642 113.202 122.338 112.921 122.091 112.773C121.657 112.546 121.092 112.438 120.272 112.375C119.072 112.282 118.249 112.283 117.931 112.323C117.549 112.358 117.292 112.467 117.217 112.719C117.212 112.848 117.198 113.169 117.239 113.687C117.231 113.88 117.272 115.881 117.238 119.615C117.249 120.84 117.279 121.616 117.395 121.883C117.647 121.902 118.152 121.941 118.912 121.935C119.543 121.984 120.051 121.959 120.429 121.988C121.571 121.947 122.336 121.813 122.855 121.531C123.311 121.244 123.582 120.814 123.799 120.186C124.024 119.366 123.81 118.448 123.149 117.623ZM119.388 115.271C119.473 114.762 119.489 114.377 119.432 114.243C119.563 114.125 119.695 114.006 119.95 113.961C120.142 113.912 120.332 113.926 120.518 114.005C120.894 114.098 121.07 114.434 121.045 115.012C121.02 115.59 120.88 115.902 120.617 116.139C120.488 116.193 120.296 116.243 120.04 116.288C119.785 116.333 119.599 116.254 119.475 116.18C119.355 116.041 119.305 115.716 119.388 115.271ZM121.069 120.362C120.808 120.535 120.424 120.635 119.859 120.527C119.672 120.448 119.62 120.186 119.568 119.924C119.571 119.86 119.519 119.598 119.478 119.079C119.437 118.561 119.45 118.24 119.519 118.116C119.588 117.993 119.78 117.943 120.098 117.903C120.416 117.863 120.603 117.942 120.852 118.026C121.163 118.179 121.338 118.514 121.437 119.166C121.412 119.744 121.332 120.125 121.069 120.362Z" fill="#E62828"/>
<path d="M101.052 124.744C101.114 124.738 101.239 124.725 101.302 124.719C104.398 123.486 106.924 122.064 108.447 120.618C108.752 120.342 108.799 119.844 108.477 119.568C108.218 119.286 107.716 119.275 107.413 119.613C106.074 120.917 103.733 122.259 100.823 123.412C100.452 123.572 100.213 123.966 100.351 124.383C100.482 124.555 100.739 124.775 101.052 124.744Z" fill="#B4E100"/>
<path d="M125.754 76.0904C126.011 76.0639 126.263 75.8456 126.256 75.5897C126.254 75.5257 126.324 73.5295 124.998 72.3825C124.799 72.2104 124.477 72.2435 124.29 72.4552C124.102 72.667 124.112 72.9868 124.311 73.1589C125.303 73.9552 125.222 75.5676 125.222 75.5676C125.231 75.8874 125.494 76.0529 125.754 76.0904Z" fill="black"/>
<path d="M111.348 83.6006L111.461 83.2295C111.619 82.2542 112.762 80.8218 114.068 80.6332C114.442 80.5963 115.002 80.5411 115.322 80.8095C115.515 80.9705 115.641 81.018 116.134 80.7895C116.441 80.6392 116.872 80.4168 117.181 80.3264C117.864 80.1991 119.547 80.0932 119.539 81.8935C117.644 83.2201 115.045 84.0161 111.348 83.6006Z" fill="#E62828"/>
<path d="M113.614 84.2442C115.99 84.1824 118.096 83.4834 119.749 82.287L119.995 82.141L119.988 81.9C119.966 81.1772 119.761 80.594 119.311 80.217C118.605 79.6246 117.547 79.7934 117.112 79.8983C116.615 80.0096 116.061 80.308 115.876 80.3874C115.815 80.454 115.753 80.4604 115.69 80.4668L115.626 80.4129C115.179 80.0962 114.491 80.1062 113.992 80.1573C112.497 80.3707 111.106 81.9632 110.893 83.1935L110.731 84.056L111.233 84.1254C112.05 84.2231 112.864 84.2606 113.614 84.2442ZM118.979 81.6408C117.14 82.9165 114.715 83.4065 111.894 83.2119C112.059 82.4699 113.025 81.2834 114.083 81.1147C114.52 81.07 114.833 81.0983 114.962 81.206C115.345 81.4689 115.661 81.5574 116.275 81.1924C116.582 80.9798 116.952 80.821 117.139 80.8019C117.389 80.7763 118.135 80.6395 118.583 80.9562C118.838 81.1114 118.97 81.3396 118.979 81.6408Z" fill="black"/>
<path d="M111.988 75.408C111.665 75.0787 111.82 73.9778 112.04 72.9909L112.097 72.8042C117.294 75.1139 123.456 74.1908 123.456 74.1908C123.456 74.1908 123.362 75.2253 122.839 76.5443L122.777 76.5506C119.361 77.3172 112.825 76.2279 111.988 75.408Z" fill="white"/>
<path d="M120.678 77.3184C121.491 77.2959 122.24 77.2193 122.862 77.0952L122.924 77.0888C123.112 77.0697 123.233 76.9362 123.29 76.7487C123.812 75.3633 123.905 74.2639 123.905 74.2639C123.902 74.1432 123.896 73.9621 123.77 73.9145C123.641 73.8065 123.515 73.7589 123.39 73.7716C123.328 73.778 117.343 74.6317 112.335 72.4793C112.208 72.4317 112.084 72.4445 111.959 72.4572C111.836 72.5303 111.713 72.6034 111.654 72.7306L111.597 72.918C111.599 72.9784 111.599 72.9784 111.538 73.0451C111.096 75.0279 111.363 75.606 111.621 75.8824C112.456 76.5842 117.113 77.4404 120.678 77.3184ZM122.459 76.1676C119.035 76.8202 112.993 75.6817 112.349 75.0814C112.349 75.0814 112.153 74.7987 112.428 73.4992C116.671 75.1847 121.232 74.9003 122.855 74.7345C122.803 75.1031 122.693 75.5988 122.459 76.1676Z" fill="black"/>
<path d="M131.682 94.2234C125.833 103.81 129.128 112.701 134.028 115.962C135.381 116.826 140.623 118.796 140.623 118.796C140.623 118.796 143.975 121.024 150.878 121.439C155.943 121.731 160.75 119.664 165.292 115.048C170.509 109.735 174.621 94.8018 162.186 86.7945C151.748 80.0876 138.074 83.7015 131.682 94.2234Z" fill="#E62828"/>
<path d="M136.195 93.0425C136.382 93.0244 136.63 92.9397 136.748 92.7456C140.005 89.0236 144.684 86.8675 149.99 86.7196L150.052 86.7135C150.488 86.6714 150.792 86.3986 150.841 85.968C150.827 85.5434 150.569 85.2642 150.131 85.2457L150.069 85.2517C144.327 85.4418 139.215 87.7614 135.657 91.8168C135.355 92.1502 135.431 92.5688 135.69 92.848C135.82 93.0179 136.009 93.0605 136.195 93.0425Z" fill="#FF5A5A"/>
<path d="M161.875 93.1236C162.125 93.0984 162.373 93.0117 162.553 92.7466C164.829 89.1829 168.213 86.9899 172.029 86.6064C172.466 86.5623 172.77 86.223 172.757 85.7921C172.744 85.3611 172.422 85.0847 171.984 85.1287C167.668 85.5626 163.852 87.9842 161.276 92.0104C161.035 92.3434 161.175 92.8233 161.496 93.0382C161.623 93.0872 161.75 93.1362 161.875 93.1236Z" fill="black"/>
<path d="M151.647 122.065C152.846 122.004 154.107 121.873 155.364 121.617C160.201 120.551 164.23 117.809 167.325 113.405C170.604 108.793 171.834 103.326 170.73 98.0374C169.554 92.4423 165.938 87.7281 160.739 85.0627C156.759 83.0248 151.679 82.2944 146.896 83.0411C141.735 83.827 137.129 86.3144 134.012 89.9669C131.017 93.481 129.051 97.5797 128.539 101.653C127.917 106.304 129.124 110.828 132.017 114.612C132.279 114.899 132.724 114.978 133.032 114.695C133.339 114.412 133.453 113.961 133.191 113.673C127.075 105.637 130.162 96.648 135.115 90.9206C141.535 83.4708 152.832 82.8032 160.021 86.4563C164.835 88.9104 168.188 93.2749 169.29 98.5007C170.318 103.357 169.202 108.436 166.165 112.646C159.485 122.007 149.912 121.114 144.751 119.764C138.442 118.093 135.967 111.313 136.869 105.44C137.608 100.463 141.046 94.8296 148.234 94.1479C153.592 93.593 158.15 98.084 158.462 102.261C158.667 104.941 157.115 108.054 154.571 109.7C153.206 110.595 150.399 111.891 146.992 109.982C145.771 109.292 144.913 108.062 144.681 106.641C144.453 105.345 144.795 104.053 145.524 103.035C146.497 101.741 147.747 101.235 148.956 101.486C150.038 101.751 150.824 102.675 150.918 103.733C150.931 104.172 151.319 104.446 151.695 104.344C152.136 104.298 152.44 103.89 152.366 103.52C152.254 101.836 151.075 100.45 149.356 100.063C147.51 99.6257 145.637 100.448 144.298 102.22C143.264 103.584 142.872 105.32 143.113 107.055C143.42 108.907 144.541 110.488 146.085 111.396C149.044 113.1 152.39 112.941 155.242 111.013C158.281 109.002 160.136 105.417 159.849 102.117C159.649 99.6249 158.248 97.1314 156.046 95.3491C153.714 93.4547 150.904 92.4893 148.068 92.7831C144.538 93.1487 141.419 94.6025 139.153 97.0988C137.069 99.325 135.763 102.225 135.29 105.478C134.278 111.927 137.029 119.495 144.165 121.332C146.2 121.75 148.805 122.171 151.647 122.065Z" fill="black"/>
<path fill-rule="evenodd" clip-rule="evenodd" d="M155.45 83.0397C153.613 78.6781 155.837 73.0269 156.223 73.1072C156.736 73.1726 160.921 74.2508 163.602 76.5704C166.873 79.448 167.497 83.8887 164.146 85.4713C159.468 87.648 156.809 86.2034 155.45 83.0397Z" fill="#B4E100"/>
<path d="M160.472 86.9627C161.621 86.891 162.955 86.547 164.345 85.8833C165.672 85.2894 166.54 84.1855 166.825 82.8364C167.282 80.6528 166.192 78.0234 163.971 76.1528C161.16 73.7247 156.784 72.6074 156.335 72.5347C156.208 72.5496 155.951 72.5169 155.766 72.7892C155.084 73.6208 153.237 78.9744 155.005 83.1535C155.753 84.9456 156.869 86.0683 158.352 86.584C159.001 86.9467 159.707 87.0522 160.472 86.9627ZM156.427 73.6517C157.457 73.9072 161.001 74.9965 163.289 76.9845C165.185 78.6424 166.203 80.9669 165.866 82.8233C165.636 83.8526 165.016 84.6143 164.004 85.0459C160.022 86.8899 157.318 86.1411 155.956 82.8543C154.392 79.1526 155.879 74.7183 156.427 73.6517Z" fill="black"/>
<path d="M149.465 95.2552C149.725 95.2291 149.916 95.0809 149.974 94.8172C150.09 94.3541 150.206 93.891 150.319 93.2993C150.607 92.0451 150.891 90.6624 151.25 89.5945C151.308 89.3308 151.168 89.0225 150.906 88.9843C150.644 88.9462 150.322 89.1074 150.265 89.3711C149.906 90.439 149.624 91.886 149.336 93.1402C149.221 93.6676 149.107 94.195 148.988 94.5938C148.931 94.8575 149.071 95.1658 149.398 95.1974C149.4 95.2617 149.4 95.2617 149.465 95.2552Z" fill="black"/>
<path d="M152.933 96.1395C153.124 96.1197 153.313 96.0365 153.371 95.8398C153.854 94.8998 154.889 93.2032 155.439 92.3833C155.624 92.1734 155.551 91.8632 155.355 91.693C155.158 91.5227 154.842 91.6192 154.657 91.8291C154.043 92.6557 153.01 94.4156 152.466 95.4256C152.346 95.6922 152.419 96.0024 152.677 96.1027C152.74 96.096 152.806 96.1528 152.933 96.1395Z" fill="black"/>
<path d="M139.481 100.26C139.669 100.241 139.855 100.16 139.912 99.9676C140.03 99.7071 139.958 99.4038 139.704 99.3054C139.066 98.9977 138.171 98.5297 137.342 98.1173C136.447 97.6493 135.553 97.1813 134.915 96.8735C134.661 96.7752 134.349 96.8691 134.231 97.1296C134.113 97.3901 134.185 97.6934 134.44 97.7917C135.078 98.0994 135.972 98.5674 136.802 98.9799C137.696 99.4479 138.59 99.9159 139.228 100.224C139.293 100.279 139.355 100.273 139.481 100.26Z" fill="black"/>
<path d="M162.828 83.3499C162.892 83.3433 162.956 83.3367 163.082 83.2599C163.333 83.1063 163.453 82.8388 163.318 82.5979C163.249 82.4139 161.404 78.3989 158.845 76.2428C158.648 76.072 158.329 76.1052 158.143 76.3157C157.957 76.5262 157.967 76.8439 158.164 77.0147C160.525 79.0001 162.371 83.0151 162.372 83.0786C162.442 83.2626 162.637 83.3698 162.828 83.3499Z" fill="black"/>
<path d="M143.027 99.407C143.214 99.3884 143.462 99.3023 143.583 99.1674C144.431 98.2229 145.975 97.5165 147.411 97.3737C147.848 97.3303 148.151 96.9929 148.138 96.5642C148.125 96.1354 147.803 95.8601 147.366 95.9036C145.555 96.0836 143.642 97.011 142.552 98.2253C142.249 98.5626 142.262 98.9914 142.584 99.2667C142.65 99.383 142.839 99.4256 143.027 99.407Z" fill="#FF5A5A"/>
<path d="M140.334 106.586C140.397 106.579 140.46 106.573 140.46 106.573C140.523 106.566 140.586 106.559 140.585 106.497C140.648 106.49 140.646 106.427 140.709 106.421C140.772 106.414 140.77 106.351 140.834 106.345C140.897 106.338 140.895 106.275 140.956 106.206C140.954 106.143 141.017 106.137 141.016 106.074C141.014 106.011 141.077 106.004 141.075 105.942C141.073 105.879 141.071 105.816 141.071 105.816C141.07 105.753 141.068 105.69 141.068 105.69C141.066 105.628 141.064 105.565 141.001 105.571C140.999 105.508 140.936 105.515 140.934 105.452C140.932 105.389 140.869 105.396 140.867 105.333C140.672 105.164 140.416 105.065 140.228 105.147C140.165 105.154 140.102 105.161 140.104 105.223C140.041 105.23 140.043 105.293 139.979 105.299C139.916 105.306 139.918 105.369 139.855 105.375C139.792 105.382 139.794 105.445 139.732 105.514C139.734 105.577 139.671 105.583 139.673 105.646C139.675 105.709 139.612 105.716 139.613 105.778C139.615 105.841 139.617 105.904 139.617 105.904C139.619 105.967 139.621 106.03 139.621 106.03C139.623 106.092 139.624 106.155 139.688 106.149C139.689 106.212 139.753 106.205 139.754 106.268C139.756 106.331 139.819 106.324 139.821 106.387C139.823 106.45 139.886 106.443 139.951 106.499C140.014 106.493 140.016 106.556 140.079 106.549C140.143 106.543 140.144 106.605 140.208 106.599C140.208 106.599 140.271 106.592 140.334 106.586Z" fill="black"/>
<path d="M141.754 119.731C141.942 119.712 142.191 119.624 142.311 119.425C142.616 119.083 142.54 118.655 142.28 118.37C140.344 116.763 138.949 116.407 137.679 116.039C136.347 115.677 135.332 115.408 133.769 113.637C133.508 113.353 133.067 113.336 132.698 113.622C132.392 113.903 132.342 114.344 132.604 114.69C134.428 116.745 135.76 117.107 137.157 117.524C138.299 117.843 139.504 118.156 141.245 119.534C141.376 119.708 141.566 119.751 141.754 119.731Z" fill="black"/>
<path d="M113.743 67.5992C114.752 65.2566 118.078 62.1659 122.614 61.7347C126.455 61.3169 131.874 63.1464 133.6 68.4788C134.357 70.7533 133.66 75.2328 132.877 76.6205C131.709 73.2121 125.737 65.0544 113.743 67.5992Z" fill="#364193"/>
<path d="M132.893 77.1211C133.082 77.1005 133.269 77.018 133.327 76.8255C134.171 75.3681 134.864 70.7 134.103 68.3004C133.275 65.7839 131.576 63.7348 129.204 62.5037C127.218 61.4789 124.803 60.9972 122.662 61.2306C118.061 61.6698 114.42 64.7974 113.356 67.4579C113.298 67.6504 113.303 67.836 113.432 67.9461C113.562 68.0561 113.691 68.1661 113.878 68.0836C125.687 65.5557 131.473 73.7382 132.504 76.791C132.511 77.0385 132.641 77.1486 132.893 77.1211C132.83 77.128 132.893 77.1211 132.893 77.1211ZM123.13 62.1726C126.412 62.0632 131.447 63.6247 133.102 68.6577C133.653 70.3354 133.361 73.4704 132.842 75.2648C131.907 73.4427 130.201 71.146 127.625 69.3786C125.049 67.6112 120.702 65.7885 114.541 66.8943C115.872 64.7633 118.843 62.5156 122.561 62.1725C122.815 62.2069 122.941 62.1932 123.13 62.1726Z" fill="black"/>
<path d="M132.888 77.8692C133.149 77.8432 133.405 77.6884 133.398 77.431C133.457 77.2314 134.106 72.7772 130.793 69.2352C130.591 69.0617 130.264 69.0299 130.074 69.2425C129.884 69.4551 129.829 69.7834 130.03 69.9569C133.005 73.1453 132.412 77.2713 132.414 77.3356C132.356 77.5996 132.56 77.8374 132.888 77.8692C132.823 77.8757 132.823 77.8757 132.888 77.8692Z" fill="black"/>
<path d="M165.247 98.2417C165.311 98.2351 165.374 98.2285 165.438 98.2219C165.69 98.1321 165.871 97.796 165.737 97.5561C164.207 93.1465 160.569 90.7331 159.34 90.0996C159.083 89.9995 158.767 90.0959 158.647 90.3622C158.528 90.6284 158.6 90.9382 158.858 91.0382C159.956 91.5585 163.336 93.8717 164.794 97.9717C164.863 98.1548 165.057 98.2615 165.247 98.2417Z" fill="black"/>
<path d="M137.578 53.4256C134.034 57.3609 131.21 61.8493 129.226 66.6243C128.805 67.62 127.442 66.9483 127.799 65.9597C129.778 60.9955 132.728 56.4299 136.396 52.3543C137.082 51.6458 138.262 52.654 137.578 53.4256Z" fill="black"/>
<path d="M137.918 18.7263C141.807 15.1822 147.026 14.2946 149.473 14.6988C149.6 14.7453 149.827 14.0094 149.699 13.9036C147.225 12.6111 140.353 12.5385 135.857 16.6789C135.189 17.2815 137.37 19.1979 137.918 18.7263Z" fill="black"/>
<path d="M156.789 33.9254C154.994 23.9227 142.509 20.0431 134.31 26.7049C124.619 34.5327 127.776 50.2678 140.005 51.7351C150.26 52.982 158.754 43.1585 156.789 33.9254Z" fill="white"/>
<path d="M142.432 52.276C146.426 52.0861 150.251 50.3504 153.213 47.2081C156.729 43.4415 158.306 38.3868 157.291 33.743C156.397 28.898 152.992 25.0807 148.126 23.5521C143.26 22.0234 138.019 23.0391 133.979 26.2377C129.257 30.012 127.135 36.0029 128.434 41.7418C129.732 47.4808 134.093 51.443 139.888 52.1183C140.718 52.2772 141.607 52.3043 142.432 52.276ZM142.93 23.8745C144.515 23.8249 146.171 24.0179 147.772 24.5298C152.318 25.9685 155.525 29.4948 156.346 34.0348C157.289 38.3737 155.829 43.04 152.561 46.5916C149.292 50.0807 144.767 51.7683 140.181 51.21C134.831 50.5482 130.731 46.8701 129.508 41.5609C128.283 36.1893 130.29 30.6491 134.638 27.1037C136.995 25.0918 139.95 24.0152 142.93 23.8745Z" fill="black"/>
<path d="M147.325 52.2216C147.331 54.77 140.439 55.5865 136.187 54.1106C131.934 52.5742 127.324 47.132 129.805 45.8889C131.108 45.2605 131.594 46.9672 135.545 48.9616C142.427 52.3946 147.386 49.8479 147.325 52.2216Z" fill="#8CC800"/>
<path d="M141.748 55.3282C143.759 55.2298 145.634 54.7813 146.745 53.9907C147.671 53.342 147.842 52.6544 147.829 52.1693C147.85 50.586 146.34 50.5688 144.513 50.4648C142.498 50.3813 139.414 50.2933 135.844 48.4949C134.059 47.5957 133.031 46.796 132.261 46.2114C131.297 45.4655 130.654 44.9278 129.662 45.4621C129.041 45.7733 128.679 46.3602 128.697 47.0272C128.695 49.3382 132.511 53.2989 136.067 54.5516C137.718 55.1613 139.801 55.4198 141.748 55.3282ZM146.888 52.2723C146.898 52.6361 146.655 52.9668 146.222 53.2574C144.37 54.5548 139.595 54.7734 136.421 53.6615C133.055 52.4488 129.623 48.7502 129.638 46.9242C129.627 46.4998 129.812 46.3579 129.998 46.2767C130.371 46.1142 130.625 46.208 131.588 46.9539C132.36 47.5992 133.451 48.392 135.3 49.3449C139.061 51.244 142.273 51.3789 144.351 51.4555C146.366 51.539 146.872 51.666 146.888 52.2723Z" fill="black"/>
<path d="M149.105 38.4543C148.775 42.6049 142.6 46.0881 137.685 42.3886C133.416 39.1171 136.995 33.3629 140.072 32.4017C148.425 29.8015 149.344 35.6228 149.105 38.4543Z" fill="#FA961E"/>
<path d="M143.477 31.7776C142.527 31.8195 141.392 32.0065 140.072 32.4009C137.057 33.3558 133.413 39.1203 137.684 42.3939C139.238 43.5956 140.897 44.0371 142.478 43.9259C145.896 43.8001 148.866 41.2284 149.106 38.3951C149.296 36.0664 148.666 31.582 143.477 31.7776ZM143.513 30.7756C145.601 30.6711 147.2 31.244 148.374 32.4873C150.264 34.4007 150.217 37.3374 150.122 38.4707C149.976 40.1085 149.07 41.7051 147.647 42.984C146.223 44.2008 144.405 44.8995 142.507 44.9832C140.608 45.0669 138.691 44.4665 137.073 43.2095C135.132 41.7385 134.376 39.5759 134.943 37.1433C135.57 34.5795 137.658 32.167 139.857 31.4889C141.175 31.0323 142.437 30.8314 143.513 30.7756Z" fill="black"/>
<path d="M138.678 36.6124C137.969 38.3185 138.909 40.1681 140.762 40.8554C142.613 41.4801 144.74 40.6948 145.385 38.9952C146.093 37.289 145.154 35.4395 143.301 34.7521C141.449 34.1274 139.388 34.9688 138.678 36.6124Z" fill="black"/>
<path d="M141.182 36.7078C141.147 37.6562 140.348 38.4949 139.399 38.5304C138.45 38.566 137.669 37.8283 137.704 36.8799C137.74 35.9315 138.539 35.0928 139.487 35.0573C140.499 35.0152 141.218 35.7594 141.182 36.7078Z" fill="white"/>
<path d="M128.613 20.1035C125.154 20.4286 122.335 18.725 121.357 17.4886C121.293 17.4346 120.859 17.7277 120.925 17.8427C121.474 19.5551 124.704 22.4974 128.666 22.116C129.232 22.0528 129.118 20.1083 128.613 20.1035Z" fill="black"/>
<path d="M126.247 26.2618C122.746 21.148 114.534 22.3649 111.573 27.753C107.769 34.7962 113.653 41.2723 120.521 39.5785C126.766 38.3282 129.923 30.7939 126.247 26.2618Z" fill="white"/>
<path d="M118.765 40.3335C119.399 40.3262 119.967 40.2013 120.598 40.0693C123.688 39.4166 126.294 37.2546 127.544 34.2418C128.796 31.2912 128.456 28.1409 126.619 25.9054C124.902 23.4067 121.95 22.169 118.661 22.5311C115.436 22.8862 112.569 24.7644 111.122 27.5488C109.31 30.8736 109.469 34.4188 111.443 37.0143C113.154 39.2636 115.851 40.4669 118.765 40.3335ZM119.386 23.5139C122.047 23.4084 124.425 24.5218 125.812 26.5568C127.453 28.5638 127.717 31.285 126.647 33.903C125.514 36.5903 123.22 38.5305 120.444 39.0862C119.876 39.2111 119.307 39.2738 118.801 39.3295C116.203 39.428 113.827 38.3769 112.313 36.3559C110.536 33.9889 110.451 30.8729 112.019 27.8876C113.348 25.4287 115.841 23.7792 118.75 23.4589C118.941 23.5003 119.131 23.4794 119.386 23.5139Z" fill="black"/>
<path d="M111.637 37.5632C110.41 38.5387 112.609 40.9572 115.076 41.7189C117.543 42.4805 122.23 41.8591 122.054 40.0084C121.958 38.8125 120.717 39.3069 118.138 39.0397C113.923 38.5854 112.803 36.5944 111.637 37.5632Z" fill="#8CC800"/>
<path d="M117.983 42.5072C119.489 42.465 121.047 42.0541 121.909 41.416C122.584 40.8587 122.695 40.302 122.621 39.8864C122.524 38.626 121.519 38.6138 120.201 38.6356C119.698 38.6295 119.008 38.6438 118.252 38.5442C116.174 38.3456 114.902 37.7572 113.948 37.3159C112.932 36.8813 112.169 36.5403 111.37 37.1716C110.94 37.5208 110.764 37.9635 110.841 38.4998C111.004 39.8742 112.933 41.5413 114.96 42.169C115.783 42.4429 116.854 42.5689 117.983 42.5072ZM112.266 37.8007C112.517 37.7736 112.835 37.9207 113.471 38.2149C114.424 38.6563 115.823 39.2915 118.088 39.4697C118.907 39.5625 119.535 39.555 120.1 39.5543C121.482 39.5861 121.609 39.6329 121.621 40.0553C121.624 40.176 121.631 40.4173 121.262 40.6994C120.217 41.5388 117.149 41.8712 115.25 41.2903C113.414 40.7629 111.866 39.2361 111.779 38.3377C111.772 38.0964 111.831 37.9689 111.892 37.9018C112.078 37.8211 112.141 37.8143 112.266 37.8007Z" fill="black"/>
<path d="M122.904 31.6748C122.719 34.1895 118.978 36.3467 116.001 34.0545C113.413 32.0937 115.597 28.5487 117.419 27.9745C122.507 26.4177 123.046 29.9131 122.904 31.6748Z" fill="#FA961E"/>
<path d="M119.436 27.6292C118.865 27.6295 118.172 27.768 117.356 28.0448C115.534 28.6193 113.285 32.1105 115.938 34.1275C116.908 34.832 117.865 35.1012 118.878 35.0524C120.966 34.9478 122.762 33.4403 122.904 31.6779C122.992 30.2333 122.663 27.462 119.436 27.6292ZM119.535 26.6201C120.928 26.5919 122.016 26.9716 122.798 27.7591C124.037 29.0579 124.025 30.9309 123.982 31.6843C123.79 33.9513 121.499 35.8875 118.905 36.0476C117.64 36.1242 116.424 35.6962 115.39 34.9364C114.096 33.9555 113.55 32.5182 113.949 30.9145C114.347 29.2487 115.76 27.5963 117.206 27.1879C118.019 26.7867 118.775 26.6412 119.535 26.6201Z" fill="black"/>
<path d="M120.985 31.029C120.825 29.9118 119.789 29.1375 118.657 29.3811C117.524 29.6247 116.669 30.7212 116.829 31.8384C116.988 32.9556 118.024 33.7298 119.157 33.4862C120.292 33.3054 121.083 32.2155 120.985 31.029Z" fill="black"/>
<path d="M118.247 30.0656C118.327 30.6242 117.9 31.1724 117.333 31.2942C116.767 31.416 116.249 31.0289 116.169 30.4703C116.09 29.9118 116.517 29.3636 117.083 29.2418C117.65 29.12 118.168 29.5071 118.247 30.0656Z" fill="white"/>
</svg>
