<svg width="341" height="201" viewBox="0 0 321 201" fill="none" xmlns="http://www.w3.org/2000/svg">
<path d="M195.512 88.9844C201.332 87.2753 206.624 84.1365 210.901 79.8572C215.178 75.5778 218.302 70.2957 219.984 64.4975C221.666 58.6993 221.854 52.5716 220.529 46.679C219.203 40.7864 216.408 35.3185 212.401 30.7792C208.394 26.24 203.303 22.7753 197.598 20.7046C191.893 18.6338 185.758 18.0236 179.757 18.9301C173.756 19.8366 168.083 22.2306 163.26 25.8917C158.437 29.5527 154.62 34.363 152.161 39.8792C150.537 32.4718 146.601 25.7614 140.915 20.7068C135.23 15.6522 128.085 12.5121 120.501 11.7349C112.918 10.9578 105.285 12.5835 98.692 16.3797C92.0991 20.1759 86.8838 25.9485 83.7915 32.8726C82.1632 25.4687 78.2252 18.7628 72.5394 13.7118C66.8537 8.66087 59.7107 5.52305 52.1301 4.74615C43.8082 3.89712 35.4509 5.94201 28.4811 10.5327C21.5113 15.1234 16.3598 21.9761 13.9038 29.9241C11.4477 37.8721 11.8388 46.4241 15.0105 54.1242C18.1823 61.8243 23.9385 68.1964 31.2993 72.1557C24.4325 74.1771 18.3264 78.1812 13.7551 83.6604C9.18375 89.1395 6.3532 95.8469 5.62221 102.932C4.65205 112.42 7.51149 121.908 13.5718 129.309C19.6322 136.709 28.3973 141.417 37.94 142.397C45.5206 143.174 53.1516 141.55 59.7436 137.758C66.3357 133.965 71.552 128.197 74.6482 121.277C76.2719 128.685 80.2078 135.395 85.8937 140.45C91.5797 145.504 98.7246 148.645 106.308 149.422C113.891 150.199 121.524 148.573 128.117 144.777C134.71 140.981 139.925 135.208 143.018 128.284C144.85 136.646 149.621 144.088 156.472 149.273C163.324 154.457 171.807 157.045 180.398 156.57C188.989 156.096 197.125 152.59 203.344 146.684C209.563 140.777 213.457 132.857 214.327 124.345C215.062 117.265 213.666 110.125 210.316 103.83C206.967 97.5348 201.814 92.368 195.512 88.9844Z" fill="#E62856"/>
<path d="M54.3943 66.8319L53.0413 66.6933L54.0527 56.825L48.0043 56.2051L46.993 66.0734L45.6401 65.9348L46.7819 54.7931L55.5361 55.6903L54.3943 66.8319ZM57.8721 66.2877C57.2457 65.4943 56.9874 64.5618 57.0973 63.4901C57.2082 62.4078 57.6497 61.5523 58.4218 60.9237C59.2056 60.2857 60.1652 60.0248 61.3006 60.1412C62.436 60.2575 63.3174 60.707 63.9449 61.4898C64.5841 62.2629 64.8482 63.1907 64.7373 64.273C64.6263 65.3554 64.179 66.2156 63.3952 66.8537C62.6231 67.4822 61.6693 67.7383 60.5339 67.622C59.4092 67.5067 58.5219 67.0619 57.8721 66.2877ZM59.3381 61.8701C58.8234 62.2891 58.5274 62.8753 58.4502 63.6287C58.373 64.3821 58.5386 65.0156 58.947 65.5293C59.365 66.0546 59.9347 66.3543 60.6563 66.4282C61.3778 66.5022 61.9907 66.3291 62.4948 65.909C63.0106 65.4793 63.3071 64.8878 63.3843 64.1344C63.4594 63.4022 63.2885 62.7682 62.8716 62.2322C62.4643 61.7079 61.8998 61.4088 61.1783 61.3349C60.4567 61.261 59.8433 61.4394 59.3381 61.8701ZM66.2075 68.0426L66.9415 60.8801C66.9946 60.8855 67.0689 60.8931 67.1644 60.9029C67.2609 60.9021 67.3994 60.9109 67.5798 60.9294C67.7613 60.9373 67.9263 60.9488 68.0749 60.9641C68.8623 61.0233 69.3515 61.0627 69.5425 61.0823C71.601 61.2933 72.5672 62.0142 72.4411 63.2451C72.3976 63.6695 72.2274 64.022 71.9306 64.3025C71.6349 64.5725 71.2715 64.7175 70.8406 64.7377L70.8373 64.7695C71.9308 65.0853 72.4303 65.7048 72.3356 66.6279C72.1932 68.018 71.0237 68.6005 68.8272 68.3754C68.7211 68.3645 68.2553 68.306 67.4298 68.2C67.2707 68.1837 67.0961 68.1604 66.9062 68.1303C66.7152 68.1107 66.5672 68.0902 66.4622 68.0687C66.3561 68.0578 66.2712 68.0491 66.2075 68.0426ZM69.3383 65.1145L67.8103 64.9579L67.5852 67.1544C68.346 67.2645 68.8324 67.3305 69.0447 67.3522C70.2649 67.4773 70.9142 67.1578 70.9925 66.3938C71.0676 65.6616 70.5162 65.2352 69.3383 65.1145ZM69.5319 62.1267C69.2242 62.0951 68.7504 62.0627 68.1105 62.0292L67.8919 64.1621L69.4995 64.3268C69.9345 64.3714 70.295 64.3065 70.581 64.1321C70.8669 63.9576 71.0273 63.7006 71.0621 63.3611C71.1349 62.6501 70.6249 62.2387 69.5319 62.1267ZM75.6961 69.015L74.4227 68.8845L75.1567 61.722L76.4301 61.8525L75.6961 69.015ZM75.2732 59.0158C75.2961 58.7929 75.3942 58.6207 75.5675 58.4991C75.7418 58.3668 75.9458 58.3127 76.1792 58.3366C76.402 58.3594 76.5801 58.4527 76.7135 58.6165C76.8479 58.7697 76.9037 58.9577 76.8808 59.1805C76.8558 59.4246 76.7609 59.6186 76.596 59.7625C76.4322 59.8958 76.2389 59.9511 76.0161 59.9283C75.7826 59.9043 75.594 59.8099 75.45 59.6451C75.3072 59.4696 75.2482 59.2598 75.2732 59.0158ZM84.5072 69.9179L83.2338 69.7875L83.8374 63.8983L81.3225 63.6406L81.119 64.8421C80.933 65.8202 80.7213 66.6295 80.4841 67.27C80.2586 67.901 79.9964 68.3673 79.6974 68.6691C79.4101 68.9613 79.1167 69.1564 78.8172 69.2544C78.5187 69.3418 78.1625 69.3642 77.7487 69.3218L77.7804 68.0705C77.8961 68.0931 78.0197 68.0897 78.1514 68.0603C78.2842 68.0203 78.433 67.9283 78.5979 67.7844C78.7734 67.6415 78.933 67.4435 79.077 67.1901C79.2315 66.9379 79.381 66.5779 79.5254 66.1102C79.6815 65.633 79.8076 65.083 79.9036 64.4602L80.2593 62.2449L85.2412 62.7555L84.5072 69.9179ZM89.2221 70.4011L86.8028 70.1532L87.5368 62.9907L88.8101 63.1212L88.5899 65.27L89.8951 65.4037C90.8713 65.5038 91.5647 65.8 91.9753 66.2924C92.387 66.7742 92.5537 67.3971 92.4754 68.1611C92.4015 68.8827 92.1007 69.4631 91.5732 69.9022C91.0457 70.3414 90.262 70.5077 89.2221 70.4011ZM89.534 66.573L88.4676 66.4637L88.1984 69.0899L89.2489 69.1976C90.4055 69.3161 91.0284 68.9403 91.1176 68.0702C91.2078 67.1895 90.68 66.6904 89.534 66.573ZM100.448 71.5515L99.1742 71.421L99.4841 68.3969L95.505 67.9891L95.1951 71.0133L93.9217 70.8828L94.6557 63.7203L95.9291 63.8508L95.6273 66.7953L99.6065 67.2031L99.9082 64.2586L101.182 64.3891L100.448 71.5515ZM108.584 70.5839L108.879 71.6275C108.125 72.1828 107.196 72.404 106.093 72.2909C104.925 72.1713 104.032 71.7366 103.412 70.9868C102.781 70.2359 102.524 69.2928 102.64 68.1574C102.75 67.0856 103.17 66.228 103.901 65.5845C104.621 64.9399 105.559 64.6769 106.716 64.7954C107.671 64.8933 108.43 65.282 108.993 65.9616C109.568 66.6317 109.805 67.4495 109.707 68.4151C109.675 68.7228 109.619 69.0066 109.539 69.2665L104.032 68.7021C104.016 69.376 104.212 69.9268 104.618 70.3545C105.035 70.7833 105.599 71.0341 106.31 71.1069C107.244 71.2026 108.002 71.0283 108.584 70.5839ZM106.53 65.9826C105.904 65.9185 105.366 66.0403 104.916 66.348C104.477 66.6569 104.191 67.094 104.058 67.6594L108.403 68.1047C108.432 67.5072 108.279 67.0196 107.942 66.642C107.616 66.2655 107.145 66.0457 106.53 65.9826ZM116.95 73.4036C116.409 73.3481 115.845 73.1992 115.259 72.9568C114.695 72.706 114.305 72.4302 114.089 72.1293L114.839 71.2411C115.102 71.5039 115.422 71.7297 115.799 71.9185C116.188 72.0978 116.547 72.2043 116.876 72.238C117.428 72.2945 117.89 72.2346 118.262 72.0583C118.635 71.8714 118.839 71.6028 118.875 71.2526C118.906 70.9555 118.802 70.7143 118.563 70.5291C118.336 70.3449 118.004 70.2305 117.569 70.1859L116.36 70.062L116.466 69.0274L117.596 69.1432C117.956 69.1802 118.263 69.1151 118.516 68.948C118.77 68.7704 118.912 68.5383 118.942 68.2518C118.974 67.9334 118.862 67.6699 118.604 67.4613C118.348 67.242 117.986 67.1084 117.52 67.0606C116.766 66.9834 116.023 67.1753 115.289 67.6362L114.897 66.5988C115.214 66.3311 115.636 66.1384 116.163 66.0208C116.7 65.9043 117.255 65.8754 117.828 65.9342C118.677 66.0212 119.317 66.2584 119.749 66.6458C120.192 67.0343 120.383 67.5309 120.321 68.1357C120.236 68.9634 119.759 69.4828 118.89 69.694L118.887 69.7259C119.348 69.8268 119.695 70.05 119.928 70.3955C120.162 70.7304 120.256 71.1207 120.21 71.5664C120.143 72.2243 119.808 72.7207 119.205 73.0557C118.614 73.3811 117.863 73.4971 116.95 73.4036ZM122.908 68.1436L122.678 67.0906C123.434 66.7284 124.252 66.5925 125.132 66.6827C126.098 66.7817 126.774 67.0922 127.16 67.6143C127.546 68.1364 127.688 68.8961 127.586 69.8936L127.136 74.2866L125.926 74.1626L126.021 73.2394C125.388 73.8715 124.588 74.1381 123.623 74.0391C122.965 73.9717 122.454 73.721 122.091 73.2871C121.729 72.8426 121.583 72.2807 121.653 71.6016C121.725 70.9013 122.03 70.3751 122.571 70.023C123.112 69.6602 123.785 69.5202 124.592 69.6028C125.345 69.68 125.924 69.8948 126.327 70.2471C126.41 69.4407 126.358 68.8509 126.171 68.4779C125.984 68.1049 125.572 67.8858 124.935 67.8206C124.288 67.7542 123.612 67.8619 122.908 68.1436ZM124.186 72.9388C124.897 73.0117 125.544 72.767 126.127 72.2049L126.22 71.2976C125.807 70.9336 125.287 70.7195 124.661 70.6554C124.226 70.6108 123.849 70.6794 123.53 70.8611C123.223 71.0334 123.05 71.3052 123.012 71.6766C122.976 72.0268 123.059 72.3141 123.262 72.5385C123.474 72.7641 123.782 72.8975 124.186 72.9388ZM135.714 75.1657L134.441 75.0352L135.052 69.0665L131.153 68.6668L130.541 74.6356L129.268 74.5051L130.002 67.3426L136.448 68.0032L135.714 75.1657ZM139.642 75.5683L138.369 75.4378L139.103 68.2753L140.376 68.4058L139.642 75.5683ZM139.22 65.5691C139.242 65.3462 139.34 65.174 139.514 65.0524C139.688 64.9201 139.892 64.866 140.126 64.8899C140.348 64.9127 140.526 65.006 140.66 65.1698C140.794 65.323 140.85 65.511 140.827 65.7338C140.802 65.9779 140.707 66.1719 140.542 66.3158C140.379 66.4492 140.185 66.5044 139.962 66.4816C139.729 66.4576 139.54 66.3632 139.396 66.1984C139.253 66.0229 139.195 65.8131 139.22 65.5691ZM147.612 69.1473L149.283 69.3186L145.797 72.4193L148.851 76.512L147.085 76.331L144.229 72.339L147.612 69.1473ZM143.551 75.9689L142.278 75.8384L143.012 68.6759L144.285 68.8064L143.551 75.9689ZM151.166 71.0395L150.936 69.9866C151.692 69.6244 152.51 69.4884 153.391 69.5787C154.356 69.6776 155.032 69.9882 155.418 70.5102C155.804 71.0323 155.946 71.7921 155.844 72.7895L155.394 77.1825L154.184 77.0586L154.279 76.1354C153.646 76.7675 152.846 77.034 151.881 76.9351C151.223 76.8677 150.712 76.617 150.349 76.183C149.988 75.7385 149.841 75.1767 149.911 74.4976C149.983 73.7972 150.289 73.271 150.829 72.9189C151.37 72.5562 152.044 72.4161 152.85 72.4988C153.604 72.576 154.182 72.7908 154.585 73.1431C154.668 72.3366 154.616 71.7469 154.429 71.3739C154.242 71.0009 153.83 70.7818 153.194 70.7165C152.546 70.6502 151.871 70.7578 151.166 71.0395ZM152.444 75.8348C153.155 75.9076 153.802 75.663 154.385 75.1008L154.478 74.1936C154.065 73.8296 153.545 73.6155 152.919 73.5513C152.484 73.5067 152.107 73.5753 151.788 73.7571C151.481 73.9293 151.309 74.2012 151.27 74.5726C151.235 74.9227 151.318 75.21 151.52 75.4345C151.733 75.66 152.041 75.7934 152.444 75.8348ZM164.052 78.0698L162.779 77.9393L163.089 74.9152L159.109 74.5074L158.799 77.5315L157.526 77.401L158.26 70.2385L159.533 70.369L159.232 73.3136L163.211 73.7214L163.513 70.7768L164.786 70.9073L164.052 78.0698ZM172.881 78.9746L171.607 78.8441L171.917 75.8199L167.938 75.4121L167.628 78.4363L166.355 78.3058L167.089 71.1433L168.362 71.2738L168.06 74.2184L172.04 74.6262L172.341 71.6816L173.615 71.8121L172.881 78.9746ZM179.053 72.3695L181.282 72.5978L180.548 79.7603L179.274 79.6298L179.519 77.2423L178.134 77.1004L176.139 79.3085L174.595 79.1502L176.941 76.6565C176.516 76.5164 176.174 76.2454 175.915 75.8436C175.657 75.4311 175.555 74.9596 175.609 74.4291C175.684 73.6969 176.009 73.1458 176.583 72.7757C177.158 72.395 177.981 72.2596 179.053 72.3695ZM176.959 74.5996C176.924 74.9391 177.028 75.2339 177.27 75.4839C177.514 75.7233 177.816 75.8615 178.177 75.8985L179.641 76.0486L179.886 73.6611L178.724 73.542C178.183 73.4865 177.763 73.5561 177.464 73.7506C177.165 73.9452 176.997 74.2282 176.959 74.5996ZM52.4898 84.8919C51.9486 84.8364 51.3849 84.6875 50.7985 84.4451C50.2345 84.1943 49.8446 83.9185 49.6288 83.6176L50.3792 82.7294C50.6418 82.9922 50.9618 83.218 51.3392 83.4068C51.7283 83.5861 52.0873 83.6926 52.4162 83.7263C52.968 83.7828 53.4299 83.723 53.8018 83.5466C54.1748 83.3597 54.3792 83.0911 54.4151 82.7409C54.4455 82.4438 54.3416 82.2026 54.1032 82.0174C53.8755 81.8332 53.5441 81.7188 53.109 81.6742L51.8994 81.5503L52.0054 80.5157L53.1355 80.6315C53.4963 80.6685 53.8032 80.6034 54.0562 80.4363C54.3103 80.2587 54.452 80.0266 54.4814 79.7401C54.514 79.4217 54.4016 79.1582 54.1442 78.9496C53.8879 78.7303 53.5263 78.5967 53.0594 78.5489C52.306 78.4717 51.5626 78.6636 50.8291 79.1245L50.4368 78.0871C50.7538 77.8194 51.1756 77.6267 51.7023 77.5091C52.2397 77.3926 52.7948 77.3637 53.3678 77.4225C54.2167 77.5095 54.8572 77.7467 55.2893 78.1341C55.732 78.5226 55.9224 79.0192 55.8604 79.624C55.7756 80.4517 55.2988 80.9711 54.4301 81.1823L54.4268 81.2142C54.8883 81.3151 55.2353 81.5383 55.468 81.8838C55.7017 82.2187 55.7957 82.609 55.7501 83.0547C55.6826 83.7126 55.3476 84.209 54.745 84.544C54.1541 84.8694 53.4023 84.9854 52.4898 84.8919ZM64.1837 74.5099L64.7654 75.5828C64.4749 75.9069 64.1427 76.1141 63.7688 76.2045C63.3621 76.3022 62.9055 76.3626 62.3992 76.3858C61.9035 76.41 61.4283 76.4954 60.9737 76.6418C59.8402 77.0296 59.1174 78.1189 58.8052 79.9098L58.8371 79.913C59.1216 79.4382 59.5396 79.0736 60.0911 78.8192C60.6532 78.5658 61.2367 78.4701 61.8415 78.5321C62.8602 78.6365 63.6334 79.0428 64.1613 79.751C64.6998 80.4602 64.9136 81.356 64.8027 82.4384C64.6983 83.457 64.2643 84.2918 63.5006 84.9427C62.7486 85.584 61.8315 85.8492 60.7492 85.7383C59.5819 85.6187 58.6995 85.1262 58.102 84.2607C57.5034 83.4059 57.2753 82.2835 57.4177 80.8934C57.7353 77.795 58.8186 75.9599 60.6679 75.3881C61.0896 75.249 61.5701 75.1642 62.1094 75.1337C62.5308 75.1019 62.8339 75.0739 63.0186 75.05C63.2034 75.026 63.402 74.9713 63.6145 74.8859C63.8376 74.8015 64.0273 74.6762 64.1837 74.5099ZM58.7462 81.2708C58.6526 82.1834 58.8004 82.9384 59.1896 83.5358C59.5787 84.1333 60.1287 84.4684 60.8397 84.5413C61.5294 84.612 62.1157 84.4362 62.5986 84.0139C63.091 83.6033 63.3726 83.0531 63.4433 82.3634C63.5183 81.6312 63.3717 81.0211 63.0036 80.533C62.646 80.046 62.1118 79.7661 61.4008 79.6932C60.7535 79.6269 60.1939 79.7518 59.7219 80.068C59.2275 80.3927 58.9023 80.7936 58.7462 81.2708ZM72.1019 84.9395L72.397 85.983C71.6431 86.5384 70.7144 86.7596 69.6109 86.6465C68.4436 86.5268 67.55 86.0921 66.9298 85.3423C66.2991 84.5915 66.0419 83.6483 66.1583 82.5129C66.2681 81.4412 66.6884 80.5836 67.4191 79.9401C68.1393 79.2955 69.0777 79.0324 70.2343 79.151C71.1893 79.2488 71.9482 79.6376 72.5112 80.3172C73.0859 80.9872 73.3238 81.8051 73.2248 82.7707C73.1933 83.0784 73.1374 83.3622 73.0572 83.622L67.55 83.0577C67.5345 83.7316 67.7301 84.2824 68.1366 84.7101C68.5537 85.1388 69.1178 85.3896 69.8287 85.4625C70.7625 85.5582 71.5202 85.3839 72.1019 84.9395ZM70.0483 80.3382C69.4222 80.274 68.8843 80.3958 68.4346 80.7036C67.9955 81.0124 67.7094 81.4495 67.5764 82.0149L71.9217 82.4602C71.9507 81.8628 71.797 81.3752 71.4604 80.9976C71.1344 80.6211 70.6637 80.4013 70.0483 80.3382ZM75.4851 90.3044L74.2117 90.1739L75.272 79.8281L76.5453 79.9586L76.4589 80.8021C76.744 80.5311 77.1186 80.3283 77.5828 80.1936C78.048 80.0482 78.5194 80 78.9969 80.049C80.0155 80.1534 80.7819 80.575 81.2959 81.3139C81.8322 82.0444 82.0455 82.9455 81.9356 84.0172C81.8236 85.1102 81.3847 85.9927 80.6188 86.6648C79.8647 87.3274 78.9306 87.6016 77.8164 87.4874C76.9569 87.3993 76.2999 87.1658 75.8455 86.7868L75.4851 90.3044ZM78.5084 81.2052C77.6596 81.1182 76.9361 81.3765 76.3382 81.98L75.9744 85.5294C76.4987 85.9584 77.1164 86.2094 77.8273 86.2822C78.5807 86.3594 79.2047 86.1821 79.6993 85.7503C80.2056 85.3089 80.4984 84.701 80.5778 83.9263C80.655 83.173 80.5095 82.5522 80.1414 82.0641C79.7743 81.5655 79.23 81.2791 78.5084 81.2052ZM85.0058 88.0633L83.7324 87.9328L84.4664 80.7703L85.7398 80.9008L85.0058 88.0633ZM84.5829 78.0641C84.6058 77.8413 84.7039 77.669 84.8772 77.5474C85.0515 77.4152 85.2555 77.361 85.4889 77.3849C85.7117 77.4078 85.8898 77.5011 86.0232 77.6649C86.1576 77.818 86.2134 78.006 86.1905 78.2289C86.1655 78.4729 86.0706 78.6669 85.9057 78.8109C85.7419 78.9442 85.5486 78.9994 85.3258 78.9766C85.0923 78.9527 84.9037 78.8583 84.7597 78.6934C84.6169 78.5179 84.5579 78.3082 84.5829 78.0641ZM88.9145 88.4639L87.6412 88.3334L88.3752 81.1709L92.9115 81.6358L92.7891 82.8295L89.5262 82.4952L88.9145 88.4639ZM94.3689 83.3131L94.1391 82.2602C94.8946 81.898 95.7127 81.762 96.5935 81.8523C97.5591 81.9512 98.2349 82.2618 98.621 82.7839C99.0072 83.3059 99.1491 84.0657 99.0469 85.0631L98.5967 89.4561L97.387 89.3322L97.4816 88.409C96.8486 89.0411 96.0492 89.3077 95.0836 89.2087C94.4257 89.1413 93.9153 88.8906 93.5523 88.4567C93.1904 88.0121 93.0443 87.4503 93.1139 86.7712C93.1856 86.0709 93.4915 85.5446 94.0316 85.1925C94.5727 84.8298 95.2465 84.6898 96.0529 84.7724C96.8063 84.8496 97.3848 85.0644 97.7883 85.4167C97.8709 84.6102 97.8188 84.0205 97.6318 83.6475C97.4449 83.2745 97.0331 83.0554 96.3964 82.9901C95.7491 82.9238 95.0733 83.0315 94.3689 83.3131ZM95.6467 88.1084C96.3577 88.1812 97.0046 87.9366 97.5877 87.3744L97.6806 86.4672C97.2676 86.1032 96.748 85.8891 96.122 85.8249C95.6869 85.7803 95.31 85.8489 94.9911 86.0307C94.684 86.203 94.5114 86.4748 94.4733 86.8462C94.4374 87.1963 94.5205 87.4836 94.7227 87.7081C94.9355 87.9336 95.2435 88.067 95.6467 88.1084ZM101.982 85.6052L105.516 85.9673L105.41 87.0019L101.876 86.6398C101.904 87.3075 102.133 87.8509 102.562 88.2702C103.002 88.6799 103.567 88.9201 104.257 88.9908C105.17 89.0843 105.892 88.9385 106.425 88.5535L106.854 89.5464C106.155 90.086 105.19 90.2927 103.96 90.1666C102.867 90.0546 102.006 89.6125 101.377 88.8404C100.762 88.0482 100.509 87.1162 100.618 86.0445C100.735 84.9091 101.178 84.0377 101.948 83.4304C102.728 82.8241 103.692 82.5797 104.838 82.6972C105.326 82.7472 105.809 82.8933 106.289 83.1354C106.779 83.368 107.163 83.6539 107.439 83.9931L106.816 84.8943C106.286 84.3145 105.575 83.979 104.683 83.8877C104.015 83.8191 103.44 83.9371 102.958 84.2416C102.478 84.5355 102.153 84.99 101.982 85.6052ZM112.091 90.8391L112.825 83.6766C112.878 83.682 112.953 83.6896 113.048 83.6994C113.145 83.6986 113.283 83.7074 113.464 83.7259C113.645 83.7338 113.81 83.7453 113.959 83.7606C114.746 83.8198 115.235 83.8592 115.426 83.8788C117.485 84.0898 118.451 84.8107 118.325 86.0416C118.281 86.466 118.111 86.8185 117.814 87.099C117.519 87.369 117.155 87.514 116.724 87.5342L116.721 87.566C117.815 87.8818 118.314 88.5013 118.219 89.4245C118.077 90.8145 116.907 91.397 114.711 91.1719C114.605 91.161 114.139 91.1026 113.314 90.9965C113.154 90.9802 112.98 90.957 112.79 90.9268C112.599 90.9072 112.451 90.8867 112.346 90.8652C112.24 90.8543 112.155 90.8456 112.091 90.8391ZM115.222 87.911L113.694 87.7544L113.469 89.9509C114.23 90.061 114.716 90.127 114.928 90.1487C116.149 90.2738 116.798 89.9543 116.876 89.1903C116.951 88.4581 116.4 88.0317 115.222 87.911ZM115.416 84.9232C115.108 84.8916 114.634 84.8592 113.994 84.8257L113.776 86.9586L115.383 87.1233C115.818 87.1679 116.179 87.103 116.465 86.9286C116.751 86.7541 116.911 86.4972 116.946 86.1576C117.019 85.4467 116.509 85.0352 115.416 84.9232ZM121.58 91.8115L120.306 91.681L121.041 84.5185L122.314 84.649L121.58 91.8115ZM121.157 81.8123C121.18 81.5894 121.278 81.4172 121.451 81.2956C121.626 81.1633 121.83 81.1092 122.063 81.1331C122.286 81.1559 122.464 81.2492 122.597 81.413C122.732 81.5662 122.787 81.7542 122.765 81.977C122.74 82.2211 122.645 82.4151 122.48 82.559C122.316 82.6924 122.123 82.7476 121.9 82.7248C121.666 82.7008 121.478 82.6064 121.334 82.4416C121.191 82.2661 121.132 82.0563 121.157 81.8123ZM126.538 86.3686L123.912 86.0994L124.042 84.8261L130.568 85.4949L130.437 86.7682L127.811 86.4991L127.208 92.3882L125.934 92.2577L126.538 86.3686ZM132.186 87.1887L131.957 86.1358C132.712 85.7736 133.53 85.6376 134.411 85.7279C135.377 85.8268 136.052 86.1374 136.439 86.6595C136.825 87.1815 136.967 87.9413 136.864 88.9387L136.414 93.3317L135.205 93.2078L135.299 92.2846C134.666 92.9167 133.867 93.1833 132.901 93.0843C132.243 93.0169 131.733 92.7662 131.37 92.3323C131.008 91.8877 130.862 91.3259 130.931 90.6468C131.003 89.9464 131.309 89.4202 131.849 89.0681C132.39 88.7054 133.064 88.5654 133.87 88.648C134.624 88.7252 135.202 88.94 135.606 89.2923C135.688 88.4858 135.636 87.8961 135.449 87.5231C135.262 87.1501 134.851 86.931 134.214 86.8657C133.567 86.7994 132.891 86.9071 132.186 87.1887ZM133.464 91.984C134.175 92.0568 134.822 91.8122 135.405 91.25L135.498 90.3428C135.085 89.9788 134.566 89.7647 133.94 89.7005C133.504 89.6559 133.128 89.7245 132.809 89.9063C132.502 90.0786 132.329 90.3504 132.291 90.7218C132.255 91.0719 132.338 91.3592 132.54 91.5837C132.753 91.8092 133.061 91.9426 133.464 91.984ZM139.82 93.6807L138.546 93.5502L139.28 86.3878L140.442 86.5068L142.832 90.3384L145.806 87.0565L146.936 87.1723L146.202 94.3348L144.929 94.2043L145.464 88.9837L142.64 92.0558L142.592 92.0509L140.355 88.4601L139.82 93.6807ZM150.133 94.7377L148.86 94.6072L149.594 87.4447L150.867 87.5752L150.133 94.7377ZM149.711 84.7385C149.733 84.5157 149.831 84.3434 150.005 84.2218C150.179 84.0895 150.383 84.0354 150.617 84.0593C150.839 84.0821 151.017 84.1755 151.151 84.3392C151.285 84.4924 151.341 84.6804 151.318 84.9032C151.293 85.1473 151.198 85.3413 151.033 85.4852C150.87 85.6186 150.676 85.6738 150.453 85.651C150.22 85.6271 150.031 85.5327 149.887 85.3678C149.744 85.1923 149.686 84.9825 149.711 84.7385ZM159.295 95.6766L158.021 95.5461L158.331 92.5219L154.352 92.1141L154.042 95.1383L152.769 95.0078L153.503 87.8453L154.776 87.9758L154.474 90.9204L158.454 91.3282L158.755 88.3836L160.029 88.5141L159.295 95.6766ZM167.556 91.1351L162.871 96.0431L161.598 95.9126L162.332 88.7501L163.605 88.8806L163.059 94.2126L167.743 89.3047L169.017 89.4352L168.283 96.5976L167.009 96.4672L167.556 91.1351Z" fill="white"/>
<path d="M225.074 111.475C227.577 111.508 230.166 111.471 232.603 112.123C234.894 112.681 237.057 113.695 239.057 114.771C241.135 115.854 243.119 117.084 245.111 118.237C247.249 119.484 249.421 120.421 251.941 120.299C253.205 120.199 252.861 118.282 251.597 118.382C249.155 118.513 246.809 117.009 244.825 115.778C242.833 114.626 240.919 113.481 238.918 112.406C236.987 111.416 234.962 110.573 232.818 110.109C230.373 109.534 227.87 109.502 225.289 109.461C224.025 109.561 223.818 111.498 225.074 111.475Z" fill="black"/>
<path d="M314.115 140.335C315.846 138.796 313.073 133.957 309.206 132.76C280.92 124.02 247.696 149.77 250.68 181.971C253.106 173.927 259.661 171.963 264.356 175.677C265.899 164.169 270.425 158.464 282.581 154.671C294.737 150.877 305.566 150.702 305.566 150.702L314.115 140.335Z" fill="#364193"/>
<path d="M251.695 168.058C257.601 142.838 285.173 125.258 309.282 132.769C312.538 133.822 315.117 137.544 314.67 139.533C314.559 139.834 314.449 140.136 314.192 140.343L305.728 150.642C305.728 150.642 294.891 150.894 282.743 154.61C272.048 157.933 267.225 162.745 265.181 171.613C264.894 172.836 264.668 174.222 264.441 175.608C259.746 171.895 253.191 173.858 250.765 181.902C250.332 177.156 250.673 172.492 251.695 168.058ZM250.55 167.779C249.503 172.446 249.145 177.264 249.578 182.011C249.598 182.561 250.099 183.006 250.641 183.064C251.183 183.122 251.689 182.785 251.902 182.259C252.996 178.616 255.145 176.103 257.739 175.284C259.766 174.639 261.91 175.103 263.714 176.549C264.076 176.822 264.464 176.864 264.868 176.75C265.194 176.628 265.468 176.266 265.578 175.964L265.586 175.887C265.735 174.493 266.031 173.193 266.318 171.97C268.337 163.334 272.878 158.962 283.084 155.822C294.991 152.158 305.673 151.889 305.751 151.897C306.069 151.853 306.395 151.731 306.66 151.446L315.047 141.14C315.398 140.786 315.68 140.346 315.815 139.812C316.111 138.512 315.596 136.733 314.359 135.113C313.122 133.492 311.456 132.218 309.708 131.717C303.945 129.927 297.957 129.522 291.758 130.349C285.869 131.208 280.175 133.185 274.751 136.287C268.908 139.658 263.645 144.188 259.556 149.47C255.046 155.02 252.114 161.209 250.55 167.779Z" fill="black"/>
<path d="M268.844 138.79L266.686 136.992L263.868 139.903C263.935 139.284 265.897 133.383 263.162 127.45C259.403 119.372 266.361 123.17 266.361 123.17C266.361 123.17 270.054 131.868 268.844 138.79Z" fill="#364193"/>
<path d="M269.643 136.447C269.63 137.307 269.547 138.082 269.379 138.925C269.354 139.158 269.182 139.296 269.011 139.434C268.77 139.487 268.538 139.462 268.4 139.291L266.673 137.853L264.292 140.34C264.113 140.556 263.794 140.601 263.57 140.498C263.346 140.396 263.216 140.147 263.249 139.837C263.258 139.76 263.274 139.605 263.368 139.458C264.459 135.11 264.176 131.163 262.579 127.78C261.242 124.896 261.037 123.15 261.996 122.234C263.307 120.964 266.134 122.363 266.652 122.653C266.798 122.747 266.867 122.833 266.937 122.919C267.058 123.245 269.935 130.054 269.643 136.447ZM268.349 137.562C268.978 131.675 266.342 124.814 265.847 123.586C264.804 123.083 263.288 122.607 262.774 123.022C262.602 123.161 262.124 123.971 263.668 127.113C265.135 130.247 265.538 133.815 264.875 137.817L266.194 136.47C266.451 136.262 266.769 136.218 267.063 136.406L268.349 137.562Z" fill="black"/>
<path d="M320.387 165.211C321.422 176.054 321.238 187.315 320.942 196.684C320.863 198.164 322.484 199.12 323.615 198.066C325.962 195.888 329.095 190.034 329.54 181.465C330.345 166.588 328.218 165.969 328.4 154.003C328.634 142.278 331.053 138.698 331.643 123.642C332.153 110.066 330.826 95.3532 330.243 89.8073C330.143 88.5433 329.141 87.6529 327.902 87.5205C326.964 87.4987 326.055 87.9499 325.576 88.7605C324.031 91.4939 322.829 96.1441 317.719 102.179C310.016 111.226 293 112.855 285.129 108.803C282.285 107.559 277.028 103.237 277.419 106.178C279.296 120.871 265.784 121.229 265.784 121.229C265.784 121.229 266.999 113.525 263.967 106.699C262.83 104.149 261.207 106.874 258.289 108.521C255.355 110.323 253.602 112.799 252.378 116.194C250.023 122.836 252.684 129.465 259.37 132.138C264.325 134.155 269.329 133.515 275.33 130.866C280.593 128.529 284.152 126.011 292.213 126.089C300.351 126.175 306.266 129.47 310.555 134.785" fill="#8CC800"/>
<path d="M330.572 179.146C330.566 179.929 330.484 180.704 330.478 181.486C330.058 189.824 327.031 196.159 324.255 198.682C323.475 199.383 322.435 199.585 321.538 199.176C320.565 198.758 319.967 197.754 320.014 196.584C320.326 187.061 320.563 176.04 319.442 165.267C319.414 164.794 319.782 164.285 320.255 164.257C320.728 164.229 321.237 164.597 321.265 165.07C322.3 175.913 322.124 187.096 321.812 196.62C321.762 197.084 322.047 197.35 322.271 197.452C322.418 197.546 322.65 197.571 322.915 197.286C325.349 195.039 328.102 189.066 328.542 181.28C328.946 173.097 328.499 169.211 328.044 165.402C327.662 162.385 327.296 159.212 327.402 153.818C327.472 148.029 328.118 144.181 328.866 140.109C329.57 135.719 330.376 131.105 330.645 123.457C331.155 109.88 329.811 95.323 329.228 89.7772C329.156 88.9861 328.517 88.3695 327.734 88.3642C327.115 88.298 326.531 88.6273 326.241 89.1447C325.848 89.8861 325.448 90.705 325.022 91.7563C323.795 94.4453 322.142 98.1856 318.29 102.709C314.618 107.017 308.653 110.062 301.552 111.262C295.097 112.296 288.737 111.695 284.582 109.528C283.686 109.119 282.582 108.452 281.547 107.872C280.59 107.3 278.969 106.343 278.211 106.105C278.799 110.868 277.912 114.769 275.498 117.566C271.826 121.874 266.012 122.037 265.771 122.089C265.539 122.064 265.237 121.954 265.021 121.774C264.806 121.594 264.761 121.276 264.786 121.044C264.794 120.966 265.898 113.564 263.067 107.073C262.867 106.738 262.806 106.575 262.729 106.567C262.419 106.534 261.562 107.226 261.047 107.641C260.362 108.194 259.598 108.739 258.758 109.276C256.158 110.879 254.43 113.122 253.214 116.439C250.978 122.703 253.619 128.782 259.625 131.225C264.132 133.038 268.715 132.666 274.88 129.956C275.781 129.582 276.691 129.131 277.515 128.749C281.559 126.831 285.276 125.034 292.158 125.143C300.063 125.204 306.468 128.316 311.164 134.223C311.51 134.652 311.452 135.194 311.023 135.54C310.595 135.886 310.052 135.828 309.706 135.399C305.356 129.921 299.392 127.09 292.114 127.018C285.697 126.959 282.237 128.548 278.271 130.475C277.447 130.857 276.537 131.308 275.55 131.751C268.973 134.652 263.839 135.043 258.884 133.026C251.896 130.243 248.813 123.176 251.396 115.854C252.731 112.158 254.733 109.551 257.667 107.75C258.422 107.282 259.186 106.737 259.786 106.253C260.978 105.361 262.006 104.531 263.074 104.802C263.763 104.954 264.255 105.477 264.629 106.378C267.026 111.804 266.862 117.741 266.598 120.219C268.274 119.928 271.651 119.114 273.971 116.463C276.033 114.02 276.785 110.653 276.225 106.363C276.1 105.332 276.467 104.823 276.888 104.554C277.986 103.81 279.607 104.766 282.41 106.397C283.444 106.978 284.471 107.636 285.298 107.959L285.375 107.967C289.16 109.938 295.21 110.506 301.192 109.5C307.889 108.414 313.442 105.56 316.849 101.537C320.443 97.2208 322.079 93.6354 323.298 91.0238C323.801 89.9809 324.211 89.0845 324.611 88.2656C325.278 87.1617 326.453 86.4255 327.77 86.5662C329.482 86.6707 330.829 87.9897 331.043 89.6576C331.617 95.2809 332.953 109.916 332.426 123.647C332.141 131.45 331.318 136.219 330.623 140.532C329.96 144.534 329.314 148.382 329.183 154.009C329.093 159.248 329.407 162.179 329.781 165.275C330.424 168.79 330.827 172.358 330.572 179.146Z" fill="black"/>
<path d="M331.246 123.678C331.441 118.92 331.334 114.052 331.203 109.416C327.868 112.036 316.114 109.136 315.476 104.838C311.602 108.106 306.217 110.115 300.964 110.886C301.982 111.622 304.426 113.684 303.957 118.805C303.447 124.312 299.799 126.194 298.889 126.645C308.259 129.134 313.661 137.232 316.818 147.283C316.928 146.981 316.9 146.508 316.812 145.872C316.23 142.52 325.155 139.635 329.089 142.405C329.937 137.404 330.923 132.574 331.246 123.678Z" fill="#364193"/>
<path d="M298.968 126.653C299.955 126.211 303.534 124.243 304.035 118.813C304.069 118.503 304.093 118.271 304.126 117.961C304.296 113.435 301.992 111.544 301.128 110.825C306.381 110.055 311.688 108.036 315.64 104.777C316.269 109.152 327.954 111.967 331.367 109.355C331.507 113.913 331.605 118.859 331.41 123.617C331.087 132.513 330.093 137.42 329.253 142.344C325.551 139.598 317.124 142.223 317.017 145.424C317.001 145.579 316.992 145.656 317.053 145.819C317.089 146.215 317.134 146.533 317.1 146.843C317.084 146.998 317.067 147.153 317.051 147.307C313.739 137.24 308.329 129.22 298.968 126.653ZM295.485 126.987L298.689 127.799C306.611 129.898 312.187 136.369 315.77 147.562L317.008 151.376L318.119 147.578C318.221 147.354 318.246 147.122 318.201 146.804C318.243 146.416 318.207 146.021 318.101 145.54C318.11 145.462 318.11 145.462 318.118 145.385C318.168 144.92 318.801 144.126 320.208 143.415C322.681 142.269 326.49 141.814 328.449 143.276L330.045 144.465L330.338 142.46C330.412 141.763 330.556 141.151 330.708 140.463C331.395 136.227 332.226 131.381 332.511 123.578C332.656 119.285 332.627 114.425 332.476 109.238L332.423 106.804L330.537 108.326C329.002 109.494 324.485 109.246 320.805 107.757C318.479 106.803 316.96 105.623 316.843 104.513L316.533 102.287L314.818 103.67C311.373 106.593 306.452 108.652 300.959 109.475L298.011 109.944L300.41 111.688C302.153 112.971 303.03 115.024 302.973 117.759C302.948 117.992 302.923 118.224 302.89 118.534C302.513 122.802 299.966 124.645 298.472 125.425L295.485 126.987Z" fill="black"/>
<path d="M317.031 118.164C316.946 118.233 316.86 118.302 316.774 118.372C316.68 118.518 316.594 118.587 316.517 118.579C316.346 118.718 316.174 118.856 316.097 118.848C315.942 118.831 315.795 118.737 315.579 118.557C315.294 118.292 315.148 118.198 315.078 118.112C314.484 117.814 313.95 117.678 313.314 117.767C312.918 117.803 312.506 117.994 312.094 118.185C311.674 118.453 311.322 118.808 311.134 119.101C310.844 119.618 310.692 120.307 310.585 121.314C310.427 122.786 310.397 123.801 310.433 124.196C310.461 124.669 310.583 124.996 310.885 125.106C311.039 125.123 311.427 125.164 312.055 125.153C312.287 125.178 314.705 125.279 319.213 125.604C320.693 125.684 321.631 125.706 321.957 125.584C321.99 125.274 322.057 124.654 322.078 123.717C322.161 122.942 322.15 122.314 322.2 121.85C322.194 120.439 322.061 119.485 321.739 118.824C321.41 118.24 320.901 117.872 320.151 117.557C319.169 117.217 318.052 117.411 317.031 118.164ZM314.048 122.624C313.437 122.48 312.972 122.431 312.809 122.492C312.671 122.32 312.532 122.149 312.488 121.831C312.435 121.59 312.46 121.358 312.562 121.134C312.689 120.677 313.101 120.486 313.799 120.561C314.496 120.635 314.866 120.831 315.143 121.174C315.204 121.337 315.257 121.578 315.301 121.896C315.345 122.214 315.243 122.438 315.149 122.585C314.978 122.723 314.582 122.759 314.048 122.624ZM320.26 120.937C320.46 121.272 320.565 121.753 320.413 122.442C320.311 122.666 319.993 122.711 319.674 122.755C319.597 122.747 319.279 122.791 318.651 122.802C318.023 122.814 317.636 122.772 317.489 122.678C317.343 122.584 317.29 122.344 317.254 121.948C317.218 121.552 317.32 121.328 317.431 121.027C317.627 120.656 318.039 120.465 318.83 120.393C319.527 120.467 319.984 120.594 320.26 120.937Z" fill="#E62828"/>
<path d="M326.953 96.4276C326.944 96.505 326.928 96.6599 326.919 96.7374C325.344 100.486 323.533 103.504 321.7 105.267C321.349 105.621 320.721 105.632 320.375 105.204C320.021 104.853 320.009 104.225 320.438 103.879C322.092 102.332 323.8 99.5377 325.273 96.0132C325.478 95.5651 325.976 95.3049 326.501 95.5177C326.717 95.6974 326.994 96.0403 326.953 96.4276Z" fill="#B4E100"/>
<path d="M267.725 124.335C267.692 124.644 267.426 124.929 267.116 124.896C267.039 124.888 264.621 124.787 263.238 123.072C263.03 122.815 263.072 122.428 263.329 122.22C263.586 122.013 263.973 122.054 264.181 122.311C265.141 123.589 267.094 123.641 267.094 123.641C267.481 123.682 267.68 124.017 267.725 124.335Z" fill="black"/>
<path d="M277.361 106.72L276.88 106.825C275.616 106.925 273.755 108.215 273.503 109.833C273.454 110.298 273.379 110.995 273.725 111.423C273.933 111.681 273.994 111.844 273.695 112.439C273.499 112.809 273.209 113.327 273.09 113.706C272.921 114.549 272.775 116.649 275.107 116.82C276.835 114.576 277.88 111.397 277.361 106.72Z" fill="#E62828"/>
<path d="M278.149 109.624C278.067 112.592 277.166 115.159 275.626 117.11L275.438 117.403L275.128 117.37C274.199 117.271 273.449 116.956 272.965 116.356C272.204 115.413 272.422 114.104 272.557 113.57C272.701 112.959 273.085 112.295 273.187 112.071C273.273 112.002 273.281 111.924 273.29 111.847L273.22 111.761C272.814 111.169 272.827 110.309 272.893 109.689C273.169 107.839 275.219 106.256 276.801 106.112L277.91 105.995L277.999 106.631C278.123 107.663 278.171 108.686 278.149 109.624ZM274.796 116.081C276.438 113.906 277.071 110.919 276.823 107.367C275.869 107.5 274.342 108.591 274.124 109.899C274.066 110.441 274.103 110.837 274.241 111.008C274.579 111.514 274.692 111.918 274.222 112.651C273.948 113.014 273.744 113.462 273.719 113.694C273.686 114.004 273.509 114.925 273.916 115.517C274.115 115.852 274.408 116.04 274.796 116.081Z" fill="black"/>
<path d="M267.384 106.986C266.961 106.549 265.542 106.632 264.269 106.81L264.029 106.862C266.991 113.602 265.784 121.229 265.784 121.229C265.784 121.229 267.118 121.215 268.819 120.691L268.827 120.614C269.824 116.412 268.438 108.117 267.384 106.986Z" fill="white"/>
<path d="M269.806 118.055C269.776 119.07 269.677 119.999 269.517 120.766L269.508 120.843C269.484 121.076 269.312 121.214 269.072 121.267C267.293 121.782 265.882 121.788 265.882 121.788C265.728 121.771 265.495 121.746 265.434 121.583C265.296 121.412 265.235 121.248 265.252 121.094C265.26 121.016 266.364 113.614 263.609 107.131C263.549 106.968 263.565 106.813 263.582 106.658C263.676 106.511 263.77 106.365 263.933 106.304L264.173 106.251C264.251 106.259 264.251 106.259 264.337 106.19C266.881 105.835 267.623 106.228 267.977 106.579C268.876 107.693 269.968 113.607 269.806 118.055ZM268.327 120.169C269.169 115.95 267.717 108.275 266.948 107.409C266.948 107.409 266.586 107.135 264.918 107.349C267.074 112.828 266.703 118.507 266.488 120.521C266.961 120.493 267.597 120.404 268.327 120.169Z" fill="black"/>
<path d="M287.556 133.033C299.434 126.703 310.423 131.637 314.441 138.02C315.507 139.779 317.926 146.461 317.926 146.461C317.926 146.461 320.672 150.827 321.164 159.419C321.509 165.723 318.936 171.48 313.212 176.665C306.622 182.62 288.135 186.286 278.268 170.113C270.004 156.539 274.519 139.944 287.556 133.033Z" fill="#E62828"/>
<path d="M287.261 138.72C287.236 138.953 287.125 139.254 286.877 139.384C282.092 143.103 279.295 148.758 279.056 155.391L279.048 155.469C278.99 156.011 278.639 156.365 278.089 156.385C277.546 156.327 277.192 155.976 277.173 155.425L277.181 155.348C277.477 148.172 280.488 141.992 285.7 137.927C286.129 137.581 286.663 137.716 287.017 138.067C287.233 138.247 287.286 138.488 287.261 138.72Z" fill="#FF5A5A"/>
<path d="M285.92 171.087C285.887 171.396 285.776 171.698 285.441 171.897C280.945 174.394 278.166 178.405 277.661 183.13C277.603 183.672 277.175 184.018 276.633 183.96C276.09 183.902 275.744 183.474 275.802 182.931C276.373 177.587 279.442 173.058 284.523 170.232C284.943 169.964 285.546 170.185 285.814 170.605C285.875 170.768 285.936 170.932 285.92 171.087Z" fill="black"/>
<path d="M321.916 160.439C321.836 161.919 321.671 163.468 321.35 165.001C320.016 170.89 316.613 175.619 311.156 179.031C305.443 182.651 298.677 183.652 292.14 181.778C285.224 179.786 279.406 174.856 276.126 168.161C273.618 163.036 272.731 156.674 273.669 150.821C274.657 144.503 277.748 139.036 282.275 135.524C286.631 132.151 291.706 130.108 296.745 129.863C302.499 129.537 308.09 131.466 312.76 135.412C313.114 135.763 313.211 136.322 312.86 136.676C312.509 137.03 311.95 137.127 311.596 136.776C301.677 128.431 290.55 131.395 283.451 136.982C274.218 144.221 273.356 158.151 277.852 167.405C280.871 173.603 286.258 178.173 292.718 180.038C298.721 181.776 305.005 180.881 310.221 177.521C321.819 170.143 320.745 158.199 319.092 151.677C317.045 143.703 308.668 139.988 301.402 140.544C295.244 140.983 288.267 144.703 287.401 153.541C286.698 160.124 292.238 166.2 297.402 166.986C300.716 167.497 304.571 165.872 306.615 162.879C307.726 161.274 309.338 157.921 306.988 153.518C306.138 151.939 304.619 150.758 302.862 150.336C301.261 149.929 299.662 150.229 298.401 151.034C296.797 152.116 296.167 153.616 296.474 155.137C296.798 156.503 297.938 157.565 299.247 157.783C299.789 157.841 300.127 158.347 300 158.803C299.942 159.346 299.436 159.683 298.979 159.556C296.896 159.255 295.186 157.663 294.712 155.497C294.178 153.168 295.201 150.927 297.396 149.438C299.086 148.287 301.235 147.968 303.379 148.432C305.67 148.99 307.62 150.53 308.738 152.53C310.836 156.357 310.63 160.487 308.236 163.835C305.739 167.407 301.3 169.361 297.22 168.69C294.139 168.205 291.059 166.231 288.862 163.332C286.526 160.263 285.341 156.689 285.714 153.204C286.177 148.867 287.985 145.143 291.079 142.575C293.839 140.206 297.429 138.866 301.453 138.591C309.433 137.955 318.784 142.087 321.033 151.101C321.543 153.663 322.056 156.929 321.916 160.439Z" fill="black"/>
<path fill-rule="evenodd" clip-rule="evenodd" d="M274.072 162.458C268.641 159.762 261.674 161.917 261.779 162.398C261.868 163.034 263.267 168.275 266.181 171.799C269.795 176.101 275.305 177.317 277.215 173.369C279.841 167.852 278.012 164.445 274.072 162.458Z" fill="#B4E100"/>
<path d="M279.012 169.017C278.94 170.42 278.534 172.021 277.732 173.659C277.017 175.228 275.661 176.18 273.994 176.393C271.294 176.732 268.018 175.128 265.666 172.214C262.614 168.519 261.163 163.037 261.066 162.478C261.082 162.324 261.038 162.005 261.373 161.806C262.393 161.053 269.001 159.331 274.207 161.924C276.44 163.024 277.848 164.506 278.51 166.378C278.97 167.211 279.111 168.088 279.012 169.017ZM262.452 162.705C262.784 163.994 264.188 168.452 266.687 171.461C268.77 173.955 271.667 175.44 273.963 175.215C275.235 175.037 276.17 174.354 276.689 173.156C278.915 168.458 277.945 165.065 273.851 163.061C269.239 160.766 263.765 162.14 262.452 162.705Z" fill="black"/>
<path d="M289.148 155.529C289.115 155.839 288.935 156.055 288.617 156.099C288.058 156.196 287.499 156.293 286.786 156.374C285.273 156.604 283.605 156.817 282.316 157.15C281.998 157.194 281.627 156.998 281.583 156.68C281.538 156.361 281.735 155.991 282.053 155.946C283.342 155.614 285.087 155.409 286.6 155.179C287.236 155.09 287.872 155.001 288.354 154.896C288.672 154.852 289.042 155.048 289.078 155.443C289.156 155.452 289.156 155.452 289.148 155.529Z" fill="black"/>
<path d="M290.009 159.93C289.984 160.162 289.882 160.386 289.641 160.439C288.49 160.943 286.414 162.052 285.41 162.65C285.152 162.858 284.773 162.739 284.566 162.482C284.358 162.225 284.477 161.846 284.734 161.638C285.747 160.963 287.901 159.861 289.137 159.288C289.464 159.166 289.843 159.285 289.964 159.612C289.956 159.689 290.025 159.775 290.009 159.93Z" fill="black"/>
<path d="M295.873 143.165C295.849 143.398 295.746 143.622 295.506 143.674C295.179 143.796 294.8 143.677 294.679 143.351C294.297 142.527 293.715 141.368 293.203 140.295C292.622 139.136 292.041 137.977 291.659 137.153C291.537 136.827 291.656 136.448 291.982 136.326C292.308 136.204 292.687 136.323 292.809 136.649C293.191 137.474 293.773 138.632 294.285 139.705C294.866 140.864 295.447 142.023 295.829 142.847C295.898 142.933 295.89 143.01 295.873 143.165Z" fill="black"/>
<path d="M274.437 171.505C274.429 171.583 274.421 171.66 274.327 171.807C274.139 172.1 273.812 172.222 273.519 172.034C273.295 171.932 268.406 169.294 265.786 165.959C265.578 165.702 265.62 165.315 265.877 165.107C266.134 164.9 266.521 164.941 266.729 165.198C269.142 168.276 274.03 170.913 274.108 170.922C274.332 171.024 274.462 171.273 274.437 171.505Z" fill="black"/>
<path d="M294.456 147.636C294.431 147.868 294.32 148.17 294.149 148.308C292.949 149.276 292.045 151.138 291.855 152.92C291.797 153.462 291.368 153.808 290.826 153.75C290.284 153.692 289.938 153.263 289.996 152.721C290.236 150.475 291.422 148.173 292.965 146.928C293.393 146.582 293.935 146.64 294.281 147.069C294.428 147.163 294.481 147.403 294.456 147.636Z" fill="#FF5A5A"/>
<path d="M303.158 144.648C303.149 144.725 303.141 144.803 303.141 144.803C303.133 144.88 303.125 144.958 303.047 144.95C303.039 145.027 302.961 145.019 302.953 145.096C302.945 145.174 302.867 145.166 302.859 145.243C302.851 145.321 302.773 145.312 302.687 145.381C302.61 145.373 302.602 145.451 302.524 145.442C302.447 145.434 302.438 145.512 302.361 145.503C302.283 145.495 302.206 145.487 302.206 145.487C302.128 145.479 302.051 145.47 302.051 145.47C301.973 145.462 301.896 145.454 301.904 145.376C301.827 145.368 301.835 145.29 301.758 145.282C301.68 145.274 301.688 145.196 301.611 145.188C301.403 144.931 301.281 144.604 301.384 144.38C301.392 144.303 301.4 144.225 301.478 144.233C301.486 144.156 301.563 144.164 301.572 144.087C301.58 144.009 301.657 144.017 301.666 143.94C301.674 143.862 301.752 143.871 301.837 143.801C301.915 143.81 301.923 143.732 302.001 143.741C302.078 143.749 302.086 143.671 302.164 143.68C302.241 143.688 302.319 143.696 302.319 143.696C302.396 143.704 302.474 143.713 302.474 143.713C302.551 143.721 302.629 143.729 302.621 143.807C302.698 143.815 302.69 143.893 302.767 143.901C302.845 143.909 302.836 143.987 302.914 143.995C302.991 144.003 302.983 144.081 303.052 144.166C303.044 144.244 303.122 144.252 303.113 144.33C303.105 144.407 303.183 144.415 303.174 144.493C303.174 144.493 303.166 144.57 303.158 144.648Z" fill="black"/>
<path d="M319.091 147.29C319.066 147.523 318.955 147.824 318.706 147.954C318.278 148.3 317.744 148.165 317.39 147.814C315.392 145.25 314.954 143.48 314.5 141.865C314.054 140.172 313.722 138.883 311.519 136.768C311.165 136.417 311.146 135.866 311.505 135.434C311.856 135.08 312.407 135.061 312.838 135.42C315.395 137.887 315.841 139.579 316.356 141.358C316.749 142.81 317.134 144.339 318.847 146.638C319.063 146.817 319.116 147.058 319.091 147.29Z" fill="black"/>
<path d="M257.483 108.748C254.554 109.767 250.699 113.586 250.181 119.171C249.676 123.895 251.993 130.801 258.68 133.474C261.532 134.64 267.139 134.221 268.873 133.388C264.599 131.599 254.353 123.376 257.483 108.748Z" fill="#364193"/>
<path d="M269.493 133.454C269.468 133.686 269.366 133.91 269.125 133.963C267.305 134.865 261.466 135.26 258.459 134.077C255.305 132.8 252.732 130.489 251.179 127.424C249.887 124.858 249.272 121.815 249.553 119.182C250.079 113.519 253.975 109.314 257.3 108.259C257.541 108.206 257.773 108.231 257.911 108.402C258.05 108.574 258.188 108.745 258.086 108.969C254.981 123.365 265.252 131.356 269.078 132.94C269.387 132.973 269.526 133.144 269.493 133.454C269.501 133.376 269.493 133.454 269.493 133.454ZM250.734 119.856C250.614 123.917 252.594 130.317 258.901 132.871C261.004 133.722 264.926 133.671 267.169 133.206C264.884 131.865 262.001 129.52 259.776 126.149C257.551 122.778 255.248 117.205 256.601 109.672C253.94 111.112 251.142 114.573 250.731 119.151C250.776 119.469 250.759 119.624 250.734 119.856Z" fill="black"/>
<path d="M269.494 133.454C269.461 133.764 269.273 134.057 268.963 134.024C268.722 134.076 263.356 134.443 259.114 130.152C258.907 129.895 258.871 129.499 259.128 129.291C259.385 129.084 259.78 129.048 259.988 129.305C263.806 133.16 268.777 132.829 268.854 132.837C269.173 132.793 269.458 133.058 269.494 133.454C269.502 133.376 269.502 133.376 269.494 133.454Z" fill="black"/>
<path d="M292.105 175.508C292.097 175.585 292.088 175.663 292.08 175.74C291.97 176.042 291.558 176.233 291.264 176.045C285.87 173.745 282.925 169.044 282.153 167.473C282.031 167.146 282.15 166.767 282.476 166.646C282.803 166.524 283.181 166.643 283.303 166.969C283.937 168.368 286.76 172.743 291.776 174.924C292 175.026 292.13 175.275 292.105 175.508Z" fill="black"/>
<path d="M240.09 137.364C244.899 133.412 250.391 130.395 256.241 128.435C257.46 128.017 256.627 126.283 255.416 126.623C249.334 128.559 243.747 131.722 238.767 135.812C237.901 136.581 239.147 138.125 240.09 137.364Z" fill="black"/>
<path d="M198.788 136.085C194.153 140.604 192.993 147.06 193.523 150.172C193.584 150.335 192.621 150.546 192.483 150.374C190.792 147.138 190.695 138.511 196.109 133.292C196.897 132.515 199.404 135.446 198.788 136.085Z" fill="black"/>
<path d="M216.421 160.216C203.995 157.009 199.102 141.211 207.32 131.748C216.976 120.559 236.525 126.015 238.422 141.259C240.034 154.043 227.894 163.557 216.421 160.216Z" fill="white"/>
<path d="M239.114 144.309C238.903 149.222 236.771 153.773 232.889 157.118C228.235 161.087 221.97 162.533 216.199 160.819C210.18 159.236 205.421 154.655 203.494 148.495C201.566 142.336 202.795 135.965 206.741 131.295C211.397 125.838 218.821 123.811 225.952 125.983C233.084 128.155 238.029 133.931 238.903 141.153C239.105 142.193 239.144 143.294 239.114 144.309ZM203.862 142.111C203.81 144.064 204.06 146.127 204.705 148.155C206.519 153.91 210.915 158.218 216.556 159.682C221.948 161.277 227.731 159.936 232.12 156.253C236.431 152.562 238.498 147.142 237.777 141.425C236.923 134.753 232.332 129.328 225.734 127.291C219.059 125.247 212.194 127.177 207.82 132.193C205.337 134.905 204.019 138.446 203.862 142.111Z" fill="black"/>
<path d="M238.829 149.919C242.09 150.189 243.077 141.678 241.153 136.224C239.151 130.761 232.148 124.451 230.578 127.417C229.785 128.978 231.973 129.76 234.558 134.893C239.009 143.828 235.791 149.752 238.829 149.919Z" fill="#8CC800"/>
<path d="M242.748 143.288C242.638 145.783 242.08 148.073 241.079 149.376C240.258 150.464 239.381 150.605 238.761 150.539C236.739 150.401 236.705 148.518 236.558 146.23C236.436 143.71 236.299 139.857 233.974 135.222C232.811 132.904 231.782 131.541 231.029 130.521C230.069 129.243 229.377 128.386 230.052 127.204C230.444 126.463 231.191 126.073 232.043 126.164C234.994 126.401 240.083 131.566 241.711 136.127C242.503 138.248 242.849 140.87 242.748 143.288ZM238.885 149.377C239.35 149.427 239.771 149.158 240.138 148.649C241.781 146.475 242.022 140.547 240.577 136.476C239.002 132.155 234.251 127.496 231.919 127.325C231.377 127.267 231.197 127.483 231.095 127.707C230.89 128.156 231.012 128.482 231.972 129.76C232.802 130.788 233.823 132.229 235.055 134.632C237.51 139.516 237.708 143.533 237.822 146.13C237.945 148.65 238.111 149.294 238.885 149.377Z" fill="black"/>
<path d="M222.008 151.177C227.178 151.181 231.482 143.886 226.844 137.437C222.743 131.828 215.594 135.686 214.414 139.399C211.223 149.477 218.481 151.192 222.008 151.177Z" fill="#FA961E"/>
<path d="M213.658 143.549C213.704 142.379 213.931 140.993 214.414 139.4C215.586 135.765 222.743 131.829 226.844 137.437C228.35 139.478 228.909 141.575 228.78 143.519C228.643 147.735 225.457 151.155 221.931 151.17C219.032 151.173 213.444 149.95 213.658 143.549ZM212.41 143.494C212.292 146.067 213.015 148.102 214.57 149.678C216.963 152.206 220.62 152.44 222.031 152.434C224.069 152.416 226.052 151.453 227.637 149.821C229.144 148.18 230.003 146 230.096 143.66C230.19 141.32 229.431 138.888 227.856 136.762C226.013 134.215 223.316 133.065 220.29 133.525C217.101 134.046 214.109 136.39 213.277 139.043C212.716 140.628 212.473 142.169 212.41 143.494Z" fill="black"/>
<path d="M219.724 138.087C221.837 137.372 224.122 138.713 224.967 141.075C225.734 143.429 224.755 145.988 222.651 146.625C220.537 147.339 218.252 145.998 217.408 143.636C216.641 141.283 217.688 138.809 219.724 138.087Z" fill="black"/>
<path d="M220.021 141.174C221.191 141.22 222.228 140.313 222.274 139.142C222.321 137.972 221.413 136.935 220.243 136.889C219.073 136.842 218.036 137.75 217.99 138.92C217.935 140.167 218.851 141.127 220.021 141.174Z" fill="white"/>
<path d="M201.145 124.273C201.522 120.005 199.33 116.324 197.75 114.98C197.681 114.895 198.049 114.386 198.196 114.48C200.375 115.339 204.144 119.659 203.701 124.546C203.626 125.244 201.156 124.901 201.145 124.273Z" fill="black"/>
<path d="M208.505 121.378C202.128 116.545 203.59 106.517 210.269 103.392C219.001 99.3892 227.086 107.303 225.022 115.621C223.506 123.215 214.161 126.368 208.505 121.378Z" fill="white"/>
<path d="M225.95 113.527C225.945 114.31 225.793 114.999 225.633 115.765C224.84 119.519 222.169 122.524 218.433 123.77C214.774 125.024 210.857 124.292 208.068 121.801C204.952 119.431 203.396 115.662 203.827 111.634C204.248 107.684 206.565 104.328 210.017 102.817C214.138 100.907 218.544 101.456 221.782 104.152C224.587 106.488 226.099 109.94 225.95 113.527ZM205.052 112.627C204.937 115.905 206.335 118.952 208.872 120.869C211.376 123.094 214.759 123.691 218.006 122.628C221.339 121.495 223.736 118.853 224.41 115.478C224.562 114.789 224.637 114.092 224.703 113.472C224.81 110.272 223.489 107.233 220.969 105.162C218.016 102.731 214.144 102.317 210.443 103.959C207.396 105.357 205.361 108.273 204.98 111.836C205.033 112.076 205.008 112.309 205.052 112.627Z" fill="black"/>
<path d="M222.108 104.03C223.358 102.597 226.485 105.594 227.479 108.755C228.473 111.917 227.698 117.709 225.313 117.298C223.772 117.055 224.403 115.555 224.045 112.305C223.437 106.992 220.867 105.386 222.108 104.03Z" fill="#8CC800"/>
<path d="M228.493 112.467C228.449 114.342 227.932 116.246 227.119 117.256C226.409 118.041 225.695 118.122 225.161 117.986C223.543 117.735 223.521 116.479 223.539 114.836C223.528 114.208 223.542 113.348 223.409 112.394C223.139 109.78 222.375 108.132 221.802 106.895C221.238 105.582 220.795 104.594 221.599 103.662C222.045 103.161 222.612 102.987 223.3 103.139C225.065 103.484 227.218 106.064 228.038 108.658C228.395 109.715 228.564 111.065 228.493 112.467ZM222.413 104.846C222.38 105.155 222.571 105.567 222.953 106.392C223.526 107.628 224.351 109.439 224.595 112.286C224.72 113.317 224.715 114.1 224.718 114.806C224.768 116.534 224.829 116.698 225.371 116.755C225.526 116.772 225.836 116.805 226.195 116.373C227.265 115.156 227.671 111.361 226.912 108.93C226.223 106.584 224.252 104.494 223.099 104.292C222.789 104.259 222.626 104.32 222.54 104.389C222.438 104.613 222.43 104.691 222.413 104.846Z" fill="black"/>
<path d="M215.234 117.787C218.365 117.808 221.03 113.393 218.158 109.483C215.701 106.087 211.298 108.436 210.593 110.633C208.684 116.774 213.041 117.788 215.234 117.787Z" fill="#FA961E"/>
<path d="M210.173 113.095C210.17 112.39 210.339 111.546 210.679 110.564C211.383 108.368 215.717 105.932 218.244 109.414C219.126 110.683 219.467 111.895 219.412 113.142C219.294 115.715 217.427 117.787 215.234 117.788C213.436 117.752 209.984 117.07 210.173 113.095ZM208.917 113.118C208.89 114.838 209.369 116.221 210.354 117.267C211.979 118.928 214.311 119.099 215.248 119.121C218.07 119.109 220.467 116.467 220.651 113.274C220.739 111.717 220.199 110.171 219.247 108.816C218.019 107.118 216.226 106.3 214.232 106.635C212.16 106.962 210.111 108.545 209.611 110.293C209.116 111.259 208.939 112.18 208.917 113.118Z" fill="black"/>
<path d="M214.397 115.348C213.02 115.045 212.068 113.689 212.372 112.312C212.675 110.934 214.031 109.982 215.408 110.286C216.786 110.59 217.738 111.945 217.434 113.323C217.208 114.708 215.861 115.583 214.397 115.348Z" fill="black"/>
<path d="M213.359 111.869C214.048 112.021 214.726 111.545 214.878 110.856C215.03 110.167 214.554 109.49 213.865 109.338C213.176 109.186 212.498 109.662 212.347 110.351C212.195 111.04 212.671 111.717 213.359 111.869Z" fill="white"/>
</svg>
