<svg width="99" height="127" viewBox="0 0 99 127" fill="none" xmlns="http://www.w3.org/2000/svg">
<path d="M66.6278 59.1784C66.2362 59.1665 65.8546 58.8284 65.8012 58.4349C65.4492 54.9627 65.8328 50.925 66.8472 47.6248C67.5689 45.3608 68.5417 43.4309 69.5838 41.3725C70.0682 40.4728 70.4874 39.5711 70.9738 38.6062C71.1834 38.1554 71.6461 37.9734 72.0969 38.183C72.5478 38.3926 72.7297 38.8553 72.5201 39.3062C72.0337 40.2711 71.6125 41.238 71.1281 42.1377C70.088 44.1309 69.1844 45.9322 68.4646 48.131C67.5215 51.2374 67.1458 55.0141 67.4404 58.2233C67.4919 58.6821 67.1518 59.1289 66.693 59.1804C66.693 59.1804 66.6278 59.1784 66.6278 59.1784Z" fill="black"/>
<path d="M57.3161 60.3985C56.8593 60.3847 56.4797 59.9813 56.4935 59.5245C56.5389 51.5578 54.4805 50.5158 52.3588 49.4065C49.0171 47.6072 46.6641 45.5112 47.4095 33.843C47.4233 33.3862 47.8267 33.0066 48.2834 33.0204C48.7402 33.0342 49.1199 33.4376 49.106 33.8944C48.4318 45.3688 50.7453 46.6146 53.1893 47.8642C55.6966 49.1811 58.2038 50.498 58.192 59.5107C58.1782 59.9675 57.7748 60.3471 57.3161 60.3985Z" fill="black"/>
<path d="M67.9468 22.1214C73.7344 18.6393 81.1178 22.847 81.452 29.0618C81.8594 37.1728 73.1868 41.0247 67.3042 36.8624C61.8586 33.3665 62.2422 25.0182 67.9468 22.1214Z" fill="white"/>
<path d="M72.3302 39.1045C70.4379 39.0471 68.6267 38.4698 67.029 37.3111C64.3398 35.5315 62.7994 32.4805 62.9655 29.1546C63.1296 25.894 64.9131 23.0743 67.6992 21.6565C70.4931 19.9777 73.9574 19.8868 76.9788 21.4805C79.9349 23.0722 81.8095 25.8721 81.9736 29.0774C82.1852 32.8719 80.3878 36.1483 77.2656 37.8825C75.7371 38.7505 74.0268 39.1559 72.3302 39.1045ZM72.6702 21.4153C71.1042 21.3678 69.5895 21.7791 68.1935 22.5859L68.1283 22.5839C65.6744 23.8158 64.0965 26.3151 63.9423 29.2495C63.7881 32.1839 65.1426 34.9027 67.5767 36.4786C70.2619 38.3887 73.9121 38.6299 76.7693 37.0184C79.6246 35.4721 81.1491 32.5792 80.9256 29.1762C80.7496 26.3625 79.1262 23.8968 76.4271 22.4434C75.2704 21.8206 73.9752 21.4548 72.6702 21.4153Z" fill="black"/>
<path d="M77.2566 38.1437C77.9981 39.5377 74.6841 41.1354 71.8822 40.9199C69.0804 40.7044 64.7777 38.2881 65.8751 36.5579C66.5632 35.4032 67.5143 36.3463 70.2351 37.0819C74.5734 38.3236 76.5784 36.8169 77.2566 38.1437Z" fill="#8CC800"/>
<path d="M72.193 41.4516C72.0625 41.4476 71.9972 41.4457 71.8667 41.4417C69.6501 41.3092 66.3005 39.7709 65.4384 38.0467C65.0706 37.2518 65.2189 36.6685 65.4265 36.2829C66.1146 35.1281 67.1487 35.486 68.44 35.9823C68.956 36.1939 69.6026 36.4094 70.3797 36.6289C72.5172 37.2162 74.022 37.1311 75.1332 37.0995C76.3097 37.0698 77.2925 36.9689 77.7196 37.9616C77.9668 38.4262 77.949 39.0135 77.6089 39.4604C76.7903 40.6112 74.3463 41.5168 72.193 41.4516ZM66.7256 36.5182C66.5298 36.5123 66.3954 36.6388 66.3262 36.7673C66.257 36.8959 66.1838 37.1549 66.3697 37.4871C66.9846 38.7466 69.8795 40.2059 71.9656 40.3344C73.9864 40.461 76.2326 39.6146 76.7804 38.7822C76.9188 38.5251 76.9227 38.3946 76.8595 38.3274C76.6736 37.9952 76.3473 37.9853 75.2361 38.017C74.1248 38.0486 72.4243 38.1277 70.091 37.5345C69.2487 37.3131 68.6041 37.0323 68.086 36.886C67.3089 36.6665 66.9866 36.5261 66.7256 36.5182Z" fill="black"/>
<path d="M33.9243 17.6285C38.8537 7.98104 52.7306 6.9646 59.0067 15.384C66.4099 25.4051 58.2476 40.4408 45.4206 39.1378C34.6066 38.2224 29.0186 26.4929 33.9243 17.6285Z" fill="white"/>
<path d="M46.4467 39.7572C46.0552 39.7453 45.729 39.7355 45.3394 39.6583C40.1944 39.1759 35.775 36.2989 33.3666 31.7194C30.9582 27.1399 30.9898 21.7853 33.41 17.3521C35.7709 12.7212 40.4354 9.66222 45.8711 9.17379C51.2396 8.74863 56.3332 10.9276 59.3428 15.0681C62.9178 19.9442 63.2461 26.3547 60.1397 31.8774C57.3062 37.0165 52.1237 39.9292 46.4467 39.7572ZM47.799 10.2119C47.2118 10.1941 46.6245 10.1763 46.0333 10.289C40.9911 10.724 36.5955 13.5299 34.373 17.9038C32.0932 22.0147 32.0714 27.043 34.3592 31.2923C36.647 35.5416 40.6808 38.211 45.4996 38.6835C51.1647 39.247 56.4738 36.4688 59.3705 31.397C62.2693 26.2598 61.9944 20.2428 58.6685 15.7661C56.094 12.3572 52.1057 10.3424 47.799 10.2119Z" fill="black"/>
<path d="M50.6228 5.399C44.327 4.09795 38.3673 6.7911 36.1468 8.94443C36.0123 9.07098 35.3143 8.39673 35.3855 8.20295C37.1137 5.05503 44.1193 0.172932 51.4552 1.63611C52.4933 1.8635 51.4671 5.5552 50.6228 5.399Z" fill="black"/>
<path d="M76.1634 18.1902C79.5961 19.1432 81.9274 21.957 82.4652 23.6061C82.5285 23.6733 83.0545 23.5586 82.9932 23.4261C82.924 21.3993 80.6994 17.2173 76.6835 16.1159C76.1001 15.9677 75.7106 18.0458 76.1634 18.1902Z" fill="black"/>
<path d="M38.1402 38.0028C37.3414 40.6564 44.0624 43.0153 48.9128 42.4438C53.7632 41.8723 60.2389 37.2354 58.139 35.4084C57.0574 34.4612 55.9619 36.1262 51.2243 37.2889C43.131 39.2643 38.9351 35.4797 38.1402 38.0028Z" fill="#8CC800"/>
<path d="M46.9351 43.0376C43.4115 42.9308 39.6625 41.6416 38.2111 39.9648C37.519 39.0948 37.5428 38.3118 37.6891 37.7937C38.1953 36.1763 39.6882 36.4827 41.6378 36.8031C43.716 37.1926 46.9648 37.7482 51.1765 36.7002C53.2823 36.1762 54.6071 35.5632 55.5998 35.1361C56.8573 34.5864 57.7175 34.2206 58.544 34.964C59.1174 35.4386 59.2934 36.097 59.0759 36.8089C58.3503 39.2034 53.0926 42.4404 49.0944 42.907C48.3727 43.0158 47.6529 43.0593 46.9351 43.0376ZM38.658 38.1496C38.5156 38.5372 38.6343 38.9327 39.0139 39.336C40.5266 41.1453 45.3216 42.4009 48.9283 41.9223C52.7959 41.4517 57.5257 38.3947 58.0398 36.5162C58.1822 36.1287 57.9923 35.927 57.8658 35.7925C57.5474 35.5216 57.2192 35.577 56.0269 36.1287C55.0343 36.5558 53.6422 37.2321 51.4059 37.7521C46.9312 38.8575 43.6191 38.2346 41.4104 37.8411C39.3955 37.5189 38.8735 37.503 38.658 38.1496Z" fill="black"/>
<path d="M73.362 28.7512C73.0239 29.1328 73.0714 29.7221 73.451 30.1255C73.8327 30.4636 74.422 30.4162 74.8254 30.0365C75.1635 29.6548 75.1161 29.0656 74.7364 28.6622C74.2895 28.3221 73.7022 28.3043 73.362 28.7512Z" fill="white"/>
<path d="M53.4576 23.9028C54.3237 27.6518 49.6829 32.0831 44.267 29.7637C39.4304 27.7231 41.1111 21.8307 43.6362 20.405C50.4204 16.3652 52.8822 21.3382 53.4576 23.9028Z" fill="#F19001"/>
<path d="M44.5646 24.2865C44.3846 25.9139 45.7767 27.3929 47.6651 27.5807C49.5534 27.7686 51.157 26.5762 51.3369 24.9489C51.5169 23.3215 50.1248 21.8425 48.2365 21.6547C46.4134 21.4688 44.7445 22.6592 44.5646 24.2865Z" fill="#1D1E1C"/>
<path d="M47.0023 27.8872C46.0928 27.729 45.3216 27.3138 44.7521 26.7088C44.1214 25.9712 43.7555 25.1111 43.8485 24.1995C43.9394 23.3532 44.3527 22.6473 45.023 22.0798C45.8258 21.451 46.8797 21.1564 47.987 21.2552C50.0711 21.449 51.5878 23.1278 51.3999 25.0161C51.307 25.9277 50.8245 26.7621 50.0237 27.3256C49.2229 27.8892 48.3015 28.1225 47.2594 28.0256C47.1961 27.9584 47.1309 27.9564 47.0023 27.8872ZM48.0938 22.0422C48.0285 22.0402 47.9633 22.0383 47.898 22.0363C47.0517 21.9453 46.1956 22.1806 45.5272 22.6829C44.9914 23.1238 44.7126 23.7032 44.6295 24.2885C44.5445 24.939 44.7838 25.6647 45.29 26.2025C45.7962 26.7404 46.5693 27.0904 47.3503 27.1793C48.1314 27.2683 48.9204 27.0963 49.5887 26.594C50.1898 26.1551 50.5338 25.5777 50.6208 24.8619C50.7909 23.5608 49.6539 22.2854 48.0938 22.0422Z" fill="#1D1E1C"/>
<path d="M51.6777 22.2812C51.8556 22.8742 51.5097 23.5166 50.8515 23.6926C50.2585 23.8705 49.616 23.5246 49.4401 22.8663C49.2622 22.2733 49.6081 21.6309 50.2663 21.4549C50.9246 21.279 51.565 21.6902 51.6777 22.2812Z" fill="white"/>
<path d="M48.5109 19.0505C51.5659 19.535 53.6322 22.4713 53.1478 25.5263C52.6634 28.5812 49.727 30.6476 46.6721 30.1631C43.6171 29.6787 41.5507 26.7424 42.0352 23.6874C42.5848 20.6344 45.4559 18.5661 48.5109 19.0505ZM48.6711 18.0757C45.0328 17.443 41.6258 19.9522 40.9951 23.5253C40.3624 27.1636 42.8716 30.5705 46.4447 31.2013C50.083 31.834 53.4899 29.3247 54.1206 25.7517C54.7534 22.1134 52.3113 18.6432 48.6711 18.0757Z" fill="#1D1E1C"/>
<path d="M68.6255 27.7588C66.9981 29.7341 68.3151 33.6927 72.2243 34.0071C75.6767 34.3076 76.5151 30.349 75.5205 28.6861C72.7818 24.2272 69.7763 26.4221 68.6255 27.7588Z" fill="#F19001"/>
<path d="M73.7602 30.7218C73.3371 31.754 72.0834 32.1732 70.9208 31.7461C69.7601 31.2537 69.1431 30.0594 69.5643 29.0925C69.9874 28.0603 71.2411 27.6411 72.4037 28.0682C73.5664 28.4953 74.1833 29.6896 73.7602 30.7218Z" fill="#1D1E1C"/>
<path d="M71.0429 32.0111C70.3982 31.7303 69.9533 31.325 69.6449 30.7278C69.3364 30.1307 69.2889 29.5414 69.5677 28.9621C70.0601 27.8014 71.4462 27.3209 72.7374 27.8172C73.382 28.098 73.9554 28.5725 74.1967 29.2329C74.4419 29.7629 74.4241 30.3501 74.2125 30.8662C73.999 31.4476 73.5303 31.8252 72.9352 32.0684C72.4072 32.2484 71.8199 32.2306 71.2366 32.0823C71.1714 32.0803 71.1061 32.0783 71.0429 32.0111ZM70.0186 29.1717C69.8742 29.6245 69.8604 30.0813 70.1095 30.4807C70.3567 30.9453 70.7383 31.2835 71.2544 31.495C71.7705 31.7066 72.2925 31.7224 72.7552 31.5405C73.2179 31.3586 73.5541 31.0422 73.7617 30.6566C73.904 30.2691 73.9179 29.8123 73.734 29.4149C73.5521 28.9522 73.1091 28.4816 72.5278 28.268C72.4625 28.266 72.4645 28.2008 72.3993 28.1988C71.3612 27.9714 70.3705 28.3333 70.0186 29.1717Z" fill="#1D1E1C"/>
<path d="M72.9814 28.4129C72.5762 28.8577 72.6217 29.512 73.0664 29.9172C73.5112 30.3224 74.1655 30.2769 74.5707 29.8322C74.9759 29.3874 74.9304 28.7331 74.4857 28.3279C74.0389 27.9879 73.3866 27.9681 72.9814 28.4129Z" fill="white"/>
<path d="M73.0402 26.4555C74.98 27.102 76.026 29.2237 75.3794 31.1635C74.7328 33.1033 72.6112 34.1493 70.6714 33.5027C68.7316 32.8561 67.6856 30.7345 68.3322 28.7947C68.9788 26.8549 71.1004 25.8089 73.0402 26.4555ZM73.2557 25.8089C70.9284 25.0199 68.4726 26.3171 67.6856 28.5792C66.8967 30.9065 68.1938 33.3623 70.4559 34.1493C72.7832 34.9382 75.239 33.6411 76.026 31.379C76.8149 29.0517 75.585 26.5326 73.2557 25.8089Z" fill="#1D1E1C"/>
<path d="M93.1063 114.319C90.6603 113.135 86.761 112.494 81.3945 108.544C73.2775 102.681 70.8987 88.5016 73.7855 81.6007C75.3338 77.9248 77.1331 72.4278 75.2506 65.5783C73.4255 58.9918 70.5109 56.0298 65.5873 54.705C59.8886 53.0955 54.453 55.7392 52.6437 61.5625C51.2735 65.8316 52.1277 69.9721 54.722 74.8838C57.0078 79.1983 59.3391 82.012 59.788 88.7528C61.3779 113.881 24.993 116.24 2.42968 117.254C1.18792 117.282 0.491905 118.698 1.44499 119.576C3.41442 121.399 8.57132 123.645 15.7589 123.536C28.3071 123.263 28.6887 121.446 38.698 120.9C48.5767 120.351 51.7207 122.209 64.342 121.677C75.7849 121.24 87.9949 119.194 92.6574 118.355C93.7074 118.191 94.4548 117.234 94.4192 116.253C94.3144 115.401 93.8141 114.667 93.1063 114.319Z" fill="#8CC800"/>
<path d="M14.0391 124.269C7.84015 124.081 3.0016 122.106 0.840365 120.146C0.205637 119.539 -0.0296717 118.683 0.320312 117.91C0.60702 117.069 1.40784 116.506 2.38859 116.47C16.8409 115.863 43.7208 114.653 54.3983 102.828C57.7796 99.0119 59.3574 94.3572 59.0015 88.8602C58.6436 83.4285 57.0933 80.7037 55.2326 77.4471C54.8628 76.7174 54.4258 76.0511 53.9928 75.2542C51.1494 69.9431 50.4968 65.6127 51.8671 61.3437C53.8147 55.2634 59.5233 52.236 65.8053 53.9938C71.1816 55.463 74.1496 58.8185 75.9748 65.405C77.9798 72.5194 76.1093 78.2102 74.4938 81.9493C71.8225 88.2036 73.8158 102.175 81.8042 107.969C85.6383 110.763 88.7387 111.902 91.0008 112.689C91.9045 113.043 92.6796 113.328 93.3895 113.61C94.4197 114.099 95.0425 115.097 95.0742 116.208C95.0959 117.646 94.0796 118.856 92.6994 119.141C87.9716 119.977 75.8268 122.026 64.3187 122.461C57.7797 122.72 53.6767 122.335 50.0285 122.028C46.6414 121.73 43.3847 121.435 38.6747 121.684C34.2909 121.943 31.8608 122.392 29.2329 122.9C26.0138 123.521 22.7295 124.14 15.6704 124.318C15.1484 124.302 14.5611 124.284 14.0391 124.269ZM62.7028 55.0755C58.3962 54.945 54.7283 57.4463 53.354 61.8459C52.1242 65.7927 52.7293 69.5338 55.3848 74.5779C55.7546 75.3076 56.1896 76.0392 56.5614 76.7036C58.4221 79.9602 60.1582 83.0172 60.5062 88.7752C60.8483 94.7289 59.1934 99.7731 55.476 103.906C44.3911 116.24 17.0545 117.437 2.33917 118.101C1.94766 118.09 1.74399 118.345 1.67281 118.538C1.60361 118.667 1.59768 118.863 1.85275 119.066C3.88547 120.957 9.05028 122.942 15.5854 122.813C22.512 122.697 25.733 122.01 28.8849 121.453C31.4475 120.943 34.0754 120.434 38.5244 120.177C43.3669 119.867 46.6868 120.229 50.1393 120.529C53.916 120.905 57.7599 121.217 64.1685 120.954C75.6113 120.517 87.6888 118.532 92.3534 117.628C93.0098 117.518 93.4844 116.944 93.4389 116.29C93.4547 115.768 93.1423 115.301 92.6915 115.091C92.0469 114.811 91.337 114.528 90.4333 114.174C88.0427 113.318 84.8137 112.11 80.8512 109.246C72.0955 102.907 70.124 88.2175 73.0089 81.3818C74.6263 77.5774 76.22 72.4008 74.3929 65.8795C72.6845 59.7538 70.1594 56.8688 65.3011 55.546C64.4627 55.1941 63.5511 55.1012 62.7028 55.0755Z" fill="black"/>
<path d="M55.8911 62.1842C55.8911 62.1842 56.6782 70.6986 65.3705 70.5048C75.3047 70.2833 73.612 61.4802 73.612 61.4802C73.612 61.4802 69.4814 64.1634 63.8717 63.9282C58.001 63.685 55.8911 62.1842 55.8911 62.1842Z" fill="white"/>
<path d="M64.7016 71.0068C62.1568 70.9297 60.0925 70.0834 58.5066 68.5332C55.8412 65.9706 55.4971 62.2374 55.4971 62.2374C55.503 62.0416 55.5722 61.9131 55.7719 61.7885C55.9044 61.7272 56.1002 61.7332 56.2287 61.8024C56.2939 61.8043 58.3425 63.1727 63.9522 63.4079C64.0174 63.4099 64.0174 63.4099 64.0827 63.4119C69.4333 63.574 73.3623 61.0805 73.4295 61.0173C73.562 60.956 73.7597 60.8966 73.8863 61.0311C74.0148 61.1003 74.0761 61.2328 74.1374 61.3653C74.1908 61.7588 74.7326 65.4327 72.5615 68.11C71.0686 69.9588 68.6899 70.8664 65.4866 70.9653C65.1604 70.9554 64.8974 71.0127 64.7016 71.0068ZM56.5174 63.0521C56.9761 65.1559 58.8467 70.2416 65.3838 70.0478C68.3241 70.0063 70.4398 69.156 71.7963 67.499C73.2892 65.6502 73.3583 63.3663 73.2634 62.1879C71.8694 62.9294 68.3597 64.5211 63.8592 64.3195C59.9441 64.2009 57.6801 63.4792 56.5174 63.0521Z" fill="black"/>
<path d="M53.6892 85.2378C59.734 94.8258 56.3113 104.323 51.2335 108.088C49.8316 109.09 44.3366 111.536 44.3366 111.536C44.3366 111.536 40.8624 114.109 33.6491 115.066C28.4033 115.756 23.4283 113.973 18.7321 109.454C13.2726 104.26 9.0964 89.0464 22.0499 79.7074C32.7966 72.0649 47.0176 74.7817 53.6892 85.2378Z" fill="#E62828"/>
<path d="M48.8515 85.4177C48.6558 85.4118 48.462 85.3406 48.2722 85.139C44.8612 81.3128 39.8922 79.3336 34.2686 79.5551C33.8119 79.5412 33.4935 79.2703 33.4421 78.8116C33.4559 78.3548 33.7268 78.0365 34.1856 77.9851C40.2679 77.7121 45.6877 79.901 49.415 84.0633C49.7314 84.3994 49.6523 84.8542 49.3814 85.1726C49.247 85.2991 49.0473 85.4237 48.8515 85.4177Z" fill="#FF5A5A"/>
<path d="M21.5889 86.2899C21.3279 86.282 21.1361 86.1456 20.9463 85.9439C18.5754 82.2799 15.0439 80.2789 10.9983 80.1563C10.5415 80.1425 10.2251 79.8063 10.239 79.3495C10.2528 78.8928 10.589 78.5764 11.0457 78.5903C15.6134 78.7286 19.5285 81.0025 22.2137 85.0679C22.4649 85.4021 22.3185 85.9202 21.9844 86.1713C21.9172 86.2346 21.7194 86.2939 21.5889 86.2899Z" fill="black"/>
<path d="M31.275 115.843C26.3158 115.693 20.8861 113.83 16.4904 108.015C13.1012 103.471 11.8337 97.8811 12.9845 92.2339C14.2084 86.3276 17.9594 81.0856 23.3437 77.9832C31.3874 73.3285 43.9317 73.186 51.1391 81.0459C56.385 86.8216 60.1262 96.993 53.1719 106.644C52.9011 106.963 52.4403 107.079 52.0567 106.807C51.7384 106.536 51.6217 106.075 51.8946 105.691C58.2358 96.8704 55.0523 87.6956 49.9329 82.0543C43.2969 74.7343 31.5358 74.9004 24.0891 79.2467C19.1023 82.1652 15.559 87.0216 14.4141 92.4731C13.3424 97.6656 14.4933 102.795 17.6313 107.005C24.5343 116.292 34.5119 114.635 39.8566 112.838C46.455 110.621 48.9602 103.382 48.0981 97.347C47.3387 92.2297 43.8507 86.6378 36.3467 86.4105L36.2814 86.4085C30.735 86.2405 26.0112 91.257 25.6177 95.621C25.4002 98.4881 27.0058 101.541 29.6357 103.123C31.0456 104.015 33.9522 105.082 37.4818 102.838C38.7473 102.027 39.6371 100.683 39.8783 99.188C40.1156 97.8236 39.7656 96.4415 39.0102 95.5042C38.0037 94.2328 36.7106 93.8017 35.4589 94.1557C34.3378 94.5136 33.5231 95.5339 33.4242 96.6412C33.4104 97.098 33.009 97.4124 32.6195 97.3353C32.1627 97.3214 31.8483 96.92 31.9254 96.5305C32.0441 94.7707 33.3313 93.2422 35.0456 92.7063C36.9577 92.1111 38.8955 92.823 40.2797 94.563C41.3494 95.9017 41.7528 97.6773 41.5017 99.4984C41.1814 101.448 40.0187 103.176 38.419 104.238C35.3542 106.235 31.8899 106.326 28.9397 104.539C25.7977 102.615 23.8816 99.0299 24.1822 95.5775C24.5994 90.4305 29.9955 84.7812 36.4574 84.9117L36.5227 84.9136C43.5046 85.1252 48.7149 89.9202 49.8005 97.2027C50.7734 103.894 47.9162 111.971 40.5269 114.425C38.0869 115.2 34.7986 115.95 31.275 115.843Z" fill="black"/>
<path fill-rule="evenodd" clip-rule="evenodd" d="M28.1107 75.8411C30.0168 71.1311 27.7725 65.4463 27.379 65.4997C26.8531 65.6143 22.5622 67.1171 19.7366 69.8399C16.306 73.1322 15.6397 77.8798 19.1277 79.1611C23.9722 80.9407 26.7681 79.1967 28.1107 75.8411Z" fill="#B4E100"/>
<path d="M22.4877 80.3737C21.4437 80.3421 20.2751 80.1107 18.9839 79.6144C17.6274 79.1162 16.7455 78.0445 16.4608 76.6643C16.006 74.4299 17.137 71.5904 19.4247 69.3738C22.3176 66.5878 26.8061 65.0256 27.3321 64.9109C27.4626 64.9149 27.7256 64.8576 27.9134 65.1245C28.6075 65.9293 30.4682 71.3412 28.6312 75.9227C27.7118 78.2461 25.9461 80.4785 22.4877 80.3737ZM27.2312 66.0835C26.1753 66.4434 22.539 67.9007 20.1188 70.1786C18.1672 72.0788 17.0441 74.6573 17.4455 76.4982C17.6749 77.5501 18.3056 78.2877 19.3398 78.6455C23.4072 80.2056 26.1814 79.1794 27.6604 75.632C29.2185 71.6299 27.7888 67.0801 27.2312 66.0835Z" fill="black"/>
<path d="M34.8621 87.9983C34.601 87.9903 34.4092 87.8539 34.3519 87.5909C34.2352 87.1302 34.1205 86.6042 34.0059 86.0783C33.7172 84.8286 33.4324 83.4484 33.0725 82.3925C33.0152 82.1295 33.1556 81.8072 33.4186 81.7499C33.6815 81.6925 34.0038 81.8329 34.0612 82.0959C34.4211 83.1518 34.7038 84.5972 34.9925 85.8469C35.1072 86.3729 35.2219 86.8988 35.3406 87.2943C35.3979 87.5573 35.2575 87.8796 34.9293 87.935C34.9273 88.0002 34.9273 88.0002 34.8621 87.9983Z" fill="black"/>
<path d="M31.2396 88.9988C31.0438 88.9929 30.9153 88.9237 30.7907 88.724C30.2964 87.7946 29.2385 86.0645 28.6729 85.3289C28.4831 85.1272 28.5583 84.8029 28.7599 84.6131C28.9616 84.4233 29.2859 84.4984 29.4757 84.7001C30.1045 85.5029 31.1604 87.2983 31.72 88.2296C31.8426 88.4946 31.7675 88.8189 31.5025 88.9415C31.4373 88.9395 31.3701 89.0028 31.2396 88.9988Z" fill="black"/>
<path d="M45.6855 92.898C45.4898 92.8921 45.3612 92.8229 45.2367 92.6232C45.1141 92.3582 45.1892 92.0339 45.4542 91.9113C46.1186 91.5396 47.0499 90.98 47.916 90.4184C48.8473 89.8588 49.7786 89.2993 50.443 88.9275C50.7079 88.8049 51.0322 88.88 51.1548 89.145C51.2774 89.41 51.2023 89.7343 50.9373 89.8569C50.2729 90.2286 49.3416 90.7882 48.4775 91.2845C47.5462 91.8441 46.6149 92.4037 45.9505 92.7754C45.8833 92.8387 45.7508 92.9 45.6855 92.898Z" fill="black"/>
<path d="M20.5749 76.6583C20.5097 76.6564 20.4444 76.6544 20.3811 76.5872C20.1241 76.4487 20.0015 76.1838 20.1399 75.9267C20.2111 75.733 22.1686 71.4817 24.7233 69.0772C24.925 68.8874 25.2513 68.8973 25.4411 69.099C25.6309 69.3006 25.621 69.6269 25.4193 69.8167C22.9991 72.0946 21.1088 76.2826 21.0416 76.3459C20.9684 76.605 20.7707 76.6643 20.5749 76.6583Z" fill="black"/>
<g opacity="0.6">
<g opacity="0.6">
<g opacity="0.6">
<path opacity="0.6" d="M65.4688 58.6208C65.3383 58.6168 65.2078 58.6129 65.1446 58.5457C64.1163 57.992 62.9477 57.7607 61.7653 57.9861C61.3718 58.0395 60.9229 57.7646 60.8696 57.3711C60.8162 56.9777 61.091 56.5288 61.4845 56.4754C62.9932 56.2599 64.5533 56.5031 65.8386 57.1951C66.2242 57.4028 66.3408 57.8635 66.1332 58.2491C66.062 58.4428 65.7299 58.6287 65.4688 58.6208Z" fill="#B4E100"/>
</g>
</g>
</g>
<path d="M41.7948 91.9964C41.599 91.9905 41.4053 91.9193 41.2787 91.7848C40.3929 90.8436 38.7793 90.2069 37.2785 90.1615C36.8218 90.1476 36.5054 89.8115 36.5192 89.3547C36.5331 88.8979 36.8692 88.5816 37.326 88.5954C39.2183 88.6527 41.2174 89.497 42.3563 90.7072C42.6727 91.0433 42.6589 91.5001 42.3227 91.8164C42.1883 91.943 41.9905 92.0023 41.7948 91.9964Z" fill="#FF5A5A"/>
<path d="M44.8452 99.0773C44.6494 99.0714 44.4556 99.0002 44.3291 98.8657C44.2025 98.7313 44.1432 98.5335 44.1511 98.2725C44.157 98.0767 44.2282 97.8829 44.3627 97.7564C44.6316 97.5032 45.1537 97.5191 45.472 97.79C45.5986 97.9244 45.6579 98.1222 45.652 98.318C45.6461 98.5137 45.5749 98.7075 45.4384 98.8993C45.2387 99.0239 45.041 99.0832 44.8452 99.0773Z" fill="black"/>
<path d="M43.6512 112.626C43.4554 112.62 43.2617 112.549 43.0718 112.347C42.7555 112.011 42.8345 111.556 43.1054 111.238C45.1203 109.405 46.6369 108.928 47.8925 108.444C49.2786 107.963 50.3345 107.603 51.9619 105.628C52.2328 105.31 52.7568 105.26 53.0751 105.531C53.3935 105.802 53.4429 106.326 53.172 106.644C51.2738 108.938 49.8877 109.419 48.3691 109.96C47.1807 110.382 45.9271 110.801 44.1139 112.444C44.0467 112.507 43.8469 112.632 43.6512 112.626Z" fill="black"/>
<path d="M64.5953 68.0646C60.4844 67.94 57.1328 66.4669 56.941 66.3305C56.684 66.1921 56.6266 65.9291 56.6978 65.7353C56.769 65.5415 57.0992 65.4209 57.293 65.4921C57.3563 65.5593 66.895 69.767 73.2639 64.3432C73.4656 64.1533 73.7246 64.2265 73.9164 64.3629C74.1063 64.5646 74.0331 64.8237 73.8967 65.0155C71.0137 67.4753 67.5969 68.1555 64.5953 68.0646Z" fill="black"/>
<path d="M18.2899 91.7415C18.2247 91.7395 18.1594 91.7375 18.1594 91.7375C17.9004 91.6644 17.7145 91.3322 17.8529 91.0751C19.4308 86.4205 23.1739 83.5949 24.5007 82.9166C24.7656 82.794 25.0899 82.8692 25.2125 83.1341C25.3351 83.3991 25.26 83.7234 24.995 83.846C23.866 84.4649 20.3246 87.1007 18.8218 91.4311C18.7506 91.6248 18.5509 91.7494 18.2899 91.7415Z" fill="black"/>
</svg>
