<svg width="85" height="111" viewBox="0 0 85 111" fill="none" xmlns="http://www.w3.org/2000/svg">
<path d="M49.3838 54.2295C49.2678 54.2295 49.1519 54.2295 49.036 54.1715C48.6883 53.9977 48.5724 53.592 48.7462 53.2442C48.7462 53.2442 49.7894 51.2738 48.7462 49.5931C48.3985 49.0135 47.8769 48.7238 47.2974 48.376C46.6019 47.9704 45.7906 47.5647 45.211 46.6374C44.6315 45.7101 44.5156 44.7249 44.3996 43.9135C44.2258 42.4647 44.1678 41.5954 41.7917 41.0738C41.444 41.0158 41.1542 40.6101 41.2701 40.2624C41.3281 39.9147 41.7337 39.6249 42.0815 39.7408C45.4428 40.4363 45.6167 42.2329 45.7906 43.7397C45.8485 44.4931 45.9644 45.1885 46.3701 45.884C46.7758 46.5215 47.3553 46.8113 47.9928 47.217C48.6883 47.6226 49.4417 48.0283 49.9633 48.8976C51.3542 51.2738 50.0213 53.8238 49.9633 53.8817C49.8474 54.1136 49.6156 54.2295 49.3838 54.2295Z" fill="black"/>
<path d="M59.4687 51.1578C59.1789 51.1578 58.9471 50.984 58.8312 50.7521C58.7732 50.5783 56.9187 46.3476 57.2084 43.6237C57.4403 41.6533 58.4255 40.0305 59.3528 38.6396C59.9323 37.7123 60.5119 36.843 60.6278 36.0896C60.8016 35.1623 60.5698 34.1771 60.338 33.1339C59.8744 31.1055 59.4107 28.7873 61.4391 26.4112C61.671 26.1214 62.1346 26.0635 62.4244 26.3532C62.7141 26.5851 62.7721 27.0487 62.4823 27.3385C60.8596 29.193 61.2653 30.9896 61.671 32.8442C61.9028 34.0032 62.1925 35.1623 61.9607 36.3794C61.7869 37.3646 61.1494 38.3498 60.5119 39.393C59.7005 40.668 58.7732 42.1749 58.5994 43.7976C58.3096 46.1737 60.1062 50.1726 60.1062 50.2306C60.28 50.5783 60.1062 50.984 59.7585 51.1578C59.6425 51.1578 59.5846 51.1578 59.4687 51.1578Z" fill="black"/>
<path d="M52.7449 13.4873C55.9903 8.50317 63.4665 8.96681 66.1324 13.777C69.6097 20.0362 64.2199 26.4691 57.9028 25.4259C52.2233 24.7305 49.3835 17.9498 52.7449 13.4873Z" fill="white"/>
<path d="M59.2365 26.0055C58.7729 26.0055 58.3093 25.9475 57.9036 25.8896C55.0638 25.5418 52.6876 23.7453 51.5286 21.0214C50.3695 18.3555 50.7172 15.4577 52.3979 13.1975C53.9627 10.7634 56.6865 9.3725 59.7002 9.43045C62.6559 9.54636 65.2638 11.0532 66.6547 13.4873C68.2775 16.443 68.1615 19.7464 66.365 22.3543C64.6263 24.6725 62.0184 26.0055 59.2365 26.0055ZM59.3524 10.4157C56.8024 10.4157 54.4842 11.6327 53.1513 13.7191V13.7771C51.7024 15.7475 51.4126 18.2975 52.3979 20.6157C53.4411 22.9918 55.5274 24.6146 58.0195 24.9044C60.9172 25.368 63.8149 24.1509 65.4956 21.7748C67.1184 19.4566 67.2343 16.6168 65.7854 13.9509C64.5684 11.8066 62.3081 10.4736 59.6422 10.3577C59.5263 10.4157 59.4104 10.4157 59.3524 10.4157Z" fill="black"/>
<path d="M66.3643 22.5283C67.4655 23.3976 65.4371 25.8897 63.1768 26.817C60.8586 27.7442 56.57 27.5124 56.6859 25.6579C56.8018 24.4988 57.9029 24.8465 60.337 24.4408C64.278 23.6874 65.3211 21.717 66.3643 22.5283Z" fill="#8CC800"/>
<path d="M60.1056 27.8022C58.8306 27.8022 57.6136 27.5703 56.9181 27.0488C56.2806 26.5851 56.2227 26.0056 56.2227 25.6578C56.3386 24.4408 57.2658 24.3249 58.4829 24.209C58.9465 24.151 59.584 24.0931 60.2795 23.9772C62.192 23.6294 63.3511 22.9919 64.2204 22.4703C65.1477 21.9487 65.9011 21.5431 66.6545 22.1226C67.0602 22.4124 67.234 22.876 67.1761 23.3976C67.0022 24.7306 65.2636 26.4692 63.3511 27.2226C62.4238 27.6283 61.2647 27.8022 60.1056 27.8022ZM65.7852 22.8181C65.5534 22.8181 65.2636 22.9919 64.6261 23.2817C63.7568 23.7453 62.4238 24.4987 60.3954 24.8465C59.642 24.9624 59.0624 25.0203 58.5408 25.0783C57.2079 25.1942 57.1499 25.3101 57.1499 25.6578C57.1499 25.7738 57.1499 26.0056 57.4397 26.1794C58.4249 26.9328 61.2647 26.9328 62.9454 26.2953C64.6261 25.5999 66.017 24.0931 66.1329 23.2237C66.1909 22.9919 66.0749 22.876 66.017 22.8181C65.959 22.876 65.9011 22.8181 65.7852 22.8181Z" fill="black"/>
<path d="M60.3956 20.9056C58.0194 20.9056 55.991 19.2249 55.8171 17.1965C55.7592 16.6169 55.7012 14.5885 56.9762 13.1976C57.7296 12.3283 58.8308 11.9226 60.2797 11.9226C60.9172 11.9226 61.6126 11.9806 62.366 12.1544C63.7569 12.4442 65.0319 13.8931 65.4376 15.5158C65.7853 17.0226 65.3217 18.4135 64.1047 19.4567C62.9456 20.384 61.6706 20.9056 60.3956 20.9056Z" fill="#FA961E"/>
<path d="M60.2218 12.3861C60.8013 12.3861 61.4388 12.4441 62.1922 12.618C64.1627 13.0816 66.5388 16.6748 63.757 19.0509C62.6559 19.9782 61.4968 20.3259 60.4536 20.3259C58.3093 20.3259 56.5127 18.8191 56.3388 17.0225C56.1649 15.5157 56.5706 12.3861 60.2218 12.3861ZM60.2218 11.4589C58.657 11.4589 57.4399 11.9225 56.5706 12.9077C55.2377 14.3566 55.2377 16.443 55.2956 17.2543C55.4695 19.5725 57.7297 21.4271 60.3377 21.4271C61.7286 21.4271 63.1195 20.9055 64.2786 19.9202C65.6695 18.7611 66.1911 17.1964 65.7854 15.5157C65.3797 13.777 63.8729 12.1543 62.3661 11.8066C61.6127 11.5168 60.9172 11.4589 60.2218 11.4589Z" fill="black"/>
<path d="M62.8873 14.1249C62.4817 13.6033 61.9021 13.3135 61.2066 13.1976C60.5691 13.1397 59.9317 13.3135 59.4101 13.7192C58.8885 14.1249 58.5987 14.7045 58.4828 15.3999C58.3089 16.7329 59.2941 17.9499 60.6851 18.1238C60.801 18.1238 60.9169 18.1238 61.0328 18.1238C61.5544 18.1238 62.076 17.892 62.4816 17.6022C63.0032 17.1965 63.293 16.617 63.4089 15.9215C63.5248 15.284 63.293 14.5885 62.8873 14.1249Z" fill="black"/>
<path d="M58.2516 17.3703C58.1936 18.0078 58.5993 18.6453 59.2947 18.7033C59.9322 18.7613 60.5698 18.3556 60.6277 17.6601C60.6857 17.0226 60.28 16.3851 59.5845 16.3272C58.947 16.2692 58.3095 16.7328 58.2516 17.3703Z" fill="white"/>
<path d="M24.5809 23.8032C26.6093 14.4725 38.2002 10.4157 45.4445 16.1532C54.0798 22.9919 50.5445 37.7124 39.3013 39.509C29.9127 41.1896 22.4365 32.4964 24.5809 23.8032Z" fill="white"/>
<path d="M37.0405 40.2624C33.3894 40.2624 29.9701 38.7556 27.3621 36.0317C24.2326 32.6704 23.0155 28.092 24.1166 23.7454C25.1019 19.2249 28.3473 15.5737 32.9258 13.951C37.4462 12.3283 42.2565 13.0817 45.7917 15.8635C49.9644 19.1669 51.7031 24.6147 50.3122 30.0045C48.9212 35.3363 44.7485 39.2192 39.4167 40.0886C38.6053 40.2045 37.8519 40.2624 37.0405 40.2624ZM37.736 14.009C36.2292 14.009 34.7223 14.2408 33.2735 14.8203C29.0428 16.3272 26.0291 19.7465 25.1019 23.9192C24.1166 27.976 25.2178 32.2067 28.1155 35.3363C31.0132 38.4658 35.0701 39.7988 39.3008 39.1033C44.2269 38.292 48.1099 34.6988 49.3849 29.7147C50.7178 24.6726 49.0951 19.6306 45.2121 16.559C43.0678 14.8783 40.4599 14.009 37.736 14.009Z" fill="black"/>
<path d="M32.8668 40.2045C32.7509 42.6386 39.068 43.1602 43.0668 41.5375C47.0657 39.9147 51.5282 34.467 49.3259 33.4238C48.1668 32.8443 47.6452 34.5249 43.8782 36.6113C37.4452 40.1466 32.9827 37.8863 32.8668 40.2045Z" fill="#8CC800"/>
<path d="M37.9085 42.9283C36.0539 42.9283 34.3153 42.5805 33.33 41.8851C32.5187 41.3055 32.3448 40.6101 32.4028 40.1465C32.4607 38.6396 33.8516 38.5237 35.5903 38.4078C37.4448 38.2339 40.3425 38.0021 43.7039 36.1476C45.3846 35.2203 46.3698 34.4089 47.1232 33.8294C48.0505 33.076 48.688 32.5544 49.6153 32.9601C50.1948 33.2498 50.4846 33.7714 50.4846 34.4089C50.4267 36.6692 46.6596 40.5521 43.3562 41.943C41.6755 42.6385 39.705 42.9283 37.9085 42.9283ZM33.388 40.2044C33.388 40.5521 33.5619 40.8419 33.9096 41.1317C35.5903 42.2908 39.9369 42.2908 42.9505 41.0737C46.138 39.7987 49.4414 36.0896 49.4994 34.4089C49.4994 34.0612 49.3255 33.8874 49.2096 33.8294C48.8619 33.6555 48.6301 33.8294 47.7607 34.5828C47.0073 35.2203 45.9642 36.0317 44.2255 37.0169C40.6903 38.9874 37.6766 39.2192 35.7641 39.393C33.8516 39.509 33.388 39.6249 33.388 40.2044Z" fill="black"/>
<path d="M41.0382 2.6498C36.6916 4.73617 34.3734 9.02482 34.0256 11.343C34.0256 11.4589 33.2722 11.401 33.2722 11.2271C32.8665 8.56118 34.837 2.47594 39.8791 0.0418426C40.5745 -0.247931 41.6177 2.36003 41.0382 2.6498Z" fill="black"/>
<path d="M49.1521 2.82361C52.2816 2.18611 55.1794 3.51906 56.2805 4.6202C56.3385 4.67816 56.6862 4.33043 56.6283 4.27248C55.8169 2.7077 52.3396 0.273603 48.7464 1.02701C48.2248 1.08497 48.7464 2.93952 49.1521 2.82361Z" fill="black"/>
<path d="M40.3427 28.9611C36.9234 28.9611 34.0257 26.527 33.9098 23.5713C33.8518 22.76 33.9098 19.9781 35.6484 18.1815C36.6916 17.0804 38.1405 16.5009 39.995 16.5009C40.9802 16.5009 42.0814 16.6747 43.2405 16.9645C45.095 17.4861 46.8916 19.5725 47.2973 21.7747C47.703 23.8611 47.0075 25.7736 45.2109 27.1066C43.7041 28.3236 42.0234 28.9611 40.3427 28.9611Z" fill="#FA961E"/>
<path d="M39.9369 17.0225C40.8062 17.0225 41.8494 17.1384 43.0665 17.4861C45.9062 18.2395 49.0358 23.5713 44.921 26.8168C43.4142 27.9759 41.8494 28.4975 40.3426 28.4975C37.1551 28.4975 34.4892 26.2373 34.3733 23.5713C34.2574 21.3111 35.0108 17.0225 39.9369 17.0225ZM39.9369 16.0372C37.9665 16.0372 36.4017 16.6168 35.2426 17.8338C33.388 19.7463 33.3301 22.5282 33.388 23.5713C33.5619 26.8168 36.6335 29.4248 40.2846 29.4248C42.0812 29.4248 43.8778 28.7873 45.4426 27.5123C47.3551 26.0054 48.1665 23.9191 47.7028 21.6588C47.2392 19.2827 45.3267 17.0225 43.2983 16.4429C42.0812 16.2111 40.9801 16.0372 39.9369 16.0372Z" fill="black"/>
<path d="M44.747 19.9783C44.4572 19.1669 43.8197 18.5294 42.9504 18.2396C42.0811 17.9499 41.1538 17.9499 40.2265 18.2976C39.2993 18.6453 38.6038 19.2828 38.1981 20.0942C37.7924 20.9055 37.6765 21.7749 38.0243 22.5862C38.314 23.3976 38.9515 24.0351 39.8209 24.3249C40.2265 24.4987 40.6902 24.5567 41.0959 24.5567C41.5595 24.5567 42.0811 24.4408 42.5447 24.2669C43.472 23.9192 44.1675 23.2817 44.5731 22.4703C45.0368 21.659 45.0947 20.7896 44.747 19.9783Z" fill="black"/>
<path d="M37.3301 23.6873C37.3301 24.6146 38.0835 25.31 38.9528 25.31C39.8801 25.31 40.5755 24.5566 40.5755 23.6873C40.5755 22.76 39.8221 22.0646 38.9528 22.0646C38.0835 22.0646 37.3301 22.818 37.3301 23.6873Z" fill="white"/>
<path d="M82.187 103.839C80.1006 102.738 76.6234 102.042 71.987 98.3909C65.0324 92.9432 63.2938 80.367 66.1336 74.3397C67.6404 71.0943 69.379 66.342 67.8722 60.2568C66.4813 54.3454 63.9893 51.6795 59.7006 50.3465C54.7165 48.7817 49.8483 50.926 48.0517 55.9681C46.7188 59.7352 47.2983 63.3863 49.5006 67.7909C51.4131 71.6738 53.3835 74.2238 53.5574 80.1932C54.1949 102.39 21.9721 103.375 2.03571 103.549C0.934575 103.549 0.297074 104.766 1.10844 105.577C2.78912 107.258 7.25163 109.402 13.6266 109.518C24.696 109.692 25.1017 108.069 33.9687 107.895C42.7199 107.722 45.4438 109.46 56.5711 109.402C66.6552 109.344 77.5506 107.953 81.6654 107.374C82.5927 107.258 83.2881 106.447 83.2881 105.519C83.2302 104.824 82.8245 104.186 82.187 103.839Z" fill="#8CC800"/>
<path d="M15.017 110.272C14.5534 110.272 14.0897 110.272 13.5681 110.272C7.36699 110.214 2.55675 108.127 0.586291 106.157C0.0646986 105.635 -0.109164 104.824 0.18061 104.186C0.470383 103.433 1.22379 102.969 2.03516 102.969C14.8431 102.853 38.6046 102.68 48.3989 92.5375C51.5284 89.292 53.0353 85.1772 52.9194 80.309C52.8034 75.4988 51.4705 73.0068 49.9637 70.167C49.6159 69.5295 49.2682 68.892 48.9784 68.1965C46.6603 63.3863 46.1966 59.6192 47.5296 55.8522C49.4421 50.5783 54.5421 48.0283 60.0478 49.7669C64.7421 51.2738 67.2921 54.2874 68.683 60.1988C70.1898 66.5158 68.3933 71.5579 66.8864 74.7454C64.3364 80.1352 65.6694 92.5375 72.566 97.9273C75.8694 100.477 78.5933 101.578 80.5637 102.39C81.3751 102.738 82.0126 102.969 82.6501 103.317C83.5194 103.781 84.041 104.65 84.041 105.635C84.041 106.91 83.1137 107.953 81.8387 108.127C77.666 108.707 66.8285 110.156 56.6285 110.156C50.833 110.156 47.2398 109.692 44.0523 109.286C41.0387 108.881 38.1989 108.533 34.0261 108.649C30.1432 108.707 27.9409 109.055 25.6807 109.46C22.8988 109.866 20.2329 110.272 15.017 110.272ZM56.5705 50.5783C53.0353 50.5783 50.0216 52.6647 48.7466 56.2579C47.5296 59.6772 47.9353 63.0386 50.1375 67.559C50.4853 68.2545 50.775 68.892 51.1228 69.4715C52.6296 72.3693 54.0784 75.1511 54.2523 80.2511C54.3682 85.525 52.7455 89.9295 49.3262 93.4648C39.1261 104.013 14.959 104.244 1.9772 104.36C1.62948 104.36 1.45561 104.534 1.39766 104.708C1.3397 104.824 1.3397 104.998 1.51357 105.172C3.25221 106.91 7.71472 108.823 13.5102 108.881C19.5954 108.939 22.4932 108.533 25.275 108.069C27.5352 107.722 29.8534 107.316 33.8523 107.258C38.1409 107.142 41.0386 107.548 44.1102 107.895C47.4137 108.301 50.833 108.765 56.5126 108.707C66.5967 108.649 77.3762 107.258 81.491 106.678C82.0706 106.62 82.4762 106.099 82.4762 105.519C82.4762 105.056 82.2444 104.65 81.8387 104.476C81.3171 104.186 80.6217 103.955 79.8683 103.607C77.7819 102.795 75.0001 101.636 71.5228 98.9705C63.9887 93.117 62.6557 80.0193 65.4376 74.1079C67.0023 70.8045 68.5671 66.284 67.1762 60.4886C65.8432 55.0408 63.6989 52.4329 59.4682 51.0999C58.541 50.7522 57.4978 50.5783 56.5705 50.5783Z" fill="black"/>
<path d="M48.2826 77.0056C53.3247 85.6409 50.0213 93.9284 45.3849 97.1159C44.1099 97.9852 39.1837 99.9557 39.1837 99.9557C39.1837 99.9557 36.0542 102.158 29.6212 102.738C24.9269 103.201 20.5803 101.405 16.5814 97.3477C11.945 92.5954 8.69959 79.0341 20.4064 71.2102C30.2587 64.6613 42.719 67.5011 48.2826 77.0056Z" fill="#E62828"/>
<path d="M44.0516 76.9477C43.8777 76.9477 43.6459 76.8897 43.53 76.7159C40.6323 73.2386 36.2857 71.3261 31.3595 71.384C30.9538 71.384 30.6641 71.0943 30.6641 70.6886C30.6641 70.2829 30.9538 69.9931 31.3595 69.9931C36.7493 69.9352 41.4436 72.0215 44.6311 75.8465C44.863 76.1363 44.863 76.6 44.5732 76.8318C44.3414 76.8897 44.2255 76.9477 44.0516 76.9477Z" fill="#FF5A5A"/>
<path d="M19.9443 76.8897C19.7125 76.8897 19.4807 76.7738 19.3648 76.542C17.3363 73.2385 14.3227 71.326 10.7875 71.0942C10.3818 71.0942 10.092 70.7465 10.15 70.3408C10.15 69.9351 10.4977 69.6454 10.9034 69.7033C14.9022 69.9351 18.3216 72.1374 20.5818 75.7885C20.7557 76.1363 20.6977 76.542 20.35 76.7158C20.1761 76.8317 20.0602 76.8897 19.9443 76.8897Z" fill="black"/>
<path d="M28.8105 103.317C24.1162 103.317 18.7843 101.694 14.7275 95.8988C11.8877 91.784 10.9605 86.7999 12.1196 81.8738C13.3946 76.6579 16.8718 72.1954 21.74 69.5874C28.9844 65.7044 40.1117 65.9942 46.1969 73.1806C50.6594 78.4545 53.6151 87.5533 47.2401 95.8409C47.0083 96.1306 46.5446 96.1886 46.2549 95.9568C45.9651 95.725 45.9071 95.2613 46.139 94.9715C52.0503 87.3795 49.5003 79.2079 45.1537 74.0499C39.5321 67.3851 29.1582 67.1533 22.4355 70.8044C17.915 73.2385 14.6696 77.4113 13.5105 82.1636C12.4093 86.684 13.2787 91.2624 15.8866 95.0875C21.6821 103.491 30.5491 102.332 35.3014 100.941C41.2128 99.2022 43.6469 92.8272 43.0094 87.4954C42.4878 82.917 39.5901 77.8749 32.9253 77.4692C28.0571 77.1795 23.7105 81.4102 23.2469 85.2931C22.9571 87.7852 24.29 90.567 26.5503 92.0159C27.7673 92.8272 30.3173 93.8704 33.5048 92.0159C34.6639 91.3204 35.4753 90.1613 35.7651 88.8283C35.9969 87.6113 35.7651 86.4522 35.1276 85.5249C34.3162 84.4238 33.1571 83.9022 32.056 84.2499C31.0128 84.5397 30.2594 85.3511 30.2014 86.3363C30.1435 86.742 29.7957 86.9738 29.448 86.9738C29.0423 86.9158 28.8105 86.5681 28.8105 86.2204C28.9844 84.6556 30.1435 83.3227 31.7082 82.917C33.3889 82.4533 35.1276 83.1488 36.2867 84.7136C37.156 85.9306 37.5037 87.5533 37.2139 89.1181C36.8662 90.8568 35.823 92.3056 34.3162 93.2329C31.5344 94.9136 28.4628 94.8556 25.9128 93.2329C23.1889 91.4363 21.6241 88.2488 21.9719 85.1772C22.5514 80.5988 27.4196 75.7885 33.1571 76.1363C39.3583 76.542 43.8208 80.9465 44.5162 87.3795C45.2117 93.2909 42.4299 100.361 35.823 102.332C33.8526 102.853 31.4764 103.317 28.8105 103.317Z" fill="black"/>
<path fill-rule="evenodd" clip-rule="evenodd" d="M25.9711 67.8487C27.8257 63.734 25.9711 58.6339 25.6814 58.6919C25.2177 58.7499 21.3348 59.9669 18.7848 62.2851C15.6552 65.0669 14.9597 69.2396 17.9734 70.5147C22.1461 72.2533 24.6961 70.8044 25.9711 67.8487Z" fill="#B4E100"/>
<path d="M21.3345 71.7317C20.3493 71.7317 19.1902 71.4999 17.7993 70.9203C16.6402 70.3987 15.8288 69.4714 15.655 68.2544C15.3072 66.2839 16.4663 63.7919 18.4947 61.8794C21.1606 59.5032 25.1595 58.2862 25.6232 58.1703C25.7391 58.1703 25.9709 58.1703 26.2027 58.4021C26.7822 59.1555 28.2891 64.0237 26.4925 67.9646C25.6232 69.8771 24.0584 71.7317 21.3345 71.7317ZM25.5072 59.2135C24.522 59.5032 21.2766 60.6623 19.1322 62.5748C17.3356 64.1976 16.2925 66.3998 16.5822 68.0226C16.7561 68.9499 17.2777 69.5874 18.147 69.993C21.6822 71.4999 24.1743 70.6885 25.5652 67.6169C27.072 64.2555 25.9129 60.1987 25.5072 59.2135Z" fill="black"/>
<path d="M31.5929 78.8022C31.3611 78.8022 31.1872 78.6284 31.1293 78.3965C31.0713 77.9909 30.9554 77.5272 30.8974 77.0636C30.7236 75.9624 30.4918 74.6874 30.202 73.7602C30.144 73.5284 30.2599 73.2386 30.5497 73.1806C30.7815 73.1227 31.0713 73.2386 31.1293 73.5284C31.419 74.5136 31.6509 75.7886 31.8247 76.8897C31.8827 77.3534 31.9986 77.817 32.0565 78.2227C32.1145 78.5125 31.9406 78.7443 31.6509 78.8022C31.6509 78.8022 31.6509 78.8022 31.5929 78.8022Z" fill="black"/>
<path d="M28.4049 79.6136C28.2311 79.6136 28.0572 79.4977 27.9992 79.3238C27.5936 78.5125 26.7242 76.9477 26.2027 76.2522C26.0288 76.0204 26.0867 75.7306 26.3186 75.5568C26.5504 75.3829 26.8402 75.4409 27.014 75.6727C27.5356 76.4261 28.4629 77.9909 28.8686 78.8602C28.9845 79.092 28.8686 79.3818 28.6367 79.4977C28.5208 79.5557 28.4629 79.6136 28.4049 79.6136Z" fill="black"/>
<path d="M40.9805 83.4966C40.8066 83.4966 40.6327 83.3807 40.5748 83.2068C40.4589 82.975 40.5748 82.6852 40.8066 82.5693C41.3861 82.2795 42.2555 81.8159 43.0668 81.3522C43.8782 80.8886 44.7475 80.425 45.3271 80.1352C45.5589 80.0193 45.8486 80.1352 45.9646 80.367C46.0805 80.5988 45.9646 80.8886 45.7327 81.0045C45.1532 81.2943 44.2839 81.7579 43.4725 82.2216C42.6611 82.6852 41.7918 83.1488 41.2123 83.4386C41.1543 83.4386 41.0964 83.4966 40.9805 83.4966Z" fill="black"/>
<path d="M19.306 68.4283C19.248 68.4283 19.1901 68.4283 19.0742 68.3703C18.8423 68.2544 18.7264 67.9646 18.8423 67.7328C18.9003 67.559 20.7549 63.8499 23.131 61.8214C23.3049 61.6476 23.6526 61.6476 23.8264 61.8794C24.0003 62.0533 24.0003 62.401 23.7685 62.5749C21.5662 64.4874 19.7696 68.1385 19.7117 68.1965C19.6537 68.3124 19.4798 68.4283 19.306 68.4283Z" fill="black"/>
<g opacity="0.6">
<g opacity="0.6">
<g opacity="0.6">
<g opacity="0.6">
<path opacity="0.6" d="M59.5838 53.8238C59.4679 53.8238 59.352 53.7658 59.2361 53.7079C58.3667 53.1863 57.3235 52.9544 56.2804 53.0704C55.8747 53.1283 55.527 52.8385 55.527 52.4908C55.469 52.0851 55.7588 51.7374 56.1065 51.7374C57.4395 51.5635 58.7724 51.8533 59.9315 52.5488C60.2792 52.7226 60.3951 53.1863 60.1633 53.476C60.0474 53.7079 59.8156 53.8238 59.5838 53.8238Z" fill="#B4E100"/>
</g>
</g>
</g>
</g>
<path d="M37.6203 82.5693C37.4465 82.5693 37.2146 82.5113 37.0987 82.3375C36.3453 81.5261 34.9544 80.8886 33.6214 80.7727C33.2158 80.7727 32.926 80.425 32.9839 80.0193C32.9839 79.6136 33.3317 79.3238 33.7374 79.3818C35.418 79.4977 37.1567 80.309 38.1419 81.4102C38.3737 81.7 38.3737 82.1057 38.084 82.3954C37.9681 82.5113 37.7942 82.5693 37.6203 82.5693Z" fill="#FF5A5A"/>
<path d="M76.5651 105.172C76.5071 105.172 76.3912 105.172 76.3333 105.114C73.4935 104.071 71.1753 102.796 69.8423 101.463C69.5526 101.173 69.5526 100.767 69.8423 100.477C70.1321 100.188 70.5378 100.188 70.8276 100.477C72.0446 101.636 74.1889 102.796 76.8548 103.781C77.2026 103.897 77.3764 104.302 77.2605 104.65C77.1446 104.998 76.8548 105.172 76.5651 105.172Z" fill="#B4E100"/>
<path d="M40.1108 88.8864C39.937 88.8864 39.7631 88.8284 39.5892 88.6546C39.4733 88.5387 39.3574 88.3648 39.3574 88.133C39.3574 88.075 39.3574 88.0171 39.3574 88.0171C39.3574 87.9591 39.3574 87.9591 39.4154 87.9012C39.4154 87.8432 39.4733 87.8432 39.4733 87.7853C39.4733 87.7273 39.5313 87.7273 39.5313 87.6693C39.8211 87.4375 40.2267 87.4375 40.5165 87.6693C40.5745 87.7273 40.5745 87.7273 40.5745 87.7853C40.5745 87.8432 40.6324 87.8432 40.6324 87.9012C40.6324 87.9591 40.6904 87.9591 40.6904 88.0171C40.6904 88.075 40.6904 88.133 40.6904 88.133C40.6904 88.3069 40.6324 88.4807 40.5165 88.6546C40.4586 88.8284 40.2847 88.8864 40.1108 88.8864Z" fill="black"/>
<path d="M38.6048 100.825C38.431 100.825 38.1991 100.767 38.0832 100.593C37.8514 100.304 37.8514 99.8399 38.1412 99.6081C39.9957 98.0433 41.3287 97.6376 42.4878 97.2899C43.7048 96.9422 44.6901 96.6524 46.1969 94.9138C46.4287 94.624 46.8923 94.624 47.1821 94.8558C47.4719 95.0876 47.4719 95.5513 47.2401 95.8411C45.5014 97.8115 44.2264 98.2172 42.8935 98.6229C41.7923 98.9706 40.6912 99.2604 39.0685 100.651C38.9526 100.767 38.7787 100.825 38.6048 100.825Z" fill="black"/>
<path d="M61.7285 55.9102C61.7285 55.9102 65.0899 56.2 66.4228 53.0705C67.8717 49.5932 72.1604 55.0409 70.4217 56.258C69.7842 56.7216 65.4376 57.7648 65.0319 61.1262" fill="#8CC800"/>
<path d="M65.0323 61.8216C64.9743 61.8216 64.9743 61.8216 64.9164 61.8216C64.5107 61.7637 64.2789 61.4159 64.3368 61.0103C64.7425 57.9387 67.93 56.6057 69.4368 55.9682C69.6687 55.8523 69.9584 55.7364 70.0743 55.6784C70.3062 55.5625 70.1903 55.0989 70.1323 54.925C69.8425 53.8239 68.6834 52.6648 67.93 52.6068C67.8141 52.6068 67.4664 52.5489 67.1187 53.3023C65.9016 56.1421 63.0618 56.6637 61.7289 56.5477C61.3232 56.4898 61.0334 56.2 61.0914 55.7943C61.1493 55.3886 61.4391 55.1568 61.8448 55.1568C61.9607 55.1568 64.7425 55.3307 65.8436 52.7227C66.4812 51.2739 67.4664 51.158 67.988 51.158C69.4948 51.2739 71.0016 53.0125 71.4653 54.4614C71.755 55.4466 71.5232 56.258 70.8857 56.7216C70.7118 56.8375 70.4221 56.9534 70.0164 57.1273C68.6255 57.7068 66.0755 58.808 65.7857 61.0682C65.6698 61.5318 65.38 61.8216 65.0323 61.8216Z" fill="black"/>
<path d="M75.5254 49.1883C76.1656 49.1863 76.6834 48.8214 76.682 48.3733C76.6806 47.9252 76.1606 47.5635 75.5204 47.5655C74.8803 47.5675 74.3624 47.9324 74.3638 48.3805C74.3652 48.8286 74.8853 49.1902 75.5254 49.1883Z" fill="black"/>
<path d="M75.5225 49.6511C74.5952 49.6511 73.8418 49.0715 73.8418 48.376C73.8418 48.0283 74.0157 47.6226 74.4213 47.3908C74.7111 47.159 75.1168 47.0431 75.5225 47.0431C76.4498 47.0431 77.2032 47.6226 77.2032 48.3181C77.2032 48.6658 77.0293 49.0715 76.6236 49.3033C76.3338 49.5351 75.9861 49.6511 75.5225 49.6511ZM75.5225 48.0283C75.2907 48.0283 75.1168 48.0863 74.9429 48.2022C74.885 48.2601 74.827 48.3181 74.827 48.376C74.827 48.492 75.1168 48.7238 75.5225 48.7238C75.7543 48.7238 75.9282 48.6658 76.102 48.5499C76.16 48.492 76.2179 48.434 76.2179 48.376C76.2759 48.2601 75.9861 48.0283 75.5225 48.0283Z" fill="black"/>
<path d="M74.3616 48.7818C74.0718 48.7818 73.898 48.55 73.898 48.3182V45.1886C73.4343 45.3045 72.7389 45.3045 71.9275 44.8989C71.6957 44.783 71.5798 44.4932 71.7536 44.2614C71.8695 44.0295 72.1593 43.9136 72.3911 44.0875C73.4343 44.667 74.0139 44.1454 74.0718 44.1454C74.1877 44.0295 74.4196 44.0295 74.5934 44.0875C74.7673 44.1455 74.8832 44.3193 74.8832 44.4932V48.3761C74.8252 48.55 74.6514 48.7239 74.3616 48.7818Z" fill="black"/>
<path d="M81.8418 45.595C82.482 45.593 82.9998 45.2282 82.9984 44.78C82.997 44.3319 82.477 43.9703 81.8368 43.9723C81.1967 43.9742 80.6789 44.3391 80.6802 44.7872C80.6816 45.2353 81.2017 45.597 81.8418 45.595Z" fill="black"/>
<path d="M81.8389 46.1158C80.9116 46.1158 80.1582 45.5362 80.1582 44.8408C80.1582 44.493 80.3321 44.0874 80.7377 43.8555C81.0275 43.6237 81.4332 43.5078 81.8389 43.5078C82.7662 43.5078 83.5196 44.0874 83.5196 44.7828C83.5196 45.1305 83.3457 45.5362 82.94 45.768C82.6503 45.9999 82.2446 46.1158 81.8389 46.1158ZM81.8389 44.4351C81.6071 44.4351 81.4332 44.493 81.2593 44.609C81.2014 44.6669 81.1434 44.7249 81.1434 44.7828C81.1434 44.8987 81.3753 45.1305 81.8389 45.1305C82.0707 45.1305 82.2446 45.0726 82.4184 44.9567C82.4764 44.8987 82.5343 44.8408 82.5343 44.7828C82.5343 44.6669 82.3025 44.4351 81.8389 44.4351Z" fill="black"/>
<path d="M80.68 45.1884C80.3902 45.1884 80.2163 44.9566 80.2163 44.7248V41.5952C79.7527 41.7112 79.0572 41.7112 78.2459 41.3055C78.014 41.1896 77.8981 40.8998 78.072 40.668C78.1879 40.4362 78.4777 40.3202 78.7095 40.4941C79.7527 41.0737 80.3322 40.5521 80.3902 40.5521C80.5061 40.4362 80.7379 40.4362 80.9118 40.4941C81.0856 40.5521 81.2015 40.7259 81.2015 40.8998V44.7828C81.1436 44.9566 80.9118 45.1884 80.68 45.1884Z" fill="black"/>
<path d="M75.4082 37.5394C76.0484 37.5375 76.5662 37.1726 76.5648 36.7245C76.5634 36.2764 76.0434 35.9147 75.4032 35.9167C74.7631 35.9187 74.2453 36.2835 74.2466 36.7317C74.248 37.1798 74.7681 37.5414 75.4082 37.5394Z" fill="black"/>
<path d="M75.4053 38.0022C74.9996 38.0022 74.5939 37.8863 74.3042 37.6545C73.9564 37.4227 73.7246 37.0749 73.7246 36.6693C73.7246 36.3215 73.8985 35.9158 74.3042 35.684C74.5939 35.4522 74.9996 35.3363 75.4053 35.3363C76.3326 35.3363 77.086 35.9158 77.086 36.6113C77.086 36.959 76.9121 37.3647 76.5064 37.5965C76.2167 37.8863 75.8689 38.0022 75.4053 38.0022ZM75.4632 36.3795C75.2314 36.3795 75.0576 36.4374 74.8837 36.5534C74.8257 36.6113 74.7678 36.6693 74.7678 36.7272C74.7678 36.7852 74.8257 36.8431 74.8837 36.9011C74.9996 37.017 75.2314 37.0749 75.4632 37.0749C75.6951 37.0749 75.8689 37.017 76.0428 36.9011C76.1008 36.8431 76.1587 36.7852 76.1587 36.7272C76.1587 36.6113 75.8689 36.3795 75.4632 36.3795Z" fill="black"/>
<path d="M74.2464 37.1329C73.9566 37.1329 73.7827 36.9011 73.7827 36.6693V33.5397C73.3191 33.6556 72.6236 33.6556 71.8123 33.2499C71.5804 33.134 71.4645 32.8443 71.6384 32.6124C71.7543 32.3806 72.0441 32.2647 72.2759 32.4386C73.3191 33.0181 73.8986 32.4965 73.9566 32.4965C74.0725 32.3806 74.3043 32.3806 74.4782 32.4386C74.652 32.4965 74.768 32.6704 74.768 32.8443V36.7272C74.71 36.9011 74.5361 37.1329 74.2464 37.1329Z" fill="black"/>
<path d="M69.2316 55.3524C69.5109 55.1381 69.4057 54.532 68.9965 53.9987C68.5874 53.4654 68.0293 53.2068 67.7499 53.4212C67.4706 53.6355 67.5758 54.2415 67.985 54.7748C68.3941 55.3081 68.9522 55.5667 69.2316 55.3524Z" fill="black"/>
</svg>
