<svg width="103" height="123" viewBox="0 0 103 123" fill="none" xmlns="http://www.w3.org/2000/svg">
<path d="M57.4048 54.5865C57.2131 54.572 57.0261 54.4937 56.844 54.3514C53.8453 51.4899 53.0536 48.3446 52.3609 45.5925C51.6235 42.5799 50.985 39.9604 47.5161 38.2206C47.147 38 46.989 37.5381 47.2096 37.169C47.4303 36.7999 47.8922 36.6418 48.2613 36.8625C52.3501 38.9061 53.0827 41.9826 53.9335 45.1966C54.631 47.8848 55.3238 50.637 57.9582 53.2139C58.2586 53.4936 58.284 54.0098 58.0042 54.3102C57.798 54.4875 57.5966 54.6009 57.4048 54.5865Z" fill="black"/>
<path d="M62.9006 56.7361C62.5171 56.7072 62.2167 56.4275 62.1177 56.0343C61.4595 50.2634 63.6371 46.956 65.746 43.7078C68.2865 39.8492 70.9694 35.8085 69.0624 26.9865C68.9634 26.5933 69.2528 26.1651 69.646 26.0661C70.0391 25.9672 70.4673 26.2566 70.5663 26.6497C72.553 36.1206 69.6399 40.6582 67.0306 44.5759C64.9953 47.7012 63.0383 50.6394 63.6759 55.8302C63.7062 56.2825 63.4216 56.6468 62.9693 56.677C62.9645 56.7409 62.9645 56.7409 62.9006 56.7361Z" fill="black"/>
<path d="M60.8871 15.1852C64.1487 10.288 71.5636 10.8465 74.1622 15.6064C77.5498 21.8399 72.1272 28.1171 65.9062 27.0701C60.3099 26.2629 57.5361 19.5613 60.8871 15.1852Z" fill="white"/>
<path d="M67.2094 27.6831C66.762 27.6494 66.3145 27.6157 65.8671 27.582C63.005 27.1736 60.6372 25.3238 59.5514 22.6707C58.4655 20.0175 58.8148 17.0868 60.5222 14.9011C62.1162 12.5141 64.8574 11.1134 67.8026 11.2709C70.7478 11.4284 73.3363 12.9091 74.6923 15.3897C76.2703 18.3371 76.1526 21.6067 74.2836 24.2302C72.5762 26.4158 69.9725 27.6983 67.2094 27.6831ZM67.4699 12.2744C64.9625 12.2784 62.688 13.4571 61.3786 15.4799L61.3738 15.5438C59.8822 17.4243 59.6257 19.9763 60.5487 22.2315C61.5308 24.5554 63.5934 26.1893 66.0128 26.5001C68.8061 26.9676 71.7198 25.8371 73.3729 23.5187C75.0213 21.2643 75.1052 18.4422 73.6949 15.8289C72.5705 13.6871 70.2921 12.3584 67.7256 12.2937C67.5977 12.284 67.5338 12.2792 67.4699 12.2744Z" fill="black"/>
<path d="M74.5686 23.8665C75.8435 24.8625 73.5127 27.644 70.933 28.6069C68.3486 29.6337 63.4906 29.2678 63.7085 27.2271C63.8687 25.9535 65.0592 26.3646 67.7969 25.8636C72.1567 25.1634 73.3527 22.9392 74.5686 23.8665Z" fill="#8CC800"/>
<path d="M67.4436 29.6934C66.0325 29.6514 64.6358 29.4177 63.8481 28.7798C63.1787 28.2794 63.0351 27.6257 63.0688 27.1783C63.2338 25.8407 64.271 25.726 65.6326 25.5714C66.1488 25.546 66.8616 25.4711 67.6431 25.3371C69.791 24.9846 71.132 24.2499 72.1342 23.7468C73.2051 23.1846 74.0106 22.731 74.8574 23.4376C75.2808 23.7909 75.5028 24.2576 75.3907 24.892C75.1521 26.3526 73.2035 28.3272 71.0858 29.132C70.0932 29.5073 68.7268 29.7258 67.4436 29.6934ZM73.8999 24.2012C73.6442 24.1819 73.3102 24.3496 72.6373 24.7489C71.6351 25.252 70.1566 26.1049 67.8121 26.5069C66.9667 26.6361 66.2539 26.711 65.7377 26.7364C64.2483 26.8814 64.1795 26.9405 64.1506 27.324C64.141 27.4519 64.1218 27.7076 64.4908 27.9282C65.5837 28.7819 68.7303 28.826 70.6514 28.0707C72.5086 27.3106 74.1775 25.6364 74.3137 24.6823C74.3329 24.4267 74.2786 24.294 74.1508 24.2844C74.0917 24.2156 74.0278 24.2108 73.8999 24.2012Z" fill="black"/>
<path d="M63.0631 19.593C63.2637 22.0509 66.7917 23.8594 69.6738 21.4408C72.2122 19.3178 70.1421 16.0762 68.3764 15.6218C63.5122 14.4841 62.9278 17.9757 63.0631 19.593Z" fill="#FA961E"/>
<path d="M66.5904 15.4225C67.1066 15.3971 67.677 15.5044 68.3706 15.6852C70.1363 16.1396 72.2064 19.3811 69.668 21.5042C68.7057 22.3317 67.6541 22.6382 66.6904 22.6299C64.7632 22.6133 63.1287 21.2689 63.0573 19.6564C62.9763 18.1717 63.3798 15.3736 66.5904 15.4225ZM66.6083 14.331C65.1924 14.353 64.0033 14.7777 63.1688 15.6148C61.9075 16.9984 61.8957 18.8618 61.9658 19.6384C62.0757 20.7396 62.5788 21.7417 63.4895 22.4531C64.4002 23.1646 65.5267 23.5708 66.6822 23.5936C67.9654 23.6259 69.2872 23.1469 70.387 22.2012C71.6881 21.142 72.1872 19.6368 71.8553 18.069C71.4642 16.4324 70.0999 14.9154 68.649 14.549C67.8867 14.4273 67.2475 14.3792 66.6083 14.331Z" fill="black"/>
<path d="M68.9289 17.6561C68.5791 17.1797 68.0231 16.8807 67.4478 16.8374C66.8725 16.7941 66.2827 16.9425 65.8064 17.2924C65.3301 17.6422 65.031 18.1982 64.9877 18.7735C64.8323 19.9832 65.7141 21.0782 66.9238 21.2336C67.0517 21.2432 67.1795 21.2528 67.2435 21.2577C67.6957 21.2274 68.1576 21.0693 68.5652 20.7786C69.0416 20.4288 69.3406 19.8727 69.3839 19.2974C69.4959 18.663 69.3427 18.1372 68.9289 17.6561Z" fill="black"/>
<path d="M64.4595 17.2548C64.3571 17.7614 64.7117 18.1738 65.2183 18.2762C65.7248 18.3787 66.1373 18.024 66.2397 17.5175C66.3421 17.0109 65.9875 16.5985 65.4809 16.4961C64.9743 16.3936 64.5619 16.7483 64.4595 17.2548Z" fill="white"/>
<path d="M66.9444 6.44887C70.3385 7.47589 72.5014 10.3387 73.0203 11.9849C73.0794 12.0536 73.6004 11.9643 73.5461 11.8316C73.5674 9.84043 71.4417 5.63043 67.482 4.43225C66.9803 4.26589 66.4379 6.34644 66.9444 6.44887Z" fill="black"/>
<path d="M92.6265 109.311C90.2745 108.105 86.4138 107.3 81.1909 103.242C73.3542 97.1881 71.3993 83.0269 74.5448 76.2568C75.701 73.7082 77.0524 70.2743 77.1096 66.1001C78.8473 64.3667 79.93 61.9412 79.9404 59.242C79.8925 53.9028 75.5838 49.657 70.2445 49.7049C69.7284 49.7303 69.2121 49.7557 68.6911 49.845C68.1894 49.6787 67.7564 49.4532 67.1907 49.282C61.6028 47.5112 56.1445 49.993 54.1132 55.6256C52.6401 59.8217 53.2957 63.921 55.752 68.863C57.8681 73.2009 60.095 76.0686 60.2975 82.7694C61.0553 107.705 24.8966 108.967 2.50735 109.209C1.21928 109.241 0.538085 110.604 1.43433 111.507C3.34986 113.387 8.37829 115.759 15.5073 115.846C27.902 116.008 28.4252 114.183 38.3414 113.965C48.1297 113.738 51.2006 115.641 63.7424 115.557C75.0601 115.509 87.3339 113.862 91.8854 113.176C92.9274 112.998 93.698 112.156 93.7111 111.128C93.8328 110.366 93.3695 109.688 92.6265 109.311Z" fill="#8CC800"/>
<path d="M17.5632 116.706C16.9192 116.722 16.2751 116.738 15.572 116.685C8.57082 116.608 3.21314 114.34 1.00207 112.116C0.406178 111.493 0.213072 110.643 0.526527 109.895C0.844795 109.083 1.66 108.502 2.62364 108.51C16.9697 108.369 43.6754 108.002 54.6258 96.6123C58.1155 92.9538 59.8141 88.3247 59.6432 82.9119C59.4675 77.5631 58.0077 74.7532 56.262 71.4718C55.8627 70.7989 55.5321 70.0668 55.1424 69.2661C52.4593 63.9212 51.946 59.6398 53.4879 55.3846C55.6072 49.4372 61.35 46.5912 67.5036 48.5331C67.9414 48.6947 68.3792 48.8562 68.8171 49.0178C69.2742 48.9236 69.7903 48.8982 70.2378 48.9319C75.9606 48.9129 80.6287 53.5072 80.7117 59.2348C80.7013 61.934 79.7416 64.4331 77.9208 66.4173C77.79 70.7145 76.365 74.2714 75.292 76.5691C73.8272 79.8016 73.5108 84.8563 74.5512 89.8202C75.7401 95.3739 78.2892 99.9373 81.6907 102.572C85.3974 105.422 88.4525 106.681 90.7008 107.558C91.5764 107.881 92.3882 108.199 93.0672 108.571C94.0563 109.096 94.6233 110.103 94.6054 111.194C94.5634 112.605 93.5722 113.817 92.1419 114.03C87.4625 114.706 75.3165 116.363 63.871 116.401C57.3764 116.426 53.2998 115.926 49.7346 115.465C46.3612 115.018 43.1748 114.65 38.4748 114.746C34.0944 114.866 31.6859 115.263 29.0857 115.646C26.1515 116.196 23.222 116.683 17.5632 116.706ZM63.6359 49.5276C59.6487 49.5487 56.3192 51.9336 54.8605 55.938C53.4801 59.7554 53.9632 63.5845 56.4786 68.5953C56.8731 69.3321 57.2037 70.0641 57.603 70.7371C59.3487 74.0185 60.981 77.0985 61.1279 82.8309C61.329 88.6959 59.4737 93.6989 55.7042 97.6578C50.8205 102.754 42.8514 106.14 31.3254 108.1C21.6277 109.684 11.3871 109.941 2.57204 110.049C2.1885 110.02 1.97748 110.261 1.89912 110.448C1.82557 110.571 1.81112 110.763 2.05236 110.974C4.027 112.923 9.0747 115.039 15.5645 115.077C22.4378 115.145 25.6278 114.614 28.749 114.142C31.2853 113.754 33.8903 113.308 38.3346 113.192C43.1673 113.042 46.4128 113.479 49.8502 113.931C53.5432 114.402 57.3641 114.882 63.7948 114.853C75.1124 114.805 87.1945 113.143 91.8739 112.467C92.5227 112.388 93.0135 111.846 93.0025 111.138C93.041 110.627 92.7551 110.155 92.2582 109.925C91.6382 109.621 90.8904 109.308 90.0787 108.989C87.7713 108.044 84.5883 106.776 80.6995 103.783C76.9337 100.864 74.2121 96.0303 72.9882 90.0882C71.8488 84.7311 72.1845 79.4208 73.8012 75.8783C74.9478 73.4576 76.2257 70.1467 76.2781 66.0365L76.3022 65.7168L76.5132 65.4756C78.1821 63.8013 79.1225 61.5579 79.1088 59.1783C79.0911 54.2914 75.0779 50.3893 70.2549 50.4117C69.8026 50.442 69.2865 50.4674 68.8294 50.5615L68.6328 50.611L68.4459 50.5326C68.008 50.3711 67.5063 50.2047 67.0684 50.0432C65.8732 49.696 64.7274 49.5455 63.6359 49.5276Z" fill="black"/>
<path d="M54.4553 79.2428C60.1543 88.929 56.4278 98.291 51.2761 101.824C49.8519 102.81 44.349 105.031 44.349 105.031C44.349 105.031 40.8229 107.466 33.6313 108.21C28.3862 108.715 23.5207 106.741 18.9755 102.22C13.7802 96.9434 10.0438 81.6838 23.1811 72.8376C34.2166 65.4403 48.2532 68.5545 54.4553 79.2428Z" fill="#E62828"/>
<path d="M49.7005 79.2066C49.5087 79.1921 49.2579 79.109 49.0805 78.9027C45.7753 74.9896 40.9194 72.8882 35.3884 72.9217C34.9361 72.9519 34.5766 72.6034 34.6103 72.156C34.5801 71.7037 34.9286 71.3442 35.3761 71.3779L35.44 71.3827C41.4232 71.3191 46.7122 73.6459 50.249 77.8979C50.5446 78.2416 50.5061 78.753 50.1672 78.9846C50.0936 79.1076 49.8923 79.221 49.7005 79.2066Z" fill="#FF5A5A"/>
<path d="M22.6356 79.225C22.3799 79.2057 22.1291 79.1226 21.9565 78.8524C19.7284 75.149 16.2883 73.0257 12.3204 72.7911C11.8729 72.7574 11.5774 72.4138 11.6111 71.9663C11.6448 71.5188 11.9884 71.2233 12.4359 71.257C16.9152 71.53 20.7835 73.9428 23.3663 78.0586C23.5979 78.3975 23.4955 78.904 23.0927 79.1308C22.96 79.1851 22.8322 79.1755 22.6356 79.225Z" fill="black"/>
<path d="M32.8115 108.855C31.5874 108.891 30.245 108.79 28.9762 108.566C24.0288 107.679 19.9242 104.991 16.9132 100.586C13.6609 95.9698 12.6686 90.3666 13.9232 84.8041C15.3249 78.9955 19.2402 73.9547 24.673 70.9568C28.8926 68.7032 34.1123 67.682 39.0838 68.2493C44.3748 68.8406 49.0149 71.2472 52.1477 74.8902C55.0982 78.3909 56.9683 82.5816 57.4273 86.7304C57.902 91.5232 56.5182 96.2403 53.3831 100.311C53.0986 100.676 52.6463 100.706 52.282 100.421C51.9177 100.137 51.8875 99.6844 52.1721 99.3201C58.7317 90.75 55.8851 81.6001 50.9839 75.8311C44.6051 68.3437 32.9823 68.1755 25.4125 72.2339C20.3186 75.0002 16.6879 79.6767 15.4477 85.0475C14.2268 90.1626 15.1888 95.3135 18.1504 99.5222C24.7092 108.887 34.6385 107.642 39.9703 105.987C46.5502 103.975 49.3362 96.8566 48.6285 90.8891C48.05 85.7671 44.7469 80.1184 37.2584 79.683C31.7563 79.3329 26.8919 84.1736 26.3727 88.5059C26.0331 91.3088 27.6015 94.384 30.1115 96.0516C31.524 96.9294 34.3234 98.1688 37.8942 95.9949C39.1761 95.1914 40.1082 93.9117 40.4107 92.4559C40.7035 91.128 40.4211 89.7567 39.6624 88.7353C38.7311 87.4438 37.4815 86.964 36.1694 87.3151C35.0538 87.6168 34.2097 88.5818 34.064 89.6637C34.0303 90.1111 33.6227 90.4019 33.2391 90.373C32.7917 90.3393 32.501 89.9317 32.5298 89.5481C32.7237 87.8271 33.9947 86.3157 35.7687 85.8064C37.6706 85.3068 39.6088 86.0313 40.89 87.7992C41.8804 89.1595 42.2569 90.9878 41.9304 92.7632C41.5303 94.6616 40.3727 96.3744 38.6929 97.3407C35.5936 99.2287 32.1225 99.2244 29.2434 97.3362C26.1773 95.3696 24.3965 91.6999 24.8434 88.3264C25.1686 85.7153 26.6493 83.1268 28.9863 81.1171C31.456 79.0532 34.4287 77.9914 37.31 78.1441C40.9584 78.3546 44.1318 79.7507 46.3875 82.2348C48.4068 84.444 49.7291 87.372 50.118 90.7441C50.9006 97.4244 47.8011 105.291 40.3661 107.559C38.5137 108.256 35.7712 108.82 32.8115 108.855Z" fill="black"/>
<path fill-rule="evenodd" clip-rule="evenodd" d="M29.4488 69.0035C31.467 64.3984 29.4568 58.6543 29.0636 58.7533C28.5426 58.8426 24.1986 60.1868 21.366 62.802C17.8508 65.9444 17.0471 70.6409 20.4762 72.0563C25.15 74.0154 27.9743 72.3638 29.4488 69.0035Z" fill="#B4E100"/>
<path d="M24.1658 73.4264C22.9417 73.4628 21.6825 73.1108 20.246 72.5526C18.9373 72.0041 18.0555 70.9091 17.837 69.5427C17.4254 67.326 18.7287 64.5314 21.0114 62.3891C23.9767 59.7196 28.4534 58.321 28.9744 58.2317C29.107 58.1774 29.3627 58.1966 29.5991 58.4716C30.2445 59.2916 31.9544 64.756 29.9458 69.2332C29.0982 71.0979 27.9057 72.4223 26.3825 73.0148C25.6553 73.2814 24.9377 73.4202 24.1658 73.4264ZM28.8238 59.3775C27.7082 59.6792 24.1361 61.0172 21.6568 63.2091C19.6538 65.051 18.5024 67.5357 18.8151 69.3592C18.9938 70.4012 19.58 71.1525 20.5787 71.5491C21.8874 72.0977 23.0235 72.3761 24.0559 72.3253C26.1798 72.2924 27.8102 71.1295 28.8193 68.8269C30.6519 64.9793 29.3221 60.4435 28.8238 59.3775Z" fill="black"/>
<path d="M35.7856 81.3078C35.5299 81.2885 35.2838 81.1414 35.2392 80.8809C35.145 80.4238 35.0557 79.9028 34.9663 79.3818C34.7382 78.1432 34.4606 76.7081 34.2132 75.7252C34.1046 75.4598 34.3204 75.1547 34.5858 75.0461C34.8511 74.9375 35.1562 75.1534 35.2648 75.4187C35.5713 76.4703 35.8489 77.9055 36.0723 79.208C36.1616 79.729 36.2509 80.25 36.3499 80.6431C36.3946 80.9036 36.2427 81.2136 35.9182 81.2535C35.8495 81.3126 35.7856 81.3078 35.7856 81.3078Z" fill="black"/>
<path d="M32.1836 82.1939C31.9918 82.1795 31.8048 82.1011 31.6914 81.8997C31.2475 80.9663 30.222 79.2177 29.6997 78.4712C29.5272 78.2011 29.6152 77.8863 29.8214 77.7089C30.0915 77.5364 30.4063 77.6244 30.5836 77.8306C31.1651 78.6458 32.1857 80.4584 32.6936 81.3966C32.8022 81.6619 32.7142 81.9767 32.4441 82.1492C32.3114 82.2035 32.2475 82.1987 32.1836 82.1939Z" fill="black"/>
<path d="M46.3201 86.5372C46.1283 86.5228 45.9414 86.4444 45.828 86.243C45.7194 85.9777 45.8074 85.6629 46.0775 85.4904C46.7456 85.155 47.6838 84.6471 48.5581 84.1344C49.4964 83.6265 50.4346 83.1186 51.1075 82.7193C51.3728 82.6107 51.6876 82.6987 51.8601 82.9688C51.9687 83.2341 51.8807 83.5489 51.6106 83.7214C50.9425 84.0568 50.0043 84.5647 49.13 85.0774C48.1917 85.5853 47.2535 86.0932 46.5806 86.4925C46.5167 86.4877 46.384 86.542 46.3201 86.5372Z" fill="black"/>
<path d="M21.9416 69.6585C21.8777 69.6536 21.7499 69.644 21.6908 69.5753C21.4447 69.4282 21.3409 69.099 21.4241 68.8481C21.5025 68.6611 23.5509 64.5083 26.2316 62.2031C26.4378 62.0258 26.8213 62.0547 26.9986 62.2609C27.176 62.4671 27.1471 62.8506 26.9409 63.0279C24.4664 65.1558 22.418 69.3086 22.4132 69.3725C22.3348 69.5595 22.1334 69.6729 21.9416 69.6585Z" fill="black"/>
<g opacity="0.6">
<g opacity="0.6">
<g opacity="0.6">
<g opacity="0.6">
<path opacity="0.6" d="M67.0927 53.1305C66.9649 53.1209 66.837 53.1113 66.714 53.0377C65.7298 52.4493 64.5249 52.23 63.3598 52.3351C62.9076 52.3654 62.5433 52.0808 62.5083 51.6924C62.4732 51.3041 62.7626 50.8759 63.1509 50.8409C64.6452 50.632 66.1649 50.9393 67.4543 51.7435C67.8234 51.9642 67.9815 52.4261 67.7608 52.7951C67.6137 53.0412 67.3484 53.1498 67.0927 53.1305Z" fill="#B4E100"/>
</g>
</g>
</g>
</g>
<path d="M42.5378 85.5456C42.3461 85.5312 42.0952 85.448 41.977 85.3105C41.1495 84.3482 39.5309 83.6478 38.0558 83.601C37.6084 83.5673 37.3128 83.2236 37.3465 82.7761C37.3802 82.3287 37.7239 82.0332 38.1714 82.0669C40.0251 82.2065 42.0177 83.0636 43.1455 84.3057C43.4411 84.6494 43.4074 85.0968 43.1276 85.3972C42.931 85.4467 42.7344 85.4961 42.5378 85.5456Z" fill="#FF5A5A"/>
<path d="M86.3449 110.765C86.281 110.76 86.1531 110.75 86.0892 110.746C82.8966 109.605 80.3081 108.124 78.8112 106.662C78.5108 106.382 78.4854 105.866 78.7652 105.565C79.0449 105.265 79.5611 105.24 79.8615 105.519C81.2402 106.845 83.5874 108.114 86.5883 109.24C86.9622 109.397 87.1841 109.864 87.0274 110.238C87.0033 110.557 86.6693 110.725 86.3449 110.765Z" fill="#B4E100"/>
<path d="M45.3474 92.635C45.2835 92.6302 45.2196 92.6254 45.2196 92.6254C45.1556 92.6206 45.0917 92.6158 45.0917 92.6158C45.0278 92.6109 45.0326 92.547 44.9687 92.5422C44.9048 92.5374 44.9096 92.4735 44.8457 92.4687C44.7866 92.3999 44.7866 92.3999 44.7274 92.3312C44.7323 92.2673 44.6683 92.2625 44.6732 92.1985C44.678 92.1346 44.614 92.1298 44.6189 92.0659C44.6237 92.002 44.6285 91.938 44.6285 91.938C44.6333 91.8741 44.6381 91.8102 44.6381 91.8102C44.6429 91.7463 44.6477 91.6823 44.6477 91.6823C44.6526 91.6184 44.7165 91.6232 44.7213 91.5593C44.7261 91.4954 44.79 91.5002 44.7948 91.4363C45.0011 91.259 45.2664 91.1504 45.5172 91.2336C45.5812 91.2384 45.6451 91.2432 45.6451 91.2432C45.709 91.248 45.7042 91.3119 45.7681 91.3167C45.832 91.3215 45.8272 91.3855 45.8912 91.3903C45.9503 91.459 45.9502 91.459 46.0094 91.5277C46.0045 91.5917 46.0685 91.5965 46.0637 91.6604C46.0588 91.7243 46.1228 91.7291 46.118 91.7931C46.1131 91.857 46.1083 91.9209 46.1083 91.9209C46.0939 92.1127 46.0155 92.2996 45.8732 92.4818C45.8045 92.5409 45.8045 92.5409 45.7358 92.6C45.6718 92.5952 45.667 92.6591 45.6031 92.6543C45.5392 92.6495 45.5344 92.7134 45.4704 92.7086C45.4753 92.6446 45.4113 92.6398 45.3474 92.635Z" fill="black"/>
<path d="M43.6963 106.01C43.5045 105.995 43.2536 105.912 43.0763 105.706C42.7807 105.362 42.8193 104.851 43.1581 104.619C45.2202 102.846 46.7289 102.446 47.982 102.026C49.3628 101.615 50.4144 101.309 52.1026 99.3788C52.3824 99.0785 52.8986 99.0531 53.1989 99.3328C53.4993 99.6126 53.5247 100.129 53.2449 100.429C51.277 102.659 49.8961 103.07 48.3826 103.534C47.1983 103.895 45.9501 104.251 44.0942 105.847C44.0846 105.975 43.888 106.024 43.6963 106.01Z" fill="black"/>
<path d="M69.9684 61.8966C72.042 64.2384 74.7406 60.8417 73.8417 58.2669C73.1503 56.3506 67.8949 59.5547 69.9684 61.8966Z" fill="#1D1E1C"/>
<path d="M71.5464 64.8446C69.2308 64.8631 67.384 62.9241 67.3752 60.4806C67.3993 60.161 67.6103 59.9197 67.9299 59.9438C68.2495 59.9679 68.4908 60.1789 68.4667 60.4985C68.4597 62.298 69.8879 63.8198 71.5595 63.8171C72.4593 63.8206 73.26 63.4309 73.8292 62.7023C74.1137 62.338 74.344 61.8411 74.5056 61.4033C74.5936 61.0885 74.6128 60.8328 74.6369 60.5132C74.6609 60.1936 74.872 59.9523 75.1916 59.9764C75.5112 60.0005 75.7524 60.2115 75.7284 60.5311C75.7634 60.9194 75.6706 61.2982 75.573 61.7408C75.397 62.3704 75.0932 62.9904 74.6711 63.4729C73.9006 64.3148 72.7658 64.8722 71.5464 64.8446Z" fill="black"/>
<path fill-rule="evenodd" clip-rule="evenodd" d="M75.0531 66.0721C73.1793 68.7595 69.4731 69.3161 66.7857 67.4423C64.0983 65.5686 63.5418 61.8624 65.4155 59.175C66.5683 57.5261 68.2736 57.076 69.5774 57.6885C70.4483 58.0755 70.8874 59.0728 71.739 59.7155C73.1913 60.9177 74.1694 60.7342 74.8835 61.4952C76.489 63.2232 76.1274 64.6102 75.0531 66.0721Z" fill="#E20613"/>
<path d="M67.7739 67.1313C67.5869 67.0529 67.4687 66.9154 67.2818 66.8371C67.1587 66.7635 67.1092 66.5669 67.1828 66.4439C67.2563 66.3209 67.4529 66.2714 67.576 66.3449C68.5506 67.0612 69.7506 67.3444 70.9253 67.1115C72.0952 66.9424 73.1118 66.2476 73.828 65.273L73.8967 65.2139C74.0342 65.0956 74.226 65.1101 74.3442 65.2476C74.4624 65.385 74.4528 65.5129 74.3792 65.6359C73.5894 66.7335 72.4402 67.4827 71.0738 67.7012C69.9678 67.8751 68.8269 67.6606 67.7739 67.1313Z" fill="#AF191A"/>
<path d="M66.2433 60.1373C66.1794 60.1325 66.1794 60.1325 66.2433 60.1373C66.0612 59.995 66.0756 59.8033 66.1491 59.6802C67.0125 58.4596 68.2703 57.9757 69.3281 58.4411C69.4511 58.5146 69.5646 58.716 69.491 58.8391C69.4175 58.9621 69.2161 59.0755 69.093 59.002C68.2813 58.6837 67.3527 59.0637 66.6364 60.0384C66.4942 60.2205 66.3663 60.2109 66.2433 60.1373Z" fill="#E84455"/>
<path d="M78.0701 46.4996C78.0061 46.4948 78.0109 46.4309 78.0109 46.4309C77.8879 46.3573 77.8384 46.1607 77.912 46.0377C77.9855 45.9147 78.1821 45.8652 78.3051 45.9387C78.3051 45.9387 78.9203 46.3065 79.8887 46.2509C80.0805 46.2653 80.2035 46.3388 80.1891 46.5306C80.1747 46.7224 80.1011 46.8454 79.9093 46.831C79 46.9553 78.3161 46.6467 78.0701 46.4996Z" fill="#010101"/>
<path d="M71.0578 61.0789C71.0626 61.015 71.0626 61.015 71.0578 61.0789C70.8757 60.9366 70.8901 60.7449 70.9637 60.6218C77.8875 52.3363 78.6094 48.7265 78.4548 47.3648C78.3703 46.7799 78.129 46.5689 78.129 46.5689C78.006 46.4953 77.9565 46.2988 78.03 46.1757C78.1036 46.0527 78.3002 46.0032 78.4232 46.0768C78.4871 46.0816 78.8514 46.3662 78.9806 47.2116C79.2293 49.0303 78.1047 52.8669 71.3183 61.0343C71.3774 61.103 71.1856 61.0886 71.0578 61.0789Z" fill="#010101"/>
<path d="M71.3086 61.162C70.9986 61.0101 70.6983 60.7303 70.4124 60.2588C70.3581 60.1261 70.3725 59.9344 70.51 59.8161C70.6426 59.7618 70.8344 59.7763 70.9526 59.9138C71.3471 60.6506 72.1142 60.7084 72.1142 60.7084C72.3059 60.7228 72.4242 60.8603 72.4097 61.052C72.3953 61.2438 72.2578 61.362 72.066 61.3476C71.9973 61.4067 71.6777 61.3826 71.3086 61.162Z" fill="#010101"/>
<path d="M27.7026 19.6293C29.908 9.12417 42.9195 4.51132 51.1108 10.9781C60.8233 18.588 56.8773 35.1333 44.3093 37.2725C33.6926 39.1086 25.2993 29.3481 27.7026 19.6293Z" fill="white"/>
<path d="M41.8126 37.9844C37.6975 37.9959 33.8354 36.3551 30.9199 33.2427C27.4084 29.5069 25.9989 24.3223 27.2006 19.4629C28.2888 14.4021 31.9449 10.2418 37.0354 8.37523C42.0572 6.56775 47.4616 7.36045 51.4687 10.4907C56.2042 14.1902 58.1217 20.313 56.5729 26.3677C55.0289 32.3584 50.3307 36.6974 44.4031 37.7295C43.489 37.9178 42.6484 37.9831 41.8126 37.9844ZM42.3602 8.51908C40.6886 8.52177 39.0568 8.84887 37.4058 9.43166C32.6494 11.1306 29.2731 14.9905 28.2728 19.7365C27.1591 24.2811 28.4697 29.0726 31.7447 32.5334C35.0197 35.9943 39.5993 37.4963 44.2884 36.6923C49.8228 35.7591 54.1773 31.7157 55.6237 26.1676C57.0797 20.4917 55.2516 14.8898 50.8851 11.411C48.3943 9.48779 45.4477 8.49447 42.3602 8.51908Z" fill="black"/>
<path d="M37.0596 37.9485C36.9804 40.7067 44.0757 41.2411 48.5222 39.3903C53.0325 37.5443 57.9933 31.4251 55.5086 30.2738C54.2048 29.6613 53.6177 31.4813 49.3884 33.8628C42.1431 37.8813 37.1882 35.3868 37.0596 37.9485Z" fill="#8CC800"/>
<path d="M42.7424 41.0111C40.6185 41.044 38.6562 40.6391 37.5586 39.8493C36.6431 39.2018 36.4451 38.4155 36.4836 37.9041C36.5449 36.2373 38.0983 36.0972 40.04 35.922C42.1735 35.7613 45.349 35.4218 49.1067 33.3263C50.9832 32.3105 52.083 31.3648 52.903 30.7194C53.934 29.8328 54.6853 29.2465 55.6744 29.771C56.2943 30.0748 56.6345 30.679 56.6407 31.4509C56.5808 33.9534 52.3892 38.3948 48.6748 39.9151C46.9503 40.6209 44.7975 41.0373 42.7424 41.0111ZM37.5703 37.986C37.5414 38.3695 37.7731 38.7084 38.2012 38.9978C40.0962 40.2976 44.9831 40.2799 48.2996 38.9225C51.8813 37.4566 55.5965 33.3651 55.6131 31.4378C55.642 31.0542 55.4647 30.848 55.2777 30.7697C54.9038 30.6129 54.6337 30.7855 53.6075 31.6081C52.7826 32.3174 51.555 33.2535 49.6098 34.3285C45.6507 36.5374 42.2882 36.7984 40.086 37.0183C38.1443 37.1935 37.6185 37.3467 37.5703 37.986Z" fill="black"/>
<path d="M32.8112 4.71404C28.219 7.64671 26.2901 12.7728 26.1567 15.3984C26.1471 15.5262 25.3113 15.5276 25.257 15.3949C24.446 12.5053 25.7523 5.40383 31.0861 2.01274C31.8326 1.4904 33.4202 4.30991 32.8112 4.71404Z" fill="black"/>
<path d="M39.9589 22.4802C40.2068 26.8702 46.5054 30.3016 51.8379 26.0747C56.4879 22.375 52.8844 16.4466 49.7365 15.5667C41.0356 13.3043 39.7968 19.5109 39.9589 22.4802Z" fill="#FA961E"/>
<path d="M46.1717 15.1059C47.1993 15.119 48.345 15.2695 49.732 15.6311C52.88 16.511 56.4835 22.4394 51.8335 26.1392C50.1886 27.4938 48.3459 28.0622 46.7382 28.0697C43.1345 28.1197 40.1804 25.5187 40.0184 22.5494C39.8274 19.9637 40.7046 15.1441 46.1717 15.1059ZM46.1896 14.0144C44.0018 14.0425 42.2773 14.7483 40.9568 16.0631C38.9298 18.2247 38.8266 21.3026 38.863 22.5267C38.9247 24.267 39.8271 25.9421 41.3385 27.2131C42.7908 28.4153 44.7339 29.0759 46.6612 29.0924C48.7211 29.0547 50.7014 28.3681 52.4149 26.9544C54.5361 25.2499 55.4174 22.9377 54.902 20.3918C54.3323 17.7132 52.2092 15.1748 49.9417 14.5541C48.6186 14.1973 47.345 14.0371 46.1896 14.0144Z" fill="black"/>
<path d="M52.0891 20.1796C51.773 19.2559 51.0492 18.6228 50.0506 18.2262C49.111 17.8983 48.0195 17.8804 47.0221 18.3195C46.0296 18.6948 45.2048 19.4041 44.7491 20.334C44.2933 21.2639 44.2211 22.2228 44.5372 23.1466C44.8534 24.0704 45.641 24.7082 46.5758 25.1001C47.0136 25.2616 47.5202 25.364 48.0364 25.3386C48.5526 25.3132 49.1375 25.2287 49.6042 25.0067C50.5967 24.6315 51.4216 23.9222 51.8773 22.9922C52.333 22.0623 52.4101 21.0395 52.0891 20.1796Z" fill="black"/>
<path d="M42.875 19.6147C42.8619 20.6422 43.7039 21.4128 44.7314 21.4259C45.759 21.439 46.5295 20.597 46.5426 19.5695C46.5557 18.5419 45.7138 17.7713 44.6862 17.7582C43.6586 17.7451 42.8881 18.5871 42.875 19.6147Z" fill="white"/>
<path d="M57.0794 57.1981C58.0911 56.5672 59.2802 56.1425 60.514 55.9782C65.1838 55.4299 69.4369 58.7073 69.9852 63.3771C70.5431 67.919 67.4719 71.9948 63.0386 72.818" fill="#8CC800"/>
<path d="M63.0591 73.398C62.8034 73.3787 62.5574 73.2316 62.5127 72.9711C62.4729 72.6467 62.6839 72.4054 62.9444 72.3608C67.1124 71.6461 69.9774 67.7477 69.4593 63.5302C68.9508 59.1848 64.9438 56.0545 60.5936 56.6269C59.4238 56.7959 58.3674 57.1664 57.3604 57.7334C57.0903 57.9059 56.7755 57.8179 56.6029 57.5478C56.4304 57.2776 56.5184 56.9628 56.7886 56.7903C57.933 56.1051 59.1221 55.6804 60.4198 55.521C65.3501 54.928 69.9083 58.4212 70.4965 63.4154C71.0991 68.2178 67.8121 72.5988 63.0591 73.398C63.0591 73.398 63.1278 73.3388 63.0591 73.398Z" fill="black"/>
</svg>
