<svg width="466" height="612" viewBox="0 0 466 612" fill="none" xmlns="http://www.w3.org/2000/svg">
<g clip-path="url(#clip0_181_2949)">
<path d="M275.047 282.805C276.412 282.805 277.718 282.086 278.401 280.804C278.713 280.202 286.161 266.118 278.401 252.85C275.476 247.838 271.187 245.429 267.424 243.312C263.875 241.331 260.814 239.602 258.514 235.969C256.155 232.278 255.784 228.296 255.355 224.08C254.517 215.416 253.542 205.606 234.825 201.546C232.758 201.099 230.73 202.42 230.282 204.499C229.833 206.577 231.14 208.617 233.206 209.064C246.484 211.939 246.971 216.795 247.751 224.838C248.219 229.539 248.726 234.881 252.06 240.126C255.414 245.391 259.801 247.858 263.68 250.033C267.034 251.918 269.919 253.53 271.791 256.735C277.367 266.312 271.713 277.036 271.655 277.152C270.641 279.017 271.343 281.348 273.195 282.358C273.78 282.669 274.404 282.825 275.008 282.825" fill="black"/>
<path d="M322.851 271.985C323.592 271.985 324.333 271.771 324.976 271.324C326.731 270.139 327.199 267.75 326.009 266.002C325.931 265.866 317.177 252.539 319.517 240.048C320.277 236.027 322.695 233.288 325.502 230.141C328.7 226.528 332.326 222.448 333.789 215.921C335.251 209.472 334.198 203.741 333.282 198.671C331.722 190.007 330.864 185.247 341.003 179.944C342.874 178.973 343.615 176.642 342.64 174.757C341.666 172.873 339.365 172.135 337.493 173.106C322.324 181.012 324.157 191.114 325.775 200.011C326.594 204.557 327.452 209.277 326.341 214.192C325.307 218.777 322.636 221.807 319.79 224.993C316.69 228.509 313.161 232.472 312.01 238.591C309.086 254.21 319.224 269.615 319.673 270.256C320.414 271.363 321.623 271.946 322.851 271.946" fill="black"/>
<path d="M313.007 163.801C345.567 177.477 383.158 149.639 372.493 111.195C364.284 81.6091 324.354 69.2541 300.47 92.138C276.43 112.011 283.157 152.573 313.007 163.801Z" fill="white"/>
<path d="M330.105 82.8523C333.888 82.8523 337.729 83.3768 341.55 84.4258C355.724 88.3498 366.37 98.6263 370.055 111.894C374.578 128.173 370.328 143.578 358.415 154.165C346.366 164.869 328.935 167.725 314.001 161.45L313.903 161.411C300.684 156.438 291.384 144.899 289.005 130.543C286.666 116.44 291.559 102.842 302.088 94.1194L302.224 94.0028C309.828 86.7181 319.752 82.8523 330.105 82.8523ZM330.339 169.842C341.745 169.842 353.034 165.763 361.768 157.992C375.007 146.24 379.92 128.504 374.929 110.515C370.757 95.4987 358.785 83.9013 342.876 79.4915C326.927 75.0818 310.433 79.103 298.754 90.2342C286.841 100.122 281.323 115.508 283.956 131.379C286.627 147.541 297.136 160.557 312.051 166.171C317.92 168.638 324.139 169.823 330.32 169.823" fill="black"/>
<path d="M362.138 159.197C367.09 165.297 352.858 176.214 339.268 178.215C325.659 180.216 302.614 173.164 305.831 163.607C307.917 157.449 313.415 160.887 327.16 161.625C349.348 162.81 357.459 153.447 362.138 159.197Z" fill="#99CA3E"/>
<path d="M360.171 160.809C360.542 161.256 360.834 161.878 360.347 163.16C358.572 167.764 348.824 174.233 338.9 175.69C328.82 177.166 313.515 173.184 309.167 167.939C307.841 166.326 307.997 165.18 308.25 164.442C308.933 162.383 309.518 162.169 316.673 163.141C319.422 163.51 322.854 163.976 327.007 164.209C338.607 164.831 346.66 162.616 352.002 161.159C357.5 159.663 359.001 159.43 360.152 160.848M334.259 181.148C336.151 181.148 337.964 181.032 339.621 180.779C350.754 179.148 362.413 171.941 365.084 165.044C366.137 162.325 365.786 159.683 364.09 157.604C360.736 153.466 356.272 154.69 350.656 156.225C345.334 157.682 338.061 159.663 327.279 159.1C323.322 158.886 320.007 158.439 317.336 158.07C310.746 157.177 305.54 156.477 303.396 162.81C302.713 164.831 302.479 167.919 305.228 171.222C310.376 177.438 323.673 181.129 334.259 181.129" fill="black"/>
<path d="M217.471 191.308C280.68 193.659 315.873 116.926 276.449 70.0894C243.129 30.499 175.454 40.0566 154.378 88.9132C133.243 133.982 164.283 189.89 217.451 191.328" fill="white"/>
<path d="M222.347 48.0214C242.741 48.0214 261.692 56.4912 274.521 71.7213C292.361 92.9151 295.578 122.326 282.944 148.454C270.427 174.33 245.373 189.774 217.57 188.725H217.551C193.823 188.084 173.117 176.137 160.736 155.914C148.336 135.672 146.835 111.02 156.7 89.9624C166.254 67.836 186.648 52.47 211.292 48.8179C214.996 48.274 218.701 48.002 222.327 48.002M220.183 193.892C248.902 193.892 274.521 177.535 287.506 150.688C301.037 122.695 297.547 91.1668 278.382 68.3994C262.121 49.0704 236.755 39.8625 210.532 43.7477C184.133 47.6717 162.257 64.1451 152.04 87.8449C141.473 110.399 143.072 136.876 156.369 158.595C169.646 180.294 191.892 193.154 217.375 193.834C218.311 193.873 219.247 193.892 220.183 193.892Z" fill="black"/>
<path d="M219.674 16.0654C192.885 16.1625 171.01 32.3639 163.679 43.1842C163.289 43.767 159.779 41.6301 160.052 40.6783C164.283 26.2447 188.771 0.155409 219.791 0C224.198 0.0194261 223.32 16.0654 219.674 16.0654Z" fill="black"/>
<path d="M319.439 46.4866C337.006 47.3413 350.868 58.6085 355.372 65.9127C355.606 66.3012 357.985 65.0191 357.829 64.378C355.469 54.7815 340.184 36.9484 319.829 35.9382C316.924 35.8217 317.041 46.37 319.439 46.4866Z" fill="black"/>
<path d="M181.595 187.714C178.359 201.041 212.284 210.637 235.817 206.169C259.369 201.701 289.648 176.855 278.749 168.619C273.056 164.325 268.455 172.776 245.604 180.002C206.357 192.415 184.637 175.204 181.615 187.714" fill="#99CA3E"/>
<path d="M275.494 170.017C276.156 170.017 276.683 170.231 277.229 170.658C278.067 171.28 278.847 172.213 278.36 174.291C276.215 183.557 254.144 200.07 235.368 203.644C217.88 206.966 193.937 202.265 186.099 193.95C184.286 192.047 183.643 190.201 184.091 188.317C184.891 185.034 187.523 184.956 197.622 186.122C208.482 187.365 224.899 189.23 246.384 182.431C256.893 179.109 263.522 175.573 268.338 173.009C272.238 170.93 274.148 170.017 275.494 170.017ZM223.183 209.841C227.706 209.841 232.151 209.472 236.304 208.675C255.899 204.946 280.504 187.559 283.312 175.457C284.15 171.824 283.078 168.677 280.29 166.56C275.864 163.218 271.926 165.316 265.959 168.483C261.3 170.95 254.924 174.349 244.844 177.535C224.392 184.004 208.638 182.198 198.188 181.013C188.634 179.925 181.069 179.07 179.139 187.093C178.534 189.599 178.593 193.445 182.395 197.466C189.433 204.926 206.766 209.821 223.183 209.821" fill="black"/>
<path d="M456.582 560.637C444.923 554.499 425.874 550.342 400.157 530.08C361.534 499.639 352.292 429.259 367.968 395.749C376.371 377.799 386.061 351.107 377.989 316.995C370.21 284.087 356.679 269.168 332.717 261.495C305.051 252.656 277.95 264.622 267.889 292.79C260.402 313.751 263.736 334.168 275.629 358.82C286.06 380.402 297.018 394.719 297.817 428.249C300.82 552.323 121.914 557.296 11.0734 557.918C4.85385 557.957 1.36386 564.795 5.75073 569.243C15.1093 578.723 39.8706 590.748 75.1409 591.35C136.576 592.399 138.994 583.521 188.165 582.57C236.655 581.637 251.824 591.35 313.824 591.35C369.878 591.35 430.417 583.599 453.189 580.355C458.259 579.636 462.061 575.324 462.158 570.156C462.236 566.174 460.072 562.502 456.562 560.657" fill="#99CA3E"/>
<path d="M194.6 578.645C192.494 578.645 190.35 578.665 188.127 578.704C166.076 579.131 153.11 581.151 140.574 583.133C125.112 585.561 109.105 588.067 75.2389 587.484C43.0297 586.94 18.0735 576.236 8.50037 566.523C7.44754 565.455 7.56448 564.425 7.83743 563.765C8.20789 562.852 9.29974 561.764 11.1324 561.764C83.2522 561.375 217.47 560.637 274.246 501.815C293.158 482.234 302.38 457.446 301.659 428.171C300.976 399.653 292.982 384.248 284.54 367.93C282.746 364.472 280.914 360.918 279.1 357.168C266.973 332.05 264.692 313.188 271.516 294.131C280.602 268.682 305.305 256.794 331.587 265.205C355.12 272.742 367.091 287.506 374.305 317.928C382.026 350.525 373.135 375.778 364.556 394.156C349.037 427.335 356.173 500.319 397.838 533.149C416.945 548.205 432.582 554.615 443.987 559.277C448.199 561.006 451.825 562.483 454.847 564.076C457.089 565.261 458.435 567.572 458.396 570.098C458.337 573.381 455.939 576.1 452.703 576.567C429.638 579.869 369.937 587.523 313.864 587.523C282.259 587.523 263.327 585.036 245.02 582.628C229.617 580.607 214.994 578.684 194.62 578.684M84.8315 595.293C112.868 595.293 127.53 593.001 141.763 590.767C154.612 588.747 166.758 586.843 188.283 586.435C211.563 585.988 227.336 588.067 244.025 590.262C261.709 592.593 281.752 595.216 313.864 595.216C370.425 595.216 430.554 587.504 453.775 584.182C460.735 583.191 465.883 577.324 466.019 570.253C466.117 564.794 463.192 559.821 458.376 557.277C455.023 555.509 451.24 553.955 446.853 552.167C435.857 547.661 420.805 541.503 402.537 527.108C364.283 496.958 357.303 427.666 371.458 397.439C379.881 379.45 390.097 351.457 381.733 316.16C373.915 283.135 360.072 266.274 333.907 257.901C303.491 248.168 274.889 262.019 264.322 291.547C256.854 312.469 259.291 333.74 272.238 360.548C274.09 364.395 275.961 368.008 277.775 371.505C286.158 387.687 293.392 401.654 294.035 428.384C294.698 455.542 286.197 478.445 268.767 496.492C214.234 552.983 82.0824 553.722 11.0934 554.11C6.51163 554.129 2.45627 556.791 0.77951 560.87C-0.799744 564.697 0.0776367 568.952 3.08017 571.982C14.057 583.113 40.5926 594.633 75.1219 595.216C78.5339 595.274 81.7704 595.293 84.8315 595.293Z" fill="black"/>
<path d="M268.687 409.891C296.646 458.34 278.007 504.554 252.27 522.057C245.271 526.816 217.839 537.792 217.839 537.792C217.839 537.792 200.369 549.934 164.806 553.275C138.875 555.723 114.757 545.796 92.5697 522.912C66.9115 496.434 49.1107 420.478 114.406 376.983C168.823 340.714 238.018 356.78 268.667 409.891" fill="#E52B2A"/>
<path d="M245.196 409.58C246.054 409.58 246.931 409.289 247.633 408.686C249.252 407.327 249.466 404.898 248.121 403.267C230.593 382.112 204.623 370.475 174.968 370.475H174.597C172.492 370.475 170.776 372.204 170.795 374.322C170.795 376.439 172.511 378.149 174.617 378.149C174.734 378.149 174.851 378.149 174.968 378.149C202.322 378.149 226.206 388.814 242.252 408.181C243.012 409.094 244.085 409.561 245.196 409.561" fill="#F15B5C"/>
<path d="M111.33 408.803C112.012 408.803 112.694 408.628 113.299 408.24C115.112 407.132 115.677 404.782 114.586 402.975C102.185 382.364 83.1172 370.223 60.91 368.785C58.7848 368.649 56.9911 370.262 56.8546 372.379C56.7181 374.496 58.3169 376.322 60.4226 376.458C80.0562 377.721 96.9797 388.561 108.054 406.957C108.775 408.142 110.023 408.803 111.33 408.803Z" fill="black"/>
<path d="M160.482 556.713C174.949 556.713 188.226 553.955 198.404 550.944C235.175 540.084 250.715 500.863 247.049 467.742C245.216 451.132 238.938 436.504 228.878 425.412C217.648 413.038 202.167 405.87 184.074 404.704C169.665 403.772 154.984 408.939 142.759 419.254C131.139 429.064 123.574 442.041 121.975 454.882C119.87 471.879 128.546 489.985 143.578 499.931C157.714 509.275 174.715 509.372 190.215 500.203C198.521 495.288 204.39 487.012 206.359 477.455C208.172 468.655 206.378 459.699 201.445 452.9C194.972 444.003 185.497 440.195 176.08 442.74C167.365 445.091 160.892 452.492 159.995 461.156C159.78 463.274 161.301 465.158 163.387 465.372C165.473 465.585 167.365 464.07 167.579 461.953C168.164 456.436 172.375 451.696 178.049 450.161C184.386 448.452 190.664 451.093 195.245 457.426C198.911 462.477 200.217 469.218 198.852 475.901C197.312 483.321 192.75 489.771 186.316 493.578C168.651 504.03 154.574 498.008 147.75 493.501C135.292 485.264 127.805 469.762 129.54 455.833C132.231 434.27 156.388 410.59 183.567 412.358C220.436 414.747 236.599 442.973 239.426 468.577C242.74 498.513 228.956 533.888 196.22 543.562C169.704 551.39 120.435 557.529 88.3428 510.596C73.798 489.324 69.1772 463.662 75.3188 438.35C81.8113 411.522 99.9631 388.405 125.114 374.904C162.646 354.759 220.143 356.216 251.378 393.534C275.417 422.246 289.377 467.994 256.525 510.324C255.218 511.994 255.53 514.403 257.188 515.724C258.845 517.026 261.243 516.734 262.549 515.064C278.167 494.938 285.224 471.666 282.924 447.772C280.935 427.025 271.81 406.005 257.227 388.6C223.477 348.291 161.73 346.542 121.507 368.125C94.4454 382.655 74.9093 407.598 67.8904 436.524C61.2224 464.012 66.2527 491.849 82.0453 514.947C104.447 547.719 134.375 556.713 160.463 556.713" fill="black"/>
<path d="M145.057 358.45C155.312 335.664 145.271 307.01 143.497 307.321C141.04 307.768 119.477 314.373 105.244 327.135C87.9109 342.696 83.719 365.949 100.448 373.078C123.688 383.005 137.648 374.904 145.057 358.431" fill="#B4D334"/>
<path d="M142.739 357.402C134.979 374.652 121.097 379.139 101.444 370.747C96.5308 368.649 93.4893 364.822 92.6509 359.694C91.1301 350.428 96.8623 338.111 106.942 329.059C119.089 318.161 137.124 311.789 142.524 310.216C144.962 315.461 151.376 338.209 142.739 357.402ZM119.03 380.033C134.355 380.033 142.778 369.737 147.379 359.519C157.323 337.412 149.192 310.235 146.014 306.117C144.942 304.718 143.714 304.679 143.07 304.796C140.575 305.242 118.251 312.042 103.55 325.232C92.0465 335.567 85.8074 349.417 87.6206 360.51C88.7515 367.367 92.9434 372.67 99.4554 375.448C106.981 378.654 113.454 380.014 119.03 380.014" fill="black"/>
<path d="M176.079 419.74C176.234 419.74 176.41 419.74 176.566 419.701C177.95 419.429 178.847 418.088 178.574 416.709C178.145 414.495 177.716 412.008 177.248 409.405C176.137 403.111 174.889 395.962 173.407 390.601C173.037 389.241 171.633 388.444 170.268 388.813C168.904 389.182 168.124 390.601 168.494 391.96C169.898 397.089 171.146 404.102 172.218 410.279C172.686 412.921 173.134 415.427 173.563 417.661C173.797 418.885 174.87 419.74 176.059 419.74" fill="black"/>
<path d="M158.138 423.994C158.509 423.994 158.879 423.916 159.23 423.742C160.497 423.139 161.043 421.605 160.439 420.323C158.119 415.408 153.05 406.549 150.183 402.412C149.384 401.246 147.805 400.955 146.635 401.771C145.485 402.567 145.192 404.179 145.992 405.326C148.663 409.211 153.634 417.894 155.818 422.518C156.247 423.45 157.163 423.975 158.119 423.975" fill="black"/>
<path d="M228.154 445.907C228.544 445.907 228.934 445.81 229.304 445.635C232.56 443.984 237.318 441.361 241.899 438.836C246.462 436.33 251.18 433.727 254.378 432.095C255.625 431.454 256.132 429.919 255.508 428.657C254.865 427.394 253.344 426.889 252.077 427.53C248.821 429.2 244.064 431.804 239.462 434.348C234.9 436.854 230.201 439.457 227.004 441.07C225.756 441.711 225.249 443.246 225.873 444.508C226.321 445.402 227.218 445.907 228.154 445.907Z" fill="black"/>
<path d="M107.957 361.345C108.893 361.345 109.809 360.82 110.238 359.927C110.335 359.713 120.474 339.238 132.796 328.612C133.868 327.699 133.985 326.067 133.069 324.999C132.153 323.93 130.554 323.794 129.482 324.727C116.36 336.052 106.105 356.799 105.676 357.673C105.052 358.936 105.578 360.471 106.826 361.092C107.177 361.267 107.567 361.364 107.957 361.364" fill="black"/>
<path d="M316.439 268.683C322.464 268.683 328.469 270.314 333.675 273.422C335.488 274.51 336.092 276.861 335 278.687C334.279 279.891 333.012 280.571 331.705 280.571C331.042 280.571 330.36 280.396 329.756 280.027C325.72 277.619 321.099 276.356 316.439 276.356C315.386 276.356 314.333 276.414 313.281 276.55C313.125 276.57 312.969 276.569 312.813 276.569C310.921 276.569 309.264 275.151 309.03 273.209C308.777 271.111 310.259 269.188 312.345 268.916C313.69 268.741 315.055 268.663 316.42 268.663" fill="#C4D944"/>
<path d="M209.398 440.817C210.315 440.817 211.231 440.487 211.953 439.827C213.512 438.408 213.649 435.98 212.225 434.407C206.688 428.249 197.115 423.8 187.854 423.101C185.729 422.926 183.916 424.538 183.76 426.636C183.604 428.754 185.183 430.599 187.289 430.755C194.581 431.298 202.34 434.834 206.571 439.535C207.332 440.37 208.365 440.798 209.398 440.798" fill="#F15B5C"/>
<path d="M223.087 476.328C224.101 476.328 225.076 475.92 225.797 475.201C225.972 475.026 226.128 474.832 226.284 474.619C226.421 474.405 226.538 474.191 226.635 473.958C226.733 473.725 226.811 473.492 226.85 473.239C226.889 473.006 226.928 472.734 226.928 472.482C226.928 472.229 226.908 471.977 226.85 471.743C226.811 471.491 226.733 471.238 226.635 471.005C226.538 470.772 226.421 470.558 226.284 470.345C226.148 470.131 225.992 469.937 225.797 469.762C224.374 468.324 221.839 468.324 220.396 469.762C220.221 469.937 220.065 470.131 219.928 470.345C219.792 470.558 219.675 470.772 219.577 471.005C219.48 471.238 219.402 471.471 219.363 471.743C219.324 471.977 219.285 472.249 219.285 472.482C219.285 472.715 219.304 472.987 219.363 473.239C219.402 473.492 219.48 473.725 219.577 473.958C219.675 474.191 219.792 474.405 219.928 474.619C220.065 474.832 220.24 475.026 220.396 475.201C221.118 475.92 222.092 476.328 223.106 476.328" fill="black"/>
<path d="M214.603 542.785C215.461 542.785 216.338 542.493 217.04 541.891C226.204 534.218 232.365 532.372 238.331 530.585C245.662 528.39 252.564 526.331 262.39 515.239C263.794 513.646 263.658 511.217 262.078 509.819C260.499 508.401 258.082 508.556 256.678 510.13C248.313 519.571 242.952 521.183 236.167 523.203C229.772 525.107 222.538 527.283 212.166 535.966C210.548 537.326 210.333 539.735 211.678 541.367C212.439 542.28 213.511 542.746 214.623 542.746" fill="black"/>
<path d="M273.351 315.985L273.409 316.237C280.253 341.569 296.201 384.85 342 369.679C394.291 352.351 379.902 304.038 373.059 278.706L372.981 278.454L273.351 315.985Z" fill="black"/>
<path d="M323.301 370.533C358.981 368.96 356.232 355.711 356.368 355.614C353.736 348.97 343.832 341.705 334.961 342.929C332.348 343.298 328.702 344.23 326.928 346.581C325.855 348.019 325.173 348.893 321.761 348.019C319.421 347.416 316.243 346.872 314.138 347.086C309.283 347.552 297.117 350.389 301.952 364.803C301.854 368.261 307.489 369.446 307.762 369.873C308.581 369.582 318.466 370.728 323.301 370.514" fill="#E52B2A"/>
<path d="M372.607 347.883C364.087 349.514 355.119 351.574 345.916 354.08C330.923 358.178 317.021 362.957 305.05 368.008C314.506 373.253 326.536 374.788 341.977 369.679C357.263 364.608 366.856 356.896 372.588 347.883" fill="white"/>
<path d="M377.133 294.674C375.827 288.808 374.325 283.368 373.058 278.706L372.98 278.454L273.35 315.985L273.409 316.237C274.325 319.656 275.417 323.386 276.723 327.271C290.663 325.64 306.612 322.531 323.321 317.966C348.121 311.206 365.22 302.717 377.133 294.674Z" fill="white"/>
<path d="M305.049 370.572C305.381 370.572 305.693 370.514 306.024 370.378C306.375 370.242 341.06 355.964 371.632 350.661C373.016 350.428 373.952 349.087 373.718 347.708C373.484 346.309 372.158 345.377 370.774 345.61C339.657 350.991 304.445 365.483 304.094 365.638C302.788 366.182 302.164 367.678 302.71 368.98C303.119 369.97 304.055 370.572 305.069 370.572" fill="black"/>
<path d="M371.262 281.834C378.379 308.079 389.57 351.204 341.198 367.231C327.94 371.621 316.319 371.194 306.629 365.949C293.449 358.82 283.564 342.968 276.409 317.558L371.262 281.834ZM324.099 375.371C329.967 375.371 336.206 374.283 342.777 372.107C396.199 354.41 383.038 305.845 375.98 279.755L375.512 278.026L375.473 277.89L375.395 277.618C375.162 276.977 374.694 276.433 374.07 276.142C373.446 275.851 372.744 275.831 372.1 276.064L272.47 313.596C271.223 314.062 270.56 315.422 270.911 316.704L270.95 316.879C273.738 327.213 282.219 358.567 304.231 370.475C310.275 373.739 316.924 375.371 324.118 375.371" fill="black"/>
<path d="M94.1511 435.164C95.165 435.164 96.1398 434.543 96.5298 433.532C104.66 412.572 122.5 400.061 128.115 397.342C129.382 396.72 129.909 395.185 129.304 393.923C128.7 392.64 127.16 392.116 125.912 392.738C119.4 395.904 100.566 409.094 91.8115 431.687C91.3046 433.008 91.948 434.484 93.2543 435.009C93.5662 435.125 93.8782 435.184 94.1706 435.184" fill="black"/>
<path d="M330.454 120.034C329.186 122.287 329.986 125.163 332.247 126.425C334.509 127.688 337.356 126.891 338.604 124.619C339.871 122.346 339.071 119.49 336.81 118.227C334.568 116.965 331.702 117.761 330.454 120.034Z" fill="white"/>
<path d="M251.551 125.24C256.679 142.996 236.207 165.394 209.535 155.953C186.06 147.619 192.182 119.043 203.568 111.292C234.822 90.0012 248.08 113.215 251.551 125.24Z" fill="#F19220"/>
<path d="M209.417 129.864C209.125 137.77 216.144 144.453 225.073 144.783C234.023 145.132 241.509 138.994 241.802 131.087C242.094 123.181 235.075 116.518 226.146 116.188C217.197 115.857 209.71 121.977 209.417 129.883" fill="#1B1C1C"/>
<path d="M238.293 130.854C238.176 134.137 236.597 137.168 233.867 139.402C231.06 141.713 227.375 142.898 223.495 142.743C219.635 142.607 216.047 141.15 213.415 138.644C210.841 136.196 209.496 133.049 209.632 129.786C209.73 126.814 211.075 123.977 213.395 121.802C216.223 119.16 220.239 117.722 224.431 117.897C224.801 117.897 225.152 117.936 225.503 117.975C232.873 118.732 238.527 124.327 238.293 130.874M223.358 146.512C228.135 146.686 232.698 145.21 236.207 142.335C239.795 139.402 241.842 135.38 242.017 131.01C242.349 122.093 234.53 114.556 224.567 114.167C219.42 113.973 214.429 115.76 210.861 119.082C207.8 121.938 206.045 125.687 205.909 129.65C205.753 134.021 207.507 138.178 210.861 141.364C213.844 144.2 217.763 145.968 222.033 146.395C222.462 146.434 222.91 146.473 223.358 146.492" fill="#1B1C1C"/>
<path d="M221.234 116.926C222.598 120.947 220.434 125.337 216.437 126.697C212.421 128.057 208.073 125.901 206.708 121.86C205.363 117.839 207.508 113.468 211.524 112.089C215.521 110.729 219.888 112.885 221.234 116.926Z" fill="white"/>
<path d="M227.081 98.7234C244.453 100.491 257.146 116.149 255.372 133.613C253.617 151.077 238.039 163.84 220.686 162.052C203.314 160.285 190.641 144.627 192.396 127.163C194.151 109.699 209.709 96.9362 227.081 98.7234ZM226.574 103.658C211.893 102.162 198.772 112.904 197.29 127.668C195.808 142.432 206.492 155.622 221.174 157.118C235.855 158.614 248.977 147.871 250.458 133.108C251.96 118.344 241.256 105.153 226.574 103.658Z" fill="#1B1C1C"/>
<path d="M315.211 124.036C309.732 134.506 319.695 151.174 337.593 148.687C353.366 146.512 353.171 127.824 347.049 121.491C330.204 104.124 318.935 116.945 315.211 124.016" fill="#F19220"/>
<path d="M341.025 132.369C340.206 137.362 334.962 140.625 329.307 139.693C323.673 138.761 319.754 133.943 320.592 128.95C321.431 123.958 326.675 120.694 332.31 121.646C337.964 122.598 341.864 127.396 341.025 132.369Z" fill="#1B1C1C"/>
<path d="M332.463 122.831C332.697 122.851 332.911 122.889 333.145 122.928C335.777 123.375 338.117 124.774 339.56 126.814C340.73 128.465 341.217 130.427 340.905 132.292C340.554 134.37 339.306 136.158 337.396 137.362C335.426 138.586 332.989 139.052 330.552 138.625C328.095 138.217 325.951 136.993 324.488 135.186C323.065 133.438 322.461 131.32 322.812 129.261C323.494 125.143 327.764 122.365 332.463 122.831ZM331 141.092C333.73 141.364 336.421 140.781 338.643 139.382C341.158 137.809 342.777 135.439 343.245 132.68C343.654 130.174 343.05 127.591 341.49 125.415C339.696 122.889 336.791 121.122 333.535 120.578C327.257 119.529 321.388 123.239 320.453 128.873C320.004 131.631 320.764 134.409 322.636 136.721C324.469 138.974 327.14 140.49 330.143 140.995C330.416 141.033 330.708 141.072 330.981 141.111" fill="#1B1C1C"/>
<path d="M335.272 122.734C333.907 125.085 334.687 128.096 337.027 129.475C339.366 130.854 342.369 130.058 343.734 127.707C345.099 125.357 344.299 122.346 341.959 120.966C339.62 119.587 336.617 120.384 335.252 122.734" fill="white"/>
<path d="M333.928 110.593C345.022 111.719 353.133 121.724 352.021 132.894C350.89 144.064 340.947 152.223 329.853 151.077C318.759 149.95 310.648 139.946 311.76 128.776C312.891 117.606 322.834 109.447 333.928 110.593ZM333.616 113.74C324.238 112.788 315.854 119.665 314.899 129.086C313.943 138.527 320.787 146.958 330.165 147.91C339.563 148.862 347.927 142.005 348.882 132.564C349.838 123.123 342.994 114.692 333.616 113.74Z" fill="#1B1C1C"/>
<path d="M417.199 93.5949C416.809 96.5088 416.555 99.4422 416.126 102.337C415.678 105.406 414.684 107.834 411.623 109.68C409.634 110.884 408.113 113.895 407.587 116.343C405.988 123.822 405.364 131.495 403.648 138.935C402.089 145.618 400.236 152.378 397.351 158.575C392.34 169.337 382.338 173.378 371.498 175.845C358.006 178.895 344.572 178.351 331.139 175.651C322.716 173.961 316.048 169.201 311.271 162.363C304.935 153.311 299.319 143.734 293.431 134.37C292.261 132.505 289.61 125.085 287.563 125.085C284.658 125.085 282.669 133.768 281.46 137.071C276.469 150.591 273.505 160.498 267.968 173.786C265.901 178.759 262.665 183.305 259.662 187.831C254.749 195.232 247.847 200.167 239.561 203.178C221.058 209.899 202.185 213.007 182.376 210.812C165.16 208.908 153.052 200.186 146.131 184.82C140.847 173.048 137.065 160.596 132.6 148.454C131.566 145.637 130.865 142.588 129.246 140.14C127.745 137.886 125.542 135.555 123.124 134.603C119.946 133.36 118.172 131.418 117.217 128.445C115.832 124.172 114.623 119.84 113.278 115.546C112.498 113.021 113.317 111.661 115.91 111.156C135.115 107.485 154.105 102.453 170.093 100.724C207.917 96.6254 242.583 98.0435 276.761 105.153C281.85 106.202 284.794 107.834 289.805 106.746L292.3 106.086C307.723 100.161 323.73 96.9945 339.873 94.1194C356.348 91.2055 372.901 89.1852 389.688 89.6514C398.033 89.8845 406.358 90.3119 414.703 90.6033C416.692 90.681 417.55 91.5357 417.277 93.5755M254.106 113.759C252.195 113.06 247.535 111.681 245.566 111.195C229.422 107.213 213.064 106.785 196.609 108.223C196.55 107.893 173.758 111.409 162.606 114.206C151.668 116.965 146.209 124.774 145.721 136.041C144.941 154.185 149.718 170.891 159.077 186.296C164.458 195.155 172.491 200.031 182.766 200.982C196.804 202.284 210.705 201.371 224.431 198.088C241.393 194.028 255.626 182.314 260.423 165.491C263.581 154.457 265.433 145.094 266.798 133.652C268.105 122.734 264.342 117.547 254.106 113.759ZM395.226 113.138C393.451 104.668 388.304 99.481 379.667 98.7817C370.971 98.0629 342.447 99.6559 337.027 100.705C328.312 102.395 319.752 104.726 311.953 109.213C305.675 112.827 303.004 117.45 304.564 123.356C306.728 131.534 308.912 139.771 312.168 147.541C317.725 160.809 327.688 168.793 342.408 170.017C353.658 170.95 364.693 169.881 375.572 166.967C382.903 165.005 388.207 160.498 391.112 153.505C396.532 140.509 398.111 127.027 395.206 113.157" fill="#1B1C1C"/>
</g>
<defs>
<clipPath id="clip0_181_2949">
<rect width="466" height="612" fill="white" transform="matrix(-1 0 0 1 466 0)"/>
</clipPath>
</defs>
</svg>
