<svg width="267" height="350" viewBox="0 0 267 350" fill="none" xmlns="http://www.w3.org/2000/svg">
<path d="M156.395 171.82C156.028 171.82 155.661 171.82 155.293 171.636C154.191 171.085 153.824 169.799 154.375 168.697C154.375 168.697 157.681 162.452 154.375 157.125C153.273 155.288 151.619 154.37 149.783 153.267C147.578 151.982 145.007 150.696 143.17 147.757C141.333 144.818 140.966 141.695 140.598 139.123C140.047 134.531 139.863 131.776 132.332 130.123C131.23 129.939 130.312 128.653 130.679 127.551C130.863 126.449 132.148 125.53 133.251 125.898C143.905 128.102 144.456 133.796 145.007 138.572C145.19 140.96 145.558 143.165 146.844 145.369C148.129 147.389 149.966 148.308 151.987 149.594C154.191 150.879 156.579 152.165 158.232 154.921C162.641 162.452 158.416 170.534 158.232 170.718C157.865 171.453 157.13 171.82 156.395 171.82Z" fill="black"/>
<path d="M188.356 162.085C187.438 162.085 186.703 161.534 186.336 160.799C186.152 160.248 180.274 146.838 181.193 138.205C181.927 131.96 185.05 126.816 187.989 122.408C189.826 119.469 191.663 116.714 192.03 114.326C192.581 111.387 191.846 108.264 191.112 104.957C189.642 98.5284 188.173 91.1808 194.602 83.6496C195.337 82.7311 196.806 82.5474 197.725 83.4659C198.643 84.2006 198.827 85.6702 197.908 86.5886C192.765 92.4666 194.051 98.161 195.337 104.039C196.071 107.713 196.99 111.387 196.255 115.244C195.704 118.367 193.683 121.489 191.663 124.796C189.091 128.837 186.152 133.613 185.601 138.756C184.683 146.287 190.377 158.962 190.377 159.146C190.928 160.248 190.377 161.534 189.275 162.085C188.907 162.085 188.724 162.085 188.356 162.085Z" fill="black"/>
<path d="M167.046 42.6869C177.333 26.8897 201.029 28.3592 209.478 43.6054C220.5 63.4437 203.417 83.8332 183.395 80.5268C165.393 78.3225 156.392 56.8309 167.046 42.6869Z" fill="white"/>
<path d="M187.621 82.3637C186.152 82.3637 184.682 82.18 183.397 81.9964C174.396 80.8942 166.865 75.1999 163.191 66.5665C159.517 58.1168 160.619 48.9324 165.946 41.7685C170.906 34.0536 179.539 29.6451 189.091 29.8288C198.459 30.1961 206.725 34.972 211.134 42.687C216.277 52.0551 215.909 62.5254 210.215 70.7913C204.704 78.1389 196.438 82.3637 187.621 82.3637ZM187.989 32.9515C179.906 32.9515 172.559 36.8089 168.334 43.4217V43.6054C163.742 49.8508 162.823 57.9331 165.946 65.2807C169.252 72.8119 175.865 77.9552 183.764 78.8737C192.948 80.3432 202.133 76.4857 207.46 68.9545C212.603 61.6069 212.97 52.6062 208.378 44.1565C204.521 37.36 197.357 33.1352 188.907 32.7678C188.54 32.9515 188.172 32.9515 187.989 32.9515Z" fill="black"/>
<path d="M210.214 71.3426C213.704 74.0979 207.275 81.9965 200.111 84.9355C192.763 87.8745 179.17 87.1398 179.538 81.2618C179.905 77.588 183.395 78.6901 191.11 77.4043C203.601 75.0163 206.907 68.7709 210.214 71.3426Z" fill="#8CC800"/>
<path d="M190.377 88.0583C186.336 88.0583 182.478 87.3235 180.274 85.6703C178.253 84.2008 178.07 82.3639 178.07 81.2618C178.437 77.4043 181.376 77.037 185.233 76.6696C186.703 76.4859 188.724 76.3022 190.928 75.9348C196.99 74.8327 200.663 72.8121 203.419 71.1589C206.358 69.5057 208.746 68.2199 211.134 70.0568C212.419 70.9752 212.97 72.4447 212.787 74.0979C212.236 78.3228 206.725 83.8334 200.663 86.2214C197.724 87.5072 194.05 88.0583 190.377 88.0583ZM208.378 72.2611C207.643 72.2611 206.725 72.8121 204.704 73.7306C201.949 75.2001 197.724 77.588 191.295 78.6902C188.907 79.0575 187.07 79.2412 185.417 79.4249C181.192 79.7923 181.009 80.1597 181.009 81.2618C181.009 81.6292 181.009 82.3639 181.927 82.915C185.05 85.3029 194.05 85.303 199.377 83.2824C204.704 81.0781 209.113 76.3022 209.48 73.5469C209.664 72.8121 209.297 72.4447 209.113 72.2611C208.929 72.4447 208.746 72.2611 208.378 72.2611Z" fill="black"/>
<path d="M191.296 66.1994C183.764 66.1994 177.335 60.8724 176.784 54.4433C176.6 52.6064 176.417 46.1773 180.458 41.7688C182.846 39.0135 186.336 37.7277 190.928 37.7277C192.949 37.7277 195.153 37.9113 197.541 38.4624C201.949 39.3809 205.991 43.9731 207.276 49.1164C208.379 53.8923 206.909 58.3008 203.052 61.6072C199.378 64.5462 195.337 66.1994 191.296 66.1994Z" fill="#FA961E"/>
<path d="M190.744 39.197C192.581 39.197 194.601 39.3806 196.989 39.9317C203.235 41.4012 210.766 52.7899 201.949 60.3212C198.459 63.2602 194.785 64.3623 191.478 64.3623C184.682 64.3623 178.988 59.5864 178.437 53.892C177.886 49.1161 179.171 39.197 190.744 39.197ZM190.744 36.2579C185.784 36.2579 181.927 37.7274 179.171 40.8502C174.946 45.4424 174.946 52.0552 175.13 54.6268C175.681 61.9744 182.845 67.8524 191.111 67.8524C195.52 67.8524 199.928 66.1992 203.602 63.0765C208.01 59.4027 209.664 54.4431 208.378 49.1161C207.092 43.6055 202.316 38.4622 197.54 37.3601C195.152 36.4416 192.948 36.2579 190.744 36.2579Z" fill="black"/>
<path d="M199.193 44.7077C197.907 43.0545 196.071 42.1361 193.866 41.7687C191.846 41.585 189.825 42.1361 188.172 43.4219C186.519 44.7077 185.6 46.5446 185.233 48.7489C184.682 52.9737 187.805 56.8312 192.213 57.3822C192.581 57.3822 192.948 57.3822 193.315 57.3822C194.968 57.3822 196.622 56.6475 197.907 55.729C199.561 54.4432 200.479 52.6063 200.847 50.4021C201.214 48.3815 200.479 46.1772 199.193 44.7077Z" fill="black"/>
<path d="M184.498 54.9941C184.315 57.0147 185.6 59.0353 187.805 59.219C189.825 59.4027 191.846 58.1169 192.03 55.9126C192.213 53.892 190.927 51.8714 188.723 51.6877C186.703 51.5041 184.682 52.9736 184.498 54.9941Z" fill="white"/>
<path d="M77.7752 75.3836C84.2044 45.8097 120.942 32.9515 143.903 51.1367C171.273 72.8119 160.068 119.469 124.432 125.163C94.6746 130.49 70.9788 102.937 77.7752 75.3836Z" fill="white"/>
<path d="M117.269 127.551C105.697 127.551 94.8591 122.775 86.5931 114.142C76.6739 103.488 72.8165 88.9766 76.3065 75.1999C79.4292 60.8722 89.7158 49.2998 104.227 44.1565C118.555 39.0133 133.801 41.4012 145.006 50.2183C158.232 60.6885 163.742 77.9553 159.334 95.0383C154.925 111.938 141.7 124.245 124.8 127C122.229 127.368 119.841 127.551 117.269 127.551ZM119.473 44.3402C114.697 44.3402 109.922 45.075 105.329 46.9119C91.9201 51.6878 82.3683 62.5254 79.4293 75.751C76.3065 88.6092 79.7966 102.018 88.9811 111.938C98.1655 121.857 111.024 126.082 124.433 123.877C140.047 121.306 152.354 109.917 156.395 94.1199C160.62 78.139 155.476 62.158 143.169 52.4225C136.373 47.0956 128.107 44.3402 119.473 44.3402Z" fill="black"/>
<path d="M104.043 127.368C103.676 135.083 123.698 136.736 136.372 131.592C149.047 126.449 163.191 109.182 156.211 105.876C152.537 104.039 150.884 109.366 138.944 115.979C118.554 127.184 104.41 120.02 104.043 127.368Z" fill="#8CC800"/>
<path d="M120.024 136.001C114.146 136.001 108.635 134.899 105.512 132.694C102.941 130.857 102.39 128.653 102.573 127.184C102.757 122.408 107.166 122.04 112.676 121.673C118.554 121.122 127.739 120.387 138.393 114.509C143.72 111.57 146.842 108.999 149.23 107.162C152.169 104.774 154.19 103.12 157.129 104.406C158.966 105.325 159.884 106.978 159.884 108.999C159.7 116.162 147.761 128.47 137.29 132.878C131.963 135.082 125.718 136.001 120.024 136.001ZM105.696 127.367C105.696 128.47 106.247 129.388 107.349 130.306C112.676 133.98 126.453 133.98 136.005 130.123C146.108 126.082 156.578 114.325 156.761 108.999C156.761 107.896 156.21 107.345 155.843 107.162C154.741 106.611 154.006 107.162 151.251 109.55C148.863 111.57 145.556 114.142 140.046 117.264C128.841 123.51 119.289 124.245 113.227 124.796C107.166 125.163 105.696 125.53 105.696 127.367Z" fill="black"/>
<path d="M129.942 8.3371C116.165 14.9499 108.818 28.5429 107.716 35.8904C107.716 36.2578 105.328 36.0741 105.328 35.523C104.042 27.0733 110.287 7.78603 126.268 0.0711033C128.473 -0.84734 131.779 7.41865 129.942 8.3371Z" fill="black"/>
<path d="M155.658 8.88782C165.577 6.86725 174.762 11.0921 178.252 14.5822C178.436 14.7659 179.538 13.6637 179.354 13.48C176.782 8.52044 165.761 0.805517 154.372 3.19347C152.719 3.37716 154.372 9.2552 155.658 8.88782Z" fill="black"/>
<path d="M127.739 91.7317C116.902 91.7317 107.717 84.0168 107.35 74.6487C107.166 72.077 107.35 63.26 112.861 57.5656C116.167 54.0755 120.759 52.2386 126.637 52.2386C129.76 52.2386 133.25 52.7897 136.924 53.7082C142.802 55.3614 148.496 61.9741 149.782 68.9543C151.068 75.5671 148.864 81.6288 143.169 85.8537C138.393 89.7111 133.066 91.7317 127.739 91.7317Z" fill="#FA961E"/>
<path d="M126.453 53.8918C129.208 53.8918 132.514 54.2591 136.372 55.3613C145.373 57.7492 155.292 74.6486 142.25 84.9352C137.474 88.6089 132.514 90.2621 127.738 90.2621C117.636 90.2621 109.186 83.0983 108.819 74.6486C108.451 67.4847 110.839 53.8918 126.453 53.8918ZM126.453 50.769C120.207 50.769 115.248 52.6059 111.574 56.4634C105.696 62.5251 105.512 71.3422 105.696 74.6486C106.247 84.9351 115.982 93.2011 127.555 93.2011C133.249 93.2011 138.944 91.1806 143.903 87.1394C149.965 82.3635 152.536 75.7507 151.067 68.5869C149.597 61.0556 143.536 53.8918 137.107 52.0549C133.249 51.3201 129.759 50.769 126.453 50.769Z" fill="black"/>
<path d="M141.7 63.2599C140.781 60.6882 138.76 58.6677 136.005 57.7492C133.25 56.8308 130.311 56.8308 127.372 57.9329C124.433 59.035 122.228 61.0556 120.943 63.6273C119.657 66.1989 119.289 68.9542 120.392 71.5259C121.31 74.0975 123.331 76.1181 126.086 77.0365C127.372 77.5876 128.841 77.7713 130.127 77.7713C131.597 77.7713 133.25 77.4039 134.719 76.8528C137.658 75.7507 139.863 73.7301 141.148 71.1585C142.618 68.5869 142.802 65.8315 141.7 63.2599Z" fill="black"/>
<path d="M118.187 75.0161C118.187 77.9551 120.575 80.1594 123.33 80.1594C126.269 80.1594 128.473 77.7714 128.473 75.0161C128.473 72.0771 126.085 69.8728 123.33 69.8728C120.575 69.8728 118.187 72.2608 118.187 75.0161Z" fill="white"/>
<path d="M260.363 329.058C253.75 325.568 242.728 323.363 228.033 311.791C205.991 294.524 200.48 254.664 209.481 235.56C214.257 225.274 219.767 210.211 214.991 190.924C210.583 172.188 202.684 163.738 189.091 159.513C173.294 154.553 157.864 161.35 152.17 177.331C147.945 189.271 149.782 200.843 156.762 214.803C162.824 227.111 169.069 235.193 169.62 254.113C171.641 324.466 69.51 327.588 6.32105 328.139C2.83097 328.139 0.810394 331.997 3.38204 334.568C8.70901 339.895 22.853 346.692 43.0588 347.059C78.1433 347.61 79.4292 342.467 107.534 341.916C135.271 341.365 143.904 346.876 179.172 346.692C211.134 346.508 245.667 342.1 258.709 340.263C261.648 339.895 263.853 337.324 263.853 334.385C263.669 332.18 262.383 330.16 260.363 329.058Z" fill="#8CC800"/>
<path d="M47.4668 349.447C45.9972 349.447 44.5277 349.447 42.8745 349.447C23.2198 349.263 7.97368 342.651 1.72826 336.405C0.0750637 334.752 -0.475997 332.18 0.442447 330.16C1.36089 327.772 3.74884 326.302 6.32048 326.302C46.9157 325.935 122.228 325.384 153.271 293.238C163.191 282.952 167.967 269.91 167.599 254.48C167.232 239.234 163.007 231.335 158.231 222.334C157.129 220.314 156.027 218.293 155.108 216.089C147.761 200.843 146.291 188.903 150.516 176.963C156.578 160.248 172.742 152.165 190.193 157.676C205.072 162.452 213.154 172.004 217.563 190.74C222.338 210.762 216.644 226.743 211.868 236.846C203.786 253.929 208.011 293.238 229.87 310.321C240.34 318.404 248.973 321.894 255.219 324.465C257.79 325.567 259.811 326.302 261.831 327.404C264.587 328.874 266.24 331.629 266.24 334.752C266.24 338.793 263.301 342.099 259.26 342.651C246.034 344.487 211.684 349.08 179.355 349.08C160.986 349.08 149.598 347.61 139.495 346.324C129.943 345.038 120.942 343.936 107.717 344.304C95.4095 344.487 88.4293 345.59 81.2655 346.875C72.4484 348.161 63.9987 349.447 47.4668 349.447ZM179.172 160.248C167.967 160.248 158.415 166.86 154.374 178.249C150.516 189.087 151.802 199.741 158.782 214.068C159.884 216.273 160.803 218.293 161.905 220.13C166.681 229.315 171.273 238.132 171.824 254.296C172.191 271.012 167.048 284.972 156.21 296.177C123.881 329.609 47.2831 330.343 6.13679 330.711C5.03466 330.711 4.4836 331.262 4.29991 331.813C4.11622 332.18 4.11622 332.731 4.66729 333.282C10.1779 338.793 24.322 344.855 42.6908 345.038C61.9782 345.222 71.1626 343.936 79.9797 342.467C87.1435 341.365 94.4911 340.079 107.166 339.895C120.759 339.528 129.943 340.814 139.678 341.916C150.149 343.202 160.986 344.671 178.988 344.487C210.95 344.304 245.116 339.895 258.158 338.058C259.995 337.875 261.28 336.221 261.28 334.385C261.28 332.915 260.546 331.629 259.26 331.078C257.607 330.16 255.402 329.425 253.014 328.323C246.402 325.751 237.585 322.077 226.563 313.628C202.684 295.075 198.459 253.562 207.276 234.825C212.236 224.355 217.195 210.027 212.787 191.658C208.562 174.392 201.765 166.126 188.356 161.901C185.417 160.799 182.111 160.248 179.172 160.248Z" fill="black"/>
<path d="M152.904 244.01C168.885 271.379 158.415 297.647 143.719 307.75C139.678 310.505 124.065 316.75 124.065 316.75C124.065 316.75 114.146 323.731 93.7561 325.567C78.8773 327.037 65.1007 321.343 52.4261 308.484C37.731 293.422 27.4445 250.439 64.5496 225.641C95.7767 204.884 135.27 213.885 152.904 244.01Z" fill="#E62828"/>
<path d="M139.495 243.826C138.944 243.826 138.209 243.642 137.841 243.091C128.657 232.07 114.88 226.008 99.2668 226.192C97.9809 226.192 97.0625 225.274 97.0625 223.988C97.0625 222.702 97.9809 221.784 99.2668 221.784C116.35 221.6 131.229 228.213 141.331 240.336C142.066 241.255 142.066 242.724 141.148 243.459C140.413 243.642 140.046 243.826 139.495 243.826Z" fill="#FF5A5A"/>
<path d="M63.0812 243.642C62.3465 243.642 61.6117 243.275 61.2443 242.54C54.8152 232.07 45.2634 226.008 34.0584 225.273C32.7726 225.273 31.8541 224.171 32.0378 222.885C32.0378 221.599 33.1399 220.681 34.4258 220.865C47.1003 221.599 57.9379 228.58 65.1018 240.152C65.6528 241.254 65.4692 242.54 64.367 243.091C63.816 243.458 63.4486 243.642 63.0812 243.642Z" fill="black"/>
<path d="M91.1839 327.404C76.3051 327.404 59.4057 322.261 46.5475 303.892C37.5468 290.85 34.6078 275.053 38.2815 259.439C42.3227 242.907 53.344 228.763 68.7739 220.497C91.7349 208.19 127.003 209.109 146.29 231.886C160.435 248.602 169.803 277.441 149.597 303.708C148.862 304.627 147.393 304.811 146.474 304.076C145.556 303.341 145.372 301.871 146.107 300.953C164.843 276.89 156.761 250.99 142.984 234.641C125.166 213.517 92.286 212.782 70.9781 224.355C56.6504 232.07 46.3638 245.295 42.6901 260.358C39.2 274.686 41.9553 289.197 50.2213 301.32C68.5902 327.955 96.6945 324.282 111.757 319.873C130.493 314.362 138.208 294.157 136.188 277.257C134.534 262.746 125.35 246.765 104.226 245.479C88.7959 244.561 75.0193 257.97 73.5498 270.277C72.6313 278.176 76.8562 286.993 84.02 291.585C87.8775 294.157 95.9598 297.463 106.063 291.585C109.736 289.381 112.308 285.707 113.227 281.482C113.961 277.625 113.227 273.951 111.206 271.012C108.634 267.522 104.961 265.868 101.47 266.971C98.1641 267.889 95.7761 270.461 95.5924 273.583C95.4087 274.869 94.3066 275.604 93.2045 275.604C91.9186 275.42 91.1839 274.318 91.1839 273.216C91.735 268.256 95.4087 264.032 100.368 262.746C105.695 261.276 111.206 263.481 114.88 268.44C117.635 272.298 118.737 277.441 117.819 282.4C116.717 287.911 113.41 292.503 108.634 295.442C99.8173 300.769 90.0818 300.586 81.9995 295.442C73.3661 289.748 68.4065 279.645 69.5086 269.91C71.3455 255.398 86.7754 240.152 104.961 241.254C124.615 242.54 138.759 256.5 140.964 276.89C143.168 295.626 134.351 318.036 113.41 324.282C107.165 325.935 99.6336 327.404 91.1839 327.404Z" fill="black"/>
<path fill-rule="evenodd" clip-rule="evenodd" d="M82.184 214.987C88.062 201.945 82.184 185.78 81.2655 185.964C79.796 186.148 67.4889 190.005 59.4066 197.353C49.4874 206.17 47.2831 219.395 56.8349 223.436C70.0605 228.947 78.1428 224.355 82.184 214.987Z" fill="#B4E100"/>
<path d="M67.4887 227.294C64.366 227.294 60.6922 226.559 56.2837 224.722C52.6099 223.069 50.0383 220.13 49.4872 216.273C48.3851 210.027 52.0588 202.129 58.4879 196.067C66.9376 188.536 79.6121 184.678 81.0817 184.311C81.449 184.311 82.1838 184.311 82.9185 185.046C84.7554 187.433 89.5313 202.863 83.837 215.354C81.0817 221.416 76.1221 227.294 67.4887 227.294ZM80.7143 187.617C77.5916 188.536 67.305 192.209 60.5085 198.271C54.8142 203.414 51.5078 210.395 52.4262 215.538C52.9773 218.477 54.6305 220.497 57.3858 221.783C68.5908 226.559 76.4894 223.988 80.898 214.252C85.6739 203.598 82.0001 190.74 80.7143 187.617Z" fill="black"/>
<path d="M100.001 249.704C99.2666 249.704 98.7155 249.153 98.5318 248.418C98.3481 247.133 97.9808 245.663 97.7971 244.194C97.246 240.703 96.5112 236.662 95.5928 233.723C95.4091 232.989 95.7765 232.07 96.6949 231.886C97.4297 231.703 98.3481 232.07 98.5318 232.989C99.4503 236.111 100.185 240.152 100.736 243.642C100.92 245.112 101.287 246.581 101.471 247.867C101.655 248.786 101.103 249.52 100.185 249.704C100.185 249.704 100.185 249.704 100.001 249.704Z" fill="black"/>
<path d="M89.8997 252.276C89.3486 252.276 88.7976 251.909 88.6139 251.357C87.3281 248.786 84.5727 243.826 82.9195 241.622C82.3685 240.887 82.5522 239.969 83.2869 239.418C84.0217 238.867 84.9401 239.05 85.4912 239.785C87.1444 242.173 90.0834 247.133 91.3692 249.888C91.7366 250.623 91.3692 251.541 90.6345 251.909C90.2671 252.092 90.0834 252.276 89.8997 252.276Z" fill="black"/>
<path d="M129.759 264.583C129.208 264.583 128.657 264.215 128.473 263.664C128.106 262.93 128.473 262.011 129.208 261.644C131.045 260.725 133.8 259.256 136.372 257.786C138.943 256.317 141.699 254.847 143.536 253.929C144.27 253.562 145.189 253.929 145.556 254.664C145.924 255.398 145.556 256.317 144.822 256.684C142.985 257.603 140.229 259.072 137.658 260.542C135.086 262.011 132.331 263.481 130.494 264.399C130.31 264.399 130.126 264.583 129.759 264.583Z" fill="black"/>
<path d="M61.0592 216.824C60.8755 216.824 60.6918 216.824 60.3244 216.64C59.5897 216.272 59.2223 215.354 59.5897 214.619C59.7734 214.068 65.6514 202.312 73.1826 195.883C73.7337 195.332 74.8358 195.332 75.3869 196.067C75.938 196.618 75.938 197.72 75.2032 198.271C68.223 204.333 62.5287 215.905 62.345 216.089C62.1613 216.456 61.6103 216.824 61.0592 216.824Z" fill="black"/>
<g opacity="0.6">
<g opacity="0.6">
<g opacity="0.6">
<g opacity="0.6">
<path opacity="0.6" d="M188.723 170.534C188.355 170.534 187.988 170.351 187.621 170.167C184.865 168.514 181.559 167.779 178.253 168.146C176.967 168.33 175.865 167.412 175.865 166.309C175.681 165.024 176.599 163.921 177.701 163.921C181.926 163.37 186.151 164.289 189.825 166.493C190.927 167.044 191.294 168.514 190.56 169.432C190.192 170.167 189.458 170.534 188.723 170.534Z" fill="#B4E100"/>
</g>
</g>
</g>
</g>
<path d="M119.105 261.644C118.554 261.644 117.819 261.46 117.452 260.909C115.064 258.337 110.656 256.317 106.431 255.95C105.145 255.95 104.226 254.847 104.41 253.562C104.41 252.276 105.512 251.357 106.798 251.541C112.125 251.908 117.636 254.48 120.758 257.97C121.493 258.889 121.493 260.174 120.575 261.093C120.207 261.46 119.656 261.644 119.105 261.644Z" fill="#FF5A5A"/>
<path d="M242.546 333.283C242.362 333.283 241.994 333.283 241.811 333.099C232.81 329.793 225.463 325.751 221.238 321.527C220.319 320.608 220.319 319.322 221.238 318.404C222.156 317.485 223.442 317.485 224.36 318.404C228.218 322.078 235.014 325.751 243.464 328.874C244.566 329.242 245.117 330.527 244.75 331.63C244.382 332.732 243.464 333.283 242.546 333.283Z" fill="#B4E100"/>
<path d="M127.005 281.666C126.454 281.666 125.903 281.482 125.351 280.931C124.984 280.564 124.617 280.013 124.617 279.278C124.617 279.094 124.617 278.911 124.617 278.911C124.617 278.727 124.617 278.727 124.8 278.543C124.8 278.36 124.984 278.36 124.984 278.176C124.984 277.992 125.168 277.992 125.168 277.809C126.086 277.074 127.372 277.074 128.29 277.809C128.474 277.992 128.474 277.992 128.474 278.176C128.474 278.36 128.658 278.36 128.658 278.543C128.658 278.727 128.842 278.727 128.842 278.911C128.842 279.094 128.842 279.278 128.842 279.278C128.842 279.829 128.658 280.38 128.29 280.931C128.107 281.482 127.556 281.666 127.005 281.666Z" fill="black"/>
<path d="M122.229 319.506C121.678 319.506 120.943 319.322 120.575 318.771C119.841 317.853 119.841 316.383 120.759 315.649C126.637 310.689 130.862 309.403 134.536 308.301C138.393 307.199 141.516 306.281 146.292 300.77C147.027 299.851 148.496 299.851 149.415 300.586C150.333 301.321 150.333 302.79 149.598 303.709C144.088 309.954 140.046 311.24 135.822 312.526C132.332 313.628 128.841 314.547 123.698 318.955C123.331 319.322 122.78 319.506 122.229 319.506Z" fill="black"/>
<path d="M195.52 177.147C195.52 177.147 206.174 178.066 210.399 168.147C214.991 157.125 228.584 174.392 223.073 178.25C221.053 179.719 207.276 183.025 205.99 193.679" fill="#8CC800"/>
<path d="M205.991 195.883C205.807 195.883 205.807 195.883 205.623 195.883C204.338 195.7 203.603 194.598 203.787 193.312C205.072 183.576 215.175 179.351 219.951 177.331C220.686 176.964 221.604 176.596 221.972 176.412C222.706 176.045 222.339 174.576 222.155 174.024C221.237 170.534 217.563 166.861 215.175 166.677C214.808 166.677 213.706 166.493 212.604 168.881C208.746 177.882 199.745 179.535 195.521 179.168C194.235 178.984 193.316 178.066 193.5 176.78C193.684 175.494 194.602 174.759 195.888 174.759C196.255 174.759 205.072 175.31 208.562 167.044C210.583 162.452 213.706 162.085 215.359 162.085C220.135 162.452 224.911 167.963 226.38 172.555C227.299 175.678 226.564 178.249 224.543 179.719C223.992 180.086 223.074 180.454 221.788 181.005C217.379 182.842 209.297 186.332 208.379 193.495C208.011 194.965 207.093 195.883 205.991 195.883Z" fill="black"/>
<path d="M219.303 175.379C220.189 174.7 219.855 172.779 218.558 171.089C217.262 169.398 215.493 168.579 214.607 169.258C213.722 169.937 214.055 171.858 215.352 173.548C216.649 175.239 218.418 176.058 219.303 175.379Z" fill="black"/>
</svg>
