<svg width="82" height="103" viewBox="0 0 82 103" fill="none" xmlns="http://www.w3.org/2000/svg">
<path d="M47.9455 49.1217C47.8379 49.119 47.7326 49.0897 47.6389 49.0366C47.4909 48.9508 47.3827 48.8097 47.3379 48.6442C47.2932 48.4787 47.3155 48.3021 47.4 48.153C47.4004 48.1367 48.4033 46.3341 47.505 44.7162C47.2023 44.166 46.7199 43.8812 46.1611 43.5512C45.5131 43.1738 44.7799 42.7364 44.2346 41.8347C43.6893 40.933 43.6258 40.0373 43.5743 39.2414C43.473 37.8832 43.4129 37.0654 41.1788 36.5255C41.0125 36.4851 40.8689 36.3803 40.7794 36.234C40.6899 36.0877 40.6617 35.9119 40.701 35.7448C40.7414 35.5776 40.8461 35.4333 40.9924 35.3434C41.1386 35.2536 41.3145 35.2256 41.4813 35.2656C44.6306 36.0245 44.7537 37.6819 44.8615 39.1471C44.915 39.8597 44.9658 40.5343 45.346 41.166C45.7263 41.7977 46.2264 42.092 46.8246 42.4374C47.4545 42.8144 48.1683 43.2314 48.6425 44.0898C49.8971 46.3587 48.5853 48.7043 48.5306 48.8025C48.4713 48.9041 48.3855 48.9876 48.2824 49.0438C48.1793 49.1001 48.0628 49.127 47.9455 49.1217V49.1217Z" fill="black"/>
<path d="M56.0692 47.4881C55.9624 47.4868 55.8576 47.4588 55.7643 47.4067C55.671 47.3545 55.5922 47.2798 55.5349 47.1894C55.4635 47.0791 53.8098 44.4423 54.3665 41.82C54.5858 40.7916 55.1969 40.1363 55.7359 39.5572C56.2285 39.0259 56.6933 38.5319 56.8866 37.7617C57.0867 36.9374 56.9685 36.1345 56.8477 35.3696C56.611 33.8616 56.343 32.1501 58.9395 30.8794C59.0158 30.842 59.0986 30.8199 59.1834 30.8146C59.2681 30.8093 59.3531 30.8208 59.4334 30.8484C59.5137 30.876 59.5877 30.9192 59.6513 30.9756C59.715 31.032 59.7669 31.1004 59.8041 31.1769C59.879 31.3312 59.8898 31.5089 59.8342 31.6711C59.7786 31.8334 59.6611 31.9669 59.5075 32.0424C57.7691 32.8953 57.8962 33.702 58.1249 35.1682C58.2597 36.0258 58.4117 36.9978 58.1406 38.0793C57.8695 39.1608 57.2378 39.8481 56.6822 40.4431C56.1952 40.9637 55.7748 41.4153 55.6325 42.089C55.1857 44.1854 56.6114 46.4692 56.6253 46.493C56.6718 46.5652 56.7035 46.6459 56.7185 46.7305C56.7336 46.8151 56.7317 46.9018 56.7129 46.9857C56.6941 47.0695 56.6588 47.1488 56.6091 47.2188C56.5594 47.2887 56.4963 47.3481 56.4234 47.3933C56.317 47.4586 56.1939 47.4915 56.0692 47.4881V47.4881Z" fill="black"/>
<path d="M53.0068 17.0794C57.1352 13.3145 63.8372 15.557 65.1058 20.5795C66.7557 27.1044 60.2898 31.6464 54.8396 29.2055C49.8394 27.1971 48.8635 20.3334 53.0068 17.0794Z" fill="white"/>
<path d="M57.7436 30.2971C56.6837 30.2735 55.639 30.0389 54.6703 29.6069C53.4417 29.1105 52.3672 28.2949 51.557 27.244C50.7468 26.1931 50.2302 24.9448 50.0603 23.6273C49.6783 20.9374 50.676 18.3671 52.7267 16.7487C53.728 15.8464 54.9464 15.2214 56.2618 14.9352C57.5772 14.649 58.9442 14.7115 60.2281 15.1166C62.898 15.9239 64.8772 17.9276 65.5152 20.477C66.2855 23.529 65.3812 26.5015 63.0993 28.4295C61.5995 29.6838 59.6957 30.3477 57.7436 30.2971ZM58.052 15.6297C56.298 15.5806 54.5931 16.2141 53.2942 17.3975L53.2703 17.4187C51.4552 18.8454 50.5746 21.1198 50.9132 23.5063C51.063 24.6745 51.5204 25.7815 52.2383 26.7135C52.9562 27.6455 53.9087 28.3689 54.9978 28.8092L55.0141 28.8096C56.2432 29.3562 57.6003 29.5476 58.9322 29.362C60.2641 29.1765 61.5179 28.6214 62.5521 27.7594C64.6074 26.0252 65.3852 23.4443 64.6874 20.68C64.1182 18.4273 62.3592 16.6533 59.9795 15.9343C59.3535 15.7467 58.7052 15.6443 58.052 15.6297V15.6297Z" fill="black"/>
<path d="M63.1621 28.6301C63.9764 29.6776 61.5265 31.4639 59.2206 31.7459C56.9146 32.0279 53.0449 30.7486 53.6279 29.1478C54.0133 28.1179 54.9194 28.7205 57.2433 28.8987C60.9849 29.1884 62.3952 27.6362 63.1621 28.6301Z" fill="#8CC800"/>
<path d="M58.3585 32.2142C56.571 32.1718 54.3383 31.4961 53.492 30.4261C53.3221 30.2356 53.2068 30.0024 53.1584 29.7514C53.11 29.5003 53.1304 29.2408 53.2172 29.0005C53.6034 27.938 54.4808 28.0783 55.5919 28.2567C56.0414 28.3271 56.5988 28.4164 57.2669 28.4775C58.6006 28.5799 59.942 28.4476 61.2304 28.0864C62.1871 27.8503 62.9441 27.6619 63.4957 28.3737C63.6319 28.5504 63.7166 28.7613 63.7407 28.9833C63.7647 29.2052 63.727 29.4295 63.6319 29.6314C63.1552 30.784 61.1549 31.9529 59.2652 32.1832C58.9641 32.2157 58.6611 32.226 58.3585 32.2142V32.2142ZM54.515 28.9932C54.1723 28.9851 54.1051 29.0795 54.026 29.2966C53.9816 29.4186 53.948 29.6133 54.1671 29.8901C54.882 30.7922 57.449 31.5265 59.1613 31.3173C60.8446 31.1111 62.5191 30.0593 62.8369 29.2903C62.8736 29.2301 62.8914 29.1602 62.8879 29.0897C62.8845 29.0193 62.8599 28.9515 62.8174 28.8952V28.8952C62.6282 28.6536 62.3712 28.6855 61.4363 28.9167C60.0589 29.2981 58.6263 29.438 57.2015 29.3303C56.499 29.2757 55.92 29.1841 55.4562 29.1079C55.1474 29.0511 54.8356 29.0129 54.5222 28.9934L54.515 28.9932Z" fill="black"/>
<path d="M28.3275 15.9452C32.0853 7.79287 43.5629 6.45424 49.0358 13.2617C55.5114 21.3166 49.2538 34.1124 38.5795 33.4681C29.5972 33.0123 24.5739 23.4587 28.3275 15.9452Z" fill="white"/>
<path d="M39.0295 33.915C38.8726 33.9113 38.7139 33.9075 38.5534 33.9037C36.4751 33.8196 34.4522 33.2081 32.674 32.1262C30.8958 31.0443 29.4204 29.5276 28.386 27.7179C27.323 25.9205 26.7251 23.8849 26.647 21.7964C26.5689 19.7079 27.013 17.6329 27.9389 15.7604C29.7634 11.8106 33.5233 9.12122 37.9997 8.56676C42.4488 8.01527 46.6992 9.67828 49.3708 12.9999C52.5265 16.9141 52.9829 22.2449 50.5838 26.9088C48.2814 31.3759 43.8852 34.0302 39.0295 33.915ZM39.9742 9.31957C39.3493 9.30557 38.7243 9.33733 38.104 9.41457C33.9228 9.9326 30.4144 12.4396 28.7172 16.121L28.7169 16.1337C27.8549 17.8774 27.4414 19.8096 27.5141 21.7544C27.5868 23.6992 28.1433 25.5948 29.133 27.2686C30.0972 28.9541 31.4721 30.3665 33.129 31.3736C34.786 32.3807 36.6706 32.9496 38.6066 33.027C43.3065 33.3196 47.6036 30.8113 49.8229 26.498C52.0631 22.1435 51.6361 17.1717 48.705 13.5272C46.5906 10.912 43.4228 9.40685 39.9759 9.32505L39.9742 9.31957Z" fill="black"/>
<path d="M39.6543 3.9268C35.1248 3.83378 31.3622 6.4796 30.0779 8.27555C30.0107 8.3717 29.4258 7.9994 29.4765 7.8395C30.2468 5.42134 34.4908 1.11802 39.7403 1.21726C40.4833 1.24032 40.2694 3.94139 39.6543 3.9268Z" fill="black"/>
<path d="M56.3969 9.45405C59.3625 9.66743 61.6623 11.6226 62.3924 12.8745C62.4323 12.9406 62.8379 12.733 62.8134 12.6256C62.4549 10.9989 59.9398 7.92893 56.5058 7.67909C56.0157 7.64755 55.9933 9.42456 56.3969 9.45405Z" fill="black"/>
<path d="M32.5386 32.72C31.9442 34.9523 37.6327 36.7056 41.6296 36.0474C45.6265 35.3892 50.8449 31.3208 49.0363 29.8877C48.0903 29.1412 47.2791 30.5466 43.3883 31.6742C36.6974 33.6043 33.0957 30.6154 32.5386 32.72Z" fill="#8CC800"/>
<path d="M39.4701 36.6098C36.6941 36.5439 33.7844 35.6494 32.6238 34.3639C31.9996 33.6702 32.0023 33.0223 32.1152 32.6014C32.4774 31.256 33.7492 31.431 35.361 31.6539C37.1203 31.8966 39.779 32.262 43.2609 31.2531C44.507 30.8936 45.7143 30.4105 46.8649 29.8109C47.8861 29.2921 48.5616 28.9624 49.295 29.5427C49.5193 29.7154 49.6854 29.953 49.7706 30.2234C49.8559 30.4938 49.8563 30.784 49.7717 31.0546C49.2489 33.0859 45.0199 35.9179 41.6913 36.4743C40.9567 36.5887 40.2131 36.634 39.4701 36.6098V36.6098ZM33.839 32.3617C33.2564 32.3479 33.0422 32.475 32.9473 32.8257C32.8622 33.1423 32.9666 33.4543 33.262 33.7835C34.5545 35.2152 38.5833 36.1055 41.5531 35.6094C44.7419 35.0841 48.5382 32.3866 48.9378 30.8339C49.0275 30.474 48.8993 30.3244 48.7611 30.2161C48.483 29.9959 48.2427 30.0807 47.2509 30.5785C46.0534 31.2027 44.7966 31.7053 43.4993 32.0787C39.843 33.1378 37.0764 32.7553 35.2451 32.5037C34.7792 32.4324 34.3098 32.385 33.839 32.3617Z" fill="black"/>
<path d="M77.5215 96.6933C75.5764 95.6118 72.3697 94.8351 68.1056 91.3164C61.6979 86.0272 60.4176 74.1187 63.203 68.5372C64.6945 65.5424 66.448 61.0822 65.2119 55.2985C64.0268 49.7205 61.7958 47.1478 57.7806 45.7619C53.1408 44.1584 48.5113 46.0687 46.6977 50.7773C45.3512 54.2805 45.8287 57.7365 47.7431 61.9398C49.419 65.6198 51.2068 68.0787 51.217 73.7356C51.2292 94.6647 20.9588 94.788 2.228 94.4503C1.17642 94.4253 0.55912 95.5692 1.28083 96.3375C2.82476 97.9743 6.96693 100.093 12.9167 100.341C23.2984 100.768 23.7417 99.2762 32.0589 99.3143C40.2588 99.3514 42.7831 101.05 53.2646 101.298C62.7396 101.523 73.005 100.462 76.8672 100.005C77.2836 99.9554 77.6688 99.759 77.9539 99.4506C78.239 99.1423 78.4053 98.7423 78.4231 98.3221C78.4391 97.9933 78.3632 97.6666 78.2039 97.3788C78.0446 97.091 77.8082 96.8536 77.5215 96.6933V96.6933Z" fill="#8CC800"/>
<path d="M14.5367 101.038C14.0172 101.026 13.4706 101.013 12.8956 100.985C7.06104 100.747 2.62297 98.7009 0.811489 96.779C0.573018 96.5355 0.412855 96.2259 0.351653 95.8901C0.290451 95.5544 0.33104 95.2079 0.468183 94.8955C0.622778 94.558 0.873394 94.2738 1.18854 94.0787C1.50369 93.8836 1.86928 93.7863 2.23939 93.799C14.2412 94.0186 36.5815 94.433 46.0266 85.1195C49.0443 82.1465 50.5736 78.3164 50.5705 73.7348C50.5674 69.2257 49.4003 66.8412 48.0491 64.0813C47.7565 63.4842 47.4535 62.867 47.1551 62.2101C45.0745 57.6354 44.7482 54.0436 46.0945 50.5458C47.9966 45.6076 52.8896 43.3887 57.9914 45.1497C62.3789 46.6658 64.6544 49.5671 65.8426 55.1651C67.1137 61.1524 65.2737 65.8314 63.7804 68.8279C62.454 71.4863 62.095 75.7388 62.8421 79.9253C63.6799 84.6208 65.6942 88.4898 68.5158 90.8176C71.5462 93.3187 74.0665 94.4175 75.9082 95.2215C76.6423 95.5412 77.2764 95.8187 77.834 96.1288C78.227 96.3454 78.5516 96.6682 78.7707 97.0606C78.9899 97.453 79.0947 97.8992 79.0735 98.3485C79.0523 98.924 78.8261 99.4727 78.4359 99.8953C78.0457 100.318 77.5175 100.586 76.947 100.651C73.007 101.117 62.8121 102.177 53.2541 101.95C49.3036 101.866 45.3647 101.493 41.4684 100.834C38.6562 100.396 36.0004 99.9799 32.061 99.9661C29.4239 99.9383 26.7887 100.118 24.1795 100.503C20.9876 100.97 17.7604 101.149 14.5367 101.038ZM54.7856 45.8574C51.4721 45.7788 48.592 47.6708 47.3053 51.0107C46.0764 54.2 46.3852 57.3877 48.3355 61.6715C48.6272 62.3102 48.9249 62.92 49.2143 63.5025C50.5775 66.2881 51.8651 68.918 51.8592 73.7292C51.861 78.6709 50.1998 82.8111 46.9289 86.037C42.7173 90.1872 35.9676 92.8472 26.2899 94.1652C18.162 95.2738 9.59981 95.2172 2.21239 95.089C2.09667 95.081 1.98119 95.1076 1.88055 95.1655C1.77991 95.2233 1.69866 95.3099 1.64703 95.414C1.61148 95.4928 1.60209 95.5809 1.62023 95.6654C1.63836 95.7499 1.68306 95.8263 1.74776 95.8834C3.33249 97.5502 7.50309 99.4593 12.9445 99.6844C18.6691 99.918 21.3829 99.5588 24.0062 99.212C26.6737 98.8194 29.3673 98.634 32.0632 98.6574C36.1 98.6754 38.8026 99.0961 41.6634 99.5405C44.749 100.019 47.9389 100.515 53.2815 100.642C62.7566 100.867 72.8809 99.8144 76.7938 99.3515C77.0574 99.3215 77.3017 99.1979 77.4825 99.003C77.6632 98.8081 77.7684 98.5547 77.7791 98.2888C77.7892 98.0802 77.7408 97.873 77.6392 97.6907C77.5376 97.5084 77.3869 97.3585 77.2044 97.2579V97.2579C76.7003 96.978 76.093 96.712 75.3892 96.4057C73.4779 95.5711 70.8611 94.4301 67.6908 91.8135C64.6321 89.29 62.4582 85.1475 61.568 80.1503C60.7619 75.6348 61.1563 71.184 62.6212 68.2447C64.1377 65.1817 65.7484 60.9589 64.5746 55.4391C63.4806 50.2832 61.5087 47.742 57.5706 46.3797C56.6745 46.0633 55.7352 45.8871 54.7856 45.8574V45.8574Z" fill="black"/>
<path d="M46.3615 70.5179C50.8952 78.8001 47.5574 86.5135 43.1386 89.3628C41.9362 90.1379 37.2567 91.8786 37.2567 91.8786C37.2567 91.8786 34.2536 93.8546 28.2301 94.2782C23.8355 94.5867 19.8007 92.8111 16.1421 88.8687C11.9083 84.3008 9.20717 71.4246 20.4165 64.3523C29.7606 58.4613 41.3936 61.4453 46.3615 70.5179Z" fill="#E62828"/>
<path d="M42.3917 70.3766C42.297 70.3743 42.204 70.3512 42.1192 70.3088C42.0345 70.2664 41.96 70.2059 41.9012 70.1315C39.2641 66.7998 35.27 64.9057 30.647 64.796L30.5857 64.7945C30.4149 64.79 30.2528 64.718 30.1347 64.5942C30.0167 64.4703 29.9522 64.3047 29.9553 64.1334C29.9571 64.0483 29.9755 63.9644 30.0096 63.8865C30.0437 63.8086 30.0928 63.7382 30.154 63.6793C30.2153 63.6204 30.2874 63.5742 30.3665 63.5433C30.4455 63.5124 30.5298 63.4974 30.6146 63.4992L30.6778 63.5007C35.6903 63.6196 40.0341 65.6849 42.913 69.3228C43.0167 69.4571 43.0638 69.6267 43.0443 69.7954C43.0248 69.9641 42.9401 70.1185 42.8086 70.2254C42.6915 70.3231 42.544 70.3766 42.3917 70.3766V70.3766Z" fill="#FF5A5A"/>
<path d="M19.7681 69.7058C19.6567 69.7031 19.548 69.6717 19.4523 69.6146C19.3566 69.5575 19.2772 69.4765 19.2217 69.3797C17.4249 66.2326 14.6093 64.3376 11.2937 64.0453C11.1232 64.0301 10.9658 63.9476 10.8559 63.8161C10.746 63.6845 10.6927 63.5145 10.7076 63.3435C10.7149 63.2587 10.7388 63.1762 10.7779 63.1006C10.817 63.025 10.8706 62.9579 10.9356 62.9032C11.0006 62.8484 11.0757 62.807 11.1567 62.7814C11.2376 62.7557 11.3228 62.7463 11.4074 62.7537C15.1552 63.0852 18.3299 65.2097 20.3433 68.7347C20.4282 68.884 20.4507 69.0609 20.4059 69.2267C20.361 69.3926 20.2524 69.5338 20.104 69.6196C20.0019 69.6785 19.8858 69.7083 19.7681 69.7058V69.7058Z" fill="black"/>
<path d="M27.5093 94.8367C26.4313 94.8146 25.3576 94.6928 24.3019 94.4728C20.1805 93.6075 16.8488 91.2567 14.3953 87.4895C13.1253 85.5526 12.2828 83.3656 11.9245 81.0753C11.5661 78.785 11.7 76.4442 12.3173 74.2099C13.6183 69.3535 17.0206 65.2329 21.653 62.8919C25.2333 61.0817 29.6389 60.3898 33.7395 60.9903C38.1656 61.6384 41.9907 63.733 44.5129 66.8863C46.9071 69.881 48.3652 73.4617 48.6195 76.9667C48.9117 81.0048 47.6261 84.9077 44.9051 88.2317C44.7966 88.3633 44.6408 88.4467 44.4714 88.4637C44.302 88.4807 44.1328 88.4299 44.0006 88.3225C43.8693 88.2137 43.7862 88.0574 43.7693 87.8875C43.7524 87.7176 43.803 87.5479 43.9102 87.4152C49.6333 80.4101 47.4552 72.64 43.5081 67.7024C38.3726 61.2776 28.66 60.8009 22.2302 64.0478C17.9265 66.2246 14.7676 70.0505 13.56 74.5472C12.9912 76.6053 12.8676 78.7616 13.1976 80.8714C13.5276 82.9812 14.3035 84.9959 15.4733 86.7802C20.7111 94.8256 29.0636 93.9812 33.5771 92.7724C39.1497 91.2755 41.6218 85.3607 41.1805 80.3036C40.805 75.9739 38.1853 71.1511 31.9629 70.5998C27.3759 70.194 23.1938 74.0897 22.6548 77.7135C22.305 80.0584 23.5093 82.699 25.5831 84.1384C26.7176 84.9274 29.0745 85.997 32.1015 84.3058C32.6501 83.9973 33.1283 83.5772 33.5055 83.0724C33.8827 82.5676 34.1505 81.9893 34.2916 81.3746C34.4251 80.8444 34.4466 80.2921 34.3546 79.7531C34.2627 79.2141 34.0593 78.7004 33.7577 78.2449C33.0056 77.1591 31.9556 76.6871 30.8792 76.9511C30.4162 77.0555 29.9953 77.2971 29.671 77.6444C29.3467 77.9918 29.134 78.429 29.0606 78.8991C29.0496 78.9835 29.0222 79.0649 28.9798 79.1386C28.9374 79.2123 28.8811 79.2769 28.8138 79.3288C28.7465 79.3807 28.6697 79.4187 28.5878 79.4408C28.5059 79.4629 28.4204 79.4686 28.3363 79.4576C28.1668 79.4353 28.013 79.3465 27.9086 79.2107C27.8043 79.0749 27.7579 78.9031 27.7796 78.733C27.8876 78.0037 28.2118 77.3239 28.71 76.7818C29.2082 76.2397 29.8574 75.8603 30.5733 75.6931C32.1744 75.3003 33.761 75.9787 34.8184 77.5062C35.2228 78.1106 35.4969 78.793 35.6232 79.5098C35.7494 80.2266 35.725 80.962 35.5516 81.6688C35.3686 82.4596 35.0231 83.2034 34.5372 83.8526C34.0513 84.5019 33.4357 85.0423 32.7297 85.4393C30.0722 86.9221 27.1992 86.8376 24.8467 85.2034C22.3468 83.4679 20.951 80.381 21.3763 77.5185C21.6984 75.3539 23.0309 73.1989 25.0344 71.5938C27.1427 69.9025 29.6454 69.0894 32.0766 69.3064C35.1275 69.5761 37.7178 70.8468 39.5695 72.9778C41.2243 74.8869 42.228 77.3852 42.4665 80.1875C42.9526 85.7851 40.1695 92.3351 33.9103 94.0202C31.8255 94.5929 29.6706 94.8678 27.5093 94.8367Z" fill="black"/>
<path fill-rule="evenodd" clip-rule="evenodd" d="M25.6686 61.3544C27.4932 57.553 25.9123 52.6824 25.6116 52.7278C25.1933 52.7903 21.5214 53.82 19.0641 55.9157C16.0725 58.4712 15.2725 62.373 18.0703 63.6449C21.9591 65.4134 24.3527 64.1 25.6686 61.3544Z" fill="#B4E100"/>
<path d="M21.1637 64.8787C20.1681 64.855 19.0738 64.5738 17.8936 64.0372C17.3749 63.8163 16.9229 63.463 16.5824 63.0126C16.242 62.5622 16.025 62.0302 15.9531 61.4696C15.6891 59.588 16.8016 57.2776 18.7855 55.5833C21.322 53.4188 25.1263 52.3615 25.5409 52.3044C25.6369 52.2913 25.7346 52.3063 25.8223 52.3476C25.91 52.3888 25.984 52.4546 26.0353 52.5369C26.5599 53.2445 27.8203 57.8576 26.0525 61.5464C25.2936 63.1068 24.2675 64.1359 22.9751 64.6012C22.3935 64.8049 21.7794 64.8989 21.1637 64.8787V64.8787ZM25.4345 53.2141C24.5263 53.4587 21.4345 54.4587 19.3436 56.2482C17.6047 57.7329 16.5851 59.7849 16.8059 61.3559C16.8578 61.7721 17.0188 62.1671 17.2724 62.5006C17.526 62.8341 17.8632 63.0943 18.2497 63.2546C19.321 63.7416 20.2968 63.9965 21.1698 64.0172C22.9735 64.06 24.3532 63.1098 25.2817 61.1715C26.8179 57.966 25.8249 54.1013 25.4346 53.2105L25.4345 53.2141Z" fill="black"/>
<path d="M30.6688 71.8108C30.569 71.8085 30.473 71.7714 30.3975 71.7059C30.3219 71.6403 30.2716 71.5504 30.255 71.4516C30.19 71.0717 30.1261 70.6484 30.0573 70.1997C29.9017 69.1534 29.7187 67.9652 29.5011 67.0966C29.4871 67.0416 29.484 66.9844 29.4921 66.9282C29.5002 66.872 29.5193 66.8179 29.5483 66.7691C29.5773 66.7204 29.6156 66.6778 29.6611 66.644C29.7065 66.6101 29.7583 66.5856 29.8132 66.5718C29.9239 66.5439 30.0412 66.5611 30.1393 66.6198C30.2374 66.6784 30.3082 66.7737 30.3363 66.8847C30.5638 67.7952 30.7481 69.0033 30.9086 70.0697C30.9775 70.5148 31.0416 70.9345 31.1031 71.307C31.1222 71.4198 31.0959 71.5355 31.0301 71.6289C30.9643 71.7224 30.8643 71.7858 30.752 71.8055C30.7245 71.8099 30.6966 71.8116 30.6688 71.8108V71.8108Z" fill="black"/>
<path d="M27.6245 72.4571C27.5429 72.4555 27.4635 72.4307 27.3955 72.3855C27.3276 72.3403 27.2739 72.2766 27.2407 72.2019C26.7685 71.1926 26.2361 70.2128 25.6464 69.2678C25.5837 69.1722 25.5614 69.0555 25.5844 68.9434C25.6073 68.8313 25.6737 68.7329 25.7688 68.6698C25.8642 68.6069 25.9805 68.5846 26.0922 68.6076C26.204 68.6306 26.3021 68.6971 26.3651 68.7925C26.9806 69.7778 27.5355 70.7999 28.0268 71.8531C28.0732 71.9577 28.0764 72.0764 28.0356 72.1834C27.9949 72.2903 27.9135 72.3767 27.8093 72.4235C27.751 72.4486 27.6878 72.4601 27.6245 72.4571V72.4571Z" fill="black"/>
<path d="M39.365 76.4321C39.2854 76.4301 39.2079 76.4061 39.141 76.3626C39.0742 76.3192 39.0207 76.2581 38.9864 76.186C38.9378 76.0827 38.9319 75.9644 38.97 75.8568C39.008 75.7492 39.0869 75.661 39.1895 75.6115C39.7372 75.3494 40.543 74.9305 41.3233 74.5254C42.1035 74.1204 42.9239 73.6964 43.4807 73.429C43.5827 73.3785 43.7005 73.3706 43.8082 73.4071C43.9159 73.4436 44.0048 73.5215 44.0554 73.6236C44.1057 73.7259 44.1136 73.8441 44.0772 73.9521C44.0408 74.0602 43.9631 74.1494 43.8612 74.2001C43.3136 74.4604 42.5096 74.8794 41.7294 75.2844C40.9491 75.6895 40.1287 76.1135 39.5701 76.3808C39.5073 76.4155 39.4366 76.4331 39.365 76.4321V76.4321Z" fill="black"/>
<path d="M19.3866 61.6923C19.3208 61.6906 19.2563 61.6736 19.1983 61.6426C19.1481 61.6165 19.1036 61.5807 19.0673 61.5374C19.0309 61.494 19.0034 61.4438 18.9864 61.3898C18.9694 61.3357 18.9632 61.2789 18.9682 61.2224C18.9732 61.166 18.9892 61.111 19.0154 61.0608C19.0911 60.9142 20.9056 57.4601 23.1714 55.6023C23.215 55.5663 23.2652 55.5393 23.3192 55.5229C23.3732 55.5064 23.43 55.5007 23.4862 55.5063C23.5424 55.5118 23.5969 55.5284 23.6467 55.5551C23.6965 55.5818 23.7405 55.6181 23.7763 55.6619C23.8489 55.7506 23.8833 55.8645 23.8722 55.9786C23.861 56.0927 23.8051 56.1977 23.7168 56.2705C21.5909 58.0139 19.8044 61.4271 19.7783 61.4608C19.7412 61.5323 19.6848 61.5919 19.6155 61.6328C19.5463 61.6737 19.4669 61.6943 19.3866 61.6923V61.6923Z" fill="black"/>
<g style="mix-blend-mode:screen" opacity="0.6">
<path d="M57.5362 48.9728C57.4201 48.9699 57.3069 48.936 57.2083 48.8745C56.3818 48.356 55.4074 48.1267 54.4372 48.2222C54.3526 48.2309 54.2671 48.2226 54.1857 48.1981C54.1043 48.1735 54.0285 48.133 53.9627 48.079C53.8969 48.0249 53.8424 47.9584 53.8023 47.8832C53.7622 47.808 53.7373 47.7256 53.7291 47.6407C53.7205 47.5559 53.7286 47.4704 53.753 47.3888C53.7774 47.3072 53.8177 47.2313 53.8713 47.1653C53.925 47.0993 53.9912 47.0446 54.066 47.0043C54.1407 46.964 54.2227 46.9388 54.3072 46.9303C55.5638 46.8068 56.8258 47.1034 57.8967 47.774C57.9687 47.8191 58.0311 47.8781 58.0803 47.9474C58.1295 48.0168 58.1647 48.0952 58.1837 48.1782C58.2026 48.2612 58.2051 48.3472 58.191 48.4312C58.1768 48.5151 58.1462 48.5955 58.1011 48.6676C58.0415 48.7633 57.958 48.8417 57.859 48.8953C57.7599 48.9488 57.6486 48.9755 57.5362 48.9728V48.9728Z" fill="#B4E100"/>
</g>
<path d="M36.2145 75.4994C36.124 75.4977 36.0349 75.4767 35.9531 75.438C35.8713 75.3992 35.7986 75.3435 35.7398 75.2745C35.0371 74.465 33.7472 73.837 32.5174 73.7155C32.4329 73.7076 32.3508 73.6829 32.2758 73.643C32.2008 73.6031 32.1345 73.5488 32.0805 73.4831C32.0266 73.4174 31.9861 73.3416 31.9614 73.2602C31.9368 73.1787 31.9284 73.0932 31.9368 73.0085C31.9542 72.8375 32.0383 72.6804 32.1707 72.5713C32.3031 72.4623 32.4731 72.4101 32.6437 72.4261C34.2065 72.5808 35.8067 73.3682 36.7182 74.4289C36.8298 74.5591 36.8855 74.7285 36.873 74.8998C36.8605 75.0712 36.7808 75.2306 36.6513 75.3432C36.53 75.4477 36.3744 75.5033 36.2145 75.4994V75.4994Z" fill="#FF5A5A"/>
<path d="M38.3865 81.5406C38.2154 81.536 38.053 81.4639 37.9347 81.3398C37.8168 81.2154 37.7526 81.0493 37.7561 80.8776C37.7569 80.8351 37.7621 80.7927 37.7718 80.7513C37.7809 80.71 37.794 80.6697 37.8107 80.6309C37.8286 80.5925 37.8494 80.5555 37.8729 80.5202C37.8973 80.4854 37.9253 80.4533 37.9564 80.4244C38.0805 80.3061 38.2461 80.2418 38.4172 80.2453C38.5885 80.2495 38.751 80.3217 38.8691 80.4461C38.8978 80.4773 38.9241 80.5106 38.9479 80.5457C38.9699 80.5817 38.9883 80.6197 39.003 80.6592C39.0184 80.6987 39.0302 80.7396 39.038 80.7813C39.0448 80.8233 39.048 80.8658 39.0476 80.9083C39.046 80.9508 39.0408 80.993 39.032 81.0346C39.0219 81.0758 39.0083 81.1161 38.9912 81.1549C38.9743 81.1935 38.9541 81.2306 38.9308 81.2657C38.905 81.2993 38.8771 81.3313 38.8474 81.3615C38.7235 81.4801 38.5577 81.5445 38.3865 81.5406V81.5406Z" fill="black"/>
<path d="M36.6895 92.7123C36.5947 92.7104 36.5016 92.6874 36.4168 92.6451C36.332 92.6027 36.2576 92.5419 36.199 92.4672C36.0925 92.3323 36.0438 92.1606 36.0634 91.9897C36.083 91.8188 36.1695 91.6627 36.3037 91.5556C38.0916 90.1354 39.325 89.799 40.4131 89.5026C41.5684 89.1879 42.4821 88.9381 43.934 87.3796C44.0508 87.2541 44.2124 87.1802 44.3834 87.174C44.5544 87.1679 44.7209 87.2301 44.8462 87.347C44.9083 87.4051 44.9583 87.4749 44.9935 87.5525C45.0286 87.63 45.0482 87.7138 45.051 87.7989C45.0539 87.8841 45.0399 87.9689 45.01 88.0487C44.9801 88.1284 44.9349 88.2015 44.8768 88.2636C43.1748 90.0913 41.9977 90.4127 40.7516 90.7524C39.4078 91.0608 38.156 91.6843 37.0989 92.5718C36.9824 92.6641 36.8379 92.7137 36.6895 92.7123Z" fill="black"/>
<path d="M71.8007 97.5496C71.7237 97.5474 71.6477 97.5315 71.5762 97.5027C68.9304 96.4425 66.8021 95.1684 65.5792 93.9211C65.4593 93.7981 65.3929 93.6325 65.3946 93.4605C65.3964 93.2885 65.466 93.1242 65.5883 93.0036C65.7109 92.8837 65.8759 92.8175 66.0471 92.8195C66.2183 92.8215 66.3816 92.8916 66.5013 93.0144C67.6007 94.141 69.5745 95.3084 72.0559 96.3031C72.1347 96.3348 72.2065 96.3817 72.2672 96.4412C72.3279 96.5007 72.3762 96.5716 72.4096 96.6499C72.4429 96.7282 72.4605 96.8123 72.4614 96.8975C72.4623 96.9826 72.4466 97.0671 72.4149 97.1461C72.3657 97.2681 72.2804 97.3721 72.1707 97.4442C72.0609 97.5163 71.9319 97.5531 71.8007 97.5496V97.5496Z" fill="#B4E100"/>
<path d="M47.5256 54.7087C47.5253 54.7231 47.5249 54.7376 47.5246 54.7503C48.5812 59.0509 51.1047 66.4092 58.9034 64.0366C67.811 61.3246 65.5747 53.1223 64.5199 48.8218C64.5203 48.8073 64.5115 48.7944 64.5083 48.7798L47.5256 54.7087Z" fill="black"/>
<path d="M55.7527 64.1084C61.7907 63.9856 61.3765 61.7421 61.404 61.7247C60.9868 60.5961 59.3404 59.3225 57.8364 59.5022C57.3931 59.5532 56.7724 59.6978 56.4636 60.0869C56.2774 60.325 56.1603 60.4707 55.5866 60.3086C55.1701 60.183 54.7374 60.1197 54.3025 60.1207C53.4782 60.1772 51.4123 60.6096 52.1699 63.0586C52.1399 63.6408 53.0875 63.8624 53.1327 63.9358C53.2745 63.8903 54.933 64.1252 55.7527 64.1084Z" fill="#E62828"/>
<path d="M64.1835 60.4837C62.7339 60.7244 61.2124 61.0359 59.6493 61.4224C57.2836 61.9993 54.9579 62.7302 52.6869 63.6103C54.2623 64.531 56.2926 64.8381 58.9213 64.0388C61.5499 63.2396 63.1698 61.9802 64.1835 60.4837Z" fill="white"/>
<path d="M65.1541 51.5303C64.9557 50.5354 64.7231 49.6122 64.5289 48.822C64.5293 48.8075 64.5206 48.7946 64.5173 48.7801L47.5255 54.7123C47.5252 54.7267 47.5248 54.7412 47.5245 54.7539C47.6678 55.3329 47.8368 55.9686 48.0414 56.627C50.7088 56.3611 53.3533 55.8999 55.9537 55.2472C60.1817 54.2017 63.1017 52.8392 65.1541 51.5303Z" fill="white"/>
<path d="M52.6674 64.0388C52.5822 64.0369 52.4995 64.0095 52.4299 63.9601C52.3603 63.9108 52.307 63.8416 52.2769 63.7617C52.2566 63.7089 52.2468 63.6526 52.2482 63.596C52.2496 63.5395 52.262 63.4837 52.2849 63.432C52.3077 63.3802 52.3405 63.3335 52.3814 63.2945C52.4222 63.2555 52.4703 63.2249 52.523 63.2045C52.5831 63.1806 58.5934 60.8796 63.8765 60.0963C63.9331 60.0883 63.9907 60.0917 64.046 60.1062C64.1013 60.1208 64.1532 60.1461 64.1987 60.1808C64.2442 60.2156 64.2824 60.259 64.311 60.3086C64.3397 60.3582 64.3583 60.4131 64.3657 60.4699C64.3739 60.526 64.3711 60.5831 64.3573 60.6381C64.3434 60.693 64.319 60.7447 64.2852 60.7902C64.2514 60.8356 64.209 60.8739 64.1605 60.9029C64.1119 60.9319 64.0581 60.951 64.0022 60.9591C58.8151 61.7284 52.8922 63.9971 52.8321 64.0192C52.7791 64.0371 52.723 64.0438 52.6674 64.0388V64.0388Z" fill="black"/>
<path d="M55.8678 64.9257C54.6955 64.9089 53.5462 64.5972 52.5253 64.0192C48.8519 61.9209 47.5469 56.6026 47.1174 54.8546C47.114 54.842 47.1113 54.8293 47.1092 54.8164C47.0818 54.7116 47.095 54.6002 47.1462 54.5047C47.1973 54.4092 47.2827 54.3366 47.385 54.3017L64.3767 48.3694C64.4312 48.3502 64.489 48.3423 64.5466 48.3461C64.6042 48.35 64.6605 48.3655 64.7119 48.3919C64.7636 48.4177 64.8095 48.4538 64.847 48.4979C64.8844 48.542 64.9125 48.5933 64.9296 48.6486L64.9429 48.696C64.9438 48.7026 64.9436 48.7094 64.9424 48.7159L65.0149 49.0091C65.5697 51.2614 66.332 54.3476 65.849 57.2867C65.2666 60.8388 62.9733 63.2462 59.034 64.4451C58.0107 64.7729 56.9419 64.9351 55.8678 64.9257V64.9257ZM48.0382 54.9905C49.1432 59.305 50.759 62.0169 52.9527 63.2709C54.5677 64.1943 56.5375 64.3135 58.7899 63.6266C67.0322 61.1179 65.3109 53.8003 64.2146 49.3467L48.0382 54.9905Z" fill="black"/>
<path d="M16.7566 74.0836C16.7028 74.0826 16.6497 74.0709 16.6004 74.0491C16.495 74.005 16.4114 73.9207 16.3679 73.8148C16.3244 73.7089 16.3246 73.5901 16.3684 73.4843C17.9414 69.7113 21.176 67.5634 22.2961 67.056C22.3476 67.0323 22.4033 67.019 22.4599 67.017C22.5165 67.015 22.5729 67.0242 22.626 67.0441C22.679 67.064 22.7276 67.0943 22.7689 67.1331C22.8103 67.172 22.8435 67.2187 22.8668 67.2705C22.9134 67.3746 22.9171 67.493 22.877 67.5999C22.837 67.7068 22.7564 67.7935 22.6529 67.841C21.6932 68.2798 18.6237 70.3176 17.169 73.8182C17.1352 73.8992 17.0777 73.968 17.004 74.0154C16.9303 74.0627 16.8441 74.0866 16.7566 74.0836V74.0836Z" fill="black"/>
<path d="M57.9645 21.8997C57.9108 21.9896 57.8754 22.0893 57.8602 22.193C57.8451 22.2967 57.8506 22.4024 57.8763 22.504C57.9021 22.6055 57.9477 22.701 58.0104 22.7848C58.0731 22.8686 58.1517 22.9392 58.2417 22.9924C58.3313 23.0465 58.4307 23.0822 58.5342 23.0975C58.6376 23.1128 58.7431 23.1073 58.8444 23.0815C58.9457 23.0556 59.0409 23.0098 59.1245 22.9467C59.2081 22.8837 59.2783 22.8046 59.3312 22.7141C59.3855 22.6245 59.4214 22.5249 59.4369 22.4211C59.4525 22.3174 59.4472 22.2116 59.4216 22.11C59.3959 22.0083 59.3504 21.9127 59.2876 21.8289C59.2248 21.745 59.146 21.6745 59.0557 21.6215C58.9662 21.5676 58.867 21.532 58.7636 21.5167C58.6603 21.5014 58.555 21.5067 58.4537 21.5324C58.3525 21.5581 58.2573 21.6036 58.1736 21.6664C58.09 21.7291 58.0195 21.8078 57.9663 21.898" fill="white"/>
<path d="M44.6071 22.4606C45.4018 25.4771 41.8526 29.1706 37.381 27.4698C33.4462 25.9699 34.5977 21.1768 36.5497 19.9162C41.9198 16.4524 44.0672 20.4187 44.6107 22.4607" fill="#F29100"/>
<path d="M37.4584 23.073C37.3763 24.4033 38.5346 25.5585 40.0449 25.6486C41.5551 25.7388 42.8458 24.7376 42.9261 23.4091C43.0064 22.0805 41.8481 20.9235 40.3397 20.8316C38.8313 20.7397 37.5369 21.7426 37.4584 23.073Z" fill="#1D1D1B"/>
<path d="M39.533 25.908C38.8285 25.8267 38.1711 25.5124 37.6646 25.0147C37.3973 24.7589 37.1884 24.4481 37.052 24.1037C36.9156 23.7593 36.8551 23.3894 36.8746 23.0193V23.0193C36.8982 22.6815 36.9881 22.3518 37.1394 22.0491C37.2906 21.7463 37.5 21.4766 37.7556 21.2554C38.4014 20.6991 39.2405 20.4216 40.0895 20.4836C41.7708 20.5868 43.061 21.89 42.9712 23.3921C42.946 23.762 42.8411 24.1221 42.6639 24.4475C42.4867 24.773 42.2413 25.0561 41.9447 25.2774C41.3204 25.7527 40.5453 25.9845 39.7635 25.9298C39.6806 25.9242 39.6068 25.9188 39.533 25.908ZM40.233 21.1296C40.1734 21.1282 40.1124 21.1159 40.0529 21.1126C39.3701 21.0613 38.6947 21.2828 38.1739 21.7287C37.9803 21.8948 37.8215 22.0978 37.7067 22.326C37.5919 22.5542 37.5235 22.8029 37.5053 23.0578V23.0578C37.4912 23.3383 37.5379 23.6186 37.6423 23.8793C37.7468 24.1399 37.9064 24.3747 38.1102 24.5673C38.5643 25.0098 39.164 25.2706 39.7965 25.3006C40.4283 25.3478 41.0556 25.1625 41.5612 24.7796C41.7871 24.6121 41.9742 24.3977 42.1096 24.151C42.2451 23.9042 42.3257 23.631 42.346 23.3501C42.4099 22.2528 41.4727 21.2857 40.2328 21.1368L40.233 21.1296Z" fill="#1D1D1B"/>
<path d="M39.5157 20.9387C39.6174 21.2676 39.5849 21.6236 39.4255 21.9285C39.266 22.2335 38.9925 22.4627 38.6649 22.5658C38.3367 22.6684 37.9814 22.6362 37.6769 22.4762C37.3725 22.3163 37.1437 22.0416 37.041 21.7127C36.9388 21.3833 36.9713 21.0267 37.1311 20.7213C37.291 20.4159 37.5653 20.1866 37.8936 20.0839C38.0561 20.0331 38.227 20.015 38.3964 20.0305C38.5659 20.046 38.7306 20.0949 38.8813 20.1742C39.0319 20.2536 39.1654 20.362 39.2743 20.4932C39.3831 20.6244 39.4652 20.7758 39.5157 20.9387" fill="white"/>
<path d="M40.4692 18.7223C41.0584 18.7955 41.6273 18.9847 42.1434 19.2789C42.6594 19.5732 43.1125 19.9667 43.4766 20.437C43.8407 20.9072 44.1086 21.445 44.265 22.0194C44.4215 22.5937 44.4633 23.1934 44.3881 23.7841C44.315 24.3748 44.1264 24.9453 43.8331 25.4629C43.5397 25.9804 43.1475 26.4348 42.6787 26.8C42.21 27.1652 41.674 27.4341 41.1016 27.5912C40.5291 27.7482 39.9313 27.7905 39.3426 27.7154C38.1534 27.5657 37.0722 26.9482 36.337 25.999C35.6017 25.0497 35.2725 23.8464 35.4218 22.6536C35.4949 22.0626 35.6836 21.492 35.9771 20.9744C36.2705 20.4567 36.663 20.0022 37.1319 19.637C37.6008 19.2717 38.137 19.0029 38.7097 18.846C39.2824 18.689 39.8803 18.647 40.4692 18.7223ZM40.5737 17.8939C39.1657 17.7178 37.7454 18.1093 36.6247 18.9824C35.5039 19.8554 34.7743 21.1388 34.5959 22.5507C34.4207 23.9629 34.8109 25.387 35.6812 26.5109C36.5514 27.6347 37.8306 28.3664 39.2381 28.5456C40.6463 28.7212 42.0666 28.3293 43.1872 27.4559C44.3079 26.5826 45.0375 25.2991 45.2159 23.887C45.3911 22.475 45.0007 21.0511 44.1305 19.9275C43.2602 18.804 41.9811 18.0726 40.5737 17.8939V17.8939Z" fill="#1D1D1B"/>
<path d="M55.3718 22.5115C54.4028 24.2534 56.019 27.1047 59.0609 26.7624C61.7354 26.4638 61.7779 23.3062 60.766 22.216C57.9874 19.2194 56.0314 21.3361 55.3753 22.5152" fill="#F29100"/>
<path d="M59.6984 24.0225C59.5395 24.8605 58.639 25.3912 57.685 25.2093C56.731 25.0273 56.0846 24.2011 56.2524 23.3651C56.4202 22.5292 57.3136 21.9983 58.2658 22.1802C59.218 22.3621 59.8662 23.1884 59.6965 24.0243" fill="#1D1D1B"/>
<path d="M57.8296 25.4299C57.3374 25.3377 56.8951 25.07 56.5842 24.6763C56.4358 24.4921 56.3288 24.278 56.2704 24.0486C56.212 23.8192 56.2036 23.5798 56.2458 23.3468C56.427 22.4008 57.434 21.7966 58.4903 22.0009C59.0257 22.098 59.5015 22.4026 59.8148 22.8487C59.9381 23.0262 60.0251 23.2264 60.0709 23.4378C60.1167 23.6492 60.1203 23.8677 60.0815 24.0805C60.0352 24.3128 59.9396 24.5323 59.8011 24.7243C59.6626 24.9162 59.4846 25.076 59.2791 25.1928C58.8866 25.4202 58.43 25.5106 57.9808 25.4498C57.9231 25.4466 57.8764 25.4382 57.8296 25.4299ZM56.632 23.423C56.6006 23.5998 56.6077 23.7814 56.6528 23.9553C56.6979 24.1291 56.78 24.2911 56.8933 24.4302C57.1459 24.7478 57.5052 24.9622 57.904 25.0334C58.3043 25.116 58.721 25.048 59.0745 24.8422C59.2306 24.7545 59.3661 24.6341 59.4717 24.4892C59.5773 24.3442 59.6505 24.1782 59.6863 24.0023V24.0023C59.7155 23.8415 59.7125 23.6765 59.6776 23.5169C59.6426 23.3573 59.5764 23.2063 59.4828 23.0725C59.2301 22.7144 58.8468 22.4705 58.4161 22.3937L58.3028 22.3747C57.4965 22.2796 56.7657 22.7311 56.632 23.423V23.423Z" fill="#1D1D1B"/>
<path d="M58.7726 22.375C58.6577 22.5627 58.6217 22.7885 58.6724 23.0027C58.7232 23.217 58.8565 23.4023 59.0432 23.5182C59.2305 23.6339 59.4559 23.6703 59.67 23.6194C59.8841 23.5685 60.0693 23.4344 60.1848 23.2466C60.2995 23.0587 60.3353 22.8328 60.2842 22.6185C60.2331 22.4042 60.0994 22.219 59.9124 22.1034C59.8198 22.0461 59.7168 22.0077 59.6094 21.9904C59.502 21.9731 59.3922 21.9771 59.2864 22.0023C59.1805 22.0276 59.0807 22.0735 58.9925 22.1374C58.9043 22.2013 58.8296 22.2821 58.7726 22.375" fill="white"/>
<path d="M58.5221 20.8468C58.8985 20.894 59.2619 21.0151 59.5916 21.2032C59.9212 21.3913 60.2107 21.6427 60.4434 21.9431C60.6761 22.2435 60.8475 22.587 60.9478 22.9538C61.0481 23.3207 61.0754 23.7038 61.028 24.0813C60.9809 24.4588 60.8601 24.8233 60.6725 25.154C60.4849 25.4846 60.2342 25.775 59.9347 26.0084C59.6351 26.2419 59.2927 26.4138 58.9269 26.5145C58.5611 26.6151 58.1791 26.6425 57.8027 26.595C57.4262 26.5481 57.0626 26.4271 56.7327 26.2391C56.4029 26.0511 56.1132 25.7997 55.8803 25.4993C55.6474 25.1989 55.4758 24.8554 55.3754 24.4884C55.275 24.1214 55.2477 23.7382 55.2951 23.3606C55.3422 22.9829 55.463 22.6182 55.6508 22.2874C55.8385 21.9566 56.0894 21.6662 56.3891 21.4327C56.6888 21.1992 57.0315 21.0273 57.3975 20.9268C57.7635 20.8263 58.1456 20.7991 58.5221 20.8468ZM58.5888 20.3162C57.6875 20.2049 56.7788 20.4568 56.0624 21.0168C55.346 21.5767 54.8803 22.3989 54.7677 23.3028C54.6565 24.2054 54.9064 25.1155 55.4627 25.8336C56.0189 26.5518 56.8363 27.0196 57.7358 27.1347C58.6372 27.246 59.5458 26.9941 60.2622 26.4341C60.9787 25.8742 61.4443 25.052 61.557 24.1481C61.6681 23.2441 61.4171 22.3328 60.8589 21.6143C60.3007 20.8958 59.481 20.4289 58.5798 20.316L58.5888 20.3162Z" fill="#1D1D1B"/>
</svg>
