<svg width="311" height="309" viewBox="0 0 311 309" fill="none" xmlns="http://www.w3.org/2000/svg">
<g clip-path="url(#clip0_1742_18359)">
<path d="M270.845 66.6999C274.98 64.1463 278.404 60.5999 280.802 56.3875C283.2 52.175 284.495 47.4319 284.567 42.5954C284.638 37.759 283.485 32.9846 281.213 28.7123C278.941 24.44 275.623 20.8073 271.565 18.1488C267.507 15.4904 262.839 13.8918 257.993 13.5003C253.146 13.1088 248.276 13.937 243.831 15.9087C239.387 17.8803 235.51 20.9319 232.56 24.7823C229.609 28.6327 227.679 33.158 226.947 37.9411C224.123 32.5616 219.661 28.2105 214.196 25.5095C208.732 22.8085 202.547 21.8958 196.523 22.9017C190.499 23.9076 184.945 26.7808 180.655 31.1106C176.365 35.4405 173.558 41.0055 172.636 47.0106C169.809 41.6348 165.346 37.2876 159.883 34.5894C154.42 31.8911 148.236 30.9797 142.214 31.9853C135.604 33.0922 129.58 36.4426 125.167 41.4661C120.754 46.4897 118.225 52.8758 118.011 59.5373C117.797 66.1987 119.911 72.7237 123.993 78.0014C128.075 83.2791 133.872 86.9833 140.399 88.4832C135.521 91.4997 131.651 95.8871 129.28 101.089C126.908 106.291 126.142 112.073 127.078 117.703C128.339 125.239 132.558 131.964 138.808 136.399C145.059 140.833 152.828 142.614 160.409 141.35C166.431 140.344 171.983 137.473 176.273 133.146C180.563 128.819 183.372 123.258 184.299 117.255C187.122 122.635 191.585 126.986 197.049 129.687C202.513 132.388 208.699 133.3 214.723 132.294C220.747 131.289 226.3 128.415 230.59 124.086C234.88 119.756 237.687 114.191 238.61 108.186C241.797 114.259 247.06 118.998 253.452 121.553C259.844 124.107 266.947 124.309 273.484 122.123C280.022 119.936 285.566 115.504 289.119 109.623C292.673 103.742 294.005 96.7972 292.874 90.0363C291.942 84.41 289.351 79.1888 285.429 75.0343C281.507 70.8799 276.431 67.9792 270.845 66.6999Z" fill="#E62856"/>
<path d="M156.704 79.4463L155.346 79.6729L158.241 67.7695L159.393 67.5772L165.999 77.8941L164.563 78.1339L162.584 75.0254L157.55 75.8661L156.704 79.4463ZM161.852 73.8499L159.076 69.4632L157.875 74.514L161.852 73.8499ZM179.913 75.5705L170.918 77.0727L169.732 69.971L170.994 69.7602L171.983 75.6782L174.587 75.2434L173.598 69.3253L174.861 69.1145L175.849 75.0326L178.453 74.5977L177.465 68.6797L178.727 68.4688L179.716 74.3869L180.899 74.1892L181.387 77.1088L180.203 77.3065L179.913 75.5705ZM187.784 72.4394L188.344 73.3677C187.764 74.1027 186.927 74.5615 185.833 74.7442C184.675 74.9375 183.699 74.7545 182.902 74.1954C182.096 73.638 181.598 72.7964 181.41 71.6707C181.233 70.6081 181.411 69.6699 181.946 68.856C182.47 68.0439 183.305 67.5422 184.452 67.3507C185.399 67.1925 186.234 67.3667 186.956 67.8733C187.688 68.3676 188.133 69.0934 188.293 70.0508C188.344 70.356 188.365 70.6444 188.357 70.9162L182.896 71.8281C183.06 72.4821 183.394 72.9616 183.899 73.2666C184.415 73.5698 185.025 73.6625 185.73 73.5448C186.656 73.3902 187.34 73.0217 187.784 72.4394ZM184.587 68.5448C183.966 68.6485 183.479 68.9081 183.127 69.3239C182.785 69.7378 182.625 70.235 182.646 70.8154L186.955 70.096C186.825 69.5121 186.547 69.0825 186.123 68.8074C185.709 68.5304 185.197 68.4429 184.587 68.5448ZM192.034 63.6838C192.002 63.4944 192.044 63.3252 192.16 63.1761C192.276 63.027 192.428 62.9366 192.618 62.905C192.786 62.8769 192.944 62.9154 193.091 63.0206C193.239 63.1257 193.328 63.273 193.36 63.4624C193.391 63.6518 193.355 63.8254 193.252 63.9832C193.149 64.1411 193.013 64.2341 192.844 64.2622C192.644 64.2956 192.466 64.2606 192.308 64.1571C192.16 64.052 192.069 63.8942 192.034 63.6838ZM194.243 63.3148C194.212 63.1254 194.249 62.9571 194.354 62.8097C194.469 62.6607 194.622 62.5703 194.811 62.5387C194.98 62.5106 195.137 62.5491 195.285 62.6543C195.432 62.7594 195.522 62.9067 195.553 63.0961C195.588 63.3065 195.553 63.4854 195.448 63.6327C195.343 63.78 195.206 63.8678 195.038 63.8959C194.849 63.9275 194.675 63.8916 194.517 63.7882C194.37 63.683 194.279 63.5252 194.243 63.3148ZM196.019 72.881L194.757 73.0918L193.571 65.9901L194.833 65.7793L196.019 72.881ZM202.503 64.4986L203.97 64.2535L202.001 68.1024L205.314 71.3288L203.767 71.5871L201.205 69.0627L199.57 72.2881L198.102 72.5332L200.181 68.4712L197.074 65.4052L198.62 65.1469L200.994 67.5082L202.503 64.4986ZM211.649 70.2709L210.387 70.4817L209.201 63.38L210.353 63.1876L213.671 66.251L215.671 62.2995L216.792 62.1124L217.978 69.2141L216.715 69.4249L215.851 64.2486L213.94 67.958L213.892 67.9659L210.785 65.0945L211.649 70.2709ZM220.686 67.8534C219.872 67.2539 219.377 66.4229 219.199 65.3602C219.02 64.2871 219.22 63.3454 219.798 62.535C220.385 61.7124 221.242 61.2071 222.368 61.0191C223.493 60.8311 224.462 61.0316 225.274 61.6206C226.095 62.1972 226.595 63.0221 226.774 64.0953C226.954 65.1684 226.75 66.1163 226.163 66.9389C225.584 67.7493 224.732 68.2484 223.606 68.4364C222.491 68.6226 221.518 68.4283 220.686 67.8534ZM220.932 63.2054C220.547 63.7456 220.416 64.3893 220.541 65.1362C220.666 65.8832 220.993 66.4504 221.522 66.8378C222.064 67.2339 222.693 67.3723 223.409 67.2528C224.124 67.1333 224.669 66.8044 225.044 66.2659C225.428 65.7151 225.558 65.0663 225.433 64.3193C225.312 63.5933 224.979 63.027 224.436 62.6204C223.904 62.2225 223.281 62.0833 222.565 62.2027C221.85 62.3222 221.305 62.6564 220.932 63.2054ZM235.209 59.037L236.771 58.7761L234.771 62.6302L238.146 65.8461L236.584 66.107L233.335 62.87L235.209 59.037ZM233.633 66.5998L232.37 66.8107L231.185 59.709L232.447 59.4982L233.633 66.5998ZM227.904 67.5565L230.005 63.4261L226.86 60.4311L228.439 60.1675L231.441 63.1863L229.451 67.2982L227.904 67.5565ZM245.985 64.5371L244.723 64.7479L244.222 61.7494L240.277 62.4083L240.777 65.4068L239.515 65.6176L238.329 58.5159L239.591 58.3051L240.079 61.2247L244.024 60.5658L243.537 57.6463L244.799 57.4354L245.985 64.5371ZM247.712 58.4901L247.212 57.5355C247.845 56.9864 248.598 56.6389 249.471 56.4931C250.428 56.3332 251.162 56.454 251.673 56.8554C252.183 57.2568 252.521 57.952 252.686 58.941L253.413 63.2967L252.214 63.497L252.061 62.5816C251.618 63.3586 250.917 63.827 249.96 63.9869C249.308 64.0958 248.749 63.9891 248.284 63.6665C247.818 63.3335 247.528 62.8303 247.416 62.157C247.3 61.4626 247.456 60.8742 247.883 60.3918C248.309 59.8989 248.922 59.5857 249.722 59.4522C250.469 59.3275 251.083 59.3816 251.566 59.6147C251.432 58.8151 251.226 58.2602 250.947 57.9499C250.668 57.6396 250.213 57.5371 249.582 57.6425C248.94 57.7497 248.317 58.0322 247.712 58.4901ZM250.212 62.7769C250.917 62.6591 251.476 62.2521 251.89 61.5558L251.74 60.6563C251.245 60.4144 250.687 60.3454 250.067 60.449C249.635 60.521 249.29 60.6869 249.03 60.9465C248.78 61.1938 248.685 61.5016 248.747 61.8698C248.805 62.217 248.961 62.4721 249.215 62.6351C249.48 62.7964 249.812 62.8436 250.212 62.7769ZM160.507 100.305L159.245 100.516L157.532 90.2576L158.794 90.0467L158.934 90.8832C159.137 90.5464 159.445 90.2517 159.857 89.9991C160.267 89.7359 160.709 89.5648 161.182 89.4857C162.192 89.3171 163.043 89.5211 163.734 90.0978C164.444 90.6605 164.888 91.4731 165.066 92.5357C165.247 93.6194 165.057 94.5866 164.496 95.4372C163.944 96.2756 163.115 96.7871 162.011 96.9715C161.159 97.1138 160.463 97.0623 159.925 96.817L160.507 100.305ZM161.017 90.7299C160.175 90.8705 159.546 91.3108 159.129 92.051L159.717 95.5703C160.336 95.8454 160.998 95.9241 161.703 95.8064C162.45 95.6816 163.005 95.3456 163.367 94.7984C163.739 94.2389 163.861 93.5751 163.732 92.8071C163.608 92.0601 163.303 91.4999 162.819 91.1266C162.333 90.7427 161.733 90.6105 161.017 90.7299ZM167.907 94.9162C167.094 94.3168 166.598 93.4857 166.42 92.4231C166.241 91.35 166.441 90.4082 167.019 89.5979C167.606 88.7753 168.463 88.27 169.589 88.082C170.714 87.894 171.683 88.0945 172.495 88.6834C173.316 89.2601 173.816 90.085 173.996 91.1581C174.175 92.2313 173.971 93.1791 173.384 94.0018C172.805 94.8121 171.953 95.3113 170.827 95.4993C169.712 95.6855 168.739 95.4911 167.907 94.9162ZM168.153 90.2683C167.768 90.8085 167.637 91.4521 167.762 92.1991C167.887 92.9461 168.214 93.5133 168.744 93.9006C169.286 94.2968 169.914 94.4351 170.63 94.3156C171.345 94.1962 171.89 93.8672 172.265 93.3287C172.649 92.778 172.779 92.1291 172.654 91.3821C172.533 90.6562 172.2 90.0899 171.657 89.6832C171.125 89.2853 170.502 89.1461 169.786 89.2656C169.071 89.385 168.527 89.7193 168.153 90.2683ZM178.788 94.1699C178.251 94.2595 177.668 94.2649 177.039 94.1862C176.428 94.0935 175.979 93.9305 175.692 93.6974L176.181 92.6425C176.503 92.8265 176.872 92.9596 177.286 93.0419C177.708 93.1119 178.083 93.1197 178.409 93.0653C178.956 92.9739 179.385 92.794 179.698 92.5256C180.008 92.2467 180.134 91.9336 180.076 91.5865C180.027 91.2919 179.863 91.0867 179.584 90.9711C179.316 90.8537 178.966 90.831 178.534 90.903L177.335 91.1033L177.164 90.0775L178.284 89.8904C178.642 89.8307 178.921 89.6868 179.121 89.4588C179.319 89.2202 179.394 88.9589 179.346 88.6749C179.294 88.3592 179.116 88.1348 178.812 88.0016C178.507 87.8579 178.123 87.8247 177.66 87.902C176.913 88.0268 176.247 88.4084 175.661 89.0469L175.009 88.1501C175.244 87.8081 175.6 87.5108 176.076 87.2581C176.564 87.0037 177.092 86.829 177.66 86.7342C178.501 86.5936 179.182 86.653 179.701 86.9124C180.231 87.17 180.546 87.5986 180.646 88.1983C180.783 89.019 180.46 89.646 179.678 90.0794L179.684 90.1109C180.155 90.0862 180.549 90.2097 180.865 90.4814C181.179 90.7426 181.373 91.0942 181.446 91.536C181.555 92.1883 181.364 92.7557 180.871 93.2381C180.387 93.7082 179.693 94.0188 178.788 94.1699ZM187.075 85.3242L188.732 85.0474L186.189 88.9596L190.218 92.099L188.466 92.3916L184.656 89.2968L187.075 85.3242ZM184.962 92.9766L183.7 93.1874L182.514 86.0858L183.776 85.875L184.962 92.9766ZM193.349 94.8204L192.087 95.0312L190.374 84.7732L191.636 84.5624L191.776 85.3988C191.979 85.0621 192.287 84.7674 192.699 84.5147C193.109 84.2516 193.551 84.0805 194.025 84.0014C195.035 83.8327 195.885 84.0368 196.576 84.6135C197.287 85.1761 197.731 85.9888 197.908 87.0514C198.089 88.1351 197.899 89.1022 197.338 89.9529C196.786 90.7913 195.958 91.3027 194.853 91.4872C194.001 91.6295 193.305 91.578 192.767 91.3327L193.349 94.8204ZM193.859 85.2456C193.018 85.3862 192.388 85.8265 191.971 86.5667L192.559 90.0859C193.178 90.3611 193.84 90.4398 194.545 90.322C195.292 90.1973 195.847 89.8613 196.209 89.3141C196.581 88.7546 196.703 88.0908 196.574 87.3228C196.45 86.5758 196.145 86.0156 195.661 85.6422C195.175 85.2584 194.575 85.1261 193.859 85.2456ZM203.884 82.5172L205.32 82.2773L203.665 89.8534C203.359 91.1914 203.051 92.0973 202.74 92.5708C202.414 93.0795 201.994 93.3768 201.478 93.4629C201.015 93.5402 200.543 93.4676 200.063 93.2451L200.312 92.2139C200.676 92.3155 200.952 92.3505 201.141 92.3188C201.436 92.2696 201.678 92.0995 201.867 91.8083C202.067 91.5154 202.24 91.0647 202.387 90.4561L202.482 90.051L197.887 83.5186L199.402 83.2656L202.239 87.4312C202.293 87.4978 202.495 87.8318 202.844 88.4332C202.881 88.0702 202.931 87.6888 202.994 87.2889L203.884 82.5172ZM210.689 81.3808L211.952 81.1699L213.138 88.2716L211.875 88.4824L211.414 85.7207C210.925 86.1592 210.296 86.4426 209.528 86.5709C207.845 86.852 206.852 86.0877 206.55 84.2781L206.192 82.1318L207.533 81.9078L207.868 83.9121C208.054 85.0273 208.657 85.4997 209.678 85.3293C210.341 85.2186 210.858 84.9808 211.23 84.616L210.689 81.3808ZM219.249 79.9513L220.686 79.7115L219.031 87.2875C218.724 88.6256 218.416 89.5314 218.106 90.005C217.78 90.5136 217.359 90.811 216.844 90.8971C216.381 90.9744 215.909 90.9017 215.428 90.6792L215.678 89.648C216.041 89.7496 216.317 89.7846 216.506 89.753C216.801 89.7038 217.043 89.5336 217.232 89.2424C217.432 88.9495 217.606 88.4988 217.753 87.8902L217.847 87.4851L213.253 80.9527L214.768 80.6997L217.604 84.8654C217.659 84.932 217.861 85.266 218.21 85.8673C218.246 85.5043 218.296 85.1229 218.359 84.7231L219.249 79.9513ZM223.169 86.5965L221.983 79.4948C222.036 79.486 222.109 79.4737 222.204 79.4579C222.297 79.4316 222.433 79.4035 222.612 79.3736C222.789 79.3332 222.951 79.3007 223.098 79.2761C223.873 79.1251 224.355 79.0337 224.545 79.0021C226.586 78.6613 227.708 79.1011 227.912 80.3215C227.982 80.7423 227.912 81.1273 227.699 81.4763C227.486 81.8148 227.174 82.0508 226.763 82.1842L226.769 82.2157C227.907 82.2312 228.552 82.6965 228.705 83.6119C228.935 84.9901 227.961 85.8611 225.783 86.2248C225.678 86.2423 225.214 86.3091 224.389 86.4251C224.232 86.4515 224.057 86.4752 223.866 86.4963C223.677 86.5279 223.528 86.5473 223.421 86.5543C223.316 86.5719 223.232 86.5859 223.169 86.5965ZM225.414 82.9448L223.899 83.1978L224.263 85.3756C225.026 85.2807 225.512 85.2157 225.723 85.1805C226.932 84.9785 227.474 84.4987 227.348 83.7412C227.226 83.0152 226.582 82.7498 225.414 82.9448ZM224.811 80.0121C224.506 80.063 224.04 80.157 223.414 80.294L223.767 82.4087L225.361 82.1425C225.793 82.0705 226.123 81.9126 226.353 81.6688C226.582 81.4249 226.669 81.1347 226.613 80.798C226.495 80.0931 225.894 79.8311 224.811 80.0121ZM230.41 79.6286L229.91 78.6739C230.543 78.1248 231.296 77.7774 232.169 77.6315C233.127 77.4717 233.861 77.5924 234.371 77.9938C234.882 78.3952 235.219 79.0904 235.385 80.0794L236.112 84.4351L234.913 84.6354L234.76 83.7201C234.316 84.497 233.616 84.9655 232.658 85.1253C232.006 85.2343 231.448 85.1275 230.983 84.805C230.516 84.4719 230.227 83.9687 230.114 83.2954C229.998 82.601 230.154 82.0126 230.582 81.5303C231.008 81.0374 231.621 80.7242 232.42 80.5906C233.167 80.4659 233.782 80.5201 234.264 80.7531C234.131 79.9535 233.925 79.3986 233.646 79.0883C233.367 78.778 232.912 78.6756 232.28 78.781C231.639 78.8882 231.015 79.1707 230.41 79.6286ZM232.911 83.9153C233.616 83.7976 234.175 83.3906 234.588 82.6943L234.438 81.7947C233.944 81.5529 233.386 81.4838 232.765 81.5874C232.334 81.6595 231.988 81.8253 231.729 82.0849C231.478 82.3323 231.384 82.64 231.445 83.0083C231.503 83.3555 231.659 83.6106 231.914 83.7736C232.178 83.9348 232.511 83.9821 232.911 83.9153ZM238.955 77.9583L236.351 78.3931L236.141 77.1306L242.611 76.0501L242.822 77.3126L240.218 77.7475L241.193 83.5866L239.93 83.7974L238.955 77.9583ZM249.66 76.7386L246.439 82.7105L245.177 82.9214L243.991 75.8197L245.253 75.6089L246.136 80.8957L249.356 74.9237L250.619 74.7129L251.805 81.8145L250.542 82.0253L249.66 76.7386ZM255.506 77.7088L254.165 77.9328L252.886 70.2788L254.228 70.0548L255.506 77.7088ZM254.384 80.5079C254.345 80.2764 254.397 80.0678 254.539 79.8818C254.679 79.6854 254.886 79.5643 255.159 79.5186C255.38 79.4817 255.589 79.5334 255.786 79.6736C255.982 79.8139 256.099 79.9944 256.136 80.2154C256.178 80.4679 256.135 80.6967 256.007 80.902C255.877 81.0966 255.691 81.2142 255.449 81.2546C255.176 81.3003 254.941 81.253 254.744 81.1128C254.546 80.962 254.426 80.7604 254.384 80.5079Z" fill="white"/>
</g>
<path d="M112.23 152.483C110.44 157.515 108.82 163.383 110.775 168.581C111.946 171.724 114.59 174.038 116.039 176.615C116.975 178.213 117.318 179.883 117.284 181.877C117.134 183.863 120.296 183.985 120.446 182C120.613 178.254 119.199 175.21 116.95 172.338C114.801 169.709 113.109 167.231 113.15 163.593C113.065 160.063 114.148 156.622 115.339 153.306C115.948 151.473 112.965 150.542 112.23 152.483Z" fill="#1D1D1B"/>
<path d="M122.262 158.059C131.873 158.787 140.254 151.587 140.982 141.977C141.711 132.367 134.511 123.986 124.901 123.258C115.291 122.529 106.909 129.729 106.181 139.339C105.452 148.949 112.652 157.33 122.262 158.059Z" fill="white"/>
<path d="M121.007 159.138C110.774 157.775 103.622 148.307 105.102 138.083C106.465 127.85 115.934 120.699 126.157 122.178C136.381 123.658 143.542 133.01 142.062 143.234C140.699 153.466 131.23 160.618 121.007 159.138ZM125.864 124.505C116.916 123.24 108.686 129.545 107.429 138.377C106.163 147.325 112.469 155.555 121.3 156.811C130.132 158.068 138.478 151.771 139.735 142.94C141.001 133.992 134.812 125.771 125.864 124.505Z" fill="#1D1D1B"/>
<path d="M117.218 151.803C116.926 155.657 122.158 159.46 127.211 156.319C131.763 153.61 129.259 147.9 126.518 146.87C119.23 143.851 117.413 149.234 117.218 151.803Z" fill="#F29100"/>
<path d="M116.633 151.759C116.695 150.942 117.024 148.148 119.025 146.538C120.901 145.036 123.488 144.997 126.795 146.305C128.619 147.03 130.086 149.373 130.259 151.735C130.45 153.864 129.491 155.67 127.516 156.93C125.919 157.866 124.123 158.317 122.38 158.068C119.002 157.694 116.403 154.796 116.633 151.759ZM119.79 147.3C118.165 148.587 117.971 151.156 117.917 151.857C117.74 154.192 119.908 156.588 122.702 156.918C124.094 157.141 125.648 156.788 127.003 155.952C128.969 154.809 129.336 153.075 129.191 151.889C128.991 149.877 127.597 148.127 126.356 147.446C122.626 145.519 120.669 146.545 119.79 147.3Z" fill="#1D1D1B"/>
<path d="M126.704 153.697C127.047 155.367 125.98 157.048 124.067 157.491C122.271 157.942 120.348 156.974 119.996 155.42C119.653 153.75 120.837 152.078 122.633 151.627C124.554 151.068 126.361 152.027 126.704 153.697Z" fill="#1D1D1B"/>
<path d="M122.631 157.852C121.238 157.629 120.016 156.714 119.646 155.394C119.195 153.598 120.513 151.701 122.551 151.151C123.512 150.871 124.554 151.068 125.462 151.489C126.37 151.91 126.901 152.655 127.18 153.616C127.343 154.568 127.155 155.493 126.626 156.275C126.097 157.057 125.235 157.579 124.275 157.859C123.682 157.931 123.089 158.004 122.631 157.852ZM124.025 151.85C123.558 151.814 123.208 151.788 122.732 151.869C121.062 152.212 120.12 153.785 120.373 155.096C120.734 156.533 122.316 157.358 123.878 156.889C124.713 156.717 125.333 156.295 125.736 155.62C126.131 155.063 126.31 154.254 126.12 153.653C125.94 152.934 125.508 152.432 124.834 152.028C124.717 152.02 124.376 151.876 124.025 151.85Z" fill="#1D1D1B"/>
<path d="M119.633 150.929C119.562 151.863 120.21 152.617 121.018 152.796C121.953 152.867 122.706 152.219 122.885 151.411C122.956 150.476 122.308 149.722 121.5 149.544C120.449 149.464 119.704 149.995 119.633 150.929Z" fill="white"/>
<path d="M122.659 157.502C126.399 157.785 129.662 154.982 129.945 151.242C130.229 147.501 127.426 144.238 123.685 143.955C119.945 143.671 116.682 146.474 116.399 150.215C116.115 153.956 118.918 157.218 122.659 157.502Z" fill="#F29100"/>
<path d="M122.102 158.634C121.284 158.572 120.485 158.277 119.694 157.864C117.77 156.896 116.367 155.263 115.691 153.333C115.024 151.285 115.184 149.183 116.035 147.251C116.886 145.319 118.636 143.925 120.567 143.249C122.614 142.582 124.716 142.741 126.648 143.592C128.572 144.56 129.975 146.194 130.651 148.124C131.326 150.055 131.158 152.274 130.307 154.206C128.774 157.378 125.363 158.999 122.102 158.634ZM123.946 145.149C123.129 145.087 122.186 145.133 121.342 145.422C119.896 145.899 118.765 146.871 118.075 148.228C117.385 149.585 117.27 151.103 117.748 152.549C118.225 153.995 119.197 155.125 120.554 155.815C123.268 157.196 126.644 156.042 128.024 153.328C128.715 151.971 128.83 150.453 128.352 149.007C127.874 147.561 126.903 146.431 125.546 145.74C125.096 145.472 124.521 145.31 123.946 145.149Z" fill="#1D1D1B"/>
<path d="M118.645 153.087C118.503 154.956 120.14 156.607 122.251 156.649C124.353 156.809 126.22 155.423 126.245 153.546C126.387 151.677 124.75 150.026 122.639 149.984C120.654 149.833 118.787 151.219 118.645 153.087Z" fill="#1D1D1B"/>
<path d="M120.494 150.408C120.674 151.126 120.271 151.8 119.669 151.99C118.951 152.17 118.277 151.767 118.087 151.165C117.907 150.447 118.31 149.772 118.912 149.583C119.522 149.277 120.313 149.689 120.494 150.408Z" fill="white"/>
<path d="M113.589 131.444C119.829 128.158 127.177 128.833 132.607 133.12C142.919 141.184 136.455 152.087 140.412 147.924C145.759 142.457 145.11 132.424 137.773 125.408C131.532 119.414 121.991 118.221 114.11 123.027C109.801 125.636 105.523 130.95 105.574 136.474C105.91 139.788 106.865 134.927 113.589 131.444Z" fill="#8CC800"/>
<path d="M139.086 149.938C138.969 149.929 138.852 149.92 138.736 149.911C137.702 149.598 137.782 148.547 137.771 147.137C137.759 144.199 137.825 138.684 131.954 134.011C126.856 129.983 120.083 129.47 114.221 132.431C110.917 134.178 108.997 136.264 107.966 137.478C107.194 138.359 106.557 139.015 105.64 138.711C104.724 138.406 104.687 137.347 104.623 136.637C104.491 130.637 109.155 124.883 113.59 122.165C121.839 117.153 131.865 118.148 138.654 124.653C145.982 131.786 147.162 142.563 141.294 148.696C140.783 149.244 140.02 150.009 139.086 149.938ZM124.394 128.387C127.646 128.869 130.728 130.042 133.497 132.248C139.925 137.316 140.166 143.442 140.16 146.613C144.681 141.201 143.486 132.183 137.137 126.064C131.112 120.322 122.255 119.416 114.984 123.915C111.411 126.111 107.688 130.292 107.1 134.946C108.375 133.633 110.151 131.888 113.078 130.466C116.624 128.62 120.549 127.978 124.394 128.387Z" fill="#1D1D1B"/>
<path d="M78.1518 151.191C77.1447 158.28 81.6512 163.907 86.731 168.168C92.1435 172.689 98.4709 175.988 103.758 180.617C105.52 182.16 107.813 184.448 107.618 187.017C107.468 189.002 110.603 189.475 110.754 187.49C111.08 181.642 105.281 177.561 100.93 174.53C95.249 170.458 88.589 166.899 84.1993 161.281C81.9416 158.526 80.6625 155.258 81.1705 151.655C81.4466 149.562 78.4191 149.215 78.1518 151.191Z" fill="#1D1D1B"/>
<path d="M84.4671 154.607C97.4311 155.589 108.737 145.877 109.72 132.913C110.703 119.949 100.99 108.643 88.026 107.66C75.0621 106.677 63.756 116.39 62.7733 129.354C61.7905 142.318 71.5032 153.624 84.4671 154.607Z" fill="white"/>
<path d="M82.8623 155.659C69.3775 153.815 59.878 141.232 61.7224 127.747C63.5668 114.262 76.1498 104.763 89.6346 106.607C103.119 108.451 112.619 121.034 110.774 134.519C108.93 148.004 96.3471 157.504 82.8623 155.659ZM89.3408 108.934C77.1405 107.187 65.7962 115.841 64.0492 128.041C62.3021 140.241 70.9559 151.585 83.1561 153.332C95.3563 155.079 106.701 146.426 108.448 134.225C110.078 122.016 101.541 110.681 89.3408 108.934Z" fill="#1D1D1B"/>
<path d="M82.8649 155.659C96.8608 156.72 109.067 146.235 110.128 132.239C111.189 118.243 100.703 106.037 86.7071 104.976C72.7112 103.915 60.5051 114.401 59.4441 128.396C58.3831 142.392 68.869 154.598 82.8649 155.659Z" fill="white"/>
<path d="M81.1498 156.586C66.6228 154.545 56.4846 141.092 58.5255 126.565C60.5664 112.038 74.0199 101.9 88.547 103.94C103.074 105.981 113.212 119.435 111.171 133.962C109.13 148.489 95.6769 158.627 81.1498 156.586ZM88.1363 106.258C74.8851 104.432 62.6702 113.724 60.7267 126.967C58.7832 140.209 68.1924 152.433 81.4437 154.259C94.6949 156.086 106.91 146.794 108.737 133.542C110.671 120.417 101.388 108.085 88.1363 106.258Z" fill="#1D1D1B"/>
<path d="M92.2006 153.314C97.2314 153.695 101.619 149.926 102 144.895C102.382 139.864 98.6125 135.477 93.5817 135.096C88.5509 134.714 84.1635 138.483 83.7821 143.514C83.4008 148.545 87.1698 152.932 92.2006 153.314Z" fill="#F29100"/>
<path d="M91.4203 154.312C85.8413 153.537 81.8921 148.304 82.6674 142.725C83.4427 137.146 88.6752 133.197 94.2542 133.972C99.8332 134.748 103.782 139.98 103.007 145.559C102.232 151.138 96.9993 155.087 91.4203 154.312ZM93.9603 136.299C89.6571 135.738 85.6721 138.725 84.9942 143.019C84.4331 147.322 87.4197 151.307 91.7141 151.985C96.0174 152.546 100.002 149.56 100.68 145.265C101.241 140.962 98.2547 136.977 93.9603 136.299Z" fill="#1D1D1B"/>
<path d="M93.6361 92.5813C85.0578 92.6357 78.0931 97.7455 75.7165 101.206C75.582 101.431 74.4585 100.759 74.6018 100.417C76.007 95.8256 83.8035 87.4901 93.6664 87.5331C95.0767 87.5225 94.8039 92.6698 93.6361 92.5813Z" fill="black"/>
<path d="M89.6274 147.01C89.4415 149.462 91.6178 151.742 94.4206 151.954C97.2233 152.167 99.7095 150.358 99.9043 147.789C100.09 145.337 97.9139 143.058 95.1111 142.845C92.2995 142.749 89.8133 144.558 89.6274 147.01Z" fill="#1D1D1B"/>
<path d="M91.8789 143.658C92.2575 144.861 91.5762 146.101 90.3729 146.48C89.1697 146.859 87.9294 146.177 87.5508 144.974C87.1722 143.771 87.8534 142.53 89.0567 142.152C90.2599 141.773 91.5003 142.455 91.8789 143.658Z" fill="white"/>
<path d="M66.6603 133.876C69.7396 124.244 78.0952 117.83 88.1191 117.298C107.107 116.271 111.592 134.581 111.528 126.12C111.444 114.838 100.375 104.367 85.6337 103.602C72.9946 102.996 61.9459 110.85 58.7266 123.879C57.0187 130.914 58.0091 141.09 63.7825 147.048C67.1549 150.592 63.2854 144.309 66.6603 133.876Z" fill="#8CC800"/>
<path d="M64.9068 149.248C64.2061 149.194 63.5497 148.557 63.01 147.929C56.8049 141.469 55.85 130.825 57.5667 123.673C60.9204 110.421 72.1391 101.875 85.7124 102.551C100.454 103.316 112.574 113.866 112.812 126.217C112.814 127.744 112.707 129.146 111.621 129.533C110.526 130.037 109.662 129.032 108.25 127.516C105.319 124.357 99.347 117.914 88.2632 118.484C78.7064 119.051 70.8533 125.033 67.8094 134.199C66.1176 139.473 66.3828 143.722 66.4482 145.958C66.5578 147.611 66.5949 148.671 65.6252 149.067C65.3828 149.166 65.1404 149.265 64.9068 149.248ZM88.2214 105.091C87.2871 105.02 86.4785 104.841 85.5354 104.887C73.1299 104.299 62.7906 112.089 59.8758 124.201C58.3378 130.544 59.0487 139.76 64.1214 145.664C63.9569 143.185 63.9341 138.838 65.626 133.563C68.9831 123.364 77.59 116.735 88.2067 116.13C100.467 115.533 106.87 122.478 110.018 125.888C110.126 126.014 110.342 126.265 110.45 126.39C110.459 126.274 110.459 126.274 110.468 126.157C110.312 115.809 100.538 106.846 88.2214 105.091Z" fill="#1D1D1B"/>
<g opacity="0.6">
<g opacity="0.6">
<g opacity="0.6">
<g opacity="0.6">
<path opacity="0.6" d="M88.6753 108.414C78.7383 106.251 68.0913 111.904 64.329 121.25C63.3344 123.524 66.9741 125.092 67.9686 122.818C69.4021 119.403 72.0935 116.436 75.3069 114.33C79.1308 111.919 83.765 111.213 88.2664 112.259C89.3086 112.455 90.3137 111.592 90.5102 110.55C90.473 109.49 89.7087 108.727 88.6753 108.414Z" fill="#B4E100"/>
</g>
</g>
</g>
</g>
<path d="M166.967 285.714C162.788 283.518 155.861 281.936 146.547 274.652C132.585 263.61 129.35 238.112 135.076 226.096C138.15 219.635 141.696 210.037 138.88 197.609C136.136 185.773 131.145 180.344 122.554 177.461C112.463 174.229 102.623 178.534 98.9158 188.706C96.1127 196.246 97.3155 203.619 101.691 212.525C105.445 220.327 109.394 225.559 109.65 237.676C110.598 282.498 45.5306 284.025 5.35189 284.151C3.12417 284.099 1.76157 286.58 3.39822 288.231C6.77945 291.658 15.722 296.095 28.6212 296.368C50.8984 296.882 51.847 293.665 69.7219 293.376C87.3633 293.069 92.8466 296.656 115.393 296.721C135.702 296.851 157.76 294.06 166.068 292.928C167.963 292.719 169.255 291.173 169.28 289.295C169.053 287.634 168.216 286.279 166.967 285.714Z" fill="#8CC800"/>
<path d="M31.8111 297.667C30.6345 297.695 29.5834 297.615 28.2899 297.635C15.7411 297.388 6.08015 293.132 2.15041 289.193C1.06226 288.054 0.71022 286.5 1.28359 285.134C1.86581 283.651 3.34688 282.706 4.99069 282.714C30.8334 282.676 78.764 282.551 98.7455 262.219C105.107 255.772 108.206 247.433 108.006 237.669C107.798 228.022 105.241 223.012 102.163 217.141C101.551 215.92 100.831 214.574 100.11 213.227C95.4467 203.477 94.6207 195.78 97.3071 188.232C101.167 177.601 111.644 172.64 122.651 176.176C132.167 179.247 137.106 185.376 139.957 197.338C142.981 210.135 139.165 220.181 136.091 226.643C133.304 232.422 132.73 241.54 134.519 250.484C136.461 260.498 141.007 268.712 147.219 273.528C153.872 278.731 159.336 281.024 163.326 282.619C164.916 283.327 166.291 283.783 167.531 284.465C169.221 285.415 170.382 287.147 170.348 289.141C170.27 291.719 168.467 293.814 165.854 294.204C157.429 295.327 135.614 298.019 115.062 297.988C103.438 297.929 96.1162 296.904 89.7197 296.067C83.6736 295.256 77.9778 294.472 69.5075 294.652C61.6299 294.759 57.2293 295.483 52.5951 296.189C47.3769 296.85 42.0243 297.736 31.8111 297.667ZM115.952 177.782C108.793 177.71 102.717 181.947 100.057 189.145C97.5403 196.001 98.3114 202.872 102.678 211.895C103.281 213.233 104.001 214.579 104.614 215.8C107.692 221.671 110.555 227.291 110.71 237.639C110.964 248.229 107.588 257.134 100.589 264.238C91.6796 273.312 77.3681 279.274 56.5681 282.513C39.1001 285.182 20.758 285.436 4.895 285.525C4.1943 285.472 3.80854 285.913 3.6652 286.254C3.53071 286.479 3.50415 286.829 3.94472 287.215C7.43389 290.768 16.4207 294.621 28.1432 294.922C40.4585 295.151 46.2782 294.3 51.8644 293.432C56.3818 292.717 61.1328 292.02 69.1272 291.921C77.831 291.759 83.6436 292.552 89.8065 293.372C96.4366 294.227 103.291 295.216 114.798 295.266C135.108 295.396 156.923 292.704 165.24 291.456C166.425 291.311 167.322 290.321 167.294 289.145C167.365 288.21 166.843 287.349 166.052 286.936C164.92 286.381 163.67 285.816 162.071 285.225C157.973 283.505 152.275 281.194 145.29 275.731C138.646 270.412 133.786 261.704 131.663 250.973C129.694 241.31 130.42 231.733 133.368 225.38C136.568 218.81 139.728 209.653 136.985 197.817C134.412 186.816 130.122 181.441 121.522 178.675C119.923 178.083 117.838 177.691 115.952 177.782Z" fill="black"/>
<path d="M124.724 207.694C128.639 207.169 129.903 204.446 131.598 202.225C132.09 200.383 133.247 199.061 131.296 196.917C129.137 194.404 124.262 196.736 125.425 199.995C126.209 202.051 125.359 205.511 124.724 207.694Z" fill="#E62828"/>
<path d="M124.429 208.494C124.312 208.485 124.087 208.35 123.979 208.225C123.763 207.973 123.673 207.614 123.808 207.389C124.756 204.173 125.068 201.612 124.581 200.283C123.896 198.47 124.739 196.654 126.462 195.61C128.06 194.674 130.422 194.501 132.041 196.386C133.759 198.513 132.503 199.592 131.724 202.117C131.715 202.234 131.321 202.791 131.312 202.908C129.222 205.686 127.67 207.565 124.887 208.646C124.77 208.637 124.536 208.619 124.429 208.494ZM129.653 196.909C128.853 196.614 128.009 196.902 127.398 197.208C126.662 197.622 125.891 198.503 126.278 199.59C126.963 201.404 126.526 204.072 125.998 206.381C128.396 205.741 129.265 203.575 130.7 201.687C131.192 199.845 131.838 199.072 130.551 197.447C130.335 197.196 130.003 196.936 129.653 196.909Z" fill="black"/>
<path d="M129.365 205.344C129.248 205.336 129.248 205.336 129.365 205.344C128.781 205.3 128.466 204.806 128.51 204.223C128.733 202.83 128.705 201.653 128.309 200.684C128.111 200.199 128.388 199.633 128.864 199.551C129.349 199.353 129.915 199.631 129.997 200.107C130.582 201.678 130.458 203.313 130.253 204.472C130.209 205.056 129.832 205.38 129.365 205.344Z" fill="black"/>
<path d="M118.433 210.153C113.618 210.141 109.232 207.576 105.948 202.864C105.84 202.739 105.84 202.739 105.84 202.739C105.309 201.994 104.007 202.13 104.007 202.13C103.531 202.211 102.965 201.933 102.892 201.341C102.811 200.865 103.08 200.415 103.681 200.226C103.798 200.235 106.061 199.819 107.347 201.443C107.347 201.443 107.455 201.569 107.563 201.695C109.993 205.285 115.568 210.758 124.429 206.967C134.386 202.671 130.853 191.95 130.772 191.474C130.574 190.989 130.852 190.423 131.328 190.341C131.812 190.143 132.379 190.421 132.46 190.897C132.451 191.014 133.505 194.148 133.105 197.876C132.723 201.37 131.075 206.061 125.123 208.664C122.816 209.663 120.66 210.205 118.433 210.153Z" fill="black"/>
<path d="M98.8793 230.987C108.941 248.546 102.16 265.18 92.7532 271.514C90.1591 273.197 80.2288 277.142 80.2288 277.142C80.2288 277.142 73.9099 281.479 60.9045 282.607C51.4468 283.417 42.7926 279.824 34.7262 271.578C25.4725 261.95 19.0915 234.57 42.8328 218.869C62.7326 205.813 87.8902 211.714 98.8793 230.987Z" fill="#E62828"/>
<path d="M90.3207 230.808C89.9704 230.782 89.5121 230.629 89.3051 230.261C83.4946 223.243 74.867 219.301 64.8785 219.366L64.7617 219.357C63.9442 219.295 63.3957 218.783 63.3409 217.957C63.4029 217.14 63.9143 216.591 64.7406 216.536L64.8574 216.545C75.6634 216.542 85.0908 220.78 91.432 228.543C91.9717 229.171 91.7929 229.98 91.2815 230.528C91.0391 230.628 90.6711 230.835 90.3207 230.808Z" fill="#FF5A5A"/>
<path d="M41.7355 230.296C41.2683 230.261 40.81 230.108 40.4951 229.615C36.5354 222.972 30.378 218.982 23.2454 218.558C22.4279 218.496 21.8882 217.868 21.9502 217.051C22.0122 216.233 22.6404 215.694 23.4578 215.756C31.5247 216.25 38.4642 220.769 42.9547 228.157C43.3776 228.776 43.19 229.702 42.4538 230.116C42.2114 230.215 41.969 230.314 41.7355 230.296Z" fill="black"/>
<path d="M59.4085 283.785C57.1808 283.734 54.8451 283.557 52.5272 283.146C43.6146 281.413 36.3513 276.517 30.9619 268.591C25.2577 260.172 23.4321 250.168 25.9452 240.257C28.5026 229.763 35.6427 220.79 45.5448 215.668C53.1306 211.662 62.5423 209.909 71.3824 211.049C80.9231 212.242 89.165 216.626 94.7685 223.276C100.048 229.549 103.344 237.198 104.071 244.653C104.826 253.284 102.311 261.668 96.5887 268.986C96.0773 269.534 95.2421 269.706 94.6936 269.194C94.1451 268.683 93.9736 267.848 94.4849 267.299C106.451 251.998 101.474 235.529 92.7494 225.119C81.4434 211.577 60.5852 210.936 46.877 218.236C37.7022 223.06 31.0823 231.368 28.7037 241.053C26.4862 250.164 28.1313 259.45 33.3048 267.125C44.938 284.098 62.8378 281.931 72.446 279.136C84.335 275.691 89.4139 262.921 88.2343 252.144C87.2898 242.911 81.368 232.713 68.0548 231.704C58.1194 231.068 49.2541 239.558 48.3106 247.355C47.6964 252.359 50.3255 257.962 54.9099 261.011C57.3729 262.607 62.4865 264.874 68.8779 261.13C71.2119 259.78 72.9159 257.442 73.4699 254.783C74.0062 252.357 73.4825 249.968 72.2139 248.11C70.5048 245.867 68.2311 244.872 65.9591 245.405C63.9207 245.955 62.3776 247.717 62.1104 249.693C62.0484 250.511 61.3034 251.042 60.6116 250.872C59.7941 250.81 59.2633 250.065 59.4332 249.373C59.789 246.229 62.1036 243.585 65.3364 242.773C68.8116 241.862 72.2266 243.296 74.5656 246.527C76.3739 249.013 76.9523 252.228 76.3629 255.355C75.6302 258.823 73.5226 261.834 70.4526 263.598C64.7973 266.928 58.5812 266.809 53.5473 263.491C48.064 259.904 44.9218 253.324 45.7414 247.161C46.3291 242.507 49.1533 237.788 53.2905 234.343C57.7956 230.691 63.1111 228.745 68.3663 229.144C74.9062 229.639 80.586 232.184 84.5882 236.716C88.2755 240.754 90.4641 245.97 91.1804 252.015C92.5051 263.978 86.736 278.105 73.4013 282.027C69.5846 282.795 64.8071 283.842 59.4085 283.785Z" fill="black"/>
<path fill-rule="evenodd" clip-rule="evenodd" d="M54.0303 212.2C57.8208 204.031 54.1445 193.651 53.5517 193.724C52.5997 193.886 44.7875 196.231 39.6188 200.889C33.3193 206.519 31.7476 214.857 37.7777 217.428C46.3151 221.012 51.3511 218.105 54.0303 212.2Z" fill="#B4E100"/>
<path d="M44.5154 219.936C42.4045 219.893 39.9786 219.357 37.4802 218.228C35.0898 217.225 33.5876 215.349 33.1896 212.852C32.5563 208.811 34.8144 203.814 38.9692 200.136C44.3804 195.378 52.435 192.935 53.387 192.772C53.6206 192.79 54.0965 192.708 54.4115 193.202C55.5898 194.701 58.4842 204.551 54.8281 212.496C53.2779 215.902 51.1155 218.087 48.3322 219.168C47.2368 219.672 45.9257 219.925 44.5154 219.936ZM53.2365 194.757C51.3148 195.316 44.6793 197.632 40.2732 201.526C36.6209 204.773 34.5239 209.195 35.0935 212.527C35.419 214.431 36.4895 215.804 38.3137 216.529C45.4851 219.54 50.5316 218.043 53.3542 211.797C56.3467 204.859 54.038 196.58 53.2365 194.757Z" fill="black"/>
<path d="M65.273 234.312C64.8059 234.276 64.4732 234.016 64.3919 233.54C64.2203 232.705 64.0487 231.87 63.8859 230.918C63.4702 228.655 63.0722 226.158 62.5132 224.236C62.4318 223.76 62.7097 223.194 63.1856 223.113C63.6616 223.031 64.2278 223.309 64.3092 223.785C64.8682 225.707 65.2574 228.32 65.6731 230.583C65.8358 231.535 65.9986 232.487 66.179 233.206C66.2604 233.682 65.9826 234.248 65.3898 234.321L65.273 234.312Z" fill="black"/>
<path d="M58.6903 235.927C58.34 235.9 57.9985 235.757 57.9082 235.398C57.0979 233.692 55.3339 230.622 54.3891 229.141C54.0653 228.764 54.2264 228.189 54.6033 227.865C54.9802 227.541 55.5553 227.702 55.8791 228.079C56.9407 229.569 58.6958 232.756 59.614 234.587C59.8122 235.072 59.6511 235.647 59.1663 235.845C59.0495 235.837 58.8159 235.819 58.6903 235.927Z" fill="black"/>
<path d="M84.1636 243.849C83.8133 243.822 83.4718 243.679 83.3816 243.32C83.1834 242.835 83.3445 242.26 83.8293 242.062C85.0502 241.449 86.7649 240.522 88.3539 239.703C90.0685 238.776 91.7831 237.849 92.8873 237.228C93.3721 237.03 93.9472 237.191 94.1454 237.676C94.3435 238.16 94.1825 238.735 93.6976 238.934C92.4767 239.546 90.762 240.473 89.173 241.292C87.4584 242.219 85.7438 243.146 84.5228 243.758C84.3972 243.866 84.2804 243.858 84.1636 243.849Z" fill="black"/>
<path d="M40.5648 213.176C40.448 213.167 40.3313 213.159 40.1066 213.024C39.6571 212.755 39.459 212.27 39.728 211.821C39.8713 211.479 43.6087 204.011 48.3829 199.909C48.7598 199.586 49.3437 199.63 49.6675 200.007C49.9913 200.384 49.947 200.968 49.5701 201.291C45.0561 205.06 41.3186 212.529 41.3186 212.529C41.2832 212.996 40.9152 213.203 40.5648 213.176Z" fill="black"/>
<g opacity="0.6">
<g opacity="0.6">
<g opacity="0.6">
<g opacity="0.6">
<path opacity="0.6" d="M122.031 184.351C121.798 184.333 121.564 184.315 121.339 184.181C119.542 183.105 117.457 182.712 115.329 182.903C114.619 182.967 113.837 182.438 113.773 181.728C113.71 181.019 114.239 180.237 114.948 180.173C117.67 179.909 120.329 180.463 122.693 181.817C123.367 182.22 123.539 183.056 123.135 183.73C122.875 184.062 122.507 184.269 122.031 184.351Z" fill="#B4E100"/>
</g>
</g>
</g>
</g>
<path d="M77.3714 242.041C77.0211 242.015 76.5628 241.863 76.3469 241.611C74.8359 239.853 71.996 238.58 69.31 238.377C68.4925 238.315 67.9529 237.686 68.0149 236.869C68.0768 236.051 68.705 235.512 69.5225 235.574C72.9092 235.831 76.3064 237.498 78.3748 239.651C78.9144 240.279 78.8525 241.097 78.2243 241.636C77.973 241.852 77.605 242.059 77.3714 242.041Z" fill="#FF5A5A"/>
<path d="M155.622 288.143C155.506 288.134 155.272 288.116 155.155 288.107C149.449 285.913 144.829 283.331 142.095 280.657C141.547 280.146 141.501 279.203 142.129 278.663C142.641 278.115 143.584 278.069 144.123 278.697C146.524 281.111 150.812 283.432 156.176 285.483C156.859 285.77 157.273 286.506 156.978 287.306C156.7 287.872 156.206 288.187 155.622 288.143Z" fill="#B4E100"/>
<path d="M82.272 254.863C82.1552 254.854 82.0384 254.846 82.0384 254.846C81.9216 254.837 81.8049 254.828 81.8137 254.711C81.6969 254.702 81.7058 254.585 81.589 254.577C81.4722 254.568 81.4811 254.451 81.3643 254.442C81.1484 254.191 80.9414 253.823 80.968 253.472C80.9768 253.356 80.9857 253.239 80.9857 253.239C80.9945 253.122 81.0034 253.005 81.1202 253.014C81.129 252.897 81.2458 252.906 81.2547 252.789C81.2635 252.673 81.3803 252.682 81.3891 252.565C81.6404 252.349 82.0085 252.142 82.3588 252.168C82.7092 252.195 83.0507 252.338 83.3833 252.599C83.4912 252.724 83.4912 252.724 83.5992 252.85C83.5903 252.967 83.7071 252.975 83.6982 253.092C83.6894 253.209 83.8062 253.218 83.7973 253.335C83.7885 253.451 83.7796 253.568 83.7796 253.568C83.7531 253.919 83.6097 254.26 83.3496 254.593C82.9904 254.683 82.6223 254.89 82.272 254.863Z" fill="black"/>
<path d="M79.0472 278.814C78.6969 278.787 78.2386 278.635 78.0316 278.267C77.4919 277.639 77.6707 276.83 78.1821 276.282C81.9423 273.161 84.5823 272.421 86.872 271.655C89.3953 270.907 91.3169 270.348 94.3941 266.94C94.9055 266.392 95.7319 266.337 96.3972 266.857C96.9457 267.368 97.0005 268.195 96.4802 268.86C92.8916 272.816 90.3683 273.565 87.7195 274.421C85.5554 275.079 83.2745 275.728 80.0169 278.418C79.7568 278.75 79.3976 278.841 79.0472 278.814Z" fill="black"/>
<path d="M126.456 107.402C132.778 106.12 138.557 108.907 140.859 111.078C140.967 111.204 141.721 110.556 141.622 110.314C139.984 107.136 133.071 102.266 125.805 103.594C124.611 103.856 125.621 107.574 126.456 107.402Z" fill="black"/>
<path d="M35.492 239.806C35.3752 239.797 35.2584 239.788 35.1416 239.78C34.6833 239.627 34.3773 239.017 34.6462 238.568C37.844 230.471 44.6655 225.702 47.0985 224.595C47.5833 224.397 48.1584 224.558 48.3565 225.043C48.5547 225.527 48.3936 226.103 47.9088 226.301C45.835 227.318 39.3905 231.762 36.3537 239.284C36.2104 239.626 35.8423 239.833 35.492 239.806Z" fill="black"/>
<path d="M109.351 233.895C105.75 234.914 104.092 238.195 104.752 241.886C105.429 245.343 107.696 247.982 110.734 249.739C117.151 253.397 124.663 255.023 131.68 256.964C133.181 257.313 134.672 257.779 136.164 258.244C136.622 258.396 137.197 258.557 137.655 258.709C137.997 258.853 138.33 259.113 138.123 258.745C138.752 259.732 140.458 258.922 139.828 257.934C139.099 256.705 136.889 256.42 135.622 256.089C132.63 255.275 129.638 254.461 126.646 253.646C123.196 252.68 119.754 251.597 116.447 250.289C113.706 249.259 110.516 247.96 108.582 245.582C106.1 242.693 105.231 237.106 109.793 235.808C110.88 235.42 110.545 233.633 109.351 233.895Z" fill="black"/>
<path d="M132.56 234.48C134.339 234.262 135.841 236.138 136.552 237.601C138.074 240.77 137.673 244.499 137.183 247.868C136.88 250.311 136.569 252.871 135.583 255.028C135.162 255.936 134.785 256.26 134.265 256.925C133.484 257.923 135.049 258.981 135.829 257.983C135.838 257.867 136.089 257.651 136.08 257.768C136.08 257.768 136.34 257.435 136.466 257.327C136.726 256.994 136.986 256.662 137.13 256.32C137.945 254.855 138.312 253.121 138.669 251.504C139.777 246.185 141.009 239.231 137.124 234.708C135.936 233.326 134.255 232.259 132.36 232.468C130.932 232.712 131.375 234.625 132.56 234.48Z" fill="black"/>
<path d="M153.154 255.93C153.795 252.496 152.614 249.395 150.515 249.004C148.417 248.612 146.196 251.078 145.555 254.511C144.914 257.945 146.096 261.046 148.194 261.438C150.292 261.829 152.513 259.364 153.154 255.93Z" fill="#D50F78"/>
<path d="M159.982 256.583C160.374 254.485 158.99 252.466 156.892 252.075C154.794 251.683 152.775 253.066 152.383 255.165C151.991 257.263 153.375 259.281 155.473 259.673C157.571 260.065 159.59 258.682 159.982 256.583Z" fill="#D50F78"/>
<path d="M139.162 243.437C135.546 247.744 140.816 252.607 143.015 251.481C145.466 250.14 140.901 248.385 139.162 243.437Z" fill="#2D8936"/>
<path d="M131.175 258.923C132.63 250.577 143.105 251.841 144.007 255.433C144.991 259.501 138.43 256.184 131.175 258.923Z" fill="#13A438"/>
<path d="M136.221 263.652C132.999 258.122 139.794 253.704 142.015 255.399C144.577 257.238 139.198 258.474 136.221 263.652Z" fill="#2D8936"/>
<path d="M134.629 245.913C132.482 254.089 142.573 257.321 144.914 254.327C147.39 251.108 140.079 251.494 134.629 245.913Z" fill="#13A438"/>
<path d="M145.972 260.93C146.364 258.832 144.98 256.813 142.882 256.421C140.784 256.03 138.765 257.413 138.373 259.511C137.982 261.61 139.365 263.628 141.463 264.02C143.562 264.412 145.58 263.028 145.972 260.93Z" fill="#D50F78"/>
<path d="M143.612 262.214L143.603 262.331C143.585 262.564 143.451 262.789 143.217 262.771C141.214 262.854 140.126 261.715 140.009 261.706C139.784 261.571 139.811 261.221 140.062 261.005C140.197 260.781 140.547 260.807 140.763 261.058C140.763 261.058 141.635 261.947 143.171 261.828C143.288 261.837 143.513 261.971 143.612 262.214Z" fill="#EB6FA6"/>
<path d="M144.755 255.341C145.147 253.243 143.764 251.224 141.665 250.832C139.567 250.44 137.548 251.824 137.157 253.922C136.765 256.021 138.148 258.039 140.247 258.431C142.345 258.823 144.364 257.439 144.755 255.341Z" fill="#D50F78"/>
<path d="M142.286 256.477L142.277 256.593C142.259 256.827 142.125 257.052 141.891 257.034C139.888 257.117 138.8 255.977 138.683 255.969C138.458 255.834 138.485 255.484 138.736 255.268C138.871 255.043 139.221 255.07 139.437 255.321C139.437 255.321 140.309 256.209 141.845 256.091C142.07 256.225 142.294 256.36 142.286 256.477Z" fill="#EB6FA6"/>
<path d="M151.615 262.194C152.006 260.095 150.623 258.077 148.525 257.685C146.426 257.293 144.408 258.677 144.016 260.775C143.624 262.873 145.008 264.892 147.106 265.284C149.204 265.675 151.223 264.292 151.615 262.194Z" fill="#D50F78"/>
<path d="M149.157 263.457L149.148 263.574C149.13 263.807 148.996 264.032 148.762 264.015C146.759 264.098 145.671 262.958 145.554 262.949C145.329 262.815 145.356 262.464 145.607 262.248C145.742 262.024 146.092 262.05 146.308 262.302C146.308 262.302 147.18 263.19 148.716 263.071C148.833 263.08 149.058 263.215 149.157 263.457Z" fill="#EB6FA6"/>
<path d="M156.757 260.557C157.149 258.458 155.766 256.44 153.667 256.048C151.569 255.656 149.55 257.04 149.159 259.138C148.767 261.236 150.15 263.255 152.249 263.647C154.347 264.038 156.366 262.655 156.757 260.557Z" fill="#D50F78"/>
<path d="M154.338 261.736L154.329 261.853C154.312 262.086 154.177 262.311 153.944 262.293C151.941 262.376 150.853 261.237 150.736 261.228C150.511 261.093 150.538 260.743 150.789 260.527C150.923 260.302 151.274 260.329 151.49 260.58C151.49 260.58 152.362 261.469 153.898 261.35C154.122 261.485 154.23 261.61 154.338 261.736Z" fill="#EB6FA6"/>
<path d="M157.277 250.833C157.668 248.735 156.285 246.716 154.187 246.324C152.088 245.932 150.07 247.316 149.678 249.414C149.286 251.512 150.67 253.531 152.768 253.923C154.866 254.315 156.885 252.931 157.277 250.833Z" fill="#D50F78"/>
<path d="M150.437 255.274C150.829 253.176 149.445 251.157 147.347 250.765C145.249 250.374 143.23 251.757 142.838 253.855C142.446 255.954 143.83 257.972 145.928 258.364C148.027 258.756 150.045 257.372 150.437 255.274Z" fill="#D50F78"/>
<path d="M148.041 256.443L148.033 256.559C148.015 256.793 147.88 257.018 147.647 257C145.644 257.083 144.556 255.943 144.439 255.935C144.214 255.8 144.241 255.45 144.492 255.234C144.626 255.009 144.977 255.036 145.193 255.287C145.193 255.287 146.065 256.175 147.601 256.057C147.826 256.191 147.933 256.317 148.041 256.443Z" fill="#EB6FA6"/>
<path d="M156.431 255.584C156.823 253.486 155.439 251.467 153.341 251.075C151.243 250.683 149.224 252.067 148.832 254.165C148.441 256.263 149.824 258.282 151.922 258.674C154.021 259.066 156.039 257.682 156.431 255.584Z" fill="#D50F78"/>
<path d="M154.008 256.777L153.999 256.894C153.982 257.128 153.847 257.352 153.614 257.335C151.611 257.418 150.522 256.278 150.406 256.269C150.181 256.135 150.207 255.784 150.459 255.568C150.593 255.344 150.944 255.37 151.159 255.622C151.159 255.622 152.032 256.51 153.568 256.391C153.792 256.526 153.9 256.652 154.008 256.777Z" fill="#EB6FA6"/>
<path d="M147.081 249.136C147.473 247.038 146.09 245.019 143.991 244.627C141.893 244.236 139.875 245.619 139.483 247.717C139.091 249.816 140.474 251.834 142.573 252.226C144.671 252.618 146.69 251.234 147.081 249.136Z" fill="#D50F78"/>
<path d="M144.741 250.437L144.732 250.554C144.714 250.787 144.58 251.012 144.346 250.994C142.343 251.077 141.255 249.938 141.138 249.929C140.913 249.795 140.94 249.444 141.191 249.228C141.326 249.004 141.676 249.03 141.892 249.281C141.892 249.281 142.764 250.17 144.3 250.051C144.417 250.06 144.642 250.195 144.741 250.437Z" fill="#EB6FA6"/>
<path d="M151.587 248.229C151.979 246.13 150.596 244.112 148.497 243.72C146.399 243.328 144.38 244.712 143.989 246.81C143.597 248.908 144.98 250.927 147.079 251.319C149.177 251.71 151.196 250.327 151.587 248.229Z" fill="#D50F78"/>
<path d="M149.159 249.481L149.15 249.597C149.132 249.831 148.998 250.056 148.764 250.038C146.761 250.121 145.673 248.981 145.556 248.972C145.331 248.838 145.358 248.488 145.609 248.272C145.744 248.047 146.094 248.074 146.31 248.325C146.31 248.325 147.182 249.213 148.718 249.095C148.835 249.104 149.06 249.238 149.159 249.481Z" fill="#EB6FA6"/>
<defs>
<clipPath id="clip0_1742_18359">
<rect width="191" height="126" fill="white" transform="translate(101 31.4596) rotate(-9.48039)"/>
</clipPath>
</defs>
</svg>
