<svg width="186" height="228" viewBox="0 0 186 228" fill="none" xmlns="http://www.w3.org/2000/svg">
<path d="M112.23 71.4831C110.44 76.5153 108.82 82.3826 110.775 87.5813C111.946 90.7239 114.59 93.0385 116.039 95.6149C116.975 97.2127 117.318 98.8831 117.284 100.877C117.134 102.863 120.296 102.985 120.446 101C120.613 97.2536 119.199 94.2101 116.95 91.3382C114.801 88.7087 113.109 86.2314 113.15 82.5934C113.065 79.0634 114.148 75.6219 115.339 72.306C115.948 70.4729 112.965 69.542 112.23 71.4831Z" fill="#1D1D1B"/>
<path d="M122.262 77.0589C131.873 77.7874 140.254 70.5874 140.982 60.9773C141.711 51.3672 134.511 42.9861 124.901 42.2576C115.291 41.5291 106.909 48.729 106.181 58.3391C105.452 67.9492 112.652 76.3303 122.262 77.0589Z" fill="white"/>
<path d="M121.007 78.1382C110.774 76.7753 103.622 67.3066 105.102 57.0828C106.465 46.8502 115.934 39.6986 126.157 41.1783C136.381 42.6581 143.542 52.01 142.062 62.2337C140.699 72.4663 131.23 79.618 121.007 78.1382ZM125.864 43.5051C116.916 42.2395 108.686 48.5454 107.429 57.3766C106.163 66.3246 112.469 74.5547 121.3 75.8114C130.132 77.0682 138.478 70.7711 139.735 61.9399C141.001 52.9919 134.812 44.7707 125.864 43.5051Z" fill="#1D1D1B"/>
<path d="M117.218 70.8032C116.926 74.657 122.158 78.4597 127.211 75.3192C131.763 72.6104 129.259 66.9003 126.518 65.8704C119.23 62.8514 117.413 68.234 117.218 70.8032Z" fill="#F29100"/>
<path d="M116.633 70.7593C116.695 69.9418 117.024 67.1479 119.025 65.5378C120.901 64.0356 123.488 63.9968 126.795 65.3046C128.619 66.0302 130.086 68.373 130.259 70.7352C130.45 72.8639 129.491 74.6704 127.516 75.9301C125.919 76.8661 124.123 77.3172 122.38 77.0677C119.002 76.6942 116.403 73.7957 116.633 70.7593ZM119.79 66.3005C118.165 67.5868 117.971 70.156 117.917 70.8567C117.74 73.1924 119.908 75.5883 122.702 75.9175C124.094 76.1406 125.648 75.7885 127.003 74.9516C128.969 73.8086 129.336 72.0746 129.191 70.8891C128.991 68.8772 127.597 67.1272 126.356 66.4459C122.626 64.5188 120.669 65.545 119.79 66.3005Z" fill="#1D1D1B"/>
<path d="M126.704 72.6971C127.047 74.3674 125.98 76.0483 124.067 76.4906C122.271 76.9417 120.348 75.9737 119.996 74.4201C119.653 72.7498 120.837 71.0777 122.633 70.6266C124.554 70.0676 126.361 71.0267 126.704 72.6971Z" fill="#1D1D1B"/>
<path d="M122.631 76.8515C121.238 76.6285 120.016 75.7136 119.646 74.3936C119.195 72.5976 120.513 70.7008 122.551 70.1506C123.512 69.8711 124.554 70.0676 125.462 70.4887C126.37 70.9099 126.901 71.6549 127.18 72.6157C127.343 73.5677 127.155 74.4931 126.626 75.2751C126.097 76.0572 125.235 76.5791 124.275 76.8587C123.682 76.9312 123.089 77.0037 122.631 76.8515ZM124.025 70.8496C123.558 70.8142 123.208 70.7876 122.732 70.869C121.062 71.2122 120.12 72.7852 120.373 74.0964C120.734 75.5332 122.316 76.3578 123.878 75.889C124.713 75.7174 125.333 75.2945 125.736 74.6204C126.131 74.063 126.31 73.2545 126.12 72.6528C125.94 71.9344 125.508 71.4318 124.834 71.0284C124.717 71.0195 124.376 70.8762 124.025 70.8496Z" fill="#1D1D1B"/>
<path d="M119.633 69.929C119.562 70.8633 120.21 71.6171 121.018 71.7959C121.953 71.8667 122.706 71.2191 122.885 70.4105C122.956 69.4763 122.308 68.7224 121.5 68.5437C120.449 68.464 119.704 68.9948 119.633 69.929Z" fill="white"/>
<path d="M122.659 76.5016C126.399 76.7852 129.662 73.9825 129.945 70.2416C130.229 66.5008 127.426 63.2383 123.685 62.9548C119.945 62.6712 116.682 65.4738 116.399 69.2147C116.115 72.9555 118.918 76.218 122.659 76.5016Z" fill="#F29100"/>
<path d="M122.102 77.6343C121.284 77.5723 120.485 77.2768 119.694 76.8644C117.77 75.8965 116.367 74.2631 115.691 72.3327C115.024 70.2854 115.184 68.1833 116.035 66.2511C116.886 64.3189 118.636 62.9247 120.567 62.2489C122.614 61.5819 124.716 61.7412 126.648 62.5924C128.572 63.5604 129.975 65.1937 130.651 67.1242C131.326 69.0547 131.158 71.2735 130.307 73.2057C128.774 76.3782 125.363 77.9989 122.102 77.6343ZM123.946 64.1494C123.129 64.0874 122.186 64.1334 121.342 64.4218C119.896 64.8995 118.765 65.8708 118.075 67.2279C117.385 68.5851 117.27 70.1033 117.748 71.5489C118.225 72.9946 119.197 74.1253 120.554 74.8154C123.268 76.1957 126.644 75.0422 128.024 72.328C128.715 70.9708 128.83 69.4527 128.352 68.007C127.874 66.5613 126.903 65.4306 125.546 64.7405C125.096 64.4715 124.521 64.3104 123.946 64.1494Z" fill="#1D1D1B"/>
<path d="M118.645 72.0871C118.503 73.9557 120.14 75.6066 122.251 75.6492C124.353 75.8085 126.22 74.4231 126.245 72.5458C126.387 70.6772 124.75 69.0263 122.639 68.9837C120.654 68.8332 118.787 70.2186 118.645 72.0871Z" fill="#1D1D1B"/>
<path d="M120.494 69.4078C120.674 70.1262 120.271 70.8004 119.669 70.9897C118.951 71.1701 118.277 70.7666 118.087 70.165C117.907 69.4466 118.31 68.7725 118.912 68.5832C119.522 68.2771 120.313 68.6894 120.494 69.4078Z" fill="white"/>
<path d="M113.589 50.4437C119.829 47.1582 127.177 47.8327 132.607 52.1203C142.919 60.1842 136.455 71.0871 140.412 66.9238C145.759 61.4565 145.11 51.4238 137.773 44.4076C131.532 38.4142 121.991 37.2211 114.11 42.0265C109.801 44.6362 105.523 49.9496 105.574 55.4738C105.91 58.788 106.865 53.9274 113.589 50.4437Z" fill="#8CC800"/>
<path d="M139.086 68.9379C138.969 68.929 138.852 68.9202 138.736 68.9113C137.702 68.5981 137.782 67.547 137.771 66.1367C137.759 63.1994 137.825 57.6841 131.954 53.0107C126.856 48.9832 120.083 48.4697 114.221 51.4315C110.917 53.1778 108.997 55.2639 107.966 56.4776C107.194 57.3588 106.557 58.0152 105.64 57.7108C104.724 57.4065 104.687 56.3465 104.623 55.637C104.491 49.6368 109.155 43.8829 113.59 41.1652C121.839 36.1528 131.865 37.1477 138.654 43.6525C145.982 50.7855 147.162 61.5632 141.294 67.6958C140.783 68.2443 140.02 69.0087 139.086 68.9379ZM124.394 47.3871C127.646 47.8685 130.728 49.0418 133.497 51.2485C139.925 56.3165 140.166 62.4423 140.16 65.6131C144.681 60.2006 143.486 51.1835 137.137 45.0645C131.112 39.3223 122.255 38.4159 114.984 42.9152C111.411 45.1109 107.688 49.292 107.1 53.9456C108.375 52.6327 110.151 50.8881 113.078 49.4656C116.624 47.6203 120.549 46.9782 124.394 47.3871Z" fill="#1D1D1B"/>
<path d="M78.1518 70.1914C77.1447 77.2798 81.6512 82.9068 86.731 87.1678C92.1435 91.689 98.4709 94.9876 103.758 99.6167C105.52 101.16 107.813 103.448 107.618 106.017C107.468 108.002 110.603 108.475 110.754 106.49C111.08 100.642 105.281 96.561 100.93 93.5297C95.249 89.4579 88.589 85.8992 84.1993 80.281C81.9416 77.5259 80.6625 74.2577 81.1705 70.6551C81.4466 68.5619 78.4191 68.215 78.1518 70.1914Z" fill="#1D1D1B"/>
<path d="M84.4671 73.6066C97.4311 74.5894 108.737 64.8766 109.72 51.9127C110.703 38.9487 100.99 27.6427 88.026 26.6599C75.0621 25.6772 63.756 35.3898 62.7733 48.3538C61.7905 61.3177 71.5032 72.6238 84.4671 73.6066Z" fill="white"/>
<path d="M82.8623 74.6592C69.3775 72.8147 59.878 60.2317 61.7224 46.7469C63.5668 33.2621 76.1498 23.7626 89.6346 25.607C103.119 27.4515 112.619 40.0344 110.774 53.5192C108.93 67.004 96.3471 76.5036 82.8623 74.6592ZM89.3408 27.9338C77.1405 26.1868 65.7962 34.8405 64.0492 47.0407C62.3021 59.2409 70.9559 70.5853 83.1561 72.3324C95.3563 74.0794 106.701 65.4256 108.448 53.2254C110.078 41.0163 101.541 29.6809 89.3408 27.9338Z" fill="#1D1D1B"/>
<path d="M82.8649 74.6594C96.8608 75.7204 109.067 65.2345 110.128 51.2386C111.189 37.2427 100.703 25.0367 86.7071 23.9757C72.7112 22.9147 60.5051 33.4005 59.4441 47.3964C58.3831 61.3923 68.869 73.5984 82.8649 74.6594Z" fill="white"/>
<path d="M81.1498 75.5863C66.6228 73.5454 56.4846 60.0919 58.5255 45.5648C60.5664 31.0378 74.0199 20.8996 88.547 22.9405C103.074 24.9814 113.212 38.4349 111.171 52.9619C109.13 67.4889 95.6769 77.6272 81.1498 75.5863ZM88.1363 25.2584C74.8851 23.4317 62.6702 32.7242 60.7267 45.9666C58.7832 59.209 68.1924 71.4328 81.4437 73.2595C94.6949 75.0862 106.91 65.7937 108.737 52.5425C110.671 39.4169 101.388 27.0851 88.1363 25.2584Z" fill="#1D1D1B"/>
<path d="M92.2006 72.3138C97.2314 72.6951 101.619 68.926 102 63.8953C102.382 58.8645 98.6125 54.4771 93.5817 54.0957C88.5509 53.7143 84.1635 57.4834 83.7821 62.5142C83.4008 67.545 87.1698 71.9324 92.2006 72.3138Z" fill="#F29100"/>
<path d="M91.4203 73.3119C85.8413 72.5366 81.8921 67.3042 82.6674 61.7252C83.4427 56.1461 88.6752 52.197 94.2542 52.9723C99.8332 53.7476 103.782 58.98 103.007 64.559C102.232 70.138 96.9993 74.0872 91.4203 73.3119ZM93.9603 55.2991C89.6571 54.738 85.6721 57.7246 84.9942 62.019C84.4331 66.3222 87.4197 70.3072 91.7141 70.9851C96.0174 71.5462 100.002 68.5596 100.68 64.2652C101.241 59.9619 98.2547 55.977 93.9603 55.2991Z" fill="#1D1D1B"/>
<path d="M93.6361 11.5813C85.0578 11.6357 78.0931 16.7455 75.7165 20.2064C75.582 20.4311 74.4585 19.7587 74.6018 19.4172C76.007 14.8256 83.8035 6.4901 93.6664 6.53306C95.0767 6.52251 94.8039 11.6698 93.6361 11.5813Z" fill="black"/>
<path d="M89.6274 66.01C89.4415 68.4625 91.6178 70.7417 94.4206 70.9541C97.2233 71.1666 99.7095 69.3583 99.9043 66.7891C100.09 64.3367 97.9139 62.0576 95.1111 61.8451C92.2995 61.7494 89.8133 63.5576 89.6274 66.01Z" fill="#1D1D1B"/>
<path d="M91.8789 62.6578C92.2575 63.861 91.5762 65.1013 90.3729 65.4799C89.1697 65.8585 87.9294 65.1773 87.5508 63.974C87.1722 62.7708 87.8534 61.5305 89.0567 61.1519C90.2599 60.7733 91.5003 61.4545 91.8789 62.6578Z" fill="white"/>
<path d="M66.6603 52.8764C69.7396 43.2437 78.0952 36.8299 88.1191 36.2978C107.107 35.2707 111.592 53.5811 111.528 45.1196C111.444 33.8376 100.375 23.3673 85.6337 22.6022C72.9946 21.9964 61.9459 29.8504 58.7266 42.8786C57.0187 49.9138 58.0091 60.0899 63.7825 66.0479C67.1549 69.5923 63.2854 63.3088 66.6603 52.8764Z" fill="#8CC800"/>
<path d="M64.9068 68.2476C64.2061 68.1944 63.5497 67.5574 63.01 66.9292C56.8049 60.4687 55.85 49.8255 57.5667 42.6735C60.9204 29.4205 72.1391 20.8747 85.7124 21.5513C100.454 22.3164 112.574 32.8665 112.812 45.2172C112.814 46.7442 112.707 48.1456 111.621 48.533C110.526 49.0372 109.662 48.0322 108.25 46.5157C105.319 43.3571 99.347 36.9143 88.2632 37.4835C78.7064 38.051 70.8533 44.0331 67.8094 53.1986C66.1176 58.4732 66.3828 62.7217 66.4482 64.9583C66.5578 66.611 66.5949 67.6709 65.6252 68.0672C65.3828 68.1662 65.1404 68.2653 64.9068 68.2476ZM88.2214 24.0906C87.2871 24.0198 86.4785 23.841 85.5354 23.887C73.1299 23.2989 62.7906 31.0892 59.8758 43.2009C58.3378 49.5442 59.0487 58.7595 64.1214 64.6644C63.9569 62.1854 63.9341 57.8379 65.626 52.5633C68.9831 42.3644 77.59 35.7348 88.2067 35.1301C100.467 34.5327 106.87 41.478 110.018 44.8879C110.126 45.0135 110.342 45.2648 110.45 45.3905C110.459 45.2737 110.459 45.2737 110.468 45.1569C110.312 34.8092 100.538 25.8465 88.2214 24.0906Z" fill="#1D1D1B"/>
<g opacity="0.6">
<g opacity="0.6">
<g opacity="0.6">
<g opacity="0.6">
<path opacity="0.6" d="M88.6753 27.4138C78.7383 25.2511 68.0913 30.9039 64.329 40.2499C63.3344 42.5236 66.9741 44.0916 67.9686 41.8179C69.4021 38.4029 72.0935 35.4357 75.3069 33.3302C79.1308 30.9187 83.765 30.2128 88.2664 31.2588C89.3086 31.4553 90.3137 30.5918 90.5102 29.5497C90.473 28.4898 89.7087 27.7271 88.6753 27.4138Z" fill="#B4E100"/>
</g>
</g>
</g>
</g>
<path d="M166.967 204.714C162.788 202.518 155.861 200.936 146.547 193.652C132.585 182.61 129.35 157.112 135.076 145.096C138.15 138.635 141.696 129.037 138.88 116.609C136.136 104.773 131.145 99.3438 122.554 96.461C112.463 93.2295 102.623 97.534 98.9158 107.706C96.1127 115.246 97.3155 122.619 101.691 131.525C105.445 139.327 109.394 144.559 109.65 156.676C110.598 201.498 45.5306 203.025 5.35189 203.151C3.12417 203.099 1.76157 205.58 3.39822 207.231C6.77945 210.658 15.722 215.095 28.6212 215.368C50.8984 215.882 51.847 212.665 69.7219 212.376C87.3633 212.069 92.8466 215.656 115.393 215.721C135.702 215.851 157.76 213.06 166.068 211.928C167.963 211.719 169.255 210.173 169.28 208.295C169.053 206.634 168.216 205.279 166.967 204.714Z" fill="#8CC800"/>
<path d="M31.8111 216.667C30.6345 216.695 29.5834 216.615 28.2899 216.635C15.7411 216.388 6.08015 212.132 2.15041 208.193C1.06226 207.054 0.71022 205.5 1.28359 204.134C1.86581 202.651 3.34688 201.706 4.99069 201.714C30.8334 201.676 78.764 201.551 98.7455 181.219C105.107 174.772 108.206 166.433 108.006 156.669C107.798 147.022 105.241 142.012 102.163 136.141C101.551 134.92 100.831 133.574 100.11 132.227C95.4467 122.477 94.6207 114.78 97.3071 107.232C101.167 96.6013 111.644 91.6402 122.651 95.1761C132.167 98.2466 137.106 104.376 139.957 116.338C142.981 129.135 139.165 139.181 136.091 145.643C133.304 151.422 132.73 160.54 134.519 169.484C136.461 179.498 141.007 187.712 147.219 192.528C153.872 197.731 159.336 200.024 163.326 201.619C164.916 202.327 166.291 202.783 167.531 203.465C169.221 204.415 170.382 206.147 170.348 208.141C170.27 210.719 168.467 212.814 165.854 213.204C157.429 214.327 135.614 217.019 115.062 216.988C103.438 216.929 96.1162 215.904 89.7197 215.067C83.6736 214.256 77.9778 213.472 69.5075 213.652C61.6299 213.759 57.2293 214.483 52.5951 215.189C47.3769 215.85 42.0243 216.736 31.8111 216.667ZM115.952 96.7824C108.793 96.7095 102.717 100.947 100.057 108.145C97.5403 115.001 98.3114 121.872 102.678 130.895C103.281 132.233 104.001 133.579 104.614 134.8C107.692 140.671 110.555 146.291 110.71 156.639C110.964 167.229 107.588 176.134 100.589 183.238C91.6796 192.312 77.3681 198.274 56.5681 201.513C39.1001 204.182 20.758 204.436 4.895 204.525C4.1943 204.472 3.80854 204.913 3.6652 205.254C3.53071 205.479 3.50415 205.829 3.94472 206.215C7.43389 209.768 16.4207 213.621 28.1432 213.922C40.4585 214.151 46.2782 213.3 51.8644 212.432C56.3818 211.717 61.1328 211.02 69.1272 210.921C77.831 210.759 83.6436 211.552 89.8065 212.372C96.4366 213.227 103.291 214.216 114.798 214.266C135.108 214.396 156.923 211.704 165.24 210.456C166.425 210.311 167.322 209.321 167.294 208.145C167.365 207.21 166.843 206.349 166.052 205.936C164.92 205.381 163.67 204.816 162.071 204.225C157.973 202.505 152.275 200.194 145.29 194.731C138.646 189.412 133.786 180.704 131.663 169.973C129.694 160.31 130.42 150.733 133.368 144.38C136.568 137.81 139.728 128.653 136.985 116.817C134.412 105.816 130.122 100.441 121.522 97.6745C119.923 97.0835 117.838 96.6905 115.952 96.7824Z" fill="black"/>
<path d="M124.724 126.694C128.639 126.169 129.903 123.446 131.598 121.225C132.09 119.383 133.247 118.061 131.296 115.917C129.137 113.404 124.262 115.736 125.425 118.995C126.209 121.051 125.359 124.511 124.724 126.694Z" fill="#E62828"/>
<path d="M124.429 127.494C124.312 127.485 124.087 127.35 123.979 127.225C123.763 126.973 123.673 126.614 123.808 126.389C124.756 123.173 125.068 120.612 124.581 119.283C123.896 117.47 124.739 115.654 126.462 114.61C128.06 113.674 130.422 113.501 132.041 115.386C133.759 117.513 132.503 118.592 131.724 121.117C131.715 121.234 131.321 121.791 131.312 121.908C129.222 124.686 127.67 126.565 124.887 127.646C124.77 127.637 124.536 127.619 124.429 127.494ZM129.653 115.909C128.853 115.614 128.009 115.902 127.398 116.208C126.662 116.622 125.891 117.503 126.278 118.59C126.963 120.404 126.526 123.072 125.998 125.381C128.396 124.741 129.265 122.575 130.7 120.687C131.192 118.845 131.838 118.072 130.551 116.447C130.335 116.196 130.003 115.936 129.653 115.909Z" fill="black"/>
<path d="M129.365 124.344C129.248 124.336 129.248 124.336 129.365 124.344C128.781 124.3 128.466 123.806 128.51 123.223C128.733 121.83 128.705 120.653 128.309 119.684C128.111 119.199 128.388 118.633 128.864 118.551C129.349 118.353 129.915 118.631 129.997 119.107C130.582 120.678 130.458 122.313 130.253 123.472C130.209 124.056 129.832 124.38 129.365 124.344Z" fill="black"/>
<path d="M118.433 129.153C113.618 129.141 109.232 126.576 105.948 121.864C105.84 121.739 105.84 121.739 105.84 121.739C105.309 120.994 104.007 121.13 104.007 121.13C103.531 121.211 102.965 120.933 102.892 120.341C102.811 119.865 103.08 119.415 103.681 119.226C103.798 119.235 106.061 118.819 107.347 120.443C107.347 120.443 107.455 120.569 107.563 120.695C109.993 124.285 115.568 129.758 124.429 125.967C134.386 121.671 130.853 110.95 130.772 110.474C130.574 109.989 130.852 109.423 131.328 109.341C131.812 109.143 132.379 109.421 132.46 109.897C132.451 110.014 133.505 113.148 133.105 116.876C132.723 120.37 131.075 125.061 125.123 127.664C122.816 128.663 120.66 129.205 118.433 129.153Z" fill="black"/>
<path d="M98.8793 149.987C108.941 167.546 102.16 184.18 92.7532 190.514C90.1591 192.197 80.2288 196.142 80.2288 196.142C80.2288 196.142 73.9099 200.479 60.9045 201.607C51.4468 202.417 42.7926 198.824 34.7262 190.578C25.4725 180.95 19.0915 153.57 42.8328 137.869C62.7326 124.813 87.8902 130.714 98.8793 149.987Z" fill="#E62828"/>
<path d="M90.3207 149.808C89.9704 149.782 89.5121 149.629 89.3051 149.261C83.4946 142.243 74.867 138.301 64.8785 138.366L64.7617 138.357C63.9442 138.295 63.3957 137.783 63.3409 136.957C63.4029 136.14 63.9143 135.591 64.7406 135.536L64.8574 135.545C75.6634 135.542 85.0908 139.78 91.432 147.543C91.9717 148.171 91.7929 148.98 91.2815 149.528C91.0391 149.628 90.6711 149.835 90.3207 149.808Z" fill="#FF5A5A"/>
<path d="M41.7355 149.296C41.2683 149.261 40.81 149.108 40.4951 148.615C36.5354 141.972 30.378 137.982 23.2454 137.558C22.4279 137.496 21.8882 136.868 21.9502 136.051C22.0122 135.233 22.6404 134.694 23.4578 134.756C31.5247 135.25 38.4642 139.769 42.9547 147.157C43.3776 147.776 43.19 148.702 42.4538 149.116C42.2114 149.215 41.969 149.314 41.7355 149.296Z" fill="black"/>
<path d="M59.4085 202.785C57.1808 202.734 54.8451 202.557 52.5272 202.146C43.6146 200.413 36.3513 195.517 30.9619 187.591C25.2577 179.172 23.4321 169.168 25.9452 159.257C28.5026 148.763 35.6427 139.79 45.5448 134.668C53.1306 130.662 62.5423 128.909 71.3824 130.049C80.9231 131.242 89.165 135.626 94.7685 142.276C100.048 148.549 103.344 156.198 104.071 163.653C104.826 172.284 102.311 180.668 96.5887 187.986C96.0773 188.534 95.2421 188.706 94.6936 188.194C94.1451 187.683 93.9736 186.848 94.4849 186.299C106.451 170.998 101.474 154.529 92.7494 144.119C81.4434 130.577 60.5852 129.936 46.877 137.236C37.7022 142.06 31.0823 150.368 28.7037 160.053C26.4862 169.164 28.1313 178.45 33.3048 186.125C44.938 203.098 62.8378 200.931 72.446 198.136C84.335 194.691 89.4139 181.921 88.2343 171.144C87.2898 161.911 81.368 151.713 68.0548 150.704C58.1194 150.068 49.2541 158.558 48.3106 166.355C47.6964 171.359 50.3255 176.962 54.9099 180.011C57.3729 181.607 62.4865 183.874 68.8779 180.13C71.2119 178.78 72.9159 176.442 73.4699 173.783C74.0062 171.357 73.4825 168.968 72.2139 167.11C70.5048 164.867 68.2311 163.872 65.9591 164.405C63.9207 164.955 62.3776 166.717 62.1104 168.693C62.0484 169.511 61.3034 170.042 60.6116 169.872C59.7941 169.81 59.2633 169.065 59.4332 168.373C59.789 165.229 62.1036 162.585 65.3364 161.773C68.8116 160.862 72.2266 162.296 74.5656 165.527C76.3739 168.013 76.9523 171.228 76.3629 174.355C75.6302 177.823 73.5226 180.834 70.4526 182.598C64.7973 185.928 58.5812 185.809 53.5473 182.491C48.064 178.904 44.9218 172.324 45.7414 166.161C46.3291 161.507 49.1533 156.788 53.2905 153.343C57.7956 149.691 63.1111 147.745 68.3663 148.144C74.9062 148.639 80.586 151.184 84.5882 155.716C88.2755 159.754 90.4641 164.97 91.1804 171.015C92.5051 182.978 86.736 197.105 73.4013 201.027C69.5846 201.795 64.8071 202.842 59.4085 202.785Z" fill="black"/>
<path fill-rule="evenodd" clip-rule="evenodd" d="M54.0303 131.2C57.8208 123.031 54.1445 112.651 53.5517 112.724C52.5997 112.886 44.7875 115.231 39.6188 119.889C33.3193 125.519 31.7476 133.857 37.7777 136.428C46.3151 140.012 51.3511 137.105 54.0303 131.2Z" fill="#B4E100"/>
<path d="M44.5154 138.936C42.4045 138.893 39.9786 138.357 37.4802 137.228C35.0898 136.225 33.5876 134.349 33.1896 131.852C32.5563 127.811 34.8144 122.814 38.9692 119.136C44.3804 114.378 52.435 111.935 53.387 111.772C53.6206 111.79 54.0965 111.708 54.4115 112.202C55.5898 113.701 58.4842 123.551 54.8281 131.496C53.2779 134.902 51.1155 137.087 48.3322 138.168C47.2368 138.672 45.9257 138.925 44.5154 138.936ZM53.2365 113.757C51.3148 114.316 44.6793 116.632 40.2732 120.526C36.6209 123.773 34.5239 128.195 35.0935 131.527C35.419 133.431 36.4895 134.804 38.3137 135.529C45.4851 138.54 50.5316 137.043 53.3542 130.797C56.3467 123.859 54.038 115.58 53.2365 113.757Z" fill="black"/>
<path d="M65.273 153.312C64.8059 153.276 64.4732 153.016 64.3919 152.54C64.2203 151.705 64.0487 150.87 63.8859 149.918C63.4702 147.655 63.0722 145.158 62.5132 143.236C62.4318 142.76 62.7097 142.194 63.1856 142.113C63.6616 142.031 64.2278 142.309 64.3092 142.785C64.8682 144.707 65.2574 147.32 65.6731 149.583C65.8358 150.535 65.9986 151.487 66.179 152.206C66.2604 152.682 65.9826 153.248 65.3898 153.321L65.273 153.312Z" fill="black"/>
<path d="M58.6903 154.927C58.34 154.9 57.9985 154.757 57.9082 154.398C57.0979 152.692 55.3339 149.622 54.3891 148.141C54.0653 147.764 54.2264 147.189 54.6033 146.865C54.9802 146.541 55.5553 146.702 55.8791 147.079C56.9407 148.569 58.6958 151.756 59.614 153.587C59.8122 154.072 59.6511 154.647 59.1663 154.845C59.0495 154.837 58.8159 154.819 58.6903 154.927Z" fill="black"/>
<path d="M84.1636 162.849C83.8133 162.822 83.4718 162.679 83.3816 162.32C83.1834 161.835 83.3445 161.26 83.8293 161.062C85.0502 160.449 86.7649 159.522 88.3539 158.703C90.0685 157.776 91.7831 156.849 92.8873 156.228C93.3721 156.03 93.9472 156.191 94.1454 156.676C94.3435 157.16 94.1825 157.735 93.6976 157.934C92.4767 158.546 90.762 159.473 89.173 160.292C87.4584 161.219 85.7438 162.146 84.5228 162.758C84.3972 162.866 84.2804 162.858 84.1636 162.849Z" fill="black"/>
<path d="M40.5648 132.176C40.448 132.167 40.3313 132.159 40.1066 132.024C39.6571 131.755 39.459 131.27 39.728 130.821C39.8713 130.479 43.6087 123.011 48.3829 118.909C48.7598 118.586 49.3437 118.63 49.6675 119.007C49.9913 119.384 49.947 119.968 49.5701 120.291C45.0561 124.06 41.3186 131.529 41.3186 131.529C41.2832 131.996 40.9152 132.203 40.5648 132.176Z" fill="black"/>
<g opacity="0.6">
<g opacity="0.6">
<g opacity="0.6">
<g opacity="0.6">
<path opacity="0.6" d="M122.031 103.351C121.798 103.333 121.564 103.315 121.339 103.181C119.542 102.105 117.457 101.712 115.329 101.903C114.619 101.967 113.837 101.438 113.773 100.728C113.71 100.019 114.239 99.2365 114.948 99.1728C117.67 98.9093 120.329 99.4633 122.693 100.817C123.367 101.22 123.539 102.056 123.135 102.73C122.875 103.062 122.507 103.269 122.031 103.351Z" fill="#B4E100"/>
</g>
</g>
</g>
</g>
<path d="M77.3714 161.041C77.0211 161.015 76.5628 160.863 76.3469 160.611C74.8359 158.853 71.996 157.58 69.31 157.377C68.4925 157.315 67.9529 156.686 68.0149 155.869C68.0768 155.051 68.705 154.512 69.5225 154.574C72.9092 154.831 76.3064 156.498 78.3748 158.651C78.9144 159.279 78.8525 160.097 78.2243 160.636C77.973 160.852 77.605 161.059 77.3714 161.041Z" fill="#FF5A5A"/>
<path d="M155.622 207.143C155.506 207.134 155.272 207.116 155.155 207.107C149.449 204.913 144.829 202.331 142.095 199.657C141.547 199.146 141.501 198.203 142.129 197.663C142.641 197.115 143.584 197.069 144.123 197.697C146.524 200.111 150.812 202.432 156.176 204.483C156.859 204.77 157.273 205.506 156.978 206.306C156.7 206.872 156.206 207.187 155.622 207.143Z" fill="#B4E100"/>
<path d="M82.272 173.863C82.1552 173.854 82.0384 173.846 82.0384 173.846C81.9216 173.837 81.8049 173.828 81.8137 173.711C81.6969 173.702 81.7058 173.585 81.589 173.577C81.4722 173.568 81.4811 173.451 81.3643 173.442C81.1484 173.191 80.9414 172.823 80.968 172.472C80.9768 172.356 80.9857 172.239 80.9857 172.239C80.9945 172.122 81.0034 172.005 81.1202 172.014C81.129 171.897 81.2458 171.906 81.2547 171.789C81.2635 171.673 81.3803 171.682 81.3891 171.565C81.6404 171.349 82.0085 171.142 82.3588 171.168C82.7092 171.195 83.0507 171.338 83.3833 171.599C83.4912 171.724 83.4912 171.724 83.5992 171.85C83.5903 171.967 83.7071 171.975 83.6982 172.092C83.6894 172.209 83.8062 172.218 83.7973 172.335C83.7885 172.451 83.7796 172.568 83.7796 172.568C83.7531 172.919 83.6097 173.26 83.3496 173.593C82.9904 173.683 82.6223 173.89 82.272 173.863Z" fill="black"/>
<path d="M79.0472 197.814C78.6969 197.787 78.2386 197.635 78.0316 197.267C77.4919 196.639 77.6707 195.83 78.1821 195.282C81.9423 192.161 84.5823 191.421 86.872 190.655C89.3953 189.907 91.3169 189.348 94.3941 185.94C94.9055 185.392 95.7319 185.337 96.3972 185.857C96.9457 186.368 97.0005 187.195 96.4802 187.86C92.8916 191.816 90.3683 192.565 87.7195 193.421C85.5554 194.079 83.2745 194.728 80.0169 197.418C79.7568 197.75 79.3976 197.841 79.0472 197.814Z" fill="black"/>
<path d="M126.456 26.4022C132.778 25.1197 138.557 27.9068 140.859 30.0781C140.967 30.2037 141.721 29.5561 141.622 29.3137C139.984 26.1357 133.071 21.2658 125.805 22.5943C124.611 22.8561 125.621 26.5738 126.456 26.4022Z" fill="black"/>
<path d="M35.492 158.806C35.3752 158.797 35.2584 158.788 35.1416 158.78C34.6833 158.627 34.3773 158.017 34.6462 157.568C37.844 149.471 44.6655 144.702 47.0985 143.595C47.5833 143.397 48.1584 143.558 48.3565 144.043C48.5547 144.527 48.3936 145.103 47.9088 145.301C45.835 146.318 39.3905 150.762 36.3537 158.284C36.2104 158.626 35.8423 158.833 35.492 158.806Z" fill="black"/>
<path d="M109.351 152.895C105.75 153.914 104.092 157.195 104.752 160.886C105.429 164.343 107.696 166.982 110.734 168.739C117.151 172.397 124.663 174.023 131.68 175.964C133.181 176.313 134.672 176.779 136.164 177.244C136.622 177.396 137.197 177.557 137.655 177.709C137.997 177.853 138.33 178.113 138.123 177.745C138.752 178.732 140.458 177.922 139.828 176.934C139.099 175.705 136.889 175.42 135.622 175.089C132.63 174.275 129.638 173.461 126.646 172.646C123.196 171.68 119.754 170.597 116.447 169.289C113.706 168.259 110.516 166.96 108.582 164.582C106.1 161.693 105.231 156.106 109.793 154.808C110.88 154.42 110.545 152.633 109.351 152.895Z" fill="black"/>
<path d="M132.56 153.48C134.339 153.262 135.841 155.138 136.552 156.601C138.074 159.77 137.673 163.499 137.183 166.868C136.88 169.311 136.569 171.871 135.583 174.028C135.162 174.936 134.785 175.26 134.265 175.925C133.484 176.923 135.049 177.981 135.829 176.983C135.838 176.867 136.089 176.651 136.08 176.768C136.08 176.768 136.34 176.435 136.466 176.327C136.726 175.994 136.986 175.662 137.13 175.32C137.945 173.855 138.312 172.121 138.669 170.504C139.777 165.185 141.009 158.231 137.124 153.708C135.936 152.326 134.255 151.259 132.36 151.468C130.932 151.712 131.375 153.625 132.56 153.48Z" fill="black"/>
<path d="M153.154 174.93C153.795 171.496 152.614 168.395 150.515 168.004C148.417 167.612 146.196 170.078 145.555 173.511C144.914 176.945 146.096 180.046 148.194 180.438C150.292 180.829 152.513 178.364 153.154 174.93Z" fill="#D50F78"/>
<path d="M159.982 175.583C160.374 173.485 158.99 171.466 156.892 171.075C154.794 170.683 152.775 172.066 152.383 174.165C151.991 176.263 153.375 178.281 155.473 178.673C157.571 179.065 159.59 177.682 159.982 175.583Z" fill="#D50F78"/>
<path d="M139.162 162.437C135.546 166.744 140.816 171.607 143.015 170.481C145.466 169.14 140.901 167.385 139.162 162.437Z" fill="#2D8936"/>
<path d="M131.175 177.923C132.63 169.577 143.105 170.841 144.007 174.433C144.991 178.501 138.43 175.184 131.175 177.923Z" fill="#13A438"/>
<path d="M136.221 182.652C132.999 177.122 139.794 172.704 142.015 174.399C144.577 176.238 139.198 177.474 136.221 182.652Z" fill="#2D8936"/>
<path d="M134.629 164.913C132.482 173.089 142.573 176.321 144.914 173.327C147.39 170.108 140.079 170.494 134.629 164.913Z" fill="#13A438"/>
<path d="M145.972 179.93C146.364 177.832 144.98 175.813 142.882 175.421C140.784 175.03 138.765 176.413 138.373 178.511C137.982 180.61 139.365 182.628 141.463 183.02C143.562 183.412 145.58 182.028 145.972 179.93Z" fill="#D50F78"/>
<path d="M143.612 181.214L143.603 181.331C143.585 181.564 143.451 181.789 143.217 181.771C141.214 181.854 140.126 180.715 140.009 180.706C139.784 180.571 139.811 180.221 140.062 180.005C140.197 179.781 140.547 179.807 140.763 180.058C140.763 180.058 141.635 180.947 143.171 180.828C143.288 180.837 143.513 180.971 143.612 181.214Z" fill="#EB6FA6"/>
<path d="M144.755 174.341C145.147 172.243 143.764 170.224 141.665 169.832C139.567 169.44 137.548 170.824 137.157 172.922C136.765 175.021 138.148 177.039 140.247 177.431C142.345 177.823 144.364 176.439 144.755 174.341Z" fill="#D50F78"/>
<path d="M142.286 175.477L142.277 175.593C142.259 175.827 142.125 176.052 141.891 176.034C139.888 176.117 138.8 174.977 138.683 174.969C138.458 174.834 138.485 174.484 138.736 174.268C138.871 174.043 139.221 174.07 139.437 174.321C139.437 174.321 140.309 175.209 141.845 175.091C142.07 175.225 142.294 175.36 142.286 175.477Z" fill="#EB6FA6"/>
<path d="M151.615 181.194C152.006 179.095 150.623 177.077 148.525 176.685C146.426 176.293 144.408 177.677 144.016 179.775C143.624 181.873 145.008 183.892 147.106 184.284C149.204 184.675 151.223 183.292 151.615 181.194Z" fill="#D50F78"/>
<path d="M149.157 182.457L149.148 182.574C149.13 182.807 148.996 183.032 148.762 183.015C146.759 183.098 145.671 181.958 145.554 181.949C145.329 181.815 145.356 181.464 145.607 181.248C145.742 181.024 146.092 181.05 146.308 181.302C146.308 181.302 147.18 182.19 148.716 182.071C148.833 182.08 149.058 182.215 149.157 182.457Z" fill="#EB6FA6"/>
<path d="M156.757 179.557C157.149 177.458 155.766 175.44 153.667 175.048C151.569 174.656 149.55 176.04 149.159 178.138C148.767 180.236 150.15 182.255 152.249 182.647C154.347 183.038 156.366 181.655 156.757 179.557Z" fill="#D50F78"/>
<path d="M154.338 180.736L154.329 180.853C154.312 181.086 154.177 181.311 153.944 181.293C151.941 181.376 150.853 180.237 150.736 180.228C150.511 180.093 150.538 179.743 150.789 179.527C150.923 179.302 151.274 179.329 151.49 179.58C151.49 179.58 152.362 180.469 153.898 180.35C154.122 180.485 154.23 180.61 154.338 180.736Z" fill="#EB6FA6"/>
<path d="M157.277 169.833C157.668 167.735 156.285 165.716 154.187 165.324C152.088 164.932 150.07 166.316 149.678 168.414C149.286 170.512 150.67 172.531 152.768 172.923C154.866 173.315 156.885 171.931 157.277 169.833Z" fill="#D50F78"/>
<path d="M150.437 174.274C150.829 172.176 149.445 170.157 147.347 169.765C145.249 169.374 143.23 170.757 142.838 172.855C142.446 174.954 143.83 176.972 145.928 177.364C148.027 177.756 150.045 176.372 150.437 174.274Z" fill="#D50F78"/>
<path d="M148.041 175.443L148.033 175.559C148.015 175.793 147.88 176.018 147.647 176C145.644 176.083 144.556 174.943 144.439 174.935C144.214 174.8 144.241 174.45 144.492 174.234C144.626 174.009 144.977 174.036 145.193 174.287C145.193 174.287 146.065 175.175 147.601 175.057C147.826 175.191 147.933 175.317 148.041 175.443Z" fill="#EB6FA6"/>
<path d="M156.431 174.584C156.823 172.486 155.439 170.467 153.341 170.075C151.243 169.683 149.224 171.067 148.832 173.165C148.441 175.263 149.824 177.282 151.922 177.674C154.021 178.066 156.039 176.682 156.431 174.584Z" fill="#D50F78"/>
<path d="M154.008 175.777L153.999 175.894C153.982 176.128 153.847 176.352 153.614 176.335C151.611 176.418 150.522 175.278 150.406 175.269C150.181 175.135 150.207 174.784 150.459 174.568C150.593 174.344 150.944 174.37 151.159 174.622C151.159 174.622 152.032 175.51 153.568 175.391C153.792 175.526 153.9 175.652 154.008 175.777Z" fill="#EB6FA6"/>
<path d="M147.081 168.136C147.473 166.038 146.09 164.019 143.991 163.627C141.893 163.236 139.875 164.619 139.483 166.717C139.091 168.816 140.474 170.834 142.573 171.226C144.671 171.618 146.69 170.234 147.081 168.136Z" fill="#D50F78"/>
<path d="M144.741 169.437L144.732 169.554C144.714 169.787 144.58 170.012 144.346 169.994C142.343 170.077 141.255 168.938 141.138 168.929C140.913 168.795 140.94 168.444 141.191 168.228C141.326 168.004 141.676 168.03 141.892 168.281C141.892 168.281 142.764 169.17 144.3 169.051C144.417 169.06 144.642 169.195 144.741 169.437Z" fill="#EB6FA6"/>
<path d="M151.587 167.229C151.979 165.13 150.596 163.112 148.497 162.72C146.399 162.328 144.38 163.712 143.989 165.81C143.597 167.908 144.98 169.927 147.079 170.319C149.177 170.71 151.196 169.327 151.587 167.229Z" fill="#D50F78"/>
<path d="M149.159 168.481L149.15 168.597C149.132 168.831 148.998 169.056 148.764 169.038C146.761 169.121 145.673 167.981 145.556 167.972C145.331 167.838 145.358 167.488 145.609 167.272C145.744 167.047 146.094 167.074 146.31 167.325C146.31 167.325 147.182 168.213 148.718 168.095C148.835 168.104 149.06 168.238 149.159 168.481Z" fill="#EB6FA6"/>
</svg>
