<svg width="287" height="267" viewBox="0 0 287 267" fill="none" xmlns="http://www.w3.org/2000/svg">
<path fill-rule="evenodd" clip-rule="evenodd" d="M113.381 3.75162C129.728 -1.15197 147.21 -1.25072 163.615 3.46785C174.514 6.60402 184.668 11.7896 193.498 18.7283C195.187 20.0561 196.822 21.4431 198.399 22.886C199.883 22.3212 201.393 21.8085 202.924 21.3498C215.126 17.6933 228.174 17.6238 240.417 21.1502C256.834 25.8814 270.639 36.7351 278.795 51.3242C286.952 65.9133 288.792 83.0433 283.912 98.9467C280.271 110.806 273.081 121.352 263.251 129.253C253.422 137.154 241.394 142.054 228.69 143.334C219.831 144.226 210.921 143.331 202.508 140.749C199.934 143.445 197.17 145.984 194.229 148.347C181.057 158.929 164.942 165.492 147.92 167.204C130.899 168.916 113.735 165.702 98.5992 157.967C87.7337 152.414 78.2634 144.711 70.7696 135.414C64.8902 139.928 57.7991 142.73 50.3249 143.482C42.5577 144.264 34.7257 142.797 27.8193 139.267C20.9129 135.737 15.2423 130.302 11.5246 123.65C7.80685 116.998 6.209 109.428 6.9331 101.897C7.57021 95.2699 9.9797 88.9352 13.902 83.5087C10.8148 80.3967 8.15592 76.8811 6.01161 73.0447C1.31823 64.6479 -0.699154 55.0915 0.214628 45.584C1.12841 36.0766 4.93234 27.0451 11.1453 19.6318C17.3582 12.2185 25.7011 6.75622 35.119 3.93586C44.5368 1.11549 54.6066 1.06369 64.0549 3.78696C72.6861 6.27475 80.3815 10.9558 86.4 17.2473C94.4604 11.2746 103.585 6.68999 113.381 3.75162Z" fill="#70B62E"/>
<path d="M150.628 199.178C150.236 199.167 149.855 198.828 149.801 198.435C149.449 194.963 149.833 190.925 150.847 187.625C151.569 185.361 152.542 183.431 153.584 181.372C154.068 180.473 154.487 179.571 154.974 178.606C155.183 178.155 155.646 177.973 156.097 178.183C156.548 178.393 156.73 178.855 156.52 179.306C156.034 180.271 155.613 181.238 155.128 182.138C154.088 184.131 153.184 185.932 152.465 188.131C151.521 191.237 151.146 195.014 151.44 198.223C151.492 198.682 151.152 199.129 150.693 199.18C150.693 199.18 150.628 199.178 150.628 199.178Z" fill="black"/>
<path d="M141.316 200.399C140.859 200.385 140.48 199.981 140.494 199.525C140.539 191.558 138.481 190.516 136.359 189.407C133.017 187.607 130.664 185.511 131.409 173.843C131.423 173.386 131.827 173.007 132.283 173.02C132.74 173.034 133.12 173.438 133.106 173.894C132.432 185.369 134.745 186.615 137.189 187.864C139.697 189.181 142.204 190.498 142.192 199.511C142.178 199.967 141.775 200.347 141.316 200.399Z" fill="black"/>
<path d="M151.947 162.121C157.734 158.639 165.118 162.847 165.452 169.062C165.859 177.173 157.187 181.025 151.304 176.862C145.859 173.367 146.242 165.018 151.947 162.121Z" fill="white"/>
<path d="M156.33 179.104C154.438 179.047 152.627 178.47 151.029 177.311C148.34 175.531 146.799 172.48 146.965 169.155C147.13 165.894 148.913 163.074 151.699 161.657C154.493 159.978 157.957 159.887 160.979 161.48C163.935 163.072 165.809 165.872 165.974 169.077C166.185 172.872 164.388 176.148 161.266 177.882C159.737 178.751 158.027 179.156 156.33 179.104ZM156.67 161.415C155.104 161.368 153.59 161.779 152.194 162.586L152.128 162.584C149.674 163.816 148.097 166.315 147.942 169.25C147.788 172.184 149.143 174.903 151.577 176.479C154.262 178.389 157.912 178.63 160.769 177.018C163.625 175.472 165.149 172.579 164.926 169.176C164.75 166.362 163.126 163.897 160.427 162.443C159.27 161.821 157.975 161.455 156.67 161.415Z" fill="black"/>
<path d="M161.257 178.144C161.998 179.538 158.684 181.135 155.882 180.92C153.08 180.704 148.778 178.288 149.875 176.558C150.563 175.403 151.514 176.346 154.235 177.082C158.573 178.324 160.578 176.817 161.257 178.144Z" fill="#8CC800"/>
<path d="M156.193 181.452C156.062 181.448 155.997 181.446 155.867 181.442C153.65 181.309 150.3 179.771 149.438 178.047C149.071 177.252 149.219 176.668 149.426 176.283C150.115 175.128 151.149 175.486 152.44 175.982C152.956 176.194 153.603 176.409 154.38 176.629C156.517 177.216 158.022 177.131 159.133 177.099C160.31 177.07 161.292 176.969 161.72 177.962C161.967 178.426 161.949 179.014 161.609 179.46C160.79 180.611 158.346 181.517 156.193 181.452ZM150.726 176.518C150.53 176.512 150.395 176.639 150.326 176.767C150.257 176.896 150.184 177.155 150.37 177.487C150.985 178.747 153.879 180.206 155.966 180.334C157.986 180.461 160.233 179.615 160.78 178.782C160.919 178.525 160.923 178.395 160.859 178.327C160.674 177.995 160.347 177.985 159.236 178.017C158.125 178.049 156.424 178.128 154.091 177.535C153.249 177.313 152.604 177.032 152.086 176.886C151.309 176.666 150.987 176.526 150.726 176.518Z" fill="black"/>
<path d="M117.924 157.628C122.854 147.981 136.731 146.965 143.007 155.384C150.41 165.405 142.248 180.441 129.421 179.138C118.607 178.222 113.019 166.493 117.924 157.628Z" fill="white"/>
<path d="M130.447 179.757C130.055 179.745 129.729 179.735 129.339 179.658C124.194 179.176 119.775 176.299 117.367 171.719C114.958 167.14 114.99 161.785 117.41 157.352C119.771 152.721 124.435 149.662 129.871 149.174C135.24 148.749 140.333 150.928 143.343 155.068C146.918 159.944 147.246 166.355 144.14 171.877C141.306 177.017 136.124 179.929 130.447 179.757ZM131.799 150.212C131.212 150.194 130.625 150.176 130.033 150.289C124.991 150.724 120.595 153.53 118.373 157.904C116.093 162.015 116.071 167.043 118.359 171.292C120.647 175.542 124.681 178.211 129.5 178.684C135.165 179.247 140.474 176.469 143.371 171.397C146.269 166.26 145.994 160.243 142.668 155.766C140.094 152.357 136.106 150.342 131.799 150.212Z" fill="black"/>
<path d="M134.623 145.399C128.327 144.098 122.367 146.791 120.147 148.944C120.012 149.071 119.314 148.397 119.385 148.203C121.114 145.055 128.119 140.173 135.455 141.636C136.493 141.864 135.467 145.555 134.623 145.399Z" fill="black"/>
<path d="M160.163 158.19C163.596 159.143 165.927 161.957 166.465 163.606C166.529 163.673 167.054 163.559 166.993 163.426C166.924 161.399 164.699 157.217 160.683 156.116C160.1 155.968 159.711 158.046 160.163 158.19Z" fill="black"/>
<path d="M122.14 178.003C121.341 180.656 128.062 183.015 132.913 182.444C137.763 181.872 144.239 177.235 142.139 175.408C141.057 174.461 139.962 176.126 135.224 177.289C127.131 179.264 122.935 175.48 122.14 178.003Z" fill="#8CC800"/>
<path d="M130.935 183.038C127.412 182.931 123.662 181.642 122.211 179.965C121.519 179.095 121.543 178.312 121.689 177.794C122.195 176.176 123.688 176.483 125.638 176.803C127.716 177.193 130.965 177.748 135.176 176.7C137.282 176.176 138.607 175.563 139.6 175.136C140.857 174.586 141.717 174.221 142.544 174.964C143.117 175.439 143.293 176.097 143.076 176.809C142.35 179.203 137.093 182.44 133.094 182.907C132.373 183.016 131.653 183.059 130.935 183.038ZM122.658 178.15C122.516 178.537 122.634 178.933 123.014 179.336C124.527 181.145 129.322 182.401 132.928 181.922C136.796 181.452 141.526 178.395 142.04 176.516C142.182 176.129 141.992 175.927 141.866 175.793C141.547 175.522 141.219 175.577 140.027 176.129C139.034 176.556 137.642 177.232 135.406 177.752C130.931 178.857 127.619 178.235 125.41 177.841C123.396 177.519 122.874 177.503 122.658 178.15Z" fill="black"/>
<path d="M157.362 168.751C157.024 169.133 157.071 169.722 157.451 170.125C157.833 170.464 158.422 170.416 158.825 170.036C159.164 169.655 159.116 169.066 158.736 168.662C158.289 168.322 157.702 168.304 157.362 168.751Z" fill="white"/>
<path d="M137.458 163.903C138.324 167.652 133.683 172.083 128.267 169.764C123.43 167.723 125.111 161.831 127.636 160.405C134.42 156.365 136.882 161.338 137.458 163.903Z" fill="#F19001"/>
<path d="M128.565 164.287C128.385 165.914 129.777 167.393 131.665 167.581C133.553 167.769 135.157 166.576 135.337 164.949C135.517 163.322 134.125 161.843 132.236 161.655C130.413 161.469 128.744 162.659 128.565 164.287Z" fill="#1D1E1C"/>
<path d="M131.002 167.887C130.093 167.729 129.322 167.314 128.752 166.709C128.121 165.971 127.756 165.111 127.848 164.2C127.939 163.353 128.353 162.647 129.023 162.08C129.826 161.451 130.88 161.156 131.987 161.255C134.071 161.449 135.588 163.128 135.4 165.016C135.307 165.928 134.825 166.762 134.024 167.326C133.223 167.889 132.301 168.123 131.259 168.026C131.196 167.958 131.131 167.956 131.002 167.887ZM132.094 162.042C132.029 162.04 131.963 162.038 131.898 162.036C131.052 161.945 130.196 162.181 129.527 162.683C128.991 163.124 128.713 163.703 128.63 164.288C128.545 164.939 128.784 165.665 129.29 166.203C129.796 166.74 130.569 167.09 131.35 167.179C132.131 167.268 132.92 167.096 133.589 166.594C134.19 166.155 134.534 165.578 134.621 164.862C134.791 163.561 133.654 162.285 132.094 162.042Z" fill="#1D1E1C"/>
<path d="M135.678 162.281C135.856 162.874 135.51 163.517 134.851 163.693C134.258 163.87 133.616 163.525 133.44 162.866C133.262 162.273 133.608 161.631 134.266 161.455C134.925 161.279 135.565 161.69 135.678 162.281Z" fill="white"/>
<path d="M132.511 159.051C135.566 159.535 137.632 162.471 137.148 165.526C136.663 168.581 133.727 170.648 130.672 170.163C127.617 169.679 125.551 166.742 126.035 163.687C126.585 160.634 129.456 158.566 132.511 159.051ZM132.671 158.076C129.033 157.443 125.626 159.952 124.995 163.525C124.362 167.164 126.872 170.571 130.445 171.201C134.083 171.834 137.49 169.325 138.121 165.752C138.753 162.113 136.311 158.643 132.671 158.076Z" fill="#1D1E1C"/>
<path d="M152.625 167.759C150.998 169.734 152.315 173.693 156.224 174.007C159.677 174.308 160.515 170.349 159.52 168.686C156.782 164.227 153.776 166.422 152.625 167.759Z" fill="#F19001"/>
<path d="M157.76 170.722C157.337 171.754 156.083 172.173 154.921 171.746C153.76 171.254 153.143 170.059 153.564 169.093C153.987 168.06 155.241 167.641 156.404 168.068C157.566 168.495 158.183 169.69 157.76 170.722Z" fill="#1D1E1C"/>
<path d="M155.043 172.011C154.398 171.73 153.953 171.325 153.645 170.728C153.336 170.131 153.289 169.541 153.568 168.962C154.06 167.801 155.446 167.321 156.737 167.817C157.382 168.098 157.955 168.573 158.197 169.233C158.442 169.763 158.424 170.35 158.213 170.866C157.999 171.448 157.53 171.825 156.935 172.068C156.407 172.248 155.82 172.231 155.237 172.082C155.171 172.08 155.106 172.078 155.043 172.011ZM154.019 169.172C153.874 169.624 153.86 170.081 154.11 170.481C154.357 170.945 154.738 171.283 155.254 171.495C155.771 171.707 156.293 171.722 156.755 171.541C157.218 171.359 157.554 171.042 157.762 170.657C157.904 170.269 157.918 169.812 157.734 169.415C157.552 168.952 157.109 168.482 156.528 168.268C156.463 168.266 156.465 168.201 156.399 168.199C155.361 167.971 154.371 168.333 154.019 169.172Z" fill="#1D1E1C"/>
<path d="M156.981 168.413C156.576 168.858 156.622 169.512 157.066 169.917C157.511 170.322 158.165 170.277 158.571 169.832C158.976 169.387 158.93 168.733 158.486 168.328C158.039 167.988 157.387 167.968 156.981 168.413Z" fill="white"/>
<path d="M157.04 166.455C158.98 167.102 160.026 169.224 159.379 171.163C158.733 173.103 156.611 174.149 154.671 173.503C152.732 172.856 151.686 170.734 152.332 168.795C152.979 166.855 155.1 165.809 157.04 166.455ZM157.256 165.809C154.928 165.02 152.473 166.317 151.686 168.579C150.897 170.906 152.194 173.362 154.456 174.149C156.783 174.938 159.239 173.641 160.026 171.379C160.815 169.052 159.585 166.533 157.256 165.809Z" fill="#1D1E1C"/>
<path d="M177.106 254.319C174.66 253.135 170.761 252.494 165.394 248.544C157.277 242.681 154.899 228.502 157.786 221.601C159.334 217.925 161.133 212.428 159.251 205.578C157.426 198.992 154.511 196.03 149.587 194.705C143.889 193.096 138.453 195.739 136.644 201.562C135.273 205.832 136.128 209.972 138.722 214.884C141.008 219.198 143.339 222.012 143.788 228.753C145.378 253.881 108.993 256.24 86.4297 257.254C85.1879 257.282 84.4919 258.698 85.445 259.576C87.4144 261.399 92.5713 263.645 99.7589 263.536C112.307 263.263 112.689 261.446 122.698 260.9C132.577 260.351 135.721 262.209 148.342 261.677C159.785 261.24 171.995 259.194 176.657 258.355C177.707 258.191 178.455 257.234 178.419 256.253C178.314 255.401 177.814 254.667 177.106 254.319Z" fill="#8CC800"/>
<path d="M98.0391 264.269C91.8402 264.081 87.0016 262.106 84.8404 260.146C84.2056 259.539 83.9703 258.683 84.3203 257.91C84.607 257.069 85.4078 256.506 86.3886 256.47C100.841 255.863 127.721 254.653 138.398 242.828C141.78 239.012 143.357 234.357 143.001 228.86C142.644 223.428 141.093 220.704 139.233 217.447C138.863 216.717 138.426 216.051 137.993 215.254C135.149 209.943 134.497 205.613 135.867 201.344C137.815 195.263 143.523 192.236 149.805 193.994C155.182 195.463 158.15 198.818 159.975 205.405C161.98 212.519 160.109 218.21 158.494 221.949C155.823 228.204 157.816 242.175 165.804 247.969C169.638 250.763 172.739 251.902 175.001 252.689C175.904 253.043 176.68 253.328 177.389 253.61C178.42 254.099 179.043 255.097 179.074 256.208C179.096 257.646 178.08 258.856 176.699 259.141C171.972 259.977 159.827 262.026 148.319 262.461C141.78 262.72 137.677 262.335 134.029 262.028C130.641 261.73 127.385 261.435 122.675 261.684C118.291 261.943 115.861 262.392 113.233 262.9C110.014 263.521 106.729 264.14 99.6704 264.318C99.1484 264.302 98.5611 264.284 98.0391 264.269ZM146.703 195.075C142.396 194.945 138.728 197.446 137.354 201.846C136.124 205.793 136.729 209.534 139.385 214.578C139.755 215.308 140.19 216.039 140.561 216.704C142.422 219.96 144.158 223.017 144.506 228.775C144.848 234.729 143.193 239.773 139.476 243.906C128.391 256.24 101.054 257.437 86.3392 258.101C85.9477 258.09 85.744 258.345 85.6728 258.538C85.6036 258.667 85.5977 258.863 85.8528 259.066C87.8855 260.957 93.0503 262.942 99.5854 262.813C106.512 262.697 109.733 262.01 112.885 261.453C115.448 260.943 118.075 260.434 122.524 260.177C127.367 259.867 130.687 260.229 134.139 260.529C137.916 260.905 141.76 261.217 148.168 260.954C159.611 260.517 171.689 258.532 176.353 257.628C177.01 257.518 177.484 256.944 177.439 256.29C177.455 255.768 177.142 255.301 176.691 255.091C176.047 254.811 175.337 254.528 174.433 254.174C172.043 253.318 168.814 252.11 164.851 249.246C156.095 242.907 154.124 228.218 157.009 221.382C158.626 217.577 160.22 212.401 158.393 205.88C156.684 199.754 154.159 196.869 149.301 195.546C148.463 195.194 147.551 195.101 146.703 195.075Z" fill="black"/>
<path d="M139.891 202.184C139.891 202.184 140.678 210.699 149.371 210.505C159.305 210.283 157.612 201.48 157.612 201.48C157.612 201.48 153.481 204.163 147.872 203.928C142.001 203.685 139.891 202.184 139.891 202.184Z" fill="white"/>
<path d="M148.702 211.007C146.157 210.93 144.092 210.083 142.507 208.533C139.841 205.971 139.497 202.237 139.497 202.237C139.503 202.042 139.572 201.913 139.772 201.789C139.904 201.727 140.1 201.733 140.229 201.802C140.294 201.804 142.342 203.173 147.952 203.408C148.017 203.41 148.017 203.41 148.083 203.412C153.433 203.574 157.362 201.081 157.43 201.017C157.562 200.956 157.76 200.897 157.886 201.031C158.015 201.1 158.076 201.233 158.137 201.365C158.191 201.759 158.733 205.433 156.562 208.11C155.069 209.959 152.69 210.866 149.487 210.965C149.16 210.955 148.897 211.013 148.702 211.007ZM140.517 203.052C140.976 205.156 142.847 210.242 149.384 210.048C152.324 210.006 154.44 209.156 155.796 207.499C157.289 205.65 157.358 203.366 157.263 202.188C155.869 202.929 152.36 204.521 147.859 204.319C143.944 204.201 141.68 203.479 140.517 203.052Z" fill="black"/>
<path d="M137.689 225.238C143.734 234.826 140.311 244.323 135.234 248.088C133.832 249.09 128.337 251.536 128.337 251.536C128.337 251.536 124.862 254.109 117.649 255.066C112.403 255.756 107.428 253.973 102.732 249.454C97.2726 244.26 93.0964 229.046 106.05 219.707C116.797 212.065 131.018 214.782 137.689 225.238Z" fill="#E62828"/>
<path d="M132.852 225.418C132.656 225.412 132.462 225.341 132.272 225.139C128.861 221.313 123.892 219.334 118.269 219.555C117.812 219.541 117.494 219.27 117.442 218.812C117.456 218.355 117.727 218.036 118.186 217.985C124.268 217.712 129.688 219.901 133.415 224.063C133.731 224.399 133.652 224.854 133.381 225.173C133.247 225.299 133.047 225.424 132.852 225.418Z" fill="#FF5A5A"/>
<path d="M105.589 226.29C105.328 226.282 105.136 226.146 104.946 225.944C102.575 222.28 99.0439 220.279 94.9983 220.156C94.5415 220.142 94.2251 219.806 94.239 219.35C94.2528 218.893 94.589 218.576 95.0457 218.59C99.6134 218.729 103.528 221.003 106.214 225.068C106.465 225.402 106.319 225.92 105.984 226.171C105.917 226.235 105.719 226.294 105.589 226.29Z" fill="black"/>
<path d="M115.275 255.843C110.316 255.693 104.886 253.83 100.49 248.015C97.1012 243.471 95.8337 237.881 96.9845 232.234C98.2084 226.328 101.959 221.086 107.344 217.983C115.387 213.328 127.932 213.186 135.139 221.046C140.385 226.822 144.126 236.993 137.172 246.644C136.901 246.963 136.44 247.079 136.057 246.807C135.738 246.536 135.622 246.075 135.895 245.691C142.236 236.87 139.052 227.696 133.933 222.054C127.297 214.734 115.536 214.9 108.089 219.247C103.102 222.165 99.559 227.022 98.4141 232.473C97.3424 237.666 98.4933 242.795 101.631 247.005C108.534 256.292 118.512 254.635 123.857 252.838C130.455 250.621 132.96 243.382 132.098 237.347C131.339 232.23 127.851 226.638 120.347 226.41L120.281 226.408C114.735 226.24 110.011 231.257 109.618 235.621C109.4 238.488 111.006 241.541 113.636 243.123C115.046 244.015 117.952 245.082 121.482 242.838C122.747 242.027 123.637 240.683 123.878 239.188C124.116 237.824 123.766 236.441 123.01 235.504C122.004 234.233 120.711 233.802 119.459 234.156C118.338 234.514 117.523 235.534 117.424 236.641C117.41 237.098 117.009 237.412 116.619 237.335C116.163 237.321 115.848 236.92 115.925 236.531C116.044 234.771 117.331 233.242 119.046 232.706C120.958 232.111 122.896 232.823 124.28 234.563C125.349 235.902 125.753 237.677 125.502 239.498C125.181 241.448 124.019 243.176 122.419 244.238C119.354 246.235 115.89 246.326 112.94 244.539C109.798 242.615 107.882 239.03 108.182 235.577C108.599 230.43 113.995 224.781 120.457 224.912L120.523 224.914C127.505 225.125 132.715 229.92 133.801 237.203C134.773 243.894 131.916 251.971 124.527 254.425C122.087 255.2 118.799 255.95 115.275 255.843Z" fill="black"/>
<path fill-rule="evenodd" clip-rule="evenodd" d="M112.111 215.841C114.017 211.131 111.773 205.446 111.379 205.5C110.853 205.614 106.562 207.117 103.737 209.84C100.306 213.132 99.6397 217.88 103.128 219.161C107.972 220.941 110.768 219.197 112.111 215.841Z" fill="#B4E100"/>
<path d="M106.488 220.374C105.444 220.342 104.275 220.111 102.984 219.614C101.627 219.116 100.746 218.044 100.461 216.664C100.006 214.43 101.137 211.59 103.425 209.374C106.318 206.588 110.806 205.026 111.332 204.911C111.463 204.915 111.726 204.858 111.913 205.124C112.607 205.929 114.468 211.341 112.631 215.923C111.712 218.246 109.946 220.478 106.488 220.374ZM111.231 206.084C110.175 206.443 106.539 207.901 104.119 210.179C102.167 212.079 101.044 214.657 101.445 216.498C101.675 217.55 102.306 218.288 103.34 218.646C107.407 220.206 110.181 219.179 111.66 215.632C113.218 211.63 111.789 207.08 111.231 206.084Z" fill="black"/>
<path d="M118.862 227.998C118.601 227.99 118.409 227.854 118.352 227.591C118.235 227.13 118.121 226.604 118.006 226.078C117.717 224.829 117.432 223.448 117.073 222.393C117.015 222.13 117.156 221.807 117.419 221.75C117.682 221.693 118.004 221.833 118.061 222.096C118.421 223.152 118.704 224.597 118.993 225.847C119.107 226.373 119.222 226.899 119.341 227.294C119.398 227.557 119.258 227.88 118.929 227.935C118.927 228 118.927 228 118.862 227.998Z" fill="black"/>
<path d="M115.24 228.999C115.044 228.993 114.915 228.924 114.791 228.724C114.296 227.795 113.238 226.064 112.673 225.329C112.483 225.127 112.558 224.803 112.76 224.613C112.962 224.423 113.286 224.498 113.476 224.7C114.105 225.503 115.16 227.298 115.72 228.23C115.843 228.495 115.767 228.819 115.503 228.941C115.437 228.939 115.37 229.003 115.24 228.999Z" fill="black"/>
<path d="M129.686 232.898C129.49 232.892 129.361 232.823 129.237 232.623C129.114 232.358 129.189 232.034 129.454 231.911C130.119 231.54 131.05 230.98 131.916 230.418C132.847 229.859 133.779 229.299 134.443 228.928C134.708 228.805 135.032 228.88 135.155 229.145C135.277 229.41 135.202 229.734 134.937 229.857C134.273 230.229 133.342 230.788 132.478 231.284C131.546 231.844 130.615 232.404 129.95 232.775C129.883 232.839 129.751 232.9 129.686 232.898Z" fill="black"/>
<path d="M104.575 216.658C104.51 216.656 104.444 216.654 104.381 216.587C104.124 216.449 104.001 216.184 104.14 215.927C104.211 215.733 106.169 211.482 108.723 209.077C108.925 208.887 109.251 208.897 109.441 209.099C109.631 209.301 109.621 209.627 109.419 209.817C106.999 212.095 105.109 216.283 105.042 216.346C104.968 216.605 104.771 216.664 104.575 216.658Z" fill="black"/>
<g opacity="0.6">
<g opacity="0.6">
<g opacity="0.6">
<path opacity="0.6" d="M149.469 198.621C149.338 198.617 149.208 198.613 149.145 198.546C148.116 197.992 146.948 197.761 145.765 197.986C145.372 198.039 144.923 197.765 144.87 197.371C144.816 196.978 145.091 196.529 145.484 196.475C146.993 196.26 148.553 196.503 149.839 197.195C150.224 197.403 150.341 197.863 150.133 198.249C150.062 198.443 149.73 198.629 149.469 198.621Z" fill="#B4E100"/>
</g>
</g>
</g>
<path d="M125.795 231.996C125.599 231.99 125.405 231.919 125.279 231.785C124.393 230.844 122.779 230.207 121.279 230.161C120.822 230.148 120.505 229.811 120.519 229.355C120.533 228.898 120.869 228.582 121.326 228.595C123.218 228.653 125.217 229.497 126.356 230.707C126.673 231.043 126.659 231.5 126.323 231.816C126.188 231.943 125.991 232.002 125.795 231.996Z" fill="#FF5A5A"/>
<path d="M128.845 239.077C128.649 239.071 128.456 239 128.329 238.866C128.203 238.731 128.143 238.534 128.151 238.272C128.157 238.077 128.228 237.883 128.363 237.756C128.632 237.503 129.154 237.519 129.472 237.79C129.599 237.924 129.658 238.122 129.652 238.318C129.646 238.514 129.575 238.708 129.438 238.899C129.239 239.024 129.041 239.083 128.845 239.077Z" fill="black"/>
<path d="M127.651 252.626C127.455 252.62 127.262 252.549 127.072 252.347C126.755 252.011 126.835 251.556 127.105 251.238C129.12 249.405 130.637 248.928 131.893 248.444C133.279 247.963 134.335 247.603 135.962 245.628C136.233 245.31 136.757 245.26 137.075 245.531C137.393 245.802 137.443 246.326 137.172 246.644C135.274 248.938 133.888 249.419 132.369 249.96C131.181 250.382 129.927 250.801 128.114 252.444C128.047 252.507 127.847 252.632 127.651 252.626Z" fill="black"/>
<path d="M148.595 208.065C144.484 207.94 141.133 206.467 140.941 206.331C140.684 206.192 140.627 205.929 140.698 205.735C140.769 205.542 141.099 205.421 141.293 205.492C141.356 205.559 150.895 209.767 157.264 204.343C157.466 204.153 157.725 204.227 157.916 204.363C158.106 204.565 158.033 204.824 157.897 205.015C155.014 207.475 151.597 208.156 148.595 208.065Z" fill="black"/>
<path d="M102.29 231.741C102.225 231.74 102.159 231.738 102.159 231.738C101.9 231.664 101.715 231.332 101.853 231.075C103.431 226.42 107.174 223.595 108.501 222.917C108.766 222.794 109.09 222.869 109.213 223.134C109.335 223.399 109.26 223.723 108.995 223.846C107.866 224.465 104.325 227.101 102.822 231.431C102.751 231.625 102.551 231.749 102.29 231.741Z" fill="black"/>
</svg>
