<svg width="165" height="101" viewBox="0 0 165 101" fill="none" xmlns="http://www.w3.org/2000/svg">
<path d="M155.914 41.0144C153.83 42.3841 151.397 43.1268 148.902 43.1541C146.408 43.1813 143.959 42.492 141.845 41.1681C139.732 39.8442 138.045 37.9416 136.983 35.6868C135.922 33.4319 135.531 30.9198 135.858 28.4494L135.783 28.4522C133.457 28.4276 131.18 27.7802 129.189 26.5777C127.199 25.3751 125.568 23.6613 124.465 21.6148C123.363 19.5683 122.831 17.264 122.923 14.9419C123.016 12.6198 123.73 10.3649 124.991 8.41204C123.554 7.64992 122.346 6.52038 121.489 5.13884C120.632 3.75729 120.158 2.17329 120.115 0.548716C106.455 1.22606 93.1262 4.98512 81.1278 11.5438C68.7955 18.2872 55.0613 22.0701 41.0126 22.5931C26.9638 23.116 12.9863 20.3647 0.186807 14.5568L3.08504 92.4143C15.8852 98.2234 29.8638 100.975 43.9138 100.452C57.9637 99.9295 71.699 96.1458 84.0319 89.401C96.3637 82.6564 110.098 78.8727 124.147 78.3498C138.196 77.8268 152.174 80.5789 164.973 86.388L163.587 49.1614C161.605 48.7988 159.792 47.8125 158.411 46.3468C157.031 44.881 156.156 43.0125 155.914 41.0144Z" fill="#F9B812"/>
</svg>
