<svg width="28" height="27" viewBox="0 0 28 27" fill="none" xmlns="http://www.w3.org/2000/svg">
<path fill-rule="evenodd" clip-rule="evenodd" d="M27.5605 12.8416C27.5603 13.0608 27.56 13.2803 27.56 13.5C27.56 13.7462 27.5604 13.9922 27.5608 14.2379C27.5632 15.7941 27.5655 17.3411 27.4721 18.8978C27.3675 20.9915 26.8778 22.8464 25.2939 24.3806C23.7134 25.9116 21.795 26.3892 19.6337 26.4906C17.9992 26.5796 16.3752 26.5779 14.7411 26.5762C14.5147 26.5759 14.2881 26.5757 14.0613 26.5757C13.8349 26.5757 13.6087 26.5759 13.3827 26.5762C11.7507 26.5779 10.1263 26.5796 8.48885 26.4906C6.32743 26.3892 4.41255 25.9149 2.82864 24.3806C1.2481 22.8496 0.75503 20.9915 0.650336 18.8978C0.558416 17.3152 0.560217 15.7402 0.562025 14.1594C0.562277 13.9397 0.562528 13.7199 0.562528 13.5C0.562528 13.28 0.562277 13.0603 0.562025 12.8406C0.560217 11.2605 0.558418 9.68767 0.650336 8.10222C0.75503 6.00855 1.24473 4.15368 2.82864 2.61941C4.40918 1.0884 6.32743 0.610781 8.48885 0.509369C10.1226 0.420334 11.7459 0.422074 13.3793 0.423826C13.6064 0.424069 13.8337 0.424313 14.0613 0.424313C14.2883 0.424313 14.5152 0.424069 14.7419 0.423826C16.3732 0.422075 17.997 0.420331 19.6337 0.509369C21.795 0.610781 23.7099 1.08513 25.2939 2.61941C26.8745 4.15041 27.3675 6.00855 27.4721 8.10222C27.5641 9.68545 27.5623 11.2586 27.5605 12.8416ZM19.6137 8.93355C20.3203 9.45868 21.2001 9.76996 22.1536 9.76996C22.1542 9.76996 22.1609 9.76996 22.1615 9.76946V10.4925V12.4416C21.2288 12.4419 20.3225 12.2618 19.4679 11.9065C18.9183 11.6779 18.4063 11.3833 17.938 11.0273L17.952 17.0266C17.9461 18.3775 17.4038 19.6468 16.4221 20.6028C15.6232 21.3811 14.6109 21.876 13.5138 22.0361C13.256 22.0737 12.9936 22.093 12.7283 22.093C11.5538 22.093 10.4387 21.7181 9.52657 21.0264C9.35492 20.8961 9.19077 20.7549 9.03445 20.6028C7.97058 19.5667 7.42201 18.1624 7.51436 16.6851C7.58485 15.5606 8.04173 14.4881 8.8034 13.6475C9.81114 12.5352 11.2209 11.9178 12.7283 11.9178C12.9936 11.9178 13.256 11.9374 13.5138 11.975V12.6956V14.7003C13.2694 14.6209 13.0083 14.5772 12.7364 14.5772C11.3593 14.5772 10.2452 15.6844 10.2657 17.0424C10.2788 17.9113 10.7605 18.6708 11.4709 19.0895C11.8047 19.2863 12.1888 19.4082 12.5987 19.4304C12.9199 19.4477 13.2282 19.4037 13.5138 19.3108C14.4977 18.9905 15.2075 18.0798 15.2075 17.0057L15.2108 12.9883V5.65381H17.9347C17.9373 5.91975 17.9647 6.17926 18.0156 6.43073C18.2212 7.44852 18.8034 8.33156 19.6137 8.93355ZM22.1615 9.76932C22.1615 9.76937 22.1615 9.76942 22.1615 9.76946V9.76932Z" fill="#043314"/>
</svg>
