<svg width="27" height="27" viewBox="0 0 27 27"   xmlns="http://www.w3.org/2000/svg">
<path fill-rule="evenodd" clip-rule="evenodd" d="M26.999 12.8416C26.9987 13.0608 26.9985 13.2803 26.9985 13.5C26.9985 13.7462 26.9989 13.9922 26.9992 14.2379C27.0016 15.7941 27.004 17.3411 26.9106 18.8978C26.8059 20.9915 26.3163 22.8464 24.7323 24.3806C23.1519 25.9116 21.2335 26.3892 19.0722 26.4906C17.4377 26.5796 15.8137 26.5779 14.1796 26.5762C13.9532 26.5759 13.7266 26.5757 13.4997 26.5757C13.2734 26.5757 13.0472 26.5759 12.8212 26.5762C11.1892 26.5779 9.56476 26.5796 7.92733 26.4906C5.7659 26.3892 3.85103 25.9149 2.26711 24.3806C0.68658 22.8496 0.193506 20.9915 0.0888121 18.8978C-0.0031076 17.3152 -0.00130614 15.7402 0.000501888 14.1594C0.000753149 13.9397 0.00100454 13.7199 0.00100454 13.5C0.00100454 13.28 0.00075308 13.0603 0.000501785 12.8406C-0.00130621 11.2605 -0.00310584 9.68767 0.0888121 8.10222C0.193506 6.00855 0.683202 4.15368 2.26711 2.61941C3.84765 1.0884 5.7659 0.610781 7.92733 0.509369C9.56105 0.420334 11.1844 0.422074 12.8178 0.423826C13.0449 0.424069 13.2722 0.424313 13.4997 0.424313C13.7268 0.424313 13.9537 0.424069 14.1804 0.423826C15.8117 0.422075 17.4354 0.420331 19.0722 0.509369C21.2335 0.610781 23.1484 1.08513 24.7323 2.61941C26.3129 4.15041 26.8059 6.00855 26.9106 8.10222C27.0026 9.68545 27.0008 11.2586 26.999 12.8416ZM19.0522 8.93355C19.7587 9.45868 20.6385 9.76996 21.5921 9.76996C21.5927 9.76996 21.5994 9.76996 21.5999 9.76946V10.4925V12.4416C20.6673 12.4419 19.761 12.2618 18.9063 11.9065C18.3568 11.6779 17.8447 11.3833 17.3765 11.0273L17.3905 17.0266C17.3846 18.3775 16.8422 19.6468 15.8606 20.6028C15.0617 21.3811 14.0494 21.876 12.9523 22.0361C12.6945 22.0737 12.4321 22.093 12.1668 22.093C10.9923 22.093 9.87717 21.7181 8.96505 21.0264C8.79339 20.8961 8.62924 20.7549 8.47293 20.6028C7.40906 19.5667 6.86048 18.1624 6.95284 16.6851C7.02333 15.5606 7.4802 14.4881 8.24188 13.6475C9.24962 12.5352 10.6594 11.9178 12.1668 11.9178C12.4321 11.9178 12.6945 11.9374 12.9523 11.975V12.6956V14.7003C12.7078 14.6209 12.4468 14.5772 12.1749 14.5772C10.7978 14.5772 9.68365 15.6844 9.70421 17.0424C9.71726 17.9113 10.1989 18.6708 10.9094 19.0895C11.2432 19.2863 11.6273 19.4082 12.0372 19.4304C12.3583 19.4477 12.6667 19.4037 12.9523 19.3108C13.9362 18.9905 14.646 18.0798 14.646 17.0057L14.6492 12.9883V5.65381H17.3732C17.3758 5.91975 17.4032 6.17926 17.4541 6.43073C17.6597 7.44852 18.2419 8.33156 19.0522 8.93355ZM21.5999 9.76932C21.6 9.76937 21.6 9.76942 21.5999 9.76946V9.76932Z" fill="black"/>
</svg>
