<svg width="40" height="39" viewBox="0 0 40 39" fill="none" xmlns="http://www.w3.org/2000/svg">
<g clip-path="url(#clip0_875_24101)">
<path d="M26.3089 1.49794C26.9359 1.49794 27.4584 2.03292 27.4584 2.6749C27.4584 3.26337 27.0404 3.77161 26.4656 3.85185C25.7341 3.9321 25.1854 4.57407 25.1854 5.32305V9.92387C25.1854 10.1646 25.2377 10.4054 25.3422 10.6193L37.5172 29.2901C38.6929 31.5905 38.8497 33.677 37.9614 35.2016C37.0731 36.6996 35.1919 37.5556 32.6577 37.5556H7.31474C4.78045 37.5556 2.89933 36.7263 2.01102 35.2016C1.12271 33.677 1.27947 31.5905 2.45517 29.2901L15.9366 10.5926C16.0672 10.3786 16.1194 10.1646 16.1194 9.92387V5.32305C16.1194 4.57407 15.5708 3.95885 14.8654 3.85185C14.2645 3.77161 13.8464 3.26337 13.8464 2.6749C13.8464 2.00617 14.369 1.49794 14.996 1.49794H26.3089ZM26.3089 0H14.996C13.559 0 12.3833 1.2037 12.3833 2.6749C12.3833 4.03909 13.3761 5.1358 14.6564 5.32305V9.92387L1.17496 28.5947C-1.77735 34.3189 0.992077 39.0268 7.31474 39.0268H32.6838C39.0065 39.0268 41.7759 34.3457 38.8236 28.5947L26.6485 9.92387V5.32305C27.9287 5.16255 28.9215 4.03909 28.9215 2.6749C28.9215 1.2037 27.7458 0 26.3089 0Z" fill="white"/>
<path fill-rule="evenodd" clip-rule="evenodd" d="M36.6593 29.7717L30.5979 20.6236H9.82716L3.37386 29.7717C2.35491 31.7244 2.19815 33.4631 2.90358 34.64C3.609 35.817 5.1766 36.4857 7.34512 36.4857H32.7142C34.8566 36.4857 36.4503 35.8438 37.1557 34.64C37.835 33.4631 37.6521 31.7244 36.6593 29.7717ZM11.7605 30.0392C11.447 30.0392 11.1857 29.7717 11.1857 29.4508C11.1857 29.1298 11.447 28.8623 11.7605 28.8623C12.0741 28.8623 12.3353 29.1298 12.3353 29.4508C12.3353 29.7717 12.0741 30.0392 11.7605 30.0392ZM12.5443 25.9734C11.6299 25.9734 10.8984 25.2244 10.8984 24.2882C10.8984 23.3787 11.6299 22.603 12.5443 22.603C13.4588 22.603 14.1903 23.352 14.1903 24.2882C14.1903 25.2244 13.4588 25.9734 12.5443 25.9734ZM13.72 27.0433C13.72 26.5619 14.1119 26.1874 14.5822 26.1874C15.0525 26.1874 15.4183 26.5619 15.4183 27.0433C15.4183 27.5248 15.0264 27.8993 14.5822 27.8993C14.0858 27.8993 13.72 27.5248 13.72 27.0433ZM15.6012 33.3561C14.6867 33.3561 13.9552 32.6071 13.9552 31.6709C13.9552 30.7347 14.6867 29.9857 15.6012 29.9857C16.5156 29.9857 17.2471 30.7347 17.2471 31.6709C17.2471 32.6071 16.5156 33.3561 15.6012 33.3561ZM25.268 28.7285C24.9545 28.7285 24.6933 28.461 24.6933 28.1401C24.6933 27.8191 24.9545 27.5516 25.268 27.5516C25.5816 27.5516 25.8428 27.8191 25.8428 28.1401C25.8428 28.461 25.5816 28.7285 25.268 28.7285ZM27.5672 30.8149C27.2537 30.8149 26.9924 30.5475 26.9924 30.2265C26.9924 29.9055 27.2537 29.638 27.5672 29.638C27.8807 29.638 28.142 29.9055 28.142 30.2265C28.1681 30.5475 27.9068 30.8149 27.5672 30.8149ZM28.1681 27.7656C27.6978 27.7656 27.3059 27.3643 27.3059 26.8829C27.3059 26.4014 27.6978 26.0001 28.1681 26.0001C28.6384 26.0001 29.0303 26.4014 29.0303 26.8829C29.0303 27.3643 28.6384 27.7656 28.1681 27.7656ZM30.7547 32.5804C29.9447 32.5804 29.3177 31.9117 29.3177 31.0824C29.3177 30.2532 29.9709 29.6112 30.7547 29.6112C31.5646 29.6112 32.2178 30.28 32.2178 31.0824C32.2178 31.9117 31.5646 32.5804 30.7547 32.5804Z" fill="white"/>
</g>
<defs>
<clipPath id="clip0_875_24101">
<rect width="40" height="39" fill="white"/>
</clipPath>
</defs>
</svg>
