<svg width="1719" height="1059" viewBox="0 0 1719 1059"  xmlns="http://www.w3.org/2000/svg"> <path d="M66.0066 680.253C45.483 700.133 29.2067 723.738 18.1075 749.719C7.00836 775.7 1.30358 803.549 1.31928 831.674C1.33498 859.8 7.07065 887.652 18.1988 913.638C29.327 939.624 45.6293 963.237 66.1751 983.126L78.4422 995.008C98.9755 1014.91 123.352 1030.7 150.179 1041.48C177.007 1052.26 205.76 1057.82 234.796 1057.83C263.832 1057.85 292.583 1052.32 319.405 1041.57C346.227 1030.82 370.597 1015.05 391.12 995.172C432.566 955.026 488.788 932.481 547.423 932.494C606.059 932.508 662.307 955.078 703.798 995.243C745.275 1035.42 801.516 1058.01 860.152 1058.04C918.788 1058.07 975.017 1035.54 1016.48 995.407C1037 975.527 1061.37 959.761 1088.19 949.01C1115.01 938.259 1143.76 932.734 1172.8 932.749C1201.84 932.764 1230.59 938.32 1257.42 949.099C1284.24 959.878 1308.62 975.67 1329.15 995.571C1370.64 1035.76 1426.89 1058.34 1485.54 1058.37C1544.19 1058.39 1600.42 1035.84 1641.88 995.689L1654.18 983.77C1695.49 943.587 1718.64 889.159 1718.56 832.429C1718.47 775.7 1695.16 721.302 1653.73 681.173C1612.26 640.984 1588.96 586.5 1588.95 529.703C1588.93 472.906 1612.21 418.446 1653.66 378.3C1695.11 338.146 1718.38 283.673 1718.36 226.864C1718.34 170.056 1695.02 115.566 1653.53 75.3806L1641.27 63.4988C1599.78 23.3136 1543.53 0.725274 1484.88 0.703192C1426.23 0.68111 1370 23.2267 1328.54 63.3806C1287.1 103.527 1230.87 126.072 1172.24 126.058C1113.6 126.045 1057.35 103.474 1015.86 63.3091C974.386 23.1319 918.145 0.544294 859.51 0.513584C800.874 0.482873 744.644 23.0114 703.186 63.1452C682.668 83.0313 658.304 98.8044 631.485 109.563C604.666 120.322 575.918 125.857 546.882 125.85C517.846 125.844 489.091 120.296 462.26 109.525C435.429 98.7537 411.048 82.9694 390.509 63.0739C349.022 22.8887 292.767 0.300194 234.12 0.278112C175.473 0.25603 119.237 22.8022 77.783 62.9561L65.5258 74.829C24.0719 114.983 0.795928 169.455 0.818725 226.264C0.841522 283.072 24.1616 337.563 65.6477 377.748C86.1935 397.638 102.496 421.25 113.624 447.236C124.752 473.222 130.488 501.074 130.503 529.2C130.519 557.325 124.814 585.174 113.715 611.155C102.616 637.136 86.3398 660.741 65.8162 680.621L66.0066 680.253Z" ></path> </svg>