<svg width="1915" height="828" viewBox="0 0 1915 828" fill="none" xmlns="http://www.w3.org/2000/svg">
<path d="M95.1072 591.729C70.2463 605.323 49.2719 621.142 33.3822 638.284C17.4924 655.426 6.99837 673.553 2.4997 691.631C-1.99898 709.709 -0.414315 727.387 7.16324 743.643C14.7408 759.906 28.1624 774.436 46.6622 786.405L57.7065 793.557C76.191 805.533 99.3931 814.713 125.988 820.578C152.583 826.442 182.049 828.871 212.703 827.723C243.359 826.583 274.6 821.887 304.646 813.911C334.691 805.934 362.952 794.832 387.813 781.237C438.018 753.781 500.998 737.06 562.904 734.737C624.811 732.414 680.576 744.692 717.934 768.861C755.277 793.037 811.031 805.322 872.936 803.012C934.84 800.696 997.825 783.983 1048.04 756.54C1072.9 742.946 1101.16 731.844 1131.21 723.867C1161.25 715.891 1192.49 711.195 1223.15 710.047C1253.8 708.907 1283.27 711.336 1309.86 717.2C1336.46 723.058 1359.66 732.245 1378.14 744.22C1415.5 768.403 1471.27 780.688 1533.18 778.372C1595.1 776.056 1658.1 759.328 1708.31 731.865L1723.22 723.719C1773.28 696.247 1806.47 660.341 1815.48 623.879C1824.49 587.417 1808.61 553.377 1771.32 529.229C1733.98 505.043 1718.13 470.948 1727.23 434.44C1736.34 397.932 1769.66 362.001 1819.86 334.549C1870.08 307.091 1903.39 271.151 1912.49 234.636C1921.59 198.121 1905.71 164.022 1868.36 139.84L1857.31 132.69C1819.97 108.508 1851.04 39.1388 1789.13 41.455C1727.21 43.7713 1660.82 -7.81731 1610.61 19.6405C1560.41 47.0928 1471.75 -2.24159 1409.83 0.0797607C1347.92 2.40111 1253.01 78.7149 1215.65 54.5458C1178.32 30.3686 1103.94 120.958 1042.03 123.268C980.127 125.578 929.676 56.8132 879.461 84.2583C854.605 97.8563 851.765 62.7271 821.722 70.7088C818.715 -76.0408 749.462 126.864 718.806 128.013C685.202 -44.6939 626.465 136.922 599.865 131.065C573.266 125.207 563.858 168.515 545.366 156.542C508.016 132.36 443.686 145.652 381.768 147.968C319.851 150.284 256.856 167.011 206.641 194.469L191.794 202.588C141.579 230.046 108.259 265.985 99.1633 302.5C90.0675 339.014 105.941 373.114 143.292 397.296C161.792 409.264 175.214 423.794 182.791 440.056C190.368 456.317 191.953 473.992 187.455 492.07C182.956 510.149 172.462 528.276 156.572 545.418C140.683 562.559 119.708 578.378 94.8471 591.973L95.1072 591.729Z" fill="#FCBE22"/>
</svg>
