<svg xmlns="http://www.w3.org/2000/svg" width="233" height="202" viewBox="0 0 233 202" fill="none"> <g clip-path="url(#clip0_944_15361)"> <path d="M77.076 67.7734C75.8762 67.154 74.635 66.6184 73.3613 66.1705C67.7883 64.1611 54.0454 58.1745 55.3661 47.9657C57.0485 35.2692 69.3979 26.4187 80.7981 20.7627C92.1983 15.1067 100.529 34.4739 104.677 43.1107C105.815 45.3224 106.475 47.7492 106.612 50.2329C106.749 52.7167 106.362 55.2015 105.474 57.5253C104.586 59.849 103.219 61.9596 101.461 63.7194C99.7026 65.4791 97.5932 66.8483 95.2703 67.738C89.447 70.1464 82.9085 70.1591 77.076 67.7734Z" fill="#70B62E"/> <path d="M69.4466 56.7306C68.4883 56.9573 67.5453 57.2448 66.6235 57.5913C62.5564 59.1355 51.9783 62.3104 47.8925 56.0166C42.8038 48.1717 45.446 37.3355 49.1656 28.7155C52.8851 20.0955 66.7008 26.9609 73.1272 29.7679C74.8156 30.46 76.3392 31.5002 77.5988 32.8205C78.8583 34.1408 79.8255 35.7116 80.4375 37.4306C81.0494 39.1497 81.2924 40.9784 81.1504 42.7976C81.0084 44.6169 80.4848 46.3857 79.6136 47.989C78.5782 50.044 77.1471 51.8741 75.4023 53.3742C73.6575 54.8744 71.6336 56.015 69.4466 56.7306Z" fill="#41A935"/> <path d="M91.1177 66.4432C90.6579 65.5695 90.1479 64.7232 89.5901 63.9086C87.1336 60.3064 81.5642 50.7739 86.6571 45.3339C93.0529 38.524 104.232 38.5122 113.435 40.0429C122.638 41.5736 119.304 56.6307 118.008 63.4832C117.733 65.2877 117.081 67.0141 116.094 68.5497C115.108 70.0853 113.808 71.3956 112.281 72.3954C110.754 73.3951 109.033 74.0617 107.231 74.3517C105.428 74.6418 103.585 74.5487 101.822 74.0787C97.3942 73.0271 93.5531 70.2871 91.1177 66.4432Z" fill="#41A935"/> <path d="M126.875 74.3028C126.875 74.3028 124.381 58.6634 96.1888 44.3741C75.9645 34.1106 49.4485 34.8144 38.2946 42.2037C31.1218 46.7497 25.1251 52.9266 20.7933 60.2308C16.4614 67.5349 13.9172 75.7594 13.3681 84.2337C11.4297 106.243 14.3526 132.225 34.0999 156.292C53.8473 180.36 93.9656 148.343 105.056 139.005C116.147 129.668 134.215 101.174 126.875 74.3028Z" fill="#E9520E"/> <path d="M99.1083 123.909L99.2279 124.051C99.4678 124.299 99.7543 124.498 100.071 124.635C100.388 124.772 100.729 124.846 101.074 124.851C101.42 124.856 101.762 124.793 102.083 124.665C102.404 124.537 102.696 124.348 102.944 124.106C126.736 101.043 115.081 70.9201 114.958 70.6296C114.83 70.3095 114.64 70.0177 114.399 69.771C114.158 69.5242 113.871 69.3273 113.554 69.1916C113.237 69.0558 112.896 68.9839 112.551 68.9798C112.207 68.9757 111.864 69.0396 111.544 69.1678C111.224 69.2959 110.932 69.4859 110.686 69.7269C110.439 69.9678 110.242 70.255 110.106 70.572C109.97 70.889 109.898 71.2297 109.894 71.5745C109.89 71.9193 109.954 72.2616 110.082 72.5817C110.515 73.6725 120.522 99.7852 99.2834 120.335C98.8117 120.8 98.5321 121.426 98.4996 122.088C98.4672 122.75 98.6844 123.4 99.1083 123.909Z" fill="#F9B812"/> </g> <g clip-path="url(#clip1_944_15361)"> <path fill-rule="evenodd" clip-rule="evenodd" d="M209.906 112.739L171.761 139.759L170.086 140.922C172.589 144.556 173.382 148.19 169.834 150.77C168.992 151.367 168.042 151.79 167.037 152.016C166.033 152.242 164.995 152.267 163.981 152.088C162.968 151.909 161.999 151.53 161.131 150.974C160.262 150.417 159.511 149.694 158.92 148.844L120 175.064C120.36 175.628 121.297 177.027 121.675 177.572C130.223 188.915 142.792 196.477 156.747 198.671C170.701 200.866 184.956 197.522 196.519 189.341C208.083 181.16 216.057 168.779 218.767 154.795C221.478 140.811 218.715 126.311 211.058 114.338C210.716 113.793 210.32 113.284 209.906 112.739Z" fill="#E9520E"/> <path fill-rule="evenodd" clip-rule="evenodd" d="M209.888 112.103L175.038 137.269C175.698 137.996 176.301 138.773 176.839 139.595C177.419 140.454 177.825 141.42 178.034 142.437C178.244 143.455 178.253 144.504 178.06 145.525C177.868 146.545 177.478 147.518 176.913 148.387C176.349 149.256 175.62 150.004 174.768 150.589C173.917 151.173 172.959 151.583 171.951 151.794C170.943 152.006 169.903 152.015 168.891 151.82C167.879 151.626 166.915 151.233 166.054 150.663C165.193 150.093 164.452 149.358 163.872 148.499C163.305 147.666 162.811 146.784 162.395 145.864L126.934 170.177C127.276 170.74 128.212 172.139 128.573 172.702C136.105 183.88 147.73 191.582 160.891 194.112C174.051 196.642 187.669 193.794 198.748 186.194C209.828 178.594 217.461 166.865 219.969 153.587C222.476 140.309 219.654 126.57 212.121 115.392C211.833 114.847 210.266 112.63 209.888 112.103Z" fill="#F9B812"/> <path d="M152.058 172.684C151.576 172.684 151.109 172.51 150.743 172.193C150.329 171.841 150.071 171.337 150.023 170.792C149.976 170.248 150.144 169.706 150.491 169.286L162.72 154.75C163.068 154.333 163.567 154.073 164.106 154.027C164.644 153.981 165.179 154.153 165.592 154.504C166.006 154.856 166.263 155.359 166.309 155.903C166.354 156.446 166.184 156.986 165.836 157.403L153.625 171.939C153.433 172.171 153.194 172.358 152.923 172.486C152.652 172.615 152.357 172.683 152.058 172.684Z" fill="#E9520E"/> <path d="M175.255 175.791C174.759 175.786 174.283 175.598 173.915 175.264C173.547 174.929 173.313 174.471 173.256 173.974L170.68 158.711C170.637 158.193 170.788 157.678 171.103 157.268C171.418 156.857 171.875 156.581 172.383 156.494C172.89 156.407 173.411 156.516 173.843 156.799C174.275 157.081 174.586 157.517 174.714 158.02L177.272 173.465C177.318 173.732 177.311 174.005 177.252 174.268C177.192 174.532 177.081 174.781 176.925 175.001C176.77 175.221 176.572 175.407 176.344 175.549C176.116 175.691 175.862 175.786 175.597 175.828L175.255 175.791Z" fill="#E9520E"/> <path d="M192.778 163.108C192.265 163.106 191.771 162.912 191.392 162.563L180.027 151.915C179.831 151.731 179.672 151.51 179.561 151.265C179.449 151.019 179.386 150.754 179.376 150.484C179.366 150.214 179.409 149.945 179.502 149.691C179.595 149.438 179.737 149.206 179.919 149.008C180.101 148.81 180.32 148.65 180.564 148.537C180.807 148.424 181.07 148.361 181.338 148.351C181.605 148.341 181.872 148.384 182.123 148.478C182.374 148.572 182.604 148.715 182.801 148.899L194.165 159.529C194.564 159.902 194.799 160.42 194.819 160.969C194.839 161.517 194.643 162.051 194.273 162.454C194.083 162.663 193.852 162.829 193.595 162.942C193.337 163.054 193.059 163.111 192.778 163.108Z" fill="#E9520E"/> <path d="M182.638 142.975C182.099 142.997 181.572 142.801 181.176 142.431C180.779 142.062 180.544 141.548 180.522 141.004C180.501 140.459 180.695 139.928 181.061 139.528C181.427 139.127 181.936 138.89 182.476 138.868L197.929 137.578C198.457 137.537 198.98 137.703 199.389 138.042C199.799 138.38 200.063 138.865 200.126 139.395C200.176 139.93 200.015 140.463 199.678 140.878C199.341 141.293 198.854 141.557 198.325 141.612L182.872 142.902L182.638 142.975Z" fill="#E9520E"/> </g> <g clip-path="url(#clip2_944_15361)"> <path d="M171.043 19.8385C169.833 26.0021 171.257 35.6058 176.186 45.702C181.116 55.7982 196.473 63.2074 208.218 65.4034C219.963 67.5994 224.429 64.1865 225.491 66.6238C224.846 64.1709 224.807 63.6298 219.285 63.0122C213.763 62.3945 197.504 59.3809 188.781 49.9842C180.059 40.5875 172.329 26.2767 174.098 15.7403C174.794 11.5399 176.878 11.5762 176.197 10.2788C175.912 9.73826 174.992 9.39834 173.979 9.25921C172.724 12.7032 171.743 16.2405 171.043 19.8385Z" fill="#FBEE6F"/> <path d="M170.601 9.83965C170.029 10.8411 170.316 11.7852 170.239 12.9853C170.239 12.9853 170.227 17.5508 165.343 22.2545C160.458 26.9583 161.86 36.9452 163.862 43.1148C165.941 49.5665 173.892 65.0138 191.246 71.8204C205.048 77.2438 211.732 75.4791 217.243 73.1504C222.755 70.8216 226.146 69.0655 225.504 66.6089C224.442 64.1717 219.977 67.5846 208.232 65.3886C196.486 63.1926 181.599 54.9688 176.67 44.8726C171.741 34.7764 169.841 26.009 171.043 19.8386C171.736 16.2354 172.711 12.6923 173.96 9.24229C172.547 9.05363 170.931 9.25296 170.601 9.83965Z" fill="#FCC406"/> <path d="M176.035 11.4149C176.035 11.4149 174.063 12.1914 173.027 12.0318C171.991 11.8723 170.339 11.1303 170.608 9.8249C170.876 8.51951 173.926 8.26143 175.217 9.08431C176.509 9.90718 176.723 10.8474 176.035 11.4149Z" fill="#533913"/> <path d="M196.901 70.8995C196.798 70.8016 196.734 70.6688 196.723 70.5269C196.712 70.385 196.754 70.244 196.841 70.1311C196.927 70.0183 197.053 69.9416 197.193 69.916C197.333 69.8903 197.478 69.9175 197.599 69.9923C197.636 70.0263 201.778 72.6362 206.171 71.2197C206.243 71.1958 206.319 71.1863 206.395 71.1917C206.47 71.1972 206.544 71.2175 206.612 71.2515C206.68 71.2856 206.741 71.3326 206.79 71.39C206.84 71.4475 206.878 71.5141 206.902 71.5862C206.926 71.6583 206.935 71.7343 206.93 71.8101C206.924 71.8858 206.904 71.9598 206.87 72.0277C206.836 72.0956 206.789 72.1561 206.732 72.2058C206.674 72.2555 206.608 72.2935 206.535 72.3174C201.615 73.9081 197.174 71.0869 196.99 70.9668L196.901 70.8995Z" fill="#FBEE6F"/> </g> <defs> <clipPath id="clip0_944_15361"> <rect width="121.202" height="137.207" fill="white" transform="matrix(-0.644049 -0.764984 -0.764984 0.644049 160.021 92.8203)"/> </clipPath> <clipPath id="clip1_944_15361"> <rect width="101" height="89" fill="white" transform="translate(120 112.103)"/> </clipPath> <clipPath id="clip2_944_15361"> <rect width="80.0315" height="38.5927" fill="white" transform="translate(173.007 7) rotate(42.3673)"/> </clipPath> </defs> </svg>