<svg width="94" height="121" viewBox="0 0 94 121" fill="none" xmlns="http://www.w3.org/2000/svg">
<g clip-path="url(#clip0_758_13551)">
<path d="M55.1353 68.1965C54.5822 67.9109 54.01 67.664 53.4228 67.4575C50.8536 66.5312 44.518 63.7713 45.1269 59.065C45.9025 53.2118 51.5957 49.1317 56.8512 46.5242C62.1068 43.9167 65.9473 52.8452 67.8596 56.8268C68.3844 57.8464 68.6883 58.9652 68.7516 60.1102C68.8149 61.2552 68.6362 62.4007 68.227 63.472C67.8178 64.5433 67.1874 65.5163 66.3769 66.3275C65.5664 67.1388 64.5939 67.77 63.523 68.1802C60.8384 69.2905 57.8242 69.2963 55.1353 68.1965Z" fill="#70B62E"/>
<path d="M51.6181 63.1058C51.1763 63.2103 50.7416 63.3428 50.3166 63.5026C48.4416 64.2144 43.5651 65.6781 41.6815 62.7766C39.3356 59.16 40.5536 54.1645 42.2684 50.1906C43.9831 46.2167 50.3522 49.3817 53.3149 50.6757C54.0932 50.9948 54.7956 51.4744 55.3763 52.083C55.9569 52.6917 56.4028 53.4159 56.685 54.2084C56.9671 55.0009 57.0791 55.8439 57.0136 56.6826C56.9482 57.5212 56.7068 58.3367 56.3051 59.0758C55.8278 60.0232 55.168 60.8669 54.3637 61.5585C53.5593 62.25 52.6263 62.7759 51.6181 63.1058Z" fill="#41A935"/>
<path d="M61.6086 67.5834C61.3967 67.1806 61.1615 66.7905 60.9044 66.4149C59.7719 64.7543 57.2044 60.3597 59.5523 57.8518C62.5008 54.7124 67.6545 54.707 71.8971 55.4126C76.1397 56.1183 74.6029 63.0597 74.0054 66.2188C73.8787 67.0507 73.578 67.8466 73.1231 68.5545C72.6681 69.2624 72.0691 69.8665 71.365 70.3274C70.6609 70.7882 69.8676 71.0956 69.0368 71.2293C68.206 71.363 67.3563 71.3201 66.5432 71.1034C64.5022 70.6186 62.7314 69.3555 61.6086 67.5834Z" fill="#41A935"/>
<path d="M78.0931 71.2067C78.0931 71.2067 76.9436 63.9968 63.9467 57.4093C54.6231 52.6778 42.3991 53.0023 37.257 56.4088C33.9503 58.5045 31.1858 61.3521 29.1888 64.7194C27.1918 68.0866 26.0189 71.8782 25.7657 75.7849C24.8721 85.9312 26.2196 97.9091 35.3233 109.004C44.4269 120.1 62.9218 105.34 68.0346 101.035C73.1475 96.7305 81.4772 83.5947 78.0931 71.2067Z" fill="#E9520E"/>
<path d="M65.2925 94.0755L65.3477 94.141C65.4582 94.2555 65.5904 94.347 65.7364 94.4103C65.8825 94.4736 66.0397 94.5074 66.1988 94.5098C66.358 94.5122 66.5161 94.4831 66.664 94.4241C66.8119 94.3652 66.9467 94.2777 67.0607 94.1665C78.0292 83.5341 72.6563 69.6473 72.5995 69.5134C72.5404 69.3658 72.4528 69.2313 72.3417 69.1175C72.2306 69.0038 72.0982 68.913 71.9521 68.8504C71.8059 68.7878 71.6489 68.7547 71.4899 68.7528C71.3309 68.7509 71.1732 68.7803 71.0256 68.8394C70.878 68.8985 70.7435 68.9861 70.6297 69.0972C70.516 69.2083 70.4252 69.3407 70.3627 69.4868C70.3001 69.633 70.2669 69.79 70.265 69.949C70.2631 70.1079 70.2925 70.2657 70.3516 70.4133C70.5513 70.9162 75.1646 82.9543 65.3732 92.4279C65.1558 92.6425 65.0269 92.9309 65.0119 93.236C64.997 93.5411 65.0971 93.8407 65.2925 94.0755Z" fill="#F9B812"/>
</g>
<g clip-path="url(#clip1_758_13551)">
<path fill-rule="evenodd" clip-rule="evenodd" d="M45.398 0.321533L26.1366 13.9832L25.2908 14.5712C26.5549 16.4087 26.955 18.2462 25.1635 19.5508C24.7383 19.8525 24.2586 20.0665 23.7515 20.1808C23.2445 20.2952 22.7201 20.3074 22.2083 20.217C21.6966 20.1266 21.2075 19.9352 20.769 19.6538C20.3304 19.3724 19.951 19.0065 19.6524 18.5769L0 31.8344C0.181883 32.1192 0.654772 32.8266 0.845749 33.1023C5.16186 38.8375 11.509 42.661 18.5554 43.7704C25.6017 44.8799 32.7995 43.1892 38.6385 39.0529C44.4776 34.9167 48.5039 28.6565 49.8727 21.5859C51.2415 14.5153 49.8463 7.18387 45.98 1.13003C45.8072 0.854408 45.6072 0.597156 45.398 0.321533Z" fill="#E9520E"/>
<path fill-rule="evenodd" clip-rule="evenodd" d="M45.3889 0L27.7917 12.7246C28.125 13.0918 28.4291 13.485 28.7011 13.9006C28.9937 14.3349 29.1987 14.8232 29.3045 15.3376C29.4103 15.852 29.4148 16.3824 29.3177 16.8986C29.2206 17.4147 29.0238 17.9065 28.7385 18.3458C28.4533 18.7851 28.0852 19.1634 27.6553 19.459C27.2253 19.7546 26.742 19.9617 26.2328 20.0686C25.7236 20.1755 25.1987 20.18 24.6877 20.0819C24.1768 19.9838 23.69 19.785 23.2552 19.4968C22.8203 19.2086 22.4459 18.8368 22.1533 18.4024C21.8669 17.9811 21.6173 17.5354 21.4076 17.0702L3.50122 29.363C3.67401 29.6478 4.14694 30.3552 4.32882 30.6401C8.13242 36.2919 14.0026 40.1858 20.648 41.4651C27.2934 42.7444 34.1697 41.3043 39.7641 37.4617C45.3586 33.6191 49.2129 27.6887 50.4792 20.9751C51.7456 14.2616 50.3202 7.31475 46.5166 1.66293C46.3711 1.38731 45.5798 0.266435 45.3889 0Z" fill="#F9B812"/>
<path d="M16.1875 30.6308C15.9439 30.631 15.7084 30.543 15.5236 30.3827C15.3147 30.2043 15.184 29.9496 15.1602 29.6743C15.1364 29.3989 15.2212 29.1252 15.3963 28.9128L21.5712 21.5628C21.7472 21.352 21.999 21.2206 22.2711 21.1973C22.5431 21.1741 22.8131 21.2609 23.0217 21.4388C23.2304 21.6167 23.3605 21.871 23.3835 22.1458C23.4065 22.4206 23.3206 22.6934 23.1445 22.9042L16.9786 30.2541C16.8819 30.3714 16.761 30.4658 16.6243 30.5309C16.4876 30.596 16.3385 30.6301 16.1875 30.6308Z" fill="#E9520E"/>
<path d="M27.901 32.202C27.6509 32.1992 27.4104 32.1043 27.2245 31.9352C27.0387 31.7661 26.9203 31.5343 26.8915 31.2832L25.5911 23.5658C25.5692 23.3041 25.6454 23.0437 25.8046 22.8361C25.9638 22.6286 26.1944 22.489 26.4507 22.4451C26.707 22.4011 26.9703 22.4561 27.1883 22.599C27.4064 22.7419 27.5634 22.9624 27.6282 23.2167L28.9195 31.026C28.9429 31.1607 28.9395 31.2987 28.9095 31.432C28.8795 31.5653 28.8234 31.6913 28.7447 31.8024C28.6659 31.9136 28.5661 32.0079 28.4509 32.0796C28.3357 32.1514 28.2075 32.1992 28.0738 32.2204L27.901 32.202Z" fill="#E9520E"/>
<path d="M36.7494 25.7891C36.4903 25.788 36.2408 25.6898 36.0492 25.5135L30.3108 20.1296C30.2117 20.0367 30.1316 19.925 30.0753 19.8009C30.0189 19.6767 29.9872 19.5426 29.9822 19.4061C29.9771 19.2696 29.9987 19.1334 30.0457 19.0053C30.0927 18.8772 30.1643 18.7598 30.2563 18.6596C30.3482 18.5595 30.4588 18.4786 30.5817 18.4217C30.7046 18.3647 30.8373 18.3328 30.9725 18.3276C31.1076 18.3225 31.2424 18.3443 31.3692 18.3918C31.4959 18.4393 31.6122 18.5116 31.7113 18.6045L37.4497 23.9792C37.6509 24.1681 37.7697 24.43 37.78 24.7073C37.7902 24.9847 37.691 25.2548 37.5043 25.4583C37.4085 25.5639 37.2918 25.6479 37.1618 25.7049C37.0317 25.7619 36.8912 25.7906 36.7494 25.7891Z" fill="#E9520E"/>
<path d="M31.6294 15.6095C31.3569 15.6205 31.0912 15.5216 30.8908 15.3346C30.6904 15.1477 30.5717 14.888 30.5609 14.6127C30.55 14.3373 30.6479 14.0689 30.833 13.8664C31.018 13.664 31.2751 13.5441 31.5476 13.5331L39.3504 12.8808C39.6169 12.8599 39.8811 12.9438 40.0878 13.115C40.2945 13.2862 40.4278 13.5315 40.4599 13.7996C40.4853 14.0698 40.404 14.3392 40.2336 14.5492C40.0633 14.7591 39.8177 14.8926 39.5505 14.9204L31.7477 15.5727L31.6294 15.6095Z" fill="#E9520E"/>
</g>
<defs>
<clipPath id="clip0_758_13551">
<rect width="55.8748" height="63.2535" fill="white" transform="matrix(-0.644049 -0.764984 -0.764984 0.644049 93.374 79.7434)"/>
</clipPath>
<clipPath id="clip1_758_13551">
<rect width="51" height="45" fill="white"/>
</clipPath>
</defs>
</svg>
