<svg width="184" height="161" viewBox="0 0 184 161" fill="none" xmlns="http://www.w3.org/2000/svg">
<g clip-path="url(#clip0_586_28459)">
<path fill-rule="evenodd" clip-rule="evenodd" d="M125.364 109.933L77.6567 94.9183L75.4772 94.2373C74.1582 98.6596 71.4341 101.787 66.9929 100.379C65.9374 100.048 64.9575 99.5133 64.1094 98.8044C63.2612 98.0956 62.5613 97.2268 62.0497 96.2476C61.5382 95.2684 61.2249 94.1981 61.1279 93.0978C61.0309 91.9975 61.1521 90.8888 61.4844 89.8351L13.766 73.7219C13.5318 74.3976 12.9766 76.1018 12.7611 76.7751C8.08553 91.6042 9.50106 107.678 16.6961 121.46C23.8912 135.242 36.2764 145.604 51.1273 150.265C65.9783 154.927 82.0782 153.507 95.8855 146.317C109.693 139.128 120.076 126.758 124.752 111.929C124.991 111.291 125.188 110.62 125.364 109.933Z" fill="#EE731B"/>
<path fill-rule="evenodd" clip-rule="evenodd" d="M125.897 109.503L81.8002 96.0813C81.651 97.1503 81.4081 98.2041 81.074 99.2307C80.3107 101.275 78.7834 102.944 76.8132 103.887C74.843 104.831 72.5835 104.975 70.5099 104.289C68.4363 103.603 66.7101 102.141 65.6945 100.211C64.6789 98.2799 64.4528 96.0308 65.064 93.9365C65.4018 92.9179 65.8249 91.9296 66.3288 90.9819L22.6278 76.5222C22.3724 77.1817 21.7986 78.8884 21.5831 79.5617C19.3422 86.3204 18.4565 93.453 18.9765 100.552C19.4964 107.652 21.4117 114.578 24.6133 120.937C27.8149 127.297 32.2398 132.963 37.6357 137.614C43.0315 142.265 49.2925 145.808 56.0611 148.043C62.8297 150.277 69.9733 151.158 77.0842 150.636C84.1951 150.114 91.134 148.199 97.5046 145C103.875 141.801 109.553 137.38 114.213 131.991C118.874 126.602 122.426 120.349 124.667 113.591C124.845 112.922 125.7 110.173 125.897 109.503Z" fill="#FFF8C8"/>
<path fill-rule="evenodd" clip-rule="evenodd" d="M98.0525 127.805L82.4611 106.465C82.056 105.903 81.8391 105.227 81.8412 104.534C81.8434 103.841 82.0643 103.167 82.4729 102.606C82.8814 102.046 83.4566 101.629 84.1165 101.414C84.7764 101.199 85.4873 101.197 86.1479 101.409L111.302 109.485C112.768 109.96 114.1 110.775 115.191 111.862C116.281 112.95 117.099 114.279 117.576 115.742C118.054 117.205 118.178 118.761 117.939 120.281C117.699 121.802 117.103 123.244 116.199 124.491L113.85 127.721C112.951 128.971 111.768 129.992 110.399 130.698C109.029 131.404 107.512 131.777 105.971 131.785C104.43 131.793 102.909 131.437 101.532 130.745C100.156 130.053 98.9636 129.046 98.0525 127.805Z" fill="#F9B812"/>
<path fill-rule="evenodd" clip-rule="evenodd" d="M74.6029 136.748L74.6452 110.318C74.6431 109.625 74.8619 108.948 75.2699 108.386C75.678 107.825 76.2542 107.407 76.9154 107.193C77.5767 106.98 78.2887 106.982 78.9487 107.198C79.6087 107.415 80.1824 107.836 80.5872 108.4L96.1112 129.805C97.0139 131.052 97.6086 132.494 97.8466 134.014C98.0846 135.534 97.9594 137.089 97.481 138.552C97.0026 140.015 96.1846 141.344 95.0939 142.432C94.0031 143.519 92.6705 144.334 91.2046 144.81L87.3754 146.034C85.9089 146.505 84.3515 146.625 82.8304 146.382C81.3093 146.138 79.8675 145.54 78.6224 144.635C77.3773 143.729 76.3641 142.543 75.6656 141.173C74.9671 139.802 74.603 138.286 74.6029 136.748Z" fill="#F9B812"/>
<path fill-rule="evenodd" clip-rule="evenodd" d="M50.4044 130.158L66.0416 108.755C66.446 108.183 67.0238 107.754 67.6901 107.534C68.3564 107.313 69.0759 107.312 69.7427 107.53C70.4096 107.748 70.9886 108.174 71.3946 108.746C71.8005 109.317 72.012 110.004 71.9979 110.704L71.8159 137.228C71.8187 138.771 71.4542 140.293 70.7524 141.669C70.0507 143.044 69.0317 144.234 67.7795 145.139C66.5273 146.044 65.0777 146.64 63.5501 146.877C62.0225 147.113 60.4605 146.984 58.9929 146.5L55.1976 145.235C53.7262 144.755 52.3905 143.933 51.3007 142.835C50.2109 141.738 49.3983 140.398 48.9301 138.925C48.4618 137.452 48.3513 135.889 48.6077 134.364C48.864 132.84 49.4798 131.398 50.4044 130.158Z" fill="#F9B812"/>
<path fill-rule="evenodd" clip-rule="evenodd" d="M34.7585 110.571L59.9849 102.571C60.6469 102.363 61.3576 102.369 62.0157 102.588C62.6738 102.807 63.2458 103.228 63.6503 103.791C64.0547 104.354 64.271 105.029 64.2683 105.722C64.2656 106.415 64.0441 107.089 63.6352 107.649L47.9225 128.91C47.0064 130.147 45.8105 131.151 44.4324 131.839C43.0543 132.527 41.5331 132.881 39.9925 132.87C38.4519 132.86 36.9356 132.487 35.5674 131.78C34.1992 131.074 33.0177 130.054 32.1193 128.805L29.7908 125.545C28.8953 124.295 28.3083 122.851 28.0776 121.331C27.8469 119.811 27.979 118.258 28.4632 116.799C28.9473 115.339 29.7699 114.014 30.8638 112.932C31.9578 111.85 33.2923 111.041 34.7585 110.571Z" fill="#F9B812"/>
<path fill-rule="evenodd" clip-rule="evenodd" d="M33.6924 85.5391L58.792 93.9259C59.4572 94.1391 60.0367 94.559 60.4459 95.1243C60.8552 95.6896 61.0726 96.3707 61.0667 97.0683C61.0608 97.7659 60.8317 98.4435 60.413 99.0021C59.9942 99.5608 59.4076 99.9712 58.7389 100.174L33.484 108.102C32.0165 108.554 30.4629 108.655 28.9494 108.395C27.436 108.136 26.0054 107.523 24.7742 106.607C23.5429 105.691 22.5457 104.498 21.8636 103.125C21.1815 101.751 20.8338 100.236 20.8487 98.7029L20.8921 94.6948C20.9088 93.164 21.2866 91.6585 21.995 90.3005C22.7033 88.9424 23.7221 87.7699 24.9688 86.8782C26.2155 85.9864 27.6551 85.4005 29.1708 85.1678C30.6864 84.9352 32.2355 85.0624 33.6924 85.5391Z" fill="#F9B812"/>
<path fill-rule="evenodd" clip-rule="evenodd" d="M157.226 1.75859L116.785 31.2008L115.052 32.4719C117.807 36.2262 118.731 40.2211 114.967 42.954C113.158 44.2656 110.903 44.8076 108.695 44.4612C106.487 44.1147 104.508 42.908 103.191 41.1059L61.8342 69.7959C62.2351 70.3882 63.2628 71.8466 63.6799 72.4177C68.2142 78.6411 73.9322 83.9114 80.5076 87.9277C87.0829 91.9439 94.3867 94.6275 102.002 95.8251C109.617 97.0227 117.395 96.711 124.891 94.9077C132.387 93.1044 139.454 89.8448 145.689 85.3151C151.925 80.7854 157.206 75.0742 161.232 68.5077C165.257 61.9412 167.948 54.648 169.151 47.0443C170.354 39.4407 170.045 31.6757 168.242 24.1926C166.439 16.7094 163.177 9.65478 158.643 3.43137C158.095 2.87737 157.662 2.32731 157.226 1.75859Z" fill="#EE731B"/>
<path fill-rule="evenodd" clip-rule="evenodd" d="M157.176 1.08239L120.23 28.491C120.999 29.2461 121.698 30.0683 122.32 30.9479C122.99 31.8507 123.473 32.8785 123.738 33.9708C124.004 35.0631 124.048 36.1975 123.866 37.307C123.685 38.4166 123.283 39.4787 122.684 40.4305C122.084 41.3823 121.3 42.2045 120.377 42.8485C119.454 43.4925 118.411 43.9452 117.309 44.1798C116.208 44.4143 115.071 44.4261 113.965 44.2143C112.86 44.0025 111.808 43.5714 110.872 42.9466C109.937 42.3218 109.136 41.516 108.518 40.5767C107.902 39.6922 107.354 38.7622 106.879 37.7949L69.2109 64.3311C69.5931 64.9258 70.6207 66.3842 71.0216 66.9765C79.5043 78.2307 92.0439 85.7436 105.983 87.9234C119.923 90.1032 134.167 86.7786 145.698 78.654C157.229 70.5295 165.141 58.2434 167.757 44.3987C170.373 30.5541 167.488 16.2388 159.713 4.48587C159.322 3.96819 157.611 1.65111 157.176 1.08239Z" fill="#FFF8C8"/>
<path fill-rule="evenodd" clip-rule="evenodd" d="M155.366 34.3071L128.89 34.106C128.193 34.1016 127.515 33.8766 126.954 33.4633C126.393 33.05 125.978 32.4697 125.768 31.8058C125.559 31.1419 125.565 30.4286 125.787 29.7685C126.009 29.1084 126.435 28.5355 127.003 28.1321L148.545 12.7632C149.799 11.872 151.247 11.2892 152.77 11.0623C154.293 10.8354 155.848 10.9707 157.308 11.4574C158.769 11.944 160.093 12.7682 161.174 13.8627C162.254 14.9573 163.061 16.2913 163.527 17.7561L164.733 21.5811C165.209 23.0484 165.329 24.6079 165.083 26.1309C164.836 27.6539 164.23 29.0966 163.315 30.3399C162.4 31.5832 161.202 32.5914 159.82 33.2813C158.437 33.9711 156.911 34.3227 155.366 34.3071Z" fill="#F9B812"/>
<path fill-rule="evenodd" clip-rule="evenodd" d="M148.601 58.4518L127.343 42.7124C126.777 42.3011 126.357 41.7205 126.143 41.0546C125.93 40.3888 125.935 39.6724 126.157 39.0092C126.379 38.346 126.806 37.7706 127.378 37.3662C127.949 36.9618 128.634 36.7495 129.335 36.76L155.806 37.0756C157.346 37.0932 158.86 37.4738 160.224 38.1864C161.589 38.8991 162.765 39.9235 163.658 41.1764C164.55 42.4293 165.134 43.8751 165.36 45.396C165.587 46.9169 165.45 48.4699 164.962 49.9285L163.676 53.7394C163.181 55.1949 162.349 56.5132 161.247 57.5871C160.146 58.661 158.806 59.4601 157.337 59.9194C155.867 60.3787 154.31 60.4851 152.792 60.2301C151.274 59.9751 149.838 59.3657 148.601 58.4518Z" fill="#F9B812"/>
<path fill-rule="evenodd" clip-rule="evenodd" d="M128.881 73.9419L120.988 48.726C120.785 48.0639 120.797 47.3548 121.021 46.6994C121.245 46.0441 121.671 45.476 122.237 45.0759C122.803 44.6758 123.481 44.4641 124.175 44.471C124.868 44.4779 125.542 44.7029 126.1 45.1141L147.293 60.9379C148.526 61.8595 149.522 63.0588 150.202 64.438C150.881 65.8172 151.225 67.3373 151.205 68.8746C151.185 70.4118 150.801 71.9227 150.085 73.2842C149.369 74.6457 148.342 75.8193 147.086 76.7094L143.819 79.0355C142.559 79.9162 141.108 80.4876 139.584 80.7031C138.061 80.9187 136.509 80.7724 135.053 80.2761C133.597 79.7798 132.28 78.9475 131.207 77.8468C130.135 76.7462 129.338 75.4083 128.881 73.9419Z" fill="#F9B812"/>
<path fill-rule="evenodd" clip-rule="evenodd" d="M103.808 74.8655L112.378 49.8575C112.6 49.1996 113.025 48.629 113.592 48.2279C114.159 47.8268 114.839 47.6161 115.534 47.6261C116.229 47.6361 116.903 47.8664 117.458 48.2837C118.013 48.7009 118.421 49.2836 118.622 49.9475L126.37 75.2204C126.827 76.692 126.928 78.2509 126.664 79.7692C126.4 81.2875 125.78 82.7218 124.853 83.9544C123.926 85.1869 122.72 86.1827 121.334 86.8597C119.947 87.5368 118.42 87.8759 116.876 87.8493L112.878 87.7866C111.337 87.7591 109.825 87.3684 108.464 86.6463C107.104 85.9242 105.934 84.8911 105.05 83.6313C104.165 82.3716 103.592 80.9208 103.376 79.3974C103.16 77.8741 103.308 76.3212 103.808 74.8655Z" fill="#F9B812"/>
<path fill-rule="evenodd" clip-rule="evenodd" d="M83.0196 60.8283L104.721 45.6659C105.289 45.2653 105.971 45.0556 106.666 45.0671C107.362 45.0787 108.036 45.311 108.59 45.7303C109.145 46.1497 109.551 46.7344 109.751 47.3997C109.95 48.0651 109.932 48.7767 109.7 49.4315L101.05 74.412C100.548 75.8665 99.7076 77.1816 98.5985 78.2499C97.4895 79.3182 96.143 80.1092 94.6692 80.5582C93.1954 81.0072 91.6362 81.1015 90.1192 80.8332C88.6022 80.565 87.1705 79.9419 85.9413 79.015L82.7372 76.6096C81.5074 75.6824 80.5147 74.4779 79.8402 73.0944C79.1656 71.7109 78.8284 70.1876 78.8559 68.6489C78.8835 67.1102 79.275 65.5996 79.9986 64.2405C80.7222 62.8814 81.7574 61.7122 83.0196 60.8283Z" fill="#F9B812"/>
</g>
<defs>
<clipPath id="clip0_586_28459">
<rect width="166.834" height="139.625" fill="white" transform="translate(0 21.7349) rotate(-7.48565)"/>
</clipPath>
</defs>
</svg>
