<svg width="113" height="103" viewBox="0 0 113 103" fill="none" xmlns="http://www.w3.org/2000/svg">
<g id="Group 500">
<g id="Group">
<g id="Group_2">
<g id="Group_3">
<path id="Vector" fill-rule="evenodd" clip-rule="evenodd" d="M104.42 0.521729L76.7679 19.9566L75.594 20.7392C77.4201 23.3479 77.9418 25.9566 75.4636 27.7827C72.8548 29.6088 69.3331 28.9567 67.507 26.3479L39.333 45.2611C39.5939 45.6524 40.246 46.6959 40.5069 47.0872C53.0287 64.9568 77.681 69.2612 95.5506 56.7394C113.42 44.2176 117.725 19.5653 105.203 1.69565C104.942 1.17391 104.681 0.782599 104.42 0.521729Z" fill="#E9520E"/>
</g>
<g id="Group_4">
<path id="Vector_2" fill-rule="evenodd" clip-rule="evenodd" d="M104.42 0L79.1153 18.0001C79.5066 18.261 80.1588 19.3044 80.5501 19.6958C82.3762 22.3045 81.5936 25.8262 78.9849 27.5219C76.3761 29.348 72.8544 28.5654 71.1587 25.9566C70.8979 25.5653 70.2457 24.5219 70.1153 24.1306L44.2891 41.7393C44.5499 42.1306 45.2021 43.1741 45.4629 43.5654C56.8108 60.2612 79.637 64.5655 96.3328 53.2177C113.028 41.8698 117.333 19.0436 105.985 2.34784C105.724 1.95653 104.681 0.391306 104.42 0Z" fill="#F9B812"/>
</g>
</g>
<g id="Group_5">
<path id="Vector_3" d="M62.5507 43.435C62.1594 43.435 61.8985 43.3046 61.6376 43.0437C60.9855 42.522 60.9855 41.6089 61.5072 40.9568L70.3768 30.5219C70.8986 29.8698 71.8116 29.8698 72.4638 30.3915C73.1159 30.9132 73.116 31.8263 72.5942 32.4785L63.7246 42.9133C63.3333 43.3046 62.942 43.435 62.5507 43.435Z" fill="#E9520E"/>
</g>
<g id="Group_6">
<path id="Vector_4" d="M79.2467 45.6523C78.5945 45.6523 77.9424 45.1306 77.8119 44.4784L75.9858 33.3914C75.8554 32.6088 76.3771 31.8262 77.1597 31.6958C77.9424 31.5653 78.725 32.0871 78.8554 32.8697L80.6814 43.9567C80.8119 44.7393 80.2902 45.5219 79.5076 45.6523C79.5076 45.6523 79.3771 45.6523 79.2467 45.6523Z" fill="#E9520E"/>
</g>
<g id="Group_7">
<path id="Vector_5" d="M92.0285 36.6522C91.6371 36.6522 91.2459 36.5218 90.985 36.2609L82.7676 28.5652C82.1154 28.0435 82.1153 27.1304 82.6371 26.4782C83.1588 25.8261 84.0719 25.8261 84.7241 26.3478L92.9415 34.0435C93.5937 34.5652 93.5937 35.4783 93.0719 36.1305C92.811 36.3913 92.4198 36.6522 92.0285 36.6522Z" fill="#E9520E"/>
</g>
<g id="Group_8">
<path id="Vector_6" d="M84.594 22.1741C83.8114 22.1741 83.1593 21.6523 83.1593 20.8697C83.0288 20.0871 83.681 19.3045 84.4636 19.3045L95.6811 18.3915C96.4637 18.261 97.2463 18.9132 97.2463 19.6958C97.3767 20.4784 96.7245 21.261 95.9419 21.261L84.594 22.1741C84.7245 22.1741 84.7245 22.1741 84.594 22.1741Z" fill="#E9520E"/>
</g>
</g>
<g id="Group_9">
<g id="Group_10">
<g id="Group_11">
<path id="Vector_7" fill-rule="evenodd" clip-rule="evenodd" d="M75.9859 78.6525L45.3335 64.4351L44.0292 63.7829C42.7248 66.6525 40.6379 68.4786 37.7683 67.1742C34.8987 65.8699 33.7248 62.4785 35.0291 59.609L4.63768 44.6089C4.37681 45.0002 3.85505 46.1741 3.72461 46.5654C-5.5363 66.3916 3.07245 90.0004 22.8986 99.1309C42.7248 108.392 66.2032 99.7831 75.4641 79.9569C75.5945 79.5656 75.725 79.0438 75.9859 78.6525Z" fill="#E9520E"/>
</g>
<g id="Group_12">
<path id="Vector_8" fill-rule="evenodd" clip-rule="evenodd" d="M76.3772 78.3918L48.0727 65.6091C47.9423 66.1308 47.551 67.1743 47.2901 67.6961C45.9858 70.5657 42.5945 71.7396 39.7249 70.3048C36.8553 69.0004 35.6814 65.6091 37.1162 62.7395C37.377 62.3482 37.8988 61.1743 38.1596 60.9134L10.2464 47.3481C9.98555 47.7395 9.46387 48.9134 9.33344 49.3047C0.594264 67.4352 8.15952 89.3484 26.29 98.218C44.4206 106.957 66.3337 99.3919 75.2033 81.2614C75.3338 80.6092 76.1163 78.9135 76.3772 78.3918Z" fill="#F9B812"/>
</g>
</g>
<g id="Group_13">
<path id="Vector_9" d="M32.5508 67.0439C32.4203 67.0439 32.4203 67.0439 32.2899 67.0439L18.8551 64.5656C18.0724 64.4351 17.5507 63.6525 17.6811 62.8699C17.8115 62.0873 18.5941 61.5656 19.3768 61.696L32.8117 64.1743C33.5943 64.3047 34.116 65.0873 33.9855 65.8699C33.8551 66.5221 33.203 67.0439 32.5508 67.0439Z" fill="#E9520E"/>
</g>
<g id="Group_14">
<path id="Vector_10" d="M25.5076 80.348C25.1162 80.348 24.5946 80.2176 24.3337 79.8263C23.8119 79.1741 23.9423 78.261 24.5945 77.7393L33.2033 70.5653C33.8555 70.0436 34.7685 70.174 35.2902 70.8262C35.812 71.4784 35.6815 72.3914 35.0293 72.9132L26.4206 80.0871C26.1597 80.2176 25.7684 80.348 25.5076 80.348Z" fill="#E9520E"/>
</g>
<g id="Group_15">
<path id="Vector_11" d="M39.7249 86.7395C39.5944 86.7395 39.464 86.7395 39.3336 86.7395C38.551 86.6091 38.0292 85.8265 38.1596 84.9134L40.6379 73.9568C40.7684 73.1742 41.5509 72.6525 42.464 72.7829C43.2466 72.9134 43.7684 73.696 43.6379 74.609L41.1596 85.5656C41.0292 86.2178 40.377 86.7395 39.7249 86.7395Z" fill="#E9520E"/>
</g>
<g id="Group_16">
<path id="Vector_12" d="M54.9854 82.4351C54.4637 82.4351 54.0724 82.1742 53.8115 81.7829L47.4201 72.522C46.8984 71.8698 47.1593 70.9568 47.8115 70.435C48.4637 69.9133 49.3767 70.1742 49.8984 70.8263L56.2898 80.0872C56.8115 80.7394 56.5506 81.6525 55.8984 82.1742C55.5071 82.3046 55.2463 82.4351 54.9854 82.4351Z" fill="#E9520E"/>
</g>
</g>
</g>
</svg>
