<svg xmlns="http://www.w3.org/2000/svg" width="171" height="262" viewBox="0 0 171 262" fill="none"> <g clip-path="url(#clip0_944_15363)"> <path fill-rule="evenodd" clip-rule="evenodd" d="M131.04 208.153L87.4359 181.966L85.5585 180.847C83.1151 184.915 79.7244 187.365 75.6729 184.925C73.7276 183.752 72.3295 181.855 71.7854 179.65C71.2412 177.445 71.5954 175.113 72.7703 173.165L29.5119 145.822C29.1132 146.432 28.1474 147.973 27.7749 148.59C23.7121 155.304 21.0115 162.749 19.8273 170.5C18.6431 178.25 18.9984 186.153 20.8731 193.759C22.7477 201.365 26.1049 208.524 30.753 214.828C35.4011 221.131 41.2491 226.456 47.963 230.497C54.6769 234.539 62.1254 237.218 69.883 238.383C77.6406 239.547 85.5556 239.174 93.1759 237.284C100.796 235.394 107.973 232.024 114.295 227.367C120.618 222.711 125.964 216.858 130.026 210.143C130.331 209.41 130.678 208.787 131.04 208.153Z" fill="#EE731B"/> <path fill-rule="evenodd" clip-rule="evenodd" d="M131.656 207.837L91.3399 184.116C90.933 185.135 90.4358 186.116 89.854 187.047C89.2698 188.033 88.4937 188.892 87.5718 189.575C86.6499 190.257 85.6008 190.747 84.4866 191.018C83.3724 191.288 82.2158 191.333 81.085 191.149C79.9543 190.966 78.8724 190.557 77.9035 189.948C76.9345 189.34 76.0981 188.542 75.4438 187.604C74.7894 186.666 74.3304 185.606 74.0939 184.487C73.8574 183.368 73.8482 182.212 74.0667 181.088C74.2853 179.964 74.7273 178.894 75.3665 177.943C75.9552 177.015 76.6134 176.134 77.3355 175.305L37.5544 150.561C37.146 151.154 36.1803 152.695 35.7815 153.306C28.546 165.713 26.4252 180.435 29.8683 194.352C33.3114 208.269 42.048 220.288 54.2269 227.863C66.4059 235.437 81.0703 237.971 95.1131 234.928C109.156 231.886 121.474 223.506 129.457 211.563C129.789 210.992 131.293 208.471 131.656 207.837Z" fill="#FFF8C8"/> <path fill-rule="evenodd" clip-rule="evenodd" d="M99.7166 219.323L89.475 194.453C89.2044 193.798 89.1488 193.074 89.3163 192.385C89.4837 191.696 89.8655 191.077 90.4069 190.617C90.9482 190.157 91.6212 189.881 92.3291 189.827C93.0369 189.772 93.7432 189.944 94.3463 190.316L117.278 204.39C118.61 205.211 119.728 206.336 120.541 207.672C121.354 209.008 121.84 210.518 121.958 212.078C122.076 213.638 121.823 215.205 121.22 216.651C120.617 218.098 119.681 219.382 118.488 220.4L115.368 223.046C114.177 224.074 112.758 224.805 111.23 225.178C109.701 225.552 108.106 225.557 106.577 225.193C105.048 224.83 103.628 224.107 102.436 223.087C101.243 222.066 100.311 220.776 99.7166 219.323Z" fill="#F9B812"/> <path fill-rule="evenodd" clip-rule="evenodd" d="M74.3584 222.567L80.7759 196.417C80.9395 195.724 81.3197 195.1 81.8615 194.637C82.4033 194.173 83.0785 193.893 83.7892 193.838C84.4999 193.783 85.2093 193.955 85.8145 194.329C86.4197 194.704 86.8892 195.261 87.1552 195.921L97.2877 220.833C97.8779 222.282 98.1166 223.851 97.9844 225.411C97.8522 226.972 97.3528 228.48 96.5269 229.812C95.701 231.145 94.572 232.265 93.2318 233.08C91.8916 233.896 90.3782 234.384 88.8149 234.505L84.7267 234.813C83.1637 234.927 81.5967 234.671 80.1533 234.065C78.71 233.46 77.431 232.522 76.4205 231.329C75.41 230.135 74.6965 228.719 74.3382 227.197C73.9799 225.674 73.9868 224.088 74.3584 222.567Z" fill="#F9B812"/> <path fill-rule="evenodd" clip-rule="evenodd" d="M51.6255 209.699L72.2158 192.306C72.7582 191.853 73.4292 191.583 74.1335 191.533C74.8377 191.483 75.5394 191.656 76.1385 192.027C76.7376 192.399 77.2037 192.95 77.4705 193.602C77.7372 194.254 77.791 194.974 77.6243 195.659L71.1019 221.782C70.7211 223.301 69.9864 224.71 68.958 225.893C67.9295 227.077 66.6362 228.002 65.1834 228.593C63.7306 229.183 62.1594 229.424 60.5978 229.293C59.0362 229.163 57.5282 228.667 56.1969 227.844L52.7237 225.708C51.3993 224.877 50.2906 223.745 49.4879 222.404C48.6852 221.063 48.211 219.551 48.104 217.992C47.997 216.432 48.2601 214.868 48.872 213.427C49.4839 211.986 50.4273 210.709 51.6255 209.699Z" fill="#F9B812"/> <path fill-rule="evenodd" clip-rule="evenodd" d="M41.2841 187.135L68.1648 185.24C68.8703 185.186 69.5741 185.357 70.1745 185.729C70.775 186.102 71.241 186.655 71.5054 187.309C71.7697 187.964 71.8187 188.686 71.6452 189.371C71.4717 190.057 71.0847 190.67 70.5402 191.122L49.8394 208.403C48.6363 209.414 47.2108 210.127 45.6799 210.482C44.149 210.837 42.5564 210.825 41.0329 210.447C39.5094 210.068 38.0983 209.333 36.9156 208.304C35.733 207.274 34.8125 205.978 34.2296 204.523L32.7133 200.754C32.132 199.3 31.9033 197.729 32.046 196.169C32.1887 194.608 32.6987 193.103 33.5344 191.775C34.37 190.447 35.5076 189.335 36.8543 188.529C38.2011 187.722 39.719 187.245 41.2841 187.135Z" fill="#F9B812"/> <path fill-rule="evenodd" clip-rule="evenodd" d="M46.2871 162.101L69.0876 176.407C69.6882 176.78 70.1537 177.335 70.4169 177.991C70.6801 178.647 70.7272 179.37 70.5516 180.056C70.3759 180.741 69.9864 181.354 69.4396 181.804C68.8928 182.255 68.2171 182.521 67.51 182.563L40.6237 184.373C39.0588 184.48 37.4918 184.215 36.0508 183.6C34.6098 182.985 33.3359 182.038 32.3332 180.837C31.3306 179.635 30.6277 178.212 30.2821 176.685C29.9366 175.158 29.9582 173.571 30.3451 172.052L31.3435 168.097C31.7304 166.578 32.4714 165.171 33.506 163.99C34.5405 162.81 35.8393 161.89 37.2963 161.305C38.7534 160.721 40.3274 160.488 41.8899 160.626C43.4524 160.765 44.9591 161.27 46.2871 162.101Z" fill="#F9B812"/> </g> <g clip-path="url(#clip1_944_15363)"> <path d="M164.785 47.4213C160.457 31.9904 144.487 23.0164 129.116 27.3637C121.204 29.5947 115.013 34.9451 111.438 41.7045L111.417 41.7041C111.417 41.7041 105.558 57.3465 83.9725 75.5396C79.6299 78.6017 76.0093 82.4597 73.2177 86.8894C73.1759 86.9297 73.1341 86.97 73.0923 87.0104L73.1329 87.0317C67.3997 96.2173 65.3712 107.697 68.5312 118.95C73.012 134.939 86.6077 145.883 102.083 147.729C111.766 156.498 125.564 160.266 139.04 156.457C152.247 152.725 162.775 144.58 165.82 130.405C165.841 130.364 165.841 130.344 165.862 130.323L165.842 130.323C173.46 78.3454 165.626 50.4824 164.785 47.4213Z" fill="#FEC90A"/> <path d="M100.513 161.934C99.6117 161.916 98.762 161.364 98.4102 160.494L97.394 157.985L94.4669 158.873C93.2508 159.24 91.9324 158.556 91.5674 157.315C91.2025 156.073 91.8837 154.77 93.1204 154.404L98.0881 152.897C99.2219 152.549 100.46 153.128 100.91 154.248L102.727 158.727C103.216 159.93 102.636 161.276 101.459 161.767C101.129 161.884 100.82 161.94 100.513 161.934Z" fill="#1E1E1C"/> <path d="M157.671 52.8567C154.204 40.5077 141.436 33.3246 129.135 36.8065C122.81 38.5954 117.849 42.8797 114.997 48.275C114.997 48.275 103.922 67.6207 86.6495 82.1751C83.1592 84.6162 80.25 87.7271 78.0295 91.2423C77.9877 91.2826 77.9669 91.3028 77.9251 91.3431L77.9657 91.3644C73.3748 98.7211 71.7602 107.905 74.2883 116.903C77.8891 129.707 88.7616 138.458 101.15 139.915C108.901 146.938 119.948 149.952 130.724 146.893C141.294 143.891 149.721 137.392 152.156 126.043C152.177 126.023 152.178 126.002 152.178 125.982L152.158 125.981C162.427 84.0329 158.36 55.2976 157.671 52.8567Z" fill="#FDF187"/> <path d="M141.963 40.9255C141.635 40.9191 141.309 40.851 140.984 40.68C139.828 40.1019 139.363 38.7145 139.919 37.5529C144.487 28.2004 147.843 13.8254 145.363 4.45802C145.039 3.2174 145.781 1.93599 147.017 1.61054C148.253 1.28509 149.529 2.03013 149.853 3.27076C152.752 14.2303 148.882 29.7884 144.079 39.6094C143.673 40.4654 142.823 40.9424 141.963 40.9255Z" fill="#010101"/> <path d="M116.901 84.9082C116.965 84.7449 117.191 84.7287 117.291 84.8747C118.626 86.7934 125.211 96.8585 117.819 98.6882C110.386 100.517 115.871 87.2742 116.901 84.9082Z" fill="#010101"/> <path d="M123.92 90.6002C123.318 90.9792 122.528 90.5112 122.583 89.8128C122.801 86.0115 123.981 77.045 130.161 79.5526C136.463 82.1037 127.53 88.326 123.92 90.6002Z" fill="#010101"/> </g> <defs> <clipPath id="clip0_944_15363"> <rect width="113.688" height="90.9504" fill="white" transform="translate(78.4966 117) rotate(59.663)"/> </clipPath> <clipPath id="clip1_944_15363"> <rect width="101.735" height="161.287" fill="white" transform="translate(69.1655) rotate(1.12461)"/> </clipPath> </defs> </svg>