<svg width="113" height="21" viewBox="0 0 113 21" fill="none" xmlns="http://www.w3.org/2000/svg">
<path fill-rule="evenodd" clip-rule="evenodd" d="M14.9443 20.6033L19.2415 7.66597V20.6033H25.6553V0.00630852H16.9969L12.8277 10.3048L8.65877 0.00630852H0V20.6033H6.4142V7.66597L10.7432 20.6033H14.9443ZM83.8738 12.5963C85.8747 12.4356 87.8697 11.0689 87.8697 8.82451V4.18997V3.73947C87.6375 1.4183 85.9021 0.165135 83.845 0H67.3454L67.3458 20.6033H73.7593V12.5963H76.3122L80.4808 20.6033H87.8568L82.8925 12.5963H83.8738ZM82.0974 7.25369C82.0974 7.69937 81.9869 8.0905 81.1896 8.0905H73.7593V4.04785H81.1992C82.1041 4.04785 82.0974 4.64196 82.0974 5.01305V7.25369ZM44.8972 4.06158V0.00630852H28.2209V20.6033L45.1183 20.5988L45.1246 16.5484H34.651L34.6521 12.1369H44.8972V8.09235H34.6521V4.06158H44.8972ZM52.9144 4.06158H46.8212V0.00630852H65.4215V4.06158H59.3279V20.6033H52.9144V4.06158ZM108.073 0.00630852H94.444C92.3958 0.172186 90.6663 1.21458 90.4352 3.5465V16.8701C90.6663 19.202 92.3958 20.4374 94.444 20.6033H108.073C110.121 20.4374 111.851 19.202 112.082 16.8701V3.5465C111.851 1.21458 110.121 0.172186 108.073 0.00630852ZM105.668 15.6277C105.638 15.8593 105.551 16.469 104.76 16.548H97.8142C97.0232 16.469 96.8786 15.8593 96.8491 15.6277V4.8661C96.8783 4.63417 96.9881 4.14025 97.7791 4.06158H104.763C105.555 4.14025 105.638 4.63417 105.668 4.8661V15.6277Z" fill="#272678"/>
</svg>
