<svg width="95" height="35" viewBox="0 0 95 35" fill="none" xmlns="http://www.w3.org/2000/svg">
<path fill-rule="evenodd" clip-rule="evenodd" d="M0 22.7182L24.0444 0H32.4319V34.2084H23.5644V29.2847H8.49643L17.2205 21.0506H23.698V12.2424L0 34.2084V22.7182Z" fill="#E2000B"/>
<path fill-rule="evenodd" clip-rule="evenodd" d="M34.3906 0H65.2391L56.7822 8.442H50.7254V34.2084H41.7192V8.442H34.3906V0Z" fill="#E2000B"/>
<path fill-rule="evenodd" clip-rule="evenodd" d="M59.5422 8.30839L67.9248 0H94.3692L85.9272 8.442H68.0485V25.9H78.6777C79.2312 25.9 79.7621 25.6809 80.1543 25.2904C80.5466 24.9 80.7683 24.3702 80.7709 23.8167V23.4852C80.7683 22.9318 80.5466 22.4019 80.1543 22.0115C79.7621 21.6211 79.2312 21.4019 78.6777 21.4019H69.8794V13.0935H82.1416C82.1416 13.0935 89.1535 14.578 89.1535 23.6534C89.1535 32.7288 82.1119 34.2084 82.1119 34.2084H59.5273L59.5422 8.30839Z" fill="#E2000B"/>
</svg>
