<svg width="129" height="51" viewBox="0 0 129 51" fill="none" xmlns="http://www.w3.org/2000/svg">
<path d="M53.3856 1.05442C47.6296 1.19447 43.6126 5.16841 41.7171 7.51426C41.7171 7.51426 41.6302 7.61927 41.5606 7.7068C41.4389 7.67179 41.3346 7.61927 41.3346 7.61927C37.3871 6.18378 32.9354 5.92119 28.449 6.83151C24.1364 7.72431 17.9283 9.96515 13.4418 13.6065C5.52961 20.0313 1.35613 27.7866 1.72131 35.4193C1.92998 39.831 3.94716 43.6649 7.56418 46.4659C13.494 51.07 23.2843 50.0197 27.2317 49.3544C31.6312 48.6016 100.615 36.1547 109.658 34.4215C117.901 32.8285 125.743 30.0274 127.308 20.2239C127.395 19.6462 127.447 19.051 127.447 18.4733V18.3857C127.447 15.9873 126.699 13.7465 125.413 12.2235C122.996 9.40496 118.944 9.07234 116.092 9.07234C112.162 9.05484 69.8534 9.87762 65.0365 9.96515C65.0365 9.96515 64.88 9.96515 64.7235 9.96515C64.7061 9.80759 64.6887 9.65004 64.6887 9.65004C64.4279 7.7068 63.6453 5.93869 62.4281 4.53818C60.9673 2.89259 58.2198 0.931877 53.3856 1.05442Z" fill="url(#paint0_linear_945_28029)"/>
<path d="M53.7231 0.279078C47.7639 0.417642 43.547 4.34942 41.5607 6.6877C37.5355 5.33669 33.0399 5.11152 28.5617 6.01219C24.1184 6.91287 17.7235 9.19917 13.0711 12.9404C4.88143 19.5049 0.577506 27.4724 0.943427 35.3706C1.16995 40.0471 3.33062 44.1001 7.19893 47.062C13.4719 51.8771 23.6305 50.8033 27.7079 50.1277C32.0293 49.4003 101.084 37.1026 110.319 35.3533C118.944 33.7251 127.151 30.7807 128.841 20.4576C128.946 19.8167 128.999 19.1932 128.999 18.5696C129.016 15.9196 128.179 13.4081 126.716 11.7107C124.015 8.59296 119.641 8.22923 116.592 8.22923C114.152 8.22923 96.6578 8.52368 65.9728 9.11257C65.6068 7.20732 64.7879 5.49258 63.5856 4.12425C61.9825 2.28827 58.968 0.140513 53.7231 0.279078ZM42.3447 7.91747C44.2092 5.63114 48.1472 1.78597 53.7754 1.6474C58.4801 1.52616 61.1461 3.41411 62.5575 5.0076C63.7424 6.34129 64.4916 8.02139 64.7356 9.87465L64.8053 10.4983L65.4326 10.4809C70.2592 10.3943 112.619 9.58021 116.592 9.59753C119.362 9.59753 123.335 9.92661 125.653 12.6113C126.89 14.049 127.604 16.1794 127.604 18.4657V18.5523C127.604 19.1239 127.552 19.6781 127.465 20.2324C125.931 29.7067 118.195 32.4434 110.057 33.985C100.997 35.6997 31.8725 48.0147 27.464 48.7594C23.5608 49.4176 13.8726 50.4395 8.03532 45.9708C4.49809 43.2688 2.52909 39.5795 2.31998 35.3013C1.97149 27.8535 6.08375 20.3017 13.9249 14.0143C18.3857 10.4463 24.5366 8.24655 28.8057 7.38052C33.249 6.47986 37.6401 6.73966 41.5258 8.14263L41.9963 8.31583L42.3447 7.91747Z" fill="#272678"/>
<path d="M123.536 19.6437L123.169 18.8029L123.047 18.5226C123.029 18.5051 123.012 18.47 122.977 18.47C122.942 18.4525 122.872 18.4525 122.785 18.5226L121.439 19.5386L121.474 18.978C121.561 17.8394 121.351 15.7898 120.39 14.8439C119.499 13.9679 118.24 13.565 116.72 13.6701C115.129 13.7927 113.434 14.3884 112.332 15.2993C110.69 16.6481 109.659 19.0306 109.659 19.0306C109.659 19.0306 109.746 18.2773 109.746 17.5941C109.746 16.473 109.448 15.5796 108.837 14.9665C108.121 14.1956 107.002 13.8803 105.551 13.9854C105.044 14.0205 103.768 14.4585 102.982 15.2468C103.052 15.0015 103.297 14.2132 103.297 14.2132L97.8436 14.4935L96.2881 15.6847L95.2918 20.1692C95.2918 20.1692 95.2217 19.994 95.1867 19.924C94.6451 18.7328 93.5787 17.6817 91.883 17.8394C90.9218 17.927 90.0305 18.2073 89.2269 18.6627L88.7196 18.9605L89.7685 14.6862L83.0919 14.949L81.0467 16.7357L81.519 14.984L74.1431 15.0541L73.811 16.2803L73.7935 16.2628L73.5139 15.8774C73.2342 15.492 72.7274 15.1592 72.3778 15.019C70.8048 14.3884 67.8685 14.9315 66.4702 16.1226C63.2368 18.8554 63.0969 23.445 62.9047 26.1603C62.7649 28.2099 62.5726 29.0332 62.3978 29.2084C62.4502 27.7369 61.6637 26.4931 60.8597 25.9501C59.7936 25.2319 58.273 25.2144 56.9621 25.6523C54.1657 26.5982 53.6238 28.1924 53.6238 28.1924L57.8011 15.8599C57.8011 15.8599 56.1407 15.9124 55.4416 15.9475C57.7312 15.3343 59.0945 13.7927 59.2168 11.6206V11.5155C59.2168 11.4805 59.2168 11.4454 59.2168 11.4279C59.2168 10.3418 58.7274 9.23816 57.871 8.4674C57.2243 7.88933 55.7561 7.27618 54.3054 7.25867C53.5189 7.25867 52.4877 7.41632 51.5264 7.69664C50.2505 8.0645 47.7511 9.46589 47.454 12.1812C47.3142 13.5125 47.5065 14.4059 48.1706 15.2468C48.4503 15.5971 49.062 16 49.8136 16.1577C48.8697 16.1927 48.1182 16.2102 48.0657 16.2102C47.9434 16.3153 46.8598 17.3313 46.7724 17.4014C46.6151 17.892 45.6013 21.2203 44.8848 23.0772C44.2556 24.7239 43.5215 26.3004 42.7175 27.7018C40.3579 31.8536 37.3342 34.5162 33.9959 35.4097C31.6014 36.0578 29.871 36.0053 28.4204 35.2695C26.9523 34.5337 25.9035 32.2915 25.921 29.9441C25.9385 27.4741 27.0222 24.2158 27.7563 22.7794C30.2905 17.7869 32.318 16.508 34.1357 15.8424C35.6388 15.2993 36.6875 15.4395 36.9147 15.5796C36.5477 15.8073 36.2506 15.965 36.2506 15.965C33.6638 17.4715 31.9335 19.9065 31.7412 22.359C31.6189 23.9005 32.0733 25.2844 33.0171 26.2654C33.9435 27.2288 35.3242 27.6843 36.8973 27.5266C40.4628 27.1938 43.8011 23.7253 44.0284 20.0991C44.1681 18.0496 43.6438 16.3854 42.4903 15.1241C40.5677 13.022 38.2955 12.2863 34.1357 12.3914C30.3255 12.4965 26.0434 13.9679 22.373 16.4379C19.2444 18.5401 15.0846 22.394 13.0746 28.7529C11.8861 32.5192 12.8474 37.3191 15.2769 39.684C18.5278 42.8372 22.6352 43.6605 29.0146 42.3992C33.3317 41.5408 37.5439 39.1059 41.529 35.1119L41.8785 34.7615L41.9485 35.252C42.0882 36.1104 42.3854 36.8286 42.8573 37.3891C43.6089 38.3176 45.147 39.3161 48.2406 38.8957C50.3029 38.6154 52.6625 37.5468 55.4416 35.6199L55.5813 35.5323L55.7212 35.6199C56.9272 36.4082 58.5701 37.1264 61.5588 36.4957L61.6113 36.4782C62.7299 36.2505 65.7012 35.6199 68.0607 32.2565C68.3753 31.801 68.6899 31.2579 69.022 30.5047L69.424 29.6113L69.4939 30.5923C69.5988 31.9587 69.791 32.9397 70.4727 33.6053C71.3116 34.4286 72.5701 34.7615 74.0208 34.5337C76.8344 34.0958 78.757 31.7485 79.9811 30.0317L80.2256 29.6989L80.4175 30.0667C81.4139 31.9762 84.0708 32.9046 87.1992 32.4317C90.1707 31.9762 91.6561 30.5923 92.9319 29.0507L93.1765 28.7354L92.5998 31.1003L100.29 29.8916L101.689 24.1107C101.689 24.1107 101.654 25.6698 101.828 26.5106C102.003 27.3515 102.353 28.0522 102.685 28.3851C103.436 29.1208 104.695 29.2609 105.499 29.1383C106.74 28.9456 108.575 28.3851 110.27 25.8275L110.532 25.4246L110.708 25.8625C111.249 27.1588 113.242 28.0171 115.077 27.7193C117.559 27.3164 119.429 25.8975 120.495 23.6202L120.548 23.5151L120.652 23.4801C121.928 23.0772 123.169 21.7458 123.518 20.3619C123.536 20.2218 123.606 19.8889 123.536 19.6437ZM80.9942 16.8934C81.0117 16.8408 81.0292 16.7883 81.0292 16.7357C81.0292 16.7533 81.0292 16.8058 80.9942 16.8934Z" fill="white"/>
<path d="M122.458 19.6215C122.109 20.3784 121.393 21.1525 120.765 21.2557L120.486 21.3245C120.486 21.3245 120.747 19.6559 120.747 19.1569C120.8 16.869 120.259 14.4778 116.628 14.667C114.412 14.7874 111.165 16.697 110.659 20.8084V20.8256V20.8428C110.659 20.86 110.642 20.8944 110.642 20.9288C110.083 22.3566 109.071 24.3694 108.355 24.4554C108.199 24.4726 108.059 24.421 107.954 24.3178C107.814 24.1974 107.744 23.9909 107.762 23.7329C107.779 23.2856 107.954 22.6147 108.164 21.7374C108.46 20.5848 108.704 19.501 108.827 18.2968C109.089 15.4927 107.343 14.9422 105.545 15.0799C104.219 15.1831 102.98 15.9572 102.63 16.3529L101.985 17.0754C101.985 17.0754 102.281 15.6991 102.369 15.3207C101.845 15.3379 98.6507 15.4411 98.319 15.4583L96.8882 21.1525C96.3991 21.8062 95.7016 22.3394 95.125 22.4943L94.8458 22.5631L94.8108 22.2706C94.7766 21.9782 94.7416 21.7029 94.6716 21.4105C94.5842 20.774 94.0258 18.5892 91.8617 18.7613C86.2937 19.2257 86.4511 26.0208 89.7844 25.0575L90.1685 24.9371L90.0985 25.3499C89.6627 28.0508 88.4753 29.4786 86.887 29.6851C86.6428 29.7195 86.4161 29.6507 86.2412 29.4787C85.962 29.2206 85.8053 28.7217 85.8228 28.1368C85.8578 26.8122 88.5277 15.768 88.5277 15.768C88.5277 15.768 83.7104 15.94 83.3613 15.9572C83.1171 16.9722 82.0522 21.3589 82.0347 21.3761L81.878 21.961C81.6688 22.7007 81.5289 23.1996 81.4414 23.7157V23.7329V23.7501C81.4239 23.7845 81.4239 23.8189 81.4064 23.8361C80.6039 25.9176 79.1723 28.1712 78.0907 28.2916C77.8807 28.3088 77.689 28.2572 77.5498 28.1196C77.3924 27.982 77.3049 27.7584 77.3224 27.5003V27.4831L77.4099 26.5714C77.4099 26.5714 80.1673 16.6798 80.3422 16.026C79.7314 16.0432 74.4427 16.1465 74.4427 16.1465L73.9191 17.9527C73.7794 16.4905 70.6378 14.5122 68.2816 16.611C65.7857 18.8301 65.105 22.1502 64.721 25.4187C64.721 25.4187 64.6861 25.5392 64.6861 25.5564C64.1625 29.4958 63.2374 32.1967 60.4448 32.5579C59.8165 32.6439 59.2405 32.6095 58.8391 32.3687C59.799 31.6462 60.3925 31.0613 60.8462 30.3044C61.876 28.6185 61.4048 27.1391 60.3401 26.4338C58.1758 25.0403 55.8196 26.7434 55.4007 28.9109C55.1389 30.2356 55.6101 31.3537 56.029 32.0074C55.2785 32.4203 54.6851 32.8848 53.6553 33.0225C53.0444 33.1085 52.4336 32.7987 52.2416 32.5235C51.6307 31.6978 52.451 29.0657 52.5732 28.7217C52.5732 28.7217 56.3956 17.5227 56.6225 16.8346C55.9592 16.869 48.9254 17.0926 48.5763 17.1098C48.3319 17.8151 47.4418 20.5504 46.5342 23.0792C44.7365 28.0164 39.5003 34.7771 34.1246 36.1361C31.2622 36.8759 29.0281 36.7383 27.5969 35.8781C25.6595 34.7083 24.56 31.887 25.3104 27.9476C25.8341 25.1607 26.3053 24.1286 27.0559 22.5459C31.5589 13.1016 38.8022 15.2347 38.3484 15.9572C37.6153 16.1981 36.9695 16.5765 36.9695 16.5765C35.8176 17.1786 33.9501 18.9677 33.8802 21.1869C33.8279 22.6147 34.2293 23.7673 35.0147 24.5242C35.7827 25.2639 36.9172 25.608 38.1913 25.4876C41.0537 25.2295 43.3751 23.1136 43.4798 19.9655C43.5322 18.2624 43.0609 16.869 42.0486 15.8368C40.4428 14.1853 38.5578 13.3596 34.369 13.48C27.9111 13.6521 18.0497 18.228 15.2222 28.3432C14.2622 31.7666 15.5189 35.8781 17.5959 37.7532C20.4758 40.3508 24.0538 41.3142 30.3196 40.1444C35.9048 39.1122 40.4777 35.362 43.8463 31.4226C43.8463 31.4914 43.8463 31.543 43.8288 31.6118C43.0434 34.5019 44.1256 37.5812 49.0126 36.9619C51.0547 36.7038 54.6501 35.5512 57.1635 33.6245C58.3155 34.6223 60.3052 35.19 62.5741 34.8631C63.4992 34.7255 65.8903 34.1062 67.9673 31.1473C69.6254 28.8077 70.4458 24.2662 70.8996 21.8062C71.109 20.6708 71.2487 19.9139 71.4232 19.587C71.5803 19.2945 71.7199 18.9333 72.1562 18.7441C73.029 18.3828 73.4828 19.2257 73.3082 19.8451C73.1337 20.4644 72.2261 23.6125 72.2261 23.6125L72.0515 24.1114C71.5104 25.6424 70.917 27.3799 70.8647 29.2034C70.8298 30.5452 71.1789 31.6118 71.8944 32.2655C72.5577 32.8676 73.5002 33.1085 74.6172 32.9536C77.689 32.5063 79.8881 29.4442 80.918 27.6379L81.058 27.3799L81.2672 27.0187L81.3897 27.6895C81.878 30.3732 84.0246 31.4398 87.2361 30.9753C91.4076 30.3732 93.9209 28.24 94.6891 24.5242L94.7241 24.3694L94.8633 24.3178C95.2475 24.1802 95.6316 23.9737 96.0157 23.7329L96.3299 23.5265L94.8458 29.4614C95.4399 29.3754 99.349 28.7217 99.6631 28.6873C99.7506 28.326 101.461 21.1181 101.461 21.1181C101.758 19.8623 102.578 17.4883 103.52 17.4367C103.695 17.4195 103.87 17.4883 104.01 17.6431C104.219 17.8495 104.324 18.1936 104.324 18.5892C104.306 19.3806 104.061 20.2579 103.765 21.2729C103.416 22.4943 103.05 24.0081 102.91 25.4876C102.683 27.9992 104.812 27.982 105.458 27.8788C106.976 27.6551 108.984 26.881 110.694 23.1652L110.781 23.5609C111.218 25.6252 113.085 26.8466 115.04 26.537C117.449 26.1757 119.089 24.8855 119.997 22.7524L120.066 22.6147L120.206 22.5975C121.149 22.4943 122.458 21.4105 122.79 20.1547C122.65 20.1031 122.632 19.8451 122.458 19.6215ZM58.5947 27.5347C59.4499 27.5691 59.799 28.1024 59.3278 29.1346C59.0834 29.6507 58.4202 30.4248 57.53 31.0785C56.4305 29.3926 57.4951 27.4831 58.5947 27.5347ZM90.6051 23.0276C90.4477 23.2512 90.0985 23.4061 89.5402 23.4921C88.9644 23.5953 88.8244 23.2856 88.8069 23.148C88.6852 22.6491 89.226 21.8578 89.7144 21.6341C89.9943 21.5137 90.3085 21.5653 90.3952 21.6685C90.7968 22.133 90.6051 23.0276 90.6051 23.0276ZM117.152 22.7868C116.803 23.8189 116.332 24.9199 115.407 25.0403C115.092 25.0747 114.831 25.0059 114.621 24.8339C114.307 24.5586 114.167 24.3006 114.202 23.3545C114.255 21.1525 115.424 15.6647 116.995 15.5959C117.204 15.5787 117.414 15.6647 117.571 15.8368C117.902 16.1981 118.042 16.8862 117.937 17.7119L117.92 17.8151C117.92 17.8151 116.262 17.8839 116.087 20.3096C115.982 21.7718 117.222 22.4599 117.222 22.4599L117.152 22.7868ZM117.588 21.1697C117.047 20.8428 117.082 19.8795 117.362 19.5182C117.501 19.3289 117.728 19.3117 117.85 19.3805C117.832 19.9827 117.797 20.4988 117.588 21.1697Z" fill="#272678"/>
<path d="M53.7459 15.7899C55.9857 15.678 58.1767 14.5215 58.3552 11.8541C58.4688 10.0635 57.284 8.21683 54.8171 8.04896C53.4537 7.9557 52.204 8.32874 51.3114 9.11215C50.6297 9.70911 50.159 10.5112 49.948 11.5371C49.7046 12.6935 49.8182 13.6635 50.3051 14.4096C50.9544 15.3609 52.1878 15.8645 53.7459 15.7899Z" fill="#272678"/>
<defs>
<linearGradient id="paint0_linear_945_28029" x1="64.5733" y1="1.04895" x2="64.5733" y2="49.9511" gradientUnits="userSpaceOnUse">
<stop offset="0.104733" stop-color="#DF6E09"/>
<stop offset="0.912658" stop-color="#F29501"/>
</linearGradient>
</defs>
</svg>
