<svg width="286" height="180" viewBox="0 0 286 180" fill="none" xmlns="http://www.w3.org/2000/svg">
<path d="M56.6842 153.891H0V127.034L53.985 0H86.376V127.034H100.412V153.891H86.376V188H56.6842V153.891ZM56.6842 127.034V53.7143H56.1444L26.9925 127.034H56.6842Z" fill="#E62856"/>
<path d="M242.272 153.891H185.588V127.034L239.573 0H271.964V127.034H286V153.891H271.964V188H242.272V153.891ZM242.272 127.034V53.7143H241.732L212.58 127.034H242.272Z" fill="#E62856"/>
<path d="M210.046 201.215C191.872 161.355 158.413 184.227 158.413 184.227C161.874 200.024 179.832 221.623 210.046 201.215Z" fill="#41A935"/>
<path d="M194.211 230.864C189.556 183.328 167.456 182.496 167.456 182.496C165.429 201.369 171.257 235.448 194.211 230.864Z" fill="#009640"/>
<path d="M210.145 165.489C187.132 155.569 163.121 190.825 163.121 190.825C168.141 200.9 187.281 204.008 210.145 165.489Z" fill="#009640"/>
<path d="M140.024 225.823C110.736 217.627 92.626 184.951 97.1587 167.899C100.805 154.248 132.398 136.49 161.671 144.691C190.944 152.891 191.226 168.926 184.954 191.234C178.682 213.541 169.297 234.023 140.024 225.823Z" fill="#E20E17"/>
<path d="M156.216 192.21C151.051 191.704 131.507 181.634 133.661 177.015C135.676 172.735 154.671 176.215 159.5 178.346C163.433 180.124 166.448 183.45 165.739 187.154C165.03 190.858 160.509 192.648 156.216 192.21Z" fill="#E84252"/>
<path d="M167.198 211.261C167.793 210.607 168.19 209.798 168.344 208.928C168.497 208.057 168.4 207.162 168.064 206.344C167.729 205.527 167.168 204.822 166.447 204.31C165.726 203.799 164.875 203.502 163.992 203.454L163.902 203.483C162.836 203.427 161.771 203.618 160.79 204.039C159.809 204.46 158.937 205.1 158.242 205.911C157.969 206.39 157.69 206.853 157.392 207.307C155.668 210.025 153.782 212.337 152.528 211.836C151.636 211.498 151.187 209.924 151.031 207.882C150.943 206.391 150.962 204.894 151.087 203.405C150.989 202.411 150.752 201.436 150.382 200.508C150.065 199.807 149.531 199.226 148.859 198.85C148.187 198.475 147.412 198.325 146.647 198.422C143.789 198.791 141.02 199.667 138.47 201.01C134.96 202.839 131.038 204.456 129.972 203.307C128.905 202.158 130.444 199.269 132.462 196.344C133.417 194.817 133.99 193.083 134.135 191.289C132.849 190.585 131.573 189.862 130.327 189.129C127.375 188.691 123.186 188.481 120.904 188.402C120.392 188.385 119.884 188.382 119.381 188.345L119.262 188.383C116.779 188.237 114.74 187.788 114.544 186.706C114.349 185.625 116.367 183.679 118.987 182.033C118.987 182.033 119.112 181.912 119.268 181.732C113.944 177.519 110.79 173.551 112.117 170.713C113.444 167.876 118.775 166.891 125.797 166.907C125.837 166.589 125.829 166.267 125.773 165.951C124.625 163.047 124.034 160.457 125.015 159.575C126.29 158.436 130.041 161.088 133.133 163.622C135.372 165.266 137.735 166.735 140.2 168.018C141.238 168.147 142.267 168.295 143.315 168.454C144.863 167.507 145.097 164.214 145.097 164.214C145.151 160.146 145.745 155.923 147.302 155.675C148.859 155.427 151.932 160.744 153.635 164.78C156.214 169.829 158.062 171.122 158.772 171.453L159.214 171.558C160.115 171.465 160.986 171.186 161.774 170.74C162.562 170.294 163.249 169.69 163.792 168.966C164.469 167.902 165.21 166.884 165.926 165.889C167.627 163.717 169.359 162.108 170.507 162.43C171.656 162.753 171.889 165.505 171.688 168.591L171.638 169.26C171.529 171.19 171.721 176.553 176.715 176.982C177.778 176.717 178.717 176.095 179.376 175.22C180.034 174.346 180.372 173.272 180.331 172.178C179.996 162.384 174.553 155.056 158.562 150.576C134.532 143.853 108.601 158.414 105.605 169.621C101.859 183.63 116.737 210.435 140.771 217.173C153.457 220.511 161.581 217.548 167.198 211.261Z" fill="#E84252"/>
<path d="M143.328 94.7499C143.212 94.7499 143.155 94.7499 143.039 94.6923C142.693 94.5193 142.521 94.1159 142.693 93.77C142.693 93.77 143.558 91.7527 142.463 90.0812C142.059 89.5048 141.541 89.2742 140.907 88.9861C140.157 88.6402 139.35 88.2368 138.659 87.3722C137.967 86.45 137.852 85.5278 137.679 84.6632C137.448 83.2222 137.275 82.3577 134.855 82.0118C134.451 81.9542 134.221 81.6084 134.278 81.2049C134.336 80.8014 134.682 80.5709 135.085 80.6285C138.544 81.1473 138.832 82.8764 139.062 84.4326C139.178 85.1819 139.293 85.8736 139.754 86.5076C140.215 87.1416 140.791 87.4298 141.483 87.718C142.175 88.0638 142.982 88.4097 143.558 89.2742C145.114 91.5798 143.962 94.1735 143.904 94.2888C143.846 94.6346 143.616 94.7499 143.328 94.7499Z" fill="black"/>
<path d="M151.872 92.2136C151.641 92.2136 151.468 92.0983 151.353 91.9254C151.295 91.8101 149.22 89.1588 149.566 86.3345C149.681 85.2394 150.258 84.4901 150.777 83.7984C151.238 83.1644 151.699 82.588 151.814 81.7811C151.929 80.8589 151.756 80.0519 151.526 79.245C151.122 77.6888 150.661 75.8444 153.313 74.2881C153.659 74.1152 154.062 74.1729 154.235 74.5187C154.408 74.8645 154.35 75.268 154.004 75.4409C152.218 76.536 152.448 77.343 152.852 78.8992C153.082 79.8214 153.313 80.8013 153.14 82.0117C152.967 83.2221 152.333 83.9714 151.814 84.663C151.353 85.2394 150.95 85.7582 150.834 86.5075C150.546 88.7553 152.333 91.0609 152.333 91.1185C152.563 91.4067 152.506 91.8678 152.218 92.0984C152.16 92.2136 152.045 92.2136 151.872 92.2136Z" fill="black"/>
<path d="M179.655 142.416C177.465 141.437 174.007 140.976 169.107 137.633C161.73 132.618 159.194 120.11 161.614 113.886C162.94 110.543 164.323 105.643 162.479 99.5913C160.692 93.7698 158.041 91.2337 153.603 90.1962C148.473 88.9282 143.747 91.4067 142.248 96.5941C141.153 100.456 142.017 104.087 144.438 108.352C146.571 112.099 148.761 114.52 149.28 120.572C151.355 142.82 119.077 145.932 99.0769 147.431C97.9818 147.489 97.4054 148.814 98.27 149.506C100.057 151.12 104.725 152.964 111.066 152.618C122.19 152.042 122.478 150.428 131.354 149.621C140.115 148.872 142.94 150.428 154.179 149.621C164.323 148.93 175.159 146.797 179.252 145.932C180.174 145.759 180.808 144.895 180.75 143.973C180.75 143.339 180.289 142.705 179.655 142.416Z" fill="#8CC800"/>
<path d="M109.629 153.425C104.096 153.425 99.7729 151.811 97.8132 150.082C97.2368 149.564 97.0062 148.814 97.2368 148.123C97.4673 147.373 98.2166 146.855 99.0236 146.797C111.819 145.875 135.681 144.088 144.846 133.252C147.785 129.794 149.054 125.586 148.592 120.687C148.131 115.903 146.69 113.482 144.961 110.658C144.615 110.024 144.212 109.447 143.808 108.756C141.157 104.087 140.465 100.283 141.503 96.4787C143.059 91.0607 148.074 88.1788 153.665 89.5621C158.506 90.7149 161.215 93.5968 163.002 99.4183C164.962 105.643 163.463 110.831 162.137 114.174C159.947 119.765 162.08 132.157 169.342 137.114C172.8 139.477 175.625 140.399 177.642 141.091C178.449 141.379 179.141 141.609 179.775 141.84C180.697 142.243 181.273 143.108 181.331 144.088C181.389 145.356 180.524 146.451 179.314 146.739C175.164 147.604 164.385 149.736 154.183 150.428C148.362 150.832 144.731 150.601 141.503 150.428C138.448 150.255 135.566 150.082 131.359 150.428C127.497 150.774 125.307 151.235 123.001 151.754C120.177 152.388 117.237 153.079 111.012 153.368C110.609 153.368 110.148 153.425 109.629 153.425ZM151.013 90.5996C147.209 90.5996 144.039 92.9628 142.944 96.8245C141.964 100.34 142.598 103.683 145.077 108.064C145.48 108.698 145.826 109.332 146.172 109.908C147.901 112.733 149.515 115.384 150.033 120.514C150.494 125.759 149.169 130.312 145.999 134.059C136.488 145.356 112.223 147.143 99.1965 148.065C98.8507 148.065 98.6777 148.295 98.6201 148.468C98.5625 148.584 98.5625 148.757 98.793 148.93C100.637 150.543 105.306 152.157 111.128 151.869C117.237 151.581 120.119 150.889 122.886 150.255C125.134 149.736 127.439 149.218 131.416 148.872C135.739 148.468 138.621 148.699 141.733 148.872C145.077 149.102 148.535 149.275 154.241 148.872C164.385 148.18 175.048 146.048 179.198 145.183C179.775 145.068 180.178 144.549 180.121 143.973C180.121 143.512 179.832 143.108 179.429 142.935C178.852 142.705 178.218 142.474 177.412 142.186C175.279 141.494 172.397 140.514 168.766 138.036C160.812 132.676 158.621 119.649 161.042 113.482C162.368 110.081 163.636 105.413 161.849 99.6488C160.178 94.2885 157.815 91.7524 153.492 90.7149C152.569 90.7149 151.82 90.5996 151.013 90.5996Z" fill="black"/>
<path d="M144.543 101.148C144.543 101.148 147.54 108.525 154.918 105.528C163.333 102.07 160.393 94.8075 160.393 94.7499L144.543 101.148Z" fill="black"/>
<path d="M145.653 60.2243C149.687 55.8437 157.065 57.5153 158.91 62.7603C161.33 69.5617 154.875 74.9797 148.823 72.9623C143.29 71.2908 141.56 64.086 145.653 60.2243Z" fill="white"/>
<path d="M151.403 73.8271C150.48 73.8271 149.558 73.6542 148.636 73.366C145.869 72.559 143.852 70.3111 143.16 67.4869C142.469 64.6626 143.276 61.8383 145.351 59.9362C147.31 57.8036 150.25 56.8814 153.189 57.4578C156.129 58.0342 158.434 59.9939 159.357 62.6452C160.452 65.8153 159.818 69.0431 157.57 71.3486C155.898 72.9049 153.708 73.8271 151.403 73.8271ZM151.403 58.1495C149.328 58.1495 147.368 58.9564 145.985 60.5126C144.198 62.1841 143.448 64.7202 144.083 67.1987C144.717 69.7348 146.503 71.6944 148.982 72.4437C151.748 73.3659 154.861 72.6743 156.936 70.5993C158.953 68.5243 159.53 65.7577 158.492 62.8758C157.685 60.5126 155.61 58.8411 153.016 58.2648C152.44 58.2071 151.921 58.1495 151.403 58.1495Z" fill="black"/>
<path d="M119.247 61.4351C122.475 52.3859 134.579 49.8499 141.092 56.5359C148.816 64.49 143.398 78.669 131.928 79.0724C122.245 79.4183 115.962 69.7927 119.247 61.4351Z" fill="white"/>
<path d="M131.294 79.5336C126.913 79.5336 122.994 77.5163 120.458 73.9427C117.806 70.1963 117.172 65.4699 118.786 61.2623C120.342 56.8818 124.089 53.6541 128.815 52.6166C133.484 51.5791 138.21 52.9624 141.38 56.1901C145.127 60.0519 146.164 65.6428 144.032 70.8879C141.957 76.0177 137.288 79.3607 131.87 79.5336C131.697 79.5336 131.524 79.5336 131.294 79.5336ZM131.928 53.193C130.948 53.193 130.026 53.3083 129.046 53.4812C124.665 54.461 121.149 57.4582 119.708 61.5505C118.21 65.4699 118.786 69.8504 121.265 73.3664C123.743 76.8247 127.605 78.7267 131.928 78.5538C136.942 78.3809 141.323 75.3261 143.225 70.4845C145.185 65.6428 144.262 60.3978 140.746 56.8242C138.441 54.5187 135.271 53.193 131.928 53.193Z" fill="black"/>
<path d="M131.354 46.2185C126.973 47.1983 124.034 50.6566 123.227 52.674C123.169 52.7892 122.535 52.5587 122.535 52.3858C122.708 49.9073 125.705 44.7775 130.777 43.5671C131.469 43.4519 131.93 46.1032 131.354 46.2185Z" fill="black"/>
<path d="M141.258 51.1753C144.717 51.4059 147.368 53.6538 148.233 55.0947C148.29 55.1524 148.751 54.9218 148.694 54.8065C148.29 52.9045 145.351 49.3885 141.374 49.1003C140.797 49.1003 140.797 51.1177 141.258 51.1753Z" fill="black"/>
<path d="M143.803 117.69C149.452 126.047 146.628 134.578 142.247 138.036C141.037 138.958 136.195 141.264 136.195 141.264C136.195 141.264 133.198 143.685 126.8 144.722C122.131 145.471 117.693 143.973 113.37 140.169C108.413 135.731 104.263 122.301 115.503 113.655C124.956 106.508 137.636 108.525 143.803 117.69Z" fill="#E62828"/>
<path d="M139.536 117.92C139.363 117.92 139.19 117.862 139.018 117.69C135.847 114.404 131.409 112.79 126.452 113.136C126.049 113.194 125.761 112.906 125.703 112.502C125.703 112.099 125.934 111.81 126.337 111.753C131.698 111.349 136.597 113.136 139.997 116.71C140.286 116.998 140.228 117.401 139.997 117.69C139.882 117.862 139.709 117.92 139.536 117.92Z" fill="#FF5A5A"/>
<path d="M115.322 119.419C115.092 119.419 114.919 119.303 114.746 119.131C112.555 115.96 109.385 114.231 105.812 114.231H105.754C105.351 114.231 105.062 113.943 105.062 113.54C105.062 113.136 105.351 112.848 105.754 112.848H105.812C109.846 112.848 113.42 114.808 115.898 118.324C116.129 118.612 116.014 119.073 115.726 119.303C115.61 119.419 115.495 119.419 115.322 119.419Z" fill="black"/>
<path d="M124.725 145.471C120.344 145.471 115.445 143.973 111.41 138.901C108.298 134.924 107.03 130.024 107.894 125.01C108.816 119.707 112.044 114.981 116.713 112.041C123.687 107.661 134.869 107.2 141.497 114.059C146.339 119.073 149.912 128.007 144.033 136.71C143.803 136.999 143.399 137.114 143.054 136.883C142.765 136.653 142.65 136.249 142.881 135.903C148.299 127.892 145.186 119.822 140.517 114.981C134.408 108.64 124.033 109.102 117.462 113.194C113.082 115.903 110.084 120.283 109.22 125.183C108.413 129.794 109.566 134.347 112.448 137.978C118.845 145.99 127.664 144.319 132.333 142.589C138.154 140.457 140.172 133.944 139.192 128.583C138.385 124.03 135.099 119.188 128.471 119.188H128.413C123.457 119.188 119.422 123.742 119.191 127.661C119.076 130.197 120.575 132.906 122.938 134.232C124.206 134.981 126.857 135.846 129.912 133.771C131.007 133.021 131.756 131.811 131.987 130.428C132.16 129.217 131.814 128.007 131.122 127.142C130.2 126.047 129.047 125.644 127.952 126.047C126.915 126.393 126.223 127.315 126.223 128.295C126.223 128.699 125.877 128.987 125.532 128.987C125.128 128.987 124.84 128.641 124.84 128.295C124.898 126.739 125.993 125.298 127.549 124.779C129.22 124.203 130.95 124.779 132.275 126.278C133.255 127.431 133.659 129.044 133.486 130.658C133.255 132.387 132.275 133.944 130.834 134.924C128.125 136.768 125.07 136.941 122.419 135.442C119.595 133.828 117.808 130.716 117.981 127.603C118.211 122.992 122.823 117.863 128.586 117.805H128.644C134.811 117.805 139.595 121.955 140.748 128.353C141.843 134.232 139.48 141.494 132.967 143.915C130.777 144.664 127.895 145.471 124.725 145.471Z" fill="black"/>
<path fill-rule="evenodd" clip-rule="evenodd" d="M120.863 109.966C122.419 105.759 120.286 100.744 119.94 100.802C119.479 100.917 115.675 102.358 113.254 104.836C110.315 107.834 109.854 112.099 112.966 113.136C117.289 114.635 119.71 113.021 120.863 109.966Z" fill="#B4E100"/>
<path d="M115.967 114.174C115.045 114.174 114.008 114.001 112.797 113.597C111.587 113.194 110.78 112.272 110.492 111.061C110.031 109.102 111.011 106.508 112.913 104.548C115.391 102.012 119.368 100.514 119.772 100.398C119.887 100.398 120.117 100.341 120.348 100.571C120.982 101.263 122.769 106.047 121.27 110.139C120.578 112.099 119.022 114.174 115.967 114.174ZM119.829 101.32C118.849 101.666 115.679 103.05 113.604 105.125C111.875 106.854 111.011 109.159 111.414 110.831C111.645 111.753 112.221 112.387 113.143 112.733C116.774 114.001 119.253 113.021 120.463 109.851C121.731 106.277 120.29 102.243 119.829 101.32Z" fill="black"/>
<path d="M127.189 120.572C126.959 120.572 126.786 120.456 126.728 120.226C126.613 119.822 126.497 119.361 126.382 118.9C126.094 117.805 125.806 116.537 125.46 115.672C125.402 115.442 125.518 115.154 125.748 115.096C125.979 115.038 126.267 115.154 126.325 115.384C126.67 116.307 126.959 117.575 127.247 118.727C127.362 119.188 127.477 119.65 127.593 120.053C127.65 120.284 127.535 120.572 127.247 120.629C127.247 120.572 127.189 120.572 127.189 120.572Z" fill="black"/>
<path d="M123.971 121.609C123.798 121.609 123.625 121.552 123.567 121.379C123.106 120.572 122.126 119.073 121.55 118.439C121.377 118.266 121.434 117.978 121.607 117.805C121.78 117.632 122.068 117.69 122.241 117.863C122.818 118.554 123.855 120.111 124.316 120.975C124.432 121.206 124.374 121.494 124.143 121.609C124.143 121.552 124.086 121.609 123.971 121.609Z" fill="black"/>
<path d="M136.938 124.664C136.765 124.664 136.649 124.606 136.534 124.433C136.419 124.203 136.477 123.915 136.707 123.799C137.284 123.454 138.09 122.935 138.897 122.416C139.704 121.897 140.511 121.379 141.088 121.033C141.318 120.917 141.606 120.975 141.722 121.206C141.837 121.436 141.779 121.724 141.549 121.84C140.972 122.186 140.165 122.704 139.358 123.223C138.552 123.742 137.745 124.26 137.168 124.606C137.053 124.606 136.995 124.664 136.938 124.664Z" fill="black"/>
<path d="M114.179 110.946C114.122 110.946 114.064 110.946 114.006 110.889C113.776 110.773 113.66 110.543 113.776 110.312C113.833 110.139 115.447 106.277 117.695 104.087C117.868 103.914 118.156 103.914 118.329 104.087C118.502 104.26 118.502 104.548 118.329 104.721C116.254 106.796 114.64 110.6 114.64 110.6C114.525 110.831 114.352 110.946 114.179 110.946Z" fill="black"/>
<g opacity="0.6">
<g opacity="0.6">
<g opacity="0.6">
<path opacity="0.6" d="M153.605 93.6546C153.49 93.6546 153.374 93.6546 153.317 93.597C152.395 93.1359 151.3 92.963 150.32 93.1935C149.916 93.2512 149.57 93.0206 149.513 92.6748C149.455 92.2713 149.686 91.9255 150.031 91.8678C151.357 91.6373 152.74 91.8102 153.951 92.3866C154.297 92.5595 154.412 92.963 154.239 93.3088C154.066 93.5394 153.836 93.6546 153.605 93.6546Z" fill="#B4E100"/>
</g>
</g>
</g>
<path d="M133.429 123.972C133.257 123.972 133.084 123.915 132.968 123.799C132.161 122.992 130.72 122.474 129.395 122.474C128.991 122.474 128.703 122.185 128.703 121.782C128.703 121.379 128.991 121.09 129.395 121.09C131.066 121.09 132.853 121.782 133.948 122.819C134.236 123.108 134.236 123.511 133.948 123.799C133.833 123.915 133.66 123.972 133.429 123.972Z" fill="#FF5A5A"/>
<path d="M136.364 130.197C136.248 130.197 136.191 130.197 136.075 130.14C136.018 130.082 135.902 130.082 135.845 129.967C135.73 129.852 135.672 129.679 135.672 129.506C135.672 129.333 135.73 129.16 135.845 128.987C136.075 128.699 136.536 128.699 136.825 128.987C136.882 128.987 136.882 129.045 136.882 129.102C136.882 129.16 136.94 129.16 136.94 129.218C136.94 129.275 136.998 129.275 136.998 129.333C136.998 129.39 136.998 129.448 136.998 129.448C136.998 129.621 136.94 129.794 136.767 129.909C136.709 129.967 136.652 130.024 136.536 130.082C136.536 130.14 136.421 130.197 136.364 130.197Z" fill="black"/>
<path d="M135.62 142.244C135.447 142.244 135.274 142.186 135.101 142.013C134.813 141.725 134.871 141.321 135.101 141.033C136.888 139.362 138.156 138.843 139.309 138.44C140.519 137.978 141.442 137.633 142.883 135.846C143.113 135.558 143.574 135.5 143.862 135.731C144.151 135.961 144.208 136.422 143.978 136.71C142.364 138.843 141.096 139.304 139.828 139.765C138.79 140.169 137.695 140.572 136.139 142.071C135.966 142.186 135.793 142.244 135.62 142.244Z" fill="black"/>
<path d="M173.539 143.915C173.481 143.915 173.423 143.915 173.366 143.915C170.426 143.051 168.063 141.898 166.622 140.688C166.334 140.457 166.276 139.996 166.564 139.708C166.795 139.419 167.256 139.362 167.544 139.65C168.812 140.745 171.06 141.783 173.769 142.59C174.115 142.705 174.346 143.108 174.23 143.454C174.115 143.685 173.885 143.915 173.539 143.915Z" fill="#B4E100"/>
<path d="M154.285 105.701C159.646 104.203 158.781 102.3 158.781 102.3C158.147 101.378 156.36 100.629 155.092 101.148C154.689 101.321 154.17 101.551 153.997 102.012C153.882 102.243 153.824 102.416 153.248 102.416C152.844 102.416 152.383 102.416 152.038 102.531C151.288 102.762 149.559 103.626 150.77 105.644C150.885 106.162 151.749 106.162 151.807 106.22C152.038 106.105 153.594 105.932 154.285 105.701Z" fill="#E62828"/>
<path d="M159.71 101.551C158.327 101.897 156.886 102.358 155.387 102.877C152.966 103.741 150.718 104.664 148.816 105.643C150.43 106.393 152.448 106.508 154.926 105.528C157.404 104.491 158.903 103.107 159.71 101.551Z" fill="white"/>
<path d="M160.802 96.5941C160.571 95.6718 160.629 95.2107 160.341 94.4614C160.341 94.4614 160.341 94.4614 160.341 94.4038L144.836 101.147C144.836 101.147 144.836 101.147 144.836 101.205C145.009 101.724 145.239 102.3 145.47 102.934C147.66 102.531 150.196 101.782 152.79 100.744C157.459 98.9572 159.649 97.5739 160.802 96.5941Z" fill="white"/>
<path d="M148.813 106.047C148.64 106.047 148.525 105.989 148.41 105.816C148.294 105.586 148.41 105.355 148.583 105.24C148.64 105.24 154.289 102.416 159.361 101.205C159.591 101.148 159.822 101.263 159.88 101.493C159.937 101.724 159.822 101.955 159.591 102.012C154.577 103.223 149.044 105.932 148.986 105.989C148.928 106.047 148.871 106.047 148.813 106.047Z" fill="black"/>
<path d="M151.592 106.624C146.462 106.624 144.214 101.321 144.157 101.263C144.099 101.148 144.099 101.033 144.157 100.917C144.214 100.802 144.272 100.744 144.387 100.687L160.238 94.289C160.468 94.2313 160.699 94.289 160.756 94.5195C160.756 94.5772 162.024 97.632 160.699 100.802C159.776 102.992 157.874 104.664 155.108 105.817C153.782 106.393 152.629 106.624 151.592 106.624ZM145.079 101.378C145.828 102.819 148.71 107.603 154.762 105.125C161.679 102.301 160.583 96.8251 160.122 95.3265L145.079 101.378Z" fill="black"/>
<path d="M112.561 124.376C112.504 124.376 112.446 124.376 112.446 124.376C112.215 124.318 112.043 124.03 112.158 123.799C113.483 119.649 116.711 117.056 117.864 116.364C118.095 116.249 118.383 116.306 118.498 116.537C118.613 116.767 118.556 117.056 118.325 117.171C117.345 117.747 114.29 120.226 113.08 124.088C112.965 124.26 112.792 124.376 112.561 124.376Z" fill="black"/>
<path d="M136.133 71.2909C137.286 74.4034 133.827 78.6686 128.928 77.3429C124.605 76.1325 125.355 70.9451 127.314 69.3889C132.675 65.1813 135.326 69.216 136.133 71.2909Z" fill="#FA961E"/>
<path d="M128.525 73.7694C128.583 75.2103 129.909 76.3055 131.523 76.2478C133.136 76.1902 134.404 74.9798 134.404 73.5965C134.347 72.1555 133.021 71.0604 131.407 71.118C129.736 71.1757 128.468 72.386 128.525 73.7694Z" fill="#1D1E1C"/>
<path d="M131.007 76.594C130.258 76.594 129.508 76.3058 128.932 75.8447C128.298 75.3259 127.895 74.5766 127.895 73.8273C127.895 73.1357 128.125 72.444 128.644 71.8676C129.22 71.2336 130.142 70.8301 131.065 70.8301C132.851 70.7725 134.35 72.0406 134.408 73.6544C134.408 74.4614 134.119 75.2106 133.485 75.787C132.909 76.3634 132.102 76.6516 131.238 76.7092C131.18 76.594 131.065 76.594 131.007 76.594ZM131.295 71.4641C131.238 71.4641 131.18 71.4641 131.122 71.4641C130.373 71.4641 129.681 71.81 129.163 72.3287C128.759 72.7322 128.586 73.2509 128.586 73.8273C128.586 74.4037 128.874 74.9801 129.393 75.3836C129.912 75.787 130.546 76.0176 131.238 76.0176C131.929 76.0176 132.563 75.7294 133.082 75.2683C133.543 74.8072 133.774 74.2884 133.774 73.6544C133.716 72.444 132.621 71.4641 131.295 71.4641Z" fill="#1D1E1C"/>
<path d="M134.064 70.5419C134.352 71.2335 134.006 72.0405 133.314 72.3287C132.623 72.6168 131.816 72.271 131.528 71.5794C131.24 70.8877 131.585 70.0808 132.277 69.7926C132.969 69.5044 133.776 69.8502 134.064 70.5419Z" fill="white"/>
<path d="M131.348 67.7174C133.999 67.8327 136.132 70.023 136.016 72.732C135.901 75.3833 133.711 77.516 131.002 77.4007C128.351 77.2854 126.218 75.0951 126.333 72.3862C126.449 69.7348 128.696 67.6598 131.348 67.7174ZM131.405 66.8529C128.235 66.7376 125.584 69.2161 125.469 72.3862C125.353 75.5563 127.832 78.2076 131.002 78.3229C134.172 78.4382 136.823 75.9597 136.939 72.7896C136.996 69.6195 134.518 66.9681 131.405 66.8529Z" fill="#1D1E1C"/>
<path d="M153.079 68.6973C153.713 70.4841 151.753 72.9049 148.987 72.1556C146.508 71.4639 146.969 68.5244 148.064 67.6022C151.119 65.239 152.618 67.4869 153.079 68.6973Z" fill="#FA961E"/>
<path d="M148.765 70.138C148.765 70.9449 149.572 71.5789 150.494 71.5789C151.416 71.5789 152.165 70.8873 152.108 70.0804C152.108 69.2734 151.301 68.6394 150.379 68.6394C149.456 68.6394 148.707 69.2734 148.765 70.138Z" fill="#1D1E1C"/>
<path d="M150.131 71.6945C149.669 71.6945 149.266 71.5216 148.92 71.2334C148.574 70.9452 148.344 70.5418 148.344 70.0806C148.344 69.6772 148.459 69.2737 148.805 68.9855C149.151 68.6397 149.669 68.4091 150.188 68.4091C151.226 68.3515 152.09 69.1008 152.09 70.023C152.09 70.4841 151.917 70.8876 151.571 71.2334C151.226 71.5792 150.765 71.7521 150.303 71.7521C150.246 71.6945 150.188 71.6945 150.131 71.6945ZM150.303 68.755C150.246 68.755 150.246 68.755 150.188 68.755C149.785 68.755 149.381 68.9279 149.093 69.2161C148.863 69.4466 148.747 69.7348 148.747 70.0806C148.747 70.4265 148.92 70.7147 149.208 70.9452C149.497 71.1758 149.9 71.291 150.246 71.291C150.649 71.291 150.995 71.1181 151.283 70.8876C151.571 70.657 151.687 70.3112 151.687 69.9654C151.687 69.3313 151.053 68.8126 150.303 68.755Z" fill="#1D1E1C"/>
<path d="M151.879 68.2936C152.052 68.6971 151.879 69.1582 151.475 69.3311C151.072 69.504 150.611 69.3311 150.438 68.9277C150.265 68.5242 150.438 68.0631 150.841 67.8902C151.245 67.6596 151.706 67.8902 151.879 68.2936Z" fill="white"/>
<path d="M150.314 66.6801C151.813 66.7377 153.023 68.0058 152.966 69.5043C152.908 71.0029 151.64 72.2133 150.141 72.1557C148.643 72.0981 147.432 70.83 147.49 69.3314C147.548 67.8328 148.816 66.6224 150.314 66.6801ZM150.372 66.1613C148.585 66.1037 147.087 67.5447 147.029 69.3314C146.971 71.1182 148.412 72.6168 150.199 72.6744C151.986 72.7321 153.484 71.2911 153.542 69.5043C153.6 67.7176 152.159 66.219 150.372 66.1613Z" fill="#1D1E1C"/>
<path d="M125.355 78.8416C124.951 81.2624 131.176 82.5881 135.384 81.4929C139.591 80.3978 144.721 75.5562 142.704 74.2305C141.609 73.5389 140.917 75.0951 136.882 76.709C129.908 79.3603 125.758 76.5361 125.355 78.8416Z" fill="#8CC800"/>
<path d="M132.095 82.3575C129.444 82.3575 126.85 81.7235 125.64 80.6283C124.891 79.9367 124.833 79.245 124.948 78.7839C125.179 77.343 126.562 77.4006 128.291 77.4582C130.193 77.5159 133.075 77.6888 136.649 76.2478C138.436 75.5562 139.531 74.8645 140.338 74.3458C141.375 73.7117 142.067 73.2507 142.874 73.827C143.393 74.1729 143.623 74.7493 143.508 75.3833C143.162 77.5735 138.897 81.0318 135.438 81.954C134.459 82.1846 133.248 82.3575 132.095 82.3575ZM127.139 78.3228C126.159 78.3228 125.871 78.4381 125.813 78.8992C125.755 79.245 125.871 79.5909 126.216 79.879C127.715 81.2624 132.095 81.8387 135.208 81.0318C138.551 80.1672 142.355 76.9395 142.586 75.2103C142.643 74.8069 142.47 74.6916 142.355 74.5763C142.009 74.3458 141.779 74.4611 140.799 75.0951C139.934 75.6138 138.781 76.3055 136.937 77.0548C133.133 78.5534 130.136 78.3804 128.176 78.3228C127.83 78.3228 127.427 78.3228 127.139 78.3228Z" fill="black"/>
<path d="M157.636 71.464C158.616 72.5015 156.195 74.6342 153.717 75.1529C151.296 75.6716 147.03 74.6918 147.492 72.9627C147.78 71.8099 148.817 72.3863 151.296 72.3286C155.388 72.271 156.714 70.4842 157.636 71.464Z" fill="#8CC800"/>
<path d="M152.279 75.7868C150.492 75.7868 148.417 75.268 147.553 74.3458C147.034 73.7694 147.034 73.2507 147.092 72.8472C147.38 71.6945 148.36 71.7521 149.57 71.8097C150.031 71.8674 150.665 71.8674 151.357 71.8674C153.317 71.8097 154.585 71.4063 155.564 71.0605C156.544 70.7146 157.351 70.4264 157.985 71.1181C158.331 71.4639 158.389 71.925 158.273 72.4438C157.87 73.7118 155.853 75.1528 153.893 75.6139C153.374 75.7291 152.798 75.7868 152.279 75.7868ZM148.648 72.7319C148.129 72.7319 148.014 72.8472 147.956 73.1354C147.899 73.2507 147.899 73.4812 148.187 73.7694C149.051 74.634 151.876 75.2104 153.662 74.8069C155.449 74.4035 157.121 73.1354 157.409 72.2708C157.466 72.0403 157.409 71.925 157.351 71.8674C157.121 71.6368 156.832 71.6945 155.91 72.0403C154.988 72.3861 153.547 72.8472 151.414 72.9049C150.665 72.9049 150.031 72.8472 149.512 72.8472C149.109 72.732 148.878 72.7319 148.648 72.7319Z" fill="black"/>
<path d="M152.449 108.987C151.931 108.987 151.412 108.929 150.951 108.814C150.72 108.756 150.547 108.525 150.605 108.237C150.663 108.007 150.893 107.834 151.181 107.891C153.487 108.468 157.81 107.084 159.02 105.355C159.193 105.125 159.481 105.125 159.654 105.24C159.885 105.413 159.885 105.701 159.769 105.874C158.617 107.603 155.158 108.987 152.449 108.987Z" fill="black"/>
</svg>
