<svg xmlns="http://www.w3.org/2000/svg" width="260" height="241" viewBox="0 0 260 241" fill="none" class="__web-inspector-hide-shortcut__"> <path d="M83.1514 142.206C107.157 141.478 121.882 147.608 125.23 165.914C129.441 187.696 99.2684 212.059 81.2476 219.027C70.3132 223.027 56.5139 219.378 51.846 208.654C51.6048 208.111 51.6026 207.779 50.8936 208.003C42.5528 210.634 25.2462 202.623 21.8901 186.819C18.1312 169.205 17.7553 152.094 30.2337 135.548C44.1373 117.097 70.7329 121.019 83.1514 142.206Z" fill="#8DC63F"/> <path d="M78.8898 147.425C98.8906 146.618 112.608 153.514 115.243 168.995C118.561 187.39 92.7943 208.541 77.7273 214.589C68.5785 218.071 57.1151 215.095 53.3154 206.057C53.1144 205.605 53.1184 205.328 52.5345 205.513C45.541 207.799 30.6578 200.629 27.9585 187.254C24.9837 172.362 23.5647 157.529 34.0704 143.439C45.8736 127.656 68.7414 129.556 78.8898 147.425Z" fill="#E5E573"/> <path d="M78.2434 148.569C78.0117 148.455 77.8119 148.286 77.6624 148.076C77.5218 147.894 77.4186 147.687 77.3589 147.466C77.2991 147.244 77.284 147.013 77.3143 146.786C77.3446 146.559 77.4198 146.34 77.5355 146.143C77.6511 145.945 77.805 145.772 77.9882 145.634C78.3522 145.336 86.3323 138.933 82.4656 124.952C82.3418 124.505 82.4008 124.027 82.6298 123.623C82.8588 123.22 83.239 122.924 83.6867 122.801C84.1344 122.678 84.6129 122.738 85.0171 122.968C85.4212 123.197 85.7178 123.577 85.8416 124.025C90.3795 140.407 80.5336 148.087 80.1482 148.426C79.8782 148.63 79.555 148.752 79.2172 148.778C78.8794 148.803 78.5413 148.73 78.2434 148.569Z" fill="#010101"/> <path d="M124.255 130.375C110.808 115.267 89.4613 121.588 90.0185 130.926C90.6233 141.282 104.737 143.788 124.255 130.375Z" fill="#41A935"/> <path d="M45.1255 215.484C44.7957 215.328 44.5231 215.072 44.346 214.753C44.1689 214.433 44.0962 214.067 44.1381 213.705C44.1799 213.343 44.3342 213.003 44.5794 212.733C44.8245 212.464 45.1482 212.277 45.5049 212.201L48.5128 211.378C48.9357 211.267 49.3849 211.318 49.7733 211.519C50.1616 211.721 50.4613 212.06 50.6142 212.469L51.6404 215.195C51.7639 215.621 51.7221 216.077 51.5233 216.473C51.3246 216.869 50.9835 217.176 50.5682 217.331C50.1529 217.487 49.6938 217.48 49.2827 217.313C48.8715 217.145 48.5385 216.829 48.35 216.427L47.8903 215.197L46.4108 215.595C45.9842 215.723 45.5244 215.683 45.1255 215.484Z" fill="#1E1E1C"/> <path d="M64.9566 171.743C64.9817 171.728 65.0105 171.719 65.0402 171.717C65.0699 171.716 65.0995 171.723 65.1259 171.736C65.1523 171.75 65.1746 171.771 65.1907 171.796C65.2068 171.821 65.216 171.849 65.2175 171.879C65.4759 173.632 66.6124 182.627 60.9778 181.355C55.3433 180.083 63.4789 172.978 64.9566 171.743Z" fill="#010101"/> <path d="M67.8219 177.913C67.701 177.923 67.5795 177.9 67.4706 177.846C67.3617 177.793 67.2695 177.711 67.204 177.608C67.1385 177.506 67.1022 177.388 67.099 177.267C67.0957 177.146 67.1258 177.026 67.1858 176.921C68.5986 174.435 72.3816 168.794 75.7316 172.552C79.0815 176.31 71.0231 177.591 67.8219 177.913Z" fill="#010101"/> </svg>