<svg width="106" height="153" viewBox="0 0 106 153" fill="none" xmlns="http://www.w3.org/2000/svg">
<path d="M52.7196 153L100.111 141.166L106 23.105L105.159 11.5525C101.607 9.11056 97.0265 7.32603 91.418 5.35365C86.7165 3.70024 80.1076 2.16028 79.0794 1.97244L77.3968 6.76249L76.5556 1.97244C75.9012 1.97244 73.3026 1.57796 71.5079 1.12713C69.7132 0.676304 64.8713 0.281829 62.254 6.10352e-05L60.8519 5.91719L60.291 6.10352e-05H49.9153C44.5312 6.10352e-05 36.8289 0.939288 33.6508 1.4089L33.0899 4.22658L31.4074 1.4089C30.94 1.4089 26.3037 2.42327 15.9841 4.22658C5.66455 6.0299 1.68254 7.79564 0 9.01664L4.7672 131.586L16.545 141.166L52.7196 153Z" fill="#846E60"/>
</svg>
