<svg xmlns="http://www.w3.org/2000/svg" width="68" height="68" viewBox="0 0 68 68" fill="none"> <path d="M28.002 60.9484C42.9693 64.4826 57.9678 55.2143 61.502 40.2469C65.0362 25.2796 55.7678 10.2811 40.8005 6.74691C25.8331 3.2127 10.8347 12.4811 7.30045 27.4484C3.76624 42.4157 13.0346 57.4142 28.002 60.9484Z" fill="#1769B2"/> <path d="M19.3609 36.2929C17.0658 33.9979 18.1369 30.1727 23.0331 31.7028C26.2462 32.6208 27.9293 32.7739 30.2243 28.7957C32.6724 24.6646 35.8856 27.1126 35.7326 31.0908C35.5795 35.0689 38.7927 35.0689 41.3938 35.681C45.9839 36.752 45.8309 40.7301 42.1588 42.4132C38.1806 44.0962 37.5686 46.0853 37.5686 48.0744C37.5686 56.3367 33.7435 55.1127 29.4593 49.7575C28.0823 48.0745 24.7161 48.5334 22.268 49.2984C19.2079 50.2165 16.7598 48.3805 19.8199 44.4023C20.432 43.3313 22.7271 39.6591 19.3609 36.2929ZM23.4921 40.7301C23.0331 48.8395 36.1916 49.1455 36.3446 41.0362C36.4976 32.4678 23.1861 32.4678 23.4921 40.7301Z" fill="#04528F"/> <path d="M42.3115 14.2595C42.3115 13.9535 42.3115 13.8005 42.4646 13.4945C42.7706 12.5765 43.8416 12.2704 44.7596 12.5764C53.022 16.0955 55.47 22.9808 55.47 23.2868C55.7761 24.2049 55.317 25.1229 54.399 25.4289C53.481 25.735 52.5629 25.2759 52.2569 24.3579C52.1039 24.0519 50.1148 18.6967 43.3826 15.7896C42.6176 15.6366 42.3115 15.0246 42.3115 14.2595Z" fill="#2D80C3"/> </svg>