<svg width="45" height="51" viewBox="0 0 45 51" fill="none" xmlns="http://www.w3.org/2000/svg">
<path d="M28.9866 37.8873C23.8947 35.3574 17.6532 37.4213 15.0734 42.4883C14.7596 43.1051 14.7052 43.822 14.9226 44.4793C15.1382 45.1328 15.6051 45.6731 16.2194 45.9821C16.2234 45.9841 16.2268 45.9858 16.2307 45.9878C21.3226 48.5177 27.5641 46.4537 30.1439 41.3868C30.4577 40.7699 30.5121 40.053 30.2947 39.3958C30.0777 38.738 29.5836 38.2293 28.9866 37.8873Z" fill="white"/>
<path d="M35.3978 25.1426C30.3059 22.6127 24.0643 24.6767 21.4845 29.7436C21.1707 30.3605 21.1164 31.0774 21.3337 31.7346C21.5493 32.3882 22.0162 32.9285 22.6305 33.2375C22.6345 33.2395 22.6379 33.2412 22.6418 33.2432C27.7337 35.7731 33.9753 33.7091 36.555 28.6422C36.8688 28.0253 36.9232 27.3084 36.7059 26.6512C36.4888 25.9934 35.9947 25.4847 35.3978 25.1426Z" fill="white"/>
<path d="M8.15655 27.4092C7.49296 27.101 6.82306 27.0405 6.16555 27.2584C5.50833 27.4757 4.96519 27.9468 4.65702 28.5665C2.12712 33.6584 4.19111 39.9 9.25803 42.4797C9.26201 42.4817 9.26541 42.4834 9.26933 42.4854C9.88365 42.7944 10.5958 42.8471 11.249 42.6306C11.9063 42.4132 12.4494 41.9422 12.7576 41.3225C15.2875 36.2305 13.2235 29.989 8.15655 27.4092Z" fill="white"/>
<path d="M14.5638 14.6657C13.9002 14.3574 13.2303 14.2969 12.5728 14.5149C11.9156 14.7322 11.3724 15.2033 11.0642 15.823C8.53435 20.9149 10.5983 27.1565 15.6653 29.7362C15.6692 29.7382 15.6726 29.7399 15.6766 29.7419C16.2909 30.0509 17.003 30.1036 17.6563 29.887C18.3135 29.6697 18.8566 29.1987 19.1648 28.5789C21.6947 23.4869 19.6307 17.2455 14.5638 14.6657Z" fill="white"/>
<path d="M32.2346 17.0222C33.5495 14.4081 33.6993 11.41 32.6563 8.58111C32.1847 7.30054 30.801 6.60459 29.4918 6.98944C26.5987 7.8386 24.281 9.74629 22.9662 12.3604C21.6514 14.9745 21.5015 17.9726 22.5445 20.8015C22.7803 21.4418 23.2441 21.9359 23.8127 22.2219C24.3813 22.5079 25.0545 22.5856 25.7091 22.3932C28.6021 21.544 30.9198 19.6363 32.2346 17.0222Z" fill="white"/>
</svg>
