<svg width="248" height="146" viewBox="0 0 248 146" fill="none" xmlns="http://www.w3.org/2000/svg">
<path fill-rule="evenodd" clip-rule="evenodd" d="M98.4698 4.01853C112.582 -0.214696 127.674 -0.299951 141.836 3.77355C151.245 6.48098 160.011 10.9576 167.634 16.9477C169.092 18.0942 170.504 19.2918 171.865 20.5375C173.147 20.0497 174.451 19.607 175.773 19.2108C186.307 16.0542 197.571 15.9942 208.14 19.0385C222.313 23.1229 234.231 32.4928 241.272 45.0874C248.314 57.6821 249.903 72.4702 245.689 86.1995C242.546 96.4372 236.339 105.542 227.853 112.363C219.368 119.184 208.984 123.414 198.017 124.519C190.369 125.289 182.676 124.516 175.413 122.287C173.19 124.614 170.804 126.807 168.265 128.846C156.894 137.982 142.982 143.647 128.287 145.126C113.593 146.604 98.7753 143.829 85.7087 137.151C76.3286 132.357 68.153 125.707 61.6836 117.681C56.608 121.578 50.4862 123.997 44.0338 124.646C37.3285 125.321 30.5672 124.055 24.6049 121.007C18.6427 117.96 13.7473 113.268 10.5378 107.526C7.32834 101.783 5.94894 95.2481 6.57405 88.7462C7.12408 83.0252 9.20436 77.5563 12.5907 72.8715C9.92584 70.185 7.63064 67.1502 5.77961 63.8386C1.72786 56.5897 -0.0137296 48.3397 0.77513 40.132C1.56399 31.9243 4.84788 24.1275 10.2114 17.7277C15.575 11.3278 22.7774 6.61233 30.9077 4.17753C39.0381 1.74274 47.7312 1.69801 55.8878 4.04899C63.3389 6.19663 69.9821 10.2376 75.1778 15.6688C82.1362 10.5128 90.0135 6.55512 98.4698 4.01853Z" fill="#C542A1"/>
</svg>
