<svg width="171" height="108" viewBox="0 0 171 108" fill="none" xmlns="http://www.w3.org/2000/svg">
<g clip-path="url(#clip0_580_6659)">
<path d="M166.443 65.5931C163.599 57.535 163.599 48.1587 166.443 40.1006C170.309 33.8082 171.74 26.325 170.469 19.0546C169.718 14.6743 167.619 10.6356 164.465 7.498C161.31 4.36043 157.256 2.27942 152.863 1.54318C149.167 0.785011 145.353 0.793047 141.659 1.56688C137.966 2.34071 134.471 3.8638 131.393 6.04153C123.202 9.17453 114.14 9.17453 105.95 6.04153C100.614 2.81766 94.4735 1.16534 88.2367 1.27541C81.9728 0.92808 75.7629 2.59899 70.5235 6.04153C62.3521 9.17607 53.3059 9.17607 45.1345 6.04154C38.789 1.92633 31.1325 0.322208 23.6639 1.54318C19.1755 2.29044 15.0411 4.44109 11.8574 7.6848C8.6737 10.9285 6.6053 15.0975 5.95067 19.5902C4.69206 25.9615 5.44207 32.5653 8.0977 38.4941C11.1052 47.6438 11.1052 57.5127 8.0977 66.6624C6.40081 69.9412 5.37933 73.5259 5.09355 77.2049C4.80776 80.8839 5.26347 84.5827 6.43374 88.0832C7.36897 91.7517 9.27854 95.1006 11.9614 97.7772C14.6442 100.454 18.0009 102.359 21.6779 103.292C31.7154 105.809 37.7808 102.542 45.6175 97.9368C53.3023 94.7799 61.9261 94.7799 69.6109 97.9368C74.9004 101.922 81.3971 103.982 88.0219 103.774C94.6077 103.72 101.024 101.686 106.433 97.9368C114.177 94.9924 122.736 94.9924 130.48 97.9368C136.701 102.366 144.373 104.28 151.951 103.292C156.412 102.627 160.55 100.578 163.777 97.4348C167.005 94.2915 169.059 90.6779 169.833 86.2445C171.103 78.957 169.771 70.9936 165.907 64.681" fill="#70B62E"/>
</g>
<defs>
<clipPath id="clip0_580_6659">
<rect width="170.806" height="106.444" fill="white" transform="translate(0.115234 0.980469)"/>
</clipPath>
</defs>
</svg>
