<svg width="181" height="123" viewBox="0 0 181 123" fill="none" xmlns="http://www.w3.org/2000/svg">
<path d="M174.202 66.4884C170.314 58.3249 169.272 48.4583 171.37 39.663C174.739 32.6123 175.414 24.5787 173.269 17.0694C171.992 12.5435 169.335 8.52669 165.667 5.57542C161.999 2.62416 157.502 0.884673 152.797 0.597844C148.823 0.210629 144.811 0.64266 141.01 1.86719C137.21 3.09172 133.702 5.08259 130.704 7.71615C122.433 11.9226 112.897 12.9292 103.931 10.5421C97.9582 7.74226 91.3127 6.68562 84.762 7.49416C78.132 7.82441 71.783 10.2724 66.652 14.4769C58.4015 18.6829 48.8822 19.6877 39.9354 17.2969C32.8011 13.6713 24.5661 12.8337 16.8425 14.9481C12.2025 16.2329 8.09083 18.9552 5.10093 22.7222C2.11102 26.4891 0.397532 31.1058 0.207674 35.9061C-0.409085 42.7503 1.11363 49.6161 4.56662 55.5599C8.74768 64.854 9.84381 75.2389 7.69529 85.2011C6.27385 88.8398 5.59711 92.7254 5.70501 96.6285C5.81291 100.532 6.70328 104.373 8.32354 107.927C9.71512 111.683 12.0965 114.995 15.2169 117.514C18.3373 120.032 22.0811 121.664 26.054 122.238C36.8959 123.771 42.9156 119.66 50.6506 113.943C58.3866 109.768 67.4613 108.81 75.8985 111.279C81.9072 114.884 88.9723 116.33 95.9205 115.376C102.845 114.588 109.371 111.734 114.646 107.189C122.468 103.23 131.474 102.279 139.95 104.518C146.988 108.488 155.274 109.649 163.138 107.768C167.759 106.573 171.886 103.957 174.933 100.291C177.98 96.6249 179.741 92.5942 180.062 87.8431C180.589 80.0336 178.303 71.8016 173.536 65.5882" fill="#FFF4C3"/>
</svg>
