<svg width="216" height="129" viewBox="0 0 216 129" fill="none" xmlns="http://www.w3.org/2000/svg">
<path fill-rule="evenodd" clip-rule="evenodd" d="M78.5479 6.89778C89.9104 1.2009 102.707 -0.999264 115.32 0.575418C123.699 1.62258 131.79 4.31055 139.131 8.48572C140.536 9.28475 141.908 10.1352 143.244 11.035C144.261 10.4272 145.303 9.85581 146.367 9.32254C154.849 5.07299 164.401 3.43404 173.814 4.61292C186.437 6.19573 197.915 12.7274 205.723 22.7715C213.53 32.8156 217.029 45.5496 215.449 58.173C214.27 67.5863 210.325 76.4385 204.115 83.6102C197.904 90.7819 189.707 95.9509 180.558 98.4637C174.179 100.216 167.538 100.621 161.05 99.6918C159.502 102.044 157.795 104.301 155.937 106.446C147.614 116.052 136.629 122.976 124.372 126.341C112.115 129.705 99.1355 129.361 87.0742 125.35C78.4159 122.471 70.51 117.795 63.8521 111.674C60.1108 115.803 55.2668 118.784 49.8848 120.262C44.2918 121.798 38.369 121.64 32.8654 119.81C27.3618 117.979 22.5247 114.558 18.9657 109.978C15.4067 105.399 13.2856 99.8663 12.8708 94.0812C12.5059 88.9911 13.4762 83.9065 15.6689 79.3249C13.016 77.3461 10.6263 75.0099 8.57349 72.3685C4.08056 66.5874 1.40284 59.6038 0.878994 52.3009C0.355148 44.9979 2.00872 37.7037 5.63053 31.3405C9.25235 24.9773 14.6797 19.8311 21.2264 16.5526C27.7731 13.274 35.1449 12.0105 42.4097 12.9217C49.0463 13.7542 55.2726 16.3595 60.4722 20.387C65.6285 14.889 71.7392 10.3115 78.5479 6.89778Z" fill="#FEBE1F"/>
</svg>
