<svg width="132" height="79" viewBox="0 0 132 79" fill="none" xmlns="http://www.w3.org/2000/svg">
<path fill-rule="evenodd" clip-rule="evenodd" d="M47.9732 4.52029C54.877 1.05888 62.6521 -0.27794 70.3156 0.678833C75.407 1.31509 80.3232 2.94829 84.7833 5.48512C85.6369 5.97065 86.4706 6.48746 87.2828 7.03418C87.9008 6.66486 88.5336 6.31768 89.1804 5.99365C94.334 3.41162 100.138 2.4158 105.857 3.13209C113.527 4.0938 120.501 8.06243 125.245 14.1652C129.989 20.268 132.114 28.0051 131.155 35.6751C130.438 41.3946 128.041 46.7732 124.268 51.1307C120.494 55.4882 115.513 58.6289 109.955 60.1556C106.079 61.2203 102.044 61.4668 98.1011 60.9018C97.1605 62.3311 96.1235 63.7023 94.9946 65.0054C89.9376 70.8424 83.2635 75.049 75.8161 77.0935C68.3686 79.138 60.4822 78.9285 53.1538 76.4916C47.8934 74.7423 43.09 71.9017 39.0449 68.1827C36.7718 70.6913 33.8288 72.5026 30.559 73.4004C27.1607 74.3334 23.562 74.2378 20.2181 73.1256C16.8741 72.0133 13.9351 69.9345 11.7726 67.1519C9.61016 64.3692 8.32143 61.0079 8.0694 57.4928C7.84765 54.4001 8.43719 51.3107 9.76944 48.527C8.15755 47.3246 6.70556 45.9051 5.45823 44.3002C2.72833 40.7876 1.10135 36.5444 0.783066 32.1072C0.464778 27.6699 1.46949 23.2379 3.67009 19.3717C5.8707 15.5054 9.16838 12.3786 13.1461 10.3865C17.1239 8.39451 21.603 7.62679 26.017 8.18045C30.0491 8.6862 33.8319 10.269 36.991 12.7157C40.1239 9.37538 43.8365 6.59434 47.9732 4.52029Z" fill="white"/>
</svg>
