<svg width="261" height="145" viewBox="0 0 261 145" fill="none" xmlns="http://www.w3.org/2000/svg">
<path d="M260.588 52.2826C260.039 44.6417 256.468 37.5314 250.66 32.5157C244.852 27.5 237.284 24.9896 229.62 25.5367C218.698 26.3381 207.971 28.8572 197.839 33.0005C198.907 25.4551 196.94 17.7948 192.367 11.689C187.794 5.5832 180.986 1.52684 173.426 0.403981C157.951 -1.91121 143.774 5.69463 125.39 23.9988C125.155 23.5391 124.895 23.0878 124.627 22.6365C121.257 17.0335 116.082 12.7344 109.946 10.4408C103.81 8.14721 97.0757 7.99443 90.8416 10.0074C35.3939 27.9188 10.7551 64.7361 7.28437 70.311C4.64916 73.5536 2.7312 77.3149 1.65623 81.3484C0.581264 85.3818 0.373576 89.5962 1.04678 93.7153C1.71999 97.8343 3.25889 101.765 5.56258 105.25C7.86627 108.734 10.8827 111.694 14.4141 113.935C17.9455 116.176 21.9122 117.647 26.0539 118.252C30.1957 118.858 34.419 118.583 38.447 117.448C42.4749 116.312 46.2166 114.34 49.4266 111.661C52.6366 108.982 55.2425 105.658 57.0733 101.904C56.8889 107.12 56.8302 111.775 56.8637 115.436C56.9176 121.061 58.6173 126.548 61.7542 131.224C64.8912 135.9 69.3289 139.561 74.523 141.758C79.717 143.956 85.4415 144.594 90.994 143.594C96.5466 142.594 101.686 140.001 105.781 136.131C109.805 132.32 114.852 126.101 124.962 113.397L129.564 107.655C130.626 113.33 133.369 118.557 137.438 122.664C141.508 126.771 146.718 129.568 152.397 130.695C158.076 131.821 163.963 131.227 169.299 128.987C174.636 126.747 179.177 122.965 182.338 118.128C182.556 117.802 205.09 85.1716 233.778 83.1239C241.433 82.5716 248.555 79.0139 253.582 73.2317C258.608 67.4495 261.128 59.9152 260.588 52.2826Z" fill="#C542A1"/>
</svg>
