<svg width="171" height="116" viewBox="0 0 171 116" fill="none" xmlns="http://www.w3.org/2000/svg">
<path d="M165.323 62.7256C161.649 55.0106 160.665 45.6861 162.647 37.374C165.831 30.7106 166.469 23.1185 164.442 16.0217C163.235 11.7445 160.724 7.94831 157.257 5.15919C153.791 2.37007 149.541 0.726142 145.095 0.455072C141.339 0.0891299 137.547 0.497425 133.955 1.65468C130.364 2.81194 127.048 4.69343 124.215 7.1823C116.399 11.1577 107.387 12.109 98.9129 9.85297C93.2684 7.20698 86.988 6.20839 80.7971 6.97251C74.5314 7.28462 68.5312 9.59813 63.6821 13.5716C55.8849 17.5466 46.8886 18.4962 38.4333 16.2367C31.691 12.8103 23.9084 12.0187 16.6091 14.0169C12.224 15.2312 8.33823 17.8039 5.51259 21.3639C2.68695 24.9239 1.06759 29.287 0.888166 33.8235C0.305291 40.2917 1.74435 46.7803 5.00764 52.3976C8.95899 61.1811 9.99491 70.9954 7.96442 80.4103C6.62108 83.8491 5.98152 87.5212 6.08349 91.2099C6.18546 94.8986 7.02691 98.5292 8.55816 101.887C9.87329 105.437 12.1238 108.567 15.0728 110.948C18.0217 113.328 21.5599 114.87 25.3145 115.412C35.5608 116.862 41.2497 112.976 48.5598 107.574C55.8708 103.627 64.4469 102.722 72.4207 105.055C78.0992 108.463 84.7762 109.829 91.3427 108.927C97.8864 108.182 104.054 105.486 109.039 101.19C116.432 97.4488 124.943 96.5504 132.954 98.6657C139.605 102.418 147.435 103.515 154.868 101.738C159.234 100.608 163.134 98.1361 166.014 94.6713C168.894 91.2065 170.558 87.3973 170.862 82.9072C171.359 75.5267 169.199 67.747 164.694 61.8749" fill="#FFA13E"/>
</svg>
