<svg width="232" height="129" viewBox="0 0 232 129" fill="none" xmlns="http://www.w3.org/2000/svg">
<path d="M231.058 46.4756C230.57 39.6834 227.395 33.3629 222.232 28.9042C217.07 24.4456 210.342 22.214 203.53 22.7004C193.82 23.4128 184.285 25.652 175.278 29.3351C176.227 22.6279 174.479 15.8184 170.414 10.3907C166.349 4.96308 160.297 1.35725 153.577 0.359111C139.82 -1.69893 127.219 5.06213 110.876 21.3333C110.667 20.9246 110.436 20.5235 110.198 20.1223C107.202 15.1416 102.602 11.32 97.1474 9.28116C91.6931 7.24231 85.7067 7.10649 80.165 8.89589C30.8759 24.8178 8.9737 57.5459 5.88847 62.5016C3.54595 65.384 1.84101 68.7276 0.885441 72.3131C-0.0701297 75.8985 -0.25475 79.6448 0.343686 83.3064C0.942122 86.9679 2.3101 90.462 4.35792 93.5595C6.40573 96.6571 9.08714 99.2881 12.2263 101.28C15.3655 103.272 18.8916 104.58 22.5733 105.118C26.255 105.656 30.0093 105.412 33.5898 104.403C37.1704 103.393 40.4965 101.64 43.35 99.2589C46.2035 96.8778 48.5199 93.9222 50.1474 90.586C49.9834 95.2222 49.9313 99.3605 49.9611 102.615C50.009 107.615 51.5199 112.493 54.3084 116.649C57.0969 120.806 61.0418 124.06 65.6589 126.013C70.2761 127.967 75.3647 128.534 80.3006 127.645C85.2364 126.757 89.8047 124.451 93.4449 121.011C97.022 117.623 101.508 112.095 110.496 100.802L114.587 95.6977C115.531 100.742 117.969 105.389 121.586 109.04C125.204 112.69 129.835 115.177 134.883 116.178C139.931 117.18 145.165 116.651 149.909 114.66C154.653 112.669 158.689 109.307 161.499 105.007C161.693 104.717 181.724 75.7117 207.226 73.8914C214.03 73.4005 220.362 70.2379 224.83 65.0979C229.298 59.9579 231.538 53.2605 231.058 46.4756Z" fill="#FEBC11"/>
</svg>
