<svg xmlns="http://www.w3.org/2000/svg" width="494" height="289" viewBox="0 0 494 289" fill="none"> <path fill-rule="evenodd" clip-rule="evenodd" d="M195.13 6.45652C223.263 -1.98253 253.348 -2.15248 281.581 5.96815C300.338 11.3655 317.814 20.2898 333.009 32.2313C335.917 34.5165 338.731 36.9036 341.445 39.3867C344 38.4147 346.597 37.5324 349.232 36.7428C370.232 30.45 392.687 30.3305 413.757 36.3993C442.011 44.5418 465.769 63.2209 479.807 88.3287C493.844 113.437 497.012 142.917 488.612 170.287C482.346 190.696 469.972 208.847 453.055 222.444C436.139 236.042 415.44 244.475 393.576 246.677C378.33 248.213 362.995 246.671 348.517 242.229C344.086 246.869 339.329 251.238 334.268 255.304C311.6 273.517 283.865 284.81 254.571 287.757C225.277 290.704 195.739 285.172 169.69 271.86C150.99 262.304 134.692 249.046 121.795 233.046C111.677 240.815 99.4726 245.637 86.6094 246.932C73.2422 248.277 59.7634 245.752 47.8775 239.677C35.9916 233.602 26.2325 224.249 19.8343 212.801C13.4361 201.354 10.6862 188.325 11.9324 175.363C13.0288 163.959 17.1755 153.057 23.9256 143.718C18.6124 138.363 14.0364 132.312 10.3459 125.71C2.26866 111.259 -1.20324 94.8121 0.369374 78.4498C1.94199 62.0876 8.48852 46.5445 19.1809 33.7862C29.8734 21.0279 44.2315 11.6274 60.4395 6.77355C76.6476 1.91972 93.9777 1.83055 110.238 6.5173C125.093 10.7988 138.337 18.855 148.694 29.6831C162.567 19.4038 178.271 11.5135 195.13 6.45652Z" fill="#FFF4C3"/> </svg>