<svg width="109" height="75" viewBox="0 0 109 75" fill="none" xmlns="http://www.w3.org/2000/svg">
<path d="M96.4464 40.0576C99.3644 39.0819 101.988 37.3915 104.075 35.1421C106.163 32.8927 107.647 30.1566 108.39 27.1861C109.134 24.2156 109.114 21.1062 108.331 18.1444C107.549 15.1826 106.029 12.4636 103.913 10.2382C101.796 8.01273 99.1511 6.35233 96.2206 5.40998C93.2901 4.46762 90.1687 4.27365 87.1441 4.84591C84.1195 5.41818 81.289 6.73827 78.9134 8.68456C76.5379 10.6309 74.6936 13.1407 73.5507 15.9829C72.5885 12.2589 70.4674 8.93165 67.4904 6.47656C64.5134 4.02147 60.8329 2.56414 56.9747 2.31278C53.1165 2.06142 49.278 3.02889 46.0077 5.07698C42.7373 7.12506 40.2024 10.149 38.7651 13.7167C37.8007 9.99455 35.6786 6.66959 32.7018 4.21633C29.7249 1.76307 26.0455 0.30689 22.1886 0.055602C17.9545 -0.218313 13.757 0.975251 10.3106 3.4331C6.86415 5.89095 4.38187 9.46114 3.28637 13.5359C2.19087 17.6106 2.54988 21.9379 4.30224 25.7812C6.0546 29.6244 9.09199 32.746 12.8973 34.6145C9.45481 35.7681 6.4351 37.9124 4.22107 40.7755C2.00704 43.6386 0.698424 47.0915 0.461094 50.6965C0.147705 55.524 1.77538 60.279 4.98624 63.9162C8.1971 67.5534 12.7283 69.7749 17.5836 70.0923C21.4405 70.3436 25.2778 69.3771 28.5477 67.3308C31.8177 65.2846 34.3533 62.263 35.7925 58.6975C36.7547 62.4215 38.8759 65.7488 41.8528 68.2039C44.8298 70.6589 48.5103 72.1163 52.3685 72.3676C56.2267 72.619 60.0652 71.6515 63.3356 69.6034C66.6059 67.5553 69.1408 64.5315 70.578 60.9638C71.6641 65.1678 74.222 68.8501 77.7922 71.3492C81.3624 73.8483 85.7108 75.0003 90.0564 74.5983C94.4019 74.1963 98.4598 72.2666 101.501 69.156C104.542 66.0453 106.367 61.9576 106.648 57.6271C106.887 54.0246 106.046 50.4318 104.229 47.304C102.413 44.1761 99.7045 41.6542 96.4464 40.0576Z" fill="white"/>
</svg>
