<svg width="36" height="36" viewBox="0 0 36 36"  xmlns="http://www.w3.org/2000/svg">
<circle cx="18" cy="18" r="18"/>
<path d="M24.651 12.8483C22.5396 11.6398 20.2874 11 17.9648 11C15.6422 11 13.39 11.6398 11.2786 12.8483C9.16716 14.0569 7.47801 15.6919 6.21114 17.6825C6.07038 17.8957 6 18.1801 6 18.4645C6 18.7488 6.07038 19.0332 6.28152 19.3175C7.54839 21.3081 9.23754 22.9431 11.349 24.1517C13.4604 25.3602 15.7126 26 18.0352 26C20.3578 26 22.61 25.3602 24.7214 24.1517C26.8328 22.9431 28.522 21.3081 29.7889 19.3175C29.9296 19.0332 30 18.7488 30 18.4645C30 18.1801 29.9296 17.8957 29.7889 17.6114C28.4516 15.6209 26.7625 14.0569 24.651 12.8483ZM14.9384 13.7725C15.783 12.9194 16.7683 12.564 17.9648 12.564C18.176 12.564 18.3871 12.6351 18.5279 12.7773C18.6686 12.9194 18.739 13.1327 18.739 13.346C18.739 13.5592 18.6686 13.7725 18.5279 13.9147C18.3871 14.0569 18.176 14.128 17.9648 14.128C17.261 14.128 16.6276 14.3412 16.0645 14.91C15.5718 15.4076 15.2903 16.0474 15.2903 16.7583C15.2903 16.9716 15.2199 17.1848 15.0792 17.327C14.9384 17.4692 14.7273 17.5403 14.5161 17.5403C14.305 17.5403 14.0938 17.4692 13.9531 17.327C13.8123 17.1848 13.7419 16.9716 13.7419 16.7583C13.6716 15.6209 14.0938 14.6256 14.9384 13.7725ZM23.9472 22.9431C22.1173 24.0095 20.0762 24.5782 17.9648 24.5782C15.8534 24.5782 13.8123 24.0095 11.9824 22.9431C10.1525 21.8768 8.60411 20.3839 7.40762 18.5355L7.33724 18.4645L7.40762 18.3934C8.81525 16.2607 10.5748 14.6967 12.6158 13.6303L13.1789 13.346L12.8974 13.8436C12.3343 14.7678 12.0528 15.763 12.0528 16.7583C12.0528 18.3223 12.6158 19.673 13.8123 20.8104C14.9384 21.9479 16.346 22.5166 17.9648 22.5166C19.5836 22.5166 20.9912 21.9479 22.1173 20.8104C23.2434 19.673 23.8768 18.3223 23.8768 16.7583C23.8768 15.6919 23.5953 14.7678 23.1026 13.8436L22.8211 13.346L23.3842 13.6303C25.4956 14.6967 27.2551 16.2607 28.5924 18.3934C27.6538 20.2893 25.6949 21.8568 23.9472 22.9431Z" fill="#041733"/>
</svg>
