<svg width="27" height="27" viewBox="0 0 27 27"  xmlns="http://www.w3.org/2000/svg">
        <path fill-rule="evenodd" clip-rule="evenodd" d="M26.9991 12.8202C26.9988 13.0466 26.9986 13.2732 26.9986 13.5C26.9986 13.7542 26.999 14.0081 26.9993 14.2618C27.0017 15.8684 27.0041 17.4654 26.9107 19.0725C26.806 21.234 26.3164 23.1489 24.7324 24.7328C23.152 26.3134 21.2336 26.8064 19.0723 26.9111C17.4378 27.0031 15.8138 27.0013 14.1796 26.9995C13.9532 26.9992 13.7267 26.999 13.4998 26.999C13.2735 26.999 13.0473 26.9992 12.8213 26.9995C11.1893 27.0013 9.56487 27.0031 7.92742 26.9111C5.766 26.8064 3.85113 26.3168 2.26721 24.7328C0.68668 23.1522 0.193606 21.234 0.0889118 19.0725C-0.00300795 17.4387 -0.00120649 15.8127 0.000601537 14.1807C0.000852798 13.9539 0.00110419 13.727 0.00110419 13.5C0.00110419 13.2729 0.000852729 13.046 0.000601433 12.8193C-0.00120656 11.188 -0.0030062 9.56423 0.0889118 7.92747C0.193606 5.76601 0.683302 3.85109 2.26721 2.26715C3.84775 0.686581 5.766 0.193498 7.92742 0.0888025C9.56115 -0.00311432 11.1845 -0.00131759 12.8179 0.000490376C13.045 0.000741731 13.2723 0.000993302 13.4998 0.000993302C13.7269 0.000993302 13.9538 0.000741845 14.1805 0.000490547C15.8118 -0.00131748 17.4355 -0.00311722 19.0723 0.0888025C21.2336 0.193498 23.1485 0.683204 24.7324 2.26715C26.313 3.84772 26.806 5.76601 26.9107 7.92747C27.0027 9.56195 27.0009 11.186 26.9991 12.8202ZM11.5553 22.6417V14.8464H9.0001V11.5876H11.5553V9.78808C11.5357 9.1202 11.6154 7.55307 12.0912 6.6276C12.6859 5.47078 13.8164 4.78273 15.2476 4.72981C16.3926 4.68746 17.3454 4.84322 17.6787 4.92639V7.68614H16.1625C15.7378 7.68614 15.2831 7.95388 15.0124 8.32882C14.7118 8.74507 14.7118 9.23653 14.7118 9.78808V11.5876H17.5284L17.084 14.8464H14.7118V22.6417H11.5553Z" ></path>
        </svg>