<svg width="183" height="261" viewBox="0 0 183 261" fill="none" xmlns="http://www.w3.org/2000/svg">
<path d="M29.0085 25.2163V223.28L19.2142 230.625L14.0449 25.2163H29.0085Z" fill="#092355"/>
<path d="M93.4871 9.16449L16.2207 26.5766L21.662 45.8932L93.4871 39.9078V9.16449Z" fill="#092355"/>
<path d="M10.2357 227.633C21.3904 216.569 44.0806 194.386 45.6042 194.169L119.334 227.633C118.336 235.795 111.063 251.302 94.3038 251.302C77.5446 251.302 61.0212 247.04 54.3102 244.501L32.8171 260.28H0.441406V252.118C2.16448 252.572 6.53566 252.173 10.2357 246.949C13.9358 241.726 11.7774 231.895 10.2357 227.633Z" fill="#846E60"/>
<path d="M154.159 25.2163V223.28L163.954 230.625L169.123 25.2163H154.159Z" fill="#092355"/>
<path d="M172.932 227.632C161.778 216.568 139.087 194.386 137.564 194.168L63.8342 227.632C64.8318 235.794 70.4726 251.302 87.2318 251.302C103.991 251.302 122.147 247.04 128.858 244.5L150.351 260.28H182.727V252.118C181.003 252.572 176.632 252.173 172.932 246.949C169.232 241.725 171.391 231.895 172.932 227.632Z" fill="#846E60"/>
<path d="M145.181 251.302H38.5312L42.6122 223.552H139.467L145.181 251.302Z" fill="#846E60"/>
<path d="M88.3186 9.16443L166.945 26.5766L161.504 45.8932L89.6789 39.9078L88.3186 9.16443Z" fill="#092355"/>
<rect x="80.4297" y="0.458374" width="23.3976" height="12.515" fill="#F9B812"/>
<path fill-rule="evenodd" clip-rule="evenodd" d="M84.7812 2.90695C84.7812 2.45618 85.1467 2.09076 85.5974 2.09076H98.1124C98.5632 2.09076 98.9286 2.45618 98.9286 2.90695C98.9286 3.35773 98.5632 3.72315 98.1124 3.72315H85.5974C85.1467 3.72315 84.7812 3.35773 84.7812 2.90695Z" fill="white"/>
<rect x="84.2383" y="29.8414" width="15.2356" height="15.2356" fill="#092355"/>
</svg>
