<svg width="110" height="152" viewBox="0 0 110 152" fill="none" xmlns="http://www.w3.org/2000/svg">
<path d="M57.438 14.584H43.3027L46.6683 151.001H58.7843L57.438 14.584Z" fill="#CCB6A4"/>
<path d="M43.3027 14.5841L44.8733 11.8917L56.0918 12.116L57.2137 14.5841H43.3027Z" fill="#A08574"/>
<path d="M5.49853 133.211L0.0269942 1.29551L3.58885 0.10428L7.87759 1.10345L11.1601 135.28L8.01985 135.357L5.49853 133.211Z" fill="#A08574"/>
<path d="M2.30781 2.78544L7.43439 1.33511L3.58885 0.10428L0.0269942 1.29551L5.49853 133.211L8.01985 135.357L10.0386 135.308L7.05786 132.731L2.30781 2.78544Z" fill="#CCB6A4"/>
<path d="M103.373 138.933L109.278 3.42363L105.72 2.19315L101.428 3.21155L97.7041 141.049L100.844 141.134L103.373 138.933Z" fill="#A08574"/>
<path d="M106.992 4.94998L101.87 3.45038L105.72 2.19315L109.278 3.42363L103.373 138.933L100.844 141.134L98.8255 141.079L101.815 138.437L106.992 4.94998Z" fill="#CCB6A4"/>
<path d="M101.62 6.82901L104.481 9.3617L92.6643 13.0135L89.5561 144.806L88.4345 144.78L87.7766 144.092L88.1769 9.3617L101.62 6.82901Z" fill="#A08574"/>
<path d="M104.126 9.03127L90.6456 11.8917L88.6208 145.151L100.294 141.353L104.126 9.03127Z" fill="#CCB6A4"/>
<path d="M82.289 10.5293L88.0791 12.8831L78.3394 17.6356L75.4084 148.636L73.8169 149.728L68.6786 148.508L71.6945 13.0215L82.289 10.5293Z" fill="#A08574"/>
<path d="M88.087 12.4345L76.3751 14.6811L73.8163 149.728L87.124 146.165L88.087 12.4345Z" fill="#CCB6A4"/>
<path d="M70.6843 12.3405L73.6011 14.8085L61.7095 15.4816V150.552H60.5877L59.9146 149.879L58.5684 12.3405H70.6843Z" fill="#A08574"/>
<path d="M73.3763 14.8085L59.6898 15.0329L60.7811 150.919L72.6951 149.655L73.3763 14.8085Z" fill="#CCB6A4"/>
<path d="M30.0438 12.3158L27.2514 14.9237L39.2649 16.1546L45.7757 149.922L46.8962 149.867L47.5355 149.162L42.1816 13.2378L30.0438 12.3158Z" fill="#A08574"/>
<path d="M27.5976 14.5841L41.0598 15.4816L46.7204 150.243L34.7774 148.982L27.5976 14.5841Z" fill="#CCB6A4"/>
<path d="M8.07601 1.79504L4.26172 3.36563L5.83231 6.50681L14.3584 129.237L17.2752 142.475L20.4164 141.802L17.2752 9.19925L8.07601 1.79504Z" fill="#A08574"/>
<path d="M12.7878 9.87233L5.83231 4.71182L4.26172 3.3656L9.6466 138.212L17.2752 142.699L12.7878 9.87233Z" fill="#CCB6A4"/>
<path d="M16.5772 8.85395L13.732 11.4042L25.7178 12.8806L29.4905 146.754L30.6118 146.722L31.2655 146.03L28.6936 10.0241L16.5772 8.85395Z" fill="#A08574"/>
<path d="M14.0844 11.0716L27.5255 12.2443L30.4278 147.094L18.7622 143.65L14.0844 11.0716Z" fill="#CCB6A4"/>
</svg>
