<svg xmlns="http://www.w3.org/2000/svg" width="54" height="53" viewBox="0 0 54 53" fill="none"> <path d="M50.6211 25.9333C51.6171 26.821 51.6575 28.2626 50.7698 29.2586C49.287 30.7984 46.4881 32.9023 42.3401 32.4082C38.8314 31.9517 35.9315 30.4514 34.0652 29.1997C32.8482 28.3459 32.7399 26.4622 33.9063 25.5139C36.2393 23.6173 40.3065 21.2281 45.1002 22.9805C47.9322 24.0387 49.6251 25.0456 50.6211 25.9333Z" fill="#643112"/> <path d="M28.8266 31.3165C28.4726 32.5472 27.1328 33.2507 25.8443 32.8151C23.8826 32.121 20.7278 30.4337 19.4538 26.5572C18.3871 23.1466 18.5172 19.8689 18.9564 17.7202C19.2186 16.1868 20.861 15.3916 22.1835 16.0482C24.8284 17.3614 28.7344 20.1097 29.1547 25.2032C29.5143 28.1342 29.1805 30.0857 28.8266 31.3165Z" fill="#643112"/> <path d="M26.4733 40.4553C27.1428 41.5741 26.8228 43.0258 25.6462 43.6137C23.8167 44.6639 20.44 45.9516 16.7038 44.3083C13.4196 42.9576 11.1048 40.5531 9.67042 38.8731C8.72211 37.7066 9.17141 35.9183 10.4874 35.3542C13.201 34.1683 17.8322 33.0951 21.9115 36.0883C24.5427 37.9013 25.8616 39.4181 26.4733 40.4553Z" fill="#643112"/> <path d="M32.5057 2.24653C33.4512 1.33215 34.8928 1.29174 35.8072 2.23722C37.2654 3.77786 39.2639 6.77389 38.5726 10.8164C37.9766 14.3014 36.2792 17.0958 34.8881 18.9383C34.0343 20.1553 32.1745 20.1242 31.2262 18.9577C29.4112 16.5669 27.2668 12.3264 29.2164 7.6382C30.4956 4.77226 31.6419 3.10312 32.5057 2.24653Z" fill="#643112"/> </svg>