<svg width="70" height="54" viewBox="0 0 70 54" fill="none" xmlns="http://www.w3.org/2000/svg">
<path fill-rule="evenodd" clip-rule="evenodd" d="M0.36158 31.2576L28.4083 18.1647L29.6272 17.6011C30.8341 20.2149 32.7103 21.9175 35.3154 20.7065C37.9205 19.4956 39.0438 16.3902 37.8368 13.7764L65.7401 2.41943e-10C65.9433 0.395666 66.4213 1.39082 66.6125 1.78649C75.0492 19.9871 67.1861 41.6169 49.034 50.0937C30.8939 58.5586 9.33604 50.6693 0.887383 32.4566C0.696182 32.061 0.528885 31.6533 0.36158 31.2456L0.36158 31.2576Z" fill="#E9520E"/>
<path fill-rule="evenodd" clip-rule="evenodd" d="M0.0141754 31.0295L25.9218 19.2195C26.0055 19.6511 26.4237 20.6823 26.6149 21.0899C27.8697 23.6917 30.9767 24.7708 33.5579 23.5239C36.1391 22.2769 37.2265 19.1475 35.9718 16.5577C35.7686 16.1501 35.2428 15.1669 34.956 14.8312L60.5888 2.40967C60.7919 2.79334 61.2819 3.8005 61.4731 4.19616C69.5274 20.9221 62.5486 41.0291 45.8783 49.1103C29.2081 57.1915 9.16789 50.1894 1.11358 33.4635C0.922382 33.0678 0.18148 31.4372 0.00222778 31.0415L0.0141754 31.0295Z" fill="#F15B5C"/>
<path d="M40.1673 19.2311L52.5236 16.989" stroke="white" stroke-width="2.27" stroke-linecap="round" stroke-linejoin="round"/>
<path d="M38.6609 24.8306L46.5957 31.401" stroke="white" stroke-width="2.27" stroke-linecap="round" stroke-linejoin="round"/>
<path d="M31.2741 27.2522L33.5565 37.3237" stroke="white" stroke-width="2.27" stroke-linecap="round" stroke-linejoin="round"/>
<path d="M25.4708 24.8306L19.6153 33.3194" stroke="white" stroke-width="2.27" stroke-linecap="round" stroke-linejoin="round"/>
</svg>
