<svg width="30" height="30" viewBox="0 0 30 30"  xmlns="http://www.w3.org/2000/svg"><path fill-rule="evenodd" clip-rule="evenodd" d="M0 4.5C0 3.67157 0.671573 3 1.5 3H28.5C29.3284 3 30 3.67157 30 4.5C30 5.32843 29.3284 6 28.5 6H1.5C0.671573 6 0 5.32843 0 4.5Z" ></path><path fill-rule="evenodd" clip-rule="evenodd" d="M0 14.5C0 13.6716 0.671573 13 1.5 13H28.5C29.3284 13 30 13.6716 30 14.5C30 15.3284 29.3284 16 28.5 16H1.5C0.671573 16 0 15.3284 0 14.5Z" ></path><path fill-rule="evenodd" clip-rule="evenodd" d="M0 24.5C0 23.6716 0.671573 23 1.5 23H28.5C29.3284 23 30 23.6716 30 24.5C30 25.3284 29.3284 26 28.5 26H1.5C0.671573 26 0 25.3284 0 24.5Z" ></path></svg>