<svg width="93" height="119" viewBox="0 0 93 119" fill="none" xmlns="http://www.w3.org/2000/svg">
<path d="M51.0003 55.2755C50.8826 55.2684 50.7684 55.2024 50.6542 55.1364C50.374 54.8831 50.2811 54.4638 50.5344 54.1836C50.5344 54.1836 51.8846 52.3741 51.1116 50.4955C50.8527 49.8889 50.403 49.5072 49.839 49.0595C49.2198 48.5494 48.4863 47.9733 48.0168 46.9403C47.5473 45.9074 47.6077 44.9064 47.6575 44.082C47.7463 42.61 47.7997 41.7268 45.4318 40.8157C45.0856 40.6766 44.8749 40.2502 45.014 39.904C45.1531 39.5579 45.5795 39.3472 45.9257 39.4863C49.2179 40.7487 49.1112 42.5151 49.0153 44.1049C48.9691 44.8703 48.9229 45.6358 49.2335 46.3637C49.5442 47.0916 50.0528 47.4768 50.6756 47.9281C51.2948 48.4382 52.0319 48.9555 52.3836 49.9813C53.4084 52.5842 51.6729 54.9024 51.6069 55.0166C51.4749 55.245 51.2358 55.2897 51.0003 55.2755Z" fill="black"/>
<path d="M61.3681 54.8375C61.1325 54.8233 60.9666 54.636 60.8595 54.4523C60.8077 54.3309 59.3956 51.291 60.3317 48.5109C60.6936 47.4099 61.4392 46.8049 62.1225 46.2552C62.7432 45.7608 63.3052 45.2629 63.5869 44.5117C63.9346 43.6462 63.929 42.7594 63.861 41.928C63.8428 40.2722 63.7799 38.3774 66.7361 37.3739C67.0965 37.2775 67.5015 37.4202 67.6533 37.843C67.7497 38.2034 67.6071 38.6084 67.1842 38.7602C65.195 39.4083 65.2006 40.2951 65.2777 41.9544C65.2797 42.9001 65.3335 43.967 64.9127 45.0644C64.4883 46.2207 63.6838 46.8222 63.0006 47.3719C62.3798 47.8663 61.8803 48.3089 61.661 49.0048C60.8783 51.2032 62.1386 53.8203 62.135 53.8792C62.2904 54.2432 62.1477 54.6482 61.7838 54.8035C61.6625 54.8553 61.4823 54.9035 61.3681 54.8375Z" fill="black"/>
<path d="M54.7944 83.4562C55.553 106.135 22.7413 107.346 2.39406 107.654C1.27177 107.646 0.604769 108.906 1.44177 109.724C3.17111 111.424 7.76782 113.593 14.2071 113.627C25.4888 113.717 25.9416 112.09 34.9412 111.805C43.8195 111.573 46.6711 113.282 58.0223 113.198C68.3102 113.11 79.3934 111.593 83.6272 110.962C84.58 110.842 85.2221 109.994 85.2754 109.111C85.2591 108.401 84.8861 107.729 84.2562 107.395C82.0756 106.318 78.5747 105.575 73.8313 101.92C66.6592 96.405 64.8325 83.5893 67.6857 77.4384C68.5274 75.2436 70.7218 67.28 68.5701 67.682C60.975 69.1737 58.3757 63.2846 58.3757 63.2846C58.3757 63.2846 63.7343 65.5582 68.5971 61.3605C70.2168 59.9809 68.3682 59.2783 67.0206 57.1287C65.5552 54.9719 63.6208 53.7324 61.0102 52.9247C55.9034 51.3755 50.9813 53.6195 49.1341 58.7675C47.7808 62.586 48.4401 66.3488 50.6536 70.7963C52.5423 74.7515 54.5717 77.356 54.7944 83.4562Z" fill="#8CC800"/>
<path d="M15.9383 114.322C15.346 114.346 14.7572 114.31 14.1648 114.333C7.84327 114.307 2.94506 112.238 0.880208 110.222C0.323388 109.657 0.134066 108.877 0.412234 108.185C0.693956 107.434 1.43251 106.946 2.31927 106.941C15.3334 106.722 39.6434 106.357 49.5486 95.9632C52.7059 92.6081 54.2571 88.4469 54.0846 83.4725C53.905 78.6158 52.5823 76.0541 50.9864 73.1212C50.6687 72.5111 50.2956 71.8385 49.9261 71.107C47.5019 66.2331 47.0264 62.3632 48.3208 58.5411C50.1857 53.0988 55.4235 50.5192 61.0497 52.2771C63.8921 53.1578 65.9336 54.5811 67.4579 56.7414C67.8345 57.3551 68.2807 57.7957 68.6091 58.2292C69.273 58.9784 69.8263 59.6028 69.7766 60.4271C69.7446 60.957 69.4806 61.4138 68.9187 61.9118C65.5543 64.7816 61.9484 64.8004 59.843 64.4369C61.1119 65.9318 63.7138 67.8617 68.3187 66.9577C68.7968 66.8684 69.2608 67.0146 69.5927 67.3892C69.98 67.8262 70.3906 68.8556 69.6957 72.5367C69.284 74.4619 68.6815 76.6121 68.2642 77.6506L68.2607 77.7095C66.9018 80.6413 66.6835 85.2375 67.6534 89.7282C68.7092 94.7559 71.0582 98.9161 74.224 101.294C77.6147 103.862 80.3841 104.975 82.4023 105.806C83.2088 106.15 83.9012 106.428 84.5346 106.703C85.4519 107.172 85.9874 108.09 85.9894 109.036C85.9701 110.335 85.0193 111.4 83.7651 111.62C79.5313 112.251 68.448 113.769 58.0977 113.912C52.1848 113.969 48.4896 113.51 45.2618 113.137C42.2107 112.776 39.2774 112.422 35.0166 112.519C31.0503 112.634 28.8398 113.033 26.4526 113.42C23.7674 113.849 21.0822 114.278 15.9383 114.322ZM57.6295 53.1344C54.0236 53.1531 50.9963 55.3342 49.7125 58.9797C48.4983 62.4521 48.9399 65.9063 51.2052 70.4751C51.5194 71.1441 51.8925 71.8167 52.2102 72.4268C53.8025 75.4185 55.2912 78.1677 55.4495 83.3776C55.6596 88.7088 53.9657 93.2751 50.5552 96.9104C46.1386 101.549 38.9186 104.659 28.4688 106.451C19.6926 107.93 10.3986 108.197 2.3553 108.302C2.00202 108.281 1.81116 108.506 1.74162 108.679C1.67563 108.793 1.66496 108.97 1.88982 109.16C3.67449 110.923 8.28897 112.797 14.1948 112.858C20.3985 112.878 23.3228 112.404 26.1881 111.927C28.5165 111.536 30.8448 111.144 34.9288 111.036C39.3109 110.887 42.2442 111.242 45.4096 111.669C48.7551 112.048 52.2737 112.497 58.0689 112.433C68.3567 112.345 79.3222 110.82 83.556 110.189C84.1519 110.107 84.596 109.602 84.5727 109.01C84.6011 108.539 84.3316 108.109 83.9301 107.907C83.3555 107.636 82.722 107.362 81.9119 107.076C79.8349 106.242 76.9477 105.122 73.3911 102.366C70.004 99.7389 67.4924 95.3325 66.3403 89.9444C65.2739 85.0934 65.5653 80.2652 67.0597 77.0461C67.4181 76.004 68.0724 73.9752 68.4216 72.1052C69.0079 69.2449 68.7633 68.4028 68.6562 68.2191C64.4706 69.0301 61.7154 67.682 60.1343 66.4637C58.4425 65.1206 57.7106 63.54 57.6553 63.4776C57.5517 63.2349 57.5731 62.8816 57.8192 62.7192C58.0101 62.4943 58.308 62.4532 58.5953 62.5888C58.8273 62.6619 63.6737 64.609 68.0995 60.7986C68.3492 60.5773 68.4776 60.4078 68.4847 60.29C68.499 60.0545 68.1117 59.6175 67.6691 59.118C67.2818 58.6809 66.7838 58.119 66.3519 57.4429C65.0489 55.5323 63.2912 54.3034 60.7395 53.4994C59.6315 53.2552 58.5751 53.1324 57.6295 53.1344Z" fill="black"/>
<path d="M56.0603 64.4451C55.8248 64.4309 55.6 64.24 55.6142 64.0045C55.6177 63.9456 55.6101 62.1132 56.8588 61.0067C57.0461 60.8407 57.3406 60.8585 57.5065 61.0458C57.6725 61.2331 57.6547 61.5275 57.4674 61.6935C56.5309 62.5234 56.5634 63.9436 56.5634 63.9436C56.5456 64.238 56.2994 64.4005 56.0603 64.4451Z" fill="black"/>
<path d="M49.3788 80.1747C54.5784 88.9983 51.2922 97.4278 46.5452 100.687C45.2518 101.554 40.2226 103.615 40.2226 103.615C40.2226 103.615 37.0151 105.844 30.5332 106.516C25.7765 106.998 21.3316 105.252 17.209 101.103C12.4742 96.3258 9.05581 82.4685 20.9493 74.3812C30.925 67.7147 43.6401 70.4914 49.3788 80.1747Z" fill="#E62828"/>
<path d="M45.0662 80.1508C44.8895 80.1401 44.6576 80.067 44.5505 79.8833C41.5735 76.3352 37.1357 74.4718 32.0506 74.5194C31.6385 74.4945 31.3583 74.2412 31.3243 73.8255C31.3492 73.4134 31.6024 73.1332 32.0181 73.0992C37.5189 73.0175 42.2994 75.0789 45.6119 78.9427C45.8885 79.2549 45.8047 79.6635 45.5515 79.9437C45.3641 80.1097 45.2428 80.1615 45.0662 80.1508Z" fill="#FF5A5A"/>
<path d="M20.4766 80.2621C20.2411 80.2479 20.0091 80.1748 19.8467 79.9286C17.8011 76.6141 14.6693 74.6522 11.0187 74.4319C10.6066 74.407 10.3299 74.0948 10.3548 73.6826C10.3797 73.2705 10.6919 72.9938 11.104 73.0187C15.1668 73.2639 18.7001 75.4273 21.0151 79.1719C21.2329 79.4805 21.1456 79.948 20.7781 80.1622C20.7157 80.2175 20.5943 80.2693 20.4766 80.2621Z" fill="black"/>
<path d="M29.7845 107.18C28.6622 107.172 27.4846 107.1 26.3141 106.912C21.8123 106.108 18.1166 103.699 15.2858 99.6865C12.3479 95.4907 11.3546 90.4077 12.5434 85.3973C13.75 80.0924 17.3352 75.5222 22.2858 72.8071C26.1338 70.7347 30.86 69.779 35.3207 70.2846C40.1347 70.8115 44.3781 72.9587 47.2516 76.2641C49.9555 79.4412 51.6746 83.2679 52.0984 87.0165C52.5455 91.3574 51.3404 95.6577 48.4598 99.325C48.2065 99.6052 47.7873 99.698 47.4482 99.4412C47.168 99.1879 47.0751 98.7686 47.332 98.4296C53.2983 90.6346 50.6092 82.3172 46.1973 77.0869C40.3987 70.3547 29.8306 70.1896 22.9872 73.9132C18.4042 76.414 15.1312 80.7077 13.9495 85.6003C12.8408 90.261 13.7412 94.9247 16.4649 98.753C22.4513 107.269 31.5078 106.043 36.3248 104.561C42.3443 102.738 44.8032 96.2677 44.1292 90.7903C43.582 86.1479 40.5244 80.9994 33.7496 80.6496C28.7412 80.4064 24.3424 84.7502 23.9276 88.6846C23.6571 91.2093 25.0209 94.0691 27.3568 95.5102C28.6095 96.2949 31.2023 97.397 34.4509 95.4656C35.6158 94.7677 36.4559 93.5774 36.7143 92.2338C36.9656 91.008 36.6834 89.809 36.0301 88.8832C35.1555 87.7076 33.9993 87.2832 32.8592 87.569C31.8369 87.8619 31.0735 88.7613 30.9542 89.7587C30.9293 90.1709 30.5583 90.444 30.2085 90.3638C29.7964 90.3389 29.5233 89.9678 29.6035 89.6181C29.7583 88.0319 30.9035 86.6827 32.5252 86.2488C34.2683 85.763 35.9991 86.4584 37.2021 88.0675C38.132 89.3055 38.4482 90.9202 38.1721 92.5582C37.8299 94.3104 36.733 95.8397 35.2595 96.7554C32.4373 98.4761 29.3059 98.4644 26.6898 96.77C23.9006 95.0061 22.2673 91.7164 22.6323 88.6064C22.8922 86.2583 24.2779 83.8599 26.3971 82.0377C28.6412 80.1048 31.2995 79.1425 33.9491 79.3024C37.2464 79.5014 40.1264 80.739 42.236 82.9937C44.1242 84.9987 45.2632 87.6676 45.6707 90.7061C46.427 96.7794 43.6311 103.938 36.8872 106.013C34.9604 106.606 32.5072 107.108 29.7845 107.18Z" fill="black"/>
<path fill-rule="evenodd" clip-rule="evenodd" d="M26.5901 70.9986C28.4393 66.7963 26.5075 61.5976 26.2095 61.6387C25.7314 61.728 21.8153 62.969 19.1895 65.3516C16.0607 68.2357 15.3302 72.5055 18.3869 73.7537C22.7141 75.4923 25.2277 73.9893 26.5901 70.9986Z" fill="#B4E100"/>
<path d="M21.8003 74.9645C20.7369 74.9594 19.511 74.7081 18.2441 74.1589C17.0325 73.6721 16.265 72.6802 16.0452 71.426C15.695 69.3956 16.7935 66.8618 18.9162 64.9807C21.6045 62.5427 25.7007 61.2535 26.12 61.1606C26.2378 61.1677 26.4768 61.1231 26.6393 61.3692C27.2443 62.1149 28.7782 67.0533 26.995 71.1414C26.2407 72.8687 25.1686 73.9859 23.7753 74.5518C23.1687 74.8107 22.5104 74.9482 21.8003 74.9645ZM26.0007 62.158C25.0373 62.4545 21.7136 63.6721 19.5249 65.6674C17.7107 67.3308 16.6889 69.5738 16.9391 71.3026C17.1177 72.259 17.6675 72.9422 18.5918 73.2934C22.2231 74.8127 24.7565 73.961 26.1295 70.7937C27.7006 67.2837 26.4738 63.1321 26.0007 62.158Z" fill="black"/>
<path d="M32.3618 82.1023C32.1263 82.0881 31.9568 81.9597 31.9121 81.7206C31.8192 81.3013 31.7264 80.882 31.6406 80.345C31.4137 79.2085 31.1939 77.9542 30.8975 76.9908C30.8528 76.7517 30.9884 76.4645 31.2274 76.4198C31.4665 76.3751 31.7538 76.5107 31.7985 76.7497C32.0949 77.7131 32.3111 79.0263 32.538 80.1628C32.6273 80.6409 32.7167 81.1191 32.8131 81.4795C32.8578 81.7186 32.7222 82.0059 32.4243 82.047C32.4207 82.1058 32.4207 82.1058 32.3618 82.1023Z" fill="black"/>
<path d="M29.1216 82.9113C28.9449 82.9006 28.7718 82.8311 28.7236 82.6509C28.3023 81.7981 27.3937 80.2068 26.9029 79.5271C26.7369 79.3398 26.8136 79.049 27.0009 78.883C27.1882 78.717 27.479 78.7937 27.645 78.981C28.1912 79.7231 29.0997 81.3144 29.5763 82.2296C29.6799 82.4722 29.6033 82.763 29.3606 82.8666C29.2393 82.9184 29.1804 82.9148 29.1216 82.9113Z" fill="black"/>
<path d="M42.0043 86.8209C41.8277 86.8103 41.6546 86.7407 41.6064 86.5605C41.5028 86.3179 41.5795 86.0271 41.8221 85.9235C42.4322 85.6058 43.2886 85.1256 44.086 84.6419C44.9423 84.1617 45.7986 83.6816 46.4087 83.3638C46.6514 83.2603 46.9422 83.3369 47.0457 83.5795C47.1493 83.8222 47.0726 84.113 46.83 84.2165C46.2199 84.5343 45.3636 85.0145 44.5661 85.4982C43.7098 85.9784 42.8535 86.4585 42.2434 86.7763C42.1256 86.7692 42.0632 86.8245 42.0043 86.8209Z" fill="black"/>
<path d="M19.7589 71.5911C19.7 71.5875 19.6411 71.584 19.5269 71.518C19.2985 71.386 19.1949 71.1434 19.3269 70.915C19.3964 70.7419 21.2208 66.9517 23.6521 64.8529C23.8394 64.6869 24.1339 64.7047 24.2998 64.892C24.4658 65.0793 24.4481 65.3737 24.2608 65.5396C22.0131 67.5314 20.1923 71.2627 20.1888 71.3215C20.1192 71.4946 19.9355 71.6017 19.7589 71.5911Z" fill="black"/>
<g opacity="0.6">
<g opacity="0.6">
<g opacity="0.6">
<g opacity="0.6">
<path opacity="0.6" d="M60.7425 56.3952C60.6247 56.3881 60.507 56.381 60.3928 56.315C59.4791 55.7871 58.4299 55.5464 57.3559 55.718C56.999 55.7556 56.6011 55.4952 56.5635 55.1383C56.526 54.7815 56.7864 54.3835 57.1432 54.346C58.5117 54.1922 59.9141 54.4542 61.0562 55.114C61.3988 55.312 61.4917 55.7313 61.2937 56.0739C61.1618 56.3023 60.978 56.4094 60.7425 56.3952Z" fill="#B4E100"/>
</g>
</g>
</g>
</g>
<path d="M38.5736 85.9046C38.397 85.894 38.165 85.8209 38.0544 85.696C37.2798 84.8219 35.8397 84.2032 34.4855 84.1214C34.0733 84.0966 33.7967 83.7844 33.8216 83.3722C33.8465 82.9601 34.1586 82.6834 34.5708 82.7083C36.2783 82.8114 38.061 83.6281 39.0569 84.7519C39.3335 85.0641 39.3086 85.4763 38.9965 85.7529C38.8716 85.8635 38.6914 85.9117 38.5736 85.9046Z" fill="#EA5C5D"/>
<path d="M78.4454 108.699C78.3865 108.696 78.2687 108.688 78.2099 108.685C75.3192 107.624 72.9137 106.356 71.5752 105.034C71.295 104.781 71.2646 104.306 71.5768 104.03C71.8301 103.75 72.3046 103.719 72.5813 104.031C73.8091 105.228 75.9826 106.423 78.7002 107.414C79.0464 107.554 79.2606 107.921 79.1179 108.326C78.9895 108.496 78.7434 108.658 78.4454 108.699Z" fill="#B4E100"/>
<path d="M41.1375 92.3827C41.0786 92.3792 41.0198 92.3756 41.0198 92.3756C40.9609 92.3721 40.902 92.3685 40.9055 92.3096C40.8467 92.3061 40.8502 92.2472 40.7913 92.2436C40.7325 92.2401 40.736 92.1812 40.6772 92.1777C40.5665 92.0528 40.4594 91.8691 40.47 91.6924C40.4736 91.6335 40.4772 91.5746 40.4772 91.5746C40.4807 91.5158 40.4843 91.4569 40.5431 91.4604C40.5467 91.4015 40.6056 91.4051 40.6091 91.3462C40.6127 91.2873 40.6716 91.2909 40.6751 91.232C40.8 91.1213 40.9837 91.0143 41.1604 91.0249C41.337 91.0356 41.5101 91.1051 41.6796 91.2336C41.7903 91.3584 41.8974 91.5422 41.8867 91.7188C41.8832 91.7777 41.8796 91.8366 41.8796 91.8366C41.8761 91.8955 41.8725 91.9543 41.8136 91.9508C41.8101 92.0097 41.7512 92.0061 41.7477 92.065C41.7441 92.1239 41.6852 92.1203 41.6816 92.1792C41.6781 92.2381 41.6192 92.2345 41.5568 92.2898C41.4979 92.2863 41.4944 92.3452 41.4355 92.3416C41.3766 92.3381 41.373 92.3969 41.3142 92.3934C41.1964 92.3863 41.1964 92.3863 41.1375 92.3827Z" fill="black"/>
<path d="M39.6949 104.528C39.5182 104.518 39.2863 104.444 39.1792 104.261C38.9025 103.949 38.9863 103.54 39.2396 103.26C41.1091 101.659 42.4329 101.266 43.6389 100.866C44.9038 100.47 45.8673 100.173 47.3906 98.4332C47.6438 98.153 48.0595 98.119 48.3986 98.3759C48.6788 98.6292 48.7128 99.0449 48.456 99.3839C46.6794 101.404 45.4145 101.801 44.0871 102.252C43.0024 102.6 41.8588 102.945 40.1766 104.38C39.9928 104.487 39.8715 104.539 39.6949 104.528Z" fill="black"/>
<path d="M60.343 22.8642C64.5652 18.5097 71.9542 20.433 73.7023 25.7389C75.9432 32.6701 69.2947 38.0601 63.226 35.8027C57.6588 34.0484 56.0939 26.6853 60.343 22.8642Z" fill="white"/>
<path d="M64.7657 36.7231C64.1804 36.6287 63.6576 36.4789 63.0794 36.2668C60.2994 35.3307 58.2488 33.0795 57.6574 30.1482C57.0626 27.2757 57.9433 24.4332 60.0696 22.4933C62.1477 20.3731 65.0968 19.4874 68.0678 20.1985C71.0422 20.8508 73.3426 22.8807 74.1836 25.5907C75.2282 28.8449 74.4993 32.1102 72.1197 34.3304C70.17 36.2811 67.4011 37.1186 64.7657 36.7231ZM67.249 21.0355C64.7902 20.6508 62.3782 21.4507 60.6782 23.1801C58.8052 24.8399 58.0011 27.3915 58.5584 29.9071C59.1122 32.4816 60.8791 34.5384 63.3718 35.3389C66.1448 36.3927 69.3188 35.6978 71.4522 33.6401C73.5232 31.6377 74.2273 28.7845 73.2238 25.8283C72.4239 23.4162 70.4037 21.6396 67.7789 21.0675C67.6576 21.1193 67.4256 21.0462 67.249 21.0355Z" fill="black"/>
<path d="M72.2193 34.6319C73.1598 35.6932 70.6696 37.7886 68.1575 38.287C65.6454 38.7854 61.4004 37.6428 61.9192 35.9012C62.2258 34.7378 63.3125 35.3353 65.7926 35.3668C69.8696 35.3765 71.334 33.6329 72.2193 34.6319Z" fill="#8CC800"/>
<path d="M65.3514 38.7678C63.9454 38.5647 62.5571 38.0673 61.8932 37.3181C61.3364 36.7526 61.3719 36.1638 61.511 35.8176C61.8765 34.6578 62.8186 34.7146 64.0515 34.8481C64.5225 34.8766 65.1667 34.9745 65.8768 34.9583C67.8858 34.9614 69.1507 34.565 70.1142 34.2686C71.14 33.9168 71.9232 33.6686 72.5871 34.4178C72.9191 34.7924 73.0084 35.2706 72.7998 35.7898C72.3683 37.0639 70.274 38.4739 68.2401 38.883C67.4122 38.8922 66.3488 38.8871 65.3514 38.7678ZM71.6202 34.7731C71.3847 34.7589 71.0243 34.8553 70.3624 35.0518C69.3989 35.3482 67.9503 35.8517 65.827 35.7826C65.058 35.7953 64.4139 35.6974 63.9429 35.6689C62.5922 35.5283 62.5298 35.5836 62.3871 35.9887C62.3211 36.1029 62.3069 36.3384 62.5871 36.5917C63.417 37.5282 66.2772 38.1145 68.131 37.7536C69.9258 37.3892 71.6562 36.1345 71.9415 35.3244C72.0146 35.0924 71.9628 34.9711 71.9075 34.9086C71.7933 34.8426 71.7344 34.8391 71.6202 34.7731Z" fill="black"/>
<path d="M30.8065 20.727C34.3085 11.6604 46.6191 9.38961 53.0547 16.3376C60.6522 24.5967 54.8285 38.8416 43.1829 38.907C33.4214 39.086 27.2848 29.1423 30.8065 20.727Z" fill="white"/>
<path d="M40.7992 39.2358C37.111 38.6587 33.865 36.6308 31.6946 33.4269C29.0922 29.5468 28.5558 24.7278 30.3461 20.5219C32.0293 16.1323 35.886 12.9376 40.73 11.9889C45.5115 11.0956 50.2097 12.5611 53.374 15.9432C57.0915 19.9497 57.9868 25.6768 55.7239 30.8588C53.461 36.0408 48.6587 39.2375 43.2168 39.3227C42.3854 39.3907 41.5611 39.3409 40.7992 39.2358ZM45.5226 12.8692C44.0577 12.6625 42.4609 12.6843 40.9087 12.9452C36.4251 13.7974 32.8181 16.7708 31.2115 20.8696C29.5567 24.7882 30.0557 29.2504 32.4956 32.8843C34.9391 36.4593 38.8363 38.4673 43.1524 38.4324C48.2963 38.3883 52.7311 35.4057 54.855 30.5699C56.9823 25.6753 56.121 20.3638 52.6837 16.6107C50.7955 14.6057 48.2758 13.2717 45.5226 12.8692Z" fill="black"/>
<path d="M36.5838 38.5677C36.0812 41.0193 42.3728 42.5219 46.6904 41.4824C50.9455 40.4982 56.3184 35.6813 54.2734 34.3168C53.1937 33.6016 52.3912 35.1487 48.2807 36.6735C41.1551 39.1981 37.0203 36.2302 36.5838 38.5677Z" fill="#8CC800"/>
<path d="M41.2759 42.1012C39.4024 41.8108 37.7268 41.1778 36.8309 40.3555C36.1046 39.6617 36.0884 38.9515 36.1757 38.484C36.4412 37.0227 37.8543 37.108 39.6207 37.2146C41.5638 37.3319 44.4453 37.5649 48.133 36.1919C49.9456 35.5331 51.1106 34.8352 51.908 34.3514C52.9516 33.7053 53.6831 33.3358 54.5378 33.8601C55.0464 34.2454 55.3088 34.7931 55.152 35.4337C54.7225 37.6533 50.3805 41.0552 46.7873 41.8429C45.0442 42.3286 43.0317 42.3845 41.2759 42.1012ZM37.0518 38.6551C36.9716 39.0048 37.1304 39.3099 37.4624 39.6845C38.9704 41.1347 43.4205 41.8169 46.598 41.0632C50.0146 40.2648 53.9302 37.0737 54.2688 35.3804C54.3525 34.9717 54.183 34.8433 54.0135 34.7149C53.6708 34.5169 53.4282 34.6205 52.3882 35.2077C51.5319 35.6879 50.3081 36.3823 48.433 37.0964C44.5652 38.5176 41.5069 38.274 39.505 38.1531C37.6244 37.9805 37.1462 38.0698 37.0518 38.6551Z" fill="black"/>
<path d="M39.7852 2.1813C37.7416 6.66736 33.3976 9.12352 31.0104 9.51129C30.8926 9.50418 30.9642 10.2767 31.1408 10.2874C33.8351 10.6864 40.0526 8.52061 42.4333 3.34575C42.7703 2.65696 40.0563 1.60671 39.7852 2.1813Z" fill="black"/>
<path d="M66.5475 17.9793C69.7109 17.461 72.6356 18.9377 73.7492 20.0686C73.8045 20.131 74.1791 19.799 74.1274 19.6777C73.3401 18.0346 69.8906 15.4627 66.1902 16.0666C65.6496 16.2113 66.0694 18.0686 66.5475 17.9793Z" fill="black"/>
<path d="M40.11 23.2386C39.6739 27.5262 45.265 31.823 51.0165 28.5654C56.0955 25.6808 53.5211 19.3796 50.5857 18.0796C42.5272 14.5203 40.4019 20.3606 40.11 23.2386Z" fill="#FA961E"/>
<path d="M47.2202 17.0492C48.2141 17.2274 49.3186 17.5304 50.5855 18.0796C53.5209 19.3796 56.0953 25.6809 51.0163 28.5654C49.1824 29.5776 47.3911 29.8831 45.7531 29.6069C42.2969 29.1029 39.7555 26.172 40.0509 23.2351C40.3733 20.8317 41.8905 16.2548 47.2202 17.0492ZM47.3948 16.1142C45.2858 15.8096 43.5498 16.1776 42.1245 17.2735C39.8322 19.0262 39.3012 21.9489 39.1713 23.1229C39.0093 24.8269 39.5575 26.5146 40.83 27.9506C42.0472 29.3242 43.7639 30.2551 45.6374 30.5455C47.5698 30.8394 49.6037 30.4303 51.5 29.3629C53.7639 28.0812 54.9553 25.9666 54.869 23.4794C54.7345 20.8121 53.0656 18.1111 50.9957 17.1589C49.7252 16.6685 48.5064 16.2995 47.3948 16.1142Z" fill="black"/>
<path d="M63.5824 26.96C63.3082 29.5436 66.6989 32.112 70.183 30.1949C73.2408 28.4884 71.6983 24.6723 69.9156 23.8556C65.0834 21.6729 63.8068 25.2006 63.5824 26.96Z" fill="#FA961E"/>
<path d="M67.887 23.2014C68.4722 23.2958 69.1681 23.5151 69.9158 23.8557C71.6984 24.6724 73.2445 28.4296 70.1832 30.195C69.0807 30.8376 68.0066 31.0091 67.0128 30.831C64.9037 30.5264 63.417 28.7229 63.5825 26.96C63.7303 25.4916 64.6663 22.7115 67.887 23.2014ZM68.0616 22.2664C66.7144 22.0669 65.519 22.2902 64.5861 23.0612C63.0983 24.2124 62.7491 26.0824 62.644 26.8443C62.3876 29.1335 64.2652 31.3152 66.8417 31.7071C68.0711 31.8995 69.3878 31.6244 70.6116 30.93C72.1405 30.0767 72.8734 28.7027 72.8552 27.047C72.7816 25.3288 71.6482 23.5466 70.3259 22.9349C69.5158 22.6497 68.7646 22.3679 68.0616 22.2664Z" fill="black"/>
<path d="M51.9976 21.1198C51.819 20.1635 51.214 19.4178 50.3003 18.8899C49.442 18.4244 48.3892 18.2427 47.3116 18.4731C46.2929 18.7071 45.3741 19.2426 44.7909 20.0938C44.2112 20.8862 43.9742 21.8765 44.1564 22.7739C44.3386 23.6713 44.9401 24.4759 45.8537 25.0038C46.2517 25.2642 46.7156 25.4103 47.2455 25.4423C47.7719 25.5332 48.3054 25.5063 48.846 25.3616C49.8647 25.1277 50.7834 24.5922 51.3667 23.7409C52.0017 23.011 52.2352 22.0796 51.9976 21.1198Z" fill="black"/>
<path d="M68.9527 24.1521C68.3746 23.94 67.7198 24.0186 67.1685 24.3399C66.6173 24.6612 66.1767 25.1074 66.0199 25.748C65.6508 26.9667 66.3381 28.3083 67.5568 28.6773C67.6746 28.6844 67.7888 28.7504 67.9065 28.7575C68.374 28.8448 68.9111 28.759 69.341 28.4895C69.8922 28.1682 70.3328 27.722 70.4897 27.0815C70.8587 25.8627 70.1714 24.5212 68.9527 24.1521Z" fill="black"/>
<path d="M43.3205 23.9052C43.1423 24.899 43.8544 25.8284 44.8518 25.9477C45.8457 26.1259 46.7751 25.4138 46.8944 24.4163C47.0137 23.4189 46.3604 22.493 45.363 22.3737C44.3656 22.2545 43.4362 22.9666 43.3205 23.9052Z" fill="white"/>
<path d="M65.1541 27.3504C64.942 27.9286 65.2597 28.5387 65.8378 28.7509C66.416 28.963 67.0261 28.6453 67.2383 28.0672C67.4505 27.489 67.1327 26.8789 66.5546 26.6667C65.9729 26.5134 65.3074 26.7687 65.1541 27.3504Z" fill="white"/>
<path d="M17.3475 85.0964C17.2887 85.0929 17.2298 85.0893 17.1709 85.0858C16.9389 85.0127 16.7801 84.7076 16.912 84.4792C18.4633 80.318 21.9205 77.8674 23.0783 77.2872C23.3209 77.1837 23.6118 77.2603 23.7154 77.5029C23.8189 77.7456 23.7423 78.0364 23.4996 78.14C22.4631 78.6684 19.1932 80.953 17.7775 84.8269C17.7079 85 17.5831 85.1106 17.3475 85.0964Z" fill="black"/>
</svg>
