<svg width="42" height="42" viewBox="0 0 42 42" fill="none" xmlns="http://www.w3.org/2000/svg">
<g clip-path="url(#clip0_875_24095)">
<g clip-path="url(#clip1_875_24095)">
<path d="M32.25 31.2484C34.7104 27.7781 35.8171 23.8531 36.4111 19.7106C37.1291 14.6846 36.8674 9.65369 36.331 4.59755C36.2283 3.62935 35.9577 1.59108 35.9577 1.59108C35.9039 1.59679 33.9675 1.80219 32.9993 1.9049C27.9432 2.44124 22.9694 3.24081 18.2058 4.99718C14.2744 6.3933 10.6746 8.35258 7.79779 11.4862C5.0652 14.4414 3.69772 17.9589 3.46877 21.9539C3.31156 27.138 6.75493 31.3963 8.39064 33.9969L13.6798 27.4525C13.5551 27.3025 13.4842 27.1468 13.4613 26.9317L12.3487 16.4429C12.286 15.8512 12.713 15.262 13.3585 15.1935C13.9501 15.1307 14.5394 15.5578 14.6079 16.2032L15.555 25.1322L29.1144 8.35473C29.4991 7.87878 30.1983 7.8046 30.6743 8.18927C31.1502 8.57393 31.2244 9.27318 30.8398 9.74914L22.4733 20.1012L28.7128 19.4393C29.3045 19.3766 29.8937 19.8036 29.9622 20.4491C30.025 21.0407 29.5979 21.63 28.9524 21.6984L20.5076 22.5942L10.116 35.3913C13.0076 36.4988 17.8877 38.9184 22.9235 37.6771C26.7816 36.6151 29.9339 34.5401 32.25 31.2484Z" fill="white"/>
</g>
</g>
<defs>
<clipPath id="clip0_875_24095">
<rect width="37.5028" height="37.5028" fill="white" transform="translate(0 3.95605) rotate(-6.0551)"/>
</clipPath>
<clipPath id="clip1_875_24095">
<rect width="34.6179" height="34.6179" fill="white" transform="translate(1.58691 5.23706) rotate(-6.0551)"/>
</clipPath>
</defs>
</svg>
