<svg xmlns="http://www.w3.org/2000/svg" width="117" height="117" viewBox="0 0 117 117" fill="none"> <path fill-rule="evenodd" clip-rule="evenodd" d="M16.7425 78.6626L56.0427 69.9905L57.7804 69.571C56.9286 65.889 57.5623 62.7371 61.2443 61.8853C64.9263 61.0335 68.4977 63.4049 69.3495 67.0869L109.115 59.2158C108.979 58.7055 108.682 57.2715 108.644 56.6514C103.011 31.1682 77.8426 15.2015 52.4564 20.7248C27.0702 26.248 11.0065 51.5258 16.5297 76.9121C16.5683 77.5322 16.6069 78.1523 16.7425 78.6626Z" fill="#FEED4A"/> <path fill-rule="evenodd" clip-rule="evenodd" d="M16.671 79.1856L52.7738 70.8164C52.4316 70.3189 52.1348 68.8849 51.9993 68.3746C51.2573 64.7895 53.5188 61.1212 57.3106 60.3663C60.8957 59.6243 64.564 61.8859 65.3189 65.6777C65.4544 66.188 65.6543 67.7318 65.5831 68.255L101.847 60.8094C101.712 60.2991 101.415 58.8651 101.376 58.245C96.4792 34.5835 73.4425 19.5216 49.8779 24.3089C26.2165 29.206 11.1546 52.2427 15.9419 75.8073C15.9805 76.4274 16.5354 78.6753 16.671 79.1856Z" fill="#FFF8C8"/> <path fill-rule="evenodd" clip-rule="evenodd" d="M28.6654 55.1983L48.1897 63.839C50.5407 64.9376 50.1265 68.2834 47.6718 68.8512L26.7815 73.2645C21.5557 74.3162 16.7252 70.0519 17.3271 64.7231L17.6444 61.4871C18.2592 56.3651 23.8666 53.1109 28.6654 55.1983Z" fill="#FEED4A"/> <path fill-rule="evenodd" clip-rule="evenodd" d="M41.3925 39.6731L51.9879 58.2073C53.2728 60.5135 50.9339 62.9417 48.6928 61.9399L29.2653 53.1896C24.3568 51.0052 23.0341 44.7588 26.7297 40.7936L28.8618 38.3783C32.3508 34.4261 38.713 34.9637 41.3925 39.6731Z" fill="#FEED4A"/> <path fill-rule="evenodd" clip-rule="evenodd" d="M60.8942 34.6201L58.5833 55.8254C58.3243 58.3315 54.9459 59.0606 53.6611 56.7544L43.0657 38.2203C40.496 33.6078 43.1392 27.7369 48.365 26.6852L51.5367 25.969C56.7625 24.9173 61.4961 29.2914 60.8942 34.6201Z" fill="#FEED4A"/> <path fill-rule="evenodd" clip-rule="evenodd" d="M79.6118 41.9623L65.2299 57.5904C63.5823 59.4568 60.3788 57.9962 60.6378 55.4901L63.1683 34.4787C63.7702 29.1499 69.2807 26.0055 74.1892 28.1899L77.0762 29.5664C81.9848 31.7508 83.3074 37.9972 79.6118 41.9623Z" fill="#FEED4A"/> <path fill-rule="evenodd" clip-rule="evenodd" d="M90.4214 58.9269L69.5182 63.1335C66.9538 63.6044 65.3138 60.594 67.0712 58.8246L81.4531 43.1965C85.0519 39.3412 91.427 40.0855 93.9967 44.698L95.6238 47.5017C98.4002 52.1013 95.6472 57.8753 90.4214 58.9269Z" fill="#FEED4A"/> </svg>