<svg xmlns="http://www.w3.org/2000/svg" width="119" height="121" viewBox="0 0 119 121" fill="none"> <path d="M73.9999 26.9147C73.7524 27.0713 73.3028 27.1825 72.977 27.2153C72.0451 27.1119 71.3732 26.324 71.353 25.4703C72.0716 12.3649 81.2898 9.13128 81.6156 9.09842C82.5147 8.87609 83.4796 9.30536 83.7019 10.2045C84.048 11.0252 83.4949 12.0684 82.5958 12.2907C82.27 12.3236 75.1758 15.0796 74.4746 25.7478C74.7095 26.1191 74.3712 26.6798 73.9999 26.9147Z" fill="#010101"/> <path fill-rule="evenodd" clip-rule="evenodd" d="M72.1376 21.5076C78.9948 23.5806 83.9252 28.0858 86.5218 31.6417C94.5137 42.3546 94.369 63.7617 87.2735 80.2091C78.981 99.1468 62.0477 110.728 46.9015 108.701C44.6334 108.404 38.1531 112.677 36.0214 111.773C32.1621 110.056 32.9899 102.601 30.4262 99.3707C21.7826 88.7235 18.5658 68.5769 26.2347 51.9401C42.1709 17.4212 66.9751 19.922 72.1376 21.5076Z" fill="#FEEB17"/> <path d="M65.6737 98.3818C61.4663 101.044 56.6324 102.716 51.4119 101.861C50.4799 101.757 49.9318 100.891 50.0353 99.9591C50.1387 99.0271 51.005 98.479 51.9369 98.5824C63.5574 100.241 73.6992 87.2381 74.3934 83.6795C74.4969 82.7475 75.3631 82.1993 76.295 82.3028C77.227 82.4063 77.7752 83.2726 77.6717 84.2045C76.8992 87.6394 72.2324 94.2316 65.6737 98.3818Z" fill="#FFF8C8"/> <path d="M106.505 74.451C113.855 42.2463 91.8072 24.6573 78.8178 22.4788C78.7395 22.3551 75.2418 54.8953 106.505 74.451Z" fill="#41A935"/> <path d="M72.8997 13.3997C40.8768 5.24212 22.7725 26.7492 20.2682 39.7715C20.2682 39.7715 52.5029 44.1557 72.8997 13.3997Z" fill="#41A935"/> </svg>