<svg width="65" height="86" viewBox="0 0 65 86" fill="none" xmlns="http://www.w3.org/2000/svg">
<path d="M64.332 12.8587C51.0267 5.34545 37.3883 15.2431 40.0864 21.7677C43.2081 29.0275 53.8146 27.3236 64.332 12.8587Z" fill="#41A935"/>
<path d="M21.7934 79.3942C21.3552 79.4835 20.8983 79.2571 20.7125 78.7929L20.0771 77.69L18.6586 78.3441C18.0718 78.6005 17.4218 78.3221 17.1654 77.7354C16.909 77.1487 17.1873 76.4987 17.774 76.2423L20.121 75.2165C20.7077 74.9601 21.2611 75.2125 21.5435 75.7027L22.7437 77.7858C23.0261 78.276 22.8183 79.0486 22.3282 79.3309C22.1091 79.3756 21.9865 79.4462 21.7934 79.3942Z" fill="#1E1E1C"/>
<path d="M24.7918 29.3562C24.7918 29.3562 28.5086 26.3172 34.3401 28.5068C39.1352 30.3141 40.8135 28.6944 44.5032 35.3821C47.0894 40.0126 49.2502 50.8455 47.2952 58.5004C45.3401 66.1553 37.1322 78.9631 24.0954 75.4572C22.5503 75.0416 22.3978 74.0686 21.4321 73.8089C20.4924 73.4527 19.9243 74.0248 18.4758 73.6352C6.83558 70.7119 3.80816 55.4003 9.41672 44.1716C9.51329 44.1976 14.079 35.6915 24.7918 29.3562Z" fill="#B2CC1E"/>
<path d="M35.5744 32.7736C35.4518 32.8442 35.2587 32.7923 35.0655 32.7404C34.4861 32.5845 34.1591 31.8753 34.3149 31.2959C35.9291 26.4488 36.6848 19.4033 34.9677 15.0065C34.7113 14.4198 34.9896 13.7698 35.5764 13.5133C36.1631 13.2569 36.8131 13.5353 37.0695 14.122C39.1136 19.228 38.1762 26.9495 36.51 31.9897C36.3802 32.4726 35.9866 32.781 35.5744 32.7736Z" fill="#010101"/>
<path d="M34.5346 33.9439C33.6655 33.7102 32.6552 33.2314 31.7487 32.3663C31.2472 31.9207 31.2359 31.1928 31.6554 30.7879C32.075 30.383 32.8289 30.275 33.2338 30.6946C35.407 32.6252 37.4382 31.6182 37.6833 31.477C38.1735 31.1946 38.946 31.4023 39.2284 31.8925C39.5108 32.3827 39.4256 33.0846 38.8129 33.4376C38.0517 33.9578 36.3694 34.4373 34.5346 33.9439Z" fill="#010101"/>
<path d="M15.2198 65.7181C15.0267 65.6662 14.9301 65.6402 14.763 65.4917C9.95972 61.4041 11.6851 55.7584 11.763 55.4687C11.9188 54.8893 12.6281 54.5623 13.2075 54.7181C13.7869 54.8739 14.1139 55.5832 13.9581 56.1626C13.9062 56.3557 12.641 60.6754 16.1774 63.6975C16.6789 64.143 16.7163 64.7744 16.2707 65.2759C16.0443 65.7328 15.6061 65.822 15.2198 65.7181Z" fill="#E5E573"/>
</svg>
