<svg width="27" height="27" viewBox="0 0 27 27" xmlns="http://www.w3.org/2000/svg">
<path d="M20.0684 0H6.93164C3.10343 0 0 3.10343 0 6.93164V20.0684C0 23.8966 3.10343 27 6.93164 27H20.0684C23.8966 27 27 23.8966 27 20.0684V6.93164C26.9982 3.10343 23.8948 0 20.0684 0ZM9.49681 20.6475H6.24061V10.1292H9.49681V20.6475ZM7.85361 8.75426C6.78953 8.75426 5.92796 7.88381 5.92796 6.81262C5.92796 5.74143 6.78953 4.87276 7.85361 4.87276C8.91592 4.87276 9.77926 5.74143 9.77926 6.81262C9.77749 7.88381 8.91592 8.75426 7.85361 8.75426ZM21.6974 20.6475H18.4571C18.4571 20.6475 18.4571 16.6416 18.4571 15.1263C18.4571 13.6128 17.8816 12.7672 16.6843 12.7672C15.3804 12.7672 14.7 13.6483 14.7 15.1263C14.7 16.7464 14.7 20.6475 14.7 20.6475H11.577V10.1292H14.7V11.5468C14.7 11.5468 15.6379 9.80946 17.8691 9.80946C20.0986 9.80946 21.6956 11.172 21.6956 13.9876C21.6974 16.8051 21.6974 20.6475 21.6974 20.6475Z"/>
</svg>
