<svg width="89" height="86" viewBox="0 0 89 86" fill="none" xmlns="http://www.w3.org/2000/svg">
<path fill-rule="evenodd" clip-rule="evenodd" d="M45.6268 75.2556C53.8264 80.6261 64.7805 78.3197 70.1509 70.1202C75.5213 61.9206 73.215 50.9665 65.0154 45.5961C60.0159 42.3698 54.794 42.9045 51.73 45.9621C49.7589 47.9562 49.5463 51.2062 47.9333 54.0176C45.0953 58.9249 42.316 59.5194 41.1629 62.4021C38.5608 68.6479 40.9238 72.1722 45.6268 75.2556Z" fill="#E20E17"/>
<path d="M66.9829 70.1835C67.3403 69.754 67.7488 69.2632 68.0449 68.7827C68.2899 68.3635 68.2385 67.8015 67.7579 67.5054C67.3388 67.2604 66.7767 67.3119 66.4807 67.7924C64.4897 70.8084 61.5579 72.8338 58.002 73.6127C54.4971 74.3303 50.9197 73.6376 47.965 71.6977L47.7913 71.657C47.321 71.4733 46.8306 71.6882 46.647 72.1584C46.5144 72.5673 46.6679 73.0067 46.9747 73.262C50.3486 75.4469 54.4472 76.2619 58.3914 75.3907C61.835 74.6221 64.7873 72.8215 66.9829 70.1835Z" fill="#B01918"/>
<path d="M63.8523 48.9897L63.9033 48.9283C64.1483 48.5092 64.0969 47.9471 63.6164 47.6511C59.9357 45.2109 55.9194 45.2951 53.4785 47.729C53.1108 48.046 53.1111 48.6694 53.4792 48.9758C53.7963 49.3435 54.4197 49.3431 54.726 48.975C56.544 47.1649 59.661 47.163 62.6157 49.1029C63.0452 49.4603 63.5459 49.3578 63.8523 48.9897Z" fill="#E94455"/>
<path d="M15.8147 23.8588C15.9168 23.7361 16.0189 23.6134 16.0189 23.6134C16.2639 23.1942 16.2125 22.6322 15.7933 22.3872C15.3741 22.1422 14.8121 22.1936 14.5671 22.6128C14.516 22.6741 13.3112 24.3713 10.491 25.1396C9.99031 25.2421 9.75559 25.7737 9.8581 26.2744C9.96061 26.7751 10.4922 27.0098 10.9929 26.9073C13.7517 26.088 15.3041 24.4723 15.8147 23.8588Z" fill="#010101"/>
<path d="M51.2463 56.7749C51.2974 56.7136 51.2974 56.7136 51.3484 56.6522C51.5934 56.2331 51.4296 55.6813 51.0104 55.4363C22.7125 39.777 16.718 30.6342 15.6117 26.5981C15.1712 24.8815 15.6101 24.1045 15.6612 24.0431C15.9062 23.624 15.8037 23.1233 15.3742 22.7658C14.9448 22.4084 14.4544 22.6234 14.148 22.9915C14.0459 23.1142 13.2495 24.3206 13.8131 26.7627C15.0326 32.0353 22.3151 41.6271 50.1325 56.9902C50.4903 57.1842 50.94 57.143 51.2463 56.7749Z" fill="#010101"/>
<path d="M50.8482 57.378C51.512 56.5804 52.1449 55.4456 52.3483 53.9534C52.4196 53.4935 52.0923 53.0134 51.5199 52.9524C51.06 52.8812 50.5799 53.2085 50.5189 53.7809C50.2343 56.244 48.2319 57.2774 48.1808 57.3388C47.7518 57.6048 47.5681 58.075 47.783 58.5654C48.049 58.9945 48.5192 59.1781 49.0096 58.9632C49.0607 58.9018 49.9802 58.4209 50.8482 57.378Z" fill="#010101"/>
<path d="M18.7487 25.5738C19.8836 10.1107 32.1237 5.13622 38.3173 5.92947C38.3173 5.92947 35.5572 20.9746 18.7487 25.5738Z" fill="#41A935"/>
</svg>
