<svg xmlns="http://www.w3.org/2000/svg" width="179" height="243" viewBox="0 0 179 243" fill="none"> <path d="M159.49 86.2266C157.121 64.3701 137.872 48.6909 116.015 51.0596C104.923 52.3552 95.2933 57.9265 88.8715 66.1109C88.8715 66.1109 77.3736 85.8769 43.9968 105.154C37.4249 108.173 31.7425 112.504 27.0026 117.872C27.0026 117.872 27.0027 117.872 26.6747 118.095C16.8668 129.054 11.4319 143.991 13.2057 160.026C15.4688 182.433 31.4373 200.336 51.9316 206.552C62.9239 220.647 80.7412 228.917 99.687 226.846C118.305 224.997 134.507 216.407 141.729 198.103C164.005 129.612 159.851 90.291 159.49 86.2266Z" fill="#FEC90A"/> <path d="M46.4125 224.897C45.3116 224.686 44.0939 223.596 44.03 222.442L43.2877 218.876L39.1706 219.512C37.4136 219.746 35.9207 218.603 35.6872 216.846C35.4536 215.089 36.5962 213.596 38.3532 213.363L45.3811 212.429C47.1381 212.195 48.6309 213.338 48.9172 214.82L50.2323 221.35C50.4658 223.107 49.5983 224.652 47.7886 225.161C47.2381 225.056 46.6877 224.95 46.4125 224.897Z" fill="#1E1E1C"/> <path d="M148.431 91.8085C146.646 74.3445 131.05 61.9346 113.586 63.7195C104.578 64.5591 97.0863 69.3992 91.8599 75.8155C91.8599 75.8155 72.5307 99.2149 45.8843 114.647C40.5717 117.052 35.8736 120.716 32.2235 124.866C32.2235 124.866 32.2234 124.866 31.8953 125.089C23.939 133.835 19.6357 145.85 20.8895 158.647C22.844 176.714 35.5404 190.85 51.7368 195.67C60.4522 206.76 74.85 213.518 90.0066 211.861C104.888 210.151 117.862 203.51 123.795 188.954C147.886 134.793 148.898 95.3225 148.431 91.8085Z" fill="#FDF187"/> <path d="M130.248 72.0536C129.697 71.9479 129.422 71.8952 128.924 71.5143C127.432 70.3717 127.198 68.6148 128.341 67.1219C136.55 55.5709 144.375 37.0975 143.174 24.0259C142.941 22.2689 144.359 20.8289 146.116 20.5953C147.873 20.3618 149.313 21.7797 149.546 23.5366C150.875 38.9157 142.182 58.9347 133.317 70.9305C132.555 71.9257 131.349 72.2648 130.248 72.0536Z" fill="#010101"/> <path d="M86.0893 125.216C86.1421 124.94 86.4174 124.993 86.6398 125.321C88.091 128.168 94.5853 143.397 84.2019 143.973C73.7657 144.823 84.3546 128.307 86.0893 125.216Z" fill="#010101"/> <path d="M94.2965 134.496C93.3652 134.888 92.3699 134.126 92.5812 133.025C93.86 127.849 97.5074 116.278 105.183 120.89C113.304 126.158 99.8315 132.419 94.2965 134.496Z" fill="#010101"/> </svg>