<svg xmlns="http://www.w3.org/2000/svg" width="118" height="154" viewBox="0 0 118 154" fill="none"> <path d="M13.818 57.504C14.3815 43.9865 25.7625 33.5166 39.2346 34.1077C46.1678 34.4064 52.2916 37.6018 56.5397 42.4622L56.5564 42.4579C56.5564 42.4579 64.4043 54.1735 85.6668 64.9355C89.8285 66.6092 93.5513 69.0769 96.7039 72.1751C96.7461 72.2001 96.7882 72.2251 96.8303 72.2502L96.8012 72.2756C103.293 78.7108 107.186 87.7495 106.771 97.6076C106.191 111.614 97.1423 123.241 84.786 127.759C78.5301 136.841 67.9243 142.612 56.1142 142.096C44.5392 141.592 34.3098 136.941 29.0596 125.885C29.0342 125.855 29.0299 125.839 29.0088 125.826L29.0256 125.822C12.6871 84.5938 13.7202 60.1822 13.818 57.504Z" fill="#FEC90A"/> <path d="M88.8294 139.125C89.5664 138.936 90.1576 138.318 90.2777 137.534L90.6261 135.276L93.2034 135.438C94.2737 135.504 95.2243 134.686 95.2834 133.596C95.3425 132.505 94.5301 131.566 93.443 131.505L89.0692 131.23C88.0702 131.164 87.165 131.88 87.013 132.887L86.3881 136.92C86.2199 138.003 86.9572 138.997 88.02 139.172C88.3139 139.204 88.5781 139.19 88.8294 139.125Z" fill="#1E1E1C"/> <path d="M20.717 60.59C21.1703 49.7718 30.2676 41.3942 41.0495 41.8696C46.5936 42.1127 51.5002 44.6707 54.8893 48.5506C54.8893 48.5506 67.7407 62.2975 84.754 70.9062C88.095 72.235 91.0885 74.2268 93.5945 76.6843C93.6366 76.7094 93.6577 76.7219 93.6999 76.7469L93.6707 76.7723C98.8691 81.9264 101.977 89.159 101.644 97.0422C101.169 108.26 93.9327 117.558 84.0367 121.158C79.0304 128.431 70.539 133.05 61.0917 132.626C51.8249 132.209 43.6415 128.503 39.4396 119.651C39.4185 119.639 39.4142 119.622 39.4099 119.605L39.4266 119.601C22.8546 87.127 20.6237 62.7292 20.717 60.59Z" fill="#FDF187"/> <path d="M31.3086 47.7414C31.5766 47.6725 31.8317 47.5533 32.0651 47.3499C32.9033 46.6506 33.0159 45.4207 32.3342 44.574C26.7671 37.7758 21.2224 26.6159 21.4434 18.4387C21.469 17.3565 20.6107 16.4476 19.5322 16.4199C18.4537 16.3921 17.5496 17.2518 17.524 18.3339C17.2671 27.9006 23.4643 39.9327 29.315 47.0703C29.8146 47.6949 30.6051 47.9221 31.3086 47.7414Z" fill="#010101"/> <path d="M60.4288 79.018C60.344 78.8964 60.1554 78.9269 60.1019 79.0662C59.377 80.9015 55.9187 90.448 62.3468 90.5179C68.8084 90.5792 61.7339 80.7623 60.4288 79.018Z" fill="#010101"/> <path d="M55.7663 85.0557C56.3341 85.2505 56.8923 84.7127 56.712 84.1495C55.7957 81.0686 53.0874 73.9305 48.4963 77.1891C43.8133 80.5072 52.3593 83.8872 55.7663 85.0557Z" fill="#010101"/> </svg>