<svg xmlns="http://www.w3.org/2000/svg" width="74" height="64" viewBox="0 0 74 64" fill="none"> <g clip-path="url(#clip0_1421_18450)"> <path fill-rule="evenodd" clip-rule="evenodd" d="M65.6699 0.457336L38.0997 19.8873L36.8891 20.7236C38.6985 23.3369 39.2712 25.9502 36.7068 27.8056C36.0983 28.2346 35.4115 28.5391 34.6858 28.7017C33.96 28.8643 33.2094 28.8817 32.4769 28.7531C31.7444 28.6245 31.0443 28.3523 30.4166 27.9521C29.7889 27.5519 29.2458 27.0315 28.8184 26.4206V26.4206L0.688477 45.2756C0.948819 45.6807 1.6257 46.6868 1.89906 47.0788C8.07702 55.2356 17.1622 60.6734 27.2481 62.2513C37.3341 63.8293 47.6368 61.4246 55.9946 55.542C64.3524 49.6593 70.1156 40.7559 72.0749 30.6999C74.0341 20.644 72.0372 10.2171 66.503 1.6072C66.2557 1.2152 65.9693 0.849333 65.6699 0.457336Z" fill="#E9520E"/> <path fill-rule="evenodd" clip-rule="evenodd" d="M65.657 0L40.4689 18.0972C40.946 18.6194 41.3813 19.1787 41.7707 19.7697C42.1895 20.3874 42.4829 21.0819 42.6344 21.8135C42.7858 22.5451 42.7922 23.2995 42.6532 24.0335C42.5142 24.7676 42.2325 25.467 41.8242 26.0918C41.4159 26.7166 40.8891 27.2546 40.2737 27.675C39.6583 28.0954 38.9664 28.39 38.2376 28.542C37.5088 28.694 36.7573 28.7004 36.026 28.5609C35.2947 28.4213 34.5979 28.1386 33.9755 27.7288C33.3531 27.3189 32.8171 26.79 32.3983 26.1723C31.9883 25.5731 31.6311 24.9392 31.3309 24.2777L5.7002 41.7607C5.94752 42.1658 6.62446 43.1719 6.8848 43.577C12.3292 51.6151 20.7316 57.1531 30.2436 58.9725C39.7557 60.792 49.5982 58.7439 57.606 53.2789C65.6137 47.8139 71.1307 39.3795 72.9433 29.8313C74.7558 20.2831 72.7156 10.4032 67.2712 2.36505C67.063 1.97306 65.9304 0.37893 65.657 0Z" fill="#F9B812"/> <path d="M23.8589 43.5639C23.5103 43.5641 23.1732 43.4389 22.9086 43.2111C22.6096 42.9573 22.4226 42.5951 22.3885 42.2035C22.3543 41.8118 22.4758 41.4225 22.7264 41.1204L31.565 30.6672C31.817 30.3674 32.1774 30.1804 32.5668 30.1474C32.9561 30.1143 33.3426 30.2378 33.6412 30.4908C33.9399 30.7438 34.1261 31.1055 34.1591 31.4963C34.1921 31.8872 34.069 32.2752 33.817 32.5749L24.9913 43.0282C24.8529 43.1949 24.6797 43.3292 24.4841 43.4218C24.2885 43.5143 24.0751 43.5628 23.8589 43.5639Z" fill="#E9520E"/> <path d="M40.6251 45.7983C40.2671 45.7943 39.9228 45.6594 39.6568 45.4189C39.3908 45.1783 39.2214 44.8486 39.1802 44.4916L37.3187 33.5157C37.2874 33.1436 37.3965 32.7732 37.6244 32.478C37.8523 32.1827 38.1824 31.9842 38.5492 31.9217C38.916 31.8593 39.2929 31.9374 39.605 32.1407C39.9171 32.3439 40.1419 32.6575 40.2346 33.0192L42.083 44.1258C42.1164 44.3173 42.1116 44.5136 42.0686 44.7032C42.0256 44.8928 41.9454 45.0719 41.8327 45.23C41.72 45.3882 41.5771 45.5222 41.4122 45.6243C41.2473 45.7263 41.0638 45.7943 40.8724 45.8244L40.6251 45.7983Z" fill="#E9520E"/> <path d="M53.291 36.6778C52.9201 36.6763 52.563 36.5366 52.2888 36.2858L44.075 28.6288C43.9331 28.4967 43.8185 28.3378 43.7378 28.1612C43.6571 27.9847 43.6118 27.7939 43.6046 27.5997C43.5973 27.4056 43.6282 27.2119 43.6955 27.0298C43.7628 26.8476 43.8652 26.6806 43.9969 26.5382C44.1285 26.3958 44.2868 26.2807 44.4627 26.1997C44.6386 26.1187 44.8286 26.0733 45.022 26.066C45.2154 26.0587 45.4084 26.0897 45.5899 26.1573C45.7713 26.2249 45.9377 26.3276 46.0796 26.4598L54.2934 34.1037C54.5814 34.3724 54.7515 34.7449 54.7661 35.1393C54.7808 35.5338 54.6388 35.9179 54.3715 36.2074C54.2344 36.3576 54.0674 36.4771 53.8812 36.5581C53.6951 36.6392 53.4939 36.68 53.291 36.6778V36.6778Z" fill="#E9520E"/> <path d="M45.9623 22.2001C45.5722 22.2156 45.1919 22.075 44.9051 21.8092C44.6182 21.5433 44.4483 21.1739 44.4328 20.7823C44.4173 20.3907 44.5574 20.009 44.8223 19.721C45.0871 19.4331 45.4551 19.2626 45.8452 19.247L57.0139 18.3193C57.3954 18.2896 57.7735 18.4089 58.0694 18.6524C58.3653 18.8958 58.5561 19.2446 58.602 19.6259C58.6383 20.0103 58.5219 20.3935 58.2781 20.6921C58.0343 20.9907 57.6828 21.1804 57.3002 21.2201L46.1315 22.1478L45.9623 22.2001Z" fill="#E9520E"/> </g> <defs> <clipPath id="clip0_1421_18450"> <rect width="73" height="64" fill="white" transform="translate(0.688477)"/> </clipPath> </defs> </svg>