<svg xmlns="http://www.w3.org/2000/svg" width="135" height="136" viewBox="0 0 135 136" fill="none"> <path d="M134.968 67.8315C134.968 30.5217 104.794 0.347655 67.4839 0.347653C30.1741 0.347652 7.10206e-05 30.5217 6.93898e-05 67.8315C6.77589e-05 105.141 30.1741 135.315 67.4839 135.315C104.794 135.315 134.968 105.141 134.968 67.8315ZM41.1836 67.8315C41.1836 53.3561 53.0085 41.5312 67.4839 41.5312C81.9593 41.5312 93.7843 53.3561 93.7843 67.8315C93.7843 82.3069 81.9593 94.1318 67.4839 94.1318C53.0085 94.1318 41.1836 82.3069 41.1836 67.8315Z" fill="#FBDE62"/> <path d="M126.812 67.628C126.812 35.0074 100.308 8.50317 67.6877 8.50317C35.0671 8.50317 8.5629 35.0074 8.5629 67.628C8.5629 100.249 35.0671 126.753 67.6877 126.753C100.308 126.753 126.812 100.249 126.812 67.628ZM44.4455 67.628C44.4455 54.9875 54.8433 44.5897 67.4838 44.5897C80.1243 44.5897 90.5221 54.9875 90.5221 67.628C90.5221 80.2684 80.1243 90.6663 67.4838 90.6663C54.8433 90.6663 44.4455 80.2684 44.4455 67.628Z" fill="#FDECA1"/> <path d="M80.9391 108.607C80.9391 101.268 74.8227 95.3552 67.2792 95.3552C59.7357 95.3552 53.6193 101.268 53.6193 108.607L50.5612 129.199L84.6089 129.199L80.9391 108.607Z" fill="#FBDE62"/> <path d="M74.0076 108.811C74.0076 105.141 70.9494 102.287 67.2796 102.287C63.6098 102.287 60.5517 105.141 60.5517 108.811L56.8818 129.199L77.8813 129.199L74.0076 108.811Z" fill="#FDECA1"/> <path d="M48.7266 106.161C53.8236 100.86 53.6197 92.5008 48.3189 87.1999C43.018 81.8991 34.4551 81.8991 29.3581 86.996L12.6401 99.6365L36.9016 123.49L48.7266 106.161Z" fill="#FBDE62"/> <path d="M29.3586 48.26C34.6594 53.357 43.0185 53.1531 48.3193 47.8523C53.6202 42.5514 53.6201 33.9885 48.5232 28.8916L35.8827 12.1735L12.0289 36.4351L29.3586 48.26Z" fill="#FBDE62"/> <path d="M86.2406 29.2986C81.1437 34.5995 81.3475 42.9585 86.6484 48.2593C91.9492 53.5601 100.512 53.5602 105.609 48.4632L122.327 35.8227L98.0656 11.9689L86.2406 29.2986Z" fill="#FBDE62"/> <path d="M105.609 87.2001C100.308 82.1031 91.9489 82.307 86.6481 87.6078C81.3472 92.9087 81.3472 101.472 86.4442 106.569L99.0847 123.287L122.938 99.025L105.609 87.2001Z" fill="#FBDE62"/> <path d="M27.1156 80.8796C34.4552 80.8796 40.3677 74.7633 40.3677 67.2198C40.3677 59.6762 34.4552 53.5599 27.1156 53.5599L6.52381 50.5017L6.52381 84.5494L27.1156 80.8796Z" fill="#FBDE62"/> <path d="M107.648 54.1715C100.308 54.1715 94.3959 60.2879 94.3959 67.8314C94.3959 75.3749 100.308 81.4913 107.648 81.4913L128.24 84.5494L128.24 50.5017L107.648 54.1715Z" fill="#FBDE62"/> <path d="M54.231 26.2401C55.6581 33.5797 60.3473 39.4922 67.8908 39.4922C75.4344 39.4922 80.3274 33.5797 81.5507 26.2401L84.6089 5.64832L50.5612 5.64831L54.231 26.2401Z" fill="#FBDE62"/> <path d="M43.222 101.065C45.6686 98.4143 45.6686 94.3367 43.0182 91.6863C40.3677 89.0359 36.0863 89.0359 33.6397 91.6863L16.7178 103.715L31.8048 118.191L43.222 101.065Z" fill="#FDECA1"/> <path d="M26.912 74.1519C30.5818 74.1519 33.436 71.0937 33.436 67.4239C33.436 63.7541 30.5818 60.6959 26.912 60.6959L6.52409 57.0261L6.52409 78.0256L26.912 74.1519Z" fill="#FDECA1"/> <path d="M34.2516 42.9583C36.902 45.6087 40.9796 45.4049 43.63 42.7544C46.2804 40.104 46.2804 35.8226 43.8338 33.376L32.0089 16.4541L17.3296 31.3372L34.2516 42.9583Z" fill="#FDECA1"/> <path d="M60.7555 26.0362C61.7749 29.5021 63.8137 32.5603 67.4835 32.5603C71.1533 32.5603 73.1921 29.2982 74.2115 26.0362L77.8813 5.64832L56.8818 5.64831L60.7555 26.0362Z" fill="#FDECA1"/> <path d="M90.9301 33.7836C89.0952 37.0457 88.4835 40.5116 91.134 43.162C93.7844 45.8124 97.4542 44.9969 100.512 43.3659L117.638 31.5409L102.959 16.6578L90.9301 33.7836Z" fill="#FDECA1"/> <path d="M107.852 61.1034C104.386 62.1228 101.328 64.1616 101.328 67.8314C101.328 71.5012 104.59 73.54 107.852 74.5594L128.24 78.2292L128.24 57.2297L107.852 61.1034Z" fill="#FDECA1"/> <path d="M100.92 92.0921C97.6578 90.461 94.1919 89.6455 91.5414 92.2959C88.891 94.9464 89.7065 98.6162 91.5414 101.674L103.57 118.596L118.25 103.713L100.92 92.0921Z" fill="#FDECA1"/> </svg>