<svg width="194" height="165" viewBox="0 0 194 165" fill="none" xmlns="http://www.w3.org/2000/svg">
<ellipse cx="149.58" cy="13.8753" rx="4.29723" ry="8.28751" fill="#092355"/>
<ellipse cx="188.869" cy="13.8753" rx="4.29723" ry="8.28751" fill="#092355"/>
<rect x="149.58" y="6.81555" width="39.289" height="13.5056" fill="#092355"/>
<ellipse cx="4.29723" cy="13.8753" rx="4.29723" ry="8.28751" fill="#092355"/>
<ellipse cx="43.5863" cy="13.8753" rx="4.29723" ry="8.28751" fill="#092355"/>
<rect x="4.29688" y="6.81555" width="39.289" height="13.5056" fill="#092355"/>
<rect x="51.1465" y="157.253" width="90.3255" height="7.07369" rx="3.53684" fill="#F9B812"/>
<rect x="80.5312" width="31.5595" height="25.5741" rx="12.787" fill="#F9B812"/>
<rect x="93.0449" y="18.5004" width="7.07369" height="141.474" fill="#F9B812"/>
<rect x="42.4414" y="10.3385" width="108.282" height="7.07369" rx="3.53684" fill="#F9B812"/>
<path fill-rule="evenodd" clip-rule="evenodd" d="M103.872 6.81106C101.495 4.23556 98.0565 3.91308 96.6773 4.07534C96.2296 4.12801 95.824 3.80779 95.7713 3.3601C95.7186 2.91242 96.0388 2.5068 96.4865 2.45413C98.1907 2.25364 102.225 2.6204 105.072 5.70384C107.79 8.64844 108.249 11.2505 107.989 12.4199C107.891 12.86 107.455 13.1374 107.015 13.0396C106.575 12.9419 106.298 12.5059 106.396 12.0658C106.499 11.6029 106.378 9.52541 103.872 6.81106Z" fill="white"/>
</svg>
