<svg xmlns="http://www.w3.org/2000/svg" width="76" height="82" viewBox="0 0 76 82" fill="none"> <g clip-path="url(#clip0_1421_18385)"> <path d="M37.8468 59.3629C41.7183 56.1712 40.6744 48.4632 35.5151 42.1465C30.3558 35.8299 23.0348 33.2965 19.1633 36.4882C15.2918 39.6798 16.3358 47.3878 21.4951 53.7045C26.6544 60.0211 33.9753 62.5545 37.8468 59.3629Z" fill="#D60B78"/> <path d="M23.0541 66.3101C26.9256 63.1185 27.4969 57.3881 24.3301 53.5109C21.1634 49.6338 15.4577 49.0781 11.5862 52.2697C7.71468 55.4614 7.14334 61.1918 10.3101 65.0689C13.4769 68.9461 19.1826 69.5018 23.0541 66.3101Z" fill="#D60B78"/> <path d="M65.163 47.4999C62.7856 34.4491 46.2629 36.5794 44.9707 42.2789C43.5337 48.6055 53.6849 43.2483 65.163 47.4999Z" fill="#41A935"/> <path d="M49.4177 9.54436C62.1283 24.6758 44.0246 41.8431 36.2552 37.9446C27.6838 33.6295 43.3839 26.9532 49.4177 9.54436Z" fill="#70B62E"/> <path d="M33.4067 11.618C48.214 14.2235 45.9317 33.0913 39.493 34.6304C32.3398 36.3183 38.3286 24.7236 33.4067 11.618" fill="#41A935"/> <path d="M67.5652 35.4322C56.1707 19.2772 35.0984 32.5868 36.9181 41.0817C38.9294 50.5415 49.2984 36.9035 67.5652 35.4322Z" fill="#70B62E"/> <path d="M36.1351 34.4546C40.0066 31.2629 40.578 25.5325 37.4112 21.6554C34.2444 17.7782 28.5388 17.2225 24.6672 20.4141C20.7957 23.6058 20.2244 29.3362 23.3912 33.2133C26.5579 37.0905 32.2636 37.6462 36.1351 34.4546Z" fill="#D60B78"/> <path d="M24.939 27.0702C24.778 27.0141 24.6325 26.9207 24.5145 26.7975C24.3964 26.6743 24.309 26.5248 24.2594 26.3612C24.2098 26.1975 24.1994 26.0242 24.229 25.8555C24.2586 25.6868 24.3274 25.5273 24.4299 25.39C26.0238 23.2021 28.4104 21.7305 31.0724 21.2941C31.3592 21.2585 31.6479 21.3388 31.8752 21.5171C32.1024 21.6955 32.2494 21.9574 32.284 22.2453C32.3185 22.5331 32.2377 22.8233 32.0593 23.052C31.8809 23.2807 31.6196 23.4291 31.3328 23.4647C29.2568 23.8426 27.4086 25.0221 26.1847 26.7499C26.0397 26.932 25.8395 27.0619 25.6147 27.1197C25.3899 27.1775 25.1526 27.1601 24.939 27.0702V27.0702Z" fill="#EC6FA6"/> <path d="M48.2093 40.7706C52.0808 37.5789 52.6522 31.8485 49.4854 27.9714C46.3186 24.0942 40.613 23.5385 36.7414 26.7302C32.8699 29.9218 32.2986 35.6522 35.4654 39.5294C38.6321 43.4065 44.3378 43.9622 48.2093 40.7706Z" fill="#D60B78"/> <path d="M37.0062 33.3831C36.8453 33.327 36.6998 33.2336 36.5817 33.1104C36.4636 32.9872 36.3763 32.8378 36.3267 32.6741C36.277 32.5104 36.2666 32.3371 36.2963 32.1684C36.3259 31.9997 36.3947 31.8402 36.4971 31.703C38.0929 29.5102 40.4845 28.0359 43.1518 27.6011C43.2925 27.587 43.4346 27.6009 43.5699 27.642C43.7051 27.6831 43.8309 27.7506 43.94 27.8406C44.0492 27.9305 44.1395 28.0413 44.2059 28.1665C44.2723 28.2916 44.3135 28.4288 44.3271 28.5701C44.3406 28.7114 44.3263 28.8541 44.2849 28.99C44.2436 29.126 44.176 29.2525 44.086 29.3623C43.9961 29.4722 43.8855 29.5633 43.7606 29.6303C43.6357 29.6974 43.499 29.7391 43.3582 29.7532C41.2841 30.1359 39.4375 31.3143 38.2101 33.0384C38.0682 33.2124 37.8768 33.3387 37.6615 33.4004C37.4463 33.462 37.2176 33.4559 37.0062 33.3831V33.3831Z" fill="#EC6FA6"/> <path d="M25.5316 42.5492C29.4031 39.3576 29.9744 33.6272 26.8077 29.7501C23.6409 25.8729 17.9353 25.3172 14.0637 28.5089C10.1922 31.7005 9.62088 37.4309 12.7876 41.308C15.9544 45.1852 21.6601 45.7409 25.5316 42.5492Z" fill="#D60B78"/> <path d="M14.3288 35.1697C14.1678 35.1137 14.0224 35.0203 13.9043 34.8971C13.7862 34.7739 13.6988 34.6244 13.6492 34.4607C13.5996 34.2971 13.5892 34.1238 13.6189 33.9551C13.6485 33.7864 13.7173 33.6269 13.8197 33.4897C15.4156 31.3008 17.8023 29.8265 20.4653 29.3846C20.7501 29.3551 21.0345 29.4402 21.2561 29.6214C21.4776 29.8026 21.6181 30.0649 21.6467 30.3507C21.6752 30.6365 21.5895 30.9224 21.4084 31.1454C21.2273 31.3684 20.9655 31.5103 20.6808 31.5398C18.6078 31.9254 16.7622 33.1032 15.5327 34.8251C15.3926 35.0013 15.2011 35.1293 14.9852 35.1911C14.7694 35.253 14.5398 35.2455 14.3288 35.1697V35.1697Z" fill="#EC6FA6"/> <path d="M20.6293 54.461C24.5008 51.2693 25.0721 45.5389 21.9053 41.6618C18.7386 37.7846 13.0329 37.2289 9.16137 40.4206C5.28985 43.6122 4.71855 49.3426 7.88532 53.2197C11.0521 57.0969 16.7577 57.6526 20.6293 54.461Z" fill="#D60B78"/> <path d="M9.41956 47.0743C9.25981 47.0171 9.11577 46.923 8.99905 46.7996C8.88232 46.6762 8.79617 46.527 8.74752 46.3638C8.69886 46.2007 8.68906 46.0282 8.71891 45.8604C8.74877 45.6925 8.81745 45.5339 8.91941 45.3973C10.5105 43.2063 12.8985 41.7337 15.5619 41.3013C15.8455 41.2714 16.1289 41.3557 16.3499 41.5357C16.5708 41.7158 16.7113 41.9768 16.7403 42.2613C16.7666 42.5469 16.6806 42.8317 16.5007 43.0551C16.3207 43.2784 16.0612 43.4225 15.7774 43.4565C13.7014 43.8344 11.8532 45.0138 10.6293 46.7417C10.4872 46.9171 10.2941 47.0435 10.0771 47.1032C9.86009 47.1628 9.63012 47.1527 9.41956 47.0743V47.0743Z" fill="#EC6FA6"/> <path d="M37.3021 70.0739C41.1736 66.8823 41.7449 61.1519 38.5782 57.2748C35.4114 53.3976 29.7057 52.8419 25.8342 56.0335C21.9627 59.2252 21.3914 64.9555 24.5582 68.8327C27.7249 72.7098 33.4306 73.2656 37.3021 70.0739Z" fill="#D60B78"/> <path d="M39.6097 51.0608C43.4812 47.8691 44.0526 42.1387 40.8858 38.2616C37.719 34.3844 32.0134 33.8287 28.1418 37.0203C24.2703 40.212 23.699 45.9424 26.8658 49.8195C30.0325 53.6967 35.7382 54.2524 39.6097 51.0608Z" fill="#D60B78"/> <path d="M28.4074 43.678C28.2968 43.6431 28.1927 43.5903 28.0992 43.5217C27.8715 43.3468 27.7226 43.0881 27.6849 42.8025C27.6472 42.5169 27.724 42.2275 27.8983 41.9979C29.4951 39.8131 31.8803 38.3423 34.5408 37.9019C34.6828 37.8843 34.8268 37.8949 34.9646 37.9332C35.1023 37.9715 35.2311 38.0366 35.3436 38.125C35.4561 38.2133 35.5501 38.3231 35.6203 38.448C35.6904 38.5729 35.7353 38.7106 35.7524 38.8531C35.7695 38.9957 35.7585 39.1403 35.7199 39.2787C35.6814 39.4171 35.6161 39.5466 35.5278 39.6598C35.4394 39.7731 35.3298 39.8678 35.2052 39.9386C35.0805 40.0094 34.9433 40.055 34.8012 40.0726C32.7283 40.4581 30.8827 41.6359 29.6532 43.3578C29.5071 43.5386 29.307 43.6675 29.0826 43.7252C28.8581 43.7829 28.6213 43.7663 28.4074 43.678Z" fill="#EC6FA6"/> <path d="M30.7349 63.3718C34.627 60.192 35.2247 54.4544 32.0699 50.5565C28.915 46.6586 23.2022 46.0764 19.3101 49.2562C15.4179 52.436 14.8202 58.1735 17.9751 62.0715C21.13 65.9694 26.8427 66.5515 30.7349 63.3718Z" fill="#D60B78"/> <path d="M18.8312 53.9811C18.6715 53.9239 18.5274 53.8298 18.4107 53.7064C18.294 53.5831 18.2078 53.4338 18.1592 53.2706C18.1105 53.1075 18.1007 52.935 18.1306 52.7672C18.1604 52.5993 18.2291 52.4407 18.3311 52.3041C19.9269 50.1152 22.3137 48.6409 24.9767 48.1991C25.2635 48.1635 25.5523 48.2437 25.7795 48.4221C26.0067 48.6005 26.1538 48.8624 26.1883 49.1503C26.2228 49.4381 26.142 49.7283 25.9636 49.957C25.7853 50.1857 25.5239 50.3341 25.2371 50.3697C23.1641 50.7553 21.3185 51.933 20.089 53.6549C19.9411 53.8369 19.7392 53.9667 19.5129 54.0254C19.2866 54.0841 19.0477 54.0686 18.8312 53.9811V53.9811Z" fill="#EC6FA6"/> <path d="M55.5746 54.265C59.4461 51.0734 60.0174 45.343 56.8506 41.4659C53.6839 37.5887 47.9782 37.033 44.1067 40.2246C40.2352 43.4163 39.6638 49.1466 42.8306 53.0238C45.9974 56.9009 51.703 57.4567 55.5746 54.265Z" fill="#D60B78"/> <path d="M44.3672 46.8808C44.2596 46.845 44.1593 46.79 44.0711 46.7186C43.8433 46.5456 43.693 46.289 43.6531 46.0047C43.6132 45.7204 43.6869 45.4314 43.8581 45.2008C45.4547 43.012 47.8449 41.5413 50.5096 41.1079C50.7943 41.0783 51.0788 41.1635 51.3003 41.3446C51.5218 41.5258 51.6624 41.7882 51.691 42.074C51.7195 42.3597 51.6338 42.6456 51.4526 42.8686C51.2715 43.0916 51.0098 43.2335 50.725 43.2631C48.6491 43.641 46.8008 44.8204 45.577 46.5483C45.4349 46.7237 45.2417 46.8501 45.0247 46.9097C44.8077 46.9694 44.5778 46.9593 44.3672 46.8808V46.8808Z" fill="#EC6FA6"/> <path d="M50.558 63.6438C54.4295 60.4521 55.0008 54.7217 51.8341 50.8446C48.6673 46.9674 42.9616 46.4117 39.0901 49.6034C35.2186 52.795 34.6473 58.5254 37.814 62.4025C40.9808 66.2797 46.6864 66.8354 50.558 63.6438Z" fill="#D60B78"/> <path d="M39.3481 56.2624C39.2405 56.2265 39.1402 56.1716 39.0519 56.1001C38.8241 55.9271 38.6739 55.6705 38.634 55.3862C38.5941 55.1019 38.6678 54.8129 38.839 54.5823C40.4375 52.3925 42.8278 50.9192 45.4936 50.4803C45.6356 50.4627 45.7796 50.4734 45.9173 50.5116C46.0551 50.5499 46.1839 50.6151 46.2964 50.7034C46.4089 50.7917 46.5029 50.9015 46.573 51.0264C46.6432 51.1514 46.6881 51.289 46.7052 51.4315C46.7223 51.5741 46.7112 51.7187 46.6727 51.8571C46.6341 51.9955 46.5688 52.125 46.4805 52.2383C46.3922 52.3515 46.2826 52.4462 46.1579 52.517C46.0333 52.5879 45.896 52.6334 45.754 52.651C43.6799 53.0337 41.8333 54.2121 40.6059 55.9362C40.458 56.1182 40.2561 56.248 40.0297 56.3067C39.8034 56.3654 39.5646 56.3499 39.3481 56.2624V56.2624Z" fill="#EC6FA6"/> </g> <defs> <clipPath id="clip0_1421_18385"> <rect width="56.6195" height="66.5604" fill="white" transform="translate(21.6016) rotate(18.9384)"/> </clipPath> </defs> </svg>