<svg width="72" height="83" viewBox="0 0 72 83" fill="none" xmlns="http://www.w3.org/2000/svg">
<path d="M44.7976 69.2216C48.1691 63.7604 46.475 56.6 41.0137 53.2285C35.5525 49.857 28.3921 51.5511 25.0206 57.0124C21.6491 62.4737 23.3432 69.634 28.8045 73.0055C34.2657 76.377 41.4261 74.6829 44.7976 69.2216Z" fill="#D50777"/>
<path d="M64.78 62.4497C68.1515 56.9884 66.4574 49.8281 60.9961 46.4566C55.5349 43.0851 48.3745 44.7792 45.0031 50.2404C41.6316 55.7017 43.3257 62.862 48.7869 66.2335C54.2482 69.605 61.4085 67.9109 64.78 62.4497Z" fill="#D50777"/>
<path d="M57.9538 72.2675C61.3253 66.8063 59.6313 59.6459 54.17 56.2744C48.7087 52.9029 41.5484 54.597 38.1769 60.0583C34.8054 65.5196 36.4995 72.6799 41.9608 76.0514C47.422 79.4229 54.5824 77.7288 57.9538 72.2675Z" fill="#D50777"/>
<path d="M48.4019 42.7184C52.1765 36.6041 50.2798 28.5876 44.1656 24.813C38.0514 21.0384 30.0349 22.9351 26.2603 29.0493C22.4857 35.1635 24.3823 43.18 30.4966 46.9546C36.6108 50.7292 44.6273 48.8326 48.4019 42.7184Z" fill="#9E1664"/>
<path d="M32.0769 28.7175C35.4484 23.2562 33.7543 16.0959 28.293 12.7244C22.8318 9.3529 15.6714 11.047 12.2999 16.5082C8.92845 21.9695 10.6225 29.1299 16.0838 32.5013C21.545 35.8728 28.7054 34.1787 32.0769 28.7175Z" fill="#D50777"/>
<path d="M13.9967 23.0557C13.8704 23.0557 13.7441 23.0557 13.4915 22.9294C12.7336 22.6767 12.3546 21.9188 12.6072 21.1609C14.502 15.603 18.7968 13.5819 18.9231 13.4555C19.681 13.0766 20.4389 13.4556 20.8179 14.2135C21.1968 14.9714 20.8179 15.7293 20.06 16.1082C19.9336 16.2345 16.6494 17.7503 15.2599 22.0451C15.1336 22.6767 14.502 23.0557 13.9967 23.0557Z" fill="#EB6EA4"/>
<path d="M25.8816 43.4147C29.253 37.9535 27.559 30.7931 22.0977 27.4217C16.6364 24.0502 9.4761 25.7443 6.10461 31.2055C2.73313 36.6668 4.42722 43.8271 9.88847 47.1986C15.3497 50.5701 22.5101 48.876 25.8816 43.4147Z" fill="#D50777"/>
<path d="M7.80728 37.8345C7.68096 37.8345 7.55464 37.8345 7.30201 37.7082C6.5441 37.4555 6.16515 36.6976 6.41779 35.9397C8.31255 30.3817 12.6073 28.3607 12.7337 28.2344C13.4916 27.8554 14.2495 28.2343 14.6284 28.9923C15.0074 29.7502 14.6284 30.5081 13.8705 30.887C13.7442 31.0133 10.4599 32.5291 9.07045 36.8239C8.94413 37.4555 8.43886 37.8345 7.80728 37.8345Z" fill="#EB6EA4"/>
<path d="M34.3777 58.8693C37.7491 53.4081 36.0551 46.2477 30.5938 42.8762C25.1325 39.5048 17.9722 41.1989 14.6007 46.6601C11.2292 52.1214 12.9233 59.2817 18.3846 62.6532C23.8458 66.0247 31.0062 64.3306 34.3777 58.8693Z" fill="#D50777"/>
<path d="M16.2682 53.1192C16.1419 53.1192 16.0156 53.1191 15.763 52.9928C15.005 52.7402 14.6261 51.9823 14.8787 51.2244C16.7735 45.6664 21.0683 43.6453 21.1946 43.519C21.9525 43.1401 22.7104 43.519 23.0894 44.2769C23.4683 45.0348 23.0894 45.7927 22.3315 46.1717C22.2051 46.298 18.9209 47.8138 17.5314 52.1086C17.5314 52.7402 16.8998 53.1192 16.2682 53.1192Z" fill="#EB6EA4"/>
<path d="M50.1863 22.0976C53.5578 16.6364 51.8636 9.47601 46.4024 6.10452C40.9411 2.73303 33.7808 4.42713 30.4093 9.88838C27.0378 15.3496 28.7319 22.51 34.1932 25.8815C39.6544 29.253 46.8148 27.5589 50.1863 22.0976Z" fill="#D50777"/>
<path d="M32.0612 16.3611C31.9349 16.3611 31.8086 16.3611 31.5559 16.2348C30.798 15.9821 30.4191 15.2242 30.6717 14.4663C32.5665 8.90836 36.8612 6.88729 36.9876 6.76097C37.7455 6.38202 38.5034 6.76096 38.8823 7.51886C39.2613 8.27677 38.8823 9.03467 38.1244 9.41363C37.9981 9.53994 34.7138 11.0557 33.3244 15.3505C33.198 15.9821 32.6928 16.3611 32.0612 16.3611Z" fill="#EB6EA4"/>
<path d="M65.5671 34.1694C68.9386 28.7081 67.2445 21.5478 61.7833 18.1763C56.322 14.8048 49.1616 16.4989 45.7902 21.9602C42.4187 27.4214 44.1128 34.5818 49.574 37.9532C55.0353 41.3247 62.1956 39.6306 65.5671 34.1694Z" fill="#D50777"/>
<path d="M47.4694 28.4871C47.3431 28.4871 47.2167 28.4871 46.9641 28.3607C46.2062 28.1081 45.8273 27.3502 46.0799 26.5923C47.9747 21.0343 52.2694 19.0133 52.3958 18.8869C53.1537 18.508 53.9116 18.887 54.2905 19.6449C54.6695 20.4028 54.2905 21.1607 53.5326 21.5396C53.4063 21.6659 50.122 23.1817 48.7326 27.6029C48.6062 28.1081 48.101 28.4871 47.4694 28.4871Z" fill="#EB6EA4"/>
<path d="M65.5886 50.5793C68.9601 45.118 67.266 37.9577 61.8047 34.5862C56.3435 31.2147 49.1831 32.9088 45.8116 38.3701C42.4402 43.8313 44.1343 50.9917 49.5955 54.3632C55.0568 57.7346 62.2171 56.0406 65.5886 50.5793Z" fill="#D50777"/>
<path d="M65.5886 50.5793C68.9601 45.118 67.266 37.9577 61.8047 34.5862C56.3435 31.2147 49.1831 32.9088 45.8116 38.3701C42.4402 43.8313 44.1343 50.9917 49.5955 54.3632C55.0568 57.7346 62.2171 56.0406 65.5886 50.5793Z" fill="#D50777"/>
<path d="M47.4713 44.9085C47.345 44.9085 47.2187 44.9085 46.9661 44.7821C46.2082 44.5295 45.8292 43.7716 46.0819 43.0137C47.9766 37.4557 52.2714 35.4346 52.3977 35.3083C53.1556 34.9294 53.9135 35.3083 54.2925 36.0662C54.6714 36.8241 54.2925 37.5821 53.5346 37.961C53.4083 38.0873 50.124 39.6031 48.7345 44.0242C48.6082 44.5295 48.1029 44.9085 47.4713 44.9085Z" fill="#EB6EA4"/>
<path d="M51.1316 62.4377C54.503 56.9764 52.809 49.8161 47.3477 46.4446C41.8864 43.0731 34.7261 44.7672 31.3546 50.2285C27.9831 55.6897 29.6772 62.8501 35.1385 66.2216C40.5997 69.593 47.7601 67.899 51.1316 62.4377Z" fill="#D50777"/>
<path d="M33.0709 56.7825C32.9446 56.7825 32.8183 56.7825 32.5657 56.6562C31.8078 56.4035 31.4288 55.6456 31.6815 54.8877C33.5762 49.3297 37.871 47.3087 37.9973 47.1824C38.7552 46.8034 39.5131 47.1823 39.8921 47.9403C40.271 48.6982 39.8921 49.4561 39.1342 49.835C39.0079 49.9613 35.7236 51.4771 34.3341 55.8983C34.3341 56.4035 33.7025 56.7825 33.0709 56.7825Z" fill="#EB6EA4"/>
</svg>
