<svg width="287" height="267" viewBox="0 0 287 267" fill="none" xmlns="http://www.w3.org/2000/svg">
<path fill-rule="evenodd" clip-rule="evenodd" d="M113.381 3.75162C129.728 -1.15197 147.21 -1.25072 163.615 3.46785C174.514 6.60402 184.668 11.7896 193.498 18.7283C195.187 20.0561 196.822 21.4431 198.399 22.886C199.883 22.3212 201.392 21.8085 202.924 21.3498C215.126 17.6933 228.174 17.6238 240.417 21.1502C256.834 25.8814 270.639 36.7351 278.795 51.3242C286.952 65.9133 288.792 83.0433 283.912 98.9467C280.271 110.806 273.081 121.352 263.251 129.253C253.422 137.154 241.394 142.054 228.69 143.334C219.831 144.226 210.921 143.331 202.508 140.749C199.934 143.445 197.17 145.984 194.229 148.347C181.057 158.929 164.942 165.492 147.92 167.204C130.899 168.916 113.735 165.702 98.5992 157.967C87.7337 152.414 78.2634 144.711 70.7696 135.414C64.8902 139.928 57.7991 142.73 50.3249 143.482C42.5577 144.264 34.7258 142.797 27.8193 139.267C20.9129 135.737 15.2423 130.302 11.5246 123.65C7.80685 116.998 6.209 109.428 6.9331 101.897C7.57021 95.2699 9.9797 88.9352 13.902 83.5087C10.8148 80.3967 8.15592 76.8811 6.01161 73.0447C1.31823 64.6479 -0.699154 55.0915 0.214628 45.584C1.12841 36.0766 4.93234 27.0451 11.1453 19.6318C17.3582 12.2185 25.7011 6.75622 35.119 3.93586C44.5368 1.11549 54.6066 1.06369 64.0549 3.78696C72.6861 6.27475 80.3815 10.9558 86.4 17.2473C94.4604 11.2746 103.585 6.68999 113.381 3.75162Z" fill="#E62856"/>
<path d="M150.627 199.178C150.235 199.166 149.854 198.828 149.8 198.435C149.448 194.963 149.832 190.925 150.846 187.625C151.568 185.361 152.541 183.431 153.583 181.372C154.067 180.473 154.486 179.571 154.973 178.606C155.182 178.155 155.645 177.973 156.096 178.183C156.547 178.393 156.729 178.855 156.519 179.306C156.033 180.271 155.612 181.238 155.127 182.138C154.087 184.131 153.183 185.932 152.464 188.131C151.52 191.237 151.145 195.014 151.439 198.223C151.491 198.682 151.151 199.129 150.692 199.18L150.627 199.178Z" fill="black"/>
<path d="M141.317 200.398C140.86 200.385 140.481 199.981 140.494 199.524C140.54 191.558 138.482 190.516 136.36 189.407C133.018 187.607 130.665 185.511 131.41 173.843C131.424 173.386 131.828 173.007 132.284 173.02C132.741 173.034 133.121 173.438 133.107 173.894C132.433 185.369 134.746 186.615 137.19 187.864C139.698 189.181 142.205 190.498 142.193 199.511C142.179 199.967 141.776 200.347 141.317 200.398Z" fill="black"/>
<path d="M151.946 162.121C157.733 158.639 165.117 162.847 165.451 169.062C165.858 177.173 157.186 181.025 151.303 176.862C145.858 173.367 146.241 165.018 151.946 162.121Z" fill="white"/>
<path d="M156.329 179.104C154.437 179.047 152.626 178.47 151.028 177.311C148.339 175.531 146.798 172.48 146.965 169.155C147.129 165.894 148.912 163.074 151.698 161.656C154.492 159.978 157.956 159.887 160.978 161.48C163.934 163.072 165.808 165.872 165.973 169.077C166.184 172.872 164.387 176.148 161.265 177.882C159.736 178.75 158.026 179.156 156.329 179.104ZM156.669 161.415C155.103 161.368 153.589 161.779 152.193 162.586L152.127 162.584C149.673 163.816 148.096 166.315 147.941 169.249C147.787 172.184 149.142 174.903 151.576 176.479C154.261 178.389 157.911 178.63 160.768 177.018C163.624 175.472 165.148 172.579 164.925 169.176C164.749 166.362 163.125 163.897 160.426 162.443C159.269 161.821 157.974 161.455 156.669 161.415Z" fill="black"/>
<path d="M161.259 178.144C162 179.538 158.686 181.135 155.884 180.92C153.082 180.704 148.78 178.288 149.877 176.558C150.565 175.403 151.516 176.346 154.237 177.082C158.575 178.324 160.58 176.817 161.259 178.144Z" fill="#8CC800"/>
<path d="M156.194 181.452C156.063 181.448 155.998 181.446 155.868 181.442C153.651 181.309 150.301 179.771 149.439 178.047C149.072 177.252 149.22 176.668 149.427 176.283C150.116 175.128 151.15 175.486 152.441 175.982C152.957 176.194 153.604 176.409 154.381 176.629C156.518 177.216 158.023 177.131 159.134 177.1C160.311 177.07 161.293 176.969 161.721 177.962C161.968 178.426 161.95 179.014 161.61 179.46C160.791 180.611 158.347 181.517 156.194 181.452ZM150.727 176.518C150.531 176.512 150.396 176.639 150.327 176.767C150.258 176.896 150.185 177.155 150.371 177.487C150.986 178.747 153.88 180.206 155.967 180.334C157.987 180.461 160.234 179.615 160.781 178.782C160.92 178.525 160.924 178.395 160.86 178.327C160.675 177.995 160.348 177.985 159.237 178.017C158.126 178.049 156.425 178.128 154.092 177.535C153.25 177.313 152.605 177.032 152.087 176.886C151.31 176.667 150.988 176.526 150.727 176.518Z" fill="black"/>
<path d="M117.923 157.628C122.853 147.981 136.73 146.964 143.006 155.384C150.409 165.405 142.247 180.441 129.42 179.138C118.606 178.222 113.018 166.493 117.923 157.628Z" fill="white"/>
<path d="M130.446 179.757C130.054 179.745 129.728 179.735 129.338 179.658C124.193 179.176 119.774 176.299 117.366 171.719C114.957 167.14 114.989 161.785 117.409 157.352C119.77 152.721 124.434 149.662 129.87 149.174C135.239 148.749 140.332 150.928 143.342 155.068C146.917 159.944 147.245 166.355 144.139 171.877C141.305 177.017 136.123 179.929 130.446 179.757ZM131.798 150.212C131.211 150.194 130.624 150.176 130.032 150.289C124.99 150.724 120.595 153.53 118.372 157.904C116.092 162.015 116.07 167.043 118.358 171.292C120.646 175.542 124.68 178.211 129.499 178.683C135.164 179.247 140.473 176.469 143.37 171.397C146.268 166.26 145.993 160.243 142.668 155.766C140.093 152.357 136.105 150.342 131.798 150.212Z" fill="black"/>
<path d="M134.622 145.399C128.326 144.098 122.366 146.791 120.146 148.944C120.011 149.071 119.313 148.397 119.385 148.203C121.113 145.055 128.118 140.173 135.454 141.636C136.492 141.863 135.466 145.555 134.622 145.399Z" fill="black"/>
<path d="M160.163 158.19C163.596 159.143 165.927 161.957 166.465 163.606C166.529 163.673 167.054 163.558 166.993 163.426C166.924 161.399 164.699 157.217 160.683 156.116C160.1 155.968 159.711 158.046 160.163 158.19Z" fill="black"/>
<path d="M122.139 178.003C121.34 180.656 128.061 183.015 132.912 182.444C137.762 181.872 144.238 177.235 142.138 175.408C141.056 174.461 139.961 176.126 135.223 177.289C127.13 179.264 122.934 175.48 122.139 178.003Z" fill="#8CC800"/>
<path d="M130.934 183.038C127.411 182.931 123.662 181.642 122.21 179.965C121.518 179.095 121.542 178.312 121.688 177.794C122.194 176.176 123.687 176.483 125.637 176.803C127.715 177.193 130.964 177.748 135.176 176.7C137.281 176.176 138.606 175.563 139.599 175.136C140.856 174.586 141.717 174.221 142.543 174.964C143.116 175.439 143.292 176.097 143.075 176.809C142.349 179.204 137.092 182.44 133.093 182.907C132.372 183.016 131.652 183.059 130.934 183.038ZM122.657 178.15C122.515 178.537 122.633 178.933 123.013 179.336C124.526 181.145 129.321 182.401 132.927 181.922C136.795 181.452 141.525 178.395 142.039 176.516C142.181 176.129 141.991 175.927 141.865 175.793C141.546 175.522 141.218 175.577 140.026 176.129C139.033 176.556 137.641 177.232 135.405 177.752C130.93 178.858 127.618 178.235 125.409 177.841C123.395 177.519 122.873 177.503 122.657 178.15Z" fill="black"/>
<path d="M157.362 168.751C157.024 169.133 157.071 169.722 157.451 170.125C157.833 170.464 158.422 170.416 158.825 170.036C159.164 169.655 159.116 169.065 158.736 168.662C158.289 168.322 157.702 168.304 157.362 168.751Z" fill="white"/>
<path d="M137.459 163.903C138.325 167.652 133.684 172.083 128.268 169.764C123.431 167.723 125.112 161.831 127.637 160.405C134.421 156.365 136.883 161.338 137.459 163.903Z" fill="#F19001"/>
<path d="M128.564 164.286C128.384 165.914 129.776 167.393 131.664 167.581C133.552 167.768 135.156 166.576 135.336 164.949C135.516 163.321 134.124 161.842 132.235 161.655C130.412 161.469 128.744 162.659 128.564 164.286Z" fill="#1D1E1C"/>
<path d="M131.003 167.887C130.094 167.729 129.323 167.314 128.753 166.709C128.122 165.971 127.757 165.111 127.849 164.2C127.94 163.353 128.354 162.647 129.024 162.08C129.827 161.451 130.881 161.156 131.988 161.255C134.072 161.449 135.589 163.128 135.401 165.016C135.308 165.928 134.825 166.762 134.025 167.326C133.224 167.889 132.302 168.123 131.26 168.026C131.197 167.958 131.132 167.956 131.003 167.887ZM132.095 162.042C132.03 162.04 131.964 162.038 131.899 162.036C131.053 161.945 130.197 162.181 129.528 162.683C128.992 163.124 128.714 163.703 128.63 164.288C128.545 164.939 128.785 165.665 129.291 166.203C129.797 166.74 130.57 167.09 131.351 167.179C132.132 167.268 132.921 167.096 133.59 166.594C134.191 166.155 134.535 165.578 134.622 164.862C134.792 163.561 133.655 162.285 132.095 162.042Z" fill="#1D1E1C"/>
<path d="M135.679 162.281C135.857 162.874 135.511 163.517 134.852 163.693C134.259 163.871 133.617 163.525 133.441 162.866C133.263 162.273 133.609 161.631 134.267 161.455C134.926 161.279 135.566 161.69 135.679 162.281Z" fill="white"/>
<path d="M132.512 159.051C135.567 159.535 137.633 162.471 137.149 165.526C136.664 168.581 133.728 170.648 130.673 170.163C127.618 169.679 125.552 166.742 126.036 163.687C126.586 160.634 129.457 158.566 132.512 159.051ZM132.672 158.076C129.034 157.443 125.627 159.952 124.996 163.525C124.363 167.164 126.873 170.571 130.446 171.201C134.084 171.834 137.491 169.325 138.122 165.752C138.754 162.113 136.312 158.643 132.672 158.076Z" fill="#1D1E1C"/>
<path d="M152.624 167.759C150.996 169.734 152.313 173.693 156.222 174.007C159.675 174.308 160.513 170.349 159.519 168.686C156.78 164.227 153.774 166.422 152.624 167.759Z" fill="#F19001"/>
<path d="M157.758 170.722C157.335 171.754 156.081 172.173 154.919 171.746C153.758 171.254 153.141 170.059 153.562 169.092C153.985 168.06 155.239 167.641 156.402 168.068C157.564 168.495 158.181 169.69 157.758 170.722Z" fill="#1D1E1C"/>
<path d="M155.041 172.011C154.396 171.73 153.951 171.325 153.643 170.728C153.334 170.131 153.287 169.542 153.566 168.962C154.058 167.801 155.444 167.321 156.735 167.817C157.38 168.098 157.953 168.573 158.195 169.233C158.44 169.763 158.422 170.35 158.211 170.866C157.997 171.448 157.528 171.825 156.933 172.069C156.405 172.248 155.818 172.231 155.235 172.082C155.169 172.08 155.104 172.078 155.041 172.011ZM154.017 169.172C153.872 169.625 153.858 170.081 154.108 170.481C154.355 170.945 154.736 171.284 155.252 171.495C155.769 171.707 156.291 171.723 156.753 171.541C157.216 171.359 157.552 171.042 157.76 170.657C157.902 170.269 157.916 169.812 157.732 169.415C157.55 168.952 157.107 168.482 156.526 168.268C156.461 168.266 156.463 168.201 156.397 168.199C155.359 167.972 154.369 168.333 154.017 169.172Z" fill="#1D1E1C"/>
<path d="M156.98 168.413C156.575 168.858 156.621 169.512 157.065 169.917C157.51 170.323 158.164 170.277 158.57 169.832C158.975 169.388 158.929 168.733 158.485 168.328C158.038 167.988 157.386 167.968 156.98 168.413Z" fill="white"/>
<path d="M157.039 166.456C158.979 167.102 160.025 169.224 159.378 171.164C158.732 173.103 156.61 174.149 154.67 173.503C152.731 172.856 151.685 170.735 152.331 168.795C152.978 166.855 155.099 165.809 157.039 166.456ZM157.255 165.809C154.927 165.02 152.472 166.317 151.685 168.579C150.896 170.907 152.193 173.362 154.455 174.149C156.782 174.938 159.238 173.641 160.025 171.379C160.814 169.052 159.584 166.533 157.255 165.809Z" fill="#1D1E1C"/>
<path d="M177.105 254.32C174.659 253.135 170.76 252.495 165.393 248.544C157.276 242.681 154.898 228.502 157.785 221.601C159.333 217.925 161.132 212.428 159.25 205.578C157.425 198.992 154.51 196.03 149.586 194.705C143.888 193.096 138.452 195.739 136.643 201.563C135.272 205.832 136.127 209.972 138.721 214.884C141.007 219.198 143.338 222.012 143.787 228.753C145.377 253.881 108.992 256.24 86.4287 257.255C85.1869 257.282 84.4909 258.698 85.444 259.576C87.4134 261.399 92.5703 263.645 99.758 263.536C112.306 263.264 112.688 261.446 122.697 260.901C132.576 260.351 135.72 262.209 148.341 261.677C159.784 261.24 171.994 259.194 176.656 258.355C177.706 258.191 178.454 257.234 178.418 256.253C178.313 255.401 177.813 254.668 177.105 254.32Z" fill="#8CC800"/>
<path d="M98.0381 264.269C91.8392 264.081 87.0006 262.106 84.8394 260.146C84.2047 259.539 83.9694 258.683 84.3193 257.91C84.606 257.069 85.4069 256.506 86.3876 256.47C100.84 255.863 127.72 254.653 138.397 242.828C141.779 239.012 143.356 234.357 143.001 228.86C142.643 223.429 141.092 220.704 139.232 217.447C138.862 216.717 138.425 216.051 137.992 215.254C135.148 209.943 134.496 205.613 135.866 201.344C137.814 195.263 143.522 192.236 149.804 193.994C155.181 195.463 158.149 198.819 159.974 205.405C161.979 212.519 160.108 218.21 158.493 221.949C155.822 228.204 157.815 242.176 165.803 247.969C169.637 250.763 172.738 251.902 175 252.689C175.903 253.043 176.679 253.328 177.388 253.61C178.419 254.099 179.042 255.097 179.073 256.209C179.095 257.646 178.079 258.856 176.698 259.141C171.971 259.977 159.826 262.026 148.318 262.461C141.779 262.72 137.676 262.335 134.028 262.028C130.64 261.73 127.384 261.435 122.674 261.684C118.29 261.943 115.86 262.392 113.232 262.9C110.013 263.521 106.729 264.14 99.6694 264.318C99.1474 264.302 98.5601 264.284 98.0381 264.269ZM146.702 195.075C142.395 194.945 138.727 197.446 137.353 201.846C136.123 205.793 136.728 209.534 139.384 214.578C139.754 215.308 140.189 216.039 140.56 216.704C142.421 219.96 144.157 223.017 144.505 228.775C144.847 234.729 143.192 239.773 139.475 243.906C128.39 256.24 101.054 257.437 86.3382 258.101C85.9467 258.09 85.743 258.345 85.6718 258.538C85.6026 258.667 85.5967 258.863 85.8518 259.066C87.8845 260.957 93.0493 262.942 99.5844 262.813C106.511 262.697 109.732 262.01 112.884 261.453C115.447 260.943 118.074 260.434 122.523 260.177C127.366 259.867 130.686 260.229 134.138 260.529C137.915 260.905 141.759 261.217 148.167 260.954C159.61 260.517 171.688 258.532 176.352 257.628C177.009 257.518 177.483 256.944 177.438 256.29C177.454 255.768 177.141 255.301 176.69 255.091C176.046 254.811 175.336 254.528 174.432 254.174C172.042 253.318 168.813 252.11 164.85 249.246C156.094 242.907 154.123 228.218 157.008 221.382C158.625 217.577 160.219 212.401 158.392 205.88C156.683 199.754 154.158 196.869 149.3 195.546C148.462 195.194 147.55 195.101 146.702 195.075Z" fill="black"/>
<path d="M139.89 202.184C139.89 202.184 140.677 210.699 149.37 210.505C159.304 210.283 157.611 201.48 157.611 201.48C157.611 201.48 153.48 204.163 147.871 203.928C142 203.685 139.89 202.184 139.89 202.184Z" fill="white"/>
<path d="M148.702 211.007C146.157 210.93 144.092 210.083 142.507 208.533C139.841 205.971 139.497 202.237 139.497 202.237C139.503 202.042 139.572 201.913 139.772 201.788C139.904 201.727 140.1 201.733 140.229 201.802C140.294 201.804 142.342 203.173 147.952 203.408C148.017 203.41 148.017 203.41 148.083 203.412C153.433 203.574 157.362 201.08 157.43 201.017C157.562 200.956 157.76 200.897 157.886 201.031C158.015 201.1 158.076 201.233 158.137 201.365C158.191 201.759 158.733 205.433 156.562 208.11C155.069 209.959 152.69 210.866 149.487 210.965C149.16 210.955 148.897 211.013 148.702 211.007ZM140.517 203.052C140.976 205.156 142.847 210.242 149.384 210.048C152.324 210.006 154.44 209.156 155.796 207.499C157.289 205.65 157.358 203.366 157.263 202.188C155.869 202.929 152.36 204.521 147.859 204.319C143.944 204.201 141.68 203.479 140.517 203.052Z" fill="black"/>
<path d="M137.689 225.238C143.734 234.826 140.311 244.323 135.234 248.088C133.832 249.09 128.337 251.536 128.337 251.536C128.337 251.536 124.862 254.109 117.649 255.066C112.403 255.756 107.428 253.973 102.732 249.454C97.2726 244.26 93.0964 229.046 106.05 219.707C116.797 212.065 131.018 214.782 137.689 225.238Z" fill="#E62828"/>
<path d="M132.851 225.418C132.655 225.412 132.461 225.341 132.271 225.139C128.86 221.313 123.891 219.334 118.268 219.555C117.811 219.541 117.493 219.27 117.441 218.812C117.455 218.355 117.726 218.037 118.185 217.985C124.267 217.712 129.687 219.901 133.414 224.063C133.73 224.399 133.651 224.854 133.38 225.173C133.246 225.299 133.046 225.424 132.851 225.418Z" fill="#FF5A5A"/>
<path d="M105.59 226.29C105.329 226.282 105.137 226.145 104.947 225.944C102.576 222.28 99.0449 220.279 94.9993 220.156C94.5425 220.142 94.2261 219.806 94.2399 219.349C94.2538 218.893 94.5899 218.576 95.0467 218.59C99.6143 218.729 103.529 221.002 106.215 225.068C106.466 225.402 106.32 225.92 105.985 226.171C105.918 226.234 105.72 226.294 105.59 226.29Z" fill="black"/>
<path d="M115.275 255.843C110.316 255.693 104.886 253.83 100.49 248.015C97.1012 243.471 95.8337 237.881 96.9845 232.234C98.2084 226.328 101.959 221.086 107.344 217.983C115.387 213.328 127.932 213.186 135.139 221.046C140.385 226.822 144.126 236.993 137.172 246.644C136.901 246.963 136.44 247.079 136.057 246.807C135.738 246.536 135.622 246.075 135.895 245.691C142.236 236.87 139.052 227.696 133.933 222.054C127.297 214.734 115.536 214.9 108.089 219.247C103.102 222.165 99.559 227.022 98.4141 232.473C97.3424 237.666 98.4933 242.795 101.631 247.004C108.534 256.292 118.512 254.635 123.857 252.838C130.455 250.621 132.96 243.382 132.098 237.347C131.339 232.23 127.851 226.638 120.347 226.41L120.281 226.408C114.735 226.24 110.011 231.257 109.618 235.621C109.4 238.488 111.006 241.541 113.636 243.123C115.046 244.015 117.952 245.082 121.482 242.838C122.747 242.027 123.637 240.683 123.878 239.188C124.116 237.824 123.766 236.441 123.01 235.504C122.004 234.233 120.711 233.802 119.459 234.156C118.338 234.514 117.523 235.534 117.424 236.641C117.41 237.098 117.009 237.412 116.619 237.335C116.163 237.321 115.848 236.92 115.925 236.53C116.044 234.771 117.331 233.242 119.046 232.706C120.958 232.111 122.896 232.823 124.28 234.563C125.349 235.902 125.753 237.677 125.502 239.498C125.181 241.448 124.019 243.176 122.419 244.238C119.354 246.235 115.89 246.326 112.94 244.539C109.798 242.615 107.882 239.03 108.182 235.577C108.599 230.43 113.995 224.781 120.457 224.912L120.523 224.914C127.505 225.125 132.715 229.92 133.801 237.203C134.773 243.894 131.916 251.971 124.527 254.425C122.087 255.2 118.799 255.95 115.275 255.843Z" fill="black"/>
<path fill-rule="evenodd" clip-rule="evenodd" d="M112.111 215.841C114.017 211.131 111.773 205.446 111.379 205.499C110.853 205.614 106.562 207.117 103.737 209.84C100.306 213.132 99.6397 217.88 103.128 219.161C107.972 220.941 110.768 219.196 112.111 215.841Z" fill="#B4E100"/>
<path d="M106.489 220.374C105.445 220.342 104.276 220.111 102.985 219.614C101.628 219.116 100.746 218.044 100.462 216.664C100.007 214.43 101.138 211.59 103.426 209.374C106.319 206.588 110.807 205.026 111.333 204.911C111.464 204.915 111.727 204.857 111.914 205.124C112.608 205.929 114.469 211.341 112.632 215.923C111.713 218.246 109.947 220.478 106.489 220.374ZM111.232 206.083C110.176 206.443 106.54 207.901 104.12 210.179C102.168 212.079 101.045 214.657 101.446 216.498C101.676 217.55 102.307 218.288 103.341 218.645C107.408 220.206 110.182 219.179 111.661 215.632C113.219 211.63 111.79 207.08 111.232 206.083Z" fill="black"/>
<path d="M118.862 227.998C118.601 227.99 118.409 227.854 118.352 227.591C118.235 227.13 118.121 226.604 118.006 226.078C117.717 224.829 117.432 223.448 117.073 222.393C117.015 222.13 117.156 221.807 117.419 221.75C117.682 221.693 118.004 221.833 118.061 222.096C118.421 223.152 118.704 224.597 118.993 225.847C119.107 226.373 119.222 226.899 119.341 227.294C119.398 227.557 119.258 227.88 118.929 227.935C118.927 228 118.927 228 118.862 227.998Z" fill="black"/>
<path d="M115.24 228.999C115.044 228.993 114.915 228.924 114.791 228.724C114.296 227.795 113.238 226.064 112.673 225.329C112.483 225.127 112.558 224.803 112.76 224.613C112.962 224.423 113.286 224.498 113.476 224.7C114.105 225.503 115.16 227.298 115.72 228.23C115.843 228.494 115.767 228.819 115.503 228.941C115.437 228.939 115.37 229.003 115.24 228.999Z" fill="black"/>
<path d="M129.687 232.898C129.491 232.892 129.362 232.823 129.238 232.623C129.115 232.358 129.19 232.034 129.455 231.911C130.12 231.54 131.051 230.98 131.917 230.418C132.848 229.859 133.78 229.299 134.444 228.927C134.709 228.805 135.033 228.88 135.156 229.145C135.278 229.41 135.203 229.734 134.938 229.857C134.274 230.229 133.343 230.788 132.478 231.284C131.547 231.844 130.616 232.404 129.951 232.775C129.884 232.839 129.752 232.9 129.687 232.898Z" fill="black"/>
<path d="M104.575 216.658C104.51 216.656 104.444 216.654 104.381 216.587C104.124 216.449 104.001 216.184 104.14 215.927C104.211 215.733 106.169 211.482 108.723 209.077C108.925 208.887 109.251 208.897 109.441 209.099C109.631 209.301 109.621 209.627 109.419 209.817C106.999 212.095 105.109 216.283 105.042 216.346C104.968 216.605 104.771 216.664 104.575 216.658Z" fill="black"/>
<g opacity="0.6">
<g opacity="0.6">
<g opacity="0.6">
<path opacity="0.6" d="M149.469 198.621C149.338 198.617 149.208 198.613 149.145 198.546C148.116 197.992 146.948 197.761 145.765 197.986C145.372 198.039 144.923 197.765 144.87 197.371C144.816 196.978 145.091 196.529 145.484 196.475C146.993 196.26 148.553 196.503 149.839 197.195C150.224 197.403 150.341 197.863 150.133 198.249C150.062 198.443 149.73 198.629 149.469 198.621Z" fill="#B4E100"/>
</g>
</g>
</g>
<path d="M125.795 231.996C125.599 231.991 125.405 231.919 125.279 231.785C124.393 230.844 122.779 230.207 121.279 230.162C120.822 230.148 120.505 229.812 120.519 229.355C120.533 228.898 120.869 228.582 121.326 228.596C123.218 228.653 125.217 229.497 126.356 230.707C126.673 231.043 126.659 231.5 126.323 231.817C126.188 231.943 125.991 232.002 125.795 231.996Z" fill="#FF5A5A"/>
<path d="M128.846 239.077C128.65 239.071 128.457 239 128.33 238.866C128.203 238.731 128.144 238.534 128.152 238.273C128.158 238.077 128.229 237.883 128.364 237.756C128.633 237.503 129.155 237.519 129.473 237.79C129.6 237.924 129.659 238.122 129.653 238.318C129.647 238.514 129.576 238.708 129.439 238.899C129.24 239.024 129.042 239.083 128.846 239.077Z" fill="black"/>
<path d="M127.65 252.626C127.454 252.62 127.261 252.549 127.071 252.347C126.754 252.011 126.834 251.556 127.104 251.238C129.119 249.405 130.636 248.928 131.892 248.444C133.278 247.963 134.334 247.603 135.961 245.628C136.232 245.31 136.756 245.26 137.074 245.531C137.392 245.802 137.442 246.326 137.171 246.644C135.273 248.938 133.887 249.419 132.368 249.96C131.18 250.382 129.926 250.801 128.113 252.444C128.046 252.507 127.846 252.632 127.65 252.626Z" fill="black"/>
<path d="M148.594 208.065C144.483 207.94 141.132 206.467 140.94 206.331C140.683 206.192 140.626 205.929 140.697 205.735C140.768 205.542 141.098 205.421 141.292 205.492C141.355 205.559 150.894 209.767 157.263 204.343C157.465 204.153 157.724 204.227 157.915 204.363C158.105 204.565 158.032 204.824 157.896 205.015C155.013 207.475 151.596 208.156 148.594 208.065Z" fill="black"/>
<path d="M102.29 231.741C102.225 231.739 102.159 231.737 102.159 231.737C101.9 231.664 101.715 231.332 101.853 231.075C103.431 226.42 107.174 223.595 108.501 222.917C108.766 222.794 109.09 222.869 109.213 223.134C109.335 223.399 109.26 223.723 108.995 223.846C107.866 224.465 104.325 227.101 102.822 231.431C102.751 231.625 102.551 231.749 102.29 231.741Z" fill="black"/>
</svg>
