<svg width="111" height="144" viewBox="0 0 111 144" fill="none" xmlns="http://www.w3.org/2000/svg">
<path d="M72.9072 64.9994C72.6764 64.9994 72.4456 64.9225 72.2147 64.6916C68.9061 61.2291 69.3677 53.5346 71.2914 47.4559C73.4459 40.8386 78.2165 33.221 85.2954 31.9129C85.7571 31.836 86.2957 32.1438 86.3726 32.6054C86.4496 33.0671 86.1418 33.6057 85.6802 33.6827C79.3707 34.8368 75.0617 41.8389 73.0611 47.9945C70.9836 54.5349 71.1375 60.9213 73.5228 63.4605C73.9075 63.8452 73.8306 64.3838 73.5228 64.7686C73.3689 64.9225 73.1381 64.9994 72.9072 64.9994Z" fill="black"/>
<path d="M65.1372 67.1539C64.9833 67.1539 64.7524 67.077 64.5985 67C60.4435 63.9992 58.289 55.8429 57.6735 49.3026C57.2118 44.532 57.3657 38.7611 59.1354 36.7605C59.4432 36.3758 60.0588 36.3758 60.4435 36.6836C60.8283 36.9913 60.8282 37.6069 60.5205 37.9916C59.5971 38.9919 58.9046 43.147 59.5202 49.0718C60.2896 56.8432 62.6749 63.3066 65.7527 65.5381C66.1375 65.8458 66.2144 66.3845 65.9836 66.8461C65.6758 67 65.368 67.1539 65.1372 67.1539Z" fill="black"/>
<path d="M74.3693 23.8336C75.1388 18.7552 79.8325 15.2927 84.9109 15.9852C89.9893 16.7546 93.4518 21.4483 92.7593 26.5267C91.9898 31.6051 87.2962 35.0676 82.2178 34.3751C77.1394 33.6057 73.6768 28.912 74.3693 23.8336Z" fill="white"/>
<path d="M83.603 34.9907C83.1413 34.9907 82.6796 34.9907 82.141 34.9138C76.7548 34.1443 72.9845 29.0659 73.754 23.6798C74.1387 21.0636 75.5237 18.7553 77.6012 17.2164C79.6788 15.6775 82.2949 14.9849 84.911 15.3697C90.2972 16.1391 94.0675 21.1406 93.298 26.6037C92.6055 31.4512 88.3736 34.9907 83.603 34.9907ZM83.526 16.4469C81.6793 16.4469 79.9096 17.0625 78.3707 18.1397C76.524 19.5247 75.2929 21.5253 74.9851 23.8336C74.2926 28.5273 77.6012 32.9902 82.2949 33.6827C86.9885 34.3752 91.4514 31.0665 92.1439 26.3729C92.8364 21.6792 89.5277 17.2164 84.8341 16.5238C84.3724 16.5238 83.9877 16.4469 83.526 16.4469Z" fill="black"/>
<path d="M77.5257 23.8338C77.6796 27.2963 82.681 29.9894 86.8361 26.6808C90.4525 23.7568 87.6825 19.1401 85.2202 18.4476C78.3721 16.6009 77.4487 21.5254 77.5257 23.8338Z" fill="#F29100"/>
<path d="M76.9863 23.8337C76.9863 23.1412 76.9863 20.679 78.5252 18.9862C79.9872 17.4473 82.2186 17.0626 85.2964 17.909C86.9892 18.3706 88.5281 20.2173 88.9898 22.2179C89.3745 24.0646 88.7589 25.7574 87.1431 26.9885C85.835 27.9888 84.3731 28.6044 82.8342 28.6044C79.7563 28.6813 77.1402 26.5268 76.9863 23.8337ZM79.2177 19.6017C77.9096 20.9868 78.0635 23.2182 78.0635 23.8337C78.1405 25.9113 80.3719 27.681 82.8342 27.681C84.1422 27.681 85.3733 27.2193 86.5275 26.296C88.1434 25.0649 88.2203 23.526 87.9895 22.5257C87.6048 20.7559 86.1428 19.3709 85.0656 18.9862C81.5261 17.7551 79.9102 18.8323 79.2177 19.6017Z" fill="#1D1D1B"/>
<path d="M85.8363 21.6793C86.3749 23.0643 85.5285 24.6802 83.9896 25.2188C82.4507 25.8343 80.7579 25.2188 80.2192 23.8337C79.6806 22.4487 80.527 20.8329 82.0659 20.2943C83.6049 19.6787 85.2977 20.2943 85.8363 21.6793Z" fill="#1D1D1B"/>
<path d="M82.7582 25.6035C82.3734 25.6035 81.9887 25.5266 81.604 25.3727C80.8345 25.0649 80.2959 24.5263 79.9881 23.8338C79.4495 22.3718 80.2959 20.679 81.9117 20.0635C82.7581 19.7557 83.6815 19.7557 84.4509 20.0635C85.1434 20.3713 85.6052 20.9099 85.836 21.5254C86.0668 22.141 86.0668 22.9105 85.759 23.526C85.4512 24.2955 84.7587 24.911 83.8354 25.2958C83.6045 25.5266 83.2198 25.6035 82.7582 25.6035ZM83.2968 20.2174C82.912 20.2174 82.5273 20.2943 82.1426 20.4482C80.6806 20.9868 79.9112 22.5257 80.3728 23.8338C80.6037 24.4494 81.1423 24.911 81.7578 25.1419C82.4504 25.3727 83.2198 25.3727 83.9124 25.0649C84.6818 24.7571 85.2973 24.2185 85.6051 23.4491C85.836 22.8335 85.9129 22.218 85.6821 21.6793C85.4513 21.1407 84.9896 20.679 84.4509 20.3713C84.0662 20.2943 83.6815 20.2174 83.2968 20.2174Z" fill="#1D1D1B"/>
<path d="M83.0664 20.8329C83.0664 21.6023 83.682 22.2948 84.5284 22.2948C85.2978 22.2948 85.9903 21.6793 85.9134 20.8329C85.9134 20.0634 85.2978 19.3709 84.4514 19.4479C83.682 19.3709 83.0664 20.0634 83.0664 20.8329Z" fill="white"/>
<path d="M41.6686 22.7565C45.5159 14.985 54.5954 11.5994 61.9822 15.2928C69.3689 18.9092 72.2159 28.2196 68.2917 35.9911C64.4444 43.7625 55.3649 47.1481 47.9781 43.4548C40.6683 39.8383 37.8213 30.5279 41.6686 22.7565Z" fill="white"/>
<path d="M54.2884 45.5323C52.057 45.5323 49.8256 45.0706 47.7481 43.9933C44.0547 42.1467 41.2847 38.915 40.0535 34.8369C38.8224 30.7588 39.2071 26.3729 41.1307 22.4487C45.1319 14.3694 54.5962 10.9069 62.2907 14.6772C69.9083 18.4475 72.9092 28.1426 68.908 36.2219C65.9841 42.1467 60.2132 45.5323 54.2884 45.5323ZM42.208 23.0642C40.4382 26.6806 40.0535 30.7588 41.2077 34.5291C42.3619 38.2994 44.901 41.3003 48.2866 42.9931C55.3656 46.4556 64.0604 43.2239 67.8308 35.7602C71.5241 28.2965 68.831 19.3708 61.7521 15.8314C54.6731 12.3688 45.9014 15.6005 42.208 23.0642Z" fill="black"/>
<path d="M47.9001 22.2949C47.1306 26.8347 52.8246 31.7592 59.1341 28.7583C64.7511 26.0653 62.4427 19.1402 59.4419 17.6013C51.0548 13.1384 48.4387 19.2171 47.9001 22.2949Z" fill="#F29100"/>
<path d="M47.2087 22.1409C47.3626 21.2176 48.132 17.9858 50.5942 16.293C52.9026 14.7541 55.9805 14.908 59.6738 16.9086C61.7514 17.9858 63.2133 20.8328 63.2133 23.6029C63.1364 26.142 61.8283 28.1426 59.443 29.2968C57.4424 30.2971 55.2879 30.5279 53.3643 30.1432C49.3631 29.2199 46.5931 25.6804 47.2087 22.1409ZM51.2868 17.2164C49.2092 18.6014 48.6707 21.6023 48.5168 22.3717C48.0551 25.1418 50.3634 28.0657 53.5951 28.7582C55.2879 29.1429 57.0577 28.9121 58.8274 28.0657C61.2897 26.9115 61.8283 24.9879 61.8283 23.5259C61.9052 21.0637 60.3663 18.9092 59.0582 18.0628C54.9032 15.5236 52.5179 16.4469 51.2868 17.2164Z" fill="#1D1D1B"/>
<path d="M59.3662 22.6795C59.674 24.6031 58.0581 26.4498 55.9036 26.7576C53.6722 27.0654 51.6716 25.7573 51.3638 23.8337C51.0561 21.9101 52.6719 20.0634 54.8264 19.7556C57.0578 19.3709 59.0584 20.6789 59.3662 22.6795Z" fill="#1D1D1B"/>
<path d="M55.2113 26.9886C53.2108 26.9886 51.441 25.6805 51.1333 23.8338C50.8255 21.7563 52.4413 19.8327 54.8266 19.4479C55.9808 19.294 57.0581 19.5249 57.9814 20.0635C58.9047 20.679 59.4433 21.5254 59.5972 22.5257C59.7511 23.4491 59.5203 24.3724 58.9048 25.1419C58.2122 26.0652 57.135 26.6808 55.9039 26.8347C55.673 26.9886 55.4422 26.9886 55.2113 26.9886ZM55.5191 19.9096C55.2883 19.9096 55.0575 19.9096 54.9036 19.9865C52.8261 20.2943 51.3641 21.9871 51.595 23.8338C51.8258 25.6805 53.7494 26.9116 55.8269 26.6038C56.9042 26.4499 57.9045 25.9113 58.52 25.0649C59.0586 24.3724 59.2125 23.526 59.1356 22.7566C58.9817 21.9102 58.52 21.1407 57.6736 20.6021C57.058 20.1404 56.2886 19.9096 55.5191 19.9096Z" fill="#1D1D1B"/>
<path d="M55.7496 20.6021C55.5188 21.6024 56.2113 22.6796 57.2116 22.9105C58.2119 23.1413 59.2891 22.4488 59.52 21.4485C59.7508 20.4482 59.0583 19.371 58.058 19.1402C56.9808 18.9093 55.9805 19.5249 55.7496 20.6021Z" fill="white"/>
<path d="M68.2899 24.0647C64.6735 19.7557 62.3651 16.601 55.2862 16.601C41.0513 16.6779 40.3588 34.7601 39.5893 34.4523C36.8193 33.0673 36.8962 25.6036 37.204 24.0647C39.974 7.67532 63.2885 2.82776 69.7519 21.2177C71.4447 25.8344 68.7516 24.6033 68.2899 24.0647Z" fill="#8CC800"/>
<path d="M39.667 35.1447L39.3592 34.9908C36.1275 33.3749 36.3583 25.4496 36.6661 23.9876C38.0511 15.8314 44.6684 9.67579 52.9016 8.90633C59.0572 8.36772 66.9056 11.2916 70.3682 20.9868C70.6759 21.8332 71.5223 24.2954 70.2143 25.0648C69.3679 25.5265 68.2137 24.911 67.829 24.4493L67.2903 23.8337C63.9817 19.8326 61.7503 17.2164 55.3638 17.2164C55.2869 17.2164 55.2869 17.2164 55.2099 17.2164C44.1298 17.2934 41.5906 28.6813 40.6673 32.9902C40.3595 34.3752 40.2826 34.76 39.8978 34.9908L39.667 35.1447ZM54.3635 10.0605C53.9019 10.0605 53.4402 10.0605 53.0555 10.1375C45.4379 10.83 39.2053 16.6009 37.8972 24.2184C37.5894 25.7574 37.5894 31.6821 39.4361 33.5288C39.5131 33.298 39.5131 33.0672 39.59 32.7594C40.5903 28.2196 43.3604 16.0623 55.3638 15.9853C55.4408 15.9853 55.4408 15.9853 55.5177 15.9853C62.4428 15.9853 65.059 19.1401 68.3676 23.0643L68.9062 23.6798C69.0601 23.8337 69.5987 24.0646 69.7526 23.9876C69.7526 23.9876 70.1373 23.526 69.3679 21.3715C66.2901 12.9844 59.8267 10.0605 54.3635 10.0605Z" fill="black"/>
<path d="M91.9904 25.0648C91.0671 22.2948 90.0668 19.3708 86.5273 18.6014C77.6786 16.6008 74.6778 24.834 74.293 24.6031C73.3697 23.9106 74.7547 19.2939 75.2163 18.5244C80.2178 10.2143 93.8371 12.5997 93.3755 23.9106C93.2985 26.6806 92.1443 25.4495 91.9904 25.0648Z" fill="#8CC800"/>
<path d="M92.7602 26.2959C92.0677 26.2959 91.6061 25.6034 91.4522 25.2957C90.4519 22.1409 89.5285 19.9095 86.4507 19.217C79.6795 17.678 76.5248 22.5256 75.3706 24.2953C74.9859 24.9109 74.832 25.1418 74.5242 25.2187L74.2934 25.2957L74.0625 25.1418C72.6005 24.0645 74.4472 18.8322 74.832 18.2167C77.3711 13.9847 82.4495 12.061 87.1432 13.4461C90.6827 14.5233 94.3761 17.8319 94.1453 23.9876C94.1453 24.6031 94.0683 26.219 92.9911 26.3729C92.8372 26.2959 92.7602 26.2959 92.7602 26.2959ZM92.6063 24.834C92.6063 24.834 92.6063 24.9109 92.6833 24.9109C92.7602 24.757 92.8372 24.3723 92.8372 23.7567C92.9911 19.14 90.6827 15.6775 86.6815 14.4464C82.5265 13.2152 78.0637 14.985 75.7553 18.6783C75.2936 19.3709 74.6781 21.7561 74.6011 23.0642C75.9861 20.9867 79.6026 16.293 86.6815 17.9089C90.6827 18.9092 91.76 22.2178 92.6063 24.834Z" fill="black"/>
<path d="M41.2422 35.5066L42.7811 42.8164L44.7047 46.2789L48.1673 48.2026L52.784 47.4331L59.7091 43.5859L63.9411 38.1997L65.8647 33.583V29.351L62.7869 25.5037L57.4007 24.7343H50.4756L45.4742 26.6579L42.3964 30.5052L41.2422 35.5066Z" fill="url(#paint0_linear_580_13429)"/>
<path d="M98.9512 34.2074L97.4123 41.1577L95.4886 44.4499L92.0261 46.2789L87.4094 45.5473L80.4843 41.8893L75.8676 37.0455L73.5592 32.4288V28.1968L76.637 24.5387L83.1774 23.5801H90.1025L94.7192 25.7938L97.797 29.4519L98.9512 34.2074Z" fill="url(#paint1_linear_580_13429)"/>
<path d="M65.597 31.1435L65.5201 29.9124C65.4432 28.7583 66.3665 27.8349 67.4437 27.8349L71.6757 27.681C72.8299 27.6041 73.7533 28.5274 73.7533 29.6046L73.8302 30.8358L72.4452 30.9127L72.3683 29.6816C72.3683 29.2969 72.0605 28.9891 71.6757 29.066L67.4437 29.2199C67.059 29.2199 66.7512 29.5277 66.8282 29.9124L66.9051 31.1435H65.597Z" fill="#1D1D1B"/>
<path d="M79.3436 22.8271L59.7383 23.623L59.7945 25.0069L79.3998 24.211L79.3436 22.8271Z" fill="#1D1D1B"/>
<path d="M50.1314 48.5333C44.2066 48.5333 41.0518 44.4552 40.5132 36.299C40.2824 32.9134 41.2826 30.0664 43.2063 27.835C45.3607 25.4497 48.8233 23.9877 52.8244 23.8338C59.9804 23.5261 66.6746 24.2186 66.9054 31.1436C67.0593 34.2984 64.9818 38.5304 61.5962 42.2238C58.0567 45.9941 53.9786 48.3025 50.593 48.4563C50.5161 48.5333 50.3622 48.5333 50.1314 48.5333ZM55.3636 25.1419C54.5942 25.1419 53.8247 25.1419 52.9783 25.2189C49.285 25.3728 46.2072 26.6039 44.2835 28.7584C42.5138 30.682 41.7443 33.1442 41.8982 36.222C42.3599 43.8396 45.2068 47.3791 50.593 47.1483C53.6708 46.9944 57.3642 44.8399 60.6729 41.3004C63.8276 37.9148 65.7513 33.9906 65.6743 31.2206C65.4435 26.45 61.4423 25.1419 55.3636 25.1419Z" fill="#1D1D1B"/>
<path d="M89.9117 46.9174C82.7558 46.9174 72.8298 37.8378 72.522 30.9897C72.2143 24.0646 78.8316 22.8335 85.9875 22.5257C89.9886 22.3718 93.5281 23.526 95.9134 25.7574C98.0679 27.758 99.2221 30.605 99.2991 33.9136C99.5299 42.3006 96.452 46.6865 90.2195 46.9174C90.1425 46.9174 90.0656 46.9174 89.9117 46.9174ZM73.9071 30.9127C74.1379 37.0684 83.91 45.8401 90.2195 45.5324C95.6056 45.3015 98.2218 41.5312 97.991 33.9136C97.914 30.9127 96.9138 28.4505 95.0671 26.6808C92.9895 24.6802 89.7578 23.6799 86.1414 23.8338C78.6007 24.1415 73.6763 25.4496 73.9071 30.9127Z" fill="#1D1D1B"/>
<path d="M108.688 128.71C105.764 127.479 101.224 126.863 94.6837 122.478C84.9117 115.937 81.4491 99.4709 84.6039 91.2378C86.2967 86.8519 88.0664 80.3115 85.5272 72.3862C83.065 64.7686 79.6024 61.4599 73.7546 60.0749C66.9834 58.4591 60.7508 61.8447 58.9042 68.6928C57.5191 73.7712 58.6733 78.5418 61.982 84.1588C64.8289 89.0833 67.7529 92.2381 68.5223 100.163C71.5232 129.48 28.9724 133.942 2.58017 136.097C1.11821 136.251 0.425682 137.867 1.50292 138.867C3.88822 140.944 10.0438 143.33 18.4309 142.868C33.0505 142.022 33.5122 139.867 45.2079 138.713C56.7496 137.636 60.52 139.636 75.2935 138.482C88.605 137.482 102.917 134.558 108.303 133.327C109.534 133.096 110.304 131.942 110.227 130.788C110.15 129.864 109.611 129.095 108.688 128.71Z" fill="#8CC800"/>
<path d="M16.1995 143.868C9.04362 143.868 3.42659 141.791 0.887396 139.636C0.117943 138.944 -0.189838 137.944 0.117943 137.02C0.425724 136.02 1.34907 135.328 2.4263 135.251C19.3543 133.866 50.748 131.326 62.7515 116.938C66.5987 112.321 68.2145 106.781 67.522 100.317C66.9065 94.0079 64.9059 90.8531 62.5976 87.1598C62.1359 86.3903 61.5973 85.5439 61.0586 84.6975C57.5192 78.6188 56.5188 73.6174 57.9039 68.462C59.9044 61.3061 66.4448 57.4588 73.8316 59.2286C80.218 60.7675 83.8345 64.4609 86.2967 72.1554C88.9128 80.3886 86.9892 87.1597 85.2964 91.6226C82.4494 99.0093 85.3734 115.322 95.0685 121.785C99.6852 124.863 103.379 126.017 106.072 126.94C107.149 127.248 108.072 127.556 108.919 127.941C110.15 128.479 110.919 129.557 110.996 130.865C111.073 132.557 109.996 134.019 108.303 134.404C102.84 135.635 88.682 138.559 75.2166 139.56C67.599 140.175 62.7515 139.867 58.5195 139.636C54.5183 139.406 50.7479 139.252 45.2079 139.713C40.0525 140.175 37.2056 140.868 34.2047 141.56C30.5113 142.406 26.6641 143.33 18.4309 143.792C17.7384 143.868 16.969 143.868 16.1995 143.868ZM70.5229 60.6136C65.4445 60.6136 61.2125 63.7684 59.8275 68.9237C58.5194 73.5404 59.4428 78.0033 62.7515 83.6972C63.2901 84.5436 63.7517 85.39 64.2134 86.1595C66.5218 89.8528 68.6762 93.3923 69.3687 100.087C70.0612 107.012 68.2915 113.013 64.1365 118.015C51.6713 132.942 19.739 135.558 2.5802 137.02C2.11853 137.02 1.88769 137.328 1.81075 137.559C1.7338 137.713 1.73379 137.944 2.04158 138.174C4.50383 140.329 10.6594 142.406 18.277 141.945C26.3563 141.483 30.1266 140.56 33.7431 139.713C36.667 139.021 39.7448 138.328 44.9771 137.79C50.671 137.251 54.5183 137.482 58.5964 137.636C62.9823 137.867 67.5221 138.098 75.0627 137.559C88.4512 136.559 102.532 133.635 107.918 132.404C108.688 132.25 109.226 131.557 109.149 130.788C109.149 130.172 108.765 129.634 108.226 129.403C107.457 129.095 106.61 128.787 105.533 128.479C102.763 127.556 98.9157 126.325 94.0682 123.093C83.5267 116.091 80.5258 98.9324 83.6036 90.7762C85.2964 86.2364 86.9892 80.1577 84.527 72.5401C82.2956 65.4612 79.1408 62.1525 73.3699 60.8444C72.5235 60.7675 71.5232 60.6136 70.5229 60.6136Z" fill="black"/>
<path d="M61.9824 74.5406C61.9824 74.5406 66.0605 84.2357 75.7556 80.1576C86.8357 75.5409 82.8346 65.9227 82.8346 65.9227L61.9824 74.5406Z" fill="black"/>
<path d="M61.2116 96.3932C68.7523 107.396 65.1358 118.63 59.3649 123.247C57.7491 124.478 51.4396 127.633 51.4396 127.633C51.4396 127.633 47.5153 130.788 39.0513 132.25C32.8957 133.327 26.9709 131.403 21.277 126.402C14.6597 120.631 9.04267 102.934 23.8162 91.4687C36.2044 81.8505 52.9785 84.3897 61.2116 96.3932Z" fill="#E62828"/>
<path d="M55.5962 96.7778C55.3654 96.7778 55.1346 96.7009 54.9037 96.4701C50.7487 92.1611 44.8239 90.0836 38.2835 90.6222C37.7449 90.6222 37.3602 90.3144 37.2832 89.7758C37.2063 89.2372 37.5911 88.8525 38.1297 88.7755C45.2086 88.2369 51.672 90.4683 56.2118 95.2389C56.5965 95.6237 56.5196 96.1623 56.2118 96.547C56.0579 96.7009 55.8271 96.7778 55.5962 96.7778Z" fill="#FF5A5A"/>
<path d="M23.6642 99.0094C23.3564 99.0094 23.1256 98.8555 22.8948 98.6246C19.8939 94.4696 15.7388 92.2382 10.9682 92.2382C10.4296 92.2382 10.0449 91.8534 10.0449 91.3148C10.0449 90.7762 10.4296 90.3915 10.9682 90.3915C16.2775 90.3145 21.0481 92.8537 24.3567 97.5474C24.6645 97.9321 24.5876 98.5477 24.1259 98.8555C24.049 98.9324 23.895 99.0094 23.6642 99.0094Z" fill="black"/>
<path d="M36.1279 133.25C30.357 133.25 23.9705 131.326 18.6613 124.709C14.5062 119.554 12.8135 113.013 13.8907 106.396C15.0449 99.394 19.2769 93.1614 25.4325 89.2372C34.589 83.3893 49.3625 82.6968 58.1343 91.6225C64.5977 98.1628 69.3683 109.935 61.6737 121.477C61.366 121.862 60.8274 122.016 60.4426 121.708C60.0579 121.4 59.904 120.862 60.2118 120.477C67.2907 109.859 63.1357 99.2401 56.9031 92.9305C48.7469 84.6205 35.0506 85.3899 26.5097 90.853C20.7388 94.5464 16.8916 100.317 15.8143 106.781C14.8141 112.859 16.3529 118.861 20.2002 123.632C28.6642 134.173 40.2829 131.788 46.5155 129.48C54.1331 126.556 56.7493 117.938 55.4412 110.936C54.287 104.934 49.978 98.6245 41.3602 98.6245C41.2832 98.6245 41.2063 98.6245 41.1293 98.6245C34.589 98.7014 29.2797 104.78 29.0489 109.935C28.895 113.244 30.9725 116.784 34.0504 118.553C35.7431 119.477 39.2057 120.631 43.2069 117.861C44.6688 116.861 45.6691 115.245 45.8999 113.475C46.1308 111.859 45.6691 110.32 44.7458 109.166C43.5146 107.781 41.9757 107.242 40.5138 107.781C39.2057 108.243 38.2824 109.474 38.2054 110.782C38.2054 111.32 37.7437 111.705 37.2821 111.705C36.7434 111.705 36.3587 111.244 36.3587 110.782C36.4357 108.704 37.8207 106.858 39.8213 106.165C42.0527 105.396 44.3611 106.088 46.0538 108.089C47.3619 109.628 47.9775 111.705 47.6697 113.783C47.3619 116.091 46.1308 118.169 44.2071 119.477C40.6677 121.939 36.6665 122.247 33.127 120.246C29.3567 118.169 26.9714 114.014 27.2022 109.935C27.51 103.857 33.5118 97.0086 41.0524 96.9317C49.2856 96.8547 55.5951 102.241 57.2109 110.705C58.6729 118.476 55.672 128.018 47.1311 131.326C44.2071 132.173 40.3599 133.25 36.1279 133.25Z" fill="black"/>
<path fill-rule="evenodd" clip-rule="evenodd" d="M30.8978 86.4672C32.8984 80.8502 30.0514 74.3098 29.5897 74.3868C28.9741 74.5407 23.9727 76.4643 20.818 79.773C16.9707 83.7741 16.4321 89.3911 20.5102 90.7761C26.2041 92.6998 29.4358 90.5453 30.8978 86.4672Z" fill="#B4E100"/>
<path d="M24.4335 92.0842C23.2793 92.0842 21.8943 91.8534 20.3554 91.3147C18.7395 90.7761 17.6623 89.622 17.2776 88.0061C16.662 85.39 17.8932 82.0044 20.4324 79.3882C23.6641 76.0026 28.8963 74.002 29.4349 73.8481C29.5888 73.8481 29.8966 73.7712 30.1274 74.079C30.9738 75.0023 33.3592 81.3119 31.4355 86.698C30.5122 89.3142 28.5116 92.0842 24.4335 92.0842ZM29.358 75.0793C28.1269 75.5409 23.8949 77.3876 21.2018 80.1577C18.9704 82.466 17.8162 85.4669 18.3548 87.6983C18.6626 88.9294 19.4321 89.7758 20.6632 90.1606C25.5107 91.7764 28.7424 90.4683 30.2813 86.2363C31.9741 81.5427 30.0505 76.3104 29.358 75.0793Z" fill="black"/>
<path d="M39.3592 100.394C39.1284 100.394 38.8206 100.24 38.7437 99.9327C38.5898 99.394 38.4359 98.8554 38.282 98.2398C37.8972 96.7779 37.5125 95.162 37.0509 93.9309C36.9739 93.6231 37.1278 93.2384 37.4356 93.1615C37.7434 93.0845 38.1281 93.2384 38.205 93.5462C38.6667 94.7773 39.0514 96.4701 39.4361 97.9321C39.59 98.5476 39.744 99.0862 39.8978 99.6249C39.9748 99.9326 39.8209 100.317 39.4361 100.394H39.3592Z" fill="black"/>
<path d="M35.1281 101.779C34.8973 101.779 34.7434 101.702 34.5895 101.472C33.9739 100.394 32.6659 98.4708 31.9734 97.5474C31.7425 97.3166 31.8195 96.9319 32.0503 96.701C32.2811 96.4702 32.6658 96.5471 32.8967 96.778C33.6661 97.7013 35.0512 99.7019 35.6667 100.856C35.8206 101.164 35.7437 101.549 35.4359 101.702C35.359 101.702 35.2051 101.779 35.1281 101.779Z" fill="black"/>
<path d="M52.2093 105.704C51.9785 105.704 51.8246 105.627 51.6707 105.396C51.5168 105.088 51.5937 104.703 51.9015 104.549C52.594 104.088 53.6713 103.395 54.7485 102.703C55.8257 102.01 56.903 101.318 57.5955 100.856C57.9033 100.702 58.288 100.779 58.4419 101.087C58.5958 101.395 58.5188 101.779 58.2111 101.933C57.5185 102.395 56.4413 103.087 55.3641 103.78C54.2868 104.472 53.2096 105.165 52.5171 105.627C52.4401 105.627 52.2863 105.704 52.2093 105.704Z" fill="black"/>
<path d="M22.0482 87.8523C21.9713 87.8523 21.8943 87.8523 21.8174 87.7753C21.5096 87.6214 21.3557 87.3137 21.5096 87.0059C21.5865 86.775 23.6641 81.6967 26.588 78.7727C26.8188 78.5419 27.2036 78.5419 27.4344 78.7727C27.6652 79.0036 27.6652 79.3883 27.4344 79.6191C24.6644 82.3891 22.6638 87.3906 22.6638 87.4675C22.5099 87.6984 22.2791 87.8523 22.0482 87.8523Z" fill="black"/>
<g opacity="0.6">
<g opacity="0.6">
<g opacity="0.6">
<path opacity="0.6" d="M73.8323 64.6148C73.6784 64.6148 73.5245 64.6148 73.4476 64.5378C72.2165 63.9223 70.8314 63.7684 69.4464 63.9992C68.9847 64.0762 68.4462 63.7684 68.3692 63.3067C68.2923 62.845 68.6 62.3064 69.0617 62.2295C70.8314 61.8447 72.6012 62.1525 74.217 62.922C74.6787 63.1528 74.8326 63.6914 74.6018 64.1531C74.5248 64.4609 74.217 64.6148 73.8323 64.6148Z" fill="#B4E100"/>
</g>
</g>
</g>
<path d="M47.5927 104.78C47.3619 104.78 47.1311 104.703 46.9772 104.549C45.8999 103.549 43.9763 102.857 42.2066 102.857C41.6679 102.857 41.2832 102.472 41.2832 101.933C41.2832 101.395 41.7449 101.01 42.2066 101.01C44.438 101.01 46.7463 101.856 48.2083 103.241C48.593 103.626 48.593 104.165 48.2083 104.549C48.1313 104.703 47.8236 104.78 47.5927 104.78Z" fill="#FF5A5A"/>
<path d="M51.5183 112.936C51.2874 112.936 51.0566 112.859 50.9027 112.706C50.7488 112.552 50.6719 112.321 50.6719 112.09C50.6719 112.013 50.6719 112.013 50.6719 111.936C50.6719 111.859 50.6719 111.859 50.7488 111.782C50.7488 111.705 50.8258 111.705 50.8258 111.628C50.8258 111.551 50.9027 111.551 50.9027 111.474C51.2874 111.167 51.8261 111.167 52.2108 111.474C52.2108 111.551 52.2877 111.551 52.2877 111.628C52.2877 111.705 52.3647 111.705 52.3647 111.782C52.3647 111.859 52.4416 111.859 52.4416 111.936C52.4416 112.013 52.4416 112.013 52.4416 112.09C52.4416 112.321 52.3647 112.552 52.2108 112.706C51.9799 112.859 51.7491 112.936 51.5183 112.936Z" fill="black"/>
<path d="M50.6698 128.864C50.439 128.864 50.2081 128.787 49.9773 128.556C49.5926 128.171 49.6695 127.633 49.9773 127.248C52.2856 125.017 53.9785 124.324 55.4404 123.786C57.0563 123.17 58.2874 122.708 60.0571 120.323C60.3649 119.938 60.9035 119.861 61.3652 120.169C61.7499 120.477 61.8269 121.016 61.5191 121.477C59.3646 124.247 57.7488 124.863 56.056 125.555C54.671 126.094 53.209 126.633 51.2084 128.633C51.1315 128.787 50.9006 128.864 50.6698 128.864Z" fill="black"/>
<path d="M100.764 130.711C100.687 130.711 100.61 130.711 100.533 130.711C96.6856 129.634 93.5309 128.095 91.6072 126.556C91.2225 126.248 91.1455 125.632 91.5303 125.248C91.8381 124.863 92.4536 124.786 92.8384 125.171C94.5311 126.633 97.4551 127.941 101.072 129.018C101.533 129.172 101.841 129.634 101.687 130.172C101.533 130.403 101.148 130.711 100.764 130.711Z" fill="#B4E100"/>
<path d="M74.9083 80.4654C81.9872 78.4648 80.8331 75.9256 80.8331 75.9256C79.9867 74.6945 77.6783 73.7712 75.9085 74.3867C75.3699 74.6176 74.6774 74.9253 74.4466 75.464C74.2927 75.7717 74.2157 76.0026 73.4463 76.0026C72.9846 76.0026 72.2921 76.0026 71.9074 76.1565C70.984 76.4642 68.6757 77.6184 70.2915 80.3115C70.4454 81.004 71.5996 81.004 71.6765 81.081C71.9074 81.004 73.9849 80.7732 74.9083 80.4654Z" fill="#E62828"/>
<path d="M82.0646 75.0023C80.2179 75.464 78.2942 76.0796 76.3706 76.7721C73.1389 77.9263 70.215 79.1574 67.6758 80.4654C69.8303 81.4657 72.4464 81.5427 75.755 80.2346C78.9867 78.8496 80.9104 77.0798 82.0646 75.0023Z" fill="white"/>
<path d="M83.4494 68.4621C83.0647 67.2309 83.1417 66.6154 82.8339 65.6921C82.8339 65.6921 82.8339 65.6921 82.8339 65.6151L62.4434 74.6947C62.4434 74.6947 62.4434 74.6947 62.4434 74.7716C62.6742 75.4641 62.982 76.2336 63.2897 77.003C66.2137 76.4644 69.5223 75.3872 72.9079 74.0791C79.0635 71.6168 81.9105 69.7701 83.4494 68.4621Z" fill="white"/>
<path d="M67.6759 81.0041C67.4451 81.0041 67.2912 80.9271 67.2143 80.6963C67.0604 80.3885 67.2143 80.0807 67.4451 79.9268C67.5221 79.9268 74.9088 76.1565 81.6031 74.4637C81.9109 74.3868 82.2186 74.5406 82.2956 74.8484C82.3725 75.1562 82.2186 75.464 81.9108 75.5409C75.3705 77.1568 68.0607 80.8502 67.9837 80.9271C67.8299 81.004 67.7529 81.0041 67.6759 81.0041Z" fill="black"/>
<path d="M71.2145 81.7736C64.4434 81.7736 61.5194 74.9255 61.4425 74.7716C61.3655 74.6177 61.3655 74.4638 61.4425 74.3099C61.5194 74.156 61.5963 74.0791 61.7502 74.0021L82.6024 65.3842C82.9102 65.2303 83.218 65.3842 83.2949 65.692C83.2949 65.769 84.9877 69.7701 83.2949 73.9252C82.1407 76.8491 79.6785 79.0805 75.9082 80.6964C74.2154 81.4658 72.6765 81.7736 71.2145 81.7736ZM62.7506 74.8485C63.7508 76.7721 67.5981 83.0047 75.5235 79.6961C84.68 75.9257 83.141 68.6929 82.4485 66.6923L62.7506 74.8485Z" fill="black"/>
<path d="M20.1247 105.55C20.0478 105.55 19.9708 105.55 19.9708 105.55C19.663 105.473 19.4322 105.088 19.5861 104.78C21.2789 99.2401 25.5109 95.7776 26.9729 94.9312C27.2807 94.7773 27.6654 94.8542 27.8193 95.162C27.9731 95.4698 27.8962 95.8545 27.5884 96.0084C26.2804 96.7779 22.2792 100.01 20.7403 105.165C20.5864 105.396 20.3556 105.55 20.1247 105.55Z" fill="black"/>
<path d="M72.4463 84.8514C71.7538 84.8514 71.1382 84.7745 70.5996 84.6206C70.2918 84.5436 70.061 84.2359 70.138 83.8511C70.2149 83.5434 70.5227 83.3125 70.9074 83.3895C73.9083 84.1589 79.6023 82.3122 81.2181 80.0039C81.4489 79.6961 81.7567 79.6961 82.0645 79.85C82.3723 80.0808 82.3723 80.3886 82.2184 80.6964C80.6025 83.0048 75.9858 84.8514 72.4463 84.8514Z" fill="black"/>
<path d="M62.2134 6.13625C56.7503 2.8276 50.2869 3.44317 47.4399 4.67429C47.286 4.75124 46.8243 3.90485 46.9782 3.75096C49.5944 1.36566 57.8275 -0.942706 64.214 2.90456C65.1373 3.44318 62.9829 6.59792 62.2134 6.13625Z" fill="black"/>
<path d="M74.8306 12.2918C77.4467 8.98319 81.5248 7.90596 83.6024 8.05985C83.6793 8.05985 83.7562 7.44429 83.6793 7.36735C81.5248 6.52095 75.9078 6.98262 72.907 10.7529C72.3683 11.3685 74.4459 12.7535 74.8306 12.2918Z" fill="black"/>
<defs>
<linearGradient id="paint0_linear_580_13429" x1="53.5534" y1="24.7343" x2="53.5534" y2="48.2026" gradientUnits="userSpaceOnUse">
<stop stop-color="#FC4646"/>
<stop offset="1" stop-color="#FFD911" stop-opacity="0.14"/>
</linearGradient>
<linearGradient id="paint1_linear_580_13429" x1="86.6399" y1="23.9648" x2="86.6399" y2="46.2789" gradientUnits="userSpaceOnUse">
<stop stop-color="#FC4646"/>
<stop offset="1" stop-color="#FFD911" stop-opacity="0.14"/>
</linearGradient>
</defs>
</svg>
