<svg width="241" height="202" viewBox="0 0 241 202" fill="none" xmlns="http://www.w3.org/2000/svg">
<g clip-path="url(#clip0_1421_18674)">
<path d="M228.192 65.0355C224.518 57.3204 223.534 47.9959 225.516 39.6838C228.7 33.0205 229.338 25.4283 227.311 18.3315C226.104 14.0543 223.593 10.2581 220.127 7.469C216.66 4.67988 212.41 3.03596 207.964 2.76489C204.208 2.39894 200.416 2.80724 196.825 3.9645C193.233 5.12175 189.917 7.00324 187.084 9.49212C179.268 13.4675 170.256 14.4188 161.782 12.1628C156.138 9.51679 149.857 8.5182 143.666 9.28233C137.401 9.59443 131.4 11.9079 126.551 15.8814C118.754 19.8564 109.758 20.806 101.302 18.5465C94.5601 15.1201 86.7775 14.3285 79.4783 16.3267C75.0931 17.541 71.2074 20.1137 68.3817 23.6737C65.5561 27.2337 63.9367 31.5968 63.7573 36.1334C63.1744 42.6016 64.6135 49.0901 67.8768 54.7074C71.8281 63.4909 72.864 73.3053 70.8336 82.7201C69.4902 86.1589 68.8507 89.831 68.9526 93.5197C69.0546 97.2084 69.8961 100.839 71.4273 104.197C72.7424 107.747 74.993 110.877 77.9419 113.257C80.8909 115.638 84.429 117.18 88.1836 117.722C98.4299 119.171 104.119 115.286 111.429 109.883C118.74 105.937 127.316 105.032 135.29 107.365C140.968 110.773 147.645 112.139 154.212 111.237C160.756 110.492 166.923 107.796 171.909 103.5C179.301 99.7587 187.812 98.8602 195.823 100.976C202.474 104.728 210.304 105.825 217.737 104.047C222.103 102.918 226.003 100.446 228.883 96.9811C231.763 93.5163 233.427 89.7071 233.731 85.217C234.228 77.8365 232.068 70.0568 227.563 64.1848" fill="#70B62E"/>
</g>
<path d="M109.446 59.0118L108.094 59.1545L107.052 49.2893L101.006 49.9275L102.047 59.7927L100.695 59.9355L99.5191 48.7973L108.271 47.8736L109.446 59.0118ZM115.715 54.5692L111.912 54.9706L111.786 53.7772L115.589 53.3758L115.715 54.5692ZM123.928 55.5042L124.631 56.3632C124.099 57.2238 123.224 57.7184 122.004 57.8472C120.858 57.9681 119.894 57.7266 119.112 57.1227C118.34 56.5177 117.894 55.6477 117.774 54.5127C117.664 53.4625 117.915 52.5404 118.528 51.7463C119.142 50.9522 119.968 50.5003 121.008 50.3905C122.259 50.2584 123.231 50.4723 123.923 51.0321L123.44 52.0966C122.836 51.6563 122.125 51.4792 121.309 51.5654C120.64 51.636 120.088 51.941 119.651 52.4804C119.224 53.0082 119.05 53.638 119.127 54.3699C119.209 55.1443 119.518 55.7338 120.054 56.1384C120.601 56.5525 121.241 56.721 121.973 56.6437C122.801 56.5564 123.452 56.1765 123.928 55.5042ZM129.544 53.1095L125.741 53.5109L125.615 52.3175L129.418 51.9161L129.544 53.1095ZM137.758 54.0445L138.46 54.9035C137.929 55.764 137.053 56.2587 135.833 56.3875C134.688 56.5084 133.724 56.2669 132.941 55.663C132.169 55.058 131.724 54.188 131.604 53.053C131.493 52.0028 131.744 51.0807 132.358 50.2866C132.971 49.4925 133.797 49.0406 134.837 48.9308C136.089 48.7987 137.061 49.0125 137.752 49.5723L137.27 50.6369C136.665 50.1966 135.955 50.0195 135.138 50.1057C134.47 50.1763 133.917 50.4813 133.481 51.0207C133.054 51.5485 132.879 52.1783 132.956 52.9102C133.038 53.6846 133.347 54.2741 133.883 54.6787C134.431 55.0928 135.071 55.2613 135.803 55.184C136.63 55.0967 137.282 54.7168 137.758 54.0445ZM143.374 51.6498L139.571 52.0512L139.445 50.8578L143.248 50.4564L143.374 51.6498ZM151.587 52.5848L152.289 53.4438C151.758 54.3043 150.883 54.799 149.663 54.9277C148.517 55.0487 147.553 54.8072 146.771 54.2033C145.999 53.5983 145.553 52.7283 145.433 51.5933C145.322 50.5431 145.574 49.621 146.187 48.8269C146.8 48.0328 147.627 47.5808 148.666 47.4711C149.918 47.339 150.89 47.5528 151.582 48.1126L151.099 49.1772C150.495 48.7369 149.784 48.5598 148.967 48.646C148.299 48.7165 147.747 49.0215 147.31 49.561C146.883 50.0887 146.708 50.7186 146.786 51.4505C146.867 52.2249 147.176 52.8144 147.712 53.219C148.26 53.6331 148.9 53.8015 149.632 53.7243C150.46 53.637 151.111 53.2571 151.587 52.5848ZM153.834 53.5865C153.807 53.3319 153.865 53.1219 154.009 52.9566C154.151 52.7807 154.366 52.6776 154.652 52.6474C154.991 52.6116 155.282 52.7257 155.525 52.9897C155.766 53.2431 155.911 53.6032 155.96 54.0699C156.021 54.6427 155.914 55.1528 155.639 55.6001C155.377 56.0569 154.983 56.3934 154.459 56.6096L154.045 56.0419C154.579 55.8139 154.881 55.4228 154.951 54.8683C154.987 54.4998 154.954 54.2352 154.851 54.0744C154.797 54.1766 154.686 54.2367 154.516 54.2546C154.357 54.2714 154.206 54.2175 154.064 54.0931C153.932 53.9569 153.855 53.788 153.834 53.5865ZM164.729 45.9366L166.208 45.7804L164.011 49.5036L167.123 52.9238L165.564 53.0884L163.158 50.4142L161.332 53.5352L159.852 53.6914L162.172 49.7621L159.255 46.5144L160.814 46.3498L163.041 48.8498L164.729 45.9366ZM168.754 51.8507C167.978 51.2033 167.534 50.3439 167.42 49.2725C167.306 48.1905 167.562 47.2625 168.188 46.4885C168.824 45.7028 169.71 45.25 170.845 45.1302C171.98 45.0104 172.935 45.2689 173.71 45.9057C174.494 46.5308 174.944 47.3843 175.058 48.4663C175.172 49.5483 174.912 50.4822 174.276 51.2679C173.65 52.0419 172.769 52.4888 171.634 52.6086C170.51 52.7273 169.55 52.4747 168.754 51.8507ZM169.28 47.226C168.862 47.742 168.693 48.3766 168.773 49.1297C168.852 49.8829 169.145 50.4688 169.65 50.8873C170.167 51.3154 170.787 51.4914 171.508 51.4153C172.229 51.3391 172.793 51.0436 173.2 50.5287C173.617 50.0021 173.785 49.3622 173.706 48.6091C173.628 47.8772 173.331 47.2918 172.812 46.8531C172.306 46.4239 171.692 46.2474 170.971 46.3236C170.249 46.3997 169.686 46.7005 169.28 47.226ZM180.622 44.259L181.895 44.1247L182.651 51.2849L181.378 51.4193L181.084 48.6347C180.569 49.043 179.925 49.288 179.15 49.3698C177.453 49.5489 176.508 48.7262 176.316 46.9017L176.087 44.7377L177.44 44.5949L177.653 46.6157C177.772 47.7401 178.346 48.248 179.374 48.1394C180.043 48.0689 180.573 47.8627 180.966 47.5209L180.622 44.259ZM190.409 48.664L190.913 49.6245C190.289 50.3231 189.426 50.7307 188.323 50.8471C187.156 50.9703 186.192 50.7288 185.431 50.1227C184.659 49.5177 184.213 48.6477 184.093 47.5126C183.98 46.4412 184.215 45.5155 184.798 44.7353C185.37 43.9563 186.234 43.5058 187.39 43.3838C188.345 43.283 189.168 43.5072 189.859 44.0564C190.559 44.5938 190.96 45.3452 191.062 46.3105C191.094 46.6182 191.098 46.9074 191.073 47.1782L185.568 47.7593C185.691 48.422 185.996 48.9207 186.482 49.2556C186.978 49.5893 187.582 49.7187 188.292 49.6437C189.226 49.5451 189.931 49.2186 190.409 48.664ZM187.453 44.5838C186.827 44.6499 186.325 44.8798 185.949 45.2735C185.583 45.6661 185.393 46.1528 185.379 46.7334L189.723 46.2749C189.628 45.6842 189.377 45.2388 188.97 44.9385C188.574 44.6371 188.068 44.5189 187.453 44.5838ZM202.285 49.2125L193.215 50.1698L192.46 43.0096L193.732 42.8752L194.362 48.8421L196.988 48.565L196.358 42.5981L197.631 42.4637L198.261 48.4306L200.886 48.1535L200.256 42.1866L201.529 42.0523L202.285 49.2125ZM100.529 76.0741L101.231 76.9331C100.699 77.7936 99.8239 78.2883 98.604 78.417C97.4584 78.538 96.4944 78.2965 95.712 77.6926C94.9402 77.0876 94.4944 76.2176 94.3746 75.0826C94.2638 74.0324 94.515 73.1103 95.1284 72.3162C95.7418 71.5221 96.5682 71.0701 97.6078 70.9604C98.8595 70.8283 99.8313 71.0421 100.523 71.6019L100.04 72.6665C99.4361 72.2262 98.7256 72.0491 97.9088 72.1353C97.2405 72.2058 96.6881 72.5108 96.2517 73.0503C95.8247 73.578 95.6499 74.2079 95.7271 74.9398C95.8088 75.7142 96.1178 76.3037 96.6539 76.7083C97.2017 77.1224 97.8416 77.2908 98.5735 77.2136C99.4009 77.1263 100.053 76.7464 100.529 76.0741ZM104.272 77.6579L102.999 77.7922L102.243 70.632L103.405 70.5094L106.532 73.7671L108.767 69.9434L109.897 69.8242L110.653 76.9844L109.38 77.1187L108.829 71.8997L106.698 75.4873L106.65 75.4923L103.721 72.4389L104.272 77.6579ZM112.745 71.052L112.304 70.0689C112.968 69.559 113.741 69.2575 114.621 69.1646C115.587 69.0627 116.312 69.2275 116.797 69.6589C117.283 70.0904 117.578 70.8047 117.683 71.8018L118.147 76.1934L116.937 76.321L116.84 75.3982C116.351 76.147 115.623 76.5724 114.658 76.6743C114 76.7437 113.449 76.6034 113.005 76.2535C112.559 75.8929 112.3 75.3732 112.229 74.6943C112.155 73.9942 112.346 73.4163 112.802 72.9606C113.257 72.4942 113.887 72.2185 114.693 72.1334C115.447 72.0539 116.057 72.1451 116.524 72.4068C116.439 71.6006 116.267 71.0342 116.007 70.7077C115.747 70.3811 115.299 70.2515 114.663 70.3186C114.016 70.3869 113.376 70.6314 112.745 71.052ZM114.982 75.4816C115.693 75.4066 116.276 75.034 116.731 74.3639L116.635 73.4569C116.156 73.1857 115.603 73.0832 114.978 73.1492C114.543 73.1951 114.188 73.3398 113.913 73.5833C113.648 73.8151 113.535 74.1166 113.574 74.4879C113.611 74.838 113.752 75.102 113.996 75.28C114.251 75.457 114.579 75.5241 114.982 75.4816ZM123.628 68.3749L124.901 68.2405L125.656 75.4007L124.383 75.5351L124.089 72.7506C123.575 73.1588 122.93 73.4038 122.156 73.4856C120.459 73.6647 119.514 72.842 119.321 71.0175L119.093 68.8535L120.445 68.7108L120.659 70.7315C120.777 71.856 121.351 72.3639 122.38 72.2553C123.048 72.1847 123.579 71.9786 123.972 71.6367L123.628 68.3749ZM134.478 74.4696L133.205 74.6039L132.886 71.5807L128.908 72.0006L129.227 75.0238L127.954 75.1582L127.199 67.998L128.471 67.8636L128.782 70.8072L132.76 70.3874L132.449 67.4437L133.722 67.3094L134.478 74.4696ZM141.628 68.3252L138.053 74.0922L136.78 74.2266L136.025 67.0664L137.297 66.932L137.86 72.2624L141.434 66.4953L142.707 66.361L143.463 73.5212L142.19 73.6556L141.628 68.3252ZM150.624 67.3755L147.05 73.1426L145.777 73.277L145.021 66.1167L146.294 65.9824L146.857 71.3128L150.431 65.5457L151.704 65.4113L152.46 72.5716L151.187 72.7059L150.624 67.3755ZM145.653 62.3496L146.847 62.2236C146.999 63.0549 147.452 63.4308 148.205 63.3513C148.915 63.2763 149.258 62.8164 149.234 61.9717L150.427 61.8457C150.495 62.4928 150.329 63.052 149.928 63.5233C149.537 63.9829 148.997 64.2491 148.307 64.3219C147.554 64.4014 146.939 64.2626 146.461 63.9054C145.993 63.5365 145.724 63.0179 145.653 62.3496ZM163.647 69.4119L164.349 70.2709C163.818 71.1314 162.942 71.6261 161.722 71.7548C160.576 71.8758 159.612 71.6343 158.83 71.0304C158.058 70.4254 157.613 69.5554 157.493 68.4204C157.382 67.3702 157.633 66.4481 158.247 65.654C158.86 64.8599 159.686 64.4079 160.726 64.2982C161.978 64.1661 162.949 64.3799 163.641 64.9397L163.158 66.0043C162.554 65.564 161.844 65.3869 161.027 65.4731C160.359 65.5436 159.806 65.8486 159.37 66.3881C158.943 66.9158 158.768 67.5457 158.845 68.2776C158.927 69.052 159.236 69.6415 159.772 70.0461C160.32 70.4602 160.96 70.6286 161.692 70.5514C162.519 70.464 163.171 70.0842 163.647 69.4119ZM171.189 68.7927L171.693 69.7532C171.07 70.4518 170.206 70.8593 169.103 70.9758C167.936 71.0989 166.972 70.8575 166.211 70.2513C165.439 69.6463 164.993 68.7763 164.874 67.6413C164.761 66.5699 164.995 65.6442 165.578 64.864C166.15 64.085 167.014 63.6345 168.17 63.5124C169.125 63.4117 169.948 63.6359 170.639 64.1851C171.339 64.7225 171.74 65.4739 171.842 66.4392C171.874 66.7468 171.878 67.036 171.853 67.3068L166.348 67.8879C166.471 68.5506 166.776 69.0494 167.262 69.3842C167.758 69.718 168.362 69.8473 169.072 69.7723C170.006 69.6738 170.712 69.3473 171.189 68.7927ZM168.233 64.7125C167.607 64.7786 167.106 65.0085 166.729 65.4022C166.363 65.7948 166.173 66.2814 166.159 66.8621L170.503 66.4036C170.408 65.8129 170.157 65.3674 169.75 65.0672C169.354 64.7658 168.848 64.6476 168.233 64.7125ZM177.838 62.6529L179.509 62.4765L176.735 66.2284L180.567 69.6048L178.801 69.7913L175.184 66.4725L177.838 62.6529ZM175.268 70.1641L173.995 70.2985L173.24 63.1383L174.513 63.0039L175.268 70.1641ZM183.529 72.51L182.256 72.6443L181.164 62.3018L182.437 62.1674L182.526 63.0107C182.75 62.6869 183.074 62.4112 183.501 62.1839C183.926 61.9459 184.378 61.8017 184.855 61.7514C185.873 61.6439 186.71 61.8988 187.365 62.5161C188.04 63.1206 188.434 63.9585 188.548 65.0299C188.663 66.1225 188.415 67.0764 187.804 67.8917C187.202 68.6953 186.344 69.1559 185.231 69.2735C184.371 69.3642 183.68 69.2708 183.158 68.9935L183.529 72.51ZM184.615 62.9834C183.766 63.0729 183.112 63.4745 182.651 64.1882L183.025 67.7365C183.627 68.0484 184.283 68.1669 184.993 68.0919C185.746 68.0124 186.321 67.7104 186.716 67.1861C187.12 66.65 187.282 65.9947 187.2 65.2204C187.121 64.4672 186.85 63.8897 186.39 63.4878C185.928 63.0754 185.336 62.9072 184.615 62.9834ZM196.222 66.1505L196.726 67.1109C196.102 67.8095 195.239 68.2171 194.136 68.3335C192.969 68.4567 192.005 68.2152 191.244 67.6091C190.472 67.0041 190.026 66.1341 189.906 64.9991C189.793 63.9277 190.028 63.0019 190.611 62.2218C191.183 61.4428 192.047 60.9922 193.203 60.8702C194.158 60.7694 194.981 60.9936 195.671 61.5428C196.372 62.0803 196.773 62.8317 196.875 63.797C196.907 64.1046 196.911 64.3938 196.886 64.6646L191.38 65.2457C191.504 65.9084 191.809 66.4071 192.295 66.742C192.791 67.0757 193.395 67.2051 194.105 67.1301C195.039 67.0315 195.744 66.705 196.222 66.1505ZM193.266 62.0703C192.64 62.1363 192.138 62.3662 191.762 62.7599C191.395 63.1525 191.206 63.6392 191.192 64.2198L195.536 63.7613C195.441 63.1707 195.19 62.7252 194.783 62.4249C194.387 62.1236 193.881 62.0053 193.266 62.0703ZM199.985 61.6023L197.36 61.8794L197.226 60.6065L203.749 59.9179L203.884 61.1908L201.258 61.468L201.88 67.3552L200.607 67.4896L199.985 61.6023ZM209.446 58.1904C209.395 57.7024 209.166 57.3083 208.759 57.008C208.362 56.7067 207.883 56.5856 207.32 56.645C206.408 56.7413 205.707 57.2121 205.217 58.0576L204.364 57.2949C204.61 56.7756 204.993 56.3436 205.515 55.999C206.035 55.6437 206.619 55.432 207.266 55.3637C208.252 55.2595 209.065 55.4419 209.705 55.9107C210.343 56.3689 210.703 56.9905 210.786 57.7754C210.839 58.274 210.8 58.7232 210.671 59.123C210.64 59.2335 210.603 59.3393 210.56 59.4404C210.517 59.5415 210.463 59.6437 210.399 59.747C210.334 59.8397 210.278 59.9206 210.232 59.9899C210.195 60.0474 210.128 60.1295 210.032 60.2362C209.935 60.3322 209.868 60.4037 209.83 60.4506C209.801 60.4858 209.729 60.5631 209.613 60.6826C209.496 60.7916 209.422 60.8583 209.393 60.8829C209.335 60.9426 209.252 61.0264 209.146 61.1342C209.049 61.2302 208.971 61.3081 208.913 61.3679C208.866 61.4265 208.799 61.5033 208.712 61.5983C208.626 61.6932 208.559 61.7753 208.513 61.8445C208.467 61.9138 208.417 61.9995 208.363 62.1017C208.309 62.2039 208.271 62.2991 208.248 62.3873C208.236 62.4744 208.22 62.5727 208.199 62.6821C208.189 62.7904 208.191 62.9082 208.204 63.0355C208.227 63.1511 208.256 63.2767 208.292 63.4124L207.148 63.5492C206.851 62.5616 207.017 61.745 207.646 61.0994C207.743 61.0034 207.904 60.8523 208.129 60.6462C208.363 60.4284 208.543 60.2539 208.669 60.1226C208.793 59.9808 208.93 59.8054 209.08 59.5966C209.24 59.3866 209.346 59.1663 209.396 58.9357C209.458 58.704 209.474 58.4556 209.446 58.1904ZM207.079 65.9377C207.054 65.7043 207.118 65.4991 207.271 65.3221C207.423 65.1345 207.637 65.0261 207.912 64.997C208.135 64.9735 208.34 65.0376 208.528 65.1894C208.716 65.3412 208.821 65.5285 208.845 65.7513C208.872 66.0059 208.815 66.2317 208.675 66.4289C208.534 66.6154 208.341 66.7215 208.097 66.7473C207.821 66.7764 207.59 66.715 207.402 66.5632C207.213 66.4008 207.105 66.1923 207.079 65.9377Z" fill="#043314"/>
<path d="M51.0003 138.275C50.8826 138.268 50.7684 138.202 50.6542 138.136C50.374 137.883 50.2811 137.464 50.5344 137.184C50.5344 137.184 51.8846 135.374 51.1116 133.495C50.8527 132.889 50.403 132.507 49.839 132.059C49.2198 131.549 48.4863 130.973 48.0168 129.94C47.5473 128.907 47.6077 127.906 47.6575 127.082C47.7463 125.61 47.7997 124.727 45.4318 123.816C45.0856 123.676 44.8749 123.25 45.014 122.904C45.1531 122.558 45.5795 122.347 45.9257 122.486C49.2179 123.749 49.1112 125.515 49.0153 127.105C48.9691 127.87 48.9229 128.636 49.2335 129.364C49.5442 130.091 50.0528 130.477 50.6756 130.928C51.2948 131.438 52.0319 131.955 52.3836 132.981C53.4084 135.584 51.6729 137.902 51.6069 138.016C51.4749 138.245 51.2358 138.29 51.0003 138.275Z" fill="black"/>
<path d="M61.3681 137.838C61.1325 137.823 60.9666 137.636 60.8595 137.452C60.8077 137.331 59.3956 134.291 60.3317 131.511C60.6936 130.41 61.4392 129.805 62.1225 129.255C62.7432 128.761 63.3052 128.263 63.5869 127.512C63.9346 126.646 63.929 125.759 63.861 124.928C63.8428 123.272 63.7799 121.377 66.7361 120.374C67.0965 120.278 67.5015 120.42 67.6533 120.843C67.7497 121.203 67.6071 121.608 67.1842 121.76C65.195 122.408 65.2006 123.295 65.2777 124.954C65.2797 125.9 65.3335 126.967 64.9127 128.064C64.4883 129.221 63.6838 129.822 63.0006 130.372C62.3798 130.866 61.8803 131.309 61.661 132.005C60.8783 134.203 62.1386 136.82 62.135 136.879C62.2904 137.243 62.1477 137.648 61.7838 137.804C61.6625 137.855 61.4823 137.904 61.3681 137.838Z" fill="black"/>
<path d="M54.7944 166.456C55.553 189.136 22.7413 190.346 2.39406 190.655C1.27177 190.646 0.604769 191.906 1.44177 192.725C3.17111 194.425 7.76782 196.593 14.2071 196.627C25.4888 196.717 25.9416 195.09 34.9412 194.806C43.8195 194.573 46.6711 196.282 58.0223 196.199C68.3102 196.111 79.3934 194.593 83.6272 193.962C84.58 193.842 85.2221 192.995 85.2754 192.111C85.2591 191.401 84.8861 190.729 84.2562 190.395C82.0756 189.318 78.5747 188.575 73.8313 184.92C66.6592 179.405 64.8325 166.59 67.6857 160.439C68.5274 158.244 70.7218 150.28 68.5701 150.682C60.975 152.174 58.3757 146.285 58.3757 146.285C58.3757 146.285 63.7343 148.558 68.5971 144.361C70.2168 142.981 68.3682 142.279 67.0206 140.129C65.5552 137.972 63.6208 136.733 61.0102 135.925C55.9034 134.376 50.9813 136.62 49.1341 141.768C47.7808 145.586 48.4401 149.349 50.6536 153.797C52.5423 157.752 54.5717 160.356 54.7944 166.456Z" fill="#8CC800"/>
<path d="M15.9383 197.322C15.346 197.346 14.7572 197.31 14.1648 197.334C7.84327 197.307 2.94506 195.238 0.880208 193.222C0.323388 192.657 0.134066 191.877 0.412234 191.185C0.693956 190.434 1.43251 189.946 2.31927 189.941C15.3334 189.722 39.6434 189.357 49.5486 178.963C52.7059 175.608 54.2571 171.447 54.0846 166.473C53.905 161.616 52.5823 159.054 50.9864 156.121C50.6687 155.511 50.2956 154.839 49.9261 154.107C47.5019 149.233 47.0264 145.363 48.3208 141.541C50.1857 136.099 55.4235 133.519 61.0497 135.277C63.8921 136.158 65.9336 137.581 67.4579 139.742C67.8345 140.355 68.2807 140.796 68.6091 141.229C69.273 141.979 69.8263 142.603 69.7766 143.427C69.7446 143.957 69.4806 144.414 68.9187 144.912C65.5543 147.782 61.9484 147.8 59.843 147.437C61.1119 148.932 63.7138 150.862 68.3187 149.958C68.7968 149.869 69.2608 150.015 69.5927 150.389C69.98 150.826 70.3906 151.856 69.6957 155.537C69.284 157.462 68.6815 159.612 68.2642 160.651L68.2607 160.71C66.9018 163.641 66.6835 168.238 67.6534 172.728C68.7092 177.756 71.0582 181.916 74.224 184.294C77.6147 186.862 80.3841 187.975 82.4023 188.806C83.2088 189.15 83.9012 189.428 84.5346 189.703C85.4519 190.172 85.9874 191.091 85.9894 192.036C85.9701 193.335 85.0193 194.401 83.7651 194.62C79.5313 195.251 68.448 196.769 58.0977 196.912C52.1848 196.969 48.4896 196.51 45.2618 196.138C42.2107 195.776 39.2774 195.422 35.0166 195.519C31.0503 195.634 28.8398 196.033 26.4526 196.421C23.7674 196.849 21.0822 197.278 15.9383 197.322ZM57.6295 136.135C54.0236 136.153 50.9963 138.334 49.7125 141.98C48.4983 145.452 48.9399 148.906 51.2052 153.475C51.5194 154.144 51.8925 154.817 52.2102 155.427C53.8025 158.419 55.2912 161.168 55.4495 166.378C55.6596 171.709 53.9657 176.275 50.5552 179.911C46.1386 184.549 38.9186 187.659 28.4688 189.451C19.6926 190.93 10.3986 191.197 2.3553 191.302C2.00202 191.281 1.81116 191.506 1.74162 191.679C1.67563 191.793 1.66496 191.97 1.88982 192.161C3.67449 193.923 8.28897 195.797 14.1948 195.858C20.3985 195.878 23.3228 195.404 26.1881 194.927C28.5165 194.536 30.8448 194.145 34.9288 194.037C39.3109 193.887 42.2442 194.242 45.4096 194.669C48.7551 195.048 52.2737 195.497 58.0689 195.433C68.3567 195.345 79.3222 193.82 83.556 193.189C84.1519 193.107 84.596 192.602 84.5727 192.01C84.6011 191.539 84.3316 191.109 83.9301 190.907C83.3555 190.636 82.722 190.362 81.9119 190.076C79.8349 189.242 76.9477 188.122 73.3911 185.366C70.004 182.739 67.4924 178.333 66.3403 172.945C65.2739 168.093 65.5653 163.265 67.0597 160.046C67.4181 159.004 68.0724 156.975 68.4216 155.105C69.0079 152.245 68.7633 151.403 68.6562 151.219C64.4706 152.03 61.7154 150.682 60.1343 149.464C58.4425 148.121 57.7106 146.54 57.6553 146.478C57.5517 146.235 57.5731 145.882 57.8192 145.719C58.0101 145.494 58.308 145.453 58.5953 145.589C58.8273 145.662 63.6737 147.609 68.0995 143.799C68.3492 143.577 68.4776 143.408 68.4847 143.29C68.499 143.055 68.1117 142.618 67.6691 142.118C67.2818 141.681 66.7838 141.119 66.3519 140.443C65.0489 138.532 63.2912 137.304 60.7395 136.5C59.6315 136.255 58.5751 136.132 57.6295 136.135Z" fill="black"/>
<path d="M56.0603 147.445C55.8248 147.431 55.6 147.24 55.6142 147.005C55.6177 146.946 55.6101 145.113 56.8588 144.007C57.0461 143.841 57.3406 143.858 57.5065 144.046C57.6725 144.233 57.6547 144.528 57.4674 144.694C56.5309 145.523 56.5634 146.944 56.5634 146.944C56.5456 147.238 56.2994 147.4 56.0603 147.445Z" fill="black"/>
<path d="M49.3788 163.175C54.5784 171.998 51.2922 180.428 46.5452 183.687C45.2518 184.554 40.2226 186.615 40.2226 186.615C40.2226 186.615 37.0151 188.844 30.5332 189.516C25.7765 189.998 21.3316 188.252 17.209 184.103C12.4742 179.326 9.05581 165.469 20.9493 157.381C30.925 150.715 43.6401 153.491 49.3788 163.175Z" fill="#E62828"/>
<path d="M45.0662 163.151C44.8895 163.14 44.6576 163.067 44.5505 162.883C41.5735 159.335 37.1357 157.472 32.0506 157.519C31.6385 157.494 31.3583 157.241 31.3243 156.825C31.3492 156.413 31.6024 156.133 32.0181 156.099C37.5189 156.017 42.2994 158.079 45.6119 161.943C45.8885 162.255 45.8047 162.663 45.5515 162.944C45.3641 163.11 45.2428 163.161 45.0662 163.151Z" fill="#FF5A5A"/>
<path d="M20.4766 163.262C20.2411 163.248 20.0091 163.175 19.8467 162.929C17.8011 159.614 14.6693 157.652 11.0187 157.432C10.6066 157.407 10.3299 157.095 10.3548 156.683C10.3797 156.27 10.6919 155.994 11.104 156.019C15.1668 156.264 18.7001 158.427 21.0151 162.172C21.2329 162.48 21.1456 162.948 20.7781 163.162C20.7157 163.218 20.5943 163.269 20.4766 163.262Z" fill="black"/>
<path d="M29.7845 190.18C28.6622 190.172 27.4846 190.1 26.3141 189.912C21.8123 189.108 18.1166 186.699 15.2858 182.686C12.3479 178.491 11.3546 173.408 12.5434 168.397C13.75 163.092 17.3352 158.522 22.2858 155.807C26.1338 153.735 30.86 152.779 35.3207 153.285C40.1347 153.812 44.3781 155.959 47.2516 159.264C49.9555 162.441 51.6746 166.268 52.0984 170.016C52.5455 174.357 51.3404 178.658 48.4598 182.325C48.2065 182.605 47.7873 182.698 47.4482 182.441C47.168 182.188 47.0751 181.769 47.332 181.43C53.2983 173.635 50.6092 165.317 46.1973 160.087C40.3987 153.355 29.8306 153.19 22.9872 156.913C18.4042 159.414 15.1312 163.708 13.9495 168.6C12.8408 173.261 13.7412 177.925 16.4649 181.753C22.4513 190.269 31.5078 189.043 36.3248 187.561C42.3443 185.738 44.8032 179.268 44.1292 173.79C43.582 169.148 40.5244 163.999 33.7496 163.65C28.7412 163.406 24.3424 167.75 23.9276 171.685C23.6571 174.209 25.0209 177.069 27.3568 178.51C28.6095 179.295 31.2023 180.397 34.4509 178.466C35.6158 177.768 36.4559 176.577 36.7143 175.234C36.9656 174.008 36.6834 172.809 36.0301 171.883C35.1555 170.708 33.9993 170.283 32.8592 170.569C31.8369 170.862 31.0735 171.761 30.9542 172.759C30.9293 173.171 30.5583 173.444 30.2085 173.364C29.7964 173.339 29.5233 172.968 29.6035 172.618C29.7583 171.032 30.9035 169.683 32.5252 169.249C34.2683 168.763 35.9991 169.458 37.2021 171.067C38.132 172.306 38.4482 173.92 38.1721 175.558C37.8299 177.31 36.733 178.84 35.2595 179.755C32.4373 181.476 29.3059 181.464 26.6898 179.77C23.9006 178.006 22.2673 174.716 22.6323 171.606C22.8922 169.258 24.2779 166.86 26.3971 165.038C28.6412 163.105 31.2995 162.142 33.9491 162.302C37.2464 162.501 40.1264 163.739 42.236 165.994C44.1242 167.999 45.2632 170.668 45.6707 173.706C46.427 179.779 43.6311 186.938 36.8872 189.013C34.9604 189.606 32.5072 190.108 29.7845 190.18Z" fill="black"/>
<path fill-rule="evenodd" clip-rule="evenodd" d="M26.5901 153.999C28.4393 149.796 26.5075 144.598 26.2095 144.639C25.7314 144.728 21.8153 145.969 19.1895 148.352C16.0607 151.236 15.3302 155.506 18.3869 156.754C22.7141 158.492 25.2277 156.989 26.5901 153.999Z" fill="#B4E100"/>
<path d="M21.8003 157.964C20.7369 157.959 19.511 157.708 18.2441 157.159C17.0325 156.672 16.265 155.68 16.0452 154.426C15.695 152.395 16.7935 149.862 18.9162 147.981C21.6045 145.543 25.7007 144.253 26.12 144.16C26.2378 144.168 26.4768 144.123 26.6393 144.369C27.2443 145.115 28.7782 150.053 26.995 154.141C26.2407 155.869 25.1686 156.986 23.7753 157.552C23.1687 157.811 22.5104 157.948 21.8003 157.964ZM26.0007 145.158C25.0373 145.454 21.7136 146.672 19.5249 148.667C17.7107 150.331 16.6889 152.574 16.9391 154.303C17.1177 155.259 17.6675 155.942 18.5918 156.293C22.2231 157.813 24.7565 156.961 26.1295 153.794C27.7006 150.284 26.4738 146.132 26.0007 145.158Z" fill="black"/>
<path d="M32.3618 165.102C32.1263 165.088 31.9568 164.96 31.9121 164.72C31.8192 164.301 31.7264 163.882 31.6406 163.345C31.4137 162.208 31.1939 160.954 30.8975 159.991C30.8528 159.752 30.9884 159.464 31.2274 159.42C31.4665 159.375 31.7538 159.511 31.7985 159.75C32.0949 160.713 32.3111 162.026 32.538 163.163C32.6273 163.641 32.7167 164.119 32.8131 164.479C32.8578 164.718 32.7222 165.006 32.4243 165.047C32.4207 165.106 32.4207 165.106 32.3618 165.102Z" fill="black"/>
<path d="M29.1216 165.911C28.9449 165.901 28.7718 165.831 28.7236 165.651C28.3023 164.798 27.3937 163.207 26.9029 162.527C26.7369 162.34 26.8136 162.049 27.0009 161.883C27.1882 161.717 27.479 161.794 27.645 161.981C28.1912 162.723 29.0997 164.314 29.5763 165.23C29.6799 165.472 29.6033 165.763 29.3606 165.867C29.2393 165.918 29.1804 165.915 29.1216 165.911Z" fill="black"/>
<path d="M42.0043 169.821C41.8277 169.81 41.6546 169.741 41.6064 169.561C41.5028 169.318 41.5795 169.027 41.8221 168.924C42.4322 168.606 43.2886 168.126 44.086 167.642C44.9423 167.162 45.7986 166.682 46.4087 166.364C46.6514 166.26 46.9422 166.337 47.0457 166.58C47.1493 166.822 47.0726 167.113 46.83 167.217C46.2199 167.534 45.3636 168.014 44.5661 168.498C43.7098 168.978 42.8535 169.459 42.2434 169.776C42.1256 169.769 42.0632 169.824 42.0043 169.821Z" fill="black"/>
<path d="M19.7589 154.591C19.7 154.588 19.6411 154.584 19.5269 154.518C19.2985 154.386 19.1949 154.143 19.3269 153.915C19.3964 153.742 21.2208 149.952 23.6521 147.853C23.8394 147.687 24.1339 147.705 24.2998 147.892C24.4658 148.079 24.4481 148.374 24.2608 148.54C22.0131 150.531 20.1923 154.263 20.1888 154.322C20.1192 154.495 19.9355 154.602 19.7589 154.591Z" fill="black"/>
<g opacity="0.6">
<g opacity="0.6">
<g opacity="0.6">
<g opacity="0.6">
<path opacity="0.6" d="M60.7425 139.395C60.6247 139.388 60.507 139.381 60.3928 139.315C59.4791 138.787 58.4299 138.547 57.3559 138.718C56.999 138.756 56.6011 138.495 56.5635 138.138C56.526 137.782 56.7864 137.384 57.1432 137.346C58.5117 137.192 59.9141 137.454 61.0562 138.114C61.3988 138.312 61.4917 138.731 61.2937 139.074C61.1618 139.302 60.978 139.409 60.7425 139.395Z" fill="#B4E100"/>
</g>
</g>
</g>
</g>
<path d="M38.5736 168.905C38.397 168.894 38.165 168.821 38.0544 168.696C37.2798 167.822 35.8397 167.203 34.4855 167.122C34.0733 167.097 33.7967 166.785 33.8216 166.372C33.8465 165.96 34.1586 165.684 34.5708 165.708C36.2783 165.811 38.061 166.628 39.0569 167.752C39.3335 168.064 39.3086 168.476 38.9965 168.753C38.8716 168.864 38.6914 168.912 38.5736 168.905Z" fill="#EA5C5D"/>
<path d="M78.4454 191.699C78.3865 191.696 78.2687 191.688 78.2099 191.685C75.3192 190.624 72.9137 189.356 71.5752 188.034C71.295 187.781 71.2646 187.306 71.5768 187.03C71.8301 186.75 72.3046 186.719 72.5813 187.031C73.8091 188.228 75.9826 189.423 78.7002 190.414C79.0464 190.554 79.2606 190.921 79.1179 191.326C78.9895 191.496 78.7434 191.658 78.4454 191.699Z" fill="#B4E100"/>
<path d="M41.1375 175.383C41.0786 175.379 41.0198 175.376 41.0198 175.376C40.9609 175.372 40.902 175.369 40.9055 175.31C40.8467 175.306 40.8502 175.247 40.7913 175.244C40.7325 175.24 40.736 175.181 40.6772 175.178C40.5665 175.053 40.4594 174.869 40.47 174.692C40.4736 174.634 40.4772 174.575 40.4772 174.575C40.4807 174.516 40.4843 174.457 40.5431 174.46C40.5467 174.402 40.6056 174.405 40.6091 174.346C40.6127 174.287 40.6716 174.291 40.6751 174.232C40.8 174.121 40.9837 174.014 41.1604 174.025C41.337 174.036 41.5101 174.105 41.6796 174.234C41.7903 174.358 41.8974 174.542 41.8867 174.719C41.8832 174.778 41.8796 174.837 41.8796 174.837C41.8761 174.895 41.8725 174.954 41.8136 174.951C41.8101 175.01 41.7512 175.006 41.7477 175.065C41.7441 175.124 41.6852 175.12 41.6816 175.179C41.6781 175.238 41.6192 175.235 41.5568 175.29C41.4979 175.286 41.4944 175.345 41.4355 175.342C41.3766 175.338 41.373 175.397 41.3142 175.393C41.1964 175.386 41.1964 175.386 41.1375 175.383Z" fill="black"/>
<path d="M39.6949 187.528C39.5182 187.517 39.2863 187.444 39.1792 187.261C38.9025 186.948 38.9863 186.54 39.2396 186.26C41.1091 184.659 42.4329 184.266 43.6389 183.866C44.9038 183.469 45.8673 183.173 47.3906 181.433C47.6438 181.153 48.0595 181.119 48.3986 181.376C48.6788 181.629 48.7128 182.045 48.456 182.384C46.6794 184.404 45.4145 184.8 44.0871 185.252C43.0024 185.6 41.8588 185.945 40.1766 187.38C39.9928 187.487 39.8715 187.539 39.6949 187.528Z" fill="black"/>
<path d="M60.343 105.864C64.5652 101.51 71.9542 103.433 73.7023 108.739C75.9432 115.67 69.2947 121.06 63.226 118.803C57.6588 117.048 56.0939 109.685 60.343 105.864Z" fill="white"/>
<path d="M64.7657 119.723C64.1804 119.629 63.6576 119.479 63.0794 119.267C60.2994 118.331 58.2488 116.079 57.6574 113.148C57.0626 110.276 57.9433 107.433 60.0696 105.493C62.1477 103.373 65.0968 102.487 68.0678 103.198C71.0422 103.851 73.3426 105.881 74.1836 108.591C75.2282 111.845 74.4993 115.11 72.1197 117.33C70.17 119.281 67.4011 120.118 64.7657 119.723ZM67.249 104.035C64.7902 103.651 62.3782 104.451 60.6782 106.18C58.8052 107.84 58.0011 110.391 58.5584 112.907C59.1122 115.481 60.8791 117.538 63.3718 118.339C66.1448 119.393 69.3188 118.698 71.4522 116.64C73.5232 114.638 74.2273 111.784 73.2238 108.828C72.4239 106.416 70.4037 104.639 67.7789 104.067C67.6576 104.119 67.4256 104.046 67.249 104.035Z" fill="black"/>
<path d="M72.2193 117.632C73.1598 118.693 70.6696 120.789 68.1575 121.287C65.6454 121.785 61.4004 120.643 61.9192 118.901C62.2258 117.738 63.3125 118.335 65.7926 118.367C69.8696 118.376 71.334 116.633 72.2193 117.632Z" fill="#8CC800"/>
<path d="M65.3514 121.768C63.9454 121.565 62.5571 121.067 61.8932 120.318C61.3364 119.752 61.3719 119.164 61.511 118.817C61.8765 117.658 62.8186 117.715 64.0515 117.848C64.5225 117.876 65.1667 117.974 65.8768 117.958C67.8858 117.961 69.1507 117.565 70.1142 117.268C71.14 116.917 71.9232 116.668 72.5871 117.418C72.9191 117.792 73.0084 118.27 72.7998 118.79C72.3683 120.064 70.274 121.474 68.2401 121.883C67.4122 121.892 66.3488 121.887 65.3514 121.768ZM71.6202 117.773C71.3847 117.759 71.0243 117.855 70.3624 118.052C69.3989 118.348 67.9503 118.852 65.827 118.783C65.058 118.795 64.4139 118.697 63.9429 118.669C62.5922 118.528 62.5298 118.584 62.3871 118.989C62.3211 119.103 62.3069 119.338 62.5871 119.592C63.417 120.528 66.2772 121.114 68.131 120.754C69.9258 120.389 71.6562 119.134 71.9415 118.324C72.0146 118.092 71.9628 117.971 71.9075 117.909C71.7933 117.843 71.7344 117.839 71.6202 117.773Z" fill="black"/>
<path d="M30.8065 103.727C34.3085 94.6604 46.6191 92.3896 53.0547 99.3376C60.6522 107.597 54.8285 121.842 43.1829 121.907C33.4214 122.086 27.2848 112.142 30.8065 103.727Z" fill="white"/>
<path d="M40.7992 122.236C37.111 121.659 33.865 119.631 31.6946 116.427C29.0922 112.547 28.5558 107.728 30.3461 103.522C32.0293 99.1323 35.886 95.9376 40.73 94.9889C45.5115 94.0956 50.2097 95.5611 53.374 98.9432C57.0915 102.95 57.9868 108.677 55.7239 113.859C53.461 119.041 48.6587 122.237 43.2168 122.323C42.3854 122.391 41.5611 122.341 40.7992 122.236ZM45.5226 95.8692C44.0577 95.6625 42.4609 95.6843 40.9087 95.9452C36.4251 96.7974 32.8181 99.7708 31.2115 103.87C29.5567 107.788 30.0557 112.25 32.4956 115.884C34.9391 119.459 38.8363 121.467 43.1524 121.432C48.2963 121.388 52.7311 118.406 54.855 113.57C56.9823 108.675 56.121 103.364 52.6837 99.6107C50.7955 97.6057 48.2758 96.2717 45.5226 95.8692Z" fill="black"/>
<path d="M36.5838 121.568C36.0812 124.019 42.3728 125.522 46.6904 124.482C50.9455 123.498 56.3184 118.681 54.2734 117.317C53.1937 116.601 52.3912 118.149 48.2807 119.673C41.1551 122.198 37.0203 119.23 36.5838 121.568Z" fill="#8CC800"/>
<path d="M41.2759 125.101C39.4024 124.811 37.7268 124.178 36.8309 123.355C36.1046 122.662 36.0884 121.951 36.1757 121.484C36.4412 120.023 37.8543 120.108 39.6207 120.214C41.5638 120.332 44.4453 120.565 48.133 119.192C49.9456 118.533 51.1106 117.835 51.908 117.351C52.9516 116.705 53.6831 116.336 54.5378 116.86C55.0464 117.245 55.3088 117.793 55.152 118.434C54.7225 120.653 50.3805 124.055 46.7873 124.843C45.0442 125.329 43.0317 125.384 41.2759 125.101ZM37.0518 121.655C36.9716 122.005 37.1304 122.31 37.4624 122.684C38.9704 124.135 43.4205 124.817 46.598 124.063C50.0146 123.265 53.9302 120.074 54.2688 118.38C54.3525 117.972 54.183 117.843 54.0135 117.715C53.6708 117.517 53.4282 117.62 52.3882 118.208C51.5319 118.688 50.3081 119.382 48.433 120.096C44.5652 121.518 41.5069 121.274 39.505 121.153C37.6244 120.98 37.1462 121.07 37.0518 121.655Z" fill="black"/>
<path d="M39.7852 85.1813C37.7416 89.6674 33.3976 92.1235 31.0104 92.5113C30.8926 92.5042 30.9642 93.2767 31.1408 93.2874C33.8351 93.6864 40.0526 91.5206 42.4333 86.3458C42.7703 85.657 40.0563 84.6067 39.7852 85.1813Z" fill="black"/>
<path d="M66.5475 100.979C69.7109 100.461 72.6356 101.938 73.7492 103.069C73.8045 103.131 74.1791 102.799 74.1274 102.678C73.3401 101.035 69.8906 98.4628 66.1902 99.0668C65.6496 99.2114 66.0694 101.069 66.5475 100.979Z" fill="black"/>
<path d="M40.11 106.239C39.6739 110.526 45.265 114.823 51.0165 111.566C56.0955 108.681 53.5211 102.38 50.5857 101.08C42.5272 97.5204 40.4019 103.361 40.11 106.239Z" fill="#FA961E"/>
<path d="M47.2202 100.049C48.2141 100.227 49.3186 100.53 50.5855 101.08C53.5209 102.38 56.0953 108.681 51.0163 111.565C49.1824 112.578 47.3911 112.883 45.7531 112.607C42.2969 112.103 39.7555 109.172 40.0509 106.235C40.3733 103.832 41.8905 99.2548 47.2202 100.049ZM47.3948 99.1142C45.2858 98.8096 43.5498 99.1776 42.1245 100.273C39.8322 102.026 39.3012 104.949 39.1713 106.123C39.0093 107.827 39.5575 109.515 40.83 110.951C42.0472 112.324 43.7639 113.255 45.6374 113.545C47.5698 113.839 49.6037 113.43 51.5 112.363C53.7639 111.081 54.9553 108.967 54.869 106.479C54.7345 103.812 53.0656 101.111 50.9957 100.159C49.7252 99.6685 48.5064 99.2995 47.3948 99.1142Z" fill="black"/>
<path d="M63.5824 109.96C63.3082 112.544 66.6989 115.112 70.183 113.195C73.2408 111.489 71.6983 107.672 69.9156 106.856C65.0834 104.673 63.8068 108.201 63.5824 109.96Z" fill="#FA961E"/>
<path d="M67.887 106.202C68.4722 106.296 69.1681 106.515 69.9158 106.856C71.6984 107.673 73.2445 111.43 70.1832 113.195C69.0807 113.838 68.0066 114.009 67.0128 113.831C64.9037 113.527 63.417 111.723 63.5825 109.96C63.7303 108.492 64.6663 105.712 67.887 106.202ZM68.0616 105.267C66.7144 105.067 65.519 105.29 64.5861 106.061C63.0983 107.213 62.7491 109.083 62.644 109.844C62.3876 112.134 64.2652 114.315 66.8417 114.707C68.0711 114.9 69.3878 114.624 70.6116 113.93C72.1405 113.077 72.8734 111.703 72.8552 110.047C72.7816 108.329 71.6482 106.547 70.3259 105.935C69.5158 105.65 68.7646 105.368 68.0616 105.267Z" fill="black"/>
<path d="M51.9976 104.12C51.819 103.163 51.214 102.418 50.3003 101.89C49.442 101.424 48.3892 101.243 47.3116 101.473C46.2929 101.707 45.3741 102.242 44.7909 103.094C44.2112 103.886 43.9742 104.876 44.1564 105.774C44.3386 106.671 44.9401 107.476 45.8537 108.004C46.2517 108.264 46.7156 108.41 47.2455 108.442C47.7719 108.533 48.3054 108.506 48.846 108.362C49.8647 108.128 50.7834 107.592 51.3667 106.741C52.0017 106.011 52.2352 105.079 51.9976 104.12Z" fill="black"/>
<path d="M68.9527 107.152C68.3746 106.94 67.7198 107.019 67.1685 107.34C66.6173 107.661 66.1767 108.107 66.0199 108.748C65.6508 109.967 66.3381 111.308 67.5568 111.677C67.6746 111.684 67.7888 111.75 67.9065 111.757C68.374 111.845 68.9111 111.759 69.341 111.489C69.8922 111.168 70.3328 110.722 70.4897 110.081C70.8587 108.863 70.1714 107.521 68.9527 107.152Z" fill="black"/>
<path d="M43.3205 106.905C43.1423 107.899 43.8544 108.828 44.8518 108.948C45.8457 109.126 46.7751 108.414 46.8944 107.416C47.0137 106.419 46.3604 105.493 45.363 105.374C44.3656 105.254 43.4362 105.966 43.3205 106.905Z" fill="white"/>
<path d="M65.1541 110.35C64.942 110.929 65.2597 111.539 65.8378 111.751C66.416 111.963 67.0261 111.645 67.2383 111.067C67.4505 110.489 67.1327 109.879 66.5546 109.667C65.9729 109.513 65.3074 109.769 65.1541 110.35Z" fill="white"/>
<path d="M17.3475 168.096C17.2887 168.093 17.2298 168.089 17.1709 168.086C16.9389 168.013 16.7801 167.708 16.912 167.479C18.4633 163.318 21.9205 160.867 23.0783 160.287C23.3209 160.184 23.6118 160.26 23.7154 160.503C23.8189 160.746 23.7423 161.036 23.4996 161.14C22.4631 161.668 19.1932 163.953 17.7775 167.827C17.7079 168 17.5831 168.111 17.3475 168.096Z" fill="black"/>
<defs>
<clipPath id="clip0_1421_18674">
<rect width="170.806" height="106.444" fill="white" transform="translate(56 18.239) rotate(-6.02534)"/>
</clipPath>
</defs>
</svg>
