<svg width="128" height="101" viewBox="0 0 128 101" fill="none" xmlns="http://www.w3.org/2000/svg">
<g clip-path="url(#clip0_580_6694)">
<path d="M67.1862 59.6144C67.1865 59.4764 67.2206 59.3406 67.2855 59.2189C67.3904 59.0266 67.5669 58.8837 67.7765 58.8213C67.9862 58.7589 68.2119 58.7821 68.4045 58.8859C68.4253 58.8859 70.7533 60.1162 72.7884 58.916C73.4806 58.5112 73.829 57.8845 74.2328 57.1583C74.6942 56.3165 75.2295 55.3637 76.3624 54.6375C77.4953 53.9113 78.6351 53.8026 79.648 53.7124C81.3762 53.5413 82.4168 53.4395 83.0374 50.5602C83.0839 50.3458 83.2131 50.1586 83.3969 50.0395C83.5806 49.9203 83.8039 49.8788 84.018 49.9242C84.2324 49.9707 84.4196 50.1006 84.5385 50.2853C84.6574 50.47 84.6985 50.6944 84.6525 50.9094C83.7804 54.9682 81.6715 55.1763 79.8072 55.359C78.9004 55.4492 78.0421 55.5348 77.2484 56.0413C76.4547 56.5478 76.0947 57.1976 75.6725 57.9747C75.211 58.7934 74.7011 59.7208 73.6213 60.3545C70.7672 62.0312 67.7377 60.4215 67.6108 60.3545C67.4795 60.2816 67.3705 60.1741 67.2957 60.0437C67.2209 59.9133 67.183 59.7648 67.1862 59.6144Z" fill="black"/>
<path d="M69.5149 69.9753C69.5134 69.8384 69.5459 69.7033 69.6095 69.5821C69.6732 69.461 69.766 69.3576 69.8795 69.2815C70.0179 69.1867 73.3289 66.9873 76.6883 67.6209C78.0058 67.8707 78.8595 68.6339 79.614 69.3069C80.3062 69.9221 80.9499 70.5026 81.9375 70.7269C82.9942 70.9582 84.0141 70.7824 84.9854 70.6044C86.9005 70.2551 89.074 69.8597 90.7721 73.1483C90.8222 73.2449 90.8528 73.3504 90.8622 73.4588C90.8715 73.5672 90.8595 73.6764 90.8267 73.7802C90.7939 73.8839 90.741 73.9802 90.6711 74.0634C90.6012 74.1467 90.5155 74.2153 90.4191 74.2653C90.2248 74.366 89.9986 74.3852 89.7901 74.3189C89.5816 74.2526 89.4079 74.1061 89.307 73.9115C88.1672 71.7098 87.1427 71.8972 85.2807 72.2348C84.1917 72.4337 82.9573 72.658 81.5706 72.3435C80.1839 72.029 79.2887 71.2403 78.5134 70.5465C77.8351 69.9383 77.2467 69.4133 76.3838 69.2514C73.6981 68.7426 70.8301 70.639 70.8001 70.6575C70.7096 70.7194 70.6076 70.7625 70.5003 70.7843C70.3929 70.8062 70.2823 70.8063 70.1748 70.7848C70.0674 70.7633 69.9653 70.7205 69.8746 70.6589C69.7839 70.5973 69.7063 70.5183 69.6465 70.4263C69.5601 70.2918 69.5144 70.1352 69.5149 69.9753Z" fill="black"/>
<path d="M108.183 65.1255C113.107 70.3013 110.451 78.9577 104.087 80.7362C95.8203 83.0489 89.8351 74.9013 92.7816 67.8429C95.1904 61.3743 103.91 59.915 108.183 65.1255Z" fill="white"/>
<path d="M91.478 71.5988C91.476 70.2398 91.7435 68.894 92.2648 67.6395C92.8604 66.05 93.8675 64.6482 95.1825 63.5781C96.4976 62.5079 98.0731 61.8079 99.7474 61.5501C103.165 60.9789 106.471 62.1792 108.596 64.7578C109.776 66.0135 110.61 67.5558 111.014 69.2327C111.419 70.9096 111.381 72.6633 110.903 74.3208C109.955 77.7668 107.461 80.3639 104.23 81.2589C100.363 82.3389 96.5471 81.2705 94.0206 78.405C92.3764 76.5212 91.4726 74.1018 91.478 71.5988ZM110.183 71.5479C110.193 69.2988 109.334 67.1333 107.786 65.5048L107.758 65.4748C105.885 63.1922 102.959 62.133 99.9274 62.6394C98.4429 62.867 97.0456 63.4867 95.8793 64.435C94.713 65.3833 93.8198 66.6259 93.2916 68.0349L93.2916 68.0557C92.6319 69.6475 92.4291 71.3923 92.7059 73.0934C92.9827 74.7945 93.7282 76.3843 94.8582 77.6835C97.1309 80.2644 100.444 81.1826 103.947 80.2043C106.801 79.4064 109.009 77.0984 109.853 74.0271C110.074 73.2192 110.184 72.3854 110.183 71.5479Z" fill="black"/>
<path d="M93.7669 78.4906C92.4564 79.566 90.1052 76.4808 89.6761 73.5345C89.2469 70.5881 90.7605 65.5904 92.8186 66.2888C94.143 66.7513 93.4024 67.9308 93.2455 70.9142C92.9894 75.7176 95.0106 77.4776 93.7669 78.4906Z" fill="#8CC800"/>
<path d="M89.0527 72.4429C89.0527 70.151 89.8464 67.2694 91.1846 66.1524C91.4224 65.9288 91.7161 65.774 92.0346 65.7044C92.3531 65.6347 92.6845 65.6529 92.9935 65.7569C94.3595 66.2195 94.2072 67.348 94.0134 68.7773C93.9372 69.3555 93.8403 70.0724 93.7826 70.9304C93.6924 72.6427 93.9017 74.3576 94.401 75.9976C94.7309 77.2164 94.994 78.1807 94.1033 78.9092C93.8823 79.089 93.616 79.2041 93.3338 79.2416C93.0516 79.2792 92.7646 79.2377 92.5044 79.122C91.0208 78.5461 89.4703 76.0184 89.1196 73.6039C89.0691 73.2191 89.0467 72.831 89.0527 72.4429ZM93.042 67.4198C93.042 66.9803 92.9197 66.8971 92.6405 66.8023C92.4836 66.7491 92.2344 66.7121 91.8883 67.0012C90.7601 67.9447 89.9017 71.2565 90.2201 73.4443C90.5339 75.5952 91.9253 77.7089 92.9151 78.0928C92.9929 78.138 93.0825 78.1587 93.1723 78.1521C93.262 78.1455 93.3476 78.112 93.4181 78.0558C93.7203 77.8061 93.6719 77.4777 93.3489 76.2867C92.8211 74.5333 92.5994 72.7016 92.6936 70.8726C92.742 69.9706 92.8412 69.226 92.9243 68.6293C92.9874 68.2319 93.0267 67.8311 93.042 67.429L93.042 67.4198Z" fill="black"/>
<path d="M108.882 33.467C119.387 38.0346 121.44 52.7017 112.929 59.922C102.857 68.465 86.3577 60.8355 86.856 47.1374C87.1652 35.6132 99.1909 28.8856 108.882 33.467Z" fill="white"/>
<path d="M86.3002 47.7271C86.3002 47.5259 86.3002 47.3224 86.3002 47.1165C86.3444 44.4508 87.0628 41.84 88.388 39.5284C89.7132 37.2168 91.6019 35.2801 93.8774 33.8995C96.1363 32.4826 98.7129 31.6546 101.373 31.491C104.032 31.3274 106.691 31.8334 109.106 32.9629C114.195 35.1807 117.737 39.9171 118.579 45.6364C119.417 51.321 117.426 56.8183 113.273 60.3428C108.379 64.5057 101.598 65.2527 95.5801 62.3202C89.8165 59.5056 86.3002 53.9528 86.3002 47.7271ZM117.68 48.1896C117.678 47.3885 117.619 46.5885 117.502 45.796C116.715 40.4537 113.413 36.0341 108.669 33.9712L108.653 33.9712C106.405 32.9196 103.929 32.4485 101.452 32.6008C98.9757 32.7531 96.5763 33.5239 94.4727 34.8431C92.3534 36.1299 90.5947 37.9348 89.3611 40.0886C88.1275 42.2425 87.4593 44.6749 87.4192 47.1581C87.1885 53.1897 90.5156 58.6199 96.0808 61.3327C101.699 64.0709 108.023 63.3725 112.58 59.5057C115.85 56.7165 117.673 52.6115 117.673 48.1919L117.68 48.1896Z" fill="black"/>
<path d="M124.544 47.616C124.525 41.8088 121.039 37.0678 118.711 35.4767C118.586 35.3934 119.043 34.6326 119.248 34.6927C122.354 35.6062 127.968 40.9139 128 47.6438C127.993 48.5966 124.544 48.4046 124.544 47.616Z" fill="black"/>
<path d="M118.005 69.2375C117.822 73.0442 115.4 76.0508 113.826 77.0244C113.743 77.0776 114.02 77.591 114.156 77.5563C116.219 77.0475 120.056 73.7311 120.27 69.3231C120.296 68.6941 118.03 68.7195 118.005 69.2375Z" fill="black"/>
<path d="M87.6269 39.3713C84.7636 38.6775 82.7009 46.0204 83.6607 51.1222C84.6205 56.224 89.9643 62.7874 91.7363 60.4261C92.6592 59.1912 90.8433 58.1944 89.2882 53.2429C86.6256 44.7275 90.3265 40.0212 87.6269 39.3713Z" fill="#8CC800"/>
<path d="M82.8785 48.3724C82.8785 44.8131 83.9306 41.0573 85.5342 39.5309C86.3994 38.7099 87.2254 38.6937 87.7653 38.8256C89.4912 39.2488 89.3066 40.8839 89.0713 42.956C88.8152 45.2179 88.4299 48.636 89.8212 53.0671C90.3171 54.653 90.9694 56.1854 91.7685 57.6417C92.4607 58.9344 92.9014 59.7901 92.1838 60.7476C91.9705 61.0403 91.6727 61.2602 91.3306 61.3777C90.9885 61.4952 90.6186 61.5045 90.2711 61.4044C87.6661 60.7962 83.9283 55.4631 83.1184 51.2147C82.9504 50.2768 82.8701 49.3252 82.8785 48.3724ZM88.123 41.0272C88.123 40.2802 87.9545 40.0097 87.5046 39.8987C87.0985 39.7992 86.704 39.9426 86.2933 40.3311C84.5074 42.0309 83.4945 47.2207 84.2167 51.0112C84.9827 55.0815 88.536 59.8642 90.5272 60.329C90.9886 60.4331 91.1755 60.2643 91.3094 60.0839C91.5816 59.7208 91.4663 59.4155 90.8018 58.1597C89.9699 56.644 89.2912 55.0488 88.7759 53.3978C87.3154 48.7447 87.7192 45.1878 87.9846 42.8335C88.0613 42.2341 88.1075 41.6313 88.123 41.0272Z" fill="black"/>
<path d="M7.44306 98.9603C8.76284 96.4349 9.65578 92.302 14.012 86.7308C20.5601 78.3588 35.7006 76.356 42.8994 79.7557C46.7618 81.5758 52.5001 83.6872 59.835 81.9273C66.9092 80.239 70.121 77.3019 71.7661 72.1145C73.6696 66.12 71.0947 60.2458 65.038 58.0649C60.5318 56.446 56.141 57.163 50.8411 59.7439C46.2012 62.0034 43.1209 64.3693 35.9106 64.5543C9.23354 65.2065 8.16064 26.4203 8.02451 2.40756C8.02451 1.05926 6.54784 0.30301 5.59031 1.25121C3.55065 3.27945 0.975693 8.65184 0.839562 16.2837C0.608834 29.6002 2.5239 30.1229 2.72694 40.7821C2.92767 51.291 0.839562 54.5774 0.839562 68.0164C0.839562 80.165 2.50313 93.2873 3.20224 98.2226C3.2778 98.7546 3.53988 99.2423 3.94152 99.5982C4.34317 99.9542 4.85813 100.155 5.39418 100.165C5.81379 100.176 6.22799 100.068 6.59002 99.8556C6.95206 99.6427 7.24751 99.3326 7.44306 98.9603Z" fill="#8CC800"/>
<path d="M0.000145178 18.3813C0.00014517 17.7153 0.000152791 17.0145 0.0186083 16.2767C0.145508 8.79286 2.61894 3.0435 5.01392 0.663741C5.31705 0.350749 5.70686 0.136093 6.13298 0.047455C6.5591 -0.0411831 7.00194 0.000292841 7.40429 0.166534C7.83921 0.354374 8.20903 0.666883 8.46725 1.06479C8.72547 1.4627 8.86057 1.92824 8.85558 2.40289C8.93864 17.7892 9.0863 46.4297 21.2435 58.2498C25.1244 62.0265 30.0528 63.8697 35.8926 63.7263C41.6401 63.5853 44.6442 62.0173 48.1213 60.2018C48.8735 59.8086 49.651 59.4016 50.4793 58.9992C56.2476 56.1939 60.8161 55.6666 65.3153 57.2855C71.6673 59.5727 74.6437 65.7753 72.5533 72.3665C70.7536 78.0349 67.1242 81.0391 60.0247 82.732C52.4313 84.5429 46.4116 82.3273 42.5468 80.5049C39.1182 78.8861 33.6868 78.5553 28.3731 79.64C22.4133 80.8565 17.5426 83.5554 14.6608 87.2418C11.5644 91.2011 10.24 94.4643 9.27091 96.8487C8.88558 97.7992 8.55103 98.6202 8.17262 99.3441C7.9085 99.8543 7.50681 100.28 7.01326 100.573C6.51971 100.866 5.95411 101.014 5.38078 101C4.64662 100.99 3.94026 100.717 3.38992 100.23C2.83956 99.7428 2.4817 99.0741 2.38129 98.345C1.66833 93.3103 0.00938511 80.2782 0.00938497 68.0233C-0.00283738 62.9585 0.353432 57.8996 1.07536 52.8867C1.54836 49.2697 1.99828 45.8538 1.89676 40.8052C1.85242 37.4251 1.54383 34.0537 0.973839 30.7219C0.282448 26.6457 -0.0434186 22.5157 0.000145178 18.3813ZM71.5543 68.28C71.5543 64.0316 69.0555 60.3983 64.7593 58.8512C60.6569 57.3733 56.6029 57.866 51.2015 60.4955C50.3963 60.8887 49.628 61.2887 48.8942 61.6773C45.3848 63.5089 42.0715 65.2388 35.9387 65.3776C29.6398 65.5302 24.3122 63.5274 20.1014 59.434C14.6838 54.1633 11.0891 45.5948 9.1163 33.2334C7.45735 22.8517 7.27046 11.878 7.21047 2.40752C7.21713 2.25899 7.17971 2.11182 7.10291 1.98462C7.02611 1.85741 6.91338 1.75592 6.77901 1.69293C6.67754 1.64977 6.56495 1.64041 6.45778 1.66623C6.35061 1.69204 6.25455 1.75164 6.18373 1.83629C4.10715 3.91772 1.79985 9.32018 1.67756 16.2999C1.55296 23.6427 2.09287 27.1094 2.61433 30.4605C3.19544 33.8668 3.51326 37.3129 3.56493 40.7682C3.66415 45.9417 3.20961 49.4177 2.72969 53.0972C2.21285 57.0658 1.67756 61.1685 1.67756 68.0187C1.67756 80.1673 3.32498 93.1091 4.03333 98.1091C4.07955 98.4461 4.24452 98.7554 4.49843 98.981C4.75234 99.2067 5.07842 99.3338 5.4177 99.3395C5.6839 99.3461 5.9466 99.2777 6.17586 99.1419C6.40512 99.0062 6.59173 98.8086 6.71441 98.5717C7.05589 97.9172 7.3766 97.1309 7.74577 96.2197C8.75176 93.7451 10.1269 90.357 13.3664 86.215C16.4905 82.2186 21.705 79.307 28.0477 78.0142C33.7791 76.8439 39.4643 77.214 43.2552 79.0017C47.2053 80.8518 52.6367 82.7875 59.637 81.1155C66.1759 79.5567 69.3554 76.9526 70.9728 71.8647C71.349 70.7068 71.5451 69.4977 71.5543 68.28Z" fill="black"/>
<path d="M39.8657 58.2361C29.4459 64.2976 19.513 60.255 15.7474 54.6791C14.723 53.162 12.3626 47.2183 12.3626 47.2183C12.3626 47.2183 9.75306 43.4302 9.03088 35.7243C8.50481 30.1021 10.646 24.8777 15.5605 20.0696C21.255 14.5053 37.5861 10.6523 46.9399 24.8014C54.7316 36.5962 51.2799 51.594 39.8657 58.2361Z" fill="#E62828"/>
<path d="M39.9258 53.1435C39.9259 53.0221 39.9526 52.9022 40.004 52.7923C40.0554 52.6824 40.1304 52.5852 40.2235 52.5075C44.3904 49.0269 46.6839 43.8511 46.6839 37.9237L46.6839 37.845C46.6845 37.626 46.7714 37.4161 46.9257 37.2611C47.08 37.106 47.2891 37.0183 47.5076 37.0171C47.6161 37.0168 47.7236 37.0379 47.8239 37.0792C47.9242 37.1205 48.0154 37.1813 48.0924 37.258C48.1693 37.3346 48.2304 37.4257 48.2722 37.526C48.314 37.6264 48.3356 37.734 48.3359 37.8427L48.3359 37.9237C48.3359 44.3506 45.8348 49.9798 41.2848 53.7795C41.1168 53.9164 40.902 53.982 40.6864 53.9621C40.4707 53.9422 40.2714 53.8385 40.1312 53.6731C40.0031 53.5261 39.9304 53.3387 39.9258 53.1435Z" fill="#FF5A5A"/>
<path d="M40.0968 24.133C40.0968 23.9902 40.1336 23.8498 40.2035 23.7255C40.2734 23.6011 40.3742 23.4969 40.496 23.4229C44.453 21.0247 46.7834 17.359 47.0556 13.1014C47.0699 12.8824 47.1702 12.6782 47.3346 12.5333C47.499 12.3885 47.714 12.315 47.9324 12.3289C48.0408 12.3357 48.1467 12.3638 48.2442 12.4117C48.3417 12.4595 48.4288 12.5261 48.5006 12.6078C48.5724 12.6894 48.6275 12.7843 48.6626 12.8873C48.6977 12.9903 48.7123 13.0992 48.7054 13.2078C48.3962 18.0205 45.7843 22.1532 41.352 24.8406C41.1643 24.9539 40.9395 24.9881 40.7267 24.9357C40.514 24.8832 40.3306 24.7484 40.2168 24.5608C40.1387 24.4318 40.0972 24.2839 40.0968 24.133Z" fill="black"/>
<path d="M8.29708 34.8153C8.29271 33.4332 8.41552 32.0536 8.66395 30.6941C9.64224 25.3864 12.5379 21.0455 17.2656 17.7869C19.6961 16.1006 22.4582 14.9546 25.3668 14.4257C28.2753 13.8968 31.263 13.9972 34.1297 14.7203C40.3594 16.2397 45.7146 20.4743 48.8387 26.3393C51.2545 30.8721 52.2697 36.4967 51.6282 41.7696C50.936 47.4611 48.3819 52.4265 44.4387 55.7545C40.6939 58.9136 36.1739 60.8909 31.7139 61.3234C26.5755 61.8206 21.5618 60.292 17.2425 56.9062C17.0715 56.7712 16.9605 56.574 16.9337 56.3575C16.9069 56.1409 16.9665 55.9226 17.0994 55.7498C17.2341 55.5784 17.4308 55.4671 17.6468 55.4402C17.8629 55.4134 18.0808 55.4731 18.2531 55.6064C27.3554 62.7272 37.1937 59.6999 43.3681 54.4917C51.4021 47.7155 51.7159 35.2547 47.3828 27.114C44.4779 21.6653 39.5057 17.7338 33.7374 16.323C31.0968 15.6567 28.3445 15.5639 25.6652 16.0509C22.9859 16.5379 20.4414 17.5935 18.2023 19.1468C8.10557 26.1034 9.43459 36.7811 11.112 42.5281C13.1886 49.6235 20.8027 52.6115 27.2354 51.8922C32.743 51.2794 38.8112 47.7757 39.3257 39.7853C39.7041 33.8949 34.6119 28.6543 29.9765 28.0738C26.977 27.6968 23.6476 29.3203 21.8756 32.0216C20.9042 33.4994 19.6121 36.5522 21.8594 40.3797C22.2692 41.0733 22.8192 41.6733 23.474 42.1413C24.1288 42.6093 24.8741 42.9349 25.6618 43.0971C26.3417 43.252 27.0464 43.2627 27.7307 43.1285C28.4149 42.9943 29.0636 42.7181 29.635 42.3177C30.9963 41.3209 31.5662 39.9611 31.1971 38.5896C31.05 37.9996 30.7294 37.4675 30.2768 37.0625C29.8242 36.6575 29.2605 36.3983 28.659 36.3186C28.5512 36.307 28.4466 36.2743 28.3514 36.2222C28.2561 36.1702 28.172 36.0999 28.1039 36.0153C28.0357 35.9307 27.9849 35.8334 27.9543 35.7291C27.9236 35.6248 27.9138 35.5155 27.9253 35.4074C27.9486 35.1895 28.0571 34.9897 28.2271 34.8518C28.397 34.7139 28.6146 34.6492 28.8321 34.6719C29.7649 34.7881 30.6412 35.1829 31.3473 35.8048C32.0534 36.4268 32.5566 37.2472 32.7914 38.1595C33.3406 40.1993 32.5238 42.2529 30.6087 43.6544C29.8506 44.191 28.989 44.563 28.0791 44.7466C27.1693 44.9302 26.2312 44.9213 25.325 44.7205C24.3115 44.5101 23.353 44.09 22.5107 43.4871C21.6684 42.8842 20.961 42.1118 20.4335 41.2192C18.4631 37.8588 18.4838 34.1747 20.4958 31.1104C22.6324 27.8541 26.5248 25.9716 30.1865 26.4295C32.9552 26.7764 35.7425 28.4184 37.849 30.9369C40.0687 33.5873 41.1808 36.7695 40.9777 39.8917C40.7262 43.8094 39.185 47.1674 36.5246 49.605C34.1412 51.7835 30.9871 53.1457 27.4223 53.5366C20.302 54.3298 11.8688 50.9625 9.5315 42.993C8.73842 40.3388 8.32284 37.5858 8.29708 34.8153Z" fill="black"/>
<path fill-rule="evenodd" clip-rule="evenodd" d="M50.9202 31.4387C55.8209 33.6612 61.9814 31.4873 61.9145 31.1034C61.8222 30.5692 60.3986 25.8952 57.6529 22.81C54.305 19.0542 49.3074 18.1477 47.7707 21.7716C45.6342 26.8087 47.3808 29.836 50.9202 31.4387Z" fill="#B4E100"/>
<path d="M46.2915 25.7727C46.2915 24.4961 46.6169 23.0854 47.2652 21.5567C47.5311 20.8852 47.9677 20.2952 48.5315 19.8453C49.0954 19.3954 49.7669 19.1011 50.4793 18.9919C52.8697 18.5964 55.8484 19.9517 58.068 22.4424C60.9037 25.627 62.3665 30.4698 62.4519 30.9994C62.4714 31.122 62.4553 31.2477 62.4054 31.3613C62.3554 31.4749 62.2738 31.5717 62.1704 31.64C61.2844 32.3338 55.4423 34.0892 50.687 31.9361C48.675 31.011 47.3321 29.7274 46.6999 28.0854C46.4228 27.3463 46.2843 26.5622 46.2915 25.7727ZM61.289 30.8907C60.9498 29.7344 59.5816 25.8028 57.2374 23.1779C55.2923 20.9947 52.6459 19.7505 50.65 20.0812C50.1211 20.1604 49.6225 20.3787 49.205 20.7139C48.7876 21.049 48.4662 21.4891 48.2735 21.9892C47.6852 23.3768 47.3898 24.6349 47.3898 25.7542C47.3898 28.0669 48.6427 29.8061 51.1415 30.937C55.2739 32.8079 60.17 31.418 61.2936 30.8907L61.289 30.8907Z" fill="black"/>
<path d="M37.743 38.1641C37.7429 38.0361 37.7873 37.912 37.8685 37.8132C37.9498 37.7144 38.0629 37.6471 38.1884 37.6229C38.6706 37.5281 39.2082 37.4333 39.7781 37.3315C41.1071 37.1002 42.6161 36.8297 43.7167 36.5244C43.7864 36.5047 43.8592 36.4991 43.9311 36.5077C44.003 36.5164 44.0725 36.5392 44.1355 36.5749C44.1986 36.6106 44.2539 36.6584 44.2985 36.7156C44.343 36.7728 44.3758 36.8384 44.395 36.9083C44.434 37.0494 44.4156 37.2002 44.3438 37.3277C44.272 37.4551 44.1526 37.5488 44.012 37.5882C42.8583 37.9074 41.324 38.1803 39.9696 38.4185C39.4043 38.5202 38.8713 38.6151 38.3983 38.7053C38.2552 38.7332 38.1068 38.703 37.9857 38.6216C37.8647 38.5401 37.7807 38.4138 37.7523 38.2705C37.7459 38.2354 37.7428 38.1998 37.743 38.1641Z" fill="black"/>
<path d="M36.827 34.2834C36.8266 34.1788 36.8558 34.0763 36.9114 33.9878C36.967 33.8994 37.0465 33.8286 37.1408 33.7838C38.4129 33.148 39.6457 32.436 40.8325 31.6515C40.9525 31.5684 41.1005 31.5363 41.2441 31.5623C41.3876 31.5883 41.5151 31.6703 41.5985 31.7903C41.6814 31.9106 41.7134 32.0589 41.6875 32.2028C41.6615 32.3468 41.5798 32.4745 41.46 32.5581C40.2227 33.3768 38.9367 34.119 37.6091 34.7806C37.4772 34.8432 37.326 34.8509 37.1884 34.8019C37.0509 34.7529 36.9383 34.6513 36.8754 34.5193C36.8417 34.4453 36.8252 34.3647 36.827 34.2834Z" fill="black"/>
<path d="M32.1148 49.4501C32.1149 49.348 32.1432 49.2479 32.1966 49.161C32.2499 49.074 32.3262 49.0035 32.4171 48.9574C32.5472 48.892 32.6979 48.8809 32.8362 48.9264C32.9745 48.9719 33.0892 49.0703 33.1554 49.2003C33.5061 49.8941 34.0645 50.914 34.6044 51.9015C35.1443 52.889 35.7096 53.9274 36.0672 54.6328C36.1347 54.7619 36.1483 54.9126 36.105 55.0518C36.0618 55.191 35.9652 55.3073 35.8365 55.3751C35.7077 55.4428 35.5573 55.4564 35.4185 55.413C35.2796 55.3697 35.1636 55.2729 35.0959 55.1439C34.7475 54.4501 34.1891 53.4325 33.6492 52.445C33.1093 51.4575 32.544 50.419 32.1864 49.7114C32.1403 49.6319 32.1157 49.5419 32.1148 49.4501Z" fill="black"/>
<path d="M50.299 23.3999C50.2991 23.3155 50.3189 23.2324 50.3566 23.157C50.3884 23.0919 50.4326 23.0338 50.4868 22.9859C50.541 22.938 50.6041 22.9013 50.6725 22.8779C50.7408 22.8544 50.8132 22.8448 50.8853 22.8494C50.9574 22.854 51.0279 22.873 51.0927 22.905C51.2819 22.9975 55.7396 25.2177 58.1761 28.0646C58.2233 28.1194 58.2592 28.1829 58.2819 28.2517C58.3045 28.3204 58.3134 28.3929 58.3081 28.4651C58.3027 28.5373 58.2832 28.6077 58.2507 28.6723C58.2181 28.7369 58.1732 28.7944 58.1184 28.8416C58.0076 28.9373 57.8635 28.9849 57.7177 28.9741C57.5719 28.9632 57.4363 28.8948 57.3409 28.7838C55.0543 26.1126 50.6497 23.9272 50.6058 23.8948C50.5136 23.8494 50.436 23.7789 50.3817 23.6914C50.3275 23.6039 50.2988 23.5029 50.299 23.3999Z" fill="black"/>
<g style="mix-blend-mode:screen" opacity="0.6">
<path d="M67.666 71.8993C67.6662 71.7505 67.706 71.6044 67.7814 71.4762C68.4172 70.4013 68.6801 69.1457 68.529 67.9053C68.5154 67.7972 68.5233 67.6874 68.5522 67.5824C68.581 67.4773 68.6303 67.3789 68.6972 67.2929C68.7641 67.207 68.8473 67.1351 68.9419 67.0815C69.0366 67.0278 69.1409 66.9934 69.2488 66.9802C69.3566 66.9666 69.4659 66.9745 69.5706 67.0033C69.6753 67.0321 69.7734 67.0813 69.8591 67.1481C69.9448 67.2149 70.0165 67.298 70.0702 67.3926C70.1238 67.4872 70.1584 67.5915 70.1718 67.6995C70.3672 69.306 70.0273 70.9321 69.205 72.3249C69.1496 72.4185 69.0764 72.5002 68.9894 72.5654C68.9025 72.6306 68.8036 72.678 68.6984 72.7049C68.5931 72.7317 68.4837 72.7375 68.3762 72.7219C68.2688 72.7063 68.1654 72.6696 68.0721 72.614C67.9483 72.5405 67.8458 72.4359 67.7746 72.3106C67.7034 72.1853 67.666 72.0436 67.666 71.8993Z" fill="#B4E100"/>
</g>
<path d="M33.2091 45.3843C33.2086 45.2683 33.2325 45.1535 33.2795 45.0475C33.3264 44.9415 33.3952 44.8466 33.4814 44.7692C34.492 43.8441 35.2534 42.172 35.3711 40.5924C35.3787 40.4839 35.4076 40.3779 35.4562 40.2807C35.5047 40.1834 35.572 40.0967 35.6541 40.0256C35.7363 39.9544 35.8316 39.9003 35.9347 39.8662C36.0378 39.8321 36.1465 39.8187 36.2548 39.8269C36.4732 39.8441 36.676 39.947 36.819 40.1134C36.9621 40.2797 37.0338 40.496 37.0185 40.715C36.8685 42.7224 35.9133 44.7969 34.5889 45.9972C34.4262 46.1443 34.212 46.2208 33.9932 46.2099C33.7744 46.1991 33.5688 46.1018 33.4214 45.9394C33.2845 45.7871 33.2089 45.5893 33.2091 45.3843Z" fill="#FF5A5A"/>
<path d="M25.5746 48.3515C25.5752 48.1321 25.6623 47.9218 25.8168 47.7664C25.9719 47.6115 26.1817 47.5243 26.4006 47.5236C26.4548 47.5232 26.509 47.5287 26.5621 47.5398C26.6149 47.5503 26.6667 47.5658 26.7167 47.586C26.7662 47.6078 26.814 47.6333 26.8597 47.6624C26.9048 47.6925 26.9466 47.7274 26.9843 47.7664C27.1388 47.9218 27.2259 48.1321 27.2266 48.3515C27.2264 48.5711 27.1392 48.7815 26.9843 48.9367C26.9454 48.9744 26.9037 49.0092 26.8597 49.0407C26.8145 49.0699 26.7666 49.0947 26.7167 49.1147C26.6668 49.1357 26.615 49.152 26.5621 49.1633C26.5088 49.1733 26.4548 49.1787 26.4006 49.1795C26.3464 49.1787 26.2923 49.1733 26.2391 49.1633C26.1862 49.1517 26.1345 49.1354 26.0845 49.1147C26.0348 49.0942 25.9869 49.0695 25.9414 49.0407C25.8979 49.0086 25.8562 48.9738 25.8168 48.9367C25.6619 48.7815 25.5747 48.5711 25.5746 48.3515Z" fill="black"/>
<path d="M11.2825 46.5152C11.2821 46.3937 11.3086 46.2737 11.36 46.1637C11.4115 46.0537 11.4867 45.9565 11.5802 45.8792C11.7489 45.7387 11.9663 45.671 12.1847 45.6909C12.4031 45.7109 12.6048 45.8169 12.7454 45.9856C14.6097 48.2335 15.0757 49.8039 15.4864 51.1892C15.9225 52.66 16.2686 53.8233 18.2991 55.6365C18.4626 55.7823 18.5617 55.9871 18.5747 56.2061C18.5877 56.425 18.5134 56.6402 18.3683 56.8044C18.2961 56.8857 18.2086 56.952 18.1108 56.9994C18.013 57.0468 17.9069 57.0744 17.7984 57.0806C17.69 57.0869 17.5814 57.0716 17.4788 57.0357C17.3763 56.9998 17.2818 56.944 17.2008 56.8714C14.8196 54.7461 14.3743 53.2474 13.9036 51.6609C13.4699 49.9483 12.6373 48.3632 11.474 47.0355C11.3529 46.889 11.2853 46.7054 11.2825 46.5152Z" fill="black"/>
<path d="M6.17881 91.6568C6.1794 91.5581 6.19736 91.4602 6.23188 91.3677C7.50321 87.945 9.06295 85.1789 10.6158 83.5739C10.7689 83.4165 10.978 83.3265 11.1973 83.3234C11.4166 83.3204 11.6282 83.4047 11.7856 83.5578C11.9421 83.7112 12.0315 83.9206 12.0341 84.14C12.0367 84.3594 11.9523 84.5709 11.7994 84.728C10.3966 86.1711 8.96835 88.7359 7.77547 91.9459C7.73749 92.0479 7.67985 92.1413 7.60583 92.2209C7.5318 92.3005 7.44286 92.3646 7.34407 92.4097C7.24529 92.4548 7.13859 92.4799 7.0301 92.4837C6.92161 92.4874 6.81345 92.4698 6.7118 92.4316C6.55481 92.3723 6.41965 92.2662 6.3244 92.1277C6.22915 91.9893 6.17836 91.825 6.17881 91.6568Z" fill="#B4E100"/>
<path d="M60.0521 59.2466C60.0336 59.2466 60.0152 59.2466 59.999 59.2466C54.5492 60.7313 45.2461 64.1888 48.5063 74.1103C52.2326 85.4425 62.6201 82.3273 68.07 80.8449C68.0884 80.8449 68.1046 80.8333 68.123 80.8287L60.0521 59.2466Z" fill="black"/>
<path d="M48.3193 70.0747C48.6585 77.8084 51.5057 77.2094 51.5288 77.2441C52.9547 76.6752 54.5283 74.5267 54.2537 72.6048C54.1752 72.0382 53.9722 71.2473 53.4669 70.8633C53.1577 70.6321 52.9685 70.4864 53.1577 69.7464C53.3053 69.2088 53.3729 68.6524 53.3585 68.0951C53.2615 67.0405 52.6478 64.4063 49.5491 65.4517C48.8061 65.4308 48.5523 66.6519 48.4601 66.7121C48.5224 66.8925 48.2732 69.0248 48.3193 70.0747Z" fill="#E62828"/>
<path d="M53.1953 80.7686C52.8446 78.9184 52.4016 76.978 51.8617 74.9868C51.0547 71.9729 50.0528 69.0148 48.8622 66.1315C47.7362 68.1782 47.4063 70.7893 48.5045 74.1334C49.6028 77.4776 51.2572 79.5151 53.1953 80.7686Z" fill="white"/>
<path d="M64.6367 81.7398C65.8988 81.4554 67.0686 81.1293 68.07 80.8564C68.0884 80.8564 68.1046 80.8449 68.123 80.8402L60.0475 59.2466C60.029 59.2466 60.0106 59.2466 59.9944 59.2466C59.2607 59.4478 58.4555 59.6837 57.6225 59.9659C58.0421 63.3759 58.7099 66.7506 59.6206 70.0631C61.0812 75.4493 62.9062 79.1496 64.6367 81.7398Z" fill="white"/>
<path d="M48.3147 66.1176C48.3146 66.0084 48.347 65.9016 48.4078 65.8109C48.4687 65.7203 48.5552 65.6499 48.6562 65.6089C48.7229 65.5812 48.7943 65.567 48.8665 65.567C48.9386 65.567 49.01 65.5813 49.0767 65.609C49.1433 65.6367 49.2039 65.6773 49.2548 65.7285C49.3058 65.7797 49.3462 65.8404 49.3738 65.9072C49.4061 65.9835 52.521 73.6154 53.6792 80.3616C53.6911 80.4339 53.6885 80.5079 53.6717 80.5792C53.6548 80.6505 53.6241 80.7177 53.5812 80.7771C53.5383 80.8364 53.4841 80.8867 53.4217 80.9249C53.3593 80.9631 53.29 80.9886 53.2178 80.9999C53.1465 81.0122 53.0736 81.0102 53.0031 80.9942C52.9327 80.9781 52.8661 80.9483 52.8071 80.9064C52.7482 80.8645 52.698 80.8114 52.6596 80.75C52.6212 80.6887 52.5953 80.6203 52.5833 80.5489C51.4457 73.9253 48.3747 66.4044 48.3447 66.3281C48.3203 66.2608 48.3101 66.1891 48.3147 66.1176Z" fill="black"/>
<path d="M47.2813 70.2459C47.2673 68.7431 47.6299 67.2609 48.3358 65.935C50.8992 61.1639 57.6388 59.3299 59.8538 58.7263C59.8698 58.7216 59.886 58.7177 59.9023 58.7147C60.0351 58.6764 60.1775 58.69 60.3008 58.7526C60.4241 58.8153 60.5191 58.9224 60.5668 59.0524L68.6423 80.6461C68.6685 80.7153 68.6804 80.7891 68.6772 80.863C68.6741 80.937 68.6559 81.0095 68.6239 81.0762C68.5925 81.1433 68.5479 81.2032 68.4928 81.2525C68.4377 81.3018 68.3732 81.3394 68.3032 81.363L68.2432 81.3815C68.2348 81.3828 68.2262 81.3828 68.2178 81.3815L67.8463 81.4833C64.9922 82.2627 61.0813 83.3334 57.3204 82.8038C52.775 82.1655 49.6371 79.3001 47.9897 74.2885C47.541 72.9872 47.3018 71.6225 47.2813 70.2459ZM59.7085 59.9104C54.2425 61.4576 50.8346 63.6107 49.3025 66.4599C48.1743 68.5576 48.082 71.0854 49.0257 73.9508C52.4728 84.4366 61.7481 82.0082 67.3918 80.468L59.7085 59.9104Z" fill="black"/>
<path d="M34.4254 20.4073C34.4251 20.3383 34.4384 20.2699 34.4647 20.2061C34.5177 20.0697 34.6226 19.96 34.7563 19.9011C34.8899 19.8421 35.0414 19.8387 35.1776 19.8916C40.0345 21.7926 42.8701 25.8722 43.5508 27.2922C43.5826 27.3575 43.6012 27.4284 43.6055 27.5008C43.6098 27.5733 43.5997 27.6459 43.5759 27.7145C43.5521 27.7831 43.515 27.8463 43.4668 27.9004C43.4185 27.9546 43.36 27.9986 43.2947 28.0299C43.1634 28.0929 43.0125 28.1012 42.8751 28.0532C42.7376 28.0051 42.6247 27.9045 42.561 27.7733C41.9726 26.5568 39.2823 22.6853 34.7761 20.9277C34.6719 20.8868 34.5826 20.8152 34.5199 20.7223C34.4573 20.6293 34.4243 20.5195 34.4254 20.4073Z" fill="black"/>
<path d="M102.188 71.6241C102.072 71.558 101.944 71.5157 101.811 71.4994C101.678 71.4832 101.544 71.4934 101.415 71.5295C101.286 71.5656 101.166 71.6269 101.061 71.7098C100.956 71.7927 100.869 71.8956 100.804 72.0126C100.737 72.129 100.695 72.2575 100.678 72.3905C100.662 72.5235 100.672 72.6585 100.708 72.7876C100.744 72.9167 100.806 73.0373 100.888 73.1424C100.971 73.2476 101.074 73.3352 101.191 73.4002C101.307 73.467 101.435 73.5101 101.568 73.5268C101.701 73.5435 101.835 73.5336 101.964 73.4977C102.093 73.4617 102.213 73.4005 102.318 73.3175C102.423 73.2344 102.511 73.1313 102.576 73.014C102.642 72.8977 102.684 72.7694 102.7 72.6365C102.717 72.5037 102.707 72.3688 102.671 72.2399C102.635 72.1109 102.574 71.9903 102.492 71.885C102.409 71.7797 102.307 71.6919 102.19 71.6264" fill="white"/>
<path d="M101.07 54.5241C97.2487 55.6342 92.4333 51.1984 94.4661 45.4167C96.2588 40.3287 102.403 41.6586 104.069 44.1216C108.647 50.8978 103.656 53.7702 101.07 54.5287" fill="#F29100"/>
<path d="M100.073 45.3843C98.3745 45.3196 96.937 46.839 96.8678 48.777C96.7986 50.7151 98.1138 52.3386 99.8096 52.4011C101.505 52.4635 102.945 50.944 103.017 49.0083C103.088 47.0726 101.771 45.4444 100.073 45.3843Z" fill="#1D1D1B"/>
<path d="M96.5219 48.1272C96.6043 47.222 96.985 46.37 97.604 45.7058C97.9221 45.3555 98.3119 45.0783 98.7467 44.8931C99.1816 44.7079 99.6513 44.619 100.124 44.6327C100.555 44.6527 100.978 44.758 101.368 44.9425C101.759 45.1271 102.109 45.3873 102.399 45.7081C103.127 46.5187 103.506 47.5855 103.453 48.6753C103.372 50.833 101.75 52.526 99.8329 52.4566C99.3606 52.4355 98.8984 52.3121 98.4782 52.0949C98.058 51.8777 97.6897 51.5719 97.3987 51.1984C96.774 50.4129 96.4551 49.4267 96.5011 48.4232C96.5058 48.3168 96.5104 48.222 96.5219 48.1272ZM102.634 48.8789C102.634 48.8025 102.648 48.7239 102.65 48.6476C102.695 47.7711 102.392 46.9123 101.808 46.2585C101.59 46.0154 101.327 45.8181 101.033 45.6779C100.738 45.5378 100.419 45.4576 100.094 45.4422C99.7356 45.4325 99.3798 45.501 99.0507 45.6427C98.7216 45.7845 98.4272 45.9962 98.1878 46.2632C97.6375 46.8586 97.3232 47.635 97.3041 48.4463C97.2631 49.2574 97.5182 50.0557 98.0217 50.692C98.2419 50.9763 98.5209 51.2095 98.8395 51.3756C99.1581 51.5416 99.5088 51.6366 99.8675 51.6541C101.268 51.7027 102.472 50.4723 102.625 48.8789L102.634 48.8789Z" fill="#1D1D1B"/>
<path d="M102.855 47.9537C102.439 48.0941 101.984 48.0633 101.59 47.8683C101.197 47.6732 100.897 47.3297 100.755 46.913C100.614 46.4956 100.645 46.0393 100.839 45.6443C101.034 45.2492 101.377 44.9478 101.793 44.8061C102.21 44.6652 102.666 44.6959 103.06 44.8915C103.454 45.0871 103.755 45.4315 103.895 45.8492C103.965 46.0558 103.993 46.2742 103.979 46.4919C103.964 46.7095 103.907 46.9221 103.81 47.1175C103.713 47.313 103.579 47.4874 103.415 47.6309C103.252 47.7744 103.061 47.8841 102.855 47.9537Z" fill="white"/>
<path d="M105.709 49.1101C105.634 49.8673 105.41 50.6021 105.05 51.2724C104.691 51.9426 104.203 52.5352 103.615 53.016C103.026 53.4969 102.349 53.8566 101.621 54.0745C100.894 54.2924 100.131 54.3643 99.3757 54.2859C98.6204 54.2102 97.8875 53.9859 97.219 53.6257C96.5505 53.2656 95.9594 52.7767 95.4797 52.1872C95 51.5976 94.6411 50.919 94.4235 50.1902C94.206 49.4613 94.1341 48.6966 94.2119 47.9399C94.3668 46.4114 95.1211 45.0072 96.3089 44.0362C97.4966 43.0651 99.0205 42.6067 100.545 42.7617C101.301 42.8375 102.034 43.0619 102.703 43.4222C103.371 43.7825 103.963 44.2716 104.442 44.8614C104.922 45.4511 105.281 46.1301 105.498 46.8592C105.716 47.5883 105.787 48.3532 105.709 49.1101ZM106.768 49.2188C106.95 47.4091 106.408 45.601 105.261 44.1914C104.115 42.7818 102.457 41.8859 100.652 41.7003C98.8462 41.5186 97.0427 42.062 95.6365 43.2114C94.2304 44.3607 93.3363 46.0221 93.1505 47.8312C92.9693 49.6411 93.5118 51.4492 94.659 52.8587C95.8061 54.2682 97.4642 55.1641 99.2695 55.3498C101.075 55.5314 102.878 54.9878 104.284 53.8385C105.689 52.6891 106.583 51.0277 106.768 49.2188Z" fill="#1D1D1B"/>
<path d="M101.33 68.3216C99.0804 67.1329 95.4949 69.2906 96.0232 73.1783C96.4847 76.5965 100.511 76.5549 101.87 75.2251C105.605 71.5733 102.848 69.1311 101.325 68.3263" fill="#F29100"/>
<path d="M99.5351 73.9115C98.4622 73.7334 97.7585 72.5956 97.9615 71.3676C98.1646 70.1395 99.1983 69.2861 100.269 69.4757C101.339 69.6654 102.043 70.794 101.84 72.0197C101.637 73.2454 100.603 74.1012 99.5328 73.9092" fill="#1D1D1B"/>
<path d="M97.6845 71.5595C97.7872 70.9259 98.115 70.3509 98.6075 69.9406C98.8377 69.7448 99.1074 69.6011 99.398 69.5193C99.6887 69.4375 99.9936 69.4195 100.292 69.4665C101.503 69.67 102.304 70.942 102.075 72.3018C101.968 72.9908 101.594 73.6098 101.035 74.0248C100.812 74.1882 100.56 74.3058 100.292 74.3709C100.023 74.436 99.7452 74.4473 99.4727 74.4041C99.1752 74.3518 98.8925 74.2359 98.6436 74.0643C98.3948 73.8927 98.1857 73.6694 98.0306 73.4096C97.7289 72.9135 97.5999 72.3312 97.6638 71.7537C97.6661 71.6797 97.6753 71.6196 97.6845 71.5595ZM100.206 69.9637C99.98 69.9289 99.7488 69.9435 99.5286 70.0066C99.3084 70.0696 99.1044 70.1797 98.9305 70.3291C98.5333 70.6625 98.2709 71.1295 98.1922 71.6427C98.099 72.1582 98.1983 72.69 98.4713 73.1367C98.5878 73.3342 98.7454 73.5042 98.9333 73.6351C99.1212 73.766 99.3351 73.8547 99.5604 73.8953C99.7662 73.9278 99.9764 73.9189 100.179 73.8693C100.381 73.8196 100.572 73.7302 100.739 73.6062C101.188 73.2715 101.488 72.7729 101.572 72.2186L101.593 72.0729C101.69 71.0368 101.092 70.114 100.206 69.9637Z" fill="#1D1D1B"/>
<path d="M101.606 72.6742C101.364 72.5327 101.075 72.4934 100.803 72.565C100.532 72.6365 100.3 72.8129 100.158 73.0557C100.016 73.2993 99.9761 73.5893 100.047 73.8621C100.119 74.1348 100.295 74.368 100.538 74.5104C100.781 74.6517 101.07 74.6906 101.342 74.6186C101.613 74.5467 101.846 74.3697 101.987 74.1265C102.057 74.0061 102.103 73.873 102.122 73.7348C102.141 73.5967 102.132 73.4561 102.097 73.3213C102.062 73.1864 102 73.0598 101.916 72.9488C101.832 72.8377 101.727 72.7444 101.606 72.6742Z" fill="white"/>
<path d="M103.547 72.3087C103.499 72.7924 103.355 73.2618 103.125 73.69C102.896 74.1181 102.584 74.4967 102.208 74.804C101.832 75.1114 101.4 75.3415 100.935 75.4812C100.47 75.6209 99.9828 75.6674 99.5003 75.6181C99.0177 75.5693 98.5494 75.4256 98.1222 75.1952C97.6951 74.9649 97.3174 74.6525 97.0108 74.2758C96.7041 73.899 96.4746 73.4654 96.3352 72.9997C96.1958 72.534 96.1494 72.0454 96.1986 71.5617C96.247 71.0777 96.3902 70.6081 96.6198 70.1797C96.8495 69.7513 97.1612 69.3724 97.5371 69.0648C97.913 68.7573 98.3456 68.527 98.8104 68.3871C99.2751 68.2473 99.7628 68.2007 100.246 68.2499C100.728 68.2988 101.197 68.4425 101.624 68.673C102.052 68.9035 102.429 69.2162 102.736 69.5932C103.043 69.9701 103.272 70.404 103.411 70.8699C103.551 71.3359 103.597 71.8248 103.547 72.3087ZM104.226 72.3781C104.34 71.2196 103.992 70.0629 103.256 69.1618C102.521 68.2608 101.459 67.6891 100.303 67.5723C99.1493 67.4572 97.9969 67.8051 97.0983 68.5398C96.1997 69.2745 95.6281 70.3361 95.5087 71.4923C95.394 72.6507 95.7426 73.8074 96.478 74.7085C97.2134 75.6095 98.2755 76.1812 99.4311 76.2981C100.587 76.413 101.741 76.0636 102.64 75.3265C103.539 74.5893 104.109 73.5247 104.226 72.3665L104.226 72.3781Z" fill="#1D1D1B"/>
</g>
<defs>
<clipPath id="clip0_580_6694">
<rect width="101" height="128" fill="white" transform="translate(128) rotate(90)"/>
</clipPath>
</defs>
</svg>
