<svg width="99" height="126" viewBox="0 0 99 126" fill="none" xmlns="http://www.w3.org/2000/svg">
<path d="M31.5332 30.1095C31.3962 32.1937 31.1949 34.3491 31.589 36.379C31.9128 38.2867 32.6329 40.0892 33.4155 41.756C34.2 43.4872 35.1154 45.1404 35.9644 46.8003C36.8836 48.5825 37.5374 50.3917 37.2677 52.4895C37.0997 53.5417 35.493 53.2531 35.6611 52.2008C35.9327 50.1676 34.8085 48.2123 33.8931 46.5591C33.0442 44.8992 32.1971 43.3037 31.4145 41.637C30.7002 40.028 30.1167 38.3409 29.8632 36.5554C29.5355 34.5187 29.6724 32.4345 29.8074 30.2859C29.9754 29.2336 31.6348 29.064 31.5332 30.1095Z" fill="black"/>
<path d="M49.4415 105.388C48.0808 106.793 44.3328 104.573 43.6124 101.454C38.3521 78.6394 61.4012 51.6924 87.341 53.9685C80.6553 55.962 78.6374 61.2656 81.3467 65.0431C71.908 66.3373 66.9848 70.0176 63.1186 79.8535C59.2525 89.6893 58.4089 98.4383 58.4089 98.4383L49.4415 105.388Z" fill="#364193"/>
<path d="M75.986 54.8493C55.1361 59.7239 39.0834 82.07 43.6162 101.515C44.2596 104.141 47.1133 106.209 48.7564 105.84C49.0083 105.749 49.2601 105.659 49.4452 105.45L58.351 98.5703C58.351 98.5703 59.2581 89.8144 63.0609 79.986C66.4505 71.3323 70.6679 67.4167 77.9977 65.729C79.0086 65.4919 80.1479 65.3033 81.2873 65.1147C78.578 61.337 80.596 56.0336 87.2817 54.0407C83.4578 53.7104 79.6509 54.0054 75.986 54.8493ZM75.8338 53.9253C79.6889 53.0604 83.6226 52.7514 87.4465 53.0817C87.8919 53.0952 88.2207 53.4979 88.2326 53.9357C88.2445 54.3734 87.9377 54.7836 87.4973 54.9577C84.4697 55.8566 82.2917 57.6025 81.4585 59.7017C80.8035 61.3421 81.0412 63.0721 82.0978 64.5234C82.2965 64.8151 82.305 65.1278 82.1867 65.4544C82.0666 65.7186 81.7548 65.9412 81.5029 66.0318L81.4395 66.0388C80.2984 66.1648 79.2242 66.4089 78.2133 66.646C71.0737 68.3127 67.2315 71.9987 64.0219 80.2562C60.2774 89.89 59.3669 98.5208 59.3686 98.5833C59.312 98.8405 59.192 99.1046 58.9435 99.3203L50.0361 106.137C49.7259 106.422 49.3506 106.652 48.9086 106.764C47.8343 107.008 46.4244 106.599 45.1895 105.606C43.9545 104.614 43.028 103.273 42.7355 101.863C41.6557 97.2155 41.7154 92.3793 42.7876 87.3685C43.8666 82.6079 45.8399 77.9994 48.7091 73.6055C51.8235 68.8709 55.8405 64.6012 60.3919 61.2759C65.1883 57.61 70.4007 55.2153 75.8338 53.9253Z" fill="black"/>
<path d="M51.1621 67.1522L49.8605 65.4682L52.3629 63.2736C51.8635 63.3247 47.0251 64.8498 42.4547 62.7129C36.2331 59.7758 38.8342 65.2037 38.8342 65.2037C38.8342 65.2037 45.5552 68.0897 51.1621 67.1522Z" fill="#364193"/>
<path d="M49.241 67.7806C49.9299 67.7702 50.5547 67.7057 51.2401 67.5741C51.4276 67.5548 51.549 67.4207 51.6704 67.2866C51.7276 67.0984 51.7223 66.9167 51.5939 66.8084L50.552 65.4576L52.6911 63.596C52.875 63.4554 52.9304 63.2066 52.8627 63.0313C52.7949 62.856 52.604 62.7542 52.3541 62.78C52.2916 62.7865 52.1666 62.7994 52.0435 62.8729C48.4965 63.7254 45.3569 63.5028 42.7515 62.2528C40.5279 61.2064 39.1447 61.0455 38.3519 61.7958C37.2537 62.8207 38.1953 65.0326 38.395 65.4373C38.461 65.552 38.5253 65.6062 38.5895 65.6603C38.8429 65.7557 44.1093 68.0069 49.241 67.7806ZM50.2141 66.7686C45.4661 67.2591 40.1425 65.196 39.1913 64.8082C38.8543 63.9922 38.5692 62.8064 38.9335 62.4041C39.0549 62.2701 39.7333 61.8961 42.1496 63.1049C44.5641 64.2532 47.3931 64.5686 50.6365 64.0513L49.4759 65.0827C49.2937 65.2838 49.2383 65.5326 49.3703 65.762L50.2141 66.7686Z" fill="black"/>
<path d="M69.6358 109.605C78.2991 110.4 87.3769 110.222 94.9387 109.96C96.1352 109.893 96.8017 111.181 95.8806 112.085C93.9772 113.961 89.0639 116.471 82.1361 116.849C70.1077 117.532 69.7454 115.84 60.0999 116.017C50.6447 116.236 47.6076 118.172 35.4483 118.684C24.4856 119.128 12.7255 118.111 8.29779 117.663C7.28648 117.587 6.63369 116.791 6.60636 115.805C6.64875 115.058 7.07016 114.332 7.75337 113.949C10.0528 112.711 13.8735 111.741 19.0586 107.655C26.8354 101.495 29.2352 87.9387 26.4757 81.6817C25.6562 79.4202 22.5129 75.2455 24.8551 75.5488C36.5643 77.0034 37.7168 66.2414 37.7168 66.2414C37.7168 66.2414 31.4367 67.2299 26.1351 64.8348C24.1549 63.9358 26.4526 62.6359 27.965 60.3078C29.6032 57.966 31.7089 56.5632 34.52 55.5788C40.0181 53.6853 45.1854 55.7857 46.9096 61.1034C48.2172 65.0437 47.3815 69.0303 44.865 73.8172C42.6475 78.0151 40.3924 80.8565 39.9395 87.2756C39.4883 93.7562 41.7631 98.4577 45.768 101.859" fill="#8CC800"/>
<path d="M80.2107 117.684C80.8414 117.677 81.4703 117.609 82.101 117.602C88.841 117.243 94.1358 114.814 96.3452 112.595C96.9588 111.972 97.1881 111.143 96.916 110.43C96.6422 109.655 95.8721 109.182 94.9269 109.222C87.2383 109.499 78.3496 109.719 69.7462 108.857C69.3671 108.836 68.9337 109.131 68.8811 109.508C68.8284 109.884 69.092 110.289 69.4711 110.31C78.1356 111.103 87.1519 110.931 94.8405 110.655C95.2179 110.614 95.4134 110.84 95.4814 111.018C95.5477 111.135 95.5529 111.32 95.3064 111.532C93.3417 113.477 88.3563 115.688 82.0582 116.061C75.4439 116.406 72.3433 116.061 69.3055 115.71C66.9001 115.414 64.3689 115.131 60.0188 115.231C55.3526 115.304 52.213 115.829 48.8864 116.437C45.3065 117.011 41.5396 117.666 35.3639 117.902C24.3996 118.348 12.7636 117.319 8.3353 116.871C7.70293 116.816 7.24726 116.308 7.29304 115.685C7.27935 115.191 7.58184 114.725 8.01698 114.493C8.63908 114.178 9.32409 113.856 10.1978 113.514C12.4415 112.529 15.5589 111.201 19.4477 108.12C23.1512 105.182 25.9841 100.421 27.4042 94.7612C28.6493 89.6153 28.5719 84.5509 27.0924 81.2468C26.8203 80.5339 26.3543 79.6564 25.953 78.8338C25.5534 78.0728 24.8868 76.7841 24.7439 76.1809C28.5416 76.6356 31.7389 75.918 34.1457 73.987C37.8492 71.0493 38.3516 66.417 38.4093 66.2251C38.4042 66.0401 38.3344 65.8002 38.2035 65.6288C38.0726 65.4574 37.8193 65.4229 37.6306 65.4434C37.5677 65.4502 31.5366 66.351 26.4909 64.1138C26.2342 63.956 26.1067 63.9079 26.105 63.8462C26.0982 63.5995 26.71 62.9146 27.0771 62.5037C27.5666 61.9557 28.0543 61.3461 28.5404 60.6748C29.9968 58.5992 31.9141 57.2161 34.6626 56.2379C39.8487 54.4388 44.5748 56.5251 46.1583 61.3026C47.3302 64.8875 46.7376 68.5398 44.1614 73.4587C43.8028 74.1781 43.3814 74.9042 43.0211 75.5619C41.2181 78.7885 39.5341 81.7548 39.1815 87.2371C38.7253 93.5347 40.8222 98.6279 45.2783 102.352C45.6014 102.626 46.0416 102.579 46.3476 102.236C46.6535 101.894 46.6415 101.462 46.3185 101.188C42.1854 97.7378 40.2874 92.9943 40.6944 87.1969C41.0572 82.0848 42.5577 79.3239 44.3625 76.1589C44.7227 75.5013 45.1442 74.7751 45.5639 73.9873C48.3202 68.7396 48.9637 64.6487 47.6558 60.7074C45.8614 55.1484 40.3686 52.7121 34.3071 54.7917C31.2458 55.8657 29.0192 57.4679 27.3809 59.8106C26.956 60.4134 26.4683 61.023 26.04 61.5025C25.2463 62.4545 24.5121 63.2764 24.6618 64.1263C24.7401 64.6746 25.1295 65.0655 25.8316 65.3606C30.0477 67.2547 34.838 67.1069 36.8506 66.8889C36.5092 68.225 35.6376 70.9177 33.355 72.7735C31.2559 74.4237 28.4971 75.0319 25.0785 74.598C24.2557 74.5016 23.8223 74.796 23.5793 75.1316C22.9097 76.0084 23.5763 77.2972 24.7105 79.5252C25.1118 80.3478 25.576 81.1636 25.7836 81.8216L25.7853 81.8833C27.1304 84.8926 27.201 89.7104 26.0085 94.4793C24.7057 99.8171 22.0529 104.249 18.5958 106.975C14.8905 109.851 11.899 111.165 9.71817 112.143C8.84619 112.547 8.09829 112.875 7.41328 113.197C6.48183 113.731 5.81393 114.669 5.84302 115.718C5.81777 117.082 6.79371 118.151 8.12306 118.317C12.6143 118.758 24.3132 119.78 35.4033 119.321C41.7048 119.071 45.5974 118.402 49.1144 117.835C52.3798 117.296 55.5195 116.77 60.0582 116.65C64.2824 116.563 66.6232 116.805 69.0915 117.094C71.8812 117.596 74.7286 117.906 80.2107 117.684Z" fill="black"/>
<path d="M36.1735 118.807C32.3299 118.976 28.4166 118.905 24.692 118.813C27.0155 116.148 25.4317 106.792 22.0113 106.296C24.8907 103.201 26.8536 98.9049 27.8101 94.718C28.3372 95.5271 29.8419 97.4678 33.9948 97.0801C38.4622 96.6584 40.2111 93.7469 40.6326 93.0207C42.0377 100.478 48.2124 104.759 56.1039 107.246C55.854 107.335 55.4749 107.314 54.9683 107.245C52.3062 106.791 49.412 113.91 51.3912 117.036C47.3097 117.726 43.3574 118.525 36.1735 118.807Z" fill="#364193"/>
<path d="M40.6027 93.0697C40.1831 93.857 38.3704 96.7119 33.9672 97.1265C33.7157 97.1537 33.527 97.1741 33.2755 97.2013C29.6217 97.3494 28.2464 95.5196 27.7228 94.8343C26.7669 99.0185 24.8032 103.25 21.9267 106.405C25.409 106.894 26.9285 116.19 24.6076 118.914C28.2683 119.012 32.2434 119.077 36.0859 118.908C43.2678 118.626 47.2817 117.821 51.2991 117.139C49.3254 114.199 51.9769 107.482 54.5601 107.388C54.6858 107.374 54.7487 107.367 54.8762 107.415C55.1923 107.443 55.4455 107.477 55.6971 107.45C55.8228 107.437 55.9486 107.423 56.0743 107.409C48.1814 104.801 42.0709 100.516 40.6027 93.0697ZM41.0933 90.2961L41.5425 92.8443C42.7267 99.1465 47.5796 103.568 56.3613 106.389L59.3526 107.364L56.2241 108.259C56.0371 108.341 55.8485 108.361 55.5953 108.327C55.2809 108.361 54.9648 108.333 54.5841 108.251C54.5212 108.258 54.5212 108.258 54.4583 108.264C54.081 108.305 53.4013 108.812 52.7388 109.934C51.6583 111.906 51.0489 114.94 52.1012 116.495L52.9563 117.763L51.3231 118.002C50.7572 118.063 50.2559 118.179 49.6917 118.302C46.2385 118.861 42.284 119.536 35.9841 119.785C32.5189 119.913 28.6084 119.903 24.443 119.797L22.4869 119.762L23.8325 118.256C24.8707 117.031 24.96 113.435 23.9958 110.509C23.3768 108.66 22.5234 107.454 21.638 107.364L19.8653 107.123L21.0887 105.754C23.6611 103.002 25.6334 99.0793 26.647 94.7034L27.2125 92.3546L28.4637 94.2595C29.3851 95.6437 30.981 96.3367 33.1869 96.2835C33.3756 96.263 33.5642 96.2426 33.8157 96.2154C37.2758 95.9029 38.9221 93.8698 39.6459 92.6786L41.0933 90.2961Z" fill="black"/>
<path d="M37.1493 107.623C37.0889 107.554 37.0285 107.485 36.9682 107.416C36.8447 107.342 36.7843 107.273 36.7871 107.209C36.6664 107.07 36.5457 106.932 36.5484 106.868C36.5539 106.74 36.6226 106.616 36.757 106.433C36.9574 106.191 37.026 106.067 37.0919 106.008C37.3032 105.509 37.3856 105.064 37.2814 104.541C37.232 104.215 37.0565 103.879 36.8809 103.543C36.6422 103.202 36.3377 102.921 36.0907 102.773C35.6572 102.546 35.092 102.438 34.2715 102.375C33.0724 102.282 32.2492 102.283 31.9309 102.323C31.5495 102.358 31.2915 102.467 31.2174 102.719C31.2119 102.848 31.1981 103.169 31.2392 103.687C31.231 103.88 31.2719 105.881 31.2384 109.615C31.2492 110.84 31.2793 111.616 31.3945 111.883C31.647 111.902 32.1519 111.941 32.9119 111.935C33.5431 111.984 34.0507 111.959 34.4294 111.988C35.5709 111.947 36.3365 111.813 36.8551 111.531C37.3107 111.244 37.5824 110.814 37.7992 110.186C38.0244 109.366 37.8104 108.448 37.1493 107.623ZM33.3876 105.271C33.4727 104.762 33.4892 104.377 33.4316 104.243C33.5633 104.125 33.6951 104.006 33.9503 103.961C34.1423 103.912 34.3317 103.926 34.5183 104.005C34.8942 104.098 35.0697 104.434 35.045 105.012C35.0202 105.59 34.8802 105.902 34.6167 106.139C34.4878 106.193 34.2957 106.243 34.0405 106.288C33.7853 106.333 33.5987 106.254 33.4752 106.18C33.3545 106.041 33.3052 105.716 33.3876 105.271ZM35.0689 110.362C34.8082 110.535 34.4241 110.635 33.8588 110.527C33.6722 110.448 33.6201 110.186 33.568 109.924C33.5708 109.86 33.5187 109.598 33.4776 109.079C33.4365 108.561 33.4503 108.24 33.5189 108.116C33.5875 107.993 33.7796 107.943 34.0979 107.903C34.4162 107.863 34.6028 107.942 34.8525 108.026C35.1625 108.179 35.3381 108.514 35.4368 109.166C35.412 109.744 35.3324 110.125 35.0689 110.362Z" fill="#E62828"/>
<path d="M15.0516 114.744C15.1141 114.738 15.239 114.725 15.3015 114.719C18.3977 113.486 20.924 112.064 22.4468 110.618C22.7517 110.342 22.7992 109.844 22.4774 109.568C22.2181 109.286 21.7164 109.275 21.4133 109.613C20.0742 110.917 17.7335 112.259 14.8229 113.412C14.4517 113.572 14.213 113.966 14.3511 114.383C14.4817 114.555 14.7391 114.775 15.0516 114.744Z" fill="#B4E100"/>
<path d="M39.7539 66.0904C40.0114 66.0639 40.2632 65.8456 40.2557 65.5897C40.2538 65.5257 40.3237 63.5295 38.9981 62.3825C38.7992 62.2104 38.4773 62.2435 38.2898 62.4552C38.1024 62.667 38.1119 62.9868 38.3107 63.1589C39.303 63.9552 39.2217 65.5676 39.2217 65.5676C39.2312 65.8874 39.4945 66.0529 39.7539 66.0904Z" fill="black"/>
<path d="M25.3478 73.6006L25.4615 73.2295C25.6193 72.2542 26.7625 70.8218 28.0682 70.6332C28.4418 70.5963 29.0021 70.5411 29.3225 70.8095C29.5147 70.9705 29.6411 71.018 30.1337 70.7895C30.4414 70.6392 30.8718 70.4168 31.1813 70.3264C31.8644 70.1991 33.5473 70.0932 33.5394 71.8935C31.6436 73.2201 29.0449 74.0161 25.3478 73.6006Z" fill="#E62828"/>
<path d="M27.6143 74.2442C29.9898 74.1824 32.0959 73.4834 33.7491 72.287L33.9949 72.141L33.9877 71.9C33.9659 71.1772 33.7607 70.594 33.3114 70.217C32.6054 69.6246 31.5469 69.7934 31.1121 69.8983C30.615 70.0096 30.0609 70.308 29.8756 70.3874C29.8151 70.454 29.7527 70.4604 29.6903 70.4668L29.6261 70.4129C29.1787 70.0962 28.4908 70.1062 27.9918 70.1573C26.4967 70.3707 25.1057 71.9632 24.8925 73.1935L24.7308 74.056L25.2334 74.1254C26.0496 74.2231 26.864 74.2606 27.6143 74.2442ZM32.9789 71.6408C31.1404 72.9165 28.7152 73.4065 25.894 73.2119C26.0594 72.4699 27.0247 71.2834 28.0832 71.1147C28.5198 71.07 28.8334 71.0983 28.9618 71.206C29.3451 71.4689 29.6606 71.5574 30.2752 71.1924C30.5816 70.9798 30.9522 70.821 31.1393 70.8019C31.3888 70.7763 32.1355 70.6395 32.5829 70.9562C32.8378 71.1114 32.9698 71.3396 32.9789 71.6408Z" fill="black"/>
<path d="M25.9877 65.408C25.6652 65.0787 25.8199 63.9778 26.0405 62.9909L26.0974 62.8042C31.2938 65.1139 37.4564 64.1908 37.4564 64.1908C37.4564 64.1908 37.3622 65.2253 36.8389 66.5443L36.7766 66.5506C33.3605 67.3172 26.8251 66.2279 25.9877 65.408Z" fill="white"/>
<path d="M34.6776 67.3184C35.4907 67.2959 36.2396 67.2193 36.8619 67.0952L36.9243 67.0888C37.1115 67.0697 37.2328 66.9362 37.2899 66.7487C37.8125 65.3633 37.9053 64.2639 37.9053 64.2639C37.9017 64.1432 37.8964 63.9621 37.7698 63.9145C37.6414 63.8065 37.5148 63.7589 37.39 63.7716C37.3276 63.778 31.3435 64.6317 26.335 62.4793C26.2084 62.4317 26.0836 62.4445 25.9588 62.4572C25.8357 62.5303 25.7127 62.6034 25.6538 62.7306L25.5968 62.918C25.5985 62.9784 25.5985 62.9784 25.5379 63.0451C25.0955 65.0279 25.3629 65.606 25.6214 65.8824C26.4559 66.5842 31.1132 67.4404 34.6776 67.3184ZM36.459 66.1676C33.0354 66.8202 26.9927 65.6817 26.349 65.0814C26.349 65.0814 26.1529 64.7987 26.4276 63.4992C30.6712 65.1847 35.2324 64.9003 36.855 64.7345C36.8032 65.1031 36.6926 65.5988 36.459 66.1676Z" fill="black"/>
<path d="M45.6824 84.2234C39.8325 93.8099 43.1281 102.701 48.0282 105.962C49.3812 106.826 54.6226 108.796 54.6226 108.796C54.6226 108.796 57.9752 111.024 64.8777 111.439C69.9433 111.731 74.75 109.664 79.2921 105.048C84.509 99.7351 88.6214 84.8018 76.1857 76.7945C65.748 70.0876 52.0737 73.7015 45.6824 84.2234Z" fill="#E62828"/>
<path d="M50.1955 83.0425C50.3823 83.0244 50.6295 82.9397 50.7484 82.7456C54.0046 79.0236 58.6845 76.8675 63.9898 76.7196L64.052 76.7135C64.488 76.6714 64.7918 76.3986 64.8407 75.968C64.8273 75.5434 64.5687 75.2642 64.1308 75.2457L64.0685 75.2517C58.3273 75.4418 53.2153 77.7614 49.6572 81.8168C49.3553 82.1502 49.4309 82.5688 49.6896 82.848C49.8199 83.0179 50.0086 83.0605 50.1955 83.0425Z" fill="#FF5A5A"/>
<path d="M75.8747 83.1236C76.1248 83.0984 76.3732 83.0117 76.5533 82.7466C78.8293 79.1829 82.2133 76.9899 86.0286 76.6064C86.4664 76.5623 86.7698 76.223 86.7568 75.7921C86.7437 75.3611 86.4216 75.0847 85.9838 75.1287C81.6682 75.5626 77.852 77.9842 75.2763 82.0104C75.0355 82.3434 75.1755 82.8233 75.4957 83.0382C75.6226 83.0872 75.7496 83.1362 75.8747 83.1236Z" fill="black"/>
<path d="M65.6468 112.065C66.8463 112.004 68.1069 111.873 69.3639 111.617C74.201 110.551 78.2301 107.809 81.3251 103.405C84.6038 98.7933 85.8341 93.3259 84.7303 88.0374C83.5542 82.4423 79.9383 77.7281 74.7387 75.0627C70.7588 73.0248 65.6793 72.2944 60.8961 73.0411C55.7346 73.827 51.129 76.3144 48.0119 79.9669C45.0171 83.481 43.0511 87.5797 42.5386 91.6535C41.9165 96.304 43.1243 100.828 46.0175 104.612C46.2788 104.899 46.7237 104.978 47.0315 104.695C47.3393 104.412 47.4525 103.961 47.1912 103.673C41.075 95.6373 44.1618 86.648 49.1147 80.9206C55.5345 73.4708 66.8323 72.8032 74.0209 76.4563C78.835 78.9104 82.1877 83.2749 83.2897 88.5007C84.3176 93.3573 83.2023 98.4359 80.1648 102.646C73.4851 112.007 63.9117 111.114 58.7508 109.764C52.4423 108.093 49.9669 101.313 50.8692 95.4396C51.6081 90.4628 55.0464 84.8296 62.2341 84.1479C67.5919 83.593 72.1497 88.084 72.4622 92.2608C72.6674 94.9409 71.115 98.0544 68.5711 99.7C67.2065 100.595 64.3994 101.891 60.9923 99.9824C59.7708 99.2922 58.9127 98.0618 58.6812 96.6408C58.4535 95.3451 58.7949 94.0533 59.5237 93.0354C60.4972 91.741 61.7469 91.2346 62.9556 91.4864C64.0382 91.7512 64.824 92.6749 64.9184 93.7332C64.9312 94.1716 65.3186 94.4456 65.695 94.3438C66.1362 94.2981 66.4404 93.8896 66.3663 93.5204C66.2536 91.8358 65.0748 90.4502 63.3563 90.0627C61.5099 89.6257 59.6373 90.4479 58.2984 92.22C57.2637 93.5836 56.8721 95.3204 57.1128 97.0546C57.4201 98.9074 58.5414 100.488 60.0855 101.396C63.0439 103.1 66.3903 102.941 69.242 101.013C72.2809 99.0016 74.1356 95.4171 73.8489 92.1171C73.6492 89.6249 72.2482 87.1314 70.0461 85.3491C67.7143 83.4547 64.904 82.4893 62.0675 82.7831C58.5376 83.1487 55.4191 84.6025 53.1531 87.0988C51.0688 89.325 49.7631 92.2245 49.2896 95.4775C48.2779 101.927 51.0294 109.495 58.1646 111.332C60.2001 111.75 62.8047 112.171 65.6468 112.065Z" fill="black"/>
<path fill-rule="evenodd" clip-rule="evenodd" d="M69.4497 73.0397C67.6127 68.6781 69.837 63.0269 70.2228 63.1072C70.7362 63.1726 74.9211 64.2508 77.6021 66.5704C80.8729 69.448 81.4965 73.8887 78.1463 75.4713C73.4677 77.648 70.8087 76.2034 69.4497 73.0397Z" fill="#B4E100"/>
<path d="M74.4718 76.9627C75.6208 76.891 76.9548 76.547 78.3447 75.8833C79.6724 75.2894 80.5396 74.1855 80.8252 72.8364C81.2816 70.6528 80.1922 68.0234 77.9711 66.1528C75.1604 63.7247 70.7844 62.6074 70.335 62.5347C70.2075 62.5496 69.951 62.5169 69.766 62.7892C69.0837 63.6208 67.2369 68.9744 69.0048 73.1535C69.7534 74.9456 70.8687 76.0683 72.3523 76.584C73.0008 76.9467 73.7068 77.0522 74.4718 76.9627ZM70.4272 63.6517C71.4566 63.9072 75.0007 64.9965 77.2887 66.9845C79.1848 68.6424 80.2026 70.9669 79.8658 72.8233C79.6361 73.8526 79.0159 74.6143 78.0038 75.0459C74.0224 76.8899 71.3181 76.1411 69.9563 72.8543C68.3922 69.1526 69.8787 64.7183 70.4272 63.6517Z" fill="black"/>
<path d="M63.4649 85.2552C63.7251 85.2291 63.9163 85.0809 63.9735 84.8172C64.09 84.3541 64.2064 83.891 64.3189 83.2993C64.6071 82.0451 64.8914 80.6624 65.2505 79.5945C65.3077 79.3308 65.1679 79.0225 64.9058 78.9843C64.6437 78.9462 64.3224 79.1074 64.2651 79.3711C63.9061 80.439 63.6237 81.886 63.3356 83.1402C63.2211 83.6676 63.1066 84.195 62.9882 84.5938C62.9309 84.8575 63.0708 85.1658 63.3979 85.1974C63.3999 85.2617 63.3999 85.2617 63.4649 85.2552Z" fill="black"/>
<path d="M66.9331 86.1395C67.1239 86.1197 67.3128 86.0365 67.3709 85.8398C67.8537 84.8998 68.8886 83.2032 69.4388 82.3833C69.624 82.1734 69.5512 81.8632 69.3548 81.693C69.1585 81.5227 68.8423 81.6192 68.6571 81.8291C68.0433 82.6557 67.0103 84.4156 66.4657 85.4256C66.3459 85.6922 66.4188 86.0024 66.6769 86.1027C66.7405 86.096 66.8059 86.1528 66.9331 86.1395Z" fill="black"/>
<path d="M53.4807 90.26C53.6687 90.2408 53.8549 90.1597 53.912 89.9676C54.03 89.7071 53.958 89.4038 53.7036 89.3054C53.0656 88.9977 52.1713 88.5297 51.3416 88.1173C50.4473 87.6493 49.5531 87.1813 48.9151 86.8735C48.6607 86.7752 48.3491 86.8691 48.2312 87.1296C48.1132 87.3901 48.1852 87.6934 48.4396 87.7917C49.0776 88.0994 49.9719 88.5674 50.8016 88.9799C51.6959 89.4479 52.5901 89.9159 53.2281 90.2236C53.2926 90.2791 53.3553 90.2728 53.4807 90.26Z" fill="black"/>
<path d="M76.8283 73.3499C76.8921 73.3433 76.9559 73.3367 77.0816 73.2599C77.3331 73.1063 77.4532 72.8388 77.3182 72.5979C77.2488 72.4139 75.4036 68.3989 72.845 66.2428C72.648 66.072 72.329 66.1052 72.1432 66.3157C71.9574 66.5262 71.9667 66.8439 72.1637 67.0147C74.5254 69.0001 76.3706 73.0151 76.3725 73.0786C76.4418 73.2626 76.637 73.3698 76.8283 73.3499Z" fill="black"/>
<path d="M57.0266 89.407C57.2139 89.3884 57.4618 89.3023 57.5829 89.1674C58.4308 88.2229 59.9749 87.5165 61.4111 87.3737C61.8482 87.3303 62.151 86.9929 62.1378 86.5642C62.1246 86.1354 61.803 85.8601 61.3659 85.9036C59.5551 86.0836 57.642 87.011 56.5519 88.2253C56.249 88.5626 56.2622 88.9914 56.5838 89.2667C56.65 89.383 56.8392 89.4256 57.0266 89.407Z" fill="#FF5A5A"/>
<path d="M54.3338 96.5857C54.397 96.5791 54.4601 96.5725 54.4601 96.5725C54.5233 96.566 54.5864 96.5594 54.5846 96.4966C54.6477 96.4901 54.6459 96.4272 54.709 96.4207C54.7722 96.4141 54.7704 96.3513 54.8335 96.3448C54.8967 96.3382 54.8948 96.2754 54.9561 96.206C54.9543 96.1432 55.0174 96.1366 55.0156 96.0738C55.0138 96.011 55.0769 96.0044 55.0751 95.9416C55.0732 95.8788 55.0714 95.816 55.0714 95.816C55.0696 95.7532 55.0677 95.6904 55.0677 95.6904C55.0659 95.6276 55.064 95.5647 55.0009 95.5713C54.999 95.5085 54.9359 95.515 54.934 95.4522C54.9322 95.3894 54.8691 95.396 54.8672 95.3332C54.6723 95.1644 54.416 95.065 54.2284 95.1475C54.1652 95.1541 54.1021 95.1606 54.1039 95.2234C54.0407 95.23 54.0426 95.2928 53.9794 95.2994C53.9163 95.3059 53.9181 95.3687 53.855 95.3753C53.7918 95.3818 53.7937 95.4447 53.7323 95.514C53.7342 95.5768 53.671 95.5834 53.6729 95.6462C53.6747 95.709 53.6116 95.7156 53.6134 95.7784C53.6153 95.8412 53.6171 95.904 53.6171 95.904C53.6189 95.9668 53.6208 96.0297 53.6208 96.0297C53.6226 96.0925 53.6244 96.1553 53.6876 96.1487C53.6894 96.2115 53.7526 96.205 53.7544 96.2678C53.7563 96.3306 53.8194 96.3241 53.8213 96.3869C53.8231 96.4497 53.8863 96.4431 53.9513 96.4994C54.0144 96.4928 54.0162 96.5556 54.0794 96.5491C54.1425 96.5425 54.1444 96.6053 54.2075 96.5988C54.2075 96.5988 54.2707 96.5922 54.3338 96.5857Z" fill="black"/>
<path d="M55.7541 109.731C55.9423 109.712 56.1914 109.624 56.3113 109.425C56.6158 109.083 56.5401 108.655 56.2799 108.37C54.3439 106.763 52.9488 106.407 51.6792 106.039C50.3468 105.677 49.3318 105.408 47.7686 103.637C47.5084 103.353 47.0673 103.336 46.6983 103.622C46.392 103.903 46.3422 104.344 46.6043 104.69C48.4277 106.745 49.7601 107.107 51.157 107.524C52.2994 107.843 53.5044 108.156 55.2447 109.534C55.3758 109.708 55.5658 109.751 55.7541 109.731Z" fill="black"/>
<path d="M27.743 57.5992C28.7522 55.2566 32.0779 52.1659 36.6137 51.7347C40.4551 51.3169 45.8742 53.1464 47.6001 58.4788C48.3575 60.7533 47.6597 65.2328 46.8768 66.6205C45.7092 63.2121 39.7369 55.0544 27.743 57.5992Z" fill="#364193"/>
<path d="M46.8927 67.1211C47.0817 67.1005 47.2689 67.018 47.3268 66.8255C48.1712 65.3681 48.864 60.7 48.1029 58.3004C47.2754 55.7839 45.5762 53.7348 43.2045 52.5037C41.2176 51.4789 38.8034 50.9972 36.6616 51.2306C32.0613 51.6698 28.4197 54.7974 27.3557 57.4579C27.2978 57.6504 27.303 57.836 27.4324 57.9461C27.5618 58.0561 27.6911 58.1661 27.8784 58.0836C39.6871 55.5557 45.4726 63.7382 46.5045 66.791C46.5113 67.0385 46.6407 67.1486 46.8927 67.1211C46.8297 67.128 46.8927 67.1211 46.8927 67.1211ZM37.1298 52.1726C40.4123 52.0632 45.4468 53.6247 47.1018 58.6577C47.6535 60.3354 47.3608 63.4704 46.8415 65.2648C45.9068 63.4427 44.2008 61.146 41.6248 59.3786C39.0488 57.6112 34.7021 55.7885 28.5407 56.8943C29.872 54.7633 32.8428 52.5156 36.5612 52.1725C36.8148 52.2069 36.9408 52.1932 37.1298 52.1726Z" fill="black"/>
<path d="M46.8877 67.8692C47.1485 67.8432 47.4054 67.6884 47.3976 67.431C47.4569 67.2314 48.1058 62.7772 44.793 59.2352C44.5915 59.0617 44.2635 59.0299 44.0738 59.2425C43.8841 59.4551 43.8287 59.7834 44.0302 59.9569C47.0052 63.1453 46.4117 67.2713 46.4136 67.3356C46.3563 67.5996 46.5597 67.8374 46.8877 67.8692C46.8225 67.8757 46.8225 67.8757 46.8877 67.8692Z" fill="black"/>
<path d="M79.2474 88.2417C79.3109 88.2351 79.3744 88.2285 79.4379 88.2219C79.6901 88.1321 79.8714 87.796 79.737 87.5561C78.2068 83.1465 74.5691 80.7331 73.3403 80.0996C73.0826 79.9995 72.7669 80.0959 72.6473 80.3622C72.5277 80.6284 72.6004 80.9382 72.8581 81.0382C73.9562 81.5585 77.3362 83.8717 78.7936 87.9717C78.8627 88.1548 79.0569 88.2615 79.2474 88.2417Z" fill="black"/>
<path d="M51.578 43.4256C48.0343 47.3609 45.21 51.8493 43.2259 56.6243C42.8046 57.62 41.4417 56.9483 41.7992 55.9597C43.7781 50.9955 46.7284 46.4299 50.3964 42.3543C51.0816 41.6458 52.2615 42.654 51.578 43.4256Z" fill="black"/>
<path d="M51.9177 8.7263C55.8071 5.18222 61.0257 4.29456 63.4734 4.69878C63.5997 4.74532 63.8272 4.00937 63.6991 3.90361C61.2246 2.61115 54.3532 2.53848 49.8574 6.67888C49.1887 7.28154 51.3699 9.19786 51.9177 8.7263Z" fill="black"/>
<path d="M70.7892 23.9254C68.9936 13.9227 56.5085 10.0431 48.3096 16.7049C38.6187 24.5327 41.7763 40.2678 54.0054 41.7351C64.2604 42.982 72.7543 33.1585 70.7892 23.9254Z" fill="white"/>
<path d="M56.4318 42.276C60.426 42.0861 64.2512 40.3504 67.2129 37.2081C70.7289 33.4415 72.3055 28.3868 71.2906 23.743C70.3971 18.898 66.9924 15.0807 62.1263 13.5521C57.2601 12.0234 52.0188 13.0391 47.9794 16.2377C43.2574 20.012 41.1349 26.0029 42.4336 31.7418C43.7322 37.4808 48.0931 41.443 53.8883 42.1183C54.7179 42.2772 55.6073 42.3043 56.4318 42.276ZM56.9296 13.8745C58.5152 13.8249 60.171 14.0179 61.7719 14.5298C66.3182 15.9685 69.5246 19.4948 70.3463 24.0348C71.2895 28.3737 69.8293 33.04 66.5613 36.5916C63.2916 40.0807 58.7668 41.7683 54.181 41.21C48.8306 40.5482 44.7313 36.8701 43.5078 31.5609C42.2827 26.1893 44.2904 20.6491 48.6378 17.1037C50.9954 15.0918 53.9498 14.0152 56.9296 13.8745Z" fill="black"/>
<path d="M61.3249 42.2216C61.3309 44.77 54.4386 45.5865 50.1873 44.1106C45.9343 42.5742 41.3243 37.132 43.805 35.8889C45.108 35.2605 45.5942 36.9672 49.5453 38.9616C56.4267 42.3946 61.3864 39.8479 61.3249 42.2216Z" fill="#8CC800"/>
<path d="M55.7484 45.3282C57.7586 45.2298 59.6337 44.7813 60.745 43.9907C61.6713 43.342 61.8419 42.6544 61.829 42.1693C61.85 40.586 60.3399 40.5688 58.5131 40.4648C56.4981 40.3813 53.4136 40.2933 49.8436 38.4949C48.0586 37.5957 47.031 36.796 46.2607 36.2114C45.2975 35.4655 44.6543 34.9278 43.662 35.4621C43.0412 35.7733 42.6794 36.3602 42.697 37.0272C42.6953 39.3382 46.5113 43.2989 50.0668 44.5516C51.7184 45.1613 53.8009 45.4198 55.7484 45.3282ZM60.8882 42.2723C60.8979 42.6361 60.655 42.9668 60.2224 43.2574C58.3698 44.5548 53.5951 44.7734 50.4207 43.6615C47.0549 42.4488 43.6232 38.7502 43.6378 36.9242C43.6266 36.4998 43.8115 36.3579 43.9981 36.2767C44.3712 36.1142 44.6252 36.208 45.5885 36.9539C46.3604 37.5992 47.4507 38.392 49.3 39.3449C53.0614 41.244 56.2729 41.3789 58.3506 41.4555C60.3656 41.539 60.8722 41.666 60.8882 42.2723Z" fill="black"/>
<path d="M63.1045 28.4543C62.7746 32.6049 56.5997 36.0881 51.6852 32.3886C47.4157 29.1171 50.9951 23.3629 54.0722 22.4017C62.4246 19.8015 63.3438 25.6228 63.1045 28.4543Z" fill="#FA961E"/>
<path d="M57.4766 21.7776C56.5274 21.8195 55.3921 22.0065 54.0724 22.4009C51.0573 23.3558 47.4133 29.1203 51.6842 32.3939C53.2375 33.5956 54.8969 34.0371 56.4777 33.9259C59.8956 33.8001 62.8665 31.2284 63.1059 28.3951C63.2958 26.0664 62.6665 21.582 57.4766 21.7776ZM57.5126 20.7756C59.6005 20.6711 61.2 21.244 62.3744 22.4873C64.264 24.4007 64.2174 27.3374 64.1217 28.4707C63.9763 30.1085 63.0696 31.7051 61.6473 32.984C60.2233 34.2008 58.405 34.8995 56.5066 34.9832C54.6082 35.0669 52.6911 34.4665 51.0729 33.2095C49.132 31.7385 48.3761 29.5759 48.9432 27.1433C49.5702 24.5795 51.6584 22.167 53.8574 21.4889C55.1754 21.0323 56.4371 20.8314 57.5126 20.7756Z" fill="black"/>
<path d="M52.6776 26.6124C51.9692 28.3185 52.9085 30.1681 54.7619 30.8554C56.6134 31.4801 58.7395 30.6948 59.3849 28.9952C60.0932 27.289 59.1539 25.4395 57.3006 24.7521C55.4491 24.1274 53.3878 24.9688 52.6776 26.6124Z" fill="black"/>
<path d="M55.1823 26.7078C55.1468 27.6562 54.3481 28.4949 53.3992 28.5304C52.4504 28.566 51.6689 27.8283 51.7044 26.8799C51.7399 25.9315 52.5386 25.0928 53.4874 25.0573C54.4994 25.0152 55.2178 25.7594 55.1823 26.7078Z" fill="white"/>
<path d="M42.6132 10.1035C39.154 10.4286 36.3353 8.72501 35.3573 7.48861C35.2928 7.43465 34.8591 7.72774 34.9252 7.84269C35.4744 9.55514 38.7037 12.4974 42.6659 12.116C43.2317 12.0528 43.1178 10.1083 42.6132 10.1035Z" fill="black"/>
<path d="M40.2474 16.2618C36.7464 11.148 28.5339 12.3649 25.5727 17.753C21.7685 24.7962 27.6534 31.2723 34.521 29.5785C40.7663 28.3282 43.9228 20.7939 40.2474 16.2618Z" fill="white"/>
<path d="M32.7652 30.3335C33.3993 30.3262 33.9669 30.2013 34.5976 30.0693C37.6882 29.4166 40.2937 27.2546 41.5438 24.2418C42.7957 21.2912 42.4562 18.1409 40.6191 15.9054C38.9018 13.4067 35.9501 12.169 32.6613 12.5311C29.4357 12.8862 26.5688 14.7644 25.1221 17.5488C23.3095 20.8736 23.4694 24.4188 25.4432 27.0143C27.1537 29.2636 29.8508 30.4669 32.7652 30.3335ZM33.3858 13.5139C36.0472 13.4084 38.4247 14.5218 39.8122 16.5568C41.4527 18.5638 41.7171 21.285 40.6465 23.903C39.5144 26.5903 37.22 28.5305 34.444 29.0862C33.8765 29.2111 33.3073 29.2738 32.8013 29.3295C30.2031 29.428 27.8274 28.3769 26.3133 26.3559C24.5361 23.9889 24.4513 20.8729 26.0194 17.8876C27.3481 15.4287 29.8406 13.7792 32.7499 13.4589C32.9414 13.5003 33.1311 13.4794 33.3858 13.5139Z" fill="black"/>
<path d="M25.6374 27.5632C24.4098 28.5387 26.6088 30.9572 29.0758 31.7189C31.5428 32.4805 36.2298 31.8591 36.0535 30.0084C35.9579 28.8125 34.7171 29.3069 32.1382 29.0397C27.9235 28.5854 26.8025 26.5944 25.6374 27.5632Z" fill="#8CC800"/>
<path d="M31.9827 32.5072C33.4886 32.465 35.0472 32.0541 35.9089 31.416C36.5845 30.8587 36.6949 30.302 36.6208 29.8864C36.5237 28.626 35.5187 28.6138 34.2007 28.6356C33.6982 28.6295 33.0079 28.6438 32.2517 28.5442C30.1741 28.3456 28.9023 27.7572 27.9484 27.3159C26.932 26.8813 26.1692 26.5403 25.3701 27.1716C24.94 27.5208 24.7637 27.9635 24.8411 28.4998C25.004 29.8742 26.9331 31.5413 28.9595 32.169C29.7833 32.4429 30.8541 32.5689 31.9827 32.5072ZM26.2662 27.8007C26.5167 27.7736 26.8346 27.9207 27.4705 28.2149C28.4244 28.6563 29.8231 29.2915 32.0885 29.4697C32.9073 29.5625 33.535 29.555 34.1001 29.5543C35.4824 29.5861 35.6092 29.6329 35.6207 30.0553C35.624 30.176 35.6306 30.4173 35.2615 30.6994C34.2169 31.5388 31.1491 31.8712 29.2496 31.2903C27.4143 30.7629 25.8658 29.2361 25.7785 28.3377C25.772 28.0964 25.8313 27.9689 25.8922 27.9018C26.0784 27.8211 26.141 27.8143 26.2662 27.8007Z" fill="black"/>
<path d="M36.9041 21.6748C36.7194 24.1895 32.9775 26.3467 30.0009 24.0545C27.4135 22.0937 29.5971 18.5487 31.4185 17.9745C36.5071 16.4177 37.046 19.9131 36.9041 21.6748Z" fill="#FA961E"/>
<path d="M33.4357 17.6292C32.8654 17.6295 32.1722 17.768 31.356 18.0448C29.5341 18.6193 27.2849 22.1105 29.9379 24.1275C30.9076 24.832 31.8654 25.1012 32.8779 25.0524C34.966 24.9478 36.7625 23.4403 36.9045 21.6779C36.9918 20.2333 36.6627 17.462 33.4357 17.6292ZM33.5349 16.6201C34.9281 16.5919 36.0156 16.9716 36.7975 17.7591C38.0369 19.0579 38.0246 20.9309 37.9818 21.6843C37.7902 23.9513 35.4986 25.8875 32.905 26.0476C31.6399 26.1242 30.4243 25.6962 29.3897 24.9364C28.0957 23.9555 27.5495 22.5182 27.9493 20.9145C28.3474 19.2487 29.7597 17.5963 31.2059 17.1879C32.0187 16.7867 32.7751 16.6412 33.5349 16.6201Z" fill="black"/>
<path d="M34.9848 21.029C34.8254 19.9118 33.7894 19.1375 32.6566 19.3811C31.5238 19.6247 30.6694 20.7212 30.8288 21.8384C30.9882 22.9556 32.0241 23.7298 33.1569 23.4862C34.2915 23.3054 35.0829 22.2155 34.9848 21.029Z" fill="black"/>
<path d="M32.2474 20.0656C32.327 20.6242 31.8998 21.1724 31.3335 21.2942C30.7671 21.416 30.2491 21.0289 30.1694 20.4703C30.0897 19.9118 30.517 19.3636 31.0833 19.2418C31.6497 19.12 32.1677 19.5071 32.2474 20.0656Z" fill="white"/>
</svg>
