<svg width="99" height="151" viewBox="0 0 99 151" fill="none" xmlns="http://www.w3.org/2000/svg">
<path d="M58.4189 82.6548C58.2836 82.6548 58.1619 82.6278 58.0267 82.5602C57.6346 82.3438 57.4858 81.857 57.7022 81.4649C57.7157 81.4514 58.9057 79.1526 57.7292 77.1513C57.3371 76.4752 56.7151 76.1371 56.0119 75.7315C55.1871 75.2717 54.254 74.7443 53.5374 73.6355C52.8342 72.5267 52.7125 71.4044 52.6178 70.4037C52.4556 68.6999 52.3474 67.6858 49.5348 67.0773C49.1021 66.9826 48.8181 66.5499 48.9128 66.1172C49.0074 65.6845 49.4401 65.4005 49.8728 65.4952C53.8484 66.3471 54.0512 68.4295 54.2405 70.255C54.3216 71.1474 54.4163 71.9858 54.9031 72.7701C55.3899 73.5409 56.039 73.906 56.7962 74.3252C57.594 74.7714 58.5135 75.2852 59.1355 76.34C60.7853 79.1391 59.2032 82.114 59.1355 82.2492C58.9868 82.5061 58.7164 82.6548 58.4189 82.6548Z" fill="black"/>
<path d="M57.2615 31.7437L54.3677 21.7237C60.304 16.4906 59.8307 9.43202 55.8687 4.53698C52.2312 0.0340801 42.2518 -0.804297 36.5184 6.44361C30.0413 0.534402 13.8822 6.17317 16.5055 18.9381C7.64849 27.8087 18.8449 36.8145 26.7689 30.6078C27.0934 31.311 30.1224 41.4661 30.1224 41.4661C30.1224 41.4661 34.1115 42.1828 44.2126 38.4372C55.9904 34.083 57.2615 31.7437 57.2615 31.7437Z" fill="white"/>
<path d="M31.0933 42.0747C30.4172 42.0747 30.0791 42.0206 30.0385 42.0071C29.8357 41.9665 29.6734 41.8313 29.6193 41.6284C28.6322 38.329 27.1042 33.2717 26.5092 31.4732C24.6026 32.7714 22.3985 33.3664 20.2214 33.1635C18.0173 32.9607 15.9484 31.9465 14.5421 30.3644C13.2169 28.877 12.5814 26.9704 12.7436 25.0096C12.9194 22.8866 14.0147 20.7366 15.9213 18.7488C14.9072 13.2859 17.2195 8.36379 22.1551 5.56469C24.5215 4.22599 27.2935 3.49579 29.9304 3.53636C32.4725 3.57692 34.7578 4.32064 36.4345 5.65934C39.2201 2.42753 43.1686 0.561468 47.4011 0.534424C47.4281 0.534424 47.4551 0.534424 47.4822 0.534424C51.0926 0.534424 54.4597 1.92721 56.2852 4.19894C58.4081 6.80873 59.5034 9.94588 59.3682 13.0289C59.233 16.3284 57.705 19.3979 54.9735 21.8995L57.7726 31.5814C57.8132 31.7167 57.7996 31.8654 57.732 31.9871C57.5968 32.244 56.0417 34.6374 44.4126 38.951C37.0566 41.6825 32.8782 42.0747 31.0933 42.0747ZM30.5389 40.9794C31.6612 41.047 35.799 40.9929 44.034 37.9504C53.5807 34.4076 56.1094 32.217 56.6638 31.6355L53.8512 21.886C53.7971 21.6832 53.8512 21.4668 54.0134 21.3316C59.9632 16.0985 59.0166 9.29682 55.4468 4.88858C53.8106 2.86024 50.7681 1.6162 47.4822 1.6162C47.4551 1.6162 47.4281 1.6162 47.4011 1.6162C43.3309 1.64325 39.5176 3.52283 36.9349 6.78169C36.8402 6.90339 36.705 6.971 36.5562 6.98452C36.4075 6.99804 36.2587 6.94395 36.1506 6.8493C33.081 4.0502 27.2935 3.91498 22.6824 6.52476C20.4783 7.78233 15.5157 11.4874 17.0302 18.83C17.0707 19.0058 17.0166 19.1951 16.8814 19.3168C12.7031 23.5087 13.3521 27.4031 15.3399 29.6478C17.7063 32.3251 22.5067 33.2447 26.4281 30.1751C26.5633 30.0805 26.7256 30.0399 26.8879 30.0805C27.0501 30.121 27.1853 30.2292 27.253 30.3779C27.564 31.0541 29.9439 38.9916 30.5389 40.9794Z" fill="black"/>
<path d="M36.769 6.18665C36.769 6.18665 35.3086 7.9851 34.4297 11.3927L36.769 6.18665Z" fill="white"/>
<path d="M34.4325 11.9336C34.3919 11.9336 34.3378 11.9336 34.2972 11.9201C34.0133 11.8525 33.8375 11.555 33.9051 11.2575C34.7976 7.7688 36.285 5.91625 36.3526 5.84864C36.5419 5.61876 36.88 5.5782 37.1099 5.76751C37.3397 5.95682 37.3803 6.29488 37.191 6.52475C37.1775 6.5518 35.7847 8.29616 34.9598 11.528C34.8922 11.7714 34.6759 11.9336 34.4325 11.9336Z" fill="black"/>
<path d="M16.4961 18.9517C16.4961 18.9517 16.8882 20.2904 17.6996 21.886L16.4961 18.9517Z" fill="white"/>
<path d="M17.6874 22.4134C17.4846 22.4134 17.2953 22.3052 17.2006 22.1159C16.3758 20.5067 15.9836 19.1545 15.9701 19.0869C15.889 18.8029 16.0512 18.5055 16.3352 18.4243C16.6192 18.3432 16.9167 18.5055 17.0113 18.7894C17.0113 18.8029 17.3899 20.1146 18.1742 21.6156C18.3094 21.886 18.2013 22.2105 17.9443 22.3458C17.8632 22.3999 17.7686 22.4134 17.6874 22.4134Z" fill="black"/>
<path d="M68.5756 80.3695C68.3187 80.3695 68.0617 80.2478 67.8995 80.0179C67.8048 79.8827 65.6548 76.6238 66.2768 73.3244C66.5202 72.0263 67.2639 71.1879 67.9265 70.4577C68.535 69.7816 69.103 69.1461 69.3193 68.1725C69.5492 67.1313 69.3734 66.1441 69.1976 65.1841C68.8596 63.3045 68.4674 61.168 71.6857 59.5047C72.0778 59.3019 72.5782 59.4506 72.781 59.8563C72.9838 60.2485 72.8351 60.7488 72.4294 60.9516C70.2794 62.0739 70.4552 63.0746 70.7932 64.9001C70.9825 65.9683 71.2124 67.1853 70.9014 68.5376C70.5904 69.9168 69.8196 70.7823 69.1435 71.5395C68.5485 72.2021 68.0347 72.7835 67.8724 73.6354C67.3721 76.2723 69.2382 79.0849 69.2517 79.1255C69.4951 79.5041 69.4004 80.0044 69.0353 80.2478C68.8866 80.3289 68.7379 80.3695 68.5756 80.3695Z" fill="black"/>
<path d="M63.8259 42.3856C68.8967 37.5447 77.3887 40.1544 79.1195 46.4152C81.3777 54.5421 73.3996 60.4107 66.4898 57.5305C60.1478 55.1506 58.7145 46.591 63.8259 42.3856Z" fill="white"/>
<path d="M70.1704 58.8017C68.8588 58.8017 67.5336 58.5448 66.2895 58.0309C63.1254 56.841 60.8942 54.0959 60.3263 50.6748C59.7718 47.3213 60.9483 44.076 63.4634 41.98C65.938 39.6272 69.4402 38.7753 72.8343 39.7083C76.2148 40.6413 78.757 43.0889 79.6495 46.2666C80.7042 50.0663 79.663 53.812 76.8504 56.3001C74.9979 57.9363 72.5909 58.8017 70.1704 58.8017ZM70.1163 40.425C67.9122 40.425 65.8027 41.2363 64.1936 42.7778L64.1666 42.8049C61.9354 44.6439 60.8942 47.5241 61.381 50.499C61.8813 53.528 63.8691 55.962 66.6682 57.0167L66.6817 57.0303C69.8594 58.3554 73.551 57.7469 76.1202 55.4887C78.6489 53.2576 79.5548 49.9987 78.5948 46.5641C77.8105 43.765 75.5523 41.5879 72.5368 40.763C71.739 40.5332 70.9277 40.425 70.1163 40.425Z" fill="black"/>
<path d="M76.9296 56.5435C77.9843 57.8281 74.9553 60.1404 72.0751 60.5595C69.1813 60.9787 64.2863 59.4913 64.9759 57.4765C65.4222 56.1784 66.5851 56.895 69.5059 57.0573C74.2116 57.3142 75.9289 55.34 76.9296 56.5435Z" fill="#8CC800"/>
<path d="M71.0102 61.1816C68.7656 61.1816 65.9394 60.3973 64.8441 59.0857C64.2627 58.3825 64.3168 57.7334 64.452 57.3143C64.9117 55.9756 66.007 56.1243 67.4133 56.3136C67.9813 56.3947 68.6844 56.4894 69.5228 56.53C71.8081 56.6517 73.3631 56.2325 74.4855 55.9215C75.6754 55.5969 76.622 55.34 77.3386 56.219C77.6902 56.6517 77.7714 57.2196 77.5415 57.7875C76.9735 59.2479 74.499 60.7624 72.1326 61.114C71.7945 61.1546 71.4159 61.1816 71.0102 61.1816ZM66.0882 57.2602C65.6555 57.2602 65.5743 57.3819 65.4797 57.6523C65.4256 57.801 65.385 58.0445 65.669 58.396C66.5885 59.5048 69.8338 60.3432 71.9838 60.0322C74.0933 59.7212 76.1622 58.3555 76.5408 57.3819C76.649 57.1114 76.5814 56.9762 76.5003 56.8815C76.2569 56.5841 75.9323 56.6381 74.7694 56.9492C73.6336 57.2602 71.9298 57.7199 69.4552 57.5982C68.5762 57.5577 67.846 57.4495 67.2646 57.3683C66.7102 57.3007 66.3451 57.2602 66.0882 57.2602Z" fill="black"/>
<path d="M32.7889 41.6959C37.2648 31.3785 51.6389 29.3637 58.711 37.7204C67.0812 47.6187 59.6035 63.8183 46.1759 63.3315C34.8984 63.034 28.2995 51.2156 32.7889 41.6959Z" fill="white"/>
<path d="M46.7718 63.8859C46.569 63.8859 46.3797 63.8859 46.1768 63.8724C40.768 63.7237 36.0487 61.0192 33.2226 56.4352C30.3964 51.8512 30.0584 46.2665 32.3031 41.4796C34.4801 36.4764 39.1183 33.0012 44.7164 32.1763C50.2876 31.3515 55.6694 33.2987 59.1311 37.3824C63.2013 42.1963 63.945 48.8492 61.0648 54.7584C58.3198 60.4243 52.8703 63.8859 46.7718 63.8859ZM47.2316 33.0688C46.4608 33.0688 45.6765 33.1229 44.8922 33.2446C39.6591 34.0154 35.3185 37.2607 33.3037 41.9259L33.2902 41.9394C31.1942 46.3882 31.5188 51.5942 34.1421 55.8673C36.7654 60.1403 41.1736 62.6554 46.2039 62.7906C52.1131 63.007 57.4408 59.7481 60.0912 54.2852C62.7821 48.7681 62.0925 42.5479 58.3063 38.072C55.5883 34.8537 51.5587 33.0688 47.2316 33.0688Z" fill="black"/>
<path d="M44.8403 27.1865C40.8107 27.2 37.5113 29.634 36.4025 31.2567C36.3484 31.3378 35.821 31.0268 35.8616 30.8781C36.4971 28.7145 40.1887 24.8066 44.8539 24.7795C45.5165 24.7795 45.3812 27.173 44.8403 27.1865Z" fill="black"/>
<path d="M67.774 33.2313C71.0329 33.3936 73.6021 35.4625 74.427 36.8147C74.4675 36.8823 74.9138 36.6524 74.8867 36.5307C74.454 34.7593 71.6143 31.4734 67.8552 31.2976C67.3143 31.2706 67.3413 33.2043 67.774 33.2313Z" fill="black"/>
<path d="M38.5812 62.5744C37.8916 65.387 45.0989 67.4153 50.1021 66.4688C55.1054 65.5222 61.5284 60.2756 59.2161 58.5313C58.0126 57.6253 57.0255 59.4102 52.171 60.9382C43.8278 63.5615 39.2167 59.924 38.5812 62.5744Z" fill="#8CC800"/>
<path d="M47.4139 67.2396C43.9252 67.2396 40.2471 66.2119 38.7462 64.6298C37.9348 63.7779 37.9213 62.9666 38.0565 62.4392C38.4757 60.7489 40.0714 60.9247 42.0997 61.1546C44.3173 61.4115 47.6708 61.7901 52.0115 60.4244C54.148 59.7483 55.5002 59.0316 56.5008 58.5042C57.7719 57.8281 58.6103 57.3954 59.5433 58.0986C60.1383 58.5448 60.3682 59.2074 60.1924 59.9781C59.5974 62.5338 54.3779 66.2119 50.213 66.9962C49.3205 67.172 48.374 67.2396 47.4139 67.2396ZM39.1113 62.6961C39.0166 63.0883 39.1518 63.4804 39.5305 63.8861C40.8286 65.2518 44.2092 66.1578 47.3869 66.1578C48.2929 66.1578 49.1718 66.0902 49.9967 65.9279C53.9857 65.1707 58.6779 61.6819 59.1242 59.7347C59.2323 59.2885 59.0565 59.0992 58.8808 58.964C58.5292 58.6935 58.2317 58.8152 56.9876 59.4643C55.96 60.0052 54.5536 60.7489 52.3225 61.4521C47.7655 62.8854 44.2768 62.4933 41.9645 62.2364C39.8415 61.993 39.2735 62.0065 39.1113 62.6961Z" fill="black"/>
<path d="M96.9842 141.341C94.5096 140.043 90.4664 139.164 85.0035 134.891C76.7955 128.455 74.8348 113.594 78.1612 106.522C79.9462 102.722 82.0015 97.0966 80.2842 89.8892C78.6345 82.9388 75.7543 79.7881 70.6699 78.1655C64.7878 76.2994 59.0408 78.828 56.9043 84.7778C55.3087 89.1996 56.0254 93.5132 58.554 98.7192C60.7717 103.276 63.0975 106.305 63.2733 113.391C63.9088 139.597 25.9114 140.652 2.36922 140.773C1.04404 140.787 0.300317 142.22 1.23335 143.167C3.22112 145.168 8.48126 147.71 15.9726 147.832C29.0215 148.048 29.5353 146.182 39.9745 145.979C50.2784 145.777 53.4967 147.832 66.6674 147.832C78.5669 147.832 91.44 146.196 96.2675 145.506C97.3493 145.357 98.1471 144.438 98.1741 143.356C98.1876 142.518 97.7279 141.733 96.9842 141.341Z" fill="#8CC800"/>
<path d="M18.0146 148.657C17.3656 148.657 16.6759 148.657 15.9592 148.643C8.63021 148.521 2.99144 146.087 0.652102 143.735C0.0165576 143.099 -0.172753 142.193 0.165302 141.382C0.516879 140.516 1.3823 139.962 2.3559 139.962C17.4332 139.881 45.5053 139.732 57.0938 127.792C60.7989 123.979 62.5974 119.138 62.4621 113.404C62.3269 107.752 60.7854 104.804 59.014 101.383C58.6354 100.639 58.2297 99.882 57.8375 99.0707C55.0925 93.4049 54.5652 88.9155 56.1608 84.4938C58.4055 78.26 64.477 75.3257 70.9406 77.3811C76.4982 79.1525 79.446 82.7088 81.0958 89.6863C82.8672 97.137 80.7036 103.06 78.9187 106.859C77.3366 110.227 77.012 115.568 78.0668 120.787C79.2567 126.642 81.9071 131.429 85.5175 134.255C89.3984 137.298 92.5896 138.596 94.929 139.556C95.862 139.935 96.6598 140.259 97.3765 140.638C98.4042 141.179 99.0262 142.22 98.9992 143.383C98.9721 144.87 97.8768 146.114 96.4029 146.317C91.4673 147.02 78.7023 148.643 66.6811 148.643C59.8659 148.643 55.6064 148.089 51.8472 147.588C48.3044 147.129 44.9509 146.682 40.0017 146.777C35.4312 146.858 32.8485 147.264 30.117 147.697C27.088 148.17 23.9779 148.657 18.0146 148.657ZM66.9109 78.3682C62.7461 78.3682 59.1898 80.8292 57.6753 85.0482C56.2284 89.0778 56.7152 93.0533 59.2844 98.3675C59.663 99.1653 60.0552 99.9091 60.4473 100.639C62.2458 104.087 63.9361 107.346 64.0848 113.364C64.2336 119.557 62.2728 124.79 58.2567 128.928C53.0912 134.255 44.694 137.785 32.578 139.718C22.4093 141.355 11.6457 141.544 2.36942 141.585C1.97728 141.585 1.7474 141.814 1.66627 142.004C1.61218 142.152 1.58513 142.369 1.80149 142.585C3.82982 144.641 9.13053 146.899 15.9728 147.007C23.1666 147.129 26.5607 146.601 29.8466 146.087C32.5104 145.668 35.269 145.236 39.9477 145.154C45.0185 145.06 48.4261 145.506 52.023 145.979C55.9174 146.493 59.9335 147.007 66.6405 147.007C78.5536 147.007 91.2239 145.384 96.1325 144.695C96.8221 144.6 97.3224 144.019 97.3359 143.329C97.3494 142.788 97.052 142.301 96.5787 142.058C95.9431 141.72 95.1724 141.409 94.2664 141.044C91.8459 140.057 88.5194 138.704 84.4628 135.527C80.5413 132.457 77.6882 127.332 76.4306 121.098C75.2812 115.473 75.6463 109.888 77.4042 106.156C79.2297 102.275 81.1093 96.9342 79.4731 90.0514C77.9451 83.6283 75.4029 80.5047 70.3997 78.9091C69.2368 78.5575 68.0468 78.3682 66.9109 78.3682Z" fill="black"/>
<g opacity="0.6">
<path opacity="0.6" d="M70.4663 82.1816C70.3311 82.1816 70.1824 82.1411 70.0472 82.0734C69.006 81.4514 67.7619 81.1945 66.5449 81.3432C66.0987 81.3973 65.693 81.0863 65.6389 80.6401C65.5848 80.1939 65.8958 79.7882 66.3421 79.7341C67.9107 79.5448 69.5198 79.8828 70.872 80.6807C71.2506 80.9105 71.3859 81.4109 71.156 81.7895C71.0072 82.0464 70.7368 82.1816 70.4663 82.1816Z" fill="#B4E100"/>
</g>
<path d="M58.0703 89.6728C58.0703 89.6863 58.0838 89.7134 58.0838 89.7269C59.5442 95.0817 62.9248 104.223 72.6473 101.018C83.749 97.3534 80.693 87.1577 79.2461 81.8029C79.2461 81.7893 79.2326 81.7623 79.2326 81.7488L58.0703 89.6728Z" fill="black"/>
<path d="M68.6853 101.194C76.2712 100.856 75.6763 98.0701 75.7033 98.043C75.1489 96.6367 73.0394 95.1087 71.1599 95.3656C70.6054 95.4468 69.8347 95.6361 69.456 96.1364C69.2262 96.4339 69.091 96.6232 68.3608 96.4474C67.8604 96.3257 67.1843 96.204 66.7381 96.2446C65.7104 96.3392 63.1277 96.9477 64.1418 99.9902C64.1283 100.72 65.3183 100.964 65.3723 101.059C65.5481 100.991 67.6441 101.234 68.6853 101.194Z" fill="#E62828"/>
<path d="M77.4185 98.5706C75.5254 99.9634 76.7424 98.6382 73.4838 100.802C71.0632 101.613 67.9535 102.347 67.4125 101.884C65.3276 100.097 62.977 100.572 73.4838 97.7187C83.9905 94.8655 77.9594 97.4618 77.4185 98.5706Z" fill="white"/>
<path d="M57.8672 89.5783L58.6109 92.0799C58.6109 92.0799 67.0353 91.1874 73.2825 88.6317C79.5298 86.076 80.2329 85.0889 80.2329 85.0889L79.3946 81.5867L57.8672 89.5783Z" fill="white"/>
<path d="M68.8463 102.208C67.3183 102.208 65.8985 101.856 64.6274 101.167C59.9487 98.6516 58.1502 92.0257 57.5553 89.8486C57.5553 89.8351 57.5417 89.8216 57.5417 89.7945C57.4606 89.5241 57.6093 89.2401 57.8663 89.1455L79.0285 81.2214C79.1638 81.1674 79.3125 81.1809 79.4477 81.235C79.5829 81.3026 79.6776 81.4108 79.7317 81.546C79.7317 81.5595 79.7452 81.5865 79.7452 81.6001C79.7452 81.6136 79.7587 81.6271 79.7587 81.6271L79.8534 81.9922C80.6241 84.7913 81.6654 88.6316 81.1515 92.3367C80.5295 96.799 77.7169 99.8821 72.8083 101.505C71.4155 101.978 70.0903 102.208 68.8463 102.208ZM58.7182 89.9974C60.2327 95.3657 62.3421 98.7192 65.1412 100.22C67.1966 101.329 69.6712 101.424 72.4838 100.491C82.7607 97.11 80.3808 87.9961 78.8663 82.452L58.7182 89.9974ZM57.5553 89.8351C57.5553 89.8351 57.5553 89.8486 57.5553 89.8351C57.5553 89.8486 57.5553 89.8351 57.5553 89.8351Z" fill="black"/>
<path d="M64.8012 101.194C64.5848 101.194 64.382 101.072 64.3008 100.856C64.1927 100.585 64.3144 100.261 64.5983 100.153C64.6795 100.126 72.1572 97.056 78.7696 95.9201C79.0671 95.866 79.3375 96.0689 79.3916 96.3663C79.4457 96.6638 79.2429 96.9343 78.9454 96.9884C72.4547 98.1107 65.0851 101.126 65.004 101.153C64.9364 101.18 64.8688 101.194 64.8012 101.194Z" fill="black"/>
<path d="M89.8293 142.572C89.7346 142.572 89.64 142.558 89.5453 142.518C86.1918 141.274 83.4739 139.732 81.9053 138.204C81.5807 137.893 81.5807 137.379 81.8917 137.055C82.2028 136.73 82.7166 136.73 83.0411 137.041C84.461 138.42 86.9626 139.827 90.1133 140.99C90.5324 141.152 90.7488 141.612 90.5865 142.031C90.4648 142.369 90.1538 142.572 89.8293 142.572Z" fill="#B4E100"/>
<path d="M71.0577 52.8789C69.4215 52.8789 67.9341 52.0946 67.0686 50.7829C66.3384 49.6741 66.1897 48.3625 66.663 47.2807C67.2715 45.9014 68.5696 44.4275 70.4086 44.4275C71.558 44.4275 72.775 44.9954 74.0326 46.1178C74.9927 46.9697 75.4254 48.714 75.0332 50.1744C74.6681 51.5402 73.6675 52.4462 72.2206 52.7572C71.8285 52.8383 71.4363 52.8789 71.0577 52.8789Z" fill="#FA961E"/>
<path d="M70.416 44.9685C71.322 44.9685 72.4173 45.3877 73.6884 46.5236C75.0406 47.727 75.3516 51.5538 72.1334 52.2299C71.7683 52.3111 71.4031 52.3381 71.0651 52.3381C68.0496 52.3381 66.2918 49.4984 67.1707 47.4971C67.6034 46.51 68.6717 44.9685 70.416 44.9685ZM70.416 43.8867C68.3201 43.8867 66.8597 45.5229 66.1836 47.0644C65.6292 48.3085 65.805 49.8094 66.6298 51.0805C67.5899 52.5545 69.2531 53.4199 71.0651 53.4199C71.4843 53.4199 71.917 53.3793 72.3497 53.2847C73.9859 52.9466 75.1623 51.8648 75.568 50.3098C76.0007 48.6736 75.5004 46.6993 74.4051 45.7122C73.0393 44.4952 71.7006 43.8867 70.416 43.8867Z" fill="black"/>
<path d="M72.6426 47.1049C72.2234 46.6587 71.642 46.3882 71.0064 46.3206C69.6677 46.1854 68.4913 47.0643 68.3831 48.2543C68.2749 49.4443 69.262 50.5125 70.6007 50.6477C70.6954 50.6613 70.7765 50.6613 70.8712 50.6613C71.4121 50.6613 71.9394 50.499 72.3586 50.188C72.859 49.8229 73.17 49.2955 73.2241 48.7141C73.2646 48.1326 73.0618 47.5647 72.6426 47.1049Z" fill="black"/>
<path d="M70.5755 46.6317C70.3321 47.132 70.5349 47.7405 71.0352 47.9839C71.5355 48.2273 72.144 48.0245 72.3874 47.5241C72.6308 47.0238 72.428 46.4153 71.9277 46.1719C71.4274 45.9285 70.8189 46.1313 70.5755 46.6317Z" fill="white"/>
<path d="M47.1432 53.0952C46.3859 53.0952 45.6016 52.9735 44.8173 52.7436C42.762 52.1351 41.4233 50.7017 41.0582 48.7005C40.666 46.5504 41.4909 44.0759 42.9783 42.9535C44.8038 41.5743 46.5211 40.8711 48.0897 40.8711C50.9564 40.8711 52.809 43.251 53.5933 45.4822C54.1206 46.9967 53.8096 48.7816 52.7549 50.269C51.4838 52.0404 49.3878 53.0952 47.1432 53.0952Z" fill="#FA961E"/>
<path d="M48.077 41.412C50.9573 41.412 52.4988 44.0353 53.0667 45.658C54.1079 48.6599 51.39 52.5543 47.1305 52.5543C46.4408 52.5543 45.7106 52.4461 44.9534 52.2297C40.153 50.8099 41.086 45.0495 43.2902 43.3862C45.1968 41.9529 46.7789 41.412 48.077 41.412ZM48.0905 40.3302V41.412V40.3302C46.4138 40.3302 44.5748 41.0739 42.6546 42.5208C41.0184 43.7648 40.1124 46.4558 40.5316 48.7951C40.9373 51.0128 42.3977 52.5949 44.6694 53.2574C45.5078 53.5008 46.3327 53.6225 47.144 53.6225C49.5645 53.6225 51.8227 52.4867 53.1884 50.5665C54.3378 48.9439 54.6894 46.9696 54.0944 45.2929C53.256 42.8994 51.2412 40.3302 48.0905 40.3302Z" fill="black"/>
<path d="M48.1977 43.819C47.17 43.8325 46.2099 44.2382 45.5338 44.9278C44.9659 45.5228 44.6549 46.2665 44.6684 47.0508C44.6819 47.9027 45.0741 48.7005 45.7637 49.2955C46.4263 49.8634 47.3052 50.1744 48.2247 50.1744C48.2518 50.1744 48.2653 50.1744 48.2923 50.1744C49.2389 50.1609 50.1314 49.8228 50.794 49.2143C51.4701 48.6059 51.8352 47.7945 51.8216 46.9426C51.7946 45.1983 50.1719 43.7919 48.1977 43.819Z" fill="black"/>
<path d="M47.2369 44.3463C47.548 45.1305 47.1693 46.0365 46.3715 46.3475C45.5872 46.6586 44.6813 46.2799 44.3702 45.4821C44.0592 44.6978 44.4379 43.7918 45.2357 43.4808C46.0199 43.1698 46.9259 43.5484 47.2369 44.3463Z" fill="white"/>
<path d="M54.3559 21.7238C54.3559 21.7238 53.0984 22.8461 50.5156 23.7386L54.3559 21.7238Z" fill="white"/>
<path d="M50.5071 24.2931C50.2773 24.2931 50.0744 24.1578 49.9933 23.928C49.8986 23.644 50.0474 23.333 50.3314 23.2383C52.7654 22.3864 53.9824 21.3317 53.9959 21.3182C54.2258 21.1153 54.5638 21.1424 54.7531 21.3723C54.956 21.6021 54.9289 21.9402 54.7126 22.1295C54.6585 22.1836 53.3333 23.333 50.6829 24.2525C50.6288 24.2795 50.5748 24.2931 50.5071 24.2931Z" fill="black"/>
<path d="M63.0569 112.268L65.3151 122.586C65.4503 123.221 66.0723 123.641 66.7214 123.532L75.9571 121.734C76.6602 121.612 77.12 120.923 76.9442 120.219L76.6873 113.107L81.1631 121.017L81.2172 127.914L63.0163 131.565L61.3125 123.181L63.0569 112.268Z" fill="white"/>
<path d="M63.0187 132.106C62.7617 132.106 62.5454 131.93 62.4913 131.673L60.7875 123.276C60.774 123.208 60.774 123.14 60.7875 123.086L62.5319 112.187C62.5724 111.93 62.7888 111.741 63.0457 111.728H63.0592C63.3161 111.728 63.5325 111.903 63.5866 112.147L65.8448 122.464C65.9259 122.816 66.264 123.046 66.6156 122.992L75.8377 121.193H75.8512C76.0405 121.166 76.2028 121.058 76.311 120.896C76.4192 120.733 76.4462 120.544 76.4056 120.355C76.3921 120.314 76.3921 120.274 76.3921 120.247L76.1352 113.134C76.1217 112.89 76.2839 112.661 76.5273 112.593C76.7707 112.525 77.0277 112.634 77.1494 112.85L81.6252 120.76C81.6658 120.842 81.6928 120.936 81.6928 121.017L81.7469 127.914C81.7469 128.171 81.5711 128.4 81.3142 128.441L63.1404 132.106C63.0863 132.106 63.0592 132.106 63.0187 132.106ZM61.8693 123.167L63.4514 130.929L80.6651 127.454L80.6246 121.153L77.3116 115.297L77.4874 120.152C77.5821 120.612 77.5009 121.098 77.244 121.491C76.9736 121.896 76.5544 122.18 76.0676 122.261L66.8454 124.06H66.8319C65.8989 124.222 65.0199 123.614 64.8171 122.694L63.1674 115.176L61.8693 123.167Z" fill="black"/>
<path d="M53.9854 131.226L63.0182 131.565L81.1921 127.9C81.1921 127.9 93.3756 145.763 80.6512 149.116C65.885 152.997 63.0994 134.431 63.0994 134.431L50.9023 133.579L53.9854 131.226Z" fill="white"/>
<path d="M76.7863 150.185C74.4199 150.185 72.2563 149.549 70.3497 148.291C64.7786 144.627 63.0071 136.865 62.642 134.932L50.8777 134.107C50.6478 134.093 50.4585 133.944 50.3909 133.728C50.3233 133.512 50.4044 133.282 50.5802 133.147L53.6498 130.794C53.7444 130.713 53.8661 130.672 54.0013 130.686L62.9801 131.024L81.0863 127.373C81.3027 127.332 81.5191 127.413 81.6408 127.603C81.9382 128.035 88.9292 138.42 86.4682 145.006C85.6028 147.318 83.6961 148.873 80.7889 149.644C79.3961 150.009 78.0574 150.185 76.7863 150.185ZM52.3787 133.133L63.1424 133.89C63.3993 133.904 63.6021 134.093 63.6427 134.35C63.6562 134.445 65.1031 143.559 70.9447 147.399C73.6221 149.157 76.8404 149.563 80.5184 148.589C83.0606 147.926 84.7238 146.588 85.454 144.627C87.5094 139.137 82.0599 130.239 80.9376 128.509L63.1153 132.105C63.0748 132.119 63.0342 132.119 62.9936 132.119L54.1501 131.781L52.3787 133.133Z" fill="black"/>
<path d="M80.8607 135.702L69.8672 138.136C70.8543 142.504 74.5459 145.398 78.1293 144.6C81.7262 143.802 82.4699 140.219 80.8607 135.702Z" fill="white"/>
<path d="M76.9554 145.276C73.5343 145.276 70.2889 142.382 69.3424 138.258C69.3154 138.123 69.3424 137.974 69.41 137.853C69.4911 137.731 69.6128 137.65 69.7481 137.609L80.7416 135.175C81.0121 135.121 81.2825 135.27 81.3636 135.527C82.4319 138.529 82.486 141.057 81.4989 142.815C80.8363 144.019 79.741 144.789 78.24 145.127C77.8208 145.222 77.3881 145.276 76.9554 145.276ZM70.5459 138.542C71.6412 142.315 74.9 144.762 78.0237 144.073C79.2001 143.816 80.052 143.221 80.5658 142.301C81.3366 140.922 81.3096 138.813 80.5117 136.338L70.5459 138.542Z" fill="black"/>
<path d="M57.081 109.51C63.0173 119.746 59.0553 129.509 53.5923 133.201C52.1049 134.201 46.2768 136.527 46.2768 136.527C46.2768 136.527 42.5717 139.097 35.0128 139.8C29.5092 140.314 24.3843 138.218 19.6651 133.39C14.2156 127.792 10.4294 111.755 24.3032 102.56C35.8647 94.8924 50.5633 98.2865 57.081 109.51Z" fill="#E62828"/>
<path d="M52.0887 109.442C51.8588 109.442 51.629 109.348 51.4667 109.145C48.0591 105.048 42.9883 102.803 37.1737 102.803C37.1467 102.803 37.1196 102.803 37.0926 102.803C36.6463 102.803 36.2812 102.438 36.2812 101.992C36.2812 101.545 36.6463 101.18 37.0926 101.18C37.1196 101.18 37.1467 101.18 37.1737 101.18C43.4751 101.18 48.9921 103.641 52.7107 108.104C52.9947 108.442 52.9541 108.955 52.6026 109.253C52.4538 109.375 52.2645 109.442 52.0887 109.442Z" fill="#FF5A5A"/>
<path d="M23.6607 109.266C23.3902 109.266 23.1198 109.131 22.971 108.874C20.6182 104.993 17.0213 102.695 12.8564 102.424C12.4102 102.397 12.0721 102.005 12.0992 101.559C12.1262 101.113 12.5184 100.775 12.9646 100.802C17.6838 101.099 21.727 103.668 24.3638 108.022C24.5937 108.401 24.472 108.901 24.0934 109.131C23.9446 109.239 23.8094 109.266 23.6607 109.266Z" fill="black"/>
<path d="M34.1211 140.503C32.8095 140.503 31.4572 140.395 30.078 140.138C24.8719 139.178 20.626 136.338 17.4347 131.686C14.0812 126.805 13.0129 120.923 14.4328 115.122C15.9202 109.01 20.0715 103.736 25.8185 100.667C30.2538 98.3001 35.7708 97.2995 40.9363 97.9215C46.5075 98.5976 51.3755 101.113 54.6343 104.98C57.7309 108.658 59.6646 113.093 60.0973 117.475C60.5841 122.518 59.0831 127.441 55.7702 131.686C55.4997 132.038 54.9859 132.106 54.6343 131.822C54.2827 131.551 54.2151 131.037 54.4991 130.686C61.4766 121.748 58.5152 112.079 53.4038 106.021C46.7644 98.1379 34.5538 97.8269 26.5893 102.086C21.248 104.94 17.3941 109.821 16.0149 115.487C14.7167 120.842 15.6903 126.251 18.7869 130.753C25.6021 140.665 36.0683 139.367 41.7071 137.717C48.6575 135.676 51.5918 128.198 50.8887 121.883C50.2937 116.474 46.8591 110.511 39.0162 110.01C33.2422 109.632 28.1037 114.635 27.5358 119.192C27.1707 122.14 28.7528 125.412 31.4032 127.157C32.85 128.103 35.8384 129.374 39.5976 127.17C40.9634 126.372 41.937 125.007 42.2615 123.438C42.559 122.032 42.275 120.598 41.4907 119.53C40.5171 118.191 39.1784 117.637 37.8397 117.988C36.6363 118.313 35.7438 119.314 35.6086 120.477C35.568 120.923 35.1623 121.247 34.7161 121.193C34.2699 121.153 33.9453 120.747 33.9994 120.301C34.1887 118.475 35.568 116.907 37.4205 116.406C39.4218 115.866 41.4366 116.677 42.8024 118.556C43.8571 119.99 44.2357 121.883 43.8436 123.749C43.4244 125.764 42.1804 127.522 40.409 128.549C37.1095 130.483 33.4991 130.469 30.4972 128.495C27.3059 126.399 25.4669 122.573 25.9131 118.976C26.2512 116.258 27.8603 113.513 30.3349 111.444C32.9312 109.267 36.0548 108.171 39.1108 108.374C42.9511 108.618 46.237 110.132 48.6305 112.755C50.767 115.095 52.1057 118.191 52.4843 121.694C53.2686 128.685 49.9692 136.974 42.1533 139.272C40.0709 139.908 37.2448 140.503 34.1211 140.503Z" fill="black"/>
<path fill-rule="evenodd" clip-rule="evenodd" d="M30.8235 98.6381C33.0006 93.8242 30.864 87.7662 30.4989 87.8338C29.9716 87.9285 25.4011 89.3213 22.3721 92.0257C18.694 95.3116 17.8016 100.22 21.3579 101.735C26.28 103.831 29.2414 102.113 30.8235 98.6381Z" fill="#B4E100"/>
<path d="M25.2635 103.182C24.0059 103.182 22.6267 102.857 21.1257 102.222C19.7464 101.64 18.854 100.518 18.6106 99.0709C18.2184 96.718 19.5571 93.7972 21.9911 91.6201C25.1147 88.8345 29.861 87.4012 30.3884 87.3065C30.5236 87.2795 30.7805 87.293 31.0104 87.5905C31.6865 88.4559 33.4174 94.2029 31.2944 98.868C30.4019 100.842 29.1308 102.167 27.5217 102.789C26.8321 103.046 26.0748 103.182 25.2635 103.182ZM30.2802 88.4424C29.1444 88.7805 25.3041 90.1192 22.7213 92.4179C20.5848 94.3246 19.3678 96.9344 19.6788 98.8816C19.8546 99.9633 20.5037 100.775 21.5449 101.221C25.7232 102.992 28.6711 102.046 30.3208 98.4083C32.1598 94.3651 30.7941 89.5512 30.2802 88.4424Z" fill="black"/>
<path d="M37.4063 111.579C37.1494 111.579 36.9195 111.403 36.879 111.146C36.7843 110.673 36.6897 110.145 36.595 109.591C36.3651 108.279 36.1082 106.805 35.7972 105.724C35.7161 105.44 35.8918 105.142 36.1758 105.061C36.4598 104.98 36.7573 105.156 36.8384 105.44C37.1494 106.576 37.4199 108.077 37.6497 109.415C37.7444 109.97 37.839 110.497 37.9337 110.957C37.9878 111.254 37.7985 111.538 37.501 111.592C37.4739 111.579 37.4334 111.579 37.4063 111.579Z" fill="black"/>
<path d="M33.5916 112.485C33.3887 112.485 33.1994 112.377 33.1048 112.174C32.645 111.2 31.5903 109.361 31.0088 108.536C30.833 108.293 30.9006 107.955 31.144 107.779C31.3874 107.603 31.7255 107.671 31.9013 107.914C32.5098 108.793 33.5916 110.659 34.0784 111.7C34.2136 111.971 34.0919 112.295 33.8214 112.417C33.7538 112.471 33.6727 112.485 33.5916 112.485Z" fill="black"/>
<path d="M48.4669 117.109C48.2641 117.109 48.0747 117.001 47.9801 116.812C47.8449 116.542 47.953 116.217 48.2235 116.082C48.8996 115.744 49.9002 115.189 50.8738 114.662C51.8474 114.121 52.8616 113.58 53.5512 113.229C53.8217 113.093 54.1462 113.202 54.2814 113.472C54.4167 113.742 54.3085 114.067 54.038 114.202C53.3619 114.54 52.3613 115.095 51.3877 115.622C50.4141 116.149 49.3999 116.704 48.7103 117.055C48.6292 117.096 48.548 117.109 48.4669 117.109Z" fill="black"/>
<path d="M22.9395 99.2467C22.8584 99.2467 22.7773 99.2331 22.6961 99.1926C22.4257 99.0573 22.3175 98.7328 22.4527 98.4624C22.5474 98.2731 24.7245 93.8919 27.5101 91.4984C27.7399 91.3091 28.078 91.3362 28.2673 91.5525C28.4566 91.7824 28.4296 92.1204 28.2132 92.3098C25.5899 94.5544 23.4399 98.8816 23.4263 98.9221C23.3317 99.1385 23.1424 99.2467 22.9395 99.2467Z" fill="black"/>
<path d="M44.4801 116.041C44.2637 116.041 44.0339 115.947 43.8716 115.771C42.9791 114.77 41.3294 114.026 39.7744 113.918C39.3281 113.891 38.9901 113.499 39.0306 113.053C39.0577 112.607 39.4498 112.269 39.8961 112.309C41.8568 112.458 43.8986 113.391 45.0751 114.689C45.3726 115.027 45.3455 115.541 45.021 115.838C44.8722 115.974 44.6829 116.041 44.4801 116.041Z" fill="#FF5A5A"/>
<path d="M47.3819 123.532C47.3279 123.532 47.2738 123.532 47.2197 123.519C47.1656 123.505 47.1115 123.492 47.0709 123.478C47.0168 123.465 46.9763 123.438 46.9357 123.411C46.8951 123.384 46.8546 123.343 46.814 123.302C46.7734 123.262 46.7464 123.221 46.7194 123.181C46.6923 123.14 46.6653 123.086 46.6517 123.046C46.6247 122.991 46.6112 122.951 46.6112 122.897C46.5977 122.843 46.5977 122.789 46.5977 122.735C46.5977 122.68 46.5977 122.626 46.6112 122.572C46.6247 122.518 46.6382 122.464 46.6517 122.424C46.6653 122.369 46.6923 122.329 46.7194 122.288C46.7464 122.248 46.787 122.207 46.814 122.167C46.8546 122.126 46.8951 122.099 46.9357 122.058C46.9763 122.031 47.0304 122.004 47.0709 121.977C47.125 121.964 47.1656 121.937 47.2197 121.937C47.4901 121.883 47.7606 121.964 47.9499 122.153C47.9904 122.194 48.0175 122.234 48.0581 122.275C48.0851 122.315 48.1121 122.369 48.1392 122.41C48.1527 122.464 48.1798 122.505 48.1798 122.559C48.1933 122.613 48.1933 122.667 48.1933 122.721C48.1933 122.775 48.1933 122.829 48.1798 122.883C48.1662 122.937 48.1527 122.991 48.1392 123.032C48.1121 123.086 48.0986 123.127 48.0581 123.167C48.031 123.208 47.9904 123.248 47.9499 123.289C47.8011 123.451 47.5983 123.532 47.3819 123.532Z" fill="black"/>
<path d="M45.5869 137.568C45.357 137.568 45.1271 137.474 44.9648 137.271C44.6809 136.933 44.7214 136.419 45.073 136.135C47.2771 134.296 48.8187 133.85 50.1709 133.444C51.6178 133.012 52.7536 132.673 54.5251 130.686C54.8225 130.348 55.3364 130.321 55.6744 130.618C56.0125 130.916 56.0395 131.429 55.7421 131.767C53.6596 134.107 52.1857 134.54 50.6307 135.013C49.3596 135.391 48.0479 135.784 46.1007 137.393C45.952 137.514 45.7762 137.568 45.5869 137.568Z" fill="black"/>
<path d="M63.0952 134.959C62.7977 134.959 62.5679 134.729 62.5543 134.431L62.4732 131.578C62.4597 131.281 62.7031 131.037 63.0006 131.024C63.298 131.024 63.5414 131.254 63.555 131.551L63.6361 134.404C63.6496 134.702 63.4062 134.945 63.1087 134.959H63.0952Z" fill="black"/>
<path d="M20.0002 114.838C19.9326 114.838 19.865 114.824 19.7974 114.797C19.5134 114.689 19.3782 114.378 19.4864 114.094C21.3525 109.321 25.3415 106.535 26.7343 105.872C27.0047 105.737 27.3293 105.859 27.451 106.129C27.5862 106.4 27.4645 106.724 27.1941 106.846C26.0041 107.427 22.2179 110.064 20.487 114.486C20.4194 114.716 20.2166 114.838 20.0002 114.838Z" fill="black"/>
</svg>
