<svg width="515" height="671" viewBox="0 0 515 671" fill="none" xmlns="http://www.w3.org/2000/svg">
<path d="M282.183 314.025C281.517 313.992 281.184 313.976 280.531 313.604C278.573 312.488 277.668 310.066 278.749 308.081C278.749 308.081 284.22 296.462 278.283 286.319C276.087 282.814 273.143 281.31 269.546 279.434C265.297 277.186 260.728 274.583 256.934 269.301C253.153 263.68 252.703 258.222 251.907 253.088C250.913 244.547 250.117 239.413 236.207 236.689C233.889 236.235 232.638 234.135 233.065 231.778C233.493 229.421 235.546 228.164 237.865 228.618C257.73 232.655 258.989 242.907 259.956 252.126C260.446 256.566 260.95 260.667 263.466 264.528C265.982 268.388 269.246 270.248 273.175 272.14C277.092 274.371 281.674 276.635 284.802 281.885C293.255 295.889 285.983 310.816 285.623 311.477C285.208 313.495 283.849 314.107 282.183 314.025Z" fill="black"/>
<path d="M331.871 301.29C330.53 301.224 329.552 300.496 328.923 299.444C328.615 298.749 317.181 282.538 319.866 265.995C320.797 259.575 324.328 255.323 327.509 251.394C330.342 247.789 333.161 244.524 334.024 239.802C334.914 234.4 334.101 229.596 332.953 224.776C330.978 215.492 328.736 204.494 344.526 196.075C346.578 195.154 348.911 195.608 349.834 197.695C350.757 199.782 350.325 202.143 348.273 203.064C337.621 209.01 338.769 213.83 340.744 223.114C341.865 228.614 342.972 234.453 341.678 241.536C340.384 248.619 336.518 252.854 333.336 256.783C330.517 260.048 328.047 262.991 327.198 267.373C324.986 280.537 334.827 294.628 334.813 294.968C336.085 296.731 335.64 299.432 333.909 300.709C333.547 301.371 332.876 301.339 331.871 301.29Z" fill="black"/>
<path d="M479.732 604.992C467.331 598.619 447.497 594.929 420.028 573.916C378.659 542.389 366.967 468.264 382.386 432.42C390.814 413.177 399.94 384.818 390.723 348.776C381.784 314.103 367.089 298.465 341.739 291.114C312.454 282.213 284.618 295.414 274.76 325.432C267.54 347.784 271.674 369.34 284.634 395.061C296.054 417.654 308.117 432.485 309.689 468.15C316.439 599.31 129.577 608.396 13.8901 611.502C7.56134 611.529 3.92678 619.145 8.75032 623.45C18.6757 633.429 45.1661 645.582 81.8089 645.356C146.093 645.137 148.133 635.748 199.509 633.537C250.206 631.631 266.128 641.568 331.131 640.029C389.792 638.855 452.779 629.421 476.581 625.511C481.94 624.759 485.799 619.865 485.682 614.437C485.831 610.716 483.321 606.864 479.732 604.992Z" fill="#8CC800"/>
<path d="M73.3379 649.689C41.4289 648.115 16.8782 637.414 5.98248 626.708C2.78024 623.5 1.62636 619.036 3.11805 615.043C4.62326 610.711 9.06591 607.879 13.7328 607.771C87.7387 605.998 225.765 602.299 281.155 541.31C298.917 521.85 307.216 497.516 305.706 468.632C304.168 440.424 296.426 425.806 287.117 408.739C285.271 404.919 283.079 401.422 280.915 397.248C266.72 369.093 263.623 346.571 270.498 324.539C280.742 293.184 310.335 277.697 342.252 287.406C369.903 295.549 384.849 313.233 393.788 347.907C403.63 384.998 393.772 415.017 385.343 434.26C371.402 466.449 380.795 539.785 421.514 570.942C440.903 585.795 456.973 592.011 468.445 596.644C473.031 598.565 476.965 600.115 480.567 601.649C485.791 604.279 488.912 609.517 489.015 615.284C489.05 622.742 483.807 628.924 476.76 630.271C452.625 634.164 389.969 643.615 330.975 644.772C297.309 645.484 276.423 643.098 257.85 641.165C240.274 639.281 223.695 637.447 199.35 638.28C176.999 639.211 164.26 641.294 150.843 643.683C134.408 646.6 117.294 649.823 81.3287 649.744C79.002 649.629 76.3294 649.836 73.3379 649.689ZM326.72 292.741C304.782 291.658 285.947 304.626 278.726 326.979C272.251 347.335 275.124 367.135 288.39 393.549C290.568 397.385 292.413 401.204 294.272 404.686C303.582 421.753 312.267 437.773 314.056 468.027C315.485 498.941 306.773 525.288 287.613 546.374C230.121 609.971 89.7681 613.555 14.4327 615.262C12.4384 615.163 11.3872 616.467 11.0143 617.466C10.6549 618.126 10.6143 619.141 11.9033 620.221C22.1613 630.218 48.7062 641.017 82.3447 640.982C117.645 641.028 134.427 637.789 150.53 634.855C163.614 632.45 177.031 630.061 200.047 629.163C225.071 628.024 241.636 630.197 259.544 632.097C278.769 634.401 298.671 636.4 331.672 635.655C390.334 634.481 452.325 624.998 476.46 621.105C479.811 620.592 482.259 617.662 482.062 614.263C482.17 611.557 480.602 609.107 478.316 607.977C475.046 606.46 471.444 604.927 466.858 603.006C454.722 598.34 438.333 591.77 417.973 576.191C373.361 542.469 363.784 465.396 379.19 429.889C387.632 410.307 396.039 383.268 387.087 348.932C378.704 316.997 365.671 301.441 340.985 294.122C335.667 293.86 331.373 292.97 326.72 292.741Z" fill="black"/>
<path d="M287.168 351.905C287.168 351.905 302.719 396.04 345.957 380.554C395.286 362.657 380.04 319.215 380.054 318.876L287.168 351.905Z" fill="black"/>
<path d="M303.874 111.021C328.187 86.4353 370.373 98.3568 379.788 129.697C392.164 170.343 353.637 200.335 319.182 186.759C287.64 175.363 279.351 132.543 303.874 111.021Z" fill="white"/>
<path d="M333.869 192.579C328.547 192.316 323.265 191.038 318.011 189.082C302.233 183.553 291.118 169.773 287.788 152.984C284.459 136.194 289.778 119.832 302.2 109.249C314.01 97.278 331.19 92.6975 348.02 96.921C364.85 101.144 377.696 113.314 382.396 129.153C387.973 148.089 383.557 166.871 370.043 179.775C360.032 188.442 347.175 193.236 333.869 192.579ZM337.546 100.475C325.571 99.8844 314.072 104.067 305.723 112.815C295.019 122.126 290.1 136.812 293.178 151.553C296.242 166.633 306.095 178.655 320.223 183.763C335.973 189.969 354.098 186.792 366.56 175.193C378.689 163.577 382.664 147.488 377.353 130.261C373.25 116.148 361.667 105.737 346.833 101.612C343.52 101.11 340.54 100.623 337.546 100.475Z" fill="black"/>
<path d="M151.594 111.07C172.346 58.8218 242.802 47.3694 278.826 88.5078C321.538 137.441 286.942 219.205 220.646 218.308C164.676 217.582 130.672 159.238 151.594 111.07Z" fill="white"/>
<path d="M216.89 220.835C191.607 219.587 169.458 206.618 155.659 184.9C141.234 162.132 138.684 134.182 148.985 109.921C158.995 84.6266 181.376 66.7295 208.898 61.9802C236.088 57.2145 263.043 66.6883 280.583 86.5557C301.301 110.312 305.978 143.457 292.439 173.667C279.259 203.215 251.529 221.527 220.217 221C219.219 220.95 218.221 220.901 216.89 220.835ZM226.727 66.2533C221.072 65.9742 215.722 66.3888 210.026 67.1256C184.513 71.6348 163.517 88.243 154.241 111.877C144.672 134.478 146.971 160.379 160.451 181.743C173.945 202.768 195.788 215.044 220.779 215.259C249.762 215.672 275.762 198.971 287.876 171.066C300.322 143.178 296.23 112.098 276.775 90.1004C264.009 75.8976 246.022 67.2057 226.727 66.2533Z" fill="black"/>
<path d="M225.517 24.8745C199.977 29.3369 182.203 48.7631 177.082 60.3616C176.722 61.021 173.11 59.4822 173.15 58.4677C174.711 43.9778 193.197 14.7621 222.787 9.15017C226.811 8.67694 228.874 24.3674 225.517 24.8745Z" fill="black"/>
<path d="M281.071 56.4402C300.983 58.8041 315.779 72.7495 320.444 81.4443C320.764 81.7989 323.478 80.5833 323.171 79.8911C321.273 68.6301 305.101 47.1715 282.207 44.3181C278.879 44.1492 278.422 55.9675 281.071 56.4402Z" fill="black"/>
<path d="M278.925 450.073C309.558 500.77 291.261 550.07 265.174 569.135C257.974 574.207 229.497 586.37 229.497 586.37C229.497 586.37 211.635 599.735 174.476 604.007C147.361 607.079 122.104 597.013 98.0529 573.438C70.4918 545.959 49.6952 465.896 116.575 418.316C172.794 379.028 245.488 394.488 278.925 450.073Z" fill="#E62828"/>
<path d="M254.309 449.696C253.313 449.647 252.33 449.261 251.375 448.2C233.889 428.083 208.707 417.387 180.077 418.009C177.74 418.232 176.148 416.464 175.91 414.087C176.005 411.727 177.401 410.106 179.738 409.883C210.705 409.037 238.502 420.876 257.249 442.745C258.841 444.512 258.414 446.857 257.018 448.477C256.314 449.457 255.304 449.745 254.309 449.696Z" fill="#FF5A5A"/>
<path d="M114.707 452.19C113.378 452.124 112.408 451.399 111.452 450.337C99.5729 431.132 81.7084 420.096 61.1131 419.081L60.7809 419.065C58.4557 418.95 56.8623 417.179 56.9569 414.814C57.0516 412.449 58.7801 410.841 61.1054 410.956L61.4376 410.972C84.6903 412.117 104.826 424.62 118.285 445.934C119.546 447.689 118.774 450.359 117.059 451.628C116.367 452.271 115.703 452.239 114.707 452.19Z" fill="black"/>
<path d="M162.301 607.822C137.024 606.574 109.106 596.376 87.014 565.435C69.9868 541.188 63.8188 512.05 69.9835 482.842C76.5483 451.958 96.2814 425.115 123.91 409.179C165.181 385.435 229.811 385.911 266.45 428.086C293.211 458.919 311.737 512.413 275.772 561.86C274.374 563.487 272.019 564.049 270.078 562.597C268.469 561.16 267.898 558.758 269.31 556.792C302.452 511.276 286.384 462.992 260.58 433.224C226.812 394.243 166.838 393.997 127.964 416.163C102.052 430.828 83.73 455.704 77.5924 484.235C71.8549 511.09 77.439 538.164 93.2169 560.313C128.255 609.194 179.533 601.888 206.878 593.061C240.97 582.192 254.138 544.51 249.741 512.745C246.152 485.77 228.33 456.396 190.082 454.508L189.75 454.492C161.147 453.08 136.798 478.677 134.549 501.633C133.289 516.496 141.301 532.835 154.626 541.295C161.767 546.057 176.864 551.89 194.977 540.572C201.472 536.483 206.08 529.587 207.735 521.527C209.016 514.467 207.304 507.259 203.516 501.983C198.452 495.288 191.894 492.59 185.481 494.648C179.413 496.384 175.206 501.604 174.976 507.359C174.881 509.729 172.818 511.324 170.823 511.225C168.494 511.11 166.913 508.997 166.994 506.965C167.691 497.841 174.348 489.689 183.45 487.085C193.23 484.175 203.073 488.053 210.371 497.233C215.754 504.284 217.704 513.878 216.328 523.308C214.592 533.399 208.573 542.261 200.029 547.606C183.964 557.668 166.297 557.814 151.349 548.257C135.431 537.973 125.85 519.182 127.578 500.949C129.99 473.931 157.8 445.113 191.072 446.415L191.404 446.432C226.991 448.188 253.623 473.926 258.774 511.834C263.715 546.679 248.376 588.663 210.226 601.028C197.412 604.805 180.593 608.724 162.301 607.822Z" fill="black"/>
<path fill-rule="evenodd" clip-rule="evenodd" d="M149.036 397.967C159.003 373.696 147.831 343.615 145.819 343.853C143.127 344.397 120.803 351.762 106.236 365.623C88.551 382.382 84.9012 407.309 102.655 414.306C127.3 424.363 141.667 415.582 149.036 397.967Z" fill="#B4E100"/>
<path d="M119.764 421.266C114.433 420.999 108.476 419.683 101.572 416.962C94.6681 414.241 90.2163 408.589 88.8297 401.394C86.6163 389.747 92.8788 374.792 104.326 363.829C119.238 349.646 142.573 341.993 144.932 341.433C145.598 341.466 146.945 341.194 148.224 342.616C151.73 346.863 160.954 375.488 151.348 399.097C146.897 410.41 137.423 422.151 119.764 421.266ZM145.053 346.868C139.309 348.616 120.665 355.825 108.191 367.415C97.7968 377.074 92.267 390.369 94.2137 400.307C95.3337 405.792 98.5192 409.683 103.77 411.982C124.468 420.484 139.021 415.445 146.75 397.17C154.904 376.542 147.505 352.42 145.053 346.868Z" fill="black"/>
<path d="M182.602 462.102C181.265 462.037 180.29 461.309 180.01 459.934C179.437 457.526 178.878 454.777 178.318 452.029C176.906 445.497 175.535 437.947 173.734 432.757C173.455 431.383 174.191 429.718 175.542 429.445C176.893 429.171 178.537 429.932 178.816 431.306C180.604 436.835 181.975 444.385 183.373 451.256C183.932 454.005 184.492 456.753 185.065 459.162C185.344 460.536 184.608 462.201 182.923 462.458C182.936 462.119 182.602 462.102 182.602 462.102Z" fill="black"/>
<path d="M163.8 467.371C162.801 467.322 161.816 466.934 161.523 465.901C159.048 461.024 153.738 451.931 150.557 448.038C149.598 446.972 149.999 445.294 151.039 444.326C152.079 443.358 153.73 443.779 154.689 444.846C157.857 449.077 163.486 458.525 165.948 463.741C166.56 465.13 166.159 466.808 164.8 467.421C164.813 467.082 164.466 467.404 163.8 467.371Z" fill="black"/>
<path d="M237.526 488.693C236.529 488.644 235.878 488.273 235.254 487.226C234.643 485.841 235.043 484.166 236.4 483.556C239.804 481.691 244.577 478.877 249.351 476.063C254.125 473.249 258.899 470.435 262.303 468.57C263.659 467.96 265.307 468.38 265.918 469.765C266.528 471.15 266.129 472.825 264.772 473.435C261.368 475.3 256.594 478.114 251.82 480.928C247.047 483.742 242.273 486.556 238.869 488.42C238.204 488.388 237.858 488.71 237.526 488.693Z" fill="black"/>
<path d="M110.168 401.832C109.835 401.816 109.501 401.799 109.182 401.444C107.876 400.7 107.264 399.311 107.984 397.987C108.358 396.987 118.596 374.73 132.106 362.486C133.146 361.518 134.812 361.6 135.771 362.667C136.73 363.733 136.662 365.428 135.622 366.396C123.139 378.011 112.915 399.929 112.915 399.929C112.194 401.253 111.167 401.881 110.168 401.832Z" fill="black"/>
<g opacity="0.6">
<g opacity="0.6">
<g opacity="0.6">
<path opacity="0.6" d="M341.329 310.251C340.666 310.22 340.003 310.189 339.685 309.835C334.492 306.881 328.232 305.572 322.536 306.663C320.199 306.893 318.266 305.447 318.021 303.402C317.789 301.018 319.202 299.05 321.207 298.805C328.894 297.807 336.813 299.194 343.635 302.901C345.583 304.009 346.146 306.408 345.065 308.391C344.012 309.698 342.656 310.312 341.329 310.251Z" fill="#B4E100"/>
</g>
</g>
</g>
<path d="M217.569 483.785C216.573 483.736 215.59 483.35 214.953 482.642C210.493 477.686 202.312 474.239 194.674 473.863C192.35 473.748 190.757 471.979 190.851 469.615C190.946 467.252 192.674 465.645 194.999 465.76C204.629 466.233 214.762 470.791 220.828 477.179C222.421 478.949 222.326 481.313 220.598 482.919C219.907 483.562 218.897 483.851 217.569 483.785Z" fill="#FF5A5A"/>
<path d="M232.828 521.281C232.163 521.25 231.831 521.235 231.181 520.865C230.863 520.51 230.199 520.479 229.896 519.785C229.26 519.075 228.971 518.042 229.014 517.024C229.057 516.006 229.432 515.004 230.14 514.017C231.541 512.383 234.198 512.507 235.787 514.281C236.119 514.296 236.105 514.635 236.091 514.975C236.076 515.314 236.408 515.329 236.394 515.669C236.38 516.008 236.712 516.023 236.697 516.363C236.683 516.702 236.669 517.041 236.669 517.041C236.626 518.059 236.25 519.061 235.225 519.693C234.878 520.017 234.532 520.341 233.853 520.649C233.839 520.989 233.16 521.297 232.828 521.281Z" fill="black"/>
<path d="M225.468 591.963C224.471 591.914 223.487 591.527 222.531 590.463C220.937 588.69 221.364 586.339 222.761 584.714C233.455 575.414 240.888 572.731 247.629 570.691C254.716 568.33 260.115 566.563 268.842 556.489C270.239 554.863 272.911 554.656 274.519 556.091C276.127 557.526 276.351 560.248 274.954 561.873C265.148 573.927 257.729 576.272 250.31 578.617C244.233 580.689 237.824 582.745 228.5 591.096C227.475 591.723 226.465 592.012 225.468 591.963Z" fill="black"/>
<path d="M443.161 611.932C442.829 611.916 442.497 611.899 442.165 611.883C425.429 605.983 412.081 598.557 404.062 591.055C402.455 589.622 402.231 586.904 403.96 585.296C405.356 583.673 408.026 583.466 409.62 585.237C416.67 592.014 429.38 598.732 444.801 604.229C446.767 605.002 448 607.432 447.255 609.426C446.537 610.744 445.154 612.03 443.161 611.932Z" fill="#B4E100"/>
<path d="M342.161 381.433C373.408 374.169 368.871 362.771 368.871 362.771C365.433 357.184 355.31 352.284 347.88 354.965C345.514 355.865 342.47 357.069 341.366 359.723C340.647 361.042 340.274 362.04 336.952 361.876C334.627 361.762 331.969 361.631 329.949 362.208C325.576 363.347 315.407 367.925 321.91 380.097C322.453 383.171 327.436 383.416 327.755 383.771C329.111 383.16 338.121 382.588 342.161 381.433Z" fill="#E62828"/>
<path d="M374.372 358.681C366.324 360.313 357.916 362.603 349.163 365.215C335.018 369.589 321.854 374.349 310.669 379.544C319.788 384.384 331.38 385.629 345.884 380.596C360.403 375.227 369.359 367.557 374.372 358.681Z" fill="white"/>
<path d="M381.987 329.759C380.875 324.291 381.315 321.606 379.831 317.135C379.831 317.135 379.831 317.135 379.844 316.797L288.927 351.908C288.927 351.908 288.927 351.908 288.914 352.246C289.788 355.334 290.982 358.776 292.161 362.556C304.876 360.813 319.664 357.142 334.852 351.8C362.171 342.656 375.115 335.173 381.987 329.759Z" fill="white"/>
<path d="M310.588 381.89C309.593 381.842 308.942 381.472 308.319 380.428C307.709 379.047 308.427 377.73 309.45 377.105C309.782 377.121 342.977 362.196 372.473 356.549C373.815 356.277 375.115 357.016 375.393 358.381C375.671 359.746 374.953 361.062 373.612 361.334C344.447 366.998 311.943 381.281 311.598 381.602C311.252 381.923 310.92 381.907 310.588 381.89Z" fill="black"/>
<path d="M326.512 386.042C296.935 384.584 285.217 352.832 284.898 352.477C284.593 351.784 284.62 351.108 284.979 350.448C285.339 349.788 285.685 349.466 286.363 349.161L379.254 316.129C380.597 315.856 381.913 316.26 382.191 317.629C382.177 317.967 388.772 336.252 380.386 354.475C374.555 367.064 363.196 376.33 346.974 382.307C339.195 385.312 332.494 386.337 326.512 386.042ZM290.189 353.416C294.171 362.083 309.666 390.972 345.142 378.151C385.684 363.546 380.653 331.107 378.346 322.184L290.189 353.416Z" fill="black"/>
<path d="M97.435 480.567C97.1021 480.55 96.7692 480.534 96.7692 480.534C95.4509 480.129 94.5196 478.385 95.2397 477.063C103.872 453.039 123.127 438.709 129.949 434.97C131.308 434.358 132.959 434.779 133.571 436.168C134.183 437.556 133.782 439.234 132.423 439.847C126.627 442.956 108.398 456.658 100.499 479.02C99.7929 480.004 98.7669 480.632 97.435 480.567Z" fill="black"/>
<path d="M246.635 173.942C252.557 192.554 231.6 216.624 203.639 207.441C178.977 199.1 184.518 168.841 196.191 160.257C228.111 137.068 242.465 161.523 246.635 173.942Z" fill="#FA961E"/>
<path d="M202.082 186.355C202.077 194.833 209.468 201.641 218.792 201.762C228.116 201.883 235.715 195.136 236.04 187.013C236.045 178.535 228.654 171.727 219.33 171.606C209.673 171.468 202.074 178.215 202.082 186.355Z" fill="#1D1E1C"/>
<path d="M215.758 203.654C211.435 203.441 207.18 201.535 203.962 198.662C200.426 195.435 198.273 190.92 198.449 186.519C198.611 182.457 200.104 178.46 203.232 175.223C206.706 171.663 212.122 169.556 217.442 169.819C227.765 169.989 236.114 177.863 236.069 187.358C235.879 192.097 234.041 196.416 230.248 199.62C226.787 202.841 222.064 204.304 217.062 204.397C216.756 203.703 216.091 203.67 215.758 203.654ZM218.624 173.608C218.291 173.592 217.959 173.575 217.626 173.559C213.303 173.345 209.231 175.18 206.117 178.079C203.694 180.333 202.575 183.331 202.44 186.716C202.305 190.101 203.832 193.568 206.731 196.086C209.629 198.603 213.233 200.138 217.224 200.334C221.215 200.531 224.94 199.019 228.041 196.459C230.81 193.882 232.262 190.901 232.41 187.178C232.362 180.052 226.273 173.986 218.624 173.608Z" fill="#1D1E1C"/>
<path d="M234.86 168.877C236.361 173.023 234.176 177.666 230.116 179.162C226.057 180.658 221.48 178.397 219.979 174.251C218.478 170.105 220.663 165.462 224.723 163.966C228.783 162.47 233.359 164.732 234.86 168.877Z" fill="white"/>
<path d="M219.874 151.581C235.15 153.014 246.945 166.49 245.645 182.374C244.357 197.919 231.216 209.825 215.607 208.376C200.331 206.943 188.536 193.467 189.837 177.583C191.124 162.038 204.585 150.487 219.874 151.581ZM220.41 146.518C202.14 144.938 186.256 158.744 184.847 177.337C183.438 195.93 197.121 212.214 215.391 213.794C233.661 215.374 249.545 201.568 250.954 182.975C252.03 164.366 238.347 148.082 220.41 146.518Z" fill="#1D1E1C"/>
<path d="M344.71 163.031C347.95 173.708 336.074 187.37 320.284 182.181C306.144 177.412 309.494 160.275 316.03 155.17C334.213 142.158 342.333 155.789 344.71 163.031Z" fill="#FA961E"/>
<path d="M319.458 170.28C319.268 175.018 323.775 178.971 329.096 179.234C334.416 179.496 338.901 175.648 338.758 170.893C338.947 166.154 334.44 162.201 329.12 161.939C323.799 161.676 319.328 165.186 319.458 170.28Z" fill="#1D1E1C"/>
<path d="M326.975 179.813C324.315 179.681 322.028 178.551 320.1 176.76C318.172 174.969 316.937 172.534 317.045 169.826C317.139 167.456 317.899 165.12 319.962 163.526C322.038 161.593 325.085 160.387 328.078 160.534C334.078 160.491 338.89 165.138 338.674 170.554C338.566 173.262 337.473 175.582 335.397 177.515C333.321 179.447 330.62 180.332 327.959 180.2C327.64 179.845 327.308 179.829 326.975 179.813ZM328.662 162.598C328.33 162.582 328.33 162.582 327.997 162.566C325.669 162.451 323.301 163.351 321.571 164.962C320.186 166.25 319.454 167.91 319.373 169.941C319.292 171.972 320.222 173.714 321.83 175.15C323.439 176.586 325.74 177.377 327.735 177.476C330.063 177.591 332.099 176.674 333.815 175.402C335.532 174.13 336.278 172.132 336.36 170.101C336.508 166.377 332.972 163.15 328.662 162.598Z" fill="#1D1E1C"/>
<path d="M337.858 160.257C338.754 162.679 337.642 165.346 335.274 166.255C332.906 167.165 330.292 166.023 329.396 163.602C328.5 161.18 329.612 158.513 331.98 157.604C334.362 156.355 336.962 157.836 337.858 160.257Z" fill="white"/>
<path d="M329.215 150.394C337.851 151.16 344.54 158.955 343.856 167.743C343.171 176.532 335.569 183.282 326.933 182.516C318.297 181.751 311.608 173.956 312.292 165.167C312.976 156.379 320.579 149.628 329.215 150.394ZM329.669 147.363C319.37 146.515 310.383 154.554 309.631 165.036C308.879 175.518 316.845 184.733 327.144 185.581C337.443 186.428 346.431 178.389 347.182 167.907C347.934 157.426 339.969 148.21 329.669 147.363Z" fill="#1D1E1C"/>
<path d="M182.565 215.242C179.681 229.27 215.238 238.8 239.732 233.607C264.227 228.415 294.9 201.598 283.584 193.274C277.435 188.919 273.09 197.813 249.472 206.086C208.679 219.578 185.423 201.887 182.565 215.242Z" fill="#8CC800"/>
<path d="M220.572 237.73C205.295 236.969 190.496 232.519 183.774 225.77C179.617 221.511 179.444 217.451 180.215 214.789C181.876 206.432 189.834 207.166 199.784 207.999C210.731 208.881 227.297 210.719 248.221 203.321C258.677 199.791 265.147 196.062 269.917 193.261C276.041 189.852 280.133 187.355 284.65 190.956C287.559 193.127 288.754 196.562 287.944 200.235C285.445 212.94 260.069 231.932 239.929 236.331C234.229 237.397 227.215 238.061 220.572 237.73ZM192.942 212.722C187.296 212.441 185.609 213.032 185.17 215.711C184.758 217.716 185.343 219.771 187.269 221.555C195.584 230.071 220.692 234.698 238.813 230.874C258.276 226.779 280.942 209.002 282.67 198.96C283.095 196.618 282.125 195.894 281.488 195.187C279.548 193.74 278.193 194.348 272.4 197.773C267.299 200.558 260.497 204.27 249.696 208.121C227.429 215.79 210.199 213.919 198.92 213.02C196.928 212.92 194.603 212.805 192.942 212.722Z" fill="black"/>
<path d="M370.134 180.688C375.538 187.025 361.1 198.783 346.704 201.102C332.64 203.438 308.298 196.498 311.355 186.535C313.281 179.887 319.124 183.549 333.414 183.922C356.999 184.756 365.049 174.704 370.134 180.688Z" fill="#8CC800"/>
<path d="M338.29 204.413C327.995 203.901 316.16 200.274 311.392 194.637C308.536 191.12 308.656 188.089 309.082 185.747C311.008 179.093 316.641 179.711 323.601 180.395C326.245 180.864 329.898 181.046 333.883 181.244C345.187 181.469 352.586 179.475 358.312 177.735C364.037 175.995 368.753 174.542 372.246 178.766C374.159 180.886 374.384 183.597 373.6 186.595C370.982 193.89 359.026 201.733 347.628 203.865C344.613 204.39 341.279 204.562 338.29 204.413ZM318.075 185.52C315.086 185.371 314.395 186.012 313.996 187.679C313.637 188.336 313.584 189.684 315.178 191.451C319.96 196.751 336.099 200.929 346.487 199.084C356.875 197.238 366.798 190.307 368.659 185.337C369.044 184.006 368.739 183.316 368.42 182.963C367.145 181.549 365.471 181.803 360.078 183.56C354.684 185.317 346.276 187.598 333.975 187.323C329.658 187.109 326.018 186.59 323.029 186.441C320.731 185.652 319.403 185.586 318.075 185.52Z" fill="black"/>
<path d="M330.718 400.257C327.73 400.111 324.756 399.627 322.128 398.823C320.814 398.42 319.872 397.023 320.272 395.354C320.658 394.021 322.026 393.075 323.673 393.494C336.815 397.516 362.035 390.647 369.413 380.875C370.463 379.575 372.122 379.656 373.091 380.379C374.378 381.456 374.311 383.142 373.606 384.12C366.561 393.909 346.319 401.023 330.718 400.257Z" fill="black"/>
</svg>
