<svg width="141" height="129" viewBox="0 0 141 129" fill="none" xmlns="http://www.w3.org/2000/svg">
<path d="M39.0737 39.4752C41.577 39.5076 44.1661 39.4708 46.6032 40.1228C48.8937 40.6808 51.0571 41.6952 53.0574 42.7706C55.135 43.8542 57.1187 45.0845 59.1107 46.2373C61.2493 47.4841 63.421 48.4211 65.9408 48.2986C67.2049 48.1986 66.8613 46.2818 65.5972 46.3818C63.1548 46.5126 60.8087 45.0086 58.825 43.7783C56.833 42.6255 54.9185 41.481 52.9183 40.4056C50.9872 39.416 48.9622 38.573 46.8183 38.109C44.3729 37.5345 41.8696 37.5021 39.2888 37.4614C38.0247 37.5614 37.8179 39.4978 39.0737 39.4752Z" fill="black"/>
<path d="M128.115 68.3348C129.846 66.7963 127.073 61.9566 123.206 60.7601C94.9196 52.0202 61.6962 77.7695 64.6802 109.971C67.1062 101.927 73.6612 99.9635 78.3565 103.677C79.899 92.1694 84.4252 86.4642 96.5809 82.6707C108.737 78.8772 119.566 78.7022 119.566 78.7022L128.115 68.3348Z" fill="#364193"/>
<path d="M65.6953 96.0579C71.601 70.8376 99.1732 53.2583 123.282 60.7687C126.538 61.8215 129.117 65.5439 128.67 67.5328C128.559 67.8344 128.449 68.1359 128.192 68.3434L119.728 78.6416C119.728 78.6416 108.891 78.8941 96.7431 82.6101C86.0477 85.9329 81.2252 90.7447 79.1812 99.6135C78.8939 100.836 78.6675 102.222 78.4412 103.608C73.7459 99.8946 67.1909 101.858 64.7649 109.902C64.3319 105.156 64.6733 100.492 65.6953 96.0579ZM64.5501 95.7789C63.5033 100.446 63.1452 105.264 63.5783 110.011C63.5978 110.561 64.0987 111.006 64.6408 111.064C65.183 111.122 65.6891 110.785 65.9019 110.259C66.9961 106.616 69.1445 104.103 71.7388 103.284C73.7662 102.639 75.91 103.103 77.714 104.549C78.0765 104.822 78.4637 104.864 78.8675 104.75C79.1939 104.628 79.4676 104.266 79.5782 103.964L79.5864 103.887C79.7353 102.493 80.0309 101.193 80.3182 99.9699C82.3374 91.3335 86.8779 86.9616 97.0837 83.8215C108.991 80.1581 119.673 79.8891 119.751 79.8974C120.069 79.853 120.395 79.7312 120.66 79.4462L129.047 69.1398C129.398 68.7856 129.68 68.3457 129.815 67.8118C130.111 66.5117 129.596 64.7332 128.359 63.1127C127.122 61.4922 125.456 60.2176 123.708 59.7175C117.945 57.9269 111.957 57.5223 105.758 58.3486C99.8694 59.208 94.1747 61.1848 88.7514 64.2874C82.9078 67.6584 77.6454 72.1882 73.556 77.47C69.0464 83.0202 66.1136 89.2089 64.5501 95.7789Z" fill="black"/>
<path d="M82.8442 66.7896L80.6861 64.9924L77.8684 67.9032C77.9346 67.2836 79.8966 61.3829 77.1618 55.4505C73.4028 47.372 80.3607 51.1703 80.3607 51.1703C80.3607 51.1703 84.0535 59.8685 82.8442 66.7896Z" fill="#364193"/>
<path d="M83.6434 64.4467C83.6298 65.307 83.5471 66.0815 83.3787 66.9252C83.3538 67.1576 83.1824 67.2959 83.0109 67.4343C82.7703 67.4869 82.5379 67.4621 82.3996 67.2907L80.6731 65.8529L78.2923 68.3404C78.1125 68.5562 77.7945 68.6005 77.5704 68.4983C77.3463 68.396 77.2162 68.1471 77.2493 67.8373C77.2576 67.7598 77.2741 67.6049 77.3681 67.4583C78.4593 63.1096 78.1759 59.1625 76.5787 55.7801C75.2418 52.8955 75.0365 51.1502 75.9961 50.2343C77.3068 48.9642 80.1342 50.363 80.6515 50.6532C80.7981 50.7472 80.8673 50.8329 80.9365 50.9187C81.0583 51.245 83.9345 58.0542 83.6434 64.4467ZM82.3492 65.5619C82.978 59.6754 80.3424 52.8136 79.8469 51.5857C78.8039 51.0826 77.2879 50.6073 76.7736 51.0224C76.6021 51.1607 76.1239 51.9713 77.6684 55.1131C79.1354 58.2466 79.5377 61.8147 78.8751 65.8175L80.1941 64.47C80.4513 64.2624 80.7693 64.2181 81.0626 64.4061L82.3492 65.5619Z" fill="black"/>
<path d="M134.387 93.2114C135.422 104.054 135.238 115.315 134.942 124.684C134.863 126.164 136.484 127.12 137.615 126.066C139.962 123.888 143.095 118.034 143.54 109.465C144.345 94.5884 142.218 93.9695 142.4 82.0033C142.634 70.2778 145.053 66.6977 145.643 51.6417C146.153 38.0656 144.826 23.3532 144.243 17.8073C144.143 16.5433 143.141 15.6529 141.902 15.5205C140.964 15.4987 140.055 15.9499 139.576 16.7605C138.031 19.4939 136.829 24.1441 131.719 30.1786C124.016 39.2262 107 40.8555 99.1287 36.803C96.2848 35.5591 91.0278 31.2375 91.4188 34.1777C93.2962 48.8705 79.784 49.229 79.784 49.229C79.784 49.229 80.9986 41.5251 77.9675 34.6993C76.8298 32.1494 75.207 34.8745 72.2893 36.5213C69.355 38.3229 67.6022 40.7992 66.3779 44.1936C64.0233 50.8357 66.6837 57.4651 73.3702 60.1378C78.325 62.1554 83.3286 61.5148 89.3301 58.8657C94.5933 56.5294 98.1524 54.0111 106.213 54.0887C114.351 54.1746 120.266 57.4698 124.555 62.7848" fill="#8CC800"/>
<path d="M144.572 107.146C144.566 107.929 144.484 108.704 144.478 109.486C144.058 117.824 141.031 124.159 138.255 126.682C137.475 127.383 136.435 127.585 135.538 127.176C134.565 126.758 133.967 125.754 134.014 124.584C134.326 115.061 134.563 104.04 133.442 93.2669C133.414 92.7939 133.782 92.2848 134.255 92.257C134.728 92.2292 135.237 92.5969 135.265 93.0699C136.3 103.913 136.124 115.096 135.812 124.62C135.762 125.084 136.047 125.35 136.271 125.452C136.418 125.546 136.65 125.571 136.915 125.286C139.349 123.039 142.102 117.066 142.542 109.28C142.946 101.097 142.499 97.2112 142.044 93.4024C141.662 90.3847 141.296 87.2122 141.402 81.8183C141.472 76.0288 142.118 72.181 142.866 68.109C143.57 63.719 144.376 59.1049 144.645 51.4566C145.155 37.8805 143.811 23.323 143.228 17.7772C143.156 16.9861 142.517 16.3695 141.734 16.3642C141.115 16.298 140.531 16.6273 140.241 17.1447C139.848 17.8861 139.448 18.705 139.022 19.7563C137.795 22.4453 136.142 26.1856 132.29 30.7094C128.618 35.0174 122.653 38.0621 115.552 39.2621C109.097 40.296 102.737 39.695 98.582 37.5278C97.6856 37.1187 96.5817 36.4524 95.547 35.8719C94.5898 35.2996 92.9685 34.3431 92.2105 34.1054C92.7985 38.8684 91.9119 42.7689 89.498 45.5662C85.826 49.8742 80.0117 50.0365 79.7711 50.0892C79.5388 50.0644 79.2372 49.9538 79.0214 49.7741C78.8056 49.5943 78.7612 49.2763 78.786 49.0439C78.7943 48.9665 79.8983 41.564 77.0665 35.0729C76.8672 34.7383 76.8063 34.5752 76.7289 34.5669C76.4191 34.5338 75.5618 35.2256 75.0475 35.6407C74.3616 36.1941 73.5984 36.7393 72.7577 37.2762C70.1581 38.8786 68.43 41.1225 67.214 44.4394C64.9783 50.7025 67.6191 56.7815 73.6251 59.2248C78.1316 61.0379 82.7149 60.6657 88.8796 57.9557C89.7813 57.582 90.6912 57.1308 91.5153 56.7489C95.5587 54.8306 99.2758 53.0342 106.158 53.1426C114.063 53.2037 120.468 56.3162 125.164 62.223C125.51 62.6517 125.452 63.1938 125.023 63.5397C124.595 63.8856 124.052 63.8277 123.706 63.3991C119.356 57.9209 113.392 55.0904 106.114 55.018C99.6968 54.9593 96.237 56.5482 92.271 58.4747C91.4469 58.8566 90.537 59.3078 89.5496 59.7507C82.9728 62.6517 77.8391 63.0434 72.8844 61.0258C65.8963 58.2426 62.8126 51.1763 65.3965 43.8536C66.7313 40.1576 68.7331 37.5513 71.6673 35.7496C72.4223 35.2819 73.1856 34.7368 73.7857 34.2525C74.9776 33.3614 76.0063 32.5313 77.0741 32.802C77.7629 32.9539 78.2554 33.4765 78.6291 34.3782C81.0263 39.8045 80.8623 45.7405 80.5976 48.219C82.2737 47.928 85.6509 47.1137 87.9707 44.463C90.0334 42.0199 90.7847 38.6533 90.2246 34.3633C90.0998 33.3316 90.4675 32.8225 90.8878 32.5541C91.9857 31.8097 93.607 32.7662 96.4096 34.3972C97.4443 34.9778 98.4707 35.6358 99.2979 35.9592L99.3753 35.9674C103.16 37.9384 109.21 38.5063 115.192 37.5002C121.889 36.4137 127.442 33.5601 130.849 29.5371C134.443 25.2208 136.079 21.6354 137.298 19.0238C137.801 17.9809 138.211 17.0845 138.611 16.2656C139.278 15.1617 140.453 14.4256 141.77 14.5662C143.482 14.6708 144.829 15.9897 145.043 17.6576C145.617 23.2809 146.953 37.9158 146.426 51.6469C146.141 59.4501 145.318 64.2191 144.623 68.5317C143.96 72.5344 143.314 76.3823 143.183 82.0085C143.093 87.2475 143.407 90.1795 143.781 93.2746C144.424 96.7901 144.827 100.358 144.572 107.146Z" fill="black"/>
<path d="M145.246 51.6778C145.441 46.9201 145.334 42.0518 145.203 37.4158C141.868 40.0364 130.114 37.1358 129.476 32.8375C125.602 36.1056 120.217 38.1155 114.964 38.8862C115.982 39.6216 118.426 41.6844 117.957 46.8045C117.447 52.312 113.799 54.1941 112.889 54.6453C122.259 57.1345 127.661 65.2318 130.818 75.2828C130.928 74.9812 130.9 74.5082 130.812 73.8721C130.23 70.5197 139.155 67.6346 143.089 70.4049C143.937 65.4035 144.923 60.5736 145.246 51.6778Z" fill="#364193"/>
<path d="M112.968 54.6535C113.955 54.2106 117.534 52.2428 118.035 46.8128C118.069 46.5029 118.093 46.2706 118.126 45.9608C118.296 41.4354 115.992 39.5441 115.128 38.8252C120.381 38.0545 125.688 36.0363 129.64 32.7766C130.269 37.1523 141.954 39.9672 145.367 37.3549C145.507 41.9133 145.605 46.8591 145.41 51.6168C145.087 60.5127 144.093 65.42 143.253 70.3439C139.551 67.5984 131.124 70.2234 131.017 73.4238C131.001 73.5787 130.992 73.6562 131.053 73.8194C131.089 74.2149 131.134 74.533 131.1 74.8428C131.084 74.9977 131.067 75.1526 131.051 75.3075C127.739 65.24 122.329 57.2201 112.968 54.6535ZM109.485 54.9866L112.689 55.7987C120.611 57.8984 126.187 64.3692 129.77 75.5624L131.008 79.3765L132.119 75.5782C132.221 75.3542 132.246 75.1218 132.201 74.8037C132.243 74.4165 132.207 74.0209 132.101 73.5396C132.11 73.4622 132.11 73.4622 132.118 73.3848C132.168 72.92 132.801 72.1259 134.208 71.4146C136.681 70.2686 140.49 69.8138 142.449 71.2764L144.045 72.4653L144.338 70.4598C144.412 69.7627 144.556 69.1513 144.708 68.4625C145.395 64.2274 146.226 59.381 146.511 51.5777C146.656 47.2847 146.627 42.4247 146.476 37.2383L146.423 34.8042L144.537 36.3262C143.002 37.494 138.485 37.2465 134.805 35.7567C132.479 34.8032 130.96 33.6226 130.843 32.5134L130.533 30.2868L128.818 31.6704C125.373 34.5925 120.452 36.6521 114.959 37.4754L112.011 37.9439L114.41 39.6885C116.153 40.9714 117.03 43.0235 116.973 45.7592C116.948 45.9916 116.923 46.2239 116.89 46.5337C116.513 50.8019 113.966 52.645 112.472 53.4255L109.485 54.9866Z" fill="black"/>
<path d="M131.031 46.1641C130.946 46.2332 130.86 46.3024 130.774 46.3716C130.68 46.5182 130.594 46.5874 130.517 46.5792C130.346 46.7175 130.174 46.8559 130.097 46.8476C129.942 46.8311 129.795 46.737 129.579 46.5573C129.294 46.2919 129.148 46.1979 129.078 46.1121C128.484 45.8136 127.95 45.6782 127.314 45.767C126.918 45.8031 126.506 45.994 126.094 46.185C125.674 46.4535 125.322 46.8077 125.134 47.1009C124.844 47.6183 124.692 48.3071 124.585 49.314C124.427 50.7856 124.397 51.8008 124.433 52.1963C124.461 52.6693 124.583 52.9956 124.885 53.1062C125.039 53.1227 125.427 53.1641 126.055 53.1528C126.287 53.1777 128.705 53.2792 133.213 53.6041C134.693 53.6839 135.631 53.7057 135.957 53.5839C135.99 53.2741 136.057 52.6544 136.078 51.7167C136.161 50.9422 136.15 50.3143 136.2 49.8496C136.194 48.4389 136.061 47.4846 135.739 46.8236C135.41 46.2401 134.901 45.8724 134.151 45.5573C133.169 45.2174 132.052 45.4114 131.031 46.1641ZM128.048 50.624C127.437 50.4803 126.972 50.4307 126.809 50.4916C126.671 50.3202 126.532 50.1487 126.488 49.8306C126.435 49.59 126.46 49.3576 126.562 49.1335C126.689 48.6771 127.101 48.4861 127.799 48.5606C128.496 48.635 128.866 48.8313 129.143 49.1742C129.204 49.3374 129.257 49.578 129.301 49.8961C129.345 50.2142 129.243 50.4383 129.149 50.5849C128.978 50.7232 128.582 50.7593 128.048 50.624ZM134.26 48.9374C134.46 49.272 134.565 49.7533 134.413 50.4421C134.311 50.6662 133.993 50.7106 133.674 50.7549C133.597 50.7466 133.279 50.791 132.651 50.8023C132.023 50.8135 131.636 50.7722 131.489 50.6782C131.343 50.5842 131.29 50.3435 131.254 49.948C131.218 49.5525 131.32 49.3284 131.431 49.0268C131.627 48.6561 132.039 48.4651 132.83 48.393C133.527 48.4674 133.984 48.5945 134.26 48.9374Z" fill="#E62828"/>
<path d="M140.953 24.4276C140.944 24.505 140.928 24.66 140.919 24.7374C139.344 28.486 137.533 31.5044 135.7 33.267C135.349 33.6211 134.721 33.6324 134.375 33.2038C134.021 32.8526 134.009 32.2247 134.438 31.8788C136.092 30.332 137.8 27.5377 139.273 24.0132C139.478 23.5651 139.976 23.3049 140.501 23.5177C140.717 23.6974 140.994 24.0403 140.953 24.4276Z" fill="#B4E100"/>
<path d="M81.7247 52.3347C81.6916 52.6445 81.4262 52.9295 81.1164 52.8964C81.0389 52.8881 78.6213 52.7866 77.2377 51.0721C77.0302 50.8149 77.0715 50.4276 77.3287 50.2201C77.5859 50.0125 77.9732 50.0539 78.1807 50.3111C79.1409 51.5887 81.0938 51.6406 81.0938 51.6406C81.4811 51.682 81.6804 52.0166 81.7247 52.3347Z" fill="black"/>
<path d="M91.361 34.7198L90.8798 34.8251C89.6157 34.9251 87.7546 36.2147 87.5034 37.8329C87.4537 38.2976 87.3793 38.9947 87.7252 39.4233C87.9327 39.6805 87.9936 39.8437 87.6951 40.4385C87.4988 40.8092 87.2085 41.3266 87.0897 41.7056C86.9213 42.5493 86.7753 44.6488 89.1072 44.8195C90.8353 42.5757 91.8798 39.3971 91.361 34.7198Z" fill="#E62828"/>
<path d="M92.1489 37.624C92.0669 40.592 91.166 43.1593 89.6259 45.1099L89.4379 45.4031L89.1281 45.37C88.1987 45.2707 87.4489 44.9557 86.9647 44.3556C86.2037 43.4126 86.4218 42.1042 86.5572 41.5703C86.7008 40.9589 87.0851 40.2949 87.1873 40.0708C87.2731 40.0016 87.2813 39.9242 87.2896 39.8468L87.2204 39.761C86.8136 39.1692 86.8272 38.3089 86.8934 37.6893C87.1694 35.8387 89.2185 34.2559 90.8007 34.1115L91.9098 33.995L91.9986 34.6311C92.1234 35.6629 92.1707 36.6863 92.1489 37.624ZM88.7957 44.0812C90.4381 41.9065 91.0706 38.9189 90.8232 35.3673C89.869 35.5004 88.3424 36.5907 88.1243 37.8991C88.0664 38.4413 88.1025 38.8369 88.2409 39.0083C88.5785 39.5144 88.692 39.9182 88.222 40.6514C87.9483 41.0138 87.7438 41.462 87.719 41.6943C87.6859 42.0042 87.5091 42.9253 87.9159 43.5172C88.1152 43.8518 88.4085 44.0398 88.7957 44.0812Z" fill="black"/>
<path d="M81.384 34.9859C80.9606 34.549 79.5416 34.6324 78.2693 34.8099L78.0287 34.8625C80.9906 41.6025 79.7843 49.229 79.7843 49.229C79.7843 49.229 81.1175 49.2147 82.8185 48.6914L82.8268 48.6139C83.824 44.4119 82.4382 36.1169 81.384 34.9859Z" fill="white"/>
<path d="M83.8063 46.0549C83.7762 47.0701 83.6769 47.9995 83.5167 48.7658L83.5085 48.8432C83.4836 49.0756 83.3122 49.2139 83.0716 49.2666C81.2931 49.7816 79.8824 49.7876 79.8824 49.7876C79.7275 49.7711 79.4952 49.7463 79.4343 49.5831C79.2959 49.4116 79.235 49.2484 79.2515 49.0935C79.2598 49.0161 80.3638 41.6137 77.6095 35.1309C77.5486 34.9677 77.5651 34.8128 77.5816 34.6579C77.6756 34.5112 77.7696 34.3646 77.9328 34.3037L78.1735 34.2511C78.2509 34.2593 78.2509 34.2593 78.3366 34.1902C80.8813 33.8353 81.6228 34.2278 81.9769 34.579C82.8763 35.6934 83.968 41.607 83.8063 46.0549ZM82.3271 48.1687C83.1694 43.9501 81.7175 36.2747 80.9482 35.4092C80.9482 35.4092 80.5858 35.1354 78.9179 35.349C81.0745 40.8279 80.7029 46.5068 80.4878 48.5206C80.9608 48.4927 81.597 48.404 82.3271 48.1687Z" fill="black"/>
<path d="M101.556 61.033C113.434 54.7031 124.423 59.6369 128.441 66.0197C129.507 67.7786 131.926 74.4607 131.926 74.4607C131.926 74.4607 134.672 78.8275 135.164 87.4188C135.509 93.7226 132.936 99.4797 127.212 104.665C120.622 110.62 102.135 114.286 92.2682 98.1127C84.0043 84.5394 88.5187 67.9441 101.556 61.033Z" fill="#E62828"/>
<path d="M101.261 66.7202C101.236 66.9525 101.125 67.2541 100.877 67.3842C96.0924 71.1033 93.2949 76.7581 93.0565 83.3913L93.0482 83.4688C92.9903 84.0109 92.6391 84.3651 92.0886 84.3847C91.5465 84.3268 91.1923 83.9756 91.1728 83.4251L91.181 83.3477C91.4774 76.1723 94.4877 69.9919 99.7004 65.9268C100.129 65.5809 100.663 65.7163 101.017 66.0675C101.233 66.2472 101.286 66.4878 101.261 66.7202Z" fill="#FF5A5A"/>
<path d="M99.9197 99.0866C99.8866 99.3964 99.776 99.6979 99.4414 99.8972C94.9445 102.394 92.1659 106.405 91.6613 111.13C91.6034 111.672 91.1747 112.018 90.6326 111.96C90.0904 111.902 89.7445 111.474 89.8024 110.931C90.3732 105.587 93.4421 101.058 98.5225 98.2323C98.9429 97.9639 99.5459 98.1849 99.8144 98.6053C99.8753 98.7685 99.9362 98.9317 99.9197 99.0866Z" fill="black"/>
<path d="M135.916 88.4394C135.836 89.9192 135.671 91.4683 135.35 93.0008C134.016 98.8903 130.613 103.619 125.156 107.031C119.443 110.651 112.677 111.652 106.14 109.778C99.2244 107.786 93.4057 102.856 90.1257 96.1606C87.618 91.0359 86.7307 84.6742 87.6693 78.8208C88.6575 72.5028 91.7482 67.0359 96.2751 63.5243C100.631 60.151 105.706 58.108 110.745 57.8629C116.499 57.5374 122.09 59.4663 126.76 63.412C127.114 63.7632 127.211 64.3219 126.86 64.6761C126.509 65.0303 125.95 65.1273 125.596 64.7761C115.677 56.4313 104.55 59.3946 97.4512 64.9817C88.2176 72.2208 87.3564 86.151 91.8515 95.4049C94.8713 101.603 100.258 106.173 106.718 108.038C112.721 109.776 119.005 108.881 124.221 105.521C135.819 98.1428 134.745 86.1992 133.092 79.6773C131.045 71.7034 122.668 67.9885 115.402 68.544C109.244 68.9831 102.267 72.703 101.401 81.5409C100.698 88.1245 106.238 94.1998 111.402 94.9864C114.716 95.4971 118.571 93.8721 120.615 90.8785C121.726 89.2738 123.338 85.9208 120.988 81.518C120.138 79.9388 118.619 78.7582 116.862 78.3355C115.261 77.9294 113.662 78.2287 112.401 79.034C110.797 80.1161 110.167 81.6155 110.474 83.1368C110.798 84.5031 111.938 85.5649 113.247 85.783C113.789 85.8409 114.127 86.347 114 86.8035C113.942 87.3456 113.436 87.6833 112.979 87.5562C110.896 87.2553 109.186 85.6626 108.712 83.4969C108.178 81.1681 109.201 78.9272 111.396 77.4383C113.086 76.2871 115.235 75.9683 117.379 76.4323C119.67 76.9903 121.62 78.5304 122.738 80.5299C124.836 84.3575 124.63 88.4873 122.236 91.8351C119.739 95.4069 115.3 97.3612 111.22 96.6904C108.139 96.2045 105.059 94.2306 102.862 91.3324C100.526 88.2628 99.3413 84.6894 99.7136 81.204C100.177 76.8667 101.985 73.1429 105.079 70.575C107.839 68.2063 111.429 66.8663 115.453 66.5912C123.433 65.9551 132.784 70.0874 135.033 79.1013C135.543 81.6626 136.056 84.9292 135.916 88.4394Z" fill="black"/>
<path fill-rule="evenodd" clip-rule="evenodd" d="M88.072 90.4577C82.6413 87.7625 75.6742 89.9168 75.7795 90.3981C75.8682 91.0342 77.2668 96.2755 80.1806 99.7986C83.7945 104.101 89.305 105.317 91.215 101.369C93.841 95.8524 92.0115 92.4452 88.072 90.4577Z" fill="#B4E100"/>
<path d="M93.0116 97.0172C92.9402 98.4196 92.5341 100.021 91.7324 101.659C91.0165 103.228 89.6615 104.18 87.9936 104.393C85.294 104.732 82.0184 103.128 79.6663 100.214C76.6141 96.5191 75.1629 91.0372 75.0659 90.4785C75.0824 90.3236 75.0381 90.0055 75.3727 89.8062C76.3931 89.0535 83.0008 87.3308 88.2074 89.9237C90.44 91.0239 91.8484 92.5061 92.5101 94.3785C92.9695 95.2109 93.1109 96.0878 93.0116 97.0172ZM76.4518 90.7048C76.7841 91.9937 78.188 96.4522 80.6867 99.4609C82.7704 101.955 85.667 103.44 87.9628 103.215C89.2351 103.037 90.1698 102.354 90.6895 101.156C92.9146 96.4585 91.9454 93.0648 87.8509 91.0607C83.2391 88.7664 77.7655 90.1401 76.4518 90.7048Z" fill="black"/>
<path d="M103.148 83.5291C103.115 83.839 102.935 84.0548 102.617 84.0991C102.058 84.1961 101.499 84.2931 100.786 84.3736C99.2727 84.6037 97.6048 84.8172 96.3159 85.1495C95.9978 85.1939 95.6271 84.9976 95.5827 84.6795C95.5384 84.3615 95.7347 83.9907 96.0527 83.9464C97.3416 83.614 99.087 83.4088 100.6 83.1787C101.236 83.09 101.872 83.0012 102.354 82.896C102.672 82.8516 103.042 83.0479 103.078 83.4434C103.156 83.4517 103.156 83.4517 103.148 83.5291Z" fill="black"/>
<path d="M104.009 87.9297C103.984 88.162 103.882 88.3861 103.641 88.4387C102.49 88.9426 100.414 90.0524 99.4096 90.6503C99.1524 90.8578 98.7734 90.739 98.5659 90.4818C98.3584 90.2246 98.4772 89.8456 98.7344 89.6381C99.7465 88.9628 101.901 87.8612 103.137 87.2882C103.464 87.1664 103.843 87.2852 103.964 87.6116C103.956 87.6891 104.025 87.7748 104.009 87.9297Z" fill="black"/>
<path d="M109.873 71.1652C109.849 71.3976 109.746 71.6217 109.506 71.6743C109.179 71.7962 108.8 71.6773 108.679 71.351C108.297 70.5268 107.715 69.368 107.203 68.2949C106.622 67.1361 106.041 65.9773 105.659 65.1531C105.537 64.8268 105.656 64.4478 105.982 64.326C106.308 64.2042 106.687 64.323 106.809 64.6493C107.191 65.4735 107.773 66.6323 108.285 67.7054C108.866 68.8642 109.447 70.023 109.829 70.8472C109.898 70.9329 109.89 71.0103 109.873 71.1652Z" fill="black"/>
<path d="M88.4372 99.5053C88.4289 99.5828 88.4207 99.6602 88.3267 99.8069C88.1387 100.1 87.8123 100.222 87.519 100.034C87.295 99.9317 82.4064 97.2944 79.7858 93.9594C79.5783 93.7022 79.6197 93.3149 79.8768 93.1074C80.134 92.8998 80.5213 92.9412 80.7288 93.1984C83.1419 96.2763 88.0304 98.9135 88.1079 98.9218C88.3319 99.024 88.462 99.273 88.4372 99.5053Z" fill="black"/>
<path d="M108.456 75.6356C108.431 75.868 108.32 76.1695 108.149 76.3079C106.949 77.2764 106.045 79.1383 105.855 80.9197C105.797 81.4619 105.368 81.8078 104.826 81.7499C104.284 81.692 103.938 81.2633 103.996 80.7212C104.236 78.475 105.422 76.1733 106.965 74.928C107.393 74.5821 107.935 74.64 108.281 75.0686C108.428 75.1626 108.481 75.4033 108.456 75.6356Z" fill="#FF5A5A"/>
<path d="M117.158 72.6479C117.149 72.7254 117.141 72.8029 117.141 72.8029C117.133 72.8804 117.125 72.9579 117.047 72.9496C117.039 73.0271 116.961 73.0188 116.953 73.0963C116.945 73.1738 116.867 73.1656 116.859 73.243C116.851 73.3205 116.773 73.3122 116.687 73.3815C116.61 73.3732 116.602 73.4507 116.524 73.4424C116.447 73.4341 116.438 73.5116 116.361 73.5033C116.283 73.4951 116.206 73.4868 116.206 73.4868C116.128 73.4785 116.051 73.4702 116.051 73.4702C115.973 73.462 115.896 73.4537 115.904 73.3762C115.827 73.3679 115.835 73.2904 115.758 73.2821C115.68 73.2739 115.688 73.1964 115.611 73.1881C115.403 72.9308 115.281 72.6043 115.384 72.3801C115.392 72.3026 115.4 72.2251 115.478 72.2334C115.486 72.1559 115.563 72.1641 115.572 72.0866C115.58 72.0091 115.657 72.0174 115.666 71.9399C115.674 71.8624 115.752 71.8707 115.837 71.8015C115.915 71.8098 115.923 71.7323 116.001 71.7406C116.078 71.7488 116.086 71.6714 116.164 71.6796C116.241 71.6879 116.319 71.6962 116.319 71.6962C116.396 71.7045 116.474 71.7127 116.474 71.7127C116.551 71.721 116.629 71.7293 116.621 71.8068C116.698 71.8151 116.69 71.8925 116.767 71.9008C116.845 71.9091 116.836 71.9866 116.914 71.9949C116.991 72.0032 116.983 72.0807 117.052 72.1664C117.044 72.2439 117.122 72.2522 117.113 72.3297C117.105 72.4072 117.183 72.4155 117.174 72.4929C117.174 72.4929 117.166 72.5704 117.158 72.6479Z" fill="black"/>
<path d="M133.091 75.2903C133.066 75.5226 132.955 75.8242 132.706 75.9542C132.278 76.3001 131.744 76.1648 131.39 75.8136C129.392 73.2501 128.954 71.4799 128.5 69.8647C128.054 68.172 127.722 66.8831 125.519 64.7678C125.165 64.4166 125.146 63.8661 125.505 63.4345C125.856 63.0803 126.407 63.0608 126.838 63.4202C129.395 65.8868 129.841 67.5794 130.356 69.3579C130.749 70.8099 131.134 72.3395 132.847 74.6375C133.063 74.8173 133.116 75.0579 133.091 75.2903Z" fill="black"/>
<path d="M71.4825 36.7483C68.5535 37.7672 64.6989 41.5857 64.1807 47.1706C63.676 51.8952 65.9935 58.8014 72.68 61.474C75.5322 62.6404 81.1389 62.2209 82.873 61.3877C78.5988 59.5994 68.3533 51.3764 71.4825 36.7483Z" fill="#364193"/>
<path d="M83.4927 61.4539C83.4679 61.6863 83.3656 61.9103 83.125 61.963C81.3052 62.8653 75.4661 63.26 72.459 62.0771C69.3053 60.8002 66.732 58.4886 65.1793 55.4243C63.8867 52.8577 63.2716 49.8153 63.5529 47.1819C64.0794 41.5195 67.9754 37.3138 71.2999 36.2588C71.5405 36.2062 71.7729 36.231 71.9112 36.4024C72.0496 36.5739 72.188 36.7453 72.0857 36.9694C68.9813 51.3652 79.2516 59.3558 83.0777 60.9395C83.3875 60.9726 83.5258 61.1441 83.4927 61.4539C83.501 61.3764 83.4927 61.4539 83.4927 61.4539ZM64.7342 47.8564C64.6138 51.917 66.5937 58.3171 72.9012 60.8709C75.0037 61.7222 78.926 61.6711 81.1691 61.2057C78.8839 59.8649 76.0009 57.5202 73.7758 54.1491C71.5508 50.7779 69.2476 45.205 70.6005 37.6725C67.94 39.1117 65.1419 42.573 64.7312 47.151C64.7756 47.4691 64.759 47.624 64.7342 47.8564Z" fill="black"/>
<path d="M83.4937 61.4538C83.4606 61.7637 83.2726 62.0569 82.9628 62.0238C82.7221 62.0765 77.356 62.4433 73.1142 58.1517C72.9067 57.8946 72.8706 57.499 73.1278 57.2915C73.3849 57.084 73.7805 57.0479 73.988 57.305C77.8065 61.1597 82.777 60.8289 82.8545 60.8372C83.1726 60.7928 83.4576 61.0583 83.4937 61.4538C83.5019 61.3764 83.5019 61.3764 83.4937 61.4538Z" fill="black"/>
<path d="M106.105 103.508C106.097 103.585 106.088 103.663 106.08 103.74C105.97 104.042 105.558 104.233 105.264 104.045C99.8697 101.745 96.925 97.0436 96.1528 95.4727C96.031 95.1463 96.1498 94.7673 96.4761 94.6455C96.8025 94.5237 97.1815 94.6425 97.3033 94.9689C97.9372 96.3683 100.76 100.743 105.776 102.924C106 103.026 106.13 103.275 106.105 103.508Z" fill="black"/>
<path d="M54.0896 65.3635C58.8985 61.412 64.391 58.3952 70.2406 56.4349C71.4603 56.0168 70.6272 54.2827 69.4157 54.6233C63.3337 56.5588 57.7473 59.7223 52.7669 63.8122C51.9013 64.5814 53.1466 66.1245 54.0896 65.3635Z" fill="black"/>
<path d="M12.7876 64.0853C8.1531 68.6038 6.99345 75.0602 7.52279 78.1719C7.5837 78.3351 6.62117 78.5456 6.48281 78.3742C4.79167 75.1384 4.69481 66.511 10.1091 61.2924C10.8972 60.5148 13.4042 63.4461 12.7876 64.0853Z" fill="black"/>
<path d="M30.4214 88.2162C17.9951 85.0089 13.1023 69.2106 21.32 59.7479C30.9756 48.5586 50.5253 54.0153 52.4223 69.2586C54.0335 82.0429 41.8935 91.5567 30.4214 88.2162Z" fill="white"/>
<path d="M53.1139 72.3095C52.9025 77.2221 50.7714 81.773 46.8889 85.1185C42.2348 89.0866 35.9701 90.5325 30.1995 88.8195C24.18 87.2364 19.4208 82.6546 17.4936 76.4951C15.5664 70.3357 16.7952 63.965 20.7409 59.2945C25.3972 53.8383 32.8207 51.8111 39.9524 53.9829C47.0841 56.1547 52.029 61.9315 52.9027 69.1535C53.1049 70.1935 53.144 71.2943 53.1139 72.3095ZM17.8622 70.1109C17.8102 72.0638 18.0599 74.1272 18.705 76.1545C20.5187 81.9102 24.9154 86.2183 30.5559 87.6825C35.9476 89.2767 41.731 87.9361 46.1196 84.253C50.4307 80.5616 52.498 75.1422 51.7769 69.4249C50.9228 62.7534 46.3321 57.3278 39.7343 55.2914C33.0591 53.2466 26.1943 55.1768 21.82 60.1932C19.3369 62.9047 18.0186 66.4458 17.8622 70.1109Z" fill="black"/>
<path d="M52.8285 77.9194C56.0898 78.1895 57.0773 69.6779 55.1531 64.2238C53.1514 58.7614 46.1484 52.4515 44.5782 55.4172C43.7849 56.9776 45.9731 57.7597 48.5583 62.8927C53.0091 71.8285 49.7913 77.7517 52.8285 77.9194Z" fill="#8CC800"/>
<path d="M56.7477 71.2877C56.6378 73.7828 56.0798 76.0733 55.0789 77.3764C54.2578 78.4638 53.381 78.6051 52.7613 78.539C50.7393 78.4013 50.7055 76.5176 50.5581 74.2301C50.4356 71.7102 50.2988 67.8571 47.9738 63.2219C46.8113 60.9043 45.7818 59.541 45.0291 58.5205C44.0689 57.2429 43.3771 56.3856 44.0516 55.2043C44.4441 54.4629 45.1909 54.0726 46.0428 54.1636C48.9943 54.4005 54.0829 59.5659 55.7108 64.1267C56.5026 66.248 56.8492 68.8701 56.7477 71.2877ZM52.8854 77.3772C53.3501 77.4268 53.7705 77.1584 54.1382 76.6493C55.7806 74.4746 56.0221 68.5468 54.5768 64.4756C53.0015 60.1554 48.2506 55.4961 45.9188 55.3254C45.3766 55.2675 45.1969 55.4833 45.0946 55.7074C44.89 56.1556 45.0119 56.4819 45.9721 57.7595C46.8023 58.7883 47.8234 60.229 49.0551 62.6324C51.5102 67.5165 51.7079 71.5328 51.8222 74.1301C51.9447 76.65 52.1109 77.2944 52.8854 77.3772Z" fill="black"/>
<path d="M36.0081 79.1773C41.178 79.1811 45.4824 71.8855 40.8443 65.4365C36.7432 59.8282 29.5941 63.6865 28.4142 67.399C25.2226 77.4769 32.4814 79.1923 36.0081 79.1773Z" fill="#FA961E"/>
<path d="M27.6576 71.549C27.7042 70.3789 27.9306 68.993 28.4141 67.3996C29.5857 63.7646 36.7431 59.8288 40.8443 65.4371C42.3497 67.478 42.9091 69.5745 42.7798 71.5191C42.6428 75.7347 39.4574 79.1546 35.9306 79.1696C33.0318 79.1733 27.4439 77.9498 27.6576 71.549ZM26.41 71.494C26.2919 74.0665 27.0145 76.1021 28.5696 77.6783C30.9631 80.2057 34.6199 80.4396 36.0306 80.4337C38.0692 80.4164 40.0522 79.4532 41.6366 77.8207C43.1436 76.1799 44.0032 73.9999 44.0965 71.6598C44.1897 69.3196 43.431 66.8885 41.8564 64.7619C40.0134 62.2149 37.3161 61.0651 34.2901 61.5252C31.101 62.0463 28.1089 64.3902 27.2771 67.0431C26.7161 68.6283 26.4732 70.1691 26.41 71.494Z" fill="black"/>
<path d="M33.724 66.0867C35.8371 65.3723 38.1223 66.7131 38.9667 69.0751C39.7337 71.4288 38.7553 73.9877 36.6505 74.6246C34.5375 75.339 32.2523 73.9982 31.4078 71.6362C30.6409 69.2825 31.6884 66.8093 33.724 66.0867Z" fill="black"/>
<path d="M34.0207 69.1736C35.1908 69.2202 36.2278 68.3126 36.2744 67.1425C36.3211 65.9724 35.4134 64.9354 34.2434 64.8888C33.0733 64.8422 32.0363 65.7498 31.9897 66.9198C31.9347 68.1674 32.8506 69.1269 34.0207 69.1736Z" fill="white"/>
<path d="M15.1446 52.2734C15.5221 48.0052 13.3302 44.3243 11.7503 42.9805C11.6811 42.8947 12.0489 42.3857 12.1955 42.4797C14.3755 43.3392 18.1443 47.6586 17.7005 52.5464C17.6261 53.2435 15.1558 52.9013 15.1446 52.2734Z" fill="black"/>
<path d="M22.505 49.3775C16.1276 44.5445 17.5904 34.5169 24.2695 31.3918C33.0007 27.3892 41.0858 35.3031 39.0222 43.6215C37.5061 51.2149 28.1605 54.3685 22.505 49.3775Z" fill="white"/>
<path d="M39.9503 41.5273C39.9451 42.3101 39.7932 42.9989 39.633 43.7652C38.8403 47.519 36.1693 50.5239 32.4327 51.7699C28.7736 53.0241 24.8565 52.2923 22.0675 49.801C18.9521 47.4315 17.3963 43.6618 17.8265 39.6342C18.2485 35.6841 20.5653 32.3281 24.0169 30.8167C28.1378 28.9068 32.5443 29.4558 35.7816 32.1517C38.5871 34.4881 40.0985 37.9397 39.9503 41.5273ZM19.0522 40.6269C18.9371 43.9047 20.335 46.9525 22.8721 48.8686C25.3762 51.0944 28.7593 51.6908 32.0063 50.6276C35.3391 49.4952 37.7364 46.8528 38.4103 43.4779C38.5622 42.7891 38.6366 42.092 38.7028 41.4724C38.8096 38.272 37.4892 35.2325 34.9686 33.1615C32.0164 30.7311 28.1438 30.3175 24.4433 31.9589C21.3955 33.3568 19.3606 36.2729 18.9801 39.8358C19.0327 40.0764 19.0079 40.3088 19.0522 40.6269Z" fill="black"/>
<path d="M36.1085 32.0299C37.3583 30.5966 40.4849 33.594 41.479 36.7553C42.4731 39.9167 41.6977 45.7091 39.3132 45.2977C37.7724 45.0548 38.4026 43.5554 38.0447 40.3054C37.4372 34.9919 34.8669 33.3856 36.1085 32.0299Z" fill="#8CC800"/>
<path d="M42.4927 40.467C42.449 42.3424 41.9324 44.2456 41.1195 45.2555C40.4089 46.0413 39.6952 46.1218 39.1613 45.9864C37.5431 45.7352 37.5206 44.4794 37.5394 42.8364C37.5281 42.2085 37.5417 41.3482 37.4086 40.3939C37.1394 37.7801 36.3754 36.1318 35.8025 34.8955C35.2377 33.5818 34.7948 32.5944 35.5995 31.662C36.0447 31.1612 36.6116 30.9867 37.3004 31.1387C39.0653 31.4838 41.2182 34.0639 42.0378 36.6582C42.395 37.7148 42.5641 39.0645 42.4927 40.467ZM36.4131 32.8456C36.38 33.1554 36.571 33.5675 36.953 34.3917C37.526 35.6279 38.3509 37.4395 38.5952 40.2857C38.72 41.3174 38.7147 42.1002 38.7177 42.8055C38.7681 44.5343 38.829 44.6975 39.3712 44.7554C39.5261 44.772 39.8359 44.8051 40.1953 44.3735C41.2654 43.156 41.6708 39.3608 40.9121 36.9297C40.2226 34.5842 38.2524 32.4937 37.0989 32.2922C36.7891 32.2591 36.6259 32.32 36.5402 32.3892C36.4379 32.6133 36.4296 32.6907 36.4131 32.8456Z" fill="black"/>
<path d="M29.2342 45.7873C32.3654 45.8085 35.0305 41.3929 32.158 37.4826C29.7006 34.0866 25.2978 36.4365 24.5931 38.633C22.6838 44.7743 27.0407 45.7881 29.2342 45.7873Z" fill="#FA961E"/>
<path d="M24.1733 41.0954C24.1703 40.39 24.3387 39.5463 24.6786 38.5642C25.3833 36.3677 29.7169 33.9321 32.2435 37.4138C33.1263 38.6832 33.4669 39.8946 33.412 41.1421C33.2939 43.7146 31.4275 45.787 29.234 45.7877C27.436 45.7524 23.9837 45.0703 24.1733 41.0954ZM22.9175 41.1179C22.8904 42.8384 23.3694 44.2213 24.3544 45.2666C25.9787 46.9284 28.3105 47.0992 29.2482 47.121C32.0697 47.109 34.467 44.4666 34.6513 41.2745C34.7393 39.7172 34.1994 38.1711 33.2474 36.816C32.0187 35.118 30.226 34.2999 28.2318 34.6352C26.1601 34.9623 24.1109 36.5452 23.6108 38.2935C23.116 39.259 22.9393 40.1802 22.9175 41.1179Z" fill="black"/>
<path d="M28.3974 43.3484C27.0198 43.0446 26.0678 41.6895 26.3716 40.3119C26.6754 38.9343 28.0305 37.9823 29.4081 38.2861C30.7857 38.5899 31.7377 39.945 31.4339 41.3226C31.2075 42.7085 29.8607 43.583 28.3974 43.3484Z" fill="black"/>
<path d="M27.3594 39.869C28.0482 40.0209 28.7258 39.5449 28.8777 38.8561C29.0296 38.1673 28.5536 37.4897 27.8648 37.3378C27.176 37.1859 26.4984 37.6619 26.3465 38.3507C26.1946 39.0395 26.6706 39.7171 27.3594 39.869Z" fill="white"/>
</svg>
