<svg width="227" height="232" viewBox="0 0 227 232" fill="none" xmlns="http://www.w3.org/2000/svg">
<path d="M187.692 78.647C192.767 76.1278 197.124 72.3795 200.361 67.7475C203.599 63.1155 205.612 57.7488 206.216 52.142C206.819 46.5352 205.994 40.8687 203.817 35.6646C201.639 30.4606 198.178 25.8863 193.753 22.3634C189.329 18.8406 184.083 16.4824 178.499 15.5063C172.915 14.5302 167.172 14.9674 161.8 16.7778C156.428 18.5882 151.6 21.7135 147.76 25.8657C143.92 30.0178 141.193 35.0633 139.828 40.5371C137.129 33.9884 132.417 28.457 126.365 24.7333C120.312 21.0097 113.23 19.2843 106.129 19.8037C99.0274 20.3231 92.2712 23.0606 86.8251 27.6252C81.379 32.1898 77.5217 38.348 75.8043 45.2197C73.1017 38.675 68.3883 33.148 62.3367 29.4277C56.2852 25.7074 49.2047 23.9838 42.1059 24.503C34.3136 25.0765 26.9597 28.3174 21.2963 33.6741C15.6329 39.0307 12.01 46.1719 11.0445 53.8819C10.079 61.5919 11.8306 69.3941 16.001 75.9601C20.1714 82.5262 26.5028 87.4502 33.9174 89.8938C27.9306 92.8706 22.966 97.5472 19.6532 103.331C16.3405 109.114 14.8286 115.744 15.3094 122.38C15.9613 131.265 20.1354 139.525 26.9139 145.346C33.6924 151.166 42.5204 154.07 51.4569 153.418C58.5557 152.899 65.31 150.164 70.7559 145.603C76.2018 141.041 80.0609 134.887 81.7824 128.019C84.4813 134.568 89.1936 140.099 95.2459 143.823C101.298 147.546 108.381 149.272 115.482 148.752C122.583 148.233 129.339 145.496 134.785 140.931C140.232 136.366 144.089 130.208 145.806 123.336C148.853 130.729 154.452 136.798 161.597 140.451C168.743 144.105 176.966 145.104 184.791 143.269C192.615 141.435 199.528 136.887 204.286 130.442C209.045 123.997 211.338 116.079 210.753 108.108C210.276 101.477 207.83 95.1368 203.725 89.8919C199.619 84.647 194.04 80.7334 187.692 78.647Z" fill="#E62856"/>
<path d="M42.6411 73.3584L41.2688 73.4587L45.2503 61.8735L46.4152 61.7883L52.04 72.671L50.5879 72.7772L48.9043 69.4992L43.8139 69.8715L42.6411 73.3584ZM48.2843 68.2612L45.9248 63.637L44.2631 68.5553L48.2843 68.2612ZM58.3053 66.2769L55.6723 66.4695L55.579 65.1929L62.1215 64.7144L62.2149 65.991L59.5819 66.1835L60.0137 72.0878L58.7371 72.1811L58.3053 66.2769ZM69.0764 66.0506L65.3184 71.6998L64.0418 71.7932L63.5166 64.6123L64.7932 64.519L65.1842 69.8647L68.9422 64.2155L70.2187 64.1222L70.7439 71.303L69.4673 71.3963L69.0764 66.0506ZM79.5194 66.8911L75.7056 67.17L75.618 65.9732L79.4318 65.6943L79.5194 66.8911ZM86.5115 73.3583L85.2349 73.4517L84.4763 63.0794L85.7529 62.986L85.8147 63.8318C86.0483 63.5152 86.3818 63.2502 86.8154 63.0366C87.2482 62.8125 87.704 62.6829 88.1827 62.6479C89.204 62.5732 90.032 62.8549 90.6669 63.4929C91.3223 64.1188 91.6893 64.9689 91.7679 66.0434C91.8481 67.1391 91.5696 68.0846 90.9326 68.8799C90.3054 69.6637 89.4333 70.0965 88.3163 70.1782C87.4546 70.2412 86.767 70.1257 86.2536 69.8317L86.5115 73.3583ZM87.9032 63.8715C87.0521 63.9338 86.3848 64.3141 85.9011 65.0126L86.1614 68.5711C86.7524 68.9022 87.4043 69.0417 88.1171 68.9896C88.8724 68.9343 89.456 68.651 89.8678 68.1396C90.2894 67.6168 90.4718 66.9671 90.415 66.1905C90.3598 65.4352 90.1084 64.8493 89.6608 64.4328C89.2125 64.0057 88.6266 63.8186 87.9032 63.8715ZM94.3775 68.6761C93.6225 68.004 93.2057 67.1308 93.1271 66.0563C93.0477 64.9712 93.3334 64.0519 93.9842 63.2984C94.6448 62.5335 95.5443 62.1095 96.6826 62.0262C97.8209 61.943 98.7672 62.232 99.5214 62.8934C100.286 63.5434 100.707 64.411 100.787 65.4961C100.866 66.5812 100.575 67.5062 99.9147 68.2711C99.264 69.0246 98.3694 69.4429 97.2311 69.5262C96.1035 69.6086 95.1523 69.3253 94.3775 68.6761ZM95.0514 64.0706C94.6175 64.573 94.4282 65.2018 94.4835 65.9571C94.5387 66.7124 94.8122 67.3074 95.3039 67.742C95.807 68.1865 96.4202 68.3823 97.1436 68.3294C97.867 68.2765 98.4403 67.9992 98.8635 67.4977C99.2966 66.9847 99.4855 66.3506 99.4303 65.5953C99.3766 64.8613 99.0978 64.2667 98.5939 63.8115C98.1015 63.3663 97.4935 63.1701 96.7701 63.223C96.0467 63.2759 95.4738 63.5585 95.0514 64.0706ZM105.281 68.9375C104.738 68.9771 104.157 68.9287 103.537 68.7922C102.938 68.6435 102.506 68.4398 102.241 68.1811L102.825 67.1758C103.13 67.3889 103.484 67.5555 103.889 67.6756C104.303 67.7843 104.675 67.8266 105.005 67.8025C105.558 67.7621 106.003 67.6226 106.338 67.3842C106.673 67.1351 106.827 66.835 106.802 66.484C106.78 66.1861 106.635 65.9667 106.368 65.8258C106.112 65.6841 105.766 65.6292 105.33 65.6611L104.117 65.7498L104.041 64.7126L105.174 64.6297C105.536 64.6033 105.827 64.4858 106.047 64.2772C106.266 64.0579 106.365 63.8047 106.344 63.5174C106.321 63.1983 106.164 62.9584 105.874 62.7978C105.584 62.6265 105.204 62.558 104.736 62.5923C103.981 62.6475 103.282 62.966 102.64 63.5477L102.073 62.5945C102.339 62.2756 102.721 62.0124 103.219 61.8048C103.728 61.5965 104.269 61.4713 104.844 61.4293C105.695 61.3671 106.367 61.489 106.86 61.7952C107.363 62.1006 107.637 62.5565 107.682 63.1629C107.742 63.9927 107.363 64.5873 106.545 64.9466L106.547 64.9785C107.019 64.9975 107.4 65.1568 107.689 65.4565C107.978 65.7456 108.138 66.1135 108.171 66.5603C108.219 67.2199 107.976 67.7671 107.441 68.2019C106.915 68.6254 106.195 68.8705 105.281 68.9375ZM114.349 60.8946L116.024 60.772L113.131 64.4328L116.853 67.9307L115.081 68.0602L111.573 64.6269L114.349 60.8946ZM111.539 68.3193L110.262 68.4127L109.737 61.2319L111.014 61.1385L111.539 68.3193ZM119.72 70.9295L118.443 71.0229L117.684 60.6506L118.961 60.5572L119.023 61.403C119.256 61.0864 119.59 60.8214 120.024 60.6079C120.456 60.3837 120.912 60.2541 121.391 60.2191C122.412 60.1444 123.24 60.4261 123.875 61.0641C124.531 61.69 124.897 62.5401 124.976 63.6146C125.056 64.7103 124.778 65.6558 124.141 66.4511C123.514 67.2349 122.642 67.6677 121.524 67.7494C120.663 67.8124 119.975 67.6969 119.462 67.4029L119.72 70.9295ZM121.111 61.4427C120.26 61.505 119.593 61.8853 119.109 62.5838L119.37 66.1423C119.961 66.4734 120.612 66.6129 121.325 66.5608C122.081 66.5055 122.664 66.2222 123.076 65.7108C123.498 65.188 123.68 64.5383 123.623 63.7617C123.568 63.0064 123.317 62.4205 122.869 62.004C122.421 61.5769 121.835 61.3898 121.111 61.4427ZM131.345 59.6515L132.797 59.5452L130.45 66.9361C130.022 68.2402 129.631 69.1137 129.278 69.5566C128.907 70.033 128.46 70.2902 127.939 70.3284C127.471 70.3626 127.008 70.2467 126.55 69.9808L126.894 68.977C127.246 69.1117 127.518 69.172 127.709 69.158C128.007 69.1362 128.264 68.9891 128.479 68.7167C128.705 68.4435 128.919 68.0107 129.122 67.4183L129.254 67.0237L125.282 60.095L126.813 59.9829L129.254 64.3927C129.302 64.464 129.472 64.8152 129.764 65.4463C129.834 65.0882 129.919 64.713 130.018 64.3207L131.345 59.6515ZM138.226 59.1482L139.503 59.0548L140.028 66.2356L138.752 66.329L138.547 63.5365C138.02 63.928 137.368 64.1521 136.591 64.2089C134.889 64.3334 133.971 63.4808 133.837 61.651L133.678 59.4808L135.035 59.3816L135.183 61.4082C135.266 62.5359 135.823 63.0619 136.855 62.9865C137.525 62.9375 138.062 62.7484 138.466 62.4195L138.226 59.1482ZM146.882 58.5151L148.334 58.4089L145.987 65.7998C145.558 67.1039 145.168 67.9774 144.815 68.4203C144.443 68.8967 143.997 69.1539 143.476 69.192C143.008 69.2263 142.545 69.1104 142.087 68.8444L142.43 67.8407C142.782 67.9754 143.054 68.0357 143.246 68.0217C143.544 67.9999 143.8 67.8528 144.016 67.5804C144.242 67.3071 144.456 66.8744 144.659 66.282L144.79 65.8874L140.818 58.9586L142.35 58.8466L144.79 63.2563C144.838 63.3277 145.008 63.6789 145.3 64.3099C145.371 63.9519 145.455 63.5767 145.555 63.1844L146.882 58.5151ZM150.416 61.2887L153.958 61.0297L154.034 62.0669L150.492 62.326C150.636 62.9785 150.955 63.4739 151.451 63.812C151.956 64.1387 152.554 64.2767 153.246 64.2262C154.161 64.1592 154.847 63.8898 155.304 63.4178L155.9 64.3208C155.306 64.9739 154.392 65.3455 153.158 65.4358C152.062 65.5159 151.137 65.2306 150.384 64.5798C149.639 63.907 149.228 63.0334 149.149 61.9589C149.066 60.8206 149.351 59.8854 150.003 59.1532C150.666 58.4202 151.572 58.0117 152.721 57.9277C153.21 57.8919 153.712 57.9514 154.226 58.1064C154.75 58.2499 155.177 58.4646 155.508 58.7505L155.052 59.7465C154.428 59.268 153.67 59.0614 152.776 59.1268C152.106 59.1758 151.561 59.3922 151.139 59.7759C150.717 60.149 150.476 60.6533 150.416 61.2887ZM166.794 64.2781L157.698 64.9433L157.173 57.7625L158.449 57.6691L158.887 63.6531L161.52 63.4606L161.082 57.4765L162.359 57.3832L162.797 63.3672L165.429 63.1746L164.992 57.1906L166.268 57.0972L166.794 64.2781ZM168.764 63.396C168.745 63.1407 168.81 62.9327 168.959 62.7721C169.107 62.6008 169.325 62.5047 169.612 62.4837C169.952 62.4588 170.239 62.5822 170.473 62.8539C170.706 63.1149 170.84 63.4795 170.874 63.9475C170.916 64.522 170.793 65.0284 170.504 65.4666C170.226 65.9147 169.822 66.2384 169.291 66.4376L168.896 65.8569C169.437 65.6462 169.751 65.265 169.839 64.7131C169.887 64.3459 169.862 64.0804 169.765 63.9164C169.708 64.0168 169.594 64.0732 169.424 64.0857C169.265 64.0973 169.116 64.0387 168.978 63.9097C168.85 63.7694 168.779 63.5981 168.764 63.396ZM50.8885 90.8033L41.7928 91.4685L41.2676 84.2877L42.5442 84.1943L42.9818 90.1783L45.6148 89.9858L45.1771 84.0017L46.4537 83.9084L46.8914 89.8924L49.5243 89.6998L49.0867 83.7158L50.3633 83.6224L50.8009 89.6065L51.9977 89.5189L52.2136 92.471L51.0168 92.5586L50.8885 90.8033ZM53.9894 89.6781C53.2344 89.006 52.8176 88.1328 52.739 87.0583C52.6596 85.9732 52.9453 85.0539 53.5961 84.3004C54.2567 83.5355 55.1562 83.1115 56.2945 83.0282C57.4328 82.945 58.379 83.234 59.1333 83.8954C59.8974 84.5454 60.3191 85.413 60.3985 86.4981C60.4779 87.5832 60.1872 88.5082 59.5266 89.2731C58.8758 90.0266 57.9813 90.4449 56.843 90.5282C55.7154 90.6106 54.7642 90.3273 53.9894 89.6781ZM54.6633 85.0726C54.2294 85.575 54.0401 86.2038 54.0953 86.9591C54.1506 87.7144 54.4241 88.3094 54.9157 88.744C55.4188 89.1885 56.0321 89.3843 56.7555 89.3314C57.4789 89.2785 58.0522 89.0012 58.4754 88.4997C58.9085 87.9867 59.0974 87.3526 59.0421 86.5973C58.9884 85.8633 58.7097 85.2687 58.2058 84.8135C57.7133 84.3683 57.1054 84.1721 56.382 84.225C55.6586 84.2779 55.0857 84.5605 54.6633 85.0726ZM67.2276 78.2179L67.9873 79.173C67.7576 79.5428 67.4666 79.8047 67.1143 79.9588C66.7308 80.1259 66.2918 80.2649 65.7972 80.376C65.3133 80.4862 64.8602 80.6531 64.4381 80.8765C63.3896 81.4558 62.8676 82.6544 62.8722 84.4723L62.9041 84.4699C63.1016 83.9528 63.4497 83.5209 63.9484 83.1743C64.4577 82.8269 65.0156 82.631 65.622 82.5866C66.6433 82.512 67.4755 82.7773 68.1187 83.3827C68.7725 83.9872 69.1391 84.8321 69.2185 85.9172C69.2932 86.9385 69.0113 87.8361 68.3727 88.61C67.744 89.3726 66.8871 89.7936 65.802 89.8729C64.6317 89.9585 63.677 89.6273 62.9378 88.8792C62.1994 88.1418 61.7792 87.0762 61.6773 85.6826C61.4501 82.5763 62.1972 80.5805 63.9185 79.6952C64.3096 79.4848 64.7679 79.3176 65.2936 79.1936C65.7031 79.0888 65.9966 79.0085 66.1744 78.9527C66.3521 78.8969 66.5382 78.8084 66.7325 78.6873C66.9375 78.5653 67.1025 78.4089 67.2276 78.2179ZM63.0512 85.8228C63.1181 86.7377 63.3952 87.4554 63.8825 87.9759C64.3697 88.4964 64.9697 88.7306 65.6825 88.6785C66.374 88.6279 66.9207 88.3526 67.3226 87.8526C67.736 87.3625 67.9174 86.7717 67.8668 86.0802C67.8131 85.3462 67.5625 84.7709 67.1149 84.3545C66.678 83.9372 66.1031 83.7547 65.3904 83.8068C64.7414 83.8543 64.2121 84.0748 63.8024 84.4684C63.3722 84.8742 63.1218 85.3257 63.0512 85.8228ZM81.4344 88.5692L80.1578 88.6625L79.936 85.6306L75.9467 85.9224L76.1684 88.9543L74.8918 89.0477L74.3667 81.8669L75.6432 81.7735L75.8592 84.7256L79.8485 84.4338L79.6326 81.4817L80.9092 81.3884L81.4344 88.5692ZM83.7119 82.7074L83.3021 81.7107C83.9829 81.2224 84.7648 80.9459 85.6478 80.8814C86.6159 80.8105 87.3355 80.9986 87.8067 81.4454C88.2779 81.8922 88.5501 82.6156 88.6232 83.6156L88.9453 88.0198L87.7325 88.1085L87.6649 87.183C87.1516 87.9157 86.4109 88.3175 85.4429 88.3883C84.7833 88.4365 84.237 88.2786 83.8039 87.9146C83.3701 87.5399 83.1283 87.0121 83.0785 86.3313C83.0272 85.6292 83.2367 85.0577 83.7071 84.6169C84.1768 84.1654 84.8159 83.9101 85.6244 83.851C86.3797 83.7957 86.9867 83.9064 87.4454 84.183C87.3863 83.3745 87.2322 82.8029 86.9831 82.4682C86.734 82.1335 86.2904 81.9894 85.6521 82.0361C85.0031 82.0836 84.3564 82.3073 83.7119 82.7074ZM85.8056 87.2067C86.5184 87.1546 87.1128 86.8009 87.589 86.1458L87.5225 85.2362C87.0523 84.9497 86.5034 84.8295 85.8758 84.8754C85.4396 84.9073 85.0804 85.0405 84.798 85.275C84.5256 85.4982 84.403 85.7959 84.4302 86.1682C84.4559 86.5193 84.5878 86.7877 84.826 86.9735C85.0748 87.1585 85.4014 87.2363 85.8056 87.2067ZM96.4607 85.4969L97.1347 86.3781C96.5761 87.2211 95.685 87.6873 94.4617 87.7768C93.3127 87.8608 92.357 87.5885 91.5944 86.9598C90.8425 86.3303 90.4249 85.4464 90.3417 84.3081C90.2646 83.2549 90.5454 82.3413 91.184 81.5673C91.8226 80.7934 92.6631 80.3683 93.7057 80.292C94.961 80.2002 95.9254 80.4452 96.599 81.0269L96.0821 82.0754C95.4923 81.6159 94.7879 81.4161 93.9687 81.476C93.2985 81.525 92.7366 81.8121 92.2831 82.3372C91.8394 82.851 91.6443 83.4749 91.698 84.2089C91.7548 84.9855 92.0446 85.5846 92.5675 86.0063C93.1017 86.4378 93.7358 86.6267 94.4699 86.573C95.2996 86.5123 95.9632 86.1536 96.4607 85.4969ZM98.9942 86.3865C98.2392 85.7144 97.8223 84.8412 97.7438 83.7667C97.6644 82.6816 97.9501 81.7623 98.6009 81.0088C99.2615 80.244 100.161 79.8199 101.299 79.7366C102.438 79.6534 103.384 79.9425 104.138 80.6039C104.902 81.2539 105.324 82.1214 105.403 83.2065C105.483 84.2916 105.192 85.2166 104.531 85.9815C103.881 86.735 102.986 87.1533 101.848 87.2366C100.72 87.3191 99.7689 87.0357 98.9942 86.3865ZM99.668 81.7811C99.2342 82.2834 99.0449 82.9122 99.1001 83.6675C99.1554 84.4228 99.4288 85.0178 99.9205 85.4524C100.424 85.8969 101.037 86.0927 101.76 86.0398C102.484 85.9869 103.057 85.7097 103.48 85.2081C103.913 84.6952 104.102 84.061 104.047 83.3057C103.993 82.5717 103.714 81.9771 103.211 81.522C102.718 81.0767 102.11 80.8805 101.387 80.9334C100.663 80.9863 100.09 81.2689 99.668 81.7811ZM113.419 86.2299L112.142 86.3232L111.71 80.419L109.189 80.6034L109.198 81.822C109.185 82.8176 109.118 83.6514 108.996 84.3234C108.884 84.984 108.707 85.4889 108.465 85.8382C108.233 86.176 107.978 86.4192 107.7 86.5679C107.422 86.7059 107.075 86.7901 106.66 86.8205L106.473 85.5828C106.591 85.5849 106.712 85.56 106.837 85.5081C106.96 85.4456 107.091 85.3291 107.228 85.1586C107.376 84.9874 107.499 84.7645 107.596 84.49C107.705 84.2147 107.789 83.8342 107.85 83.3484C107.92 82.8513 107.949 82.2877 107.935 81.6577L107.899 79.4144L112.894 79.0491L113.419 86.2299ZM116.229 85.1259C115.474 84.4539 115.058 83.5806 114.979 82.5062C114.9 81.4211 115.185 80.5018 115.836 79.7483C116.497 78.9834 117.396 78.5593 118.534 78.4761C119.673 78.3928 120.619 78.6819 121.373 79.3433C122.137 79.9933 122.559 80.8608 122.639 81.946C122.718 83.0311 122.427 83.9561 121.767 84.7209C121.116 85.4744 120.221 85.8928 119.083 85.976C117.955 86.0585 117.004 85.7751 116.229 85.1259ZM116.903 80.5205C116.469 81.0228 116.28 81.6516 116.335 82.407C116.391 83.1623 116.664 83.7572 117.156 84.1919C117.659 84.6364 118.272 84.8321 118.995 84.7792C119.719 84.7263 120.292 84.4491 120.715 83.9476C121.148 83.4346 121.337 82.8005 121.282 82.0452C121.228 81.3111 120.95 80.7165 120.446 80.2614C119.953 79.8161 119.345 79.62 118.622 79.6729C117.899 79.7258 117.326 80.0083 116.903 80.5205ZM124.798 87.1623L123.602 87.2498L123.386 84.2977L124.279 84.2324C124.521 83.8831 124.716 83.3341 124.865 82.5853C125.012 81.8258 125.085 80.9863 125.082 80.0667L125.054 78.1596L129.953 77.8013L130.391 83.7854L131.588 83.6978L131.804 86.6499L130.607 86.7375L130.478 84.9822L124.67 85.407L124.798 87.1623ZM126.339 79.2689L126.346 80.4716C126.341 81.2741 126.267 82.0121 126.123 82.6857C125.98 83.3593 125.818 83.8418 125.636 84.1332L129.114 83.8787L128.764 79.0915L126.339 79.2689ZM133.033 79.1001L132.623 78.1034C133.304 77.6151 134.086 77.3386 134.969 77.2741C135.937 77.2033 136.657 77.3913 137.128 77.8381C137.599 78.2849 137.871 79.0083 137.945 80.0083L138.267 84.4125L137.054 84.5012L136.986 83.5757C136.473 84.3084 135.732 84.7102 134.764 84.781C134.105 84.8292 133.558 84.6713 133.125 84.3073C132.691 83.9326 132.45 83.4048 132.4 82.724C132.349 82.0219 132.558 81.4504 133.029 81.0096C133.498 80.5581 134.137 80.3028 134.946 80.2437C135.701 80.1884 136.308 80.2991 136.767 80.5757C136.708 79.7672 136.554 79.1956 136.305 78.8609C136.055 78.5262 135.612 78.3821 134.973 78.4288C134.325 78.4763 133.678 78.7001 133.033 79.1001ZM135.127 83.5994C135.84 83.5473 136.434 83.1936 136.91 82.5385L136.844 81.6289C136.374 81.3424 135.825 81.2222 135.197 81.2681C134.761 81.3 134.402 81.4332 134.119 81.6678C133.847 81.8909 133.724 82.1886 133.752 82.561C133.777 82.912 133.909 83.1804 134.147 83.3662C134.396 83.5512 134.723 83.629 135.127 83.5994ZM148.713 72.2582L149.473 73.2133C149.243 73.583 148.952 73.845 148.6 73.9991C148.216 74.1662 147.777 74.3052 147.283 74.4163C146.799 74.5265 146.346 74.6933 145.924 74.9167C144.875 75.4961 144.353 76.6947 144.358 78.5125L144.39 78.5102C144.587 77.9931 144.935 77.5612 145.434 77.2146C145.943 76.8672 146.501 76.6713 147.107 76.6269C148.129 76.5522 148.961 76.8176 149.604 77.4229C150.258 78.0275 150.625 78.8724 150.704 79.9575C150.779 80.9787 150.497 81.8764 149.858 82.6503C149.229 83.4129 148.373 83.8338 147.287 83.9132C146.117 83.9988 145.163 83.6676 144.423 82.9195C143.685 82.182 143.265 81.1165 143.163 79.7229C142.936 76.6165 143.683 74.6207 145.404 73.7355C145.795 73.5251 146.253 73.3579 146.779 73.2338C147.189 73.129 147.482 73.0487 147.66 72.993C147.838 72.9372 148.024 72.8487 148.218 72.7275C148.423 72.6056 148.588 72.4491 148.713 72.2582ZM144.537 79.8631C144.604 80.778 144.881 81.4957 145.368 82.0162C145.855 82.5367 146.455 82.7709 147.168 82.7187C147.859 82.6682 148.406 82.3929 148.808 81.8929C149.221 81.4028 149.403 80.812 149.352 80.1205C149.299 79.3865 149.048 78.8112 148.6 78.3947C148.163 77.9775 147.589 77.7949 146.876 77.8471C146.227 77.8945 145.698 78.1151 145.288 78.5087C144.858 78.9145 144.607 79.3659 144.537 79.8631ZM157.062 75.8187L158.514 75.7125L156.167 83.1034C155.738 84.4074 155.348 85.2809 154.995 85.7238C154.623 86.2002 154.177 86.4574 153.656 86.4956C153.188 86.5298 152.725 86.4139 152.267 86.148L152.61 85.1442C152.962 85.2789 153.234 85.3392 153.426 85.3252C153.724 85.3034 153.98 85.1563 154.196 84.8839C154.422 84.6107 154.636 84.1779 154.839 83.5855L154.97 83.1909L150.998 76.2622L152.53 76.1501L154.97 80.5599C155.018 80.6312 155.188 80.9824 155.48 81.6135C155.55 81.2554 155.635 80.8802 155.735 80.4879L157.062 75.8187ZM166.028 82.3821L164.752 82.4755L164.32 76.5712L161.799 76.7556L161.808 77.9742C161.795 78.9698 161.727 79.8036 161.605 80.4756C161.493 81.1363 161.316 81.6412 161.075 81.9904C160.843 82.3282 160.588 82.5715 160.31 82.7201C160.031 82.8582 159.684 82.9424 159.269 82.9727L159.083 81.735C159.2 81.7371 159.322 81.7122 159.446 81.6603C159.57 81.5978 159.7 81.4813 159.838 81.3108C159.986 81.1396 160.108 80.9167 160.206 80.6422C160.314 80.3669 160.399 79.9864 160.459 79.5007C160.53 79.0035 160.558 78.4399 160.544 77.81L160.508 75.5666L165.503 75.2013L166.028 82.3821ZM168.298 76.5209L167.889 75.5241C168.569 75.0358 169.351 74.7594 170.234 74.6948C171.202 74.624 171.922 74.812 172.393 75.2588C172.864 75.7057 173.137 76.4291 173.21 77.4291L173.532 81.8333L172.319 81.922L172.251 80.9965C171.738 81.7292 170.997 82.131 170.029 82.2018C169.37 82.25 168.824 82.0921 168.39 81.7281C167.957 81.3534 167.715 80.8256 167.665 80.1448C167.614 79.4426 167.823 78.8712 168.294 78.4303C168.763 77.9789 169.402 77.7236 170.211 77.6644C170.966 77.6092 171.573 77.7199 172.032 77.9965C171.973 77.188 171.819 76.6164 171.57 76.2816C171.321 75.9469 170.877 75.8029 170.239 75.8496C169.59 75.897 168.943 76.1208 168.298 76.5209ZM170.392 81.0202C171.105 80.968 171.699 80.6144 172.176 79.9592L172.109 79.0497C171.639 78.7632 171.09 78.6429 170.462 78.6888C170.026 78.7207 169.667 78.854 169.385 79.0885C169.112 79.3116 168.99 79.6094 169.017 79.9817C169.042 80.3328 169.174 80.6012 169.413 80.787C169.661 80.972 169.988 81.0497 170.392 81.0202ZM63.2792 109.71L62.0824 109.797L61.8665 106.845L62.7601 106.78C63.0019 106.431 63.1971 105.882 63.3455 105.133C63.4932 104.373 63.5655 103.534 63.5624 102.614L63.5352 100.707L68.4341 100.349L68.8718 106.333L70.0686 106.245L70.2845 109.197L69.0877 109.285L68.9593 107.53L63.1508 107.954L63.2792 109.71ZM64.8195 101.816L64.8273 103.019C64.8218 103.822 64.7474 104.56 64.6042 105.233C64.461 105.907 64.2984 106.389 64.1165 106.681L67.5952 106.426L67.2451 101.639L64.8195 101.816ZM72.0545 106.405C71.2995 105.733 70.8827 104.86 70.8041 103.785C70.7247 102.7 71.0104 101.781 71.6612 101.027C72.3218 100.262 73.2213 99.8383 74.3596 99.755C75.4979 99.6718 76.4442 99.9609 77.1984 100.622C77.9625 101.272 78.3843 102.14 78.4636 103.225C78.543 104.31 78.2524 105.235 77.5917 106C76.9409 106.753 76.0464 107.172 74.9081 107.255C73.7805 107.337 72.8293 107.054 72.0545 106.405ZM72.7284 101.799C72.2945 102.302 72.1052 102.931 72.1605 103.686C72.2157 104.441 72.4892 105.036 72.9808 105.471C73.4839 105.915 74.0972 106.111 74.8206 106.058C75.544 106.005 76.1173 105.728 76.5405 105.227C76.9736 104.714 77.1625 104.079 77.1072 103.324C77.0536 102.59 76.7748 101.995 76.2709 101.54C75.7784 101.095 75.1705 100.899 74.4471 100.952C73.7237 101.005 73.1508 101.287 72.7284 101.799ZM84.3426 102.635L80.5288 102.913L80.4412 101.717L84.2551 101.438L84.3426 102.635ZM87.6535 105.264C86.8984 104.592 86.4816 103.719 86.403 102.644C86.3237 101.559 86.6094 100.64 87.2602 99.8864C87.9208 99.1215 88.8203 98.6974 89.9585 98.6141C91.0968 98.5309 92.0431 98.82 92.7974 99.4814C93.5615 100.131 93.9832 100.999 94.0626 102.084C94.1419 103.169 93.8513 104.094 93.1907 104.859C92.5399 105.612 91.6454 106.031 90.5071 106.114C89.3794 106.197 88.4282 105.913 87.6535 105.264ZM88.3273 100.659C87.8935 101.161 87.7042 101.79 87.7594 102.545C87.8147 103.3 88.0881 103.895 88.5798 104.33C89.0829 104.774 89.6961 104.97 90.4195 104.917C91.1429 104.864 91.7163 104.587 92.1395 104.086C92.5725 103.573 92.7614 102.939 92.7062 102.183C92.6525 101.449 92.3737 100.855 91.8699 100.399C91.3774 99.9542 90.7695 99.758 90.0461 99.811C89.3227 99.8639 88.7498 100.146 88.3273 100.659ZM99.9416 101.494L96.1277 101.773L96.0402 100.576L99.854 100.297L99.9416 101.494ZM103.252 104.123C102.497 103.451 102.081 102.578 102.002 101.503C101.923 100.418 102.208 99.499 102.859 98.7455C103.52 97.9806 104.419 97.5565 105.558 97.4733C106.696 97.39 107.642 97.6791 108.396 98.3405C109.16 98.9905 109.582 99.858 109.662 100.943C109.741 102.028 109.45 102.953 108.79 103.718C108.139 104.472 107.244 104.89 106.106 104.973C104.978 105.056 104.027 104.772 103.252 104.123ZM103.926 99.5177C103.492 100.02 103.303 100.649 103.358 101.404C103.414 102.159 103.687 102.754 104.179 103.189C104.682 103.634 105.295 103.829 106.019 103.776C106.742 103.724 107.315 103.446 107.738 102.945C108.171 102.432 108.36 101.798 108.305 101.042C108.251 100.308 107.973 99.7137 107.469 99.2586C106.976 98.8133 106.368 98.6172 105.645 98.6701C104.922 98.723 104.349 99.0055 103.926 99.5177ZM111.766 104.399L111.241 97.218C111.294 97.2141 111.369 97.2087 111.464 97.2017C111.559 97.184 111.697 97.1686 111.878 97.1554C112.058 97.1315 112.223 97.1141 112.372 97.1032C113.157 97.0244 113.646 96.978 113.837 96.9639C115.901 96.813 116.978 97.3546 117.068 98.5886C117.1 99.0141 116.993 99.3909 116.75 99.7188C116.506 100.036 116.173 100.242 115.752 100.337L115.755 100.369C116.887 100.49 117.486 101.013 117.554 101.938C117.656 103.332 116.606 104.109 114.404 104.27C114.297 104.278 113.828 104.301 112.997 104.341C112.838 104.353 112.662 104.36 112.469 104.363C112.278 104.377 112.129 104.383 112.021 104.38C111.915 104.388 111.83 104.394 111.766 104.399ZM114.339 100.97L112.807 101.082L112.968 103.284C113.736 103.26 114.227 103.24 114.44 103.225C115.663 103.135 116.247 102.708 116.191 101.942C116.137 101.208 115.52 100.884 114.339 100.97ZM114.009 97.9942C113.7 98.0167 113.228 98.0673 112.592 98.1459L112.749 100.284L114.36 100.166C114.796 100.134 115.14 100.008 115.391 99.7861C115.642 99.5645 115.756 99.2835 115.731 98.9431C115.679 98.2303 115.105 97.914 114.009 97.9942ZM128.747 103.157L119.651 103.822L119.126 96.6413L120.403 96.5479L120.84 102.532L123.473 102.339L123.036 96.3554L124.312 96.262L124.75 102.246L127.383 102.053L126.945 96.0694L128.222 95.9761L128.747 103.157ZM131.567 102.052C130.812 101.38 130.396 100.507 130.317 99.4324C130.238 98.3473 130.523 97.428 131.174 96.6746C131.835 95.9097 132.734 95.4856 133.872 95.4023C135.011 95.3191 135.957 95.6082 136.711 96.2696C137.475 96.9196 137.897 97.7871 137.977 98.8722C138.056 99.9573 137.765 100.882 137.105 101.647C136.454 102.401 135.559 102.819 134.421 102.902C133.293 102.985 132.342 102.701 131.567 102.052ZM132.241 97.4468C131.807 97.9491 131.618 98.5779 131.673 99.3332C131.729 100.089 132.002 100.684 132.494 101.118C132.997 101.563 133.61 101.758 134.333 101.706C135.057 101.653 135.63 101.375 136.053 100.874C136.486 100.361 136.675 99.7267 136.62 98.9714C136.566 98.2374 136.288 97.6428 135.784 97.1877C135.291 96.7424 134.683 96.5462 133.96 96.5992C133.237 96.6521 132.664 96.9346 132.241 97.4468ZM141.437 102.229L140.081 102.328L139.556 95.1471L140.912 95.0479L141.122 97.9202L142.686 97.8059C142.768 96.8801 143.113 96.1169 143.722 95.5162C144.341 94.9148 145.129 94.579 146.087 94.509C147.214 94.4265 148.145 94.7168 148.878 95.3798C149.621 96.0419 150.032 96.9103 150.111 97.9847C150.19 99.0592 149.904 99.9838 149.255 100.759C148.615 101.511 147.742 101.928 146.635 102.009C145.625 102.083 144.773 101.851 144.082 101.313C143.39 100.776 142.951 100.032 142.764 99.0836L141.216 99.1968L141.437 102.229ZM144.635 96.5885C144.242 97.0771 144.073 97.6884 144.127 98.4224C144.181 99.1564 144.437 99.7366 144.896 100.163C145.355 100.589 145.92 100.778 146.59 100.729C147.26 100.68 147.786 100.417 148.168 99.9396C148.56 99.4511 148.729 98.8345 148.675 98.0898C148.621 97.3557 148.37 96.7752 147.922 96.3481C147.473 95.921 146.909 95.7323 146.228 95.7821C145.558 95.8311 145.027 96.0999 144.635 96.5885ZM153.949 97.8645L152.592 97.9637L152.026 90.2244L153.383 90.1251L153.949 97.8645ZM152.573 100.548C152.556 100.314 152.626 100.111 152.785 99.9389C152.943 99.7562 153.16 99.6548 153.436 99.6346C153.66 99.6182 153.863 99.6889 154.046 99.8467C154.228 100.004 154.328 100.195 154.344 100.418C154.363 100.674 154.299 100.898 154.153 101.09C154.005 101.272 153.81 101.372 153.565 101.39C153.288 101.41 153.059 101.341 152.876 101.184C152.693 101.015 152.591 100.803 152.573 100.548Z" fill="white"/>
<path d="M99.2737 177.747C99.166 177.744 99.0608 177.715 98.9671 177.661C98.819 177.576 98.7108 177.435 98.6661 177.269C98.6213 177.104 98.6436 176.927 98.7281 176.778C98.7285 176.762 99.7314 174.959 98.8332 173.341C98.5304 172.791 98.0481 172.506 97.4892 172.176C96.8412 171.799 96.1081 171.361 95.5628 170.46C95.0175 169.558 94.9539 168.662 94.9024 167.866C94.8011 166.508 94.7411 165.69 92.507 165.15C92.3406 165.11 92.1971 165.005 92.1075 164.859C92.018 164.713 91.9898 164.537 92.0292 164.37C92.0695 164.203 92.1743 164.058 92.3205 163.968C92.4668 163.878 92.6426 163.85 92.8094 163.89C95.9587 164.649 96.0818 166.307 96.1896 167.772C96.2431 168.485 96.2939 169.159 96.6741 169.791C97.0544 170.423 97.5545 170.717 98.1527 171.062C98.7826 171.439 99.4965 171.856 99.9706 172.715C101.225 174.984 99.9134 177.329 99.8587 177.427C99.7995 177.529 99.7136 177.612 99.6105 177.669C99.5074 177.725 99.3909 177.752 99.2737 177.747Z" fill="black"/>
<path d="M107.397 176.113C107.291 176.112 107.186 176.084 107.092 176.032C106.999 175.979 106.92 175.905 106.863 175.814C106.792 175.704 105.138 173.067 105.695 170.445C105.914 169.416 106.525 168.761 107.064 168.182C107.557 167.651 108.021 167.157 108.215 166.387C108.415 165.562 108.297 164.759 108.176 163.994C107.939 162.486 107.671 160.775 110.268 159.504C110.344 159.467 110.427 159.445 110.511 159.439C110.596 159.434 110.681 159.446 110.761 159.473C110.842 159.501 110.916 159.544 110.979 159.6C111.043 159.657 111.095 159.725 111.132 159.802C111.207 159.956 111.218 160.134 111.162 160.296C111.107 160.458 110.989 160.592 110.836 160.667C109.097 161.52 109.224 162.327 109.453 163.793C109.588 164.651 109.74 165.623 109.469 166.704C109.198 167.786 108.566 168.473 108.01 169.068C107.523 169.589 107.103 170.04 106.961 170.714C106.514 172.81 107.94 175.094 107.953 175.118C108 175.19 108.032 175.271 108.047 175.355C108.062 175.44 108.06 175.527 108.041 175.611C108.022 175.694 107.987 175.774 107.937 175.844C107.888 175.914 107.824 175.973 107.752 176.018C107.645 176.083 107.522 176.116 107.397 176.113Z" fill="black"/>
<path d="M104.335 145.704C108.463 141.939 115.165 144.182 116.434 149.204C118.084 155.729 111.618 160.271 106.168 157.83C101.168 155.822 100.192 148.958 104.335 145.704Z" fill="white"/>
<path d="M109.072 158.922C108.012 158.898 106.967 158.664 105.998 158.232C104.77 157.735 103.695 156.92 102.885 155.869C102.075 154.818 101.558 153.57 101.388 152.252C101.006 149.562 102.004 146.992 104.055 145.374C105.056 144.471 106.275 143.846 107.59 143.56C108.905 143.274 110.272 143.336 111.556 143.741C114.226 144.549 116.205 146.553 116.843 149.102C117.614 152.154 116.709 155.126 114.427 157.054C112.928 158.309 111.024 158.973 109.072 158.922ZM109.38 144.255C107.626 144.205 105.921 144.839 104.622 146.022L104.598 146.044C102.783 147.47 101.903 149.745 102.241 152.131C102.391 153.299 102.849 154.406 103.566 155.338C104.284 156.27 105.237 156.994 106.326 157.434L106.342 157.434C107.571 157.981 108.928 158.172 110.26 157.987C111.592 157.801 112.846 157.246 113.88 156.384C115.936 154.65 116.713 152.069 116.015 149.305C115.446 147.052 113.687 145.278 111.308 144.559C110.682 144.372 110.033 144.269 109.38 144.255Z" fill="black"/>
<path d="M114.49 157.255C115.305 158.302 112.855 160.089 110.549 160.371C108.243 160.653 104.373 159.373 104.956 157.773C105.341 156.743 106.248 157.345 108.571 157.524C112.313 157.813 113.723 156.261 114.49 157.255Z" fill="#8CC800"/>
<path d="M109.687 160.839C107.899 160.797 105.666 160.121 104.82 159.051C104.65 158.86 104.535 158.627 104.487 158.376C104.438 158.125 104.458 157.866 104.545 157.625C104.932 156.563 105.809 156.703 106.92 156.882C107.37 156.952 107.927 157.041 108.595 157.102C109.929 157.205 111.27 157.072 112.559 156.711C113.515 156.475 114.272 156.287 114.824 156.999C114.96 157.175 115.045 157.386 115.069 157.608C115.093 157.83 115.055 158.054 114.96 158.256C114.483 159.409 112.483 160.578 110.593 160.808C110.292 160.841 109.989 160.851 109.687 160.839ZM105.843 157.618C105.5 157.61 105.433 157.704 105.354 157.921C105.31 158.044 105.276 158.238 105.495 158.515C106.21 159.417 108.777 160.151 110.489 159.942C112.173 159.736 113.847 158.684 114.165 157.915C114.202 157.855 114.22 157.785 114.216 157.715C114.213 157.644 114.188 157.576 114.146 157.52C113.956 157.278 113.699 157.31 112.764 157.542C111.387 157.923 109.954 158.063 108.53 157.955C107.827 157.901 107.248 157.809 106.784 157.733C106.476 157.676 106.164 157.638 105.85 157.618L105.843 157.618Z" fill="black"/>
<path d="M79.6556 144.57C83.4135 136.418 94.891 135.079 100.364 141.887C106.839 149.941 100.582 162.737 89.9077 162.093C80.9254 161.637 75.9021 152.084 79.6556 144.57Z" fill="white"/>
<path d="M90.3577 162.54C90.2007 162.536 90.042 162.532 89.8815 162.529C87.8033 162.445 85.7804 161.833 84.0021 160.751C82.2239 159.669 80.7486 158.152 79.7141 156.343C78.6511 154.545 78.0532 152.51 77.9751 150.421C77.8971 148.333 78.3412 146.258 79.267 144.385C81.0915 140.435 84.8515 137.746 89.3278 137.192C93.777 136.64 98.0274 138.303 100.699 141.625C103.855 145.539 104.311 150.87 101.912 155.534C99.6096 160.001 95.2133 162.655 90.3577 162.54ZM91.3023 137.944C90.6775 137.93 90.0524 137.962 89.4322 138.039C85.2509 138.557 81.7425 141.065 80.0453 144.746L80.045 144.759C79.183 146.502 78.7695 148.434 78.8422 150.379C78.9149 152.324 79.4714 154.22 80.4611 155.893C81.4253 157.579 82.8003 158.991 84.4572 159.998C86.1141 161.006 87.9988 161.575 89.9348 161.652C94.6346 161.944 98.9317 159.436 101.151 155.123C103.391 150.768 102.964 145.797 100.033 142.152C97.9187 139.537 94.7509 138.032 91.304 137.95L91.3023 137.944Z" fill="black"/>
<path d="M90.9824 132.552C86.4529 132.459 82.6904 135.105 81.4061 136.9C81.3388 136.997 80.7539 136.624 80.8046 136.464C81.5749 134.046 85.8189 129.743 91.0684 129.842C91.8114 129.865 91.5975 132.566 90.9824 132.552Z" fill="black"/>
<path d="M107.725 138.079C110.691 138.292 112.99 140.248 113.72 141.499C113.76 141.565 114.166 141.358 114.142 141.251C113.783 139.624 111.268 136.554 107.834 136.304C107.344 136.272 107.321 138.049 107.725 138.079Z" fill="black"/>
<path d="M83.8667 161.345C83.2723 163.577 88.9608 165.33 92.9577 164.672C96.9546 164.014 102.173 159.946 100.364 158.513C99.4184 157.766 98.6072 159.171 94.7164 160.299C88.0255 162.229 84.4238 159.24 83.8667 161.345Z" fill="#8CC800"/>
<path d="M90.7982 165.235C88.0223 165.169 85.1126 164.274 83.9519 162.989C83.3277 162.295 83.3304 161.647 83.4433 161.226C83.8055 159.881 85.0773 160.056 86.6891 160.279C88.4484 160.521 91.1071 160.887 94.589 159.878C95.8351 159.518 97.0424 159.035 98.193 158.436C99.2142 157.917 99.8898 157.587 100.623 158.168C100.847 158.34 101.013 158.578 101.099 158.848C101.184 159.119 101.184 159.409 101.1 159.68C100.577 161.711 96.348 164.543 93.0195 165.099C92.2849 165.214 91.5412 165.259 90.7982 165.235ZM85.1671 160.987C84.5845 160.973 84.3704 161.1 84.2754 161.451C84.1903 161.767 84.2948 162.079 84.5901 162.408C85.8827 163.84 89.9114 164.73 92.8812 164.234C96.07 163.709 99.8663 161.011 100.266 159.459C100.356 159.099 100.227 158.949 100.089 158.841C99.8111 158.621 99.5709 158.706 98.5791 159.203C97.3815 159.828 96.1247 160.33 94.8275 160.704C91.1712 161.763 88.4045 161.38 86.5733 161.129C86.1073 161.057 85.6379 161.01 85.1671 160.987Z" fill="black"/>
<path d="M128.85 225.318C126.905 224.237 123.698 223.46 119.434 219.941C113.026 214.652 111.746 202.744 114.531 197.162C116.023 194.167 117.776 189.707 116.54 183.923C115.355 178.345 113.124 175.773 109.109 174.387C104.469 172.783 99.8395 174.694 98.0258 179.402C96.6794 182.905 97.1568 186.361 99.0712 190.565C100.747 194.245 102.535 196.704 102.545 202.361C102.557 223.29 72.2869 223.413 53.5561 223.075C52.5045 223.05 51.8872 224.194 52.609 224.962C54.1529 226.599 58.2951 228.718 64.2449 228.966C74.6265 229.393 75.0698 227.901 83.387 227.939C91.5869 227.976 94.1112 229.674 104.593 229.923C114.068 230.148 124.333 229.087 128.195 228.63C128.612 228.58 128.997 228.384 129.282 228.076C129.567 227.767 129.733 227.367 129.751 226.947C129.767 226.618 129.691 226.291 129.532 226.004C129.373 225.716 129.136 225.478 128.85 225.318Z" fill="#8CC800"/>
<path d="M65.8648 229.663C65.3453 229.651 64.7988 229.638 64.2237 229.61C58.3892 229.372 53.9511 227.326 52.1396 225.404C51.9011 225.16 51.741 224.851 51.6798 224.515C51.6186 224.179 51.6592 223.833 51.7963 223.52C51.9509 223.183 52.2015 222.899 52.5167 222.704C52.8318 222.508 53.1974 222.411 53.5675 222.424C65.5693 222.644 87.9096 223.058 97.3547 213.744C100.372 210.771 101.902 206.941 101.899 202.36C101.896 197.851 100.728 195.466 99.3772 192.706C99.0846 192.109 98.7816 191.492 98.4832 190.835C96.4026 186.26 96.0763 182.668 97.4227 179.171C99.3248 174.232 104.218 172.014 109.32 173.775C113.707 175.291 115.983 178.192 117.171 183.79C118.442 189.777 116.602 194.456 115.109 197.453C113.782 200.111 113.423 204.364 114.17 208.55C115.008 213.246 117.022 217.115 119.844 219.442C122.874 221.944 125.395 223.042 127.236 223.846C127.97 224.166 128.605 224.444 129.162 224.754C129.555 224.97 129.88 225.293 130.099 225.685C130.318 226.078 130.423 226.524 130.402 226.973C130.38 227.549 130.154 228.098 129.764 228.52C129.374 228.943 128.846 229.211 128.275 229.276C124.335 229.742 114.14 230.801 104.582 230.575C100.632 230.49 96.6928 230.117 92.7966 229.459C89.9843 229.021 87.3286 228.605 83.3891 228.591C80.752 228.563 78.1168 228.743 75.5077 229.128C72.3157 229.595 69.0885 229.774 65.8648 229.663ZM106.114 174.482C102.8 174.404 99.9201 176.296 98.6334 179.636C97.4045 182.825 97.7133 186.013 99.6636 190.296C99.9553 190.935 100.253 191.545 100.542 192.127C101.906 194.913 103.193 197.543 103.187 202.354C103.189 207.296 101.528 211.436 98.257 214.662C94.0455 218.812 87.2957 221.472 77.618 222.79C69.4902 223.899 60.9279 223.842 53.5405 223.714C53.4248 223.706 53.3093 223.732 53.2087 223.79C53.108 223.848 53.0268 223.935 52.9752 224.039C52.9396 224.118 52.9302 224.206 52.9484 224.29C52.9665 224.375 53.0112 224.451 53.0759 224.508C54.6606 226.175 58.8312 228.084 64.2726 228.309C69.9972 228.543 72.711 228.184 75.3343 227.837C78.0018 227.444 80.6955 227.259 83.3913 227.282C87.4281 227.3 90.1307 227.721 92.9915 228.165C96.0771 228.644 99.267 229.14 104.61 229.267C114.085 229.491 124.209 228.439 128.122 227.976C128.386 227.946 128.63 227.823 128.811 227.628C128.991 227.433 129.096 227.18 129.107 226.914C129.117 226.705 129.069 226.498 128.967 226.316C128.866 226.133 128.715 225.983 128.533 225.883C128.028 225.603 127.421 225.337 126.717 225.031C124.806 224.196 122.189 223.055 119.019 220.438C115.96 217.915 113.786 213.772 112.896 208.775C112.09 204.26 112.484 199.809 113.949 196.87C115.466 193.807 117.077 189.584 115.903 184.064C114.809 178.908 112.837 176.367 108.899 175.005C108.003 174.688 107.063 174.512 106.114 174.482Z" fill="black"/>
<path d="M97.6896 199.143C102.223 207.425 98.8856 215.138 94.4667 217.988C93.2644 218.763 88.5848 220.504 88.5848 220.504C88.5848 220.504 85.5818 222.48 79.5583 222.903C75.1636 223.212 71.1288 221.436 67.4703 217.494C63.2364 212.926 60.5353 200.049 71.7446 192.977C81.0887 187.086 92.7217 190.07 97.6896 199.143Z" fill="#E62828"/>
<path d="M93.7198 199.001C93.6251 198.999 93.5321 198.976 93.4474 198.934C93.3626 198.891 93.2881 198.831 93.2293 198.756C90.5922 195.425 86.5981 193.531 81.9751 193.421L81.9138 193.419C81.743 193.415 81.5809 193.343 81.4629 193.219C81.3448 193.095 81.2803 192.93 81.2834 192.758C81.2852 192.673 81.3036 192.589 81.3377 192.511C81.3718 192.433 81.4209 192.363 81.4822 192.304C81.5434 192.245 81.6156 192.199 81.6946 192.168C81.7736 192.137 81.8579 192.122 81.9427 192.124L82.0059 192.126C87.0185 192.245 91.3622 194.31 94.2411 197.948C94.3448 198.082 94.3919 198.252 94.3724 198.42C94.3529 198.589 94.2683 198.743 94.1367 198.85C94.0196 198.948 93.8721 199.002 93.7198 199.001Z" fill="#FF5A5A"/>
<path d="M71.0962 198.331C70.9849 198.328 70.8761 198.297 70.7804 198.239C70.6847 198.182 70.6053 198.101 70.5499 198.005C68.753 194.858 65.9374 192.962 62.6218 192.67C62.4514 192.655 62.2939 192.573 62.184 192.441C62.0741 192.309 62.0208 192.139 62.0357 191.968C62.043 191.884 62.0669 191.801 62.106 191.725C62.1452 191.65 62.1988 191.583 62.2637 191.528C62.3287 191.473 62.4038 191.432 62.4848 191.406C62.5657 191.381 62.651 191.371 62.7355 191.379C66.4834 191.71 69.658 193.835 71.6715 197.36C71.7564 197.509 71.7789 197.686 71.734 197.852C71.6891 198.017 71.5806 198.159 71.4321 198.244C71.33 198.303 71.2139 198.333 71.0962 198.331Z" fill="black"/>
<path d="M78.8374 223.462C77.7594 223.439 76.6857 223.318 75.63 223.098C71.5086 222.232 68.1769 219.882 65.7234 216.114C64.4534 214.177 63.611 211.991 63.2526 209.7C62.8942 207.41 63.0281 205.069 63.6454 202.835C64.9464 197.978 68.3487 193.858 72.9811 191.517C76.5614 189.707 80.967 189.015 85.0676 189.615C89.4937 190.263 93.3188 192.358 95.841 195.511C98.2353 198.506 99.6933 202.087 99.9476 205.592C100.24 209.63 98.9543 213.533 96.2332 216.857C96.1248 216.988 95.9689 217.072 95.7995 217.089C95.6301 217.106 95.4609 217.055 95.3287 216.947C95.1975 216.839 95.1143 216.682 95.0974 216.512C95.0805 216.343 95.1311 216.173 95.2383 216.04C100.961 209.035 98.7834 201.265 94.8362 196.327C89.7008 189.903 79.9881 189.426 73.5583 192.673C69.2546 194.849 66.0958 198.675 64.8882 203.172C64.3193 205.23 64.1957 207.386 64.5257 209.496C64.8557 211.606 65.6316 213.621 66.8014 215.405C72.0392 223.451 80.3918 222.606 84.9053 221.397C90.4778 219.9 92.9499 213.986 92.5086 208.928C92.1331 204.599 89.5134 199.776 83.2911 199.225C78.704 198.819 74.5219 202.715 73.9829 206.338C73.6331 208.683 74.8374 211.324 76.9112 212.763C78.0457 213.552 80.4026 214.622 83.4296 212.931C83.9782 212.622 84.4564 212.202 84.8336 211.697C85.2108 211.192 85.4786 210.614 85.6198 210C85.7533 209.469 85.7747 208.917 85.6827 208.378C85.5908 207.839 85.3875 207.325 85.0858 206.87C84.3337 205.784 83.2838 205.312 82.2073 205.576C81.7444 205.68 81.3234 205.922 80.9991 206.269C80.6748 206.617 80.4622 207.054 80.3888 207.524C80.3778 207.608 80.3503 207.69 80.3079 207.763C80.2656 207.837 80.2092 207.902 80.1419 207.954C80.0747 208.006 79.9978 208.044 79.9159 208.066C79.834 208.088 79.7486 208.093 79.6645 208.082C79.4949 208.06 79.3411 207.971 79.2368 207.836C79.1324 207.7 79.086 207.528 79.1077 207.358C79.2157 206.629 79.5399 205.949 80.0381 205.407C80.5363 204.865 81.1855 204.485 81.9014 204.318C83.5026 203.925 85.0891 204.604 86.1465 206.131C86.5509 206.735 86.825 207.418 86.9513 208.135C87.0775 208.851 87.0531 209.587 86.8797 210.294C86.6967 211.084 86.3512 211.828 85.8653 212.477C85.3794 213.127 84.7638 213.667 84.0578 214.064C81.4003 215.547 78.5274 215.463 76.1748 213.828C73.6749 212.093 72.2791 209.006 72.7044 206.143C73.0265 203.979 74.359 201.824 76.3625 200.219C78.4709 198.527 80.9735 197.714 83.4048 197.931C86.4556 198.201 89.046 199.472 90.8976 201.603C92.5524 203.512 93.5561 206.01 93.7946 208.812C94.2808 214.41 91.4976 220.96 85.2384 222.645C83.1536 223.218 80.9987 223.493 78.8374 223.462Z" fill="black"/>
<path fill-rule="evenodd" clip-rule="evenodd" d="M76.9967 189.979C78.8213 186.178 77.2404 181.307 76.9398 181.353C76.5214 181.415 72.8495 182.445 70.3922 184.541C67.4007 187.096 66.6006 190.998 69.3985 192.27C73.2873 194.038 75.6809 192.725 76.9967 189.979Z" fill="#B4E100"/>
<path d="M72.4919 193.504C71.4962 193.48 70.402 193.199 69.2218 192.662C68.703 192.441 68.251 192.088 67.9106 191.637C67.5701 191.187 67.3532 190.655 67.2812 190.094C67.0172 188.213 68.1297 185.902 70.1136 184.208C72.6501 182.044 76.4544 180.986 76.869 180.929C76.965 180.916 77.0627 180.931 77.1504 180.972C77.2381 181.014 77.3121 181.079 77.3634 181.162C77.8881 181.869 79.1484 186.483 77.3806 190.171C76.6217 191.732 75.5956 192.761 74.3032 193.226C73.7216 193.43 73.1075 193.524 72.4919 193.504ZM76.7626 181.839C75.8544 182.084 72.7626 183.084 70.6717 184.873C68.9328 186.358 67.9132 188.41 68.134 189.981C68.1859 190.397 68.3469 190.792 68.6005 191.125C68.8541 191.459 69.1914 191.719 69.5778 191.879C70.6491 192.366 71.6249 192.621 72.4979 192.642C74.3016 192.685 75.6813 191.735 76.6099 189.796C78.146 186.591 77.1531 182.726 76.7627 181.835L76.7626 181.839Z" fill="black"/>
<path d="M81.9969 200.436C81.8971 200.433 81.8011 200.396 81.7256 200.331C81.6501 200.265 81.5997 200.175 81.5831 200.076C81.5182 199.697 81.4542 199.273 81.3855 198.825C81.2298 197.778 81.0469 196.59 80.8292 195.721C80.8152 195.666 80.8121 195.609 80.8202 195.553C80.8283 195.497 80.8474 195.443 80.8764 195.394C80.9055 195.345 80.9438 195.303 80.9892 195.269C81.0347 195.235 81.0864 195.21 81.1413 195.197C81.2521 195.169 81.3693 195.186 81.4674 195.245C81.5655 195.303 81.6364 195.399 81.6645 195.51C81.8919 196.42 82.0762 197.628 82.2368 198.695C82.3056 199.14 82.3697 199.559 82.4312 199.932C82.4503 200.045 82.4241 200.16 82.3582 200.254C82.2924 200.347 82.1924 200.411 82.0801 200.43C82.0526 200.435 82.0248 200.437 81.9969 200.436Z" fill="black"/>
<path d="M78.9526 201.082C78.871 201.08 78.7916 201.056 78.7237 201.01C78.6557 200.965 78.602 200.901 78.5688 200.827C78.0966 199.817 77.5642 198.838 76.9745 197.893C76.9119 197.797 76.8896 197.68 76.9125 197.568C76.9355 197.456 77.0018 197.358 77.0969 197.295C77.1923 197.232 77.3086 197.209 77.4204 197.232C77.5321 197.255 77.6302 197.322 77.6932 197.417C78.3087 198.403 78.8636 199.425 79.3549 200.478C79.4013 200.583 79.4045 200.701 79.3637 200.808C79.323 200.915 79.2416 201.002 79.1375 201.048C79.0792 201.073 79.0159 201.085 78.9526 201.082Z" fill="black"/>
<path d="M90.6931 205.057C90.6135 205.055 90.536 205.031 90.4692 204.988C90.4023 204.944 90.3488 204.883 90.3145 204.811C90.2659 204.708 90.26 204.589 90.2981 204.482C90.3361 204.374 90.4151 204.286 90.5177 204.236C91.0653 203.974 91.8711 203.555 92.6514 203.15C93.4316 202.745 94.252 202.321 94.8088 202.054C94.9108 202.003 95.0286 201.996 95.1363 202.032C95.2441 202.068 95.333 202.146 95.3835 202.249C95.4339 202.351 95.4417 202.469 95.4053 202.577C95.3689 202.685 95.2912 202.774 95.1894 202.825C94.6418 203.085 93.8377 203.504 93.0575 203.909C92.2773 204.314 91.4568 204.738 90.8982 205.006C90.8354 205.04 90.7648 205.058 90.6931 205.057Z" fill="black"/>
<path d="M70.7147 190.317C70.649 190.315 70.5845 190.298 70.5264 190.267C70.4762 190.241 70.4317 190.206 70.3954 190.162C70.359 190.119 70.3316 190.069 70.3146 190.015C70.2976 189.961 70.2914 189.904 70.2963 189.847C70.3013 189.791 70.3173 189.736 70.3435 189.686C70.4192 189.539 72.2337 186.085 74.4995 184.227C74.5431 184.191 74.5933 184.164 74.6473 184.148C74.7014 184.131 74.7581 184.126 74.8143 184.131C74.8705 184.137 74.925 184.153 74.9748 184.18C75.0246 184.207 75.0687 184.243 75.1044 184.287C75.177 184.375 75.2115 184.489 75.2003 184.603C75.1891 184.718 75.1332 184.823 75.0449 184.895C72.919 186.639 71.1325 190.052 71.1065 190.086C71.0693 190.157 71.0129 190.217 70.9436 190.258C70.8744 190.299 70.7951 190.319 70.7147 190.317Z" fill="black"/>
<g style="mix-blend-mode:screen" opacity="0.6">
<path d="M108.864 177.598C108.748 177.595 108.635 177.561 108.536 177.499C107.71 176.981 106.735 176.752 105.765 176.847C105.681 176.856 105.595 176.848 105.514 176.823C105.432 176.798 105.357 176.758 105.291 176.704C105.225 176.65 105.171 176.583 105.13 176.508C105.09 176.433 105.065 176.35 105.057 176.266C105.049 176.181 105.057 176.095 105.081 176.014C105.106 175.932 105.146 175.856 105.199 175.79C105.253 175.724 105.319 175.669 105.394 175.629C105.469 175.589 105.551 175.564 105.635 175.555C106.892 175.432 108.154 175.728 109.225 176.399C109.297 176.444 109.359 176.503 109.408 176.572C109.458 176.642 109.493 176.72 109.512 176.803C109.531 176.886 109.533 176.972 109.519 177.056C109.505 177.14 109.474 177.22 109.429 177.292C109.37 177.388 109.286 177.467 109.187 177.52C109.088 177.574 108.977 177.6 108.864 177.598Z" fill="#B4E100"/>
</g>
<path d="M87.5426 204.124C87.4522 204.123 87.3631 204.102 87.2812 204.063C87.1994 204.024 87.1267 203.968 87.0679 203.899C86.3652 203.09 85.0753 202.462 83.8455 202.34C83.761 202.332 83.6789 202.308 83.6039 202.268C83.529 202.228 83.4626 202.174 83.4087 202.108C83.3547 202.042 83.3142 201.966 83.2896 201.885C83.2649 201.804 83.2565 201.718 83.2649 201.633C83.2824 201.462 83.3664 201.305 83.4988 201.196C83.6312 201.087 83.8012 201.035 83.9718 201.051C85.5346 201.206 87.1348 201.993 88.0463 203.054C88.158 203.184 88.2137 203.353 88.2011 203.525C88.1886 203.696 88.1089 203.856 87.9795 203.968C87.8581 204.073 87.7025 204.128 87.5426 204.124Z" fill="#FF5A5A"/>
<path d="M89.7146 210.165C89.5435 210.161 89.3811 210.089 89.2628 209.965C89.1449 209.84 89.0807 209.674 89.0843 209.503C89.085 209.46 89.0903 209.418 89.0999 209.376C89.1091 209.335 89.1221 209.295 89.1388 209.256C89.1567 209.217 89.1775 209.18 89.201 209.145C89.2254 209.11 89.2534 209.078 89.2845 209.049C89.4086 208.931 89.5742 208.867 89.7454 208.87C89.9166 208.874 90.0791 208.947 90.1972 209.071C90.2259 209.102 90.2523 209.135 90.2761 209.171C90.298 209.207 90.3164 209.245 90.3311 209.284C90.3466 209.324 90.3583 209.365 90.3661 209.406C90.3729 209.448 90.3761 209.491 90.3757 209.533C90.3741 209.576 90.3689 209.618 90.3601 209.66C90.3501 209.701 90.3364 209.741 90.3193 209.78C90.3024 209.818 90.2822 209.855 90.259 209.891C90.2331 209.924 90.2052 209.956 90.1755 209.986C90.0516 210.105 89.8858 210.169 89.7146 210.165Z" fill="black"/>
<path d="M88.0176 221.337C87.9229 221.335 87.8297 221.312 87.7449 221.27C87.6601 221.228 87.5857 221.167 87.5271 221.092C87.4207 220.957 87.3719 220.785 87.3916 220.615C87.4112 220.444 87.4976 220.288 87.6318 220.18C89.4197 218.76 90.6532 218.424 91.7412 218.128C92.8965 217.813 93.8102 217.563 95.2622 216.005C95.3789 215.879 95.5405 215.805 95.7115 215.799C95.8826 215.793 96.049 215.855 96.1743 215.972C96.2364 216.03 96.2865 216.1 96.3216 216.177C96.3568 216.255 96.3763 216.339 96.3792 216.424C96.382 216.509 96.3681 216.594 96.3382 216.674C96.3083 216.753 96.263 216.826 96.2049 216.889C94.5029 218.716 93.3258 219.038 92.0797 219.377C90.7359 219.686 89.4841 220.309 88.427 221.197C88.3105 221.289 88.1661 221.339 88.0176 221.337Z" fill="black"/>
<path d="M123.129 226.175C123.052 226.172 122.976 226.156 122.904 226.128C120.258 225.067 118.13 223.793 116.907 222.546C116.787 222.423 116.721 222.257 116.723 222.085C116.724 221.913 116.794 221.749 116.916 221.628C117.039 221.509 117.204 221.442 117.375 221.444C117.546 221.446 117.71 221.516 117.829 221.639C118.929 222.766 120.903 223.933 123.384 224.928C123.463 224.96 123.535 225.007 123.595 225.066C123.656 225.126 123.704 225.197 123.738 225.275C123.771 225.353 123.789 225.437 123.79 225.522C123.79 225.607 123.775 225.692 123.743 225.771C123.694 225.893 123.609 225.997 123.499 226.069C123.389 226.141 123.26 226.178 123.129 226.175Z" fill="#B4E100"/>
<path d="M98.8537 183.334C98.8534 183.348 98.853 183.362 98.8527 183.375C99.9093 187.676 102.433 195.034 110.232 192.661C119.139 189.949 116.903 181.747 115.848 177.447C115.848 177.432 115.84 177.419 115.836 177.405L98.8537 183.334Z" fill="black"/>
<path d="M107.081 192.733C113.119 192.611 112.705 190.367 112.732 190.35C112.315 189.221 110.669 187.947 109.165 188.127C108.721 188.178 108.101 188.323 107.792 188.712C107.606 188.95 107.488 189.096 106.915 188.934C106.498 188.808 106.066 188.745 105.631 188.746C104.806 188.802 102.74 189.234 103.498 191.683C103.468 192.266 104.416 192.487 104.461 192.561C104.603 192.515 106.261 192.75 107.081 192.733Z" fill="#E62828"/>
<path d="M115.512 189.109C114.062 189.349 112.54 189.661 110.977 190.047C108.612 190.624 106.286 191.355 104.015 192.235C105.59 193.156 107.621 193.463 110.249 192.664C112.878 191.864 114.498 190.605 115.512 189.109Z" fill="white"/>
<path d="M116.482 180.155C116.284 179.16 116.051 178.237 115.857 177.447C115.857 177.432 115.849 177.419 115.845 177.405L98.8536 183.337C98.8533 183.352 98.8529 183.366 98.8526 183.379C98.9959 183.958 99.1649 184.594 99.3695 185.252C102.037 184.986 104.681 184.525 107.282 183.872C111.51 182.827 114.43 181.464 116.482 180.155Z" fill="white"/>
<path d="M103.996 192.664C103.91 192.662 103.828 192.634 103.758 192.585C103.688 192.536 103.635 192.467 103.605 192.387C103.585 192.334 103.575 192.277 103.576 192.221C103.578 192.164 103.59 192.109 103.613 192.057C103.636 192.005 103.669 191.958 103.709 191.919C103.75 191.88 103.798 191.85 103.851 191.829C103.911 191.806 109.922 189.504 115.205 188.721C115.261 188.713 115.319 188.717 115.374 188.731C115.429 188.746 115.481 188.771 115.527 188.806C115.572 188.84 115.61 188.884 115.639 188.934C115.668 188.983 115.686 189.038 115.694 189.095C115.702 189.151 115.699 189.208 115.685 189.263C115.672 189.318 115.647 189.37 115.613 189.415C115.58 189.46 115.537 189.499 115.489 189.528C115.44 189.557 115.386 189.576 115.33 189.584C110.143 190.353 104.22 192.622 104.16 192.644C104.107 192.662 104.051 192.669 103.996 192.664Z" fill="black"/>
<path d="M107.196 193.551C106.024 193.534 104.874 193.222 103.853 192.644C100.18 190.546 98.875 185.227 98.4455 183.48C98.4421 183.467 98.4394 183.454 98.4374 183.441C98.4099 183.336 98.4232 183.225 98.4743 183.13C98.5255 183.034 98.6108 182.962 98.7131 182.927L115.705 176.994C115.759 176.975 115.817 176.967 115.875 176.971C115.932 176.975 115.989 176.99 116.04 177.017C116.092 177.043 116.138 177.079 116.175 177.123C116.212 177.167 116.241 177.218 116.258 177.274L116.271 177.321C116.272 177.328 116.272 177.334 116.271 177.341L116.343 177.634C116.898 179.886 117.66 182.973 117.177 185.912C116.595 189.464 114.301 191.871 110.362 193.07C109.339 193.398 108.27 193.56 107.196 193.551ZM99.3663 183.615C100.471 187.93 102.087 190.642 104.281 191.896C105.896 192.819 107.866 192.938 110.118 192.251C118.36 189.743 116.639 182.425 115.543 177.972L99.3663 183.615Z" fill="black"/>
<path d="M68.0847 202.708C68.0309 202.707 67.9778 202.696 67.9285 202.674C67.8231 202.63 67.7396 202.546 67.6961 202.44C67.6526 202.334 67.6527 202.215 67.6965 202.109C69.2695 198.336 72.5041 196.188 73.6243 195.681C73.6757 195.657 73.7314 195.644 73.788 195.642C73.8446 195.64 73.901 195.649 73.9541 195.669C74.0071 195.689 74.0557 195.719 74.0971 195.758C74.1384 195.797 74.1716 195.844 74.1949 195.895C74.2415 195.999 74.2452 196.118 74.2052 196.225C74.1651 196.332 74.0846 196.418 73.981 196.466C73.0213 196.905 69.9518 198.942 68.4971 202.443C68.4633 202.524 68.4058 202.593 68.3321 202.64C68.2585 202.688 68.1722 202.711 68.0847 202.708Z" fill="black"/>
<path d="M109.293 150.525C109.239 150.615 109.203 150.714 109.188 150.818C109.173 150.922 109.179 151.027 109.204 151.129C109.23 151.23 109.276 151.326 109.338 151.41C109.401 151.494 109.48 151.564 109.57 151.617C109.659 151.671 109.759 151.707 109.862 151.722C109.966 151.738 110.071 151.732 110.173 151.706C110.274 151.68 110.369 151.635 110.453 151.572C110.536 151.509 110.606 151.429 110.659 151.339C110.714 151.249 110.75 151.15 110.765 151.046C110.781 150.942 110.775 150.837 110.75 150.735C110.724 150.633 110.679 150.538 110.616 150.454C110.553 150.37 110.474 150.299 110.384 150.246C110.294 150.192 110.195 150.157 110.092 150.142C109.988 150.126 109.883 150.132 109.782 150.157C109.681 150.183 109.585 150.229 109.502 150.291C109.418 150.354 109.348 150.433 109.294 150.523" fill="white"/>
<path d="M95.9352 151.086C96.7299 154.102 93.1807 157.795 88.7092 156.095C84.7743 154.595 85.9258 149.802 87.8778 148.541C93.2479 145.077 95.3953 149.044 95.9388 151.086" fill="#F29100"/>
<path d="M88.7866 151.698C88.7045 153.028 89.8628 154.183 91.373 154.273C92.8832 154.364 94.174 153.362 94.2542 152.034C94.3345 150.705 93.1762 149.548 91.6678 149.457C90.1594 149.365 88.8651 150.367 88.7866 151.698Z" fill="#1D1D1B"/>
<path d="M90.8611 154.533C90.1567 154.452 89.4993 154.137 88.9927 153.64C88.7254 153.384 88.5165 153.073 88.3801 152.729C88.2438 152.384 88.1832 152.014 88.2027 151.644C88.2263 151.306 88.3163 150.977 88.4675 150.674C88.6187 150.371 88.8281 150.101 89.0837 149.88C89.7295 149.324 90.5686 149.046 91.4176 149.108C93.099 149.212 94.3891 150.515 94.2993 152.017C94.2741 152.387 94.1692 152.747 93.992 153.072C93.8148 153.398 93.5695 153.681 93.2728 153.902C92.6485 154.378 91.8734 154.609 91.0916 154.555C91.0087 154.549 90.9349 154.544 90.8611 154.533ZM91.5611 149.754C91.5016 149.753 91.4405 149.741 91.381 149.738C90.6982 149.686 90.0228 149.908 89.5021 150.354C89.3084 150.52 89.1496 150.723 89.0348 150.951C88.92 151.179 88.8516 151.428 88.8334 151.683C88.8193 151.963 88.866 152.244 88.9705 152.504C89.0749 152.765 89.2345 153 89.4383 153.192C89.8924 153.635 90.4921 153.896 91.1246 153.926C91.7564 153.973 92.3837 153.787 92.8894 153.404C93.1152 153.237 93.3023 153.023 93.4377 152.776C93.5732 152.529 93.6538 152.256 93.6741 151.975C93.738 150.878 92.8009 149.911 91.5609 149.762L91.5611 149.754Z" fill="#1D1D1B"/>
<path d="M90.8438 149.564C90.9455 149.893 90.9131 150.248 90.7536 150.553C90.5941 150.858 90.3206 151.088 89.993 151.191C89.6649 151.293 89.3095 151.261 89.0051 151.101C88.7006 150.941 88.4719 150.667 88.3691 150.338C88.267 150.008 88.2994 149.652 88.4593 149.346C88.6192 149.041 88.8934 148.811 89.2217 148.709C89.3842 148.658 89.5551 148.64 89.7245 148.655C89.894 148.671 90.0587 148.72 90.2094 148.799C90.36 148.879 90.4936 148.987 90.6024 149.118C90.7113 149.249 90.7933 149.401 90.8438 149.564Z" fill="white"/>
<path d="M91.7974 147.347C92.3865 147.42 92.9554 147.61 93.4715 147.904C93.9876 148.198 94.4406 148.592 94.8047 149.062C95.1688 149.532 95.4367 150.07 95.5932 150.644C95.7496 151.219 95.7914 151.818 95.7162 152.409C95.6431 153 95.4545 153.57 95.1612 154.088C94.8679 154.605 94.4756 155.06 94.0069 155.425C93.5381 155.79 93.0022 156.059 92.4297 156.216C91.8572 156.373 91.2595 156.415 90.6707 156.34C89.4815 156.191 88.4003 155.573 87.6651 154.624C86.9298 153.675 86.6007 152.471 86.75 151.278C86.8231 150.688 87.0118 150.117 87.3052 149.599C87.5987 149.082 87.9911 148.627 88.46 148.262C88.9289 147.897 89.4651 147.628 90.0378 147.471C90.6105 147.314 91.2085 147.272 91.7974 147.347ZM91.9018 146.519C90.4938 146.343 89.0735 146.734 87.9528 147.607C86.832 148.48 86.1024 149.764 85.9241 151.176C85.7488 152.588 86.1391 154.012 87.0093 155.136C87.8795 156.26 89.1587 156.991 90.5662 157.17C91.9744 157.346 93.3947 156.954 94.5154 156.081C95.636 155.207 96.3656 153.924 96.544 152.512C96.7192 151.1 96.3289 149.676 95.4586 148.552C94.5883 147.429 93.3092 146.698 91.9018 146.519Z" fill="#1D1D1B"/>
<path d="M106.7 151.136C105.731 152.878 107.347 155.73 110.389 155.387C113.064 155.089 113.106 151.931 112.094 150.841C109.316 147.844 107.359 149.961 106.703 151.14" fill="#F29100"/>
<path d="M111.026 152.647C110.868 153.485 109.967 154.016 109.013 153.834C108.059 153.652 107.413 152.826 107.581 151.99C107.748 151.154 108.642 150.623 109.594 150.805C110.546 150.987 111.194 151.813 111.025 152.649" fill="#1D1D1B"/>
<path d="M109.158 154.055C108.666 153.963 108.223 153.695 107.912 153.301C107.764 153.117 107.657 152.903 107.598 152.673C107.54 152.444 107.532 152.205 107.574 151.972C107.755 151.026 108.762 150.421 109.818 150.626C110.354 150.723 110.83 151.027 111.143 151.474C111.266 151.651 111.353 151.851 111.399 152.063C111.445 152.274 111.448 152.493 111.41 152.705C111.363 152.938 111.268 153.157 111.129 153.349C110.991 153.541 110.813 153.701 110.607 153.818C110.215 154.045 109.758 154.135 109.309 154.075C109.251 154.071 109.204 154.063 109.158 154.055ZM107.96 152.048C107.929 152.225 107.936 152.406 107.981 152.58C108.026 152.754 108.108 152.916 108.221 153.055C108.474 153.373 108.833 153.587 109.232 153.658C109.632 153.741 110.049 153.673 110.403 153.467C110.559 153.379 110.694 153.259 110.8 153.114C110.905 152.969 110.979 152.803 111.014 152.627C111.044 152.466 111.041 152.301 111.006 152.142C110.971 151.982 110.905 151.831 110.811 151.697C110.558 151.339 110.175 151.095 109.744 151.019L109.631 151C108.825 150.904 108.094 151.356 107.96 152.048Z" fill="#1D1D1B"/>
<path d="M110.101 151C109.986 151.188 109.95 151.413 110.001 151.628C110.051 151.842 110.185 152.027 110.371 152.143C110.559 152.259 110.784 152.295 110.998 152.244C111.212 152.193 111.397 152.059 111.513 151.872C111.628 151.684 111.663 151.458 111.612 151.243C111.561 151.029 111.428 150.844 111.241 150.728C111.148 150.671 111.045 150.633 110.938 150.615C110.83 150.598 110.72 150.602 110.615 150.627C110.509 150.652 110.409 150.698 110.321 150.762C110.232 150.826 110.158 150.907 110.101 151Z" fill="white"/>
<path d="M109.85 149.472C110.227 149.519 110.59 149.64 110.92 149.828C111.249 150.016 111.539 150.268 111.772 150.568C112.004 150.868 112.176 151.212 112.276 151.579C112.376 151.946 112.403 152.329 112.356 152.706C112.309 153.084 112.188 153.448 112.001 153.779C111.813 154.11 111.562 154.4 111.263 154.633C110.963 154.867 110.621 155.039 110.255 155.139C109.889 155.24 109.507 155.267 109.131 155.22C108.754 155.173 108.391 155.052 108.061 154.864C107.731 154.676 107.441 154.425 107.208 154.124C106.976 153.824 106.804 153.48 106.704 153.113C106.603 152.746 106.576 152.363 106.623 151.985C106.67 151.608 106.791 151.243 106.979 150.912C107.167 150.582 107.418 150.291 107.717 150.058C108.017 149.824 108.36 149.652 108.726 149.552C109.092 149.451 109.474 149.424 109.85 149.472ZM109.917 148.941C109.016 148.83 108.107 149.082 107.391 149.642C106.674 150.202 106.208 151.024 106.096 151.928C105.985 152.83 106.234 153.74 106.791 154.459C107.347 155.177 108.164 155.645 109.064 155.76C109.965 155.871 110.874 155.619 111.59 155.059C112.307 154.499 112.772 153.677 112.885 152.773C112.996 151.869 112.745 150.958 112.187 150.239C111.629 149.521 110.809 149.054 109.908 148.941L109.917 148.941Z" fill="#1D1D1B"/>
</svg>
