<svg width="167" height="206" viewBox="0 0 167 206" fill="none" xmlns="http://www.w3.org/2000/svg">
<g clip-path="url(#clip0_1590_18374)">
<path d="M158.009 59.7862C154.658 52.7496 153.761 44.2452 155.569 36.6641C158.472 30.5867 159.054 23.6622 157.205 17.1896C156.104 13.2885 153.815 9.82618 150.653 7.28235C147.491 4.73851 143.615 3.23916 139.56 2.99193C136.134 2.65817 132.676 3.03056 129.4 4.08604C126.124 5.14152 123.1 6.85755 120.516 9.12754C113.388 12.7533 105.168 13.6209 97.4395 11.5633C92.2914 9.15004 86.5633 8.23928 80.917 8.9362C75.2022 9.22085 69.7297 11.3309 65.3071 14.955C58.1956 18.5803 49.9905 19.4464 42.2788 17.3856C36.1294 14.2606 29.0312 13.5386 22.3739 15.3611C18.3744 16.4686 14.8304 18.815 12.2533 22.0619C9.67612 25.3088 8.19918 29.2882 8.03553 33.4258C7.50392 39.3252 8.81642 45.2431 11.7927 50.3664C15.3966 58.3774 16.3414 67.3287 14.4895 75.9156C13.2643 79.0519 12.681 82.4011 12.774 85.7654C12.867 89.1297 13.6344 92.441 15.031 95.5039C16.2305 98.7417 18.2831 101.596 20.9727 103.767C23.6623 105.938 26.8893 107.345 30.3137 107.839C39.6589 109.161 44.8475 105.618 51.5147 100.69C58.1827 97.0908 66.0046 96.2652 73.2771 98.3929C78.4563 101.501 84.546 102.747 90.5351 101.925C96.5033 101.245 102.128 98.7857 106.675 94.8677C113.418 91.4556 121.181 90.6362 128.486 92.5655C134.553 95.9876 141.694 96.9887 148.473 95.3672C152.456 94.3374 156.013 92.0824 158.64 88.9224C161.266 85.7623 162.784 82.288 163.061 78.1929C163.515 71.4614 161.544 64.3659 157.435 59.0103" fill="#70B62E"/>
</g>
<path d="M44.7889 57.5222L43.4364 57.6649L42.3951 47.7997L36.3487 48.4379L37.39 58.3031L36.0375 58.4459L34.8618 47.3078L43.6132 46.3841L44.7889 57.5222ZM51.0574 53.0796L47.2546 53.481L47.1286 52.2877L50.9315 51.8863L51.0574 53.0796ZM59.2712 54.0146L59.9732 54.8737C59.442 55.7342 58.5664 56.2288 57.3465 56.3576C56.2009 56.4785 55.2369 56.237 54.4545 55.6332C53.6827 55.0282 53.2369 54.1582 53.1171 53.0231C53.0063 51.973 53.2575 51.0508 53.8709 50.2567C54.4843 49.4626 55.3107 49.0107 56.3503 48.901C57.602 48.7689 58.5738 48.9827 59.2657 49.5425L58.7828 50.6071C58.1786 50.1667 57.4681 49.9897 56.6513 50.0759C55.983 50.1464 55.4306 50.4514 54.9942 50.9909C54.5672 51.5186 54.3924 52.1484 54.4696 52.8804C54.5513 53.6547 54.8603 54.2442 55.3964 54.6489C55.9442 55.063 56.5841 55.2314 57.316 55.1541C58.1434 55.0668 58.7951 54.687 59.2712 54.0146ZM64.8868 51.6199L61.084 52.0213L60.958 50.828L64.7609 50.4266L64.8868 51.6199ZM73.1006 52.5549L73.8027 53.414C73.2714 54.2745 72.3958 54.7691 71.1759 54.8979C70.0303 55.0188 69.0663 54.7773 68.2839 54.1734C67.5121 53.5685 67.0663 52.6984 66.9465 51.5634C66.8357 50.5132 67.087 49.5911 67.7003 48.797C68.3137 48.0029 69.1402 47.551 70.1797 47.4413C71.4314 47.3091 72.4032 47.523 73.0952 48.0828L72.6122 49.1473C72.008 48.707 71.2975 48.5299 70.4807 48.6162C69.8124 48.6867 69.26 48.9917 68.8236 49.5312C68.3966 50.0589 68.2218 50.6887 68.299 51.4207C68.3808 52.195 68.6897 52.7845 69.2258 53.1891C69.7736 53.6033 70.4135 53.7717 71.1454 53.6944C71.9728 53.6071 72.6246 53.2273 73.1006 52.5549ZM78.7163 50.1602L74.9134 50.5616L74.7874 49.3682L78.5903 48.9668L78.7163 50.1602ZM86.93 51.0952L87.6321 51.9542C87.1008 52.8148 86.2252 53.3094 85.0053 53.4382C83.8597 53.5591 82.8957 53.3176 82.1133 52.7137C81.3416 52.1087 80.8958 51.2387 80.776 50.1037C80.6651 49.0535 80.9164 48.1314 81.5297 47.3373C82.1431 46.5432 82.9696 46.0913 84.0091 45.9815C85.2608 45.8494 86.2327 46.0633 86.9246 46.6231L86.4417 47.6876C85.8374 47.2473 85.1269 47.0702 84.3101 47.1564C83.6418 47.227 83.0895 47.532 82.653 48.0714C82.2261 48.5992 82.0512 49.229 82.1285 49.9609C82.2102 50.7353 82.5191 51.3248 83.0552 51.7294C83.603 52.1435 84.2429 52.312 84.9749 52.2347C85.8023 52.1474 86.454 51.7675 86.93 51.0952ZM89.1767 52.0969C89.1499 51.8423 89.2081 51.6324 89.3516 51.4671C89.4939 51.2912 89.7083 51.1881 89.9947 51.1578C90.3341 51.122 90.625 51.2361 90.8674 51.5001C91.1087 51.7535 91.254 52.1136 91.3032 52.5804C91.3637 53.1532 91.2566 53.6632 90.9821 54.1105C90.7192 54.5673 90.3257 54.9038 89.8015 55.12L89.3876 54.5523C89.9213 54.3244 90.2233 53.9332 90.2934 53.3788C90.3296 53.0103 90.2963 52.7456 90.1936 52.5849C90.14 52.687 90.0283 52.7471 89.8586 52.765C89.6995 52.7818 89.549 52.728 89.4072 52.6035C89.2748 52.4673 89.198 52.2984 89.1767 52.0969ZM100.071 44.447L101.551 44.2908L99.3539 48.0141L102.466 51.4343L100.907 51.5989L98.5007 48.9246L96.6743 52.0456L95.1945 52.2018L97.5148 48.2725L94.5978 45.0248L96.1572 44.8602L98.3839 47.3603L100.071 44.447ZM104.097 50.3611C103.321 49.7137 102.876 48.8543 102.763 47.7829C102.649 46.7009 102.905 45.7729 103.531 44.9989C104.167 44.2132 105.052 43.7604 106.187 43.6406C107.322 43.5208 108.277 43.7793 109.053 44.4161C109.837 45.0412 110.287 45.8948 110.401 46.9768C110.515 48.0587 110.254 48.9926 109.619 49.7783C108.992 50.5524 108.112 50.9993 106.977 51.1191C105.852 51.2377 104.892 50.9851 104.097 50.3611ZM104.623 45.7364C104.205 46.2524 104.036 46.887 104.116 47.6402C104.195 48.3933 104.488 48.9792 104.993 49.3978C105.51 49.8259 106.129 50.0018 106.851 49.9257C107.572 49.8496 108.136 49.554 108.543 49.0392C108.959 48.5125 109.128 47.8727 109.048 47.1195C108.971 46.3876 108.673 45.8023 108.155 45.3636C107.649 44.9344 107.035 44.7578 106.313 44.834C105.592 44.9101 105.028 45.2109 104.623 45.7364ZM115.965 42.7695L117.238 42.6351L117.993 49.7953L116.721 49.9297L116.427 47.1452C115.912 47.5534 115.267 47.7985 114.493 47.8802C112.796 48.0593 111.851 47.2366 111.658 45.4121L111.43 43.2481L112.782 43.1054L112.996 45.1261C113.114 46.2506 113.688 46.7585 114.717 46.6499C115.385 46.5793 115.916 46.3732 116.309 46.0314L115.965 42.7695ZM125.752 47.1745L126.256 48.1349C125.632 48.8335 124.769 49.2411 123.666 49.3575C122.499 49.4807 121.535 49.2392 120.774 48.6331C120.002 48.0281 119.556 47.1581 119.436 46.0231C119.323 44.9517 119.558 44.0259 120.141 43.2458C120.713 42.4668 121.577 42.0162 122.733 41.8942C123.688 41.7934 124.51 42.0176 125.201 42.5668C125.902 43.1043 126.303 43.8557 126.405 44.821C126.437 45.1286 126.441 45.4178 126.416 45.6886L120.91 46.2697C121.034 46.9324 121.339 47.4312 121.824 47.766C122.321 48.0997 122.924 48.2291 123.635 48.1541C124.569 48.0555 125.274 47.729 125.752 47.1745ZM122.795 43.0943C122.169 43.1603 121.668 43.3902 121.291 43.7839C120.925 44.1766 120.735 44.6632 120.722 45.2438L125.065 44.7853C124.971 44.1947 124.72 43.7492 124.313 43.4489C123.916 43.1476 123.411 43.0293 122.795 43.0943ZM137.628 47.7229L128.558 48.6802L127.802 41.52L129.075 41.3857L129.705 47.3525L132.33 47.0754L131.701 41.1085L132.974 40.9742L133.603 46.941L136.229 46.6639L135.599 40.6971L136.872 40.5627L137.628 47.7229ZM35.9764 75.579L36.6784 76.438C36.1472 77.2985 35.2716 77.7932 34.0517 77.9219C32.9061 78.0429 31.9421 77.8014 31.1597 77.1975C30.3879 76.5925 29.9421 75.7225 29.8223 74.5875C29.7115 73.5373 29.9627 72.6152 30.5761 71.8211C31.1895 71.027 32.0159 70.575 33.0555 70.4653C34.3072 70.3332 35.279 70.547 35.9709 71.1068L35.488 72.1714C34.8838 71.7311 34.1733 71.554 33.3565 71.6402C32.6882 71.7107 32.1358 72.0157 31.6994 72.5552C31.2724 73.0829 31.0975 73.7128 31.1748 74.4447C31.2565 75.2191 31.5655 75.8086 32.1016 76.2132C32.6494 76.6273 33.2893 76.7957 34.0212 76.7185C34.8486 76.6312 35.5003 76.2513 35.9764 75.579ZM39.7198 77.1628L38.4469 77.2971L37.6911 70.1369L38.8527 70.0143L41.9799 73.272L44.2149 69.4483L45.3446 69.3291L46.1004 76.4893L44.8274 76.6237L44.2766 71.4046L42.1454 74.9922L42.0976 74.9972L39.1689 71.9438L39.7198 77.1628ZM48.1928 70.5569L47.7512 69.5738C48.416 69.0639 49.1887 68.7624 50.0691 68.6695C51.0344 68.5676 51.7597 68.7324 52.245 69.1638C52.7303 69.5953 53.0256 70.3096 53.1308 71.3067L53.5944 75.6983L52.3851 75.8259L52.2877 74.9031C51.7982 75.6519 51.0709 76.0773 50.1056 76.1792C49.4479 76.2486 48.8968 76.1083 48.4523 75.7584C48.0066 75.3978 47.748 74.8781 47.6763 74.1992C47.6024 73.4991 47.7935 72.9212 48.2495 72.4655C48.7044 71.9991 49.3349 71.7234 50.1411 71.6383C50.8943 71.5588 51.5045 71.65 51.9719 71.9117C51.8868 71.1055 51.7144 70.5391 51.4547 70.2126C51.195 69.886 50.7469 69.7564 50.1105 69.8235C49.4634 69.8918 48.8242 70.1363 48.1928 70.5569ZM50.4302 74.9865C51.1409 74.9115 51.7237 74.5389 52.1785 73.8688L52.0828 72.9618C51.6037 72.6906 51.0512 72.5881 50.4253 72.6541C49.9904 72.7 49.6356 72.8447 49.361 73.0882C49.0959 73.32 48.9829 73.6215 49.0221 73.9928C49.059 74.3429 49.1995 74.6069 49.4436 74.7849C49.6982 74.9619 50.0271 75.029 50.4302 74.9865ZM59.0753 67.8798L60.3483 67.7454L61.104 74.9056L59.8311 75.04L59.5372 72.2555C59.0225 72.6637 58.378 72.9088 57.6037 72.9905C55.9064 73.1696 54.9615 72.3469 54.7689 70.5224L54.5405 68.3584L55.893 68.2157L56.1063 70.2364C56.225 71.3609 56.7988 71.8688 57.8278 71.7602C58.496 71.6896 59.0267 71.4835 59.4196 71.1417L59.0753 67.8798ZM69.9258 73.9745L68.6528 74.1089L68.3337 71.0856L64.3558 71.5055L64.6749 74.5287L63.402 74.6631L62.6462 67.5029L63.9192 67.3685L64.2299 70.3121L68.2078 69.8923L67.8971 66.9486L69.17 66.8143L69.9258 73.9745ZM77.0753 67.8301L73.5009 73.5971L72.228 73.7315L71.4722 66.5713L72.7451 66.4369L73.3078 71.7673L76.8822 66.0002L78.1551 65.8659L78.9109 73.0261L77.6379 73.1605L77.0753 67.8301ZM86.0722 66.8804L82.4978 72.6475L81.2249 72.7819L80.4691 65.6216L81.742 65.4873L82.3047 70.8177L85.879 65.0506L87.152 64.9162L87.9077 72.0765L86.6348 72.2108L86.0722 66.8804ZM81.1012 61.8545L82.2945 61.7285C82.4466 62.5598 82.8993 62.9357 83.6524 62.8562C84.3631 62.7812 84.7061 62.3213 84.6813 61.4766L85.8746 61.3506C85.9429 61.9977 85.7767 62.5569 85.376 63.0282C84.9847 63.4878 84.4444 63.754 83.7549 63.8268C83.0017 63.9063 82.3864 63.7675 81.9089 63.4103C81.441 63.0414 81.1717 62.5228 81.1012 61.8545ZM99.0945 68.9168L99.7966 69.7758C99.2653 70.6363 98.3897 71.131 97.1698 71.2597C96.0242 71.3807 95.0602 71.1392 94.2778 70.5353C93.506 69.9303 93.0602 69.0603 92.9404 67.9253C92.8296 66.8751 93.0808 65.953 93.6942 65.1589C94.3076 64.3648 95.134 63.9128 96.1736 63.8031C97.4253 63.671 98.3971 63.8848 99.089 64.4446L98.6061 65.5092C98.0019 65.0689 97.2914 64.8918 96.4746 64.978C95.8063 65.0485 95.2539 65.3535 94.8175 65.893C94.3905 66.4207 94.2157 67.0506 94.2929 67.7825C94.3747 68.5569 94.6836 69.1464 95.2197 69.551C95.7675 69.9651 96.4074 70.1335 97.1393 70.0563C97.9667 69.969 98.6184 69.5891 99.0945 68.9168ZM106.637 68.2976L107.141 69.2581C106.517 69.9567 105.654 70.3642 104.551 70.4807C103.384 70.6038 102.42 70.3624 101.659 69.7562C100.887 69.1512 100.441 68.2812 100.321 67.1462C100.208 66.0748 100.443 65.1491 101.026 64.3689C101.598 63.5899 102.462 63.1394 103.618 63.0173C104.573 62.9166 105.396 63.1408 106.086 63.69C106.787 64.2274 107.188 64.9788 107.29 65.9441C107.322 66.2517 107.326 66.5409 107.301 66.8117L101.795 67.3928C101.919 68.0555 102.224 68.5543 102.709 68.8892C103.206 69.2229 103.809 69.3522 104.52 69.2772C105.454 69.1787 106.159 68.8522 106.637 68.2976ZM103.68 64.2174C103.055 64.2835 102.553 64.5134 102.177 64.9071C101.81 65.2997 101.62 65.7863 101.607 66.367L105.95 65.9085C105.856 65.3178 105.605 64.8723 105.198 64.5721C104.802 64.2707 104.296 64.1525 103.68 64.2174ZM113.286 62.1578L114.957 61.9814L112.183 65.7333L116.015 69.1098L114.248 69.2962L110.632 65.9774L113.286 62.1578ZM110.716 69.669L109.443 69.8034L108.687 62.6432L109.96 62.5088L110.716 69.669ZM118.977 72.0149L117.704 72.1492L116.612 61.8067L117.885 61.6723L117.974 62.5156C118.197 62.1918 118.522 61.9161 118.949 61.6888C119.374 61.4508 119.825 61.3066 120.303 61.2563C121.321 61.1488 122.158 61.4037 122.813 62.021C123.488 62.6255 123.882 63.4634 123.995 64.5348C124.111 65.6274 123.863 66.5813 123.252 67.3966C122.65 68.2002 121.792 68.6608 120.678 68.7784C119.819 68.8691 119.128 68.7757 118.605 68.4984L118.977 72.0149ZM120.063 62.4883C119.214 62.5778 118.559 62.9794 118.098 63.6931L118.473 67.2414C119.074 67.5533 119.73 67.6718 120.441 67.5968C121.194 67.5173 121.768 67.2153 122.163 66.691C122.568 66.1549 122.73 65.4996 122.648 64.7253C122.568 63.9721 122.298 63.3946 121.837 62.9927C121.376 62.5803 120.784 62.4121 120.063 62.4883ZM131.67 65.6554L132.173 66.6158C131.55 67.3144 130.687 67.722 129.583 67.8384C128.417 67.9616 127.453 67.7201 126.691 67.114C125.92 66.509 125.474 65.639 125.354 64.504C125.241 63.4326 125.476 62.5068 126.058 61.7267C126.631 60.9477 127.495 60.4971 128.651 60.3751C129.606 60.2743 130.428 60.4985 131.119 61.0477C131.819 61.5852 132.221 62.3366 132.322 63.3019C132.355 63.6095 132.359 63.8987 132.334 64.1695L126.828 64.7506C126.952 65.4133 127.256 65.9121 127.742 66.2469C128.239 66.5806 128.842 66.71 129.553 66.635C130.486 66.5365 131.192 66.2099 131.67 65.6554ZM128.713 61.5752C128.087 61.6412 127.586 61.8711 127.209 62.2648C126.843 62.6575 126.653 63.1441 126.639 63.7247L130.983 63.2662C130.889 62.6756 130.638 62.2301 130.231 61.9298C129.834 61.6285 129.328 61.5102 128.713 61.5752ZM135.433 61.1072L132.808 61.3843L132.673 60.1114L139.197 59.4228L139.331 60.6957L136.706 60.9729L137.327 66.8602L136.055 66.9945L135.433 61.1072ZM144.894 57.6953C144.843 57.2073 144.613 56.8132 144.206 56.5129C143.81 56.2116 143.33 56.0905 142.768 56.1499C141.856 56.2462 141.155 56.717 140.665 57.5625L139.812 56.7998C140.058 56.2805 140.441 55.8485 140.962 55.5039C141.483 55.1486 142.066 54.9369 142.713 54.8686C143.7 54.7644 144.513 54.9468 145.152 55.4156C145.791 55.8738 146.151 56.4954 146.234 57.2803C146.287 57.7789 146.248 58.2281 146.119 58.6279C146.088 58.7384 146.05 58.8442 146.007 58.9453C145.965 59.0464 145.911 59.1486 145.847 59.2519C145.781 59.3446 145.726 59.4255 145.679 59.4948C145.643 59.5523 145.576 59.6344 145.48 59.7411C145.383 59.8371 145.315 59.9086 145.277 59.9555C145.249 59.9907 145.177 60.068 145.061 60.1876C144.943 60.2965 144.87 60.3632 144.84 60.3878C144.782 60.4475 144.7 60.5313 144.593 60.6391C144.496 60.7351 144.419 60.8131 144.361 60.8728C144.313 60.9314 144.246 61.0082 144.16 61.1032C144.073 61.1981 144.007 61.2802 143.961 61.3494C143.914 61.4187 143.864 61.5044 143.811 61.6066C143.757 61.7088 143.719 61.804 143.696 61.8922C143.684 61.9793 143.667 62.0776 143.647 62.187C143.637 62.2953 143.638 62.4131 143.652 62.5404C143.675 62.656 143.704 62.7816 143.74 62.9173L142.596 63.0541C142.299 62.0665 142.464 61.2499 143.094 60.6043C143.191 60.5083 143.352 60.3572 143.577 60.1511C143.811 59.9333 143.991 59.7588 144.117 59.6275C144.241 59.4857 144.378 59.3103 144.528 59.1015C144.688 58.8915 144.793 58.6712 144.844 58.4406C144.905 58.2089 144.922 57.9605 144.894 57.6953ZM142.526 65.4426C142.502 65.2092 142.566 65.004 142.719 64.827C142.871 64.6394 143.084 64.531 143.36 64.5019C143.583 64.4784 143.788 64.5425 143.976 64.6943C144.163 64.8461 144.269 65.0334 144.292 65.2562C144.319 65.5108 144.263 65.7366 144.123 65.9338C143.981 66.1203 143.789 66.2264 143.545 66.2522C143.269 66.2813 143.037 66.2199 142.85 66.0681C142.661 65.9057 142.553 65.6972 142.526 65.4426Z" fill="#043314"/>
<path d="M80.0008 142.275C79.883 142.268 79.7689 142.202 79.6546 142.136C79.3745 141.883 79.2816 141.464 79.5349 141.184C79.5349 141.184 80.8851 139.374 80.112 137.495C79.8532 136.889 79.4035 136.507 78.8395 136.059C78.2203 135.549 77.4868 134.973 77.0173 133.94C76.5478 132.907 76.6082 131.906 76.658 131.082C76.7468 129.61 76.8001 128.727 74.4322 127.816C74.0861 127.677 73.8754 127.25 74.0145 126.904C74.1536 126.558 74.58 126.347 74.9262 126.486C78.2184 127.749 78.1117 129.515 78.0158 131.105C77.9696 131.87 77.9234 132.636 78.234 133.364C78.5447 134.092 79.0532 134.477 79.6761 134.928C80.2953 135.438 81.0323 135.955 81.3841 136.981C82.4089 139.584 80.6734 141.902 80.6074 142.017C80.4754 142.245 80.2363 142.29 80.0008 142.275Z" fill="black"/>
<path d="M90.369 141.838C90.1335 141.823 89.9676 141.636 89.8605 141.452C89.8087 141.331 88.3966 138.291 89.3326 135.511C89.6946 134.41 90.4402 133.805 91.1234 133.255C91.7442 132.761 92.3061 132.263 92.5878 131.512C92.9356 130.646 92.93 129.759 92.862 128.928C92.8437 127.272 92.7808 125.377 95.7371 124.374C96.0974 124.278 96.5025 124.42 96.6542 124.843C96.7507 125.203 96.608 125.608 96.1852 125.76C94.196 126.408 94.2016 127.295 94.2787 128.954C94.2807 129.9 94.3345 130.967 93.9137 132.064C93.4893 133.221 92.6848 133.822 92.0015 134.372C91.3808 134.866 90.8813 135.309 90.662 136.005C89.8793 138.203 91.1396 140.82 91.136 140.879C91.2913 141.243 91.1487 141.648 90.7848 141.804C90.6634 141.855 90.4832 141.904 90.369 141.838Z" fill="black"/>
<path d="M83.7959 170.456C84.5544 193.135 51.7428 194.346 31.3955 194.654C30.2732 194.646 29.6062 195.906 30.4432 196.724C32.1726 198.424 36.7693 200.593 43.2086 200.627C54.4903 200.717 54.9431 199.09 63.9427 198.805C72.8209 198.573 75.6725 200.282 87.0238 200.198C97.3116 200.11 108.395 198.593 112.629 197.962C113.581 197.842 114.224 196.994 114.277 196.111C114.261 195.401 113.888 194.729 113.258 194.395C111.077 193.318 107.576 192.575 102.833 188.92C95.6606 183.405 93.834 170.589 96.6872 164.438C97.5288 162.244 99.7232 154.28 97.5715 154.682C89.9765 156.174 87.3772 150.285 87.3772 150.285C87.3772 150.285 92.7358 152.558 97.5985 148.36C99.2183 146.981 97.3697 146.278 96.022 144.129C94.5566 141.972 92.6222 140.732 90.0117 139.925C84.9048 138.376 79.9827 140.619 78.1355 145.767C76.7822 149.586 77.4416 153.349 79.6551 157.796C81.5438 161.752 83.5731 164.356 83.7959 170.456Z" fill="#8CC800"/>
<path d="M44.9393 201.322C44.3469 201.346 43.7581 201.31 43.1658 201.333C36.8442 201.307 31.946 199.238 29.8812 197.222C29.3244 196.657 29.135 195.877 29.4132 195.185C29.6949 194.434 30.4335 193.946 31.3202 193.941C44.3344 193.722 68.6444 193.357 78.5496 182.963C81.7069 179.608 83.2581 175.447 83.0856 170.472C82.906 165.616 81.5832 163.054 79.9874 160.121C79.6697 159.511 79.2966 158.838 78.9271 158.107C76.5029 153.233 76.0273 149.363 77.3217 145.541C79.1867 140.099 84.4245 137.519 90.0506 139.277C92.8931 140.158 94.9346 141.581 96.4589 143.741C96.8355 144.355 97.2817 144.796 97.6101 145.229C98.274 145.978 98.8273 146.603 98.7775 147.427C98.7456 147.957 98.4816 148.414 97.9197 148.912C94.5553 151.782 90.9494 151.8 88.8439 151.437C90.1129 152.932 92.7148 154.862 97.3196 153.958C97.7978 153.868 98.2617 154.015 98.5937 154.389C98.981 154.826 99.3916 155.856 98.6967 159.537C98.285 161.462 97.6824 163.612 97.2652 164.651L97.2616 164.71C95.9028 167.641 95.6845 172.238 96.6544 176.728C97.7101 181.756 100.059 185.916 103.225 188.294C106.616 190.862 109.385 191.975 111.403 192.806C112.21 193.15 112.902 193.428 113.536 193.703C114.453 194.172 114.988 195.09 114.99 196.036C114.971 197.335 114.02 198.4 112.766 198.62C108.532 199.251 97.449 200.769 87.0987 200.912C81.1858 200.969 77.4906 200.51 74.2628 200.137C71.2117 199.776 68.2783 199.422 64.0176 199.519C60.0513 199.634 57.8407 200.033 55.4535 200.42C52.7684 200.849 50.0832 201.278 44.9393 201.322ZM86.6305 140.134C83.0245 140.153 79.9973 142.334 78.7135 145.98C77.4993 149.452 77.9409 152.906 80.2062 157.475C80.5204 158.144 80.8935 158.817 81.2112 159.427C82.8035 162.419 84.2922 165.168 84.4505 170.378C84.6606 175.709 82.9667 180.275 79.5561 183.91C75.1395 188.549 67.9196 191.659 57.4698 193.451C48.6935 194.93 39.3995 195.197 31.3563 195.302C31.003 195.281 30.8121 195.506 30.7426 195.679C30.6766 195.793 30.6659 195.97 30.8908 196.16C32.6755 197.923 37.2899 199.797 43.1958 199.858C49.3995 199.878 52.3238 199.404 55.1891 198.927C57.5174 198.536 59.8457 198.144 63.9298 198.036C68.3118 197.887 71.2452 198.242 74.4105 198.669C77.7561 199.048 81.2747 199.497 87.0698 199.433C97.3577 199.345 108.323 197.82 112.557 197.189C113.153 197.107 113.597 196.602 113.574 196.01C113.602 195.539 113.333 195.109 112.931 194.907C112.356 194.636 111.723 194.362 110.913 194.076C108.836 193.242 105.949 192.122 102.392 189.366C99.0049 186.739 96.4934 182.332 95.3413 176.944C94.2749 172.093 94.5663 167.265 96.0607 164.046C96.4191 163.004 97.0734 160.975 97.4226 159.105C98.0089 156.245 97.7643 155.403 97.6572 155.219C93.4716 156.03 90.7164 154.682 89.1353 153.464C87.4435 152.121 86.7116 150.54 86.6562 150.478C86.5527 150.235 86.574 149.882 86.8202 149.719C87.0111 149.494 87.309 149.453 87.5963 149.589C87.8283 149.662 92.6747 151.609 97.1004 147.799C97.3502 147.577 97.4786 147.408 97.4857 147.29C97.4999 147.055 97.1127 146.617 96.67 146.118C96.2828 145.681 95.7848 145.119 95.3528 144.443C94.0499 142.532 92.2921 141.303 89.7405 140.499C88.6324 140.255 87.5761 140.132 86.6305 140.134Z" fill="black"/>
<path d="M85.0618 151.445C84.8263 151.431 84.6014 151.24 84.6156 151.005C84.6192 150.946 84.6116 149.113 85.8603 148.007C86.0476 147.841 86.342 147.858 86.508 148.046C86.674 148.233 86.6562 148.528 86.4689 148.694C85.5324 149.523 85.5649 150.944 85.5649 150.944C85.5471 151.238 85.3009 151.4 85.0618 151.445Z" fill="black"/>
<path d="M78.3798 167.175C83.5794 175.998 80.2932 184.428 75.5461 187.687C74.2528 188.554 69.2236 190.615 69.2236 190.615C69.2236 190.615 66.0161 192.844 59.5341 193.516C54.7775 193.998 50.3325 192.252 46.2099 188.103C41.4752 183.326 38.0568 169.469 49.9502 161.381C59.926 154.715 72.6411 157.491 78.3798 167.175Z" fill="#E62828"/>
<path d="M74.0676 167.151C73.891 167.14 73.659 167.067 73.5519 166.883C70.575 163.335 66.1371 161.472 61.0521 161.519C60.6399 161.495 60.3597 161.241 60.3257 160.826C60.3506 160.413 60.6039 160.133 61.0196 160.099C66.5204 160.018 71.3008 162.079 74.6133 165.943C74.89 166.255 74.8062 166.664 74.5529 166.944C74.3656 167.11 74.2443 167.161 74.0676 167.151Z" fill="#FF5A5A"/>
<path d="M49.4771 167.262C49.2415 167.248 49.0096 167.175 48.8472 166.929C46.8016 163.614 43.6698 161.652 40.0192 161.432C39.6071 161.407 39.3304 161.095 39.3553 160.683C39.3802 160.27 39.6924 159.994 40.1045 160.019C44.1673 160.264 47.7006 162.427 50.0156 166.172C50.2334 166.48 50.1461 166.948 49.7786 167.162C49.7161 167.218 49.5948 167.269 49.4771 167.262Z" fill="black"/>
<path d="M58.785 194.18C57.6627 194.172 56.4851 194.1 55.3146 193.912C50.8128 193.108 47.117 190.699 44.2863 186.686C41.3484 182.491 40.3551 177.408 41.5439 172.397C42.7505 167.092 46.3357 162.522 51.2863 159.807C55.1343 157.735 59.8605 156.779 64.3212 157.285C69.1352 157.812 73.3786 159.959 76.2521 163.264C78.9559 166.441 80.6751 170.268 81.0989 174.016C81.546 178.357 80.3409 182.658 77.4603 186.325C77.207 186.605 76.7877 186.698 76.4487 186.441C76.1685 186.188 76.0756 185.769 76.3325 185.43C82.2988 177.635 79.6097 169.317 75.1978 164.087C69.3991 157.355 58.8311 157.19 51.9877 160.913C47.4047 163.414 44.1317 167.708 42.9499 172.6C41.8413 177.261 42.7417 181.925 45.4654 185.753C51.4518 194.269 60.5082 193.043 65.3253 191.561C71.3448 189.738 73.8037 183.268 73.1296 177.79C72.5825 173.148 69.5249 167.999 62.7501 167.65C57.7417 167.406 53.3429 171.75 52.9281 175.685C52.6575 178.209 54.0214 181.069 56.3573 182.51C57.61 183.295 60.2028 184.397 63.4514 182.466C64.6163 181.768 65.4564 180.577 65.7148 179.234C65.9661 178.008 65.6838 176.809 65.0306 175.883C64.156 174.708 62.9997 174.283 61.8597 174.569C60.8374 174.862 60.074 175.761 59.9547 176.759C59.9298 177.171 59.5587 177.444 59.209 177.364C58.7968 177.339 58.5238 176.968 58.604 176.618C58.7588 175.032 59.9039 173.683 61.5257 173.249C63.2688 172.763 64.9996 173.458 66.2026 175.067C67.1325 176.306 67.4487 177.92 67.1726 179.558C66.8304 181.31 65.7335 182.84 64.26 183.755C61.4377 185.476 58.3064 185.464 55.6903 183.77C52.9011 182.006 51.2677 178.716 51.6327 175.606C51.8927 173.258 53.2784 170.86 55.3976 169.038C57.6417 167.105 60.3 166.142 62.9496 166.302C66.2469 166.501 69.1269 167.739 71.2364 169.994C73.1246 171.999 74.2637 174.668 74.6712 177.706C75.4275 183.779 72.6316 190.938 65.8877 193.013C63.9609 193.606 61.5077 194.108 58.785 194.18Z" fill="black"/>
<path fill-rule="evenodd" clip-rule="evenodd" d="M55.5916 157.999C57.4408 153.796 55.5089 148.598 55.211 148.639C54.7328 148.728 50.8167 149.969 48.191 152.352C45.0621 155.236 44.3317 159.506 47.3883 160.754C51.7155 162.492 54.2292 160.989 55.5916 157.999Z" fill="#B4E100"/>
<path d="M50.8017 161.964C49.7383 161.959 48.5125 161.708 47.2455 161.159C46.0339 160.672 45.2665 159.68 45.0467 158.426C44.6965 156.396 45.7949 153.862 47.9177 151.981C50.6059 149.543 54.7022 148.254 55.1215 148.161C55.2392 148.168 55.4783 148.123 55.6407 148.369C56.2458 149.115 57.7796 154.053 55.9964 158.141C55.2421 159.869 54.1701 160.986 52.7768 161.552C52.1702 161.811 51.5118 161.948 50.8017 161.964ZM55.0022 149.158C54.0388 149.454 50.7151 150.672 48.5263 152.667C46.7122 154.331 45.6903 156.574 45.9406 158.303C46.1192 159.259 46.6689 159.942 47.5932 160.293C51.2245 161.813 53.7579 160.961 55.131 157.794C56.702 154.284 55.4752 150.132 55.0022 149.158Z" fill="black"/>
<path d="M61.3623 169.102C61.1268 169.088 60.9573 168.96 60.9126 168.721C60.8197 168.301 60.7269 167.882 60.6411 167.345C60.4142 166.208 60.1944 164.954 59.898 163.991C59.8533 163.752 59.9889 163.464 60.2279 163.42C60.467 163.375 60.7543 163.511 60.799 163.75C61.0954 164.713 61.3116 166.026 61.5385 167.163C61.6278 167.641 61.7172 168.119 61.8136 168.479C61.8583 168.719 61.7227 169.006 61.4248 169.047C61.4212 169.106 61.4212 169.106 61.3623 169.102Z" fill="black"/>
<path d="M58.1225 169.911C57.9459 169.901 57.7728 169.831 57.7246 169.651C57.3033 168.798 56.3947 167.207 55.9039 166.527C55.7379 166.34 55.8146 166.049 56.0019 165.883C56.1892 165.717 56.48 165.794 56.646 165.981C57.1922 166.723 58.1007 168.314 58.5773 169.23C58.6809 169.472 58.6042 169.763 58.3616 169.867C58.2403 169.918 58.1814 169.915 58.1225 169.911Z" fill="black"/>
<path d="M71.0058 173.821C70.8291 173.81 70.6561 173.741 70.6079 173.561C70.5043 173.318 70.581 173.027 70.8236 172.924C71.4337 172.606 72.29 172.126 73.0875 171.642C73.9438 171.162 74.8001 170.682 75.4102 170.364C75.6528 170.26 75.9437 170.337 76.0472 170.58C76.1508 170.822 76.0741 171.113 75.8315 171.217C75.2214 171.534 74.365 172.014 73.5676 172.498C72.7113 172.978 71.855 173.459 71.2449 173.776C71.1271 173.769 71.0647 173.824 71.0058 173.821Z" fill="black"/>
<path d="M48.7598 158.591C48.701 158.588 48.6421 158.584 48.5279 158.518C48.2994 158.386 48.1959 158.143 48.3279 157.915C48.3974 157.742 50.2217 153.952 52.6531 151.853C52.8404 151.687 53.1348 151.705 53.3008 151.892C53.4668 152.079 53.449 152.374 53.2617 152.54C51.0141 154.531 49.1933 158.263 49.1897 158.322C49.1202 158.495 48.9365 158.602 48.7598 158.591Z" fill="black"/>
<g opacity="0.6">
<g opacity="0.6">
<g opacity="0.6">
<g opacity="0.6">
<path opacity="0.6" d="M89.743 143.395C89.6252 143.388 89.5074 143.381 89.3932 143.315C88.4796 142.787 87.4304 142.546 86.3564 142.718C85.9995 142.756 85.6016 142.495 85.564 142.138C85.5265 141.782 85.7869 141.384 86.1437 141.346C87.5122 141.192 88.9146 141.454 90.0567 142.114C90.3993 142.312 90.4922 142.731 90.2942 143.074C90.1622 143.302 89.9785 143.409 89.743 143.395Z" fill="#B4E100"/>
</g>
</g>
</g>
</g>
<path d="M67.5741 172.905C67.3975 172.894 67.1655 172.821 67.0548 172.696C66.2803 171.822 64.8402 171.203 63.486 171.121C63.0738 171.097 62.7972 170.784 62.8221 170.372C62.847 169.96 63.1591 169.683 63.5713 169.708C65.2788 169.811 67.0615 170.628 68.0574 171.752C68.334 172.064 68.3091 172.476 67.997 172.753C67.8721 172.864 67.6919 172.912 67.5741 172.905Z" fill="#EA5C5D"/>
<path d="M107.447 195.699C107.388 195.696 107.27 195.688 107.211 195.685C104.321 194.624 101.915 193.356 100.577 192.034C100.296 191.781 100.266 191.306 100.578 191.03C100.832 190.75 101.306 190.719 101.583 191.031C102.811 192.228 104.984 193.423 107.702 194.414C108.048 194.554 108.262 194.921 108.119 195.326C107.991 195.496 107.745 195.658 107.447 195.699Z" fill="#B4E100"/>
<path d="M70.138 179.383C70.0791 179.379 70.0202 179.376 70.0202 179.376C69.9614 179.372 69.9025 179.369 69.906 179.31C69.8472 179.306 69.8507 179.247 69.7918 179.244C69.7329 179.24 69.7365 179.181 69.6776 179.178C69.567 179.053 69.4599 178.869 69.4705 178.692C69.4741 178.634 69.4776 178.575 69.4776 178.575C69.4812 178.516 69.4847 178.457 69.5436 178.46C69.5472 178.402 69.6061 178.405 69.6096 178.346C69.6132 178.287 69.672 178.291 69.6756 178.232C69.8005 178.121 69.9842 178.014 70.1609 178.025C70.3375 178.036 70.5106 178.105 70.6801 178.234C70.7908 178.358 70.8979 178.542 70.8872 178.719C70.8837 178.778 70.8801 178.837 70.8801 178.837C70.8766 178.895 70.873 178.954 70.8141 178.951C70.8106 179.01 70.7517 179.006 70.7481 179.065C70.7446 179.124 70.6857 179.12 70.6821 179.179C70.6786 179.238 70.6197 179.235 70.5573 179.29C70.4984 179.286 70.4949 179.345 70.436 179.342C70.3771 179.338 70.3735 179.397 70.3147 179.393C70.1969 179.386 70.1969 179.386 70.138 179.383Z" fill="black"/>
<path d="M68.6959 191.528C68.5192 191.518 68.2872 191.444 68.1801 191.261C67.9035 190.949 67.9873 190.54 68.2406 190.26C70.11 188.659 71.4338 188.266 72.6399 187.866C73.9048 187.47 74.8682 187.173 76.3915 185.433C76.6448 185.153 77.0605 185.119 77.3996 185.376C77.6798 185.629 77.7138 186.045 77.4569 186.384C75.6803 188.404 74.4154 188.801 73.0881 189.252C72.0034 189.6 70.8597 189.945 69.1776 191.38C68.9938 191.487 68.8725 191.539 68.6959 191.528Z" fill="black"/>
<path d="M89.344 109.864C93.5662 105.51 100.955 107.433 102.703 112.739C104.944 119.67 98.2957 125.06 92.227 122.803C86.6597 121.048 85.0949 113.685 89.344 109.864Z" fill="white"/>
<path d="M93.7671 123.723C93.1819 123.629 92.659 123.479 92.0809 123.267C89.3008 122.331 87.2502 120.08 86.6589 117.148C86.0641 114.276 86.9447 111.433 89.0711 109.493C91.1492 107.373 94.0983 106.487 97.0692 107.199C100.044 107.851 102.344 109.881 103.185 112.591C104.23 115.845 103.501 119.11 101.121 121.33C99.1715 123.281 96.4025 124.119 93.7671 123.723ZM96.2504 108.036C93.7917 107.651 91.3796 108.451 89.6797 110.18C87.8067 111.84 87.0026 114.391 87.5599 116.907C88.1136 119.482 89.8805 121.538 92.3733 122.339C95.1463 123.393 98.3202 122.698 100.454 120.64C102.525 118.638 103.229 115.785 102.225 112.828C101.425 110.416 99.4051 108.64 96.7804 108.068C96.6591 108.119 96.4271 108.046 96.2504 108.036Z" fill="black"/>
<path d="M101.221 121.632C102.162 122.693 99.6715 124.789 97.1594 125.287C94.6474 125.785 90.4024 124.643 90.9212 122.901C91.2278 121.738 92.3145 122.335 94.7946 122.367C98.8715 122.376 100.336 120.633 101.221 121.632Z" fill="#8CC800"/>
<path d="M94.3529 125.768C92.9468 125.565 91.5586 125.067 90.8947 124.318C90.3378 123.753 90.3734 123.164 90.5125 122.818C90.878 121.658 91.82 121.715 93.053 121.848C93.524 121.877 94.1681 121.975 94.8783 121.958C96.8873 121.961 98.1522 121.565 99.1156 121.269C100.141 120.917 100.925 120.669 101.589 121.418C101.921 121.792 102.01 122.271 101.801 122.79C101.37 124.064 99.2755 125.474 97.2415 125.883C96.4137 125.892 95.3503 125.887 94.3529 125.768ZM100.622 121.773C100.386 121.759 100.026 121.855 99.3638 122.052C98.4004 122.348 96.9518 122.852 94.8285 122.783C94.0595 122.795 93.4154 122.697 92.9443 122.669C91.5936 122.528 91.5312 122.584 91.3886 122.989C91.3226 123.103 91.3084 123.338 91.5885 123.592C92.4184 124.528 95.2787 125.115 97.1324 124.754C98.9273 124.389 100.658 123.134 100.943 122.324C101.016 122.092 100.964 121.971 100.909 121.909C100.795 121.843 100.736 121.839 100.622 121.773Z" fill="black"/>
<path d="M59.8075 107.727C63.3095 98.6604 75.6201 96.3896 82.0557 103.338C89.6532 111.597 83.8295 125.842 72.1838 125.907C62.4224 126.086 56.2857 116.142 59.8075 107.727Z" fill="white"/>
<path d="M69.8002 126.236C66.112 125.659 62.866 123.631 60.6956 120.427C58.0932 116.547 57.5567 111.728 59.3471 107.522C61.0303 103.132 64.887 99.9376 69.731 98.9889C74.5125 98.0956 79.2107 99.5611 82.375 102.943C86.0925 106.95 86.9878 112.677 84.7249 117.859C82.462 123.041 77.6597 126.237 72.2178 126.323C71.3864 126.391 70.5621 126.341 69.8002 126.236ZM74.5236 99.8692C73.0587 99.6625 71.4618 99.6843 69.9096 99.9452C65.4261 100.797 61.8191 103.771 60.2125 107.87C58.5577 111.788 59.0566 116.25 61.4966 119.884C63.9401 123.459 67.8373 125.467 72.1533 125.432C77.2973 125.388 81.7321 122.406 83.8559 117.57C85.9833 112.675 85.122 107.364 81.6847 103.611C79.7964 101.606 77.2768 100.272 74.5236 99.8692Z" fill="black"/>
<path d="M65.5857 125.568C65.0832 128.019 71.3748 129.522 75.6924 128.482C79.9475 127.498 85.3204 122.681 83.2753 121.317C82.1957 120.602 81.3931 122.149 77.2827 123.673C70.1571 126.198 66.0223 123.23 65.5857 125.568Z" fill="#8CC800"/>
<path d="M70.2774 129.101C68.4039 128.811 66.7283 128.178 65.8324 127.356C65.1061 126.662 65.0898 125.952 65.1771 125.484C65.4426 124.023 66.8558 124.108 68.6222 124.215C70.5652 124.332 73.4468 124.565 77.1345 123.192C78.9471 122.533 80.112 121.835 80.9095 121.351C81.9531 120.705 82.6845 120.336 83.5393 120.86C84.0479 121.245 84.3103 121.793 84.1534 122.434C83.724 124.653 79.382 128.055 75.7888 128.843C74.0457 129.329 72.0331 129.384 70.2774 129.101ZM66.0532 125.655C65.973 126.005 66.1319 126.31 66.4639 126.685C67.9719 128.135 72.422 128.817 75.5995 128.063C79.0161 127.265 82.9316 124.074 83.2702 122.38C83.354 121.972 83.1845 121.843 83.0149 121.715C82.6723 121.517 82.4297 121.62 81.3896 122.208C80.5333 122.688 79.3095 123.382 77.4345 124.096C73.5666 125.518 70.5084 125.274 68.5065 125.153C66.6258 124.981 66.1477 125.07 66.0532 125.655Z" fill="black"/>
<path d="M68.7867 89.1813C66.743 93.6674 62.399 96.1235 60.0118 96.5113C59.8941 96.5042 59.9657 97.2767 60.1423 97.2874C62.8366 97.6864 69.0541 95.5206 71.4347 90.3458C71.7718 89.657 69.0577 88.6067 68.7867 89.1813Z" fill="black"/>
<path d="M95.5485 104.979C98.7118 104.461 101.637 105.938 102.75 107.069C102.806 107.131 103.18 106.799 103.128 106.678C102.341 105.035 98.8915 102.463 95.1912 103.067C94.6506 103.211 95.0704 105.069 95.5485 104.979Z" fill="black"/>
<path d="M69.1115 110.239C68.6754 114.526 74.2665 118.823 80.018 115.565C85.097 112.681 82.5225 106.38 79.5872 105.08C71.5287 101.52 69.4034 107.361 69.1115 110.239Z" fill="#FA961E"/>
<path d="M76.2217 104.049C77.2155 104.227 78.32 104.53 79.587 105.08C82.5223 106.38 85.0968 112.681 80.0178 115.565C78.1839 116.578 76.3925 116.883 74.7546 116.607C71.2984 116.103 68.7569 113.172 69.0524 110.235C69.3747 107.832 70.892 103.255 76.2217 104.049ZM76.3963 103.114C74.2873 102.81 72.5513 103.178 71.126 104.273C68.8337 106.026 68.3027 108.949 68.1727 110.123C68.0108 111.827 68.559 113.515 69.8315 114.951C71.0486 116.324 72.7653 117.255 74.6388 117.545C76.5712 117.839 78.6051 117.43 80.5015 116.363C82.7654 115.081 83.9567 112.967 83.8705 110.479C83.736 107.812 82.0671 105.111 79.9971 104.159C78.7266 103.669 77.5079 103.299 76.3963 103.114Z" fill="black"/>
<path d="M92.5834 113.96C92.3092 116.544 95.6999 119.112 99.184 117.195C102.242 115.488 100.699 111.672 98.9166 110.856C94.0844 108.673 92.8077 112.201 92.5834 113.96Z" fill="#FA961E"/>
<path d="M96.8879 110.201C97.4732 110.296 98.1691 110.515 98.9168 110.856C100.699 111.672 102.245 115.43 99.1842 117.195C98.0817 117.838 97.0076 118.009 96.0138 117.831C93.9047 117.526 92.418 115.723 92.5835 113.96C92.7312 112.492 93.6673 109.712 96.8879 110.201ZM97.0625 109.266C95.7154 109.067 94.52 109.29 93.5871 110.061C92.0993 111.212 91.7501 113.082 91.645 113.844C91.3886 116.134 93.2662 118.315 95.8427 118.707C97.0721 118.899 98.3887 118.624 99.6126 117.93C101.141 117.077 101.874 115.703 101.856 114.047C101.783 112.329 100.649 110.547 99.3269 109.935C98.5168 109.65 97.7655 109.368 97.0625 109.266Z" fill="black"/>
<path d="M80.9991 108.12C80.8204 107.163 80.2154 106.418 79.3018 105.89C78.4434 105.424 77.3907 105.243 76.3131 105.473C75.2943 105.707 74.3756 106.243 73.7924 107.094C73.2127 107.886 72.9756 108.876 73.1578 109.774C73.3401 110.671 73.9415 111.476 74.8552 112.004C75.2531 112.264 75.7171 112.41 76.247 112.442C76.7734 112.533 77.3069 112.506 77.8474 112.362C78.8662 112.128 79.7849 111.592 80.3681 110.741C81.0031 110.011 81.2366 109.08 80.9991 108.12Z" fill="black"/>
<path d="M97.9532 111.152C97.3751 110.94 96.7203 111.019 96.169 111.34C95.6178 111.661 95.1772 112.107 95.0203 112.748C94.6513 113.967 95.3386 115.308 96.5573 115.677C96.6751 115.684 96.7893 115.75 96.907 115.757C97.3745 115.845 97.9116 115.759 98.3415 115.49C98.8927 115.168 99.3333 114.722 99.4902 114.081C99.8592 112.863 99.1719 111.521 97.9532 111.152Z" fill="black"/>
<path d="M72.321 110.905C72.1428 111.899 72.8549 112.828 73.8523 112.948C74.8462 113.126 75.7756 112.414 75.8949 111.416C76.0142 110.419 75.3609 109.493 74.3635 109.374C73.3661 109.254 72.4367 109.967 72.321 110.905Z" fill="white"/>
<path d="M94.1556 114.35C93.9434 114.929 94.2612 115.539 94.8393 115.751C95.4174 115.963 96.0276 115.645 96.2397 115.067C96.4519 114.489 96.1342 113.879 95.556 113.667C94.9743 113.513 94.3089 113.769 94.1556 114.35Z" fill="white"/>
<path d="M46.349 172.096C46.2901 172.093 46.2313 172.089 46.1724 172.086C45.9404 172.013 45.7815 171.708 45.9135 171.479C47.4648 167.318 50.922 164.867 52.0798 164.287C52.3224 164.184 52.6133 164.26 52.7168 164.503C52.8204 164.746 52.7437 165.036 52.5011 165.14C51.4646 165.668 48.1947 167.953 46.7789 171.827C46.7094 172 46.5845 172.111 46.349 172.096Z" fill="black"/>
<defs>
<clipPath id="clip0_1590_18374">
<rect width="155.785" height="97.0831" fill="white" transform="translate(0.960938 17.1052) rotate(-6.02534)"/>
</clipPath>
</defs>
</svg>
