<svg width="155" height="128" viewBox="0 0 155 128" fill="none" xmlns="http://www.w3.org/2000/svg">
<path d="M38.3706 38.9711C40.8739 39.0035 43.4629 38.9666 45.9001 39.6186C48.1906 40.1766 50.354 41.1911 52.3542 42.2665C54.4319 43.3501 56.4156 44.5804 58.4076 45.7332C60.5462 46.98 62.7178 47.917 65.2377 47.7944C66.5018 47.6945 66.1582 45.7776 64.8941 45.8776C62.4517 46.0084 60.1055 44.5045 58.1219 43.2742C56.1299 42.1214 54.2154 40.9769 52.2152 39.9015C50.2841 38.9119 48.259 38.0689 46.1152 37.6049C43.6698 37.0303 41.1664 36.9979 38.5857 36.9573C37.3216 37.0573 37.1148 38.9936 38.3706 38.9711Z" fill="black"/>
<path d="M127.412 67.8307C129.143 66.2922 126.37 61.4524 122.503 60.256C94.2165 51.5161 60.9931 77.2654 63.9771 109.467C66.4031 101.423 72.9581 99.4593 77.6534 103.173C79.1959 91.6652 83.7221 85.9601 95.8778 82.1665C108.034 78.373 118.863 78.198 118.863 78.198L127.412 67.8307Z" fill="#364193"/>
<path d="M64.9922 95.5538C70.8979 70.3334 98.4701 52.7542 122.579 60.2646C125.835 61.3174 128.414 65.0397 127.967 67.0287C127.856 67.3302 127.746 67.6317 127.488 67.8393L119.025 78.1374C119.025 78.1374 108.187 78.3899 96.04 82.106C85.3446 85.4288 80.5221 90.2406 78.4781 99.1093C78.1908 100.332 77.9644 101.718 77.7381 103.104C73.0428 99.3905 66.4878 101.354 64.0618 109.398C63.6287 104.652 63.9702 99.9881 64.9922 95.5538ZM63.847 95.2748C62.8001 99.9415 62.4421 104.76 62.8752 109.507C62.8947 110.057 63.3955 110.502 63.9377 110.56C64.4799 110.618 64.986 110.28 65.1988 109.755C66.293 106.111 68.4414 103.599 71.0357 102.78C73.063 102.134 75.2069 102.598 77.0109 104.044C77.3733 104.318 77.7606 104.36 78.1644 104.246C78.4908 104.124 78.7645 103.762 78.875 103.46L78.8833 103.383C79.0322 101.989 79.3278 100.688 79.615 99.4658C81.6342 90.8294 86.1747 86.4575 96.3806 83.3174C108.287 79.654 118.97 79.385 119.047 79.3932C119.365 79.3489 119.692 79.2271 119.957 78.9421L128.343 68.6357C128.695 68.2815 128.977 67.8416 129.112 67.3077C129.408 66.0075 128.892 64.2291 127.656 62.6086C126.419 60.988 124.753 59.7134 123.005 59.2133C117.242 57.4228 111.254 57.0181 105.055 57.8444C99.1663 58.7038 93.4716 60.6807 88.0483 63.7832C82.2046 67.1542 76.9422 71.684 72.8529 76.9658C68.3432 82.5161 65.4104 88.7048 63.847 95.2748Z" fill="black"/>
<path d="M82.1411 66.2855L79.983 64.4882L77.1653 67.3991C77.2315 66.7794 79.1935 60.8787 76.4586 54.9463C72.6997 46.8678 79.6576 50.6662 79.6576 50.6662C79.6576 50.6662 83.3504 59.3643 82.1411 66.2855Z" fill="#364193"/>
<path d="M82.9403 63.9426C82.9267 64.8028 82.844 65.5774 82.6755 66.4211C82.6507 66.6534 82.4793 66.7918 82.3078 66.9302C82.0672 66.9828 81.8348 66.958 81.6965 66.7865L79.9699 65.3487L77.5891 67.8362C77.4094 68.052 77.0913 68.0964 76.8673 67.9941C76.6432 67.8918 76.5131 67.6429 76.5462 67.3331C76.5544 67.2557 76.571 67.1008 76.665 66.9541C77.7562 62.6055 77.4727 58.6584 75.8756 55.2759C74.5387 52.3914 74.3334 50.646 75.2929 49.7301C76.6036 48.4601 79.431 49.8588 79.9484 50.1491C80.095 50.2431 80.1642 50.3288 80.2334 50.4145C80.3552 50.7409 83.2314 57.55 82.9403 63.9426ZM81.6461 65.0577C82.2748 59.1713 79.6393 52.3095 79.1438 51.0815C78.1008 50.5784 76.5848 50.1032 76.0705 50.5182C75.899 50.6566 75.4207 51.4672 76.9652 54.609C78.4323 57.7425 78.8345 61.3106 78.172 65.3133L79.491 63.9658C79.7481 63.7583 80.0662 63.7139 80.3595 63.9019L81.6461 65.0577Z" fill="black"/>
<path d="M133.684 92.7072C134.719 103.55 134.535 114.811 134.239 124.18C134.159 125.659 135.781 126.616 136.912 125.562C139.259 123.384 142.391 117.53 142.837 108.961C143.642 94.0843 141.515 93.4653 141.696 81.4992C141.931 69.7736 144.35 66.1936 144.939 51.1375C145.45 37.5614 144.123 22.849 143.54 17.3032C143.44 16.0391 142.438 15.1488 141.199 15.0164C140.261 14.9946 139.351 15.4457 138.873 16.2564C137.328 18.9898 136.126 23.64 131.016 29.6745C123.313 38.7221 106.296 40.3513 98.4256 36.2988C95.5817 35.055 90.3247 30.7333 90.7157 33.6735C92.5931 48.3664 79.0809 48.7248 79.0809 48.7248C79.0809 48.7248 80.2954 41.0209 77.2643 34.1952C76.1266 31.6452 74.5038 34.3703 71.5862 36.0171C68.6519 37.8188 66.899 40.295 65.6748 43.6894C63.3202 50.3316 65.9806 56.961 72.6671 59.6336C77.6218 61.6513 82.6255 61.0107 88.627 58.3616C93.8901 56.0253 97.4493 53.507 105.51 53.5846C113.648 53.6704 119.563 56.9657 123.852 62.2807" fill="#8CC800"/>
<path d="M143.868 106.642C143.863 107.425 143.78 108.199 143.775 108.982C143.355 117.319 140.328 123.655 137.552 126.178C136.772 126.878 135.732 127.081 134.835 126.672C133.862 126.254 133.264 125.25 133.31 124.08C133.623 114.557 133.86 103.536 132.739 92.7628C132.711 92.2898 133.079 91.7807 133.552 91.7529C134.025 91.7251 134.534 92.0928 134.561 92.5658C135.597 103.409 135.421 114.592 135.108 124.116C135.059 124.58 135.344 124.846 135.568 124.948C135.714 125.042 135.947 125.067 136.212 124.782C138.646 122.535 141.399 116.562 141.839 108.775C142.243 100.593 141.796 96.707 141.341 92.8983C140.959 89.8806 140.592 86.708 140.699 81.3141C140.769 75.5247 141.415 71.6768 142.163 67.6049C142.867 63.2149 143.673 58.6008 143.942 50.9524C144.452 37.3763 143.108 22.8188 142.525 17.273C142.453 16.4819 141.814 15.8653 141.031 15.86C140.412 15.7938 139.828 16.1232 139.538 16.6405C139.145 17.382 138.744 18.2009 138.319 19.2521C137.092 21.9412 135.439 25.6815 131.587 30.2053C127.915 34.5133 121.95 37.5579 114.849 38.7579C108.394 39.7918 102.034 39.1909 97.8788 37.0236C96.9825 36.6145 95.8786 35.9482 94.8439 35.3677C93.8866 34.7954 92.2654 33.8389 91.5074 33.6013C92.0954 38.3643 91.2087 42.2648 88.7948 45.0621C85.1229 49.3701 79.3086 49.5324 79.068 49.585C78.8356 49.5602 78.5341 49.4497 78.3183 49.2699C78.1025 49.0902 78.0581 48.7721 78.0829 48.5398C78.0912 48.4623 79.1952 41.0599 76.3634 34.5688C76.1641 34.2342 76.1032 34.071 76.0258 34.0627C75.7159 34.0296 74.8587 34.7214 74.3443 35.1365C73.6585 35.6899 72.8953 36.2351 72.0545 36.772C69.4549 38.3744 67.7269 40.6183 66.5109 43.9352C64.2751 50.1984 66.916 56.2774 72.922 58.7207C77.4285 60.5337 82.0118 60.1616 88.1765 57.4516C89.0781 57.0779 89.988 56.6267 90.8122 56.2447C94.8556 54.3265 98.5726 52.5301 105.455 52.6385C113.36 52.6995 119.765 55.812 124.461 61.7189C124.807 62.1475 124.749 62.6897 124.32 63.0356C123.891 63.3815 123.349 63.3236 123.003 62.895C118.653 57.4167 112.689 54.5862 105.411 54.5139C98.9937 54.4551 95.5339 56.044 91.5679 57.9705C90.7437 58.3525 89.8338 58.8037 88.8465 59.2466C82.2697 62.1476 77.136 62.5392 72.1812 60.5216C65.1932 57.7384 62.1094 50.6721 64.6934 43.3494C66.0282 39.6535 68.03 37.0472 70.9642 35.2455C71.7192 34.7778 72.4825 34.2326 73.0825 33.7484C74.2744 32.8573 75.3031 32.0271 76.3709 32.2978C77.0598 32.4497 77.5523 32.9724 77.926 33.874C80.3232 39.3003 80.1592 45.2364 79.8944 47.7149C81.5706 47.4239 84.9477 46.6096 87.2676 43.9589C89.3303 41.5157 90.0816 38.1492 89.5214 33.8592C89.3966 32.8275 89.7644 32.3184 90.1847 32.0499C91.2826 31.3055 92.9038 32.262 95.7064 33.8931C96.7411 34.4736 97.7676 35.1316 98.5947 35.455L98.6722 35.4633C102.457 37.4343 108.506 38.0021 114.489 36.9961C121.186 35.9096 126.739 33.0559 130.145 29.0329C133.74 24.7166 135.376 21.1313 136.595 18.5197C137.098 17.4767 137.507 16.5804 137.908 15.7615C138.575 14.6576 139.75 13.9214 141.067 14.062C142.779 14.1666 144.126 15.4856 144.34 17.1535C144.914 22.7767 146.25 37.4117 145.723 51.1427C145.438 58.946 144.615 63.7149 143.919 68.0275C143.257 72.0303 142.611 75.8781 142.48 81.5044C142.39 86.7434 142.704 89.6753 143.078 92.7705C143.721 96.286 144.123 99.8541 143.868 106.642Z" fill="black"/>
<path d="M144.543 51.1736C144.738 46.4159 144.631 41.5476 144.5 36.9117C141.165 39.5323 129.41 36.6317 128.773 32.3334C124.899 35.6014 119.514 37.6114 114.261 38.382C115.279 39.1175 117.722 41.1802 117.254 46.3004C116.744 51.8078 113.096 53.69 112.186 54.1411C121.556 56.6303 126.958 64.7277 130.114 74.7786C130.225 74.4771 130.197 74.0041 130.108 73.3679C129.526 70.0156 138.452 67.1304 142.386 69.9008C143.234 64.8994 144.219 60.0695 144.543 51.1736Z" fill="#364193"/>
<path d="M112.265 54.1493C113.252 53.7064 116.831 51.7386 117.332 46.3086C117.365 45.9988 117.39 45.7664 117.423 45.4566C117.593 40.9312 115.289 39.04 114.425 38.3211C119.678 37.5504 124.985 35.5322 128.937 32.2725C129.566 36.6482 141.251 39.463 144.664 36.8507C144.803 41.4092 144.902 46.3549 144.707 51.1127C144.384 60.0085 143.389 64.9159 142.55 69.8398C138.848 67.0943 130.421 69.7193 130.314 72.9197C130.297 73.0746 130.289 73.152 130.35 73.3152C130.386 73.7107 130.43 74.0288 130.397 74.3387C130.381 74.4936 130.364 74.6485 130.348 74.8034C127.036 64.7359 121.626 56.716 112.265 54.1493ZM108.782 54.4824L111.986 55.2946C119.908 57.3942 125.484 63.8651 129.067 75.0583L130.305 78.8723L131.416 75.0741C131.518 74.85 131.543 74.6177 131.498 74.2996C131.54 73.9123 131.504 73.5168 131.398 73.0355C131.407 72.958 131.407 72.9581 131.415 72.8806C131.464 72.4159 132.098 71.6218 133.505 70.9104C135.978 69.7645 139.787 69.3096 141.745 70.7722L143.342 71.9611L143.634 69.9556C143.709 69.2585 143.853 68.6472 144.004 67.9584C144.692 63.7233 145.523 58.8768 145.808 51.0736C145.953 46.7806 145.924 41.9206 145.773 36.7342L145.72 34.3L143.834 35.822C142.299 36.9898 137.782 36.7423 134.102 35.2526C131.776 34.299 130.257 33.1184 130.14 32.0093L129.83 29.7827L128.115 31.1663C124.67 34.0884 119.749 36.148 114.256 36.9713L111.308 37.4397L113.706 39.1843C115.449 40.4672 116.327 42.5194 116.27 45.2551C116.245 45.4874 116.22 45.7198 116.187 46.0296C115.809 50.2978 113.263 52.1408 111.769 52.9214L108.782 54.4824Z" fill="black"/>
<path d="M130.328 45.6599C130.242 45.7291 130.157 45.7983 130.071 45.8674C129.977 46.0141 129.891 46.0833 129.814 46.075C129.642 46.2134 129.471 46.3517 129.393 46.3434C129.239 46.3269 129.092 46.2329 128.876 46.0532C128.591 45.7877 128.445 45.6937 128.375 45.608C127.781 45.3094 127.247 45.1741 126.61 45.2628C126.215 45.2989 125.803 45.4899 125.391 45.6809C124.97 45.9493 124.619 46.3035 124.431 46.5968C124.141 47.1141 123.989 47.8029 123.881 48.8098C123.724 50.2814 123.694 51.2966 123.73 51.6921C123.758 52.1651 123.88 52.4915 124.181 52.602C124.336 52.6186 124.724 52.66 125.352 52.6487C125.584 52.6735 128.001 52.775 132.51 53.1C133.99 53.1797 134.928 53.2015 135.254 53.0797C135.287 52.7699 135.354 52.1503 135.375 51.2126C135.458 50.438 135.447 49.8101 135.496 49.3454C135.49 47.9347 135.357 46.9805 135.036 46.3195C134.707 45.7359 134.198 45.3682 133.448 45.0531C132.466 44.7132 131.349 44.9072 130.328 45.6599ZM127.345 50.1198C126.734 49.9762 126.269 49.9266 126.106 49.9875C125.967 49.816 125.829 49.6445 125.785 49.3265C125.732 49.0858 125.757 48.8535 125.859 48.6294C125.986 48.1729 126.398 47.9819 127.095 48.0564C127.793 48.1309 128.163 48.3271 128.44 48.67C128.501 48.8332 128.553 49.0739 128.598 49.3919C128.642 49.71 128.54 49.9341 128.446 50.0807C128.274 50.2191 127.879 50.2552 127.345 50.1198ZM133.557 48.4333C133.756 48.7679 133.862 49.2491 133.71 49.938C133.607 50.162 133.289 50.2064 132.971 50.2508C132.894 50.2425 132.576 50.2868 131.948 50.2981C131.32 50.3094 130.933 50.268 130.786 50.174C130.639 50.08 130.587 49.8394 130.551 49.4438C130.515 49.0483 130.617 48.8242 130.727 48.5227C130.924 48.152 131.336 47.961 132.127 47.8888C132.824 47.9633 133.28 48.0904 133.557 48.4333Z" fill="#E62828"/>
<path d="M140.249 23.9234C140.241 24.0009 140.225 24.1558 140.216 24.2333C138.641 27.9818 136.83 31.0002 134.997 32.7628C134.646 33.117 134.018 33.1283 133.672 32.6996C133.318 32.3485 133.306 31.7205 133.735 31.3746C135.389 29.8279 137.097 27.0336 138.57 23.5091C138.775 23.0609 139.273 22.8007 139.798 23.0135C140.014 23.1933 140.291 23.5362 140.249 23.9234Z" fill="#B4E100"/>
<path d="M81.0216 51.8305C80.9885 52.1404 80.723 52.4253 80.4132 52.3923C80.3358 52.384 77.9182 52.2824 76.5346 50.5679C76.327 50.3107 76.3684 49.9235 76.6256 49.7159C76.8828 49.5084 77.27 49.5497 77.4776 49.8069C78.4378 51.0845 80.3907 51.1365 80.3907 51.1365C80.778 51.1778 80.9772 51.5125 81.0216 51.8305Z" fill="black"/>
<path d="M90.6579 34.2156L90.1766 34.3209C88.9126 34.4209 87.0514 35.7105 86.8002 37.3287C86.7506 37.7935 86.6761 38.4905 87.022 38.9192C87.2296 39.1764 87.2905 39.3395 86.9919 39.9344C86.7957 40.3051 86.5054 40.8224 86.3866 41.2014C86.2181 42.0451 86.0722 44.1446 88.4041 44.3154C90.1322 42.0715 91.1767 38.8929 90.6579 34.2156Z" fill="#E62828"/>
<path d="M91.4458 37.1198C91.3638 40.0879 90.4629 42.6551 88.9228 44.6057L88.7348 44.899L88.425 44.8659C87.4955 44.7666 86.7458 44.4515 86.2616 43.8514C85.5006 42.9084 85.7187 41.6 85.854 41.0661C85.9977 40.4548 86.3819 39.7908 86.4842 39.5667C86.5699 39.4975 86.5782 39.4201 86.5865 39.3426L86.5173 39.2569C86.1105 38.6651 86.124 37.8048 86.1902 37.1852C86.4662 35.3346 88.5154 33.7517 90.0975 33.6074L91.2067 33.4908L91.2954 34.127C91.4202 35.1587 91.4676 36.1821 91.4458 37.1198ZM88.0926 43.577C89.735 41.4023 90.3674 38.4147 90.1201 34.8631C89.1658 34.9962 87.6393 36.0866 87.4212 37.395C87.3633 37.9372 87.3994 38.3327 87.5377 38.5042C87.8754 39.0102 87.9889 39.4141 87.5189 40.1472C87.2452 40.5097 87.0407 40.9578 87.0158 41.1902C86.9827 41.5 86.806 42.4212 87.2128 43.013C87.4121 43.3476 87.7054 43.5356 88.0926 43.577Z" fill="black"/>
<path d="M80.6808 34.4817C80.2575 34.0448 78.8385 34.1283 77.5662 34.3057L77.3255 34.3584C80.2875 41.0983 79.0812 48.7249 79.0812 48.7249C79.0812 48.7249 80.4144 48.7106 82.1154 48.1872L82.1237 48.1098C83.1208 43.9078 81.7351 35.6127 80.6808 34.4817Z" fill="white"/>
<path d="M83.1032 45.5507C83.0731 46.5659 82.9738 47.4953 82.8136 48.2616L82.8053 48.3391C82.7805 48.5714 82.6091 48.7098 82.3684 48.7624C80.59 49.2775 79.1793 49.2835 79.1793 49.2835C79.0244 49.2669 78.792 49.2421 78.7311 49.0789C78.5928 48.9075 78.5319 48.7443 78.5484 48.5894C78.5567 48.5119 79.6607 41.1095 76.9063 34.6267C76.8454 34.4635 76.862 34.3086 76.8785 34.1537C76.9725 34.0071 77.0665 33.8605 77.2297 33.7996L77.4703 33.7469C77.5478 33.7552 77.5478 33.7552 77.6335 33.686C80.1782 33.3311 80.9196 33.7237 81.2738 34.0748C82.1732 35.1893 83.2649 41.1028 83.1032 45.5507ZM81.624 47.6645C82.4663 43.446 81.0143 35.7705 80.2451 34.905C80.2451 34.905 79.8826 34.6313 78.2148 34.8448C80.3713 40.3237 79.9998 46.0026 79.7847 48.0164C80.2577 47.9886 80.8938 47.8999 81.624 47.6645Z" fill="black"/>
<path d="M100.853 60.5288C112.731 54.1989 123.719 59.1328 127.738 65.5156C128.803 67.2745 131.223 73.9566 131.223 73.9566C131.223 73.9566 133.969 78.3233 134.461 86.9147C134.806 93.2185 132.233 98.9755 126.509 104.161C119.919 110.116 101.432 113.781 91.5651 97.6085C83.3012 84.0352 87.8155 67.44 100.853 60.5288Z" fill="#E62828"/>
<path d="M100.558 66.216C100.533 66.4484 100.422 66.7499 100.173 66.88C95.3893 70.5992 92.5918 76.254 92.3533 82.8872L92.3451 82.9646C92.2871 83.5068 91.936 83.861 91.3855 83.8805C90.8434 83.8226 90.4892 83.4714 90.4696 82.921L90.4779 82.8435C90.7743 75.6682 93.7846 69.4878 98.9973 65.4227C99.4259 65.0768 99.9598 65.2121 100.314 65.5633C100.53 65.743 100.582 65.9837 100.558 66.216Z" fill="#FF5A5A"/>
<path d="M99.2165 98.5824C99.1834 98.8922 99.0729 99.1938 98.7383 99.393C94.2414 101.89 91.4628 105.901 90.9582 110.626C90.9002 111.168 90.4716 111.514 89.9294 111.456C89.3873 111.398 89.0414 110.97 89.0993 110.427C89.6701 105.083 92.739 100.554 97.8194 97.7282C98.2397 97.4597 98.8428 97.6808 99.1113 98.1011C99.1722 98.2643 99.2331 98.4275 99.2165 98.5824Z" fill="black"/>
<path d="M135.213 87.9352C135.133 89.4151 134.967 90.9642 134.647 92.4967C133.313 98.3861 129.91 103.114 124.453 106.527C118.74 110.147 111.974 111.148 105.437 109.274C98.5213 107.282 92.7026 102.352 89.4226 95.6565C86.9148 90.5317 86.0276 84.17 86.9662 78.3167C87.9544 71.9986 91.0451 66.5318 95.572 63.0202C99.9275 59.6469 105.003 57.6038 110.042 57.3588C115.796 57.0333 121.387 58.9622 126.057 62.9079C126.411 63.2591 126.508 63.8178 126.157 64.1719C125.806 64.5261 125.247 64.6231 124.893 64.2719C114.974 55.9271 103.847 58.8905 96.7481 64.4775C87.5145 71.7166 86.6532 85.6469 91.1484 94.9008C94.1682 101.099 99.5553 105.669 106.015 107.534C112.018 109.272 118.302 108.377 123.518 105.017C135.116 97.6387 134.042 85.6951 132.388 79.1732C130.342 71.1992 121.965 67.4843 114.698 68.0399C108.541 68.4789 101.564 72.1988 100.698 81.0368C99.9947 87.6203 105.534 93.6956 110.699 94.4823C114.013 94.9929 117.868 93.3679 119.911 90.3744C121.023 88.7697 122.634 85.4167 120.285 81.0138C119.435 79.4346 117.916 78.254 116.159 77.8314C114.558 77.4253 112.959 77.7246 111.698 78.5299C110.094 79.612 109.464 81.1114 109.771 82.6326C110.095 83.999 111.235 85.0608 112.544 85.2789C113.086 85.3368 113.424 85.8429 113.296 86.2993C113.239 86.8415 112.732 87.1791 112.276 87.052C110.193 86.7512 108.483 85.1585 108.009 82.9928C107.475 80.6639 108.497 78.4231 110.693 76.9342C112.383 75.783 114.532 75.4641 116.676 75.9281C118.966 76.4861 120.917 78.0262 122.035 80.0257C124.133 83.8533 123.927 87.9832 121.533 91.3309C119.036 94.9027 114.597 96.857 110.517 96.1862C107.435 95.7004 104.356 93.7264 102.159 90.8283C99.8233 87.7587 98.6382 84.1853 99.0105 80.6999C99.4738 76.3625 101.282 72.6387 104.376 70.0708C107.136 67.7021 110.726 66.3622 114.75 66.087C122.73 65.451 132.081 69.5832 134.33 78.5972C134.84 81.1584 135.353 84.425 135.213 87.9352Z" fill="black"/>
<path fill-rule="evenodd" clip-rule="evenodd" d="M87.3689 89.9535C81.9381 87.2584 74.9711 89.4126 75.0763 89.8939C75.1651 90.5301 76.5636 95.7714 79.4775 99.2944C83.0914 103.597 88.6018 104.813 90.5119 100.865C93.1379 95.3483 91.3084 91.9411 87.3689 89.9535Z" fill="#B4E100"/>
<path d="M92.3085 96.513C92.237 97.9155 91.8309 99.5172 91.0293 101.155C90.3134 102.724 88.9583 103.676 87.2905 103.889C84.5909 104.227 81.3153 102.624 78.9632 99.7095C75.911 96.015 74.4597 90.533 74.3627 89.9743C74.3793 89.8194 74.3349 89.5013 74.6696 89.3021C75.69 88.5494 82.2976 86.8267 87.5043 89.4196C89.7368 90.5198 91.1453 92.0019 91.807 93.8743C92.2664 94.7068 92.4078 95.5836 92.3085 96.513ZM75.7486 90.2007C76.081 91.4896 77.4848 95.9481 79.9836 98.9567C82.0673 101.451 84.9639 102.936 87.2596 102.711C88.532 102.533 89.4667 101.85 89.9863 100.652C92.2115 95.9543 91.2423 92.5606 87.1478 90.5566C82.536 88.2622 77.0623 89.636 75.7486 90.2007Z" fill="black"/>
<path d="M102.444 83.025C102.411 83.3348 102.232 83.5506 101.914 83.595C101.355 83.692 100.796 83.789 100.083 83.8694C98.5696 84.0995 96.9017 84.313 95.6128 84.6454C95.2947 84.6897 94.924 84.4935 94.8796 84.1754C94.8353 83.8573 95.0315 83.4866 95.3496 83.4422C96.6385 83.1099 98.3838 82.9046 99.8968 82.6745C100.533 82.5858 101.169 82.4971 101.65 82.3918C101.969 82.3475 102.339 82.5437 102.375 82.9393C102.453 82.9475 102.453 82.9475 102.444 83.025Z" fill="black"/>
<path d="M103.306 87.4255C103.281 87.6579 103.179 87.882 102.938 87.9346C101.787 88.4384 99.7104 89.5483 98.7065 90.1461C98.4493 90.3536 98.0703 90.2348 97.8628 89.9776C97.6552 89.7205 97.7741 89.3415 98.0312 89.1339C99.0434 88.4587 101.198 87.3571 102.434 86.7841C102.76 86.6623 103.139 86.7811 103.261 87.1075C103.253 87.1849 103.322 87.2706 103.306 87.4255Z" fill="black"/>
<path d="M109.17 70.6611C109.146 70.8935 109.043 71.1176 108.803 71.1702C108.476 71.292 108.097 71.1732 107.975 70.8468C107.593 70.0226 107.012 68.8639 106.5 67.7908C105.919 66.632 105.338 65.4732 104.956 64.649C104.834 64.3226 104.953 63.9437 105.279 63.8218C105.605 63.7 105.984 63.8188 106.106 64.1452C106.488 64.9694 107.069 66.1282 107.581 67.2013C108.163 68.3601 108.744 69.5188 109.126 70.343C109.195 70.4287 109.187 70.5062 109.17 70.6611Z" fill="black"/>
<path d="M87.7341 99.0012C87.7258 99.0786 87.7175 99.1561 87.6235 99.3027C87.4355 99.596 87.1092 99.7178 86.8159 99.5298C86.5918 99.4275 81.7033 96.7903 79.0827 93.4552C78.8752 93.198 78.9165 92.8108 79.1737 92.6032C79.4309 92.3957 79.8182 92.4371 80.0257 92.6942C82.4387 95.7721 87.3273 98.4093 87.4047 98.4176C87.6288 98.5199 87.7589 98.7688 87.7341 99.0012Z" fill="black"/>
<path d="M107.753 75.1315C107.728 75.3638 107.617 75.6654 107.446 75.8038C106.246 76.7723 105.342 78.6341 105.152 80.4156C105.094 80.9577 104.665 81.3036 104.123 81.2457C103.581 81.1878 103.235 80.7592 103.293 80.217C103.533 77.9709 104.718 75.6691 106.262 74.4239C106.69 74.078 107.232 74.1359 107.578 74.5645C107.725 74.6585 107.777 74.8991 107.753 75.1315Z" fill="#FF5A5A"/>
<path d="M116.455 72.1438C116.446 72.2213 116.438 72.2988 116.438 72.2988C116.43 72.3763 116.421 72.4538 116.344 72.4455C116.336 72.523 116.258 72.5147 116.25 72.5922C116.242 72.6697 116.164 72.6614 116.156 72.7389C116.148 72.8164 116.07 72.8081 115.984 72.8773C115.907 72.869 115.899 72.9465 115.821 72.9383C115.744 72.93 115.735 73.0075 115.658 72.9992C115.58 72.9909 115.503 72.9826 115.503 72.9826C115.425 72.9744 115.348 72.9661 115.348 72.9661C115.27 72.9578 115.193 72.9495 115.201 72.872C115.124 72.8638 115.132 72.7863 115.054 72.778C114.977 72.7697 114.985 72.6922 114.908 72.684C114.7 72.4266 114.578 72.1001 114.68 71.8759C114.689 71.7984 114.697 71.7209 114.775 71.7292C114.783 71.6517 114.86 71.66 114.869 71.5825C114.877 71.505 114.954 71.5133 114.963 71.4358C114.971 71.3583 115.048 71.3666 115.134 71.2973C115.212 71.3056 115.22 71.2281 115.297 71.2364C115.375 71.2447 115.383 71.1672 115.461 71.1755C115.538 71.1838 115.616 71.192 115.616 71.192C115.693 71.2003 115.771 71.2086 115.771 71.2086C115.848 71.2169 115.926 71.2251 115.917 71.3026C115.995 71.3109 115.987 71.3884 116.064 71.3967C116.142 71.405 116.133 71.4824 116.211 71.4907C116.288 71.499 116.28 71.5765 116.349 71.6623C116.341 71.7398 116.418 71.748 116.41 71.8255C116.402 71.903 116.479 71.9113 116.471 71.9888C116.471 71.9888 116.463 72.0663 116.455 72.1438Z" fill="black"/>
<path d="M132.388 74.7861C132.363 75.0185 132.252 75.32 132.003 75.4501C131.575 75.796 131.041 75.6606 130.687 75.3094C128.689 72.7459 128.251 70.9758 127.797 69.3605C127.351 67.6678 127.019 66.379 124.816 64.2636C124.462 63.9124 124.442 63.362 124.802 62.9304C125.153 62.5762 125.704 62.5567 126.135 62.9161C128.692 65.3826 129.138 67.0753 129.653 68.8537C130.046 70.3058 130.431 71.8353 132.144 74.1334C132.36 74.3131 132.412 74.5537 132.388 74.7861Z" fill="black"/>
<path d="M70.7794 36.2442C67.8504 37.2631 63.9957 41.0815 63.4775 46.6664C62.9729 51.391 65.2903 58.2972 71.9769 60.9698C74.8291 62.1362 80.4358 61.7167 82.1699 60.8835C77.8957 59.0953 67.6502 50.8723 70.7794 36.2442Z" fill="#364193"/>
<path d="M82.7896 60.9498C82.7648 61.1821 82.6625 61.4062 82.4219 61.4588C80.6021 62.3612 74.763 62.7559 71.7559 61.5729C68.6021 60.296 66.0289 57.9844 64.4761 54.9201C63.1835 52.3536 62.5685 49.3111 62.8497 46.6777C63.3762 41.0153 67.2723 36.8096 70.5968 35.7547C70.8374 35.702 71.0698 35.7268 71.2081 35.8983C71.3465 36.0697 71.4848 36.2412 71.3826 36.4653C68.2782 50.861 78.5485 58.8517 82.3745 60.4354C82.6843 60.4685 82.8227 60.6399 82.7896 60.9498C82.7979 60.8723 82.7896 60.9498 82.7896 60.9498ZM64.0311 47.3522C63.9107 51.4129 65.8906 57.813 72.1981 60.3668C74.3006 61.2181 78.2229 61.167 80.466 60.7016C78.1808 59.3608 75.2978 57.0161 73.0727 53.6449C70.8477 50.2738 68.5445 44.7009 69.8974 37.1683C67.2369 38.6076 64.4387 42.0689 64.0281 46.6469C64.0725 46.965 64.0559 47.1199 64.0311 47.3522Z" fill="black"/>
<path d="M82.7905 60.9497C82.7574 61.2595 82.5694 61.5528 82.2596 61.5197C82.019 61.5723 76.6529 61.9392 72.4111 57.6476C72.2035 57.3904 72.1675 56.9949 72.4246 56.7873C72.6818 56.5798 73.0773 56.5437 73.2849 56.8009C77.1034 60.6556 82.0739 60.3248 82.1514 60.3331C82.4694 60.2887 82.7544 60.5542 82.7905 60.9497C82.7988 60.8722 82.7988 60.8722 82.7905 60.9497Z" fill="black"/>
<path d="M105.402 103.004C105.394 103.081 105.385 103.158 105.377 103.236C105.267 103.537 104.854 103.728 104.561 103.54C99.1666 101.241 96.2219 96.5394 95.4497 94.9685C95.3278 94.6422 95.4467 94.2632 95.773 94.1414C96.0994 94.0196 96.4784 94.1384 96.6002 94.4647C97.2341 95.8642 100.057 100.239 105.073 102.42C105.297 102.522 105.427 102.771 105.402 103.004Z" fill="black"/>
<path d="M53.3864 64.8594C58.1954 60.9078 63.6879 57.891 69.5375 55.9307C70.7572 55.5126 69.924 53.7785 68.7126 54.1192C62.6306 56.0547 57.0441 59.2181 52.0637 63.308C51.1982 64.0773 52.4435 65.6204 53.3864 64.8594Z" fill="black"/>
<path d="M12.0845 63.5811C7.44998 68.0996 6.29033 74.5561 6.81967 77.6677C6.88057 77.8309 5.91804 78.0415 5.77968 77.87C4.08854 74.6342 3.99169 66.0068 9.40599 60.7882C10.1941 60.0107 12.7011 62.9419 12.0845 63.5811Z" fill="black"/>
<path d="M29.7183 87.7121C17.292 84.5047 12.3992 68.7064 20.6169 59.2437C30.2724 48.0545 49.8222 53.5111 51.7191 68.7544C53.3304 81.5388 41.1904 91.0526 29.7183 87.7121Z" fill="white"/>
<path d="M52.4108 71.8054C52.1994 76.718 50.0682 81.2689 46.1857 84.6144C41.5317 88.5825 35.267 90.0284 29.4964 88.3153C23.4768 86.7323 18.7177 82.1504 16.7905 75.991C14.8632 69.8315 16.0921 63.4608 20.0378 58.7904C24.6941 53.3341 32.1176 51.307 39.2493 53.4788C46.381 55.6506 51.3259 61.4273 52.1995 68.6493C52.4018 69.6893 52.4409 70.7902 52.4108 71.8054ZM17.159 69.6067C17.1071 71.5596 17.3567 73.623 18.0019 75.6504C19.8156 81.406 24.2123 85.7141 29.8528 87.1783C35.2444 88.7726 41.0279 87.4319 45.4165 83.7488C49.7276 80.0575 51.7949 74.638 51.0738 68.9208C50.2197 62.2492 45.629 56.8237 39.0312 54.7872C32.356 52.7425 25.4912 54.6727 21.1168 59.689C18.6338 62.4006 17.3155 65.9416 17.159 69.6067Z" fill="black"/>
<path d="M52.1254 77.4153C55.3867 77.6853 56.3742 69.1737 54.45 63.7196C52.4483 58.2573 45.4453 51.9473 43.8751 54.9131C43.0818 56.4734 45.27 57.2555 47.8552 62.3885C52.306 71.3243 49.0882 77.2476 52.1254 77.4153Z" fill="#8CC800"/>
<path d="M56.0445 70.7836C55.9347 73.2786 55.3767 75.5691 54.3758 76.8723C53.5546 77.9596 52.6778 78.101 52.0582 78.0348C50.0361 77.8972 50.0023 76.0135 49.855 73.726C49.7325 71.2061 49.5957 67.353 47.2706 62.7178C46.1081 60.4002 45.0787 59.0368 44.326 58.0164C43.3657 56.7388 42.6739 55.8815 43.3485 54.7002C43.741 53.9587 44.4877 53.5684 45.3397 53.6594C48.2912 53.8964 53.3797 59.0618 55.0077 63.6225C55.7995 65.7438 56.1461 68.366 56.0445 70.7836ZM52.1823 76.873C52.647 76.9227 53.0674 76.6542 53.4351 76.1451C55.0774 73.9704 55.3189 68.0426 53.8737 63.9714C52.2984 59.6513 47.5475 54.992 45.2156 54.8212C44.6735 54.7633 44.4937 54.9792 44.3915 55.2032C44.1869 55.6514 44.3087 55.9778 45.269 57.2554C46.0991 58.2841 47.1203 59.7249 48.352 62.1282C50.8071 67.0123 51.0048 71.0287 51.1191 73.626C51.2416 76.1458 51.4078 76.7903 52.1823 76.873Z" fill="black"/>
<path d="M35.305 78.6731C40.4748 78.677 44.7793 71.3814 40.1412 64.9324C36.04 59.3241 28.8909 63.1824 27.711 66.8948C24.5195 76.9727 31.7783 78.6881 35.305 78.6731Z" fill="#FA961E"/>
<path d="M26.9544 71.0448C27.0011 69.8747 27.2274 68.4889 27.711 66.8954C28.8826 63.2604 36.04 59.3247 40.1411 64.933C41.6466 66.9739 42.206 69.0704 42.0766 71.015C41.9397 75.2305 38.7543 78.6505 35.2275 78.6655C32.3287 78.6692 26.7408 77.4456 26.9544 71.0448ZM25.7069 70.9899C25.5888 73.5624 26.3114 75.598 27.8665 77.1741C30.26 79.7016 33.9168 79.9355 35.3275 79.9295C37.3661 79.9122 39.3491 78.949 40.9335 77.3165C42.4405 75.6757 43.3 73.4958 43.3933 71.1556C43.4866 68.8155 42.7279 66.3843 41.1533 64.2577C39.3103 61.7108 36.613 60.5609 33.587 61.0211C30.3979 61.5422 27.4057 63.886 26.574 66.539C26.013 68.1241 25.7701 69.6649 25.7069 70.9899Z" fill="black"/>
<path d="M33.0209 65.5825C35.1339 64.8682 37.4192 66.209 38.2636 68.571C39.0306 70.9247 38.0522 73.4836 35.9474 74.1205C33.8344 74.8348 31.5491 73.494 30.7047 71.1321C29.9377 68.7784 30.9853 66.3051 33.0209 65.5825Z" fill="black"/>
<path d="M33.3176 68.6694C34.4877 68.716 35.5246 67.8084 35.5713 66.6383C35.6179 65.4683 34.7103 64.4313 33.5402 64.3847C32.3702 64.338 31.3332 65.2456 31.2865 66.4157C31.2316 67.6632 32.1475 68.6228 33.3176 68.6694Z" fill="white"/>
<path d="M14.4415 51.7693C14.819 47.5011 12.6271 43.8201 11.0472 42.4763C10.978 42.3906 11.3457 41.8815 11.4924 41.9755C13.6723 42.8351 17.4412 47.1545 16.9974 52.0423C16.923 52.7394 14.4527 52.3972 14.4415 51.7693Z" fill="black"/>
<path d="M21.8019 48.8734C15.4245 44.0403 16.8872 34.0128 23.5663 30.8877C32.2976 26.8851 40.3827 34.799 38.3191 43.1173C36.803 50.7107 27.4574 53.8643 21.8019 48.8734Z" fill="white"/>
<path d="M39.2472 41.0232C39.2419 41.806 39.09 42.4948 38.9298 43.261C38.1372 47.0149 35.4661 50.0197 31.7296 51.2657C28.0704 52.5199 24.1534 51.7882 21.3644 49.2969C18.249 46.9273 16.6932 43.1577 17.1234 39.1301C17.5453 35.18 19.8622 31.824 23.3138 30.3125C27.4347 28.4026 31.8412 28.9516 35.0784 31.6475C37.884 33.9839 39.3954 37.4355 39.2472 41.0232ZM18.3491 40.1227C18.234 43.4006 19.6319 46.4483 22.169 48.3644C24.673 50.5903 28.0562 51.1867 31.3032 50.1234C34.636 48.991 37.0333 46.3486 37.7071 42.9738C37.8591 42.285 37.9335 41.5879 37.9997 40.9683C38.1065 37.7679 36.7861 34.7284 34.2655 32.6574C31.3133 30.227 27.4407 29.8133 23.7402 31.4548C20.6924 32.8527 18.6575 35.7688 18.2769 39.3316C18.3296 39.5723 18.3048 39.8046 18.3491 40.1227Z" fill="black"/>
<path d="M35.4053 31.5257C36.6552 30.0925 39.7818 33.0899 40.7759 36.2512C41.7699 39.4125 40.9945 45.205 38.61 44.7936C37.0692 44.5507 37.6994 43.0512 37.3415 39.8012C36.734 34.4877 34.1638 32.8815 35.4053 31.5257Z" fill="#8CC800"/>
<path d="M41.7896 39.9628C41.7459 41.8382 41.2293 43.7415 40.4164 44.7514C39.7057 45.5372 38.9921 45.6176 38.4582 45.4823C36.84 45.2311 36.8174 43.9753 36.8363 42.3322C36.825 41.7043 36.8385 40.8441 36.7055 39.8898C36.4363 37.2759 35.6723 35.6276 35.0993 34.3913C34.5346 33.0776 34.0917 32.0903 34.8964 31.1578C35.3415 30.657 35.9085 30.4826 36.5973 30.6345C38.3622 30.9797 40.5151 33.5597 41.3347 36.1541C41.6918 37.2106 41.861 38.5604 41.7896 39.9628ZM35.71 32.3415C35.6769 32.6513 35.8679 33.0634 36.2499 33.8875C36.8228 35.1238 37.6477 36.9353 37.8921 39.7815C38.0169 40.8133 38.0116 41.596 38.0146 42.3014C38.065 44.0302 38.1259 44.1934 38.668 44.2513C38.8229 44.2678 39.1328 44.3009 39.4922 43.8693C40.5623 42.6519 40.9677 38.8567 40.209 36.4255C39.5194 34.0801 37.5493 31.9896 36.3958 31.788C36.086 31.7549 35.9228 31.8158 35.8371 31.885C35.7348 32.1091 35.7265 32.1866 35.71 32.3415Z" fill="black"/>
<path d="M28.5311 45.2832C31.6623 45.3043 34.3274 40.8888 31.4549 36.9784C28.9975 33.5825 24.5946 35.9323 23.89 38.1288C21.9806 44.2702 26.3376 45.2839 28.5311 45.2832Z" fill="#FA961E"/>
<path d="M23.4701 40.5912C23.4671 39.8859 23.6356 39.0421 23.9755 38.0601C24.6802 35.8636 29.0138 33.428 31.5404 36.9097C32.4232 38.179 32.7638 39.3904 32.7089 40.638C32.5908 43.2105 30.7244 45.2829 28.5309 45.2836C26.7329 45.2482 23.2806 44.5661 23.4701 40.5912ZM22.2143 40.6137C22.1872 42.3342 22.6662 43.7171 23.6513 44.7624C25.2755 46.4243 27.6074 46.595 28.5451 46.6169C31.3665 46.6049 33.7639 43.9625 33.9482 40.7703C34.0362 39.213 33.4963 37.6669 32.5443 36.3119C31.3156 34.6139 29.5229 33.7957 27.5287 34.131C25.457 34.4581 23.4078 36.041 22.9077 37.7893C22.4129 38.7549 22.2362 39.676 22.2143 40.6137Z" fill="black"/>
<path d="M27.6943 42.8442C26.3167 42.5404 25.3647 41.1853 25.6685 39.8077C25.9723 38.4301 27.3274 37.4781 28.705 37.782C30.0826 38.0858 31.0346 39.4409 30.7308 40.8185C30.5044 42.2044 29.1576 43.0789 27.6943 42.8442Z" fill="black"/>
<path d="M26.6563 39.3648C27.3451 39.5167 28.0226 39.0407 28.1745 38.3519C28.3265 37.6631 27.8505 36.9856 27.1617 36.8337C26.4729 36.6818 25.7953 37.1577 25.6434 37.8466C25.4915 38.5354 25.9675 39.2129 26.6563 39.3648Z" fill="white"/>
</svg>
