<svg width="184" height="182" viewBox="0 0 184 182" fill="none" xmlns="http://www.w3.org/2000/svg">
<g clip-path="url(#clip0_580_7697)">
<path d="M100.075 67.6703C98.8755 67.0509 97.6343 66.5154 96.3606 66.0674C90.7875 64.0581 77.0447 58.0714 78.3654 47.8627C80.0477 35.1662 92.3972 26.3156 103.797 20.6596C115.198 15.0036 123.528 34.3709 127.676 43.0076C128.815 45.2194 129.474 47.6462 129.611 50.1299C129.749 52.6136 129.361 55.0985 128.473 57.4222C127.586 59.746 126.218 61.8566 124.46 63.6163C122.702 65.3761 120.592 66.7453 118.27 67.635C112.446 70.0434 105.908 70.0561 100.075 67.6703Z" fill="#70B62E"/>
<path d="M92.4457 56.6276C91.4873 56.8543 90.5443 57.1418 89.6225 57.4883C85.5554 59.0324 74.9773 62.2073 70.8915 55.9136C65.8029 48.0686 68.445 37.2325 72.1646 28.6125C75.8842 19.9925 89.6998 26.8579 96.1263 29.6648C97.8146 30.357 99.3382 31.3972 100.598 32.7175C101.857 34.0377 102.825 35.6086 103.437 37.3276C104.048 39.0467 104.291 40.8754 104.149 42.6946C104.007 44.5138 103.484 46.2827 102.613 47.886C101.577 49.9409 100.146 51.771 98.4013 53.2712C96.6565 54.7714 94.6326 55.912 92.4457 56.6276Z" fill="#41A935"/>
<path d="M114.117 66.3402C113.657 65.4665 113.147 64.6202 112.589 63.8055C110.133 60.2034 104.563 50.6709 109.656 45.2308C116.052 38.4209 127.231 38.4091 136.434 39.9398C145.637 41.4705 142.303 56.5276 141.007 63.3801C140.732 65.1847 140.08 66.9111 139.093 68.4467C138.107 69.9822 136.807 71.2926 135.28 72.2923C133.753 73.292 132.032 73.9586 130.23 74.2487C128.427 74.5387 126.584 74.4457 124.821 73.9757C120.393 72.9241 116.552 70.1841 114.117 66.3402Z" fill="#41A935"/>
<path d="M149.874 74.1998C149.874 74.1998 147.38 58.5603 119.188 44.271C98.9638 34.0075 72.4478 34.7114 61.2939 42.1006C54.1211 46.6466 48.1244 52.8236 43.7925 60.1277C39.4607 67.4319 36.9164 75.6563 36.3673 84.1306C34.429 106.14 37.3518 132.122 57.0992 156.189C76.8466 180.257 116.965 148.24 128.055 138.902C139.146 129.565 157.215 101.071 149.874 74.1998Z" fill="#E9520E"/>
<path d="M122.108 123.806L122.227 123.948C122.467 124.196 122.754 124.395 123.071 124.532C123.388 124.669 123.728 124.743 124.074 124.748C124.419 124.753 124.762 124.69 125.083 124.562C125.404 124.434 125.696 124.244 125.943 124.003C149.736 100.94 138.081 70.817 137.958 70.5266C137.83 70.2064 137.64 69.9147 137.399 69.6679C137.158 69.4212 136.87 69.2243 136.553 69.0886C136.236 68.9528 135.896 68.8808 135.551 68.8767C135.206 68.8726 134.864 68.9366 134.544 69.0647C134.224 69.1929 133.932 69.3829 133.685 69.6239C133.438 69.8648 133.241 70.152 133.106 70.469C132.97 70.786 132.898 71.1266 132.894 71.4715C132.89 71.8163 132.954 72.1585 133.082 72.4787C133.515 73.5695 143.522 99.6821 122.283 120.232C121.811 120.697 121.532 121.323 121.499 121.985C121.467 122.647 121.684 123.297 122.108 123.806Z" fill="#F9B812"/>
</g>
<defs>
<clipPath id="clip0_580_7697">
<rect width="121.202" height="137.207" fill="white" transform="matrix(-0.644049 -0.764984 -0.764984 0.644049 183.021 92.7173)"/>
</clipPath>
</defs>
</svg>
