<svg xmlns="http://www.w3.org/2000/svg" width="260" height="240" viewBox="0 0 260 240" fill="none"> <path d="M102.435 20.0041C91.5924 46.4068 117.374 52.1129 117.374 52.1129C123.339 43.4275 125.6 25.2668 102.435 20.0041Z" fill="#41A935"/> <path d="M123.585 14.317C103.07 37.7163 112.525 48.5895 112.525 48.5895C122.397 41.141 135.995 23.1821 123.585 14.317Z" fill="#009640"/> <path d="M85.4135 35.8813C90.956 51.239 118.412 46.9363 118.412 46.9363C120.963 40.0599 113.909 29.5788 85.4135 35.8813Z" fill="#009640"/> <path d="M145.338 42.313C154.497 59.8843 147.04 83.0544 136.916 88.5003C128.803 92.8519 106.284 85.7523 97.1337 68.186C87.9838 50.6197 95.4785 43.3391 108.875 36.3774C122.271 29.4158 136.188 24.7467 145.338 42.313Z" fill="#E20E17"/> <path d="M122.148 49.6006C124.21 52.2806 128.135 66.0566 124.98 67.0917C122.048 68.042 115.236 57.4635 114.096 54.2187C113.189 51.5576 113.425 48.6422 115.501 47.3283C117.578 46.0143 120.443 47.3649 122.148 49.6006Z" fill="#E84252"/> <path d="M126.307 35.8895C125.731 35.8984 125.169 36.0704 124.688 36.3854C124.206 36.7004 123.823 37.1457 123.584 37.6694C123.345 38.1932 123.26 38.7741 123.338 39.3446C123.417 39.9152 123.655 40.452 124.026 40.8929L124.079 40.9227C124.528 41.4541 125.093 41.8754 125.731 42.1541C126.368 42.4328 127.061 42.5615 127.756 42.5303C128.105 42.447 128.45 42.3726 128.798 42.3121C130.859 41.9199 132.798 41.7855 133.119 42.6052C133.356 43.1801 132.808 44.0946 131.907 45.0785C131.237 45.7853 130.518 46.4433 129.754 47.0478C129.326 47.5374 128.968 48.0847 128.691 48.6738C128.5 49.137 128.461 49.6496 128.583 50.1364C128.704 50.6232 128.978 51.0584 129.365 51.3782C130.814 52.5723 132.465 53.4978 134.239 54.1111C136.673 54.9638 139.189 56.1068 139.119 57.1259C139.048 58.1451 136.989 58.7009 134.699 59.0457C133.548 59.2727 132.469 59.7727 131.552 60.5038C131.791 61.4287 132.016 62.3575 132.223 63.2763C133.33 64.8744 135.097 66.9586 136.077 68.078C136.297 68.3294 136.522 68.572 136.729 68.8273L136.8 68.867C137.837 70.1119 138.533 71.2813 138.106 71.8562C137.679 72.4311 135.855 72.3392 133.905 71.8278C133.905 71.8278 133.791 71.8224 133.637 71.8286C134.008 76.2364 133.527 79.5036 131.587 80.1378C129.647 80.7721 126.803 78.6773 123.681 75.333C123.512 75.4561 123.363 75.6036 123.238 75.7708C122.369 77.6106 121.401 79.0458 120.545 78.973C119.436 78.8745 119.024 75.9099 118.851 73.3112C118.633 71.5143 118.279 69.7365 117.79 67.9933C117.388 67.4424 117.001 66.8876 116.609 66.319C115.468 66.0053 113.799 67.3615 113.799 67.3615C111.842 69.1492 109.57 70.7492 108.759 70.1196C107.947 69.4899 109.104 65.6598 110.263 63.0521C111.513 59.5763 111.304 58.1211 111.145 57.6364L110.997 57.3794C110.552 56.9931 110.031 56.7031 109.468 56.5276C108.905 56.352 108.311 56.2948 107.725 56.3593C106.918 56.5115 106.104 56.6134 105.312 56.7164C103.522 56.8761 101.985 56.7707 101.626 56.0809C101.267 55.3912 102.472 54.0536 104.028 52.7739L104.368 52.4993C105.334 51.6912 107.797 49.2096 105.775 46.6451C105.175 46.2582 104.461 46.089 103.752 46.1659C103.043 46.2428 102.382 46.5612 101.88 47.0677C97.3753 51.5919 96.3188 57.4447 101.317 67.0412C108.832 81.4571 127.309 87.2906 133.971 83.7194C142.298 79.2554 148.405 60.2381 140.895 45.8133C136.827 38.2973 131.798 35.757 126.307 35.8895Z" fill="#E84252"/> </svg>