<svg xmlns="http://www.w3.org/2000/svg" width="125" height="125" viewBox="0 0 125 125" fill="none"> <path d="M59.2539 66.9452C58.7163 67.4932 57.9029 67.5915 57.3548 67.0539C39.3038 52.9315 33.544 27.9236 33.3526 26.8397C33.1647 26.1177 33.6092 25.2991 34.5122 25.1094C35.2343 24.9215 36.0529 25.366 36.2425 26.269C36.3356 26.5396 42.0041 51.4578 59.233 64.7738C59.8707 65.2201 59.9707 66.2144 59.5244 66.8521C59.3435 66.8538 59.2539 66.9452 59.2539 66.9452Z" fill="#009640"/> <path d="M86.0342 38.5481C103.667 56.2033 103.328 86.8796 93.2033 97.2013C85.0495 105.514 55.371 105.437 37.828 87.6904C20.285 69.9439 26.5981 58.3921 40.042 45.0526C53.5755 31.6218 68.4913 20.8016 86.0342 38.5481Z" fill="#E20E17"/> <path d="M41.4846 82.1358C41.395 82.2271 41.3054 82.3185 41.0348 82.4115C40.3145 82.7804 39.4977 82.5168 39.1288 81.7965C36.3625 76.3942 36.2224 71.2382 38.7948 65.8751C39.1497 65.1478 39.9614 64.8686 40.6886 65.2235C41.4159 65.5784 41.6951 66.3901 41.3402 67.1173C39.2123 71.6618 39.2524 75.8236 41.6499 80.5055C42.017 81.0449 41.843 81.7704 41.4846 82.1358Z" fill="#E84252"/> <path d="M84.3117 85.2523C85.4974 86.2362 87.5278 90.3788 86.363 91.5663C85.1964 92.5728 81.9185 90.4327 80.7328 89.4489C79.5471 88.465 79.4401 86.7469 80.424 85.5611C81.4078 84.3754 83.2156 84.1771 84.3117 85.2523Z" fill="#B81819"/> <path d="M85.1618 70.1343C86.3475 71.1182 88.3779 75.2608 87.2131 76.4483C86.0465 77.4548 82.7686 75.3148 81.5829 74.3309C80.3972 73.347 80.2902 71.6289 81.274 70.4432C82.1683 69.3488 83.9761 69.1504 85.1618 70.1343Z" fill="#B81819"/> <path d="M86.1066 55.4669C87.2923 56.4508 89.3227 60.5934 88.1579 61.7809C86.9913 62.7874 83.7134 60.6473 82.5277 59.6635C81.342 58.6796 81.235 56.9615 82.2189 55.7757C83.1132 54.6814 84.9209 54.483 86.1066 55.4669Z" fill="#B81819"/> <path d="M70.6383 55.8876C71.824 56.8715 73.8545 61.0141 72.6896 62.2016C71.523 63.2081 68.2451 61.0681 67.0594 60.0842C65.8737 59.1003 65.7667 57.3822 66.7506 56.1965C67.6449 55.1021 69.4526 54.9037 70.6383 55.8876Z" fill="#B81819"/> <path d="M76.7529 42.5275C77.9387 43.5114 79.9691 47.654 78.8042 48.8414C77.6377 49.8479 74.3598 47.7079 73.1741 46.724C71.9883 45.7401 71.8813 44.022 72.8652 42.8363C73.8491 41.6506 75.7482 41.5418 76.7529 42.5275Z" fill="#B81819"/> <path d="M70.693 70.9973C71.8787 71.9811 73.9091 76.1237 72.7443 77.3112C71.5777 78.3177 68.2998 76.1777 67.1141 75.1938C65.9284 74.2099 65.8214 72.4918 66.8053 71.3061C67.7892 70.1204 69.5969 69.922 70.693 70.9973Z" fill="#B81819"/> <path d="M40.8691 46.4015C78.5858 35.543 75.9699 17.5625 75.9699 17.5625C60.419 18.7978 33.64 28.5558 40.8691 46.4015Z" fill="#009640"/> <path d="M73.4159 34.2359C63.9737 49.7084 35.708 45.999 35.708 45.999C34.558 39.3145 44.4987 28.6326 73.4159 34.2359Z" fill="#41A935"/> <path d="M35.4992 43.1064C35.0268 59.8499 47.9844 61.8064 52.7821 62.0317C53.8677 62.0213 54.8569 61.3784 55.0274 60.291C56.5793 52.3137 53.4815 40.6715 37.6497 40.9142C36.564 40.9246 35.5784 41.9294 35.4992 43.1064Z" fill="#009640"/> <path d="M19.9238 79.4473C38.8586 72.5696 41.1787 40.9694 41.1787 40.9694C34.0044 38.2335 20.243 46.7806 19.9238 79.4473Z" fill="#41A935"/> </svg>