<svg width="166" height="31" viewBox="0 0 166 31" fill="none" xmlns="http://www.w3.org/2000/svg">
<path d="M19.5828 7.39837C20.1259 6.0481 19.9358 4.5853 19.0667 3.68512C18.5235 3.1225 17.763 2.81307 16.921 2.81307C15.7803 2.81307 14.6395 3.37568 13.7161 4.44464C12.4667 1.54719 10.2124 0 8.03951 0C6.95309 0 5.97532 0.393822 5.26915 1.12523C4.15556 2.27859 3.91112 4.19147 4.61729 5.99183C4.80742 6.44193 5.24197 7.34211 6.11112 8.21415H0V31H12.2223H14.6667H22V8.21415H19.1393C19.3213 7.94222 19.4778 7.67031 19.5828 7.39837ZM7.00742 2.92558C7.33334 2.58801 7.74075 2.53176 8.06668 2.53176C9.64199 2.53176 11.7605 4.304 12.1951 8.21415V8.24229H11.7605C8.99013 7.82033 7.44199 6.38566 6.89878 5.03538C6.57285 4.19147 6.60001 3.34754 7.00742 2.92558ZM12.2223 28.4683H2.44444V10.7741H10.7556L7.33334 14.3185V17.8912L12.2223 12.8275V28.4683ZM14.6395 8.27042C15.0197 6.245 16.1062 5.34484 16.921 5.34484C17.0296 5.34484 17.2197 5.37296 17.3284 5.48548C17.4642 5.62614 17.4914 5.99183 17.3284 6.44193C17.0296 7.17333 16.2148 7.96099 14.7482 8.27042H14.6667H14.6395ZM19.5556 28.4965H14.6667V12.8275L17.1111 15.3594V11.7868L16.1333 10.7741H19.5556V28.4965Z" fill="#14AEAD"/>
<path d="M43 14.7414C43 10.6059 40.2062 8 36.1917 8H28V31H30.3599V21.5394H36.1917C40.2062 21.5394 43 18.8769 43 14.7414ZM35.9747 19.3584H30.3599V10.2094H35.9747C38.7144 10.2094 40.6402 11.7389 40.6402 14.7697C40.6402 17.8005 38.7144 19.3584 35.9747 19.3584Z" fill="#14AEAD"/>
<path d="M52.0329 8L44 31H46.4716L48.2179 25.7882H57.7553L59.5016 31H62L53.994 8H52.0329ZM48.9432 23.6638L53.0537 11.5123L57.0836 23.6638H48.9432Z" fill="#14AEAD"/>
<path d="M76.5635 20.5763C79.5211 19.9533 81.5493 17.7721 81.5493 14.4015C81.5493 10.4076 78.7324 8 74.7606 8H66V31H68.4508V20.803H73.9155L79.1268 31H82L76.5635 20.5763ZM68.4508 18.6503V10.2094H74.5353C77.2112 10.2094 79.0986 11.6257 79.1268 14.4582C79.1268 17.2624 77.2394 18.6503 74.5634 18.6503H68.4508Z" fill="#14AEAD"/>
<path d="M89.4166 20.8721H99.3056V18.6654H89.4166V10.2066H101V8H87V31H89.4166V20.8721Z" fill="#14AEAD"/>
<path d="M121 8H118.545V23.0805C118.545 26.5348 116.316 28.8095 112.986 28.8095C109.656 28.8095 107.455 26.5348 107.455 23.0805V8H105V23.2772C105 27.8265 108.358 31 112.986 31C117.614 31 121 27.8265 121 23.2772V8Z" fill="#14AEAD"/>
<path d="M145 31V8H142.625L135.581 24.3153L128.375 8H126V31H128.375V13.5235L134.545 27.3744H136.565L142.625 13.5235V31H145Z" fill="#14AEAD"/>
<path d="M164.168 20.0715C163.253 19.2352 162.23 18.7891 160.183 18.4824L157.786 18.0921C156.655 17.9248 155.524 17.4788 154.851 16.8654C154.177 16.2799 153.881 15.3879 153.881 14.2727C153.881 11.7636 155.578 10.0909 158.487 10.0909C160.775 10.0909 162.23 10.76 163.576 12.0424L165.084 10.4812C163.198 8.72483 161.368 8 158.567 8C154.232 8 151.566 10.5369 151.566 14.3842C151.566 16.1964 152.131 17.6182 153.235 18.6218C154.177 19.486 155.524 20.0715 157.247 20.3503L159.806 20.7685C161.394 21.0194 161.96 21.2145 162.66 21.8557C163.36 22.4691 163.711 23.5005 163.711 24.6715C163.711 27.2921 161.745 28.8533 158.54 28.8533C156.089 28.8533 154.393 28.24 152.589 26.3721L151 28.0169C153.047 30.1357 155.2 31 158.487 31C163.011 31 166.026 28.5466 166 24.5599C166 22.6642 165.353 21.1309 164.168 20.0715Z" fill="#14AEAD"/>
</svg>
