<svg width="170" height="39" viewBox="0 0 170 39" fill="none" xmlns="http://www.w3.org/2000/svg">
<path d="M141.953 4.34487C141.953 6.67554 139.565 8.55144 136.609 8.55144C133.653 8.55144 131.266 6.67554 131.266 4.34487C131.266 2.01421 133.653 0.138306 136.609 0.138306C139.565 0.138306 141.953 2.01421 141.953 4.34487Z" fill="#FF7F00"/>
<path d="M131.777 27.0831C131.777 30.3233 132.687 31.2329 135.927 31.2329H137.405C140.645 31.2329 141.555 30.3233 141.555 27.0831V14.634C141.555 11.3938 140.645 10.4843 137.405 10.4843H135.927C132.687 10.4843 131.777 11.3938 131.777 14.634V27.0831Z" fill="#FF7F00"/>
<path d="M169.353 27.9927L163.498 19.7501L168.159 13.7813C169.182 12.417 168.273 10.4842 166.567 10.4842H161.792C160.826 10.4842 159.86 10.939 159.291 11.7349L154.914 17.8742V8.43781C154.914 5.19761 154.005 4.28809 150.764 4.28809H149.286C146.046 4.28809 145.137 5.19761 145.137 8.43781V27.0831C145.137 30.3233 146.046 31.2329 149.286 31.2329H150.764C154.005 31.2329 154.914 30.3233 154.914 27.0831V22.5355L159.575 29.4138C160.314 30.5507 161.622 31.2329 162.929 31.2329H167.761C169.353 31.2329 170.319 29.357 169.353 27.9927Z" fill="#FF7F00"/>
<path d="M118.643 10.3136C115.289 10.3136 112.902 11.7347 111.367 13.099C111.083 11.1094 110.003 10.541 107.331 10.541H105.853C102.613 10.541 101.703 11.4505 101.703 14.6907V34.4729C101.703 37.7131 102.613 38.6227 105.853 38.6227H107.331C110.571 38.6227 111.481 37.7131 111.481 34.4729V28.9021C112.902 30.2095 115.176 31.517 118.643 31.517C124.157 31.517 128.591 26.8556 128.591 20.9437C128.591 14.9181 125.123 10.3136 118.643 10.3136ZM114.55 25.7756C113.015 25.7756 111.481 24.8661 111.481 22.5922V19.2952C111.481 16.9645 113.072 15.9413 114.55 15.9413C117.904 15.9413 118.87 18.8973 118.87 20.8869C118.87 22.8765 118.018 25.7756 114.55 25.7756Z" fill="#FF7F00"/>
<path d="M17.4595 10.3136C14.1056 10.3136 11.7181 11.7347 10.1833 13.099C9.89904 11.1094 8.81898 10.541 6.14724 10.541H4.66925C1.42906 10.541 0.519531 11.4505 0.519531 14.6907V34.4729C0.519531 37.7131 1.42906 38.6227 4.66925 38.6227H6.14724C9.38743 38.6227 10.297 37.7131 10.297 34.4729V28.9021C11.7181 30.2095 13.9919 31.517 17.4595 31.517C22.9735 31.517 27.4075 26.8556 27.4075 20.9437C27.3506 14.9181 23.883 10.3136 17.4595 10.3136ZM13.3666 25.7756C11.8318 25.7756 10.297 24.8661 10.297 22.5922V19.2952C10.297 16.9645 11.8886 15.9413 13.3666 15.9413C16.7205 15.9413 17.6869 18.8973 17.6869 20.8869C17.63 22.8765 16.8342 25.7756 13.3666 25.7756Z" fill="#FF7F00"/>
<path d="M90.2197 10.2568C84.5352 10.2568 82.7161 13.2696 82.7161 13.2696C82.7161 13.2696 81.1813 10.2568 76.0652 10.2568C73.1661 10.2568 71.1196 11.678 69.8122 13.0991C69.528 11.1095 68.4479 10.4842 65.7761 10.4842H64.2982C61.058 10.4842 60.1484 11.3937 60.1484 14.6339V27.0831C60.1484 30.3233 61.058 31.2328 64.2982 31.2328H65.7761C69.0163 31.2328 69.9259 30.3233 69.9259 27.0831V20.3753C69.9259 16.6804 70.2101 15.6572 72.3134 15.6572C74.0756 15.6572 74.4167 17.192 74.4167 20.3753V24.1271V27.0263C74.4167 30.2665 75.3262 31.176 78.5664 31.176H80.0444C83.2846 31.176 84.1941 30.3233 84.1941 27.0263C84.1941 25.3777 84.1941 20.3185 84.1941 20.3185C84.1941 17.9878 83.7962 15.6003 86.5816 15.6003C88.3438 15.6003 88.6849 17.1351 88.6849 20.3185C88.6849 21.8533 88.6849 25.3209 88.6849 27.0263C88.6849 30.2665 89.5944 31.176 92.8346 31.176H94.3126C97.5528 31.176 98.4623 30.2665 98.4623 27.0263V24.1271V20.3753C98.2918 11.3937 94.2558 10.2568 90.2197 10.2568Z" fill="#FF7F00"/>
<path d="M52.4179 10.4842H50.9399C48.3819 10.4842 47.3018 11.0527 46.9607 12.8149C45.5396 11.5074 43.3795 10.2568 40.1961 10.2568C33.7157 10.2568 29.6797 14.8613 29.6797 20.8301C29.6797 26.7989 34.1136 31.4034 39.6277 31.4034C43.1521 31.4034 45.4259 30.0959 46.9039 28.5611C47.1881 30.6075 48.2682 31.2328 50.9399 31.2328H52.4179C55.6581 31.2328 56.5676 30.3233 56.5676 27.0831V14.6339C56.5676 11.3937 55.6581 10.4842 52.4179 10.4842ZM46.847 22.5923C46.847 24.8661 45.3122 25.7757 43.7774 25.7757C40.3098 25.7757 39.4571 22.8197 39.4571 20.8301C39.4571 18.8405 40.4235 15.8845 43.7774 15.8845C45.2554 15.8845 46.847 16.9078 46.847 19.2384V22.5923Z" fill="#FF7F00"/>
</svg>
