<svg width="142" height="40" viewBox="0 0 142 40" fill="none" xmlns="http://www.w3.org/2000/svg">
<path fill-rule="evenodd" clip-rule="evenodd" d="M30.7634 0L0 0.0420227L0.0424679 30.9317L31.0192 30.8896L30.9771 0H30.7634ZM6.82426 24.1269H24.1949V6.80475H6.82426V24.1269Z" fill="url(#paint0_linear_761_13191)"/>
<path fill-rule="evenodd" clip-rule="evenodd" d="M55.8149 23.8943C56.8766 22.8356 57.3862 21.5651 57.3862 20.0826C57.3862 18.6004 56.8766 17.3299 55.8149 16.3136C54.7532 15.2549 53.4792 14.7467 51.95 14.7467C50.3787 14.7467 49.0622 15.2549 47.958 16.3136C46.8963 17.3299 46.3443 18.6004 46.3443 20.0826C46.3443 21.5651 46.8963 22.8356 47.958 23.8943C49.0622 24.9106 50.3787 25.4188 51.95 25.4188C53.4792 25.4188 54.7532 24.9106 55.8149 23.8943ZM40.3984 38.9283V9.41043H46.7265V12.2054C47.3635 10.3421 49.8691 9.0293 53.097 9.0293C56.1122 9.0293 58.6603 10.088 60.6563 12.2478C62.6951 14.3655 63.7143 16.9911 63.7143 20.0826C63.7143 23.1743 62.6951 25.8 60.6563 27.9597C58.6603 30.0771 56.1122 31.1359 53.097 31.1359C49.8691 31.1359 47.3635 29.8231 46.7265 27.9597V38.9283H40.3984Z" fill="#010101"/>
<path fill-rule="evenodd" clip-rule="evenodd" d="M66.9844 30.7548V9.41054H73.3124V12.3326C74.2892 10.1725 76.5828 8.9447 79.5131 8.9447C79.9377 8.9447 80.4898 8.98705 81.1693 9.07142V15.0009C80.5323 14.8735 79.8103 14.7888 79.0459 14.7888C75.4358 14.7888 73.3124 16.8218 73.3124 20.3368V30.7548H66.9844Z" fill="#010101"/>
<path fill-rule="evenodd" clip-rule="evenodd" d="M90.2976 24.0635C91.3593 25.1222 92.6758 25.6727 94.2471 25.6727C95.8184 25.6727 97.1353 25.1222 98.197 24.0635C99.2587 22.9624 99.8108 21.6496 99.8108 20.0824C99.8108 18.5158 99.2587 17.2027 98.197 16.144C97.1353 15.0433 95.8184 14.4924 94.2471 14.4924C92.6758 14.4924 91.3593 15.0433 90.2976 16.144C89.2356 17.2027 88.6838 18.5158 88.6838 20.0824C88.6838 21.6496 89.2356 23.0048 90.2976 24.0635ZM102.656 12.0785C104.992 14.2383 106.138 16.9063 106.138 20.0824C106.138 23.2589 104.992 25.9271 102.656 28.1289C100.32 30.289 97.5175 31.3901 94.2471 31.3901C90.9343 31.3901 88.1314 30.289 85.7957 28.1289C83.5024 25.9271 82.3555 23.2589 82.3555 20.0824C82.3555 16.9063 83.5024 14.2383 85.7957 12.0785C88.1314 9.87609 90.9343 8.77502 94.2471 8.77502C97.5175 8.77502 100.32 9.87609 102.656 12.0785Z" fill="#010101"/>
<path fill-rule="evenodd" clip-rule="evenodd" d="M109.449 30.7548V9.41054H115.777V12.0785C116.584 10.2148 118.75 8.9447 121.341 8.9447C124.229 8.9447 126.183 10.0881 127.159 12.3326C128.348 10.0881 130.727 8.9447 134.294 8.9447C139.178 8.9447 141.896 12.2476 141.896 17.7959V30.7548H135.568V18.5581C135.568 16.0596 134.421 14.5347 132.383 14.5347C130.302 14.5347 128.815 16.271 128.815 18.7699V30.7548H122.488V18.5581C122.488 16.0596 121.341 14.5347 119.302 14.5347C117.264 14.5347 115.777 16.271 115.777 18.7699V30.7548H109.449Z" fill="#010101"/>
<defs>
<linearGradient id="paint0_linear_761_13191" x1="0" y1="0" x2="30.9315" y2="31.0191" gradientUnits="userSpaceOnUse">
<stop stop-color="#554599"/>
<stop offset="1" stop-color="#6D268B"/>
</linearGradient>
</defs>
</svg>
