<svg xmlns="http://www.w3.org/2000/svg" width="260" height="240" viewBox="0 0 260 240" fill="none"> <path d="M84.6724 143.526C70.4696 123.661 56.5374 115.628 39.6819 123.922C19.4939 133.721 18.2817 172.72 23.8291 191.375C27.3143 202.677 38.7411 211.578 50.114 208.924C50.6734 208.847 50.9491 208.635 51.1738 209.259C54.1699 217.573 71.2146 226.75 85.9982 219.875C102.519 212.282 116.53 202.284 122.245 182.301C128.815 159.8 109.302 140.839 84.6724 143.526Z" fill="#B2CC1E"/> <path d="M79.6825 149.229C79.3989 149.094 79.257 149.026 79.0403 148.75C78.3901 147.923 78.508 146.947 79.3352 146.31C79.6778 145.958 87.5239 139.382 83.065 125.377C82.8323 124.406 83.3009 123.425 84.2779 123.204C85.2548 122.982 86.2477 123.457 86.4804 124.428C91.6963 140.859 81.9871 148.782 81.6444 149.134C81.093 149.559 80.3917 149.568 79.6825 149.229Z" fill="#010101"/> <path d="M45.7899 216.151C45.3643 215.947 45.0058 215.604 44.9229 215.048C44.6902 214.077 45.1588 213.096 46.1358 212.874L49.2006 211.93C50.0357 211.64 51.0286 212.115 51.3282 212.946L52.4437 215.716C52.8851 216.616 52.4166 217.596 51.5145 218.026C50.6124 218.455 49.6196 217.981 49.1781 217.081L48.7287 215.834L47.2673 216.34C46.566 216.35 46.2154 216.354 45.7899 216.151Z" fill="#1E1E1C"/> <path d="M37.8124 146.431C37.6706 146.364 37.6706 146.364 37.8124 146.431C36.8195 145.957 36.512 144.777 37.0555 144.005C45.0101 129.909 60.9776 131.86 61.1864 131.787C62.1713 131.914 62.8216 132.741 62.7036 133.717C62.5856 134.693 61.7585 135.33 60.7736 135.204C60.2811 135.141 47.0595 133.642 40.2508 145.703C39.6404 146.616 38.6635 146.838 37.8124 146.431Z" fill="#E5E573"/> <path d="M125.384 129.423C111.226 114.57 89.7137 121.671 90.6299 131.057C91.7787 141.415 106.068 143.596 125.384 129.423Z" fill="#41A935"/> <path d="M80.6229 150.54C78.2116 149.388 75.7844 147.54 74.1015 144.498C73.6601 143.599 73.9868 142.551 74.8889 142.121C75.7909 141.692 76.8508 142.026 77.2922 142.926C80.2994 148.664 87.5286 148.849 87.5286 148.849C88.5804 148.835 89.2307 149.662 89.2545 150.706C89.2784 151.75 88.4513 152.387 87.3994 152.401C87.3245 152.193 84.0271 152.166 80.6229 150.54Z" fill="#010101"/> <path d="M237.804 111.786C234.4 100.685 222.856 94.4693 211.755 97.8734C206.131 99.6494 201.691 103.498 199.175 108.382C199.175 108.382 195.179 119.778 179.787 133.098C176.679 135.318 174.163 138.13 172.239 141.386C172.239 141.386 172.239 141.386 172.091 141.534C168.095 148.194 166.763 156.483 169.279 164.623C172.683 176.019 182.747 183.715 193.995 184.899C201.099 191.115 211.163 193.631 220.784 190.671C230.256 187.859 237.804 181.791 239.728 171.579C244.464 133.838 238.544 114.006 237.804 111.786Z" fill="#FEC90A"/> <path d="M223.596 107.79C221.375 107.79 218.563 106.902 216.195 104.09C215.603 103.35 215.751 102.314 216.491 101.722C217.231 101.13 218.267 101.278 218.859 102.018C221.671 105.422 224.78 104.386 225.224 104.238C226.112 103.942 227 104.386 227.444 105.126C227.74 106.014 227.296 106.902 226.556 107.346C225.816 107.494 224.78 107.79 223.596 107.79Z" fill="#010101"/> <path d="M221.227 107.346C220.931 107.346 220.783 107.345 220.487 107.197C219.599 106.753 219.303 105.865 219.747 104.977C222.855 98.1693 225.075 87.8092 223.151 81.149C222.855 80.261 223.447 79.373 224.335 79.077C225.223 78.781 226.111 79.373 226.407 80.261C228.627 88.1052 226.111 99.3533 222.707 106.457C222.411 107.049 221.819 107.346 221.227 107.346Z" fill="#010101"/> <path d="M192.959 195.112C192.367 195.112 191.627 194.668 191.479 194.076L190.739 192.3L188.667 193.04C187.779 193.336 186.891 192.892 186.595 192.004C186.299 191.116 186.743 190.228 187.631 189.932L191.183 188.748C192.071 188.452 192.959 188.895 193.255 189.635L194.587 192.892C194.883 193.78 194.587 194.668 193.699 195.112C193.403 194.964 193.255 195.112 192.959 195.112Z" fill="#1E1E1C"/> <path d="M180.231 153.967C179.195 153.967 178.455 153.227 178.603 152.191C178.899 142.866 187.187 139.758 187.483 139.61C188.371 139.314 189.259 139.758 189.703 140.646C189.999 141.534 189.555 142.422 188.667 142.866C188.371 143.014 182.155 145.382 182.007 152.339C181.859 153.375 181.119 153.967 180.231 153.967Z" fill="#FDF187"/> <g clip-path="url(#clip0_1332_19798)"> <path d="M121.989 62.1125C121.716 62.2577 121.4 62.2973 121.101 62.2236C120.801 62.15 120.539 61.9683 120.366 61.7135C109.24 45.2853 111.147 23.1053 111.242 22.167C111.257 22.0031 111.304 21.8437 111.381 21.698C111.457 21.5523 111.562 21.423 111.688 21.3177C111.815 21.2124 111.961 21.133 112.118 21.0841C112.275 21.0352 112.44 21.0178 112.604 21.0328C112.768 21.0477 112.928 21.0949 113.073 21.1715C113.219 21.248 113.348 21.3526 113.454 21.4791C113.559 21.6056 113.638 21.7516 113.687 21.9088C113.736 22.066 113.754 22.2313 113.739 22.3952C113.718 22.6186 111.81 44.6747 122.415 60.3749C122.603 60.6514 122.673 60.9907 122.611 61.3188C122.548 61.6469 122.359 61.9369 122.083 62.1255L121.989 62.1125Z" fill="#009640"/> <path d="M151.614 45.7869C161.403 65.0557 153.026 90.2568 141.904 96.0947C133.008 100.764 108.533 92.7941 98.7791 73.5197C89.0247 54.2452 97.2481 46.3885 111.901 38.935C126.553 31.4816 141.815 26.5232 151.614 45.7869Z" fill="#E20E17"/> <path d="M103.255 69.8939C103.138 69.9549 103.012 69.996 102.881 70.0153C102.718 70.0441 102.552 70.0401 102.39 70.0036C102.229 69.9671 102.077 69.8988 101.943 69.8027C101.808 69.7066 101.695 69.5846 101.608 69.4439C101.522 69.3032 101.464 69.1467 101.439 68.9834C100.947 66.6302 101.048 64.1914 101.735 61.8873C102.421 59.5833 103.67 57.4864 105.37 55.786C105.598 55.5436 105.913 55.4017 106.245 55.3914C106.577 55.3812 106.9 55.5034 107.143 55.7312C107.385 55.959 107.527 56.2737 107.537 56.6062C107.547 56.9386 107.425 57.2615 107.197 57.5039C105.765 58.9248 104.713 60.6836 104.139 62.6181C103.565 64.5526 103.487 66.6005 103.913 68.5729C103.957 68.8344 103.918 69.1032 103.799 69.3407C103.681 69.5781 103.491 69.7718 103.255 69.8939Z" fill="#E84252"/> <path d="M137.807 83.8337C138.513 84.9643 139.098 88.9611 137.802 89.5663C136.505 90.1716 134.416 87.5026 133.72 86.3668C133.554 86.0985 133.442 85.8 133.391 85.4884C133.34 85.1768 133.351 84.8582 133.423 84.5508C133.495 84.2435 133.627 83.9533 133.812 83.697C133.996 83.4406 134.229 83.223 134.497 83.0567C134.766 82.8904 135.064 82.7785 135.376 82.7275C135.687 82.6766 136.006 82.6875 136.313 82.7596C136.621 82.8318 136.911 82.9638 137.167 83.1481C137.423 83.3323 137.641 83.5653 137.807 83.8337Z" fill="#B81819"/> <path d="M142.405 71.5744C143.111 72.705 143.695 76.7018 142.399 77.3071C141.103 77.9123 139.014 75.2433 138.318 74.1076C138.152 73.8392 138.04 73.5407 137.989 73.2291C137.938 72.9175 137.949 72.5989 138.021 72.2916C138.093 71.9842 138.225 71.694 138.409 71.4376C138.594 71.1813 138.827 70.9637 139.095 70.7974C139.363 70.6311 139.662 70.5192 139.973 70.4683C140.285 70.4173 140.604 70.4282 140.911 70.5003C141.218 70.5725 141.508 70.7045 141.765 70.8888C142.021 71.0731 142.239 71.306 142.405 71.5744Z" fill="#B81819"/> <path d="M147.093 59.7443C147.794 60.865 148.384 64.8716 147.073 65.4722C145.762 66.0728 143.702 63.4132 142.996 62.2826C142.805 62.0137 142.671 61.7083 142.602 61.3854C142.533 61.0626 142.531 60.729 142.596 60.4054C142.661 60.0817 142.792 59.7749 142.981 59.5038C143.169 59.2327 143.411 59.0032 143.692 58.8293C143.972 58.6555 144.286 58.541 144.612 58.493C144.939 58.4449 145.272 58.4644 145.591 58.5502C145.91 58.6359 146.207 58.7861 146.466 58.9915C146.724 59.1969 146.938 59.4531 147.093 59.7443Z" fill="#B81819"/> <path d="M134.262 56.0583C134.963 57.1791 135.553 61.1857 134.251 61.7811C132.95 62.3766 130.872 59.7272 130.175 58.5915C130.009 58.3231 129.897 58.0246 129.846 57.713C129.795 57.4014 129.806 57.0828 129.878 56.7754C129.95 56.4681 130.082 56.1779 130.267 55.9216C130.451 55.6652 130.684 55.4476 130.952 55.2813C131.221 55.115 131.519 55.0031 131.831 54.9521C132.142 54.9012 132.461 54.9121 132.768 54.9842C133.076 55.0564 133.366 55.1884 133.622 55.3727C133.879 55.5569 134.096 55.7899 134.262 56.0583Z" fill="#B81819"/> <path d="M142.934 46.652C143.64 47.7826 144.225 51.7794 142.929 52.3847C141.632 52.9899 139.543 50.321 138.847 49.1852C138.511 48.6432 138.404 47.99 138.55 47.3692C138.696 46.7484 139.082 46.211 139.624 45.875C140.166 45.5391 140.819 45.4323 141.44 45.578C142.061 45.7237 142.598 46.1101 142.934 46.652Z" fill="#B81819"/> <path d="M130.344 68.4232C131.05 69.5538 131.635 73.5506 130.339 74.1559C129.042 74.7611 126.959 72.1019 126.262 70.9662C126.095 70.6981 125.983 70.3998 125.931 70.0883C125.88 69.7768 125.89 69.4581 125.961 69.1505C126.033 68.843 126.164 68.5525 126.348 68.2956C126.531 68.0388 126.764 67.8206 127.032 67.6537C127.3 67.4867 127.598 67.3742 127.91 67.3225C128.221 67.2708 128.54 67.2809 128.848 67.3524C129.469 67.4967 130.007 67.8819 130.344 68.4232Z" fill="#B81819"/> <path d="M112.277 40.2505C146.263 41.3391 148.836 25.815 148.836 25.815C135.674 22.7153 111.099 23.7054 112.277 40.2505Z" fill="#009640"/> <path d="M142.292 38.9206C130.395 49.1439 108.094 38.6191 108.094 38.6191C108.974 32.7156 120.001 26.6021 142.292 38.9206Z" fill="#41A935"/> <path d="M108.783 36.1675C103.974 49.8133 114.088 54.9252 118.04 56.3287C118.47 56.4843 118.942 56.4836 119.371 56.3265C119.801 56.1695 120.162 55.8662 120.391 55.4698C123.769 49.3684 124.29 38.874 111.166 34.9165C110.685 34.7814 110.169 34.8358 109.726 35.0684C109.283 35.3009 108.946 35.6942 108.783 36.1675Z" fill="#009640"/> <path d="M86.258 61.9897C103.686 61.3487 113.961 35.9516 113.961 35.9516C108.791 31.7975 95.1608 35.0738 86.258 61.9897Z" fill="#41A935"/> </g> <defs> <clipPath id="clip0_1332_19798"> <rect width="72.1653" height="80.2846"  transform="translate(75 40.54) rotate(-27.695)"/> </clipPath> </defs> </svg>