<svg width="791" height="158" viewBox="0 0 791 158" fill="none" xmlns="http://www.w3.org/2000/svg">
<g clip-path="url(#clip0_3508_12978)">
<path d="M-586.176 842.963C-611.549 867.54 -631.671 896.722 -645.393 928.842C-659.114 960.962 -666.167 995.391 -666.148 1030.16C-666.128 1064.93 -659.037 1099.37 -645.28 1131.49C-631.522 1163.62 -611.368 1192.81 -585.968 1217.4L-570.802 1232.09C-545.417 1256.69 -515.281 1276.21 -482.115 1289.54C-448.948 1302.87 -413.401 1309.74 -377.504 1309.75C-341.608 1309.77 -306.065 1302.94 -272.905 1289.65C-239.745 1276.36 -209.618 1256.87 -184.245 1232.29C-133.006 1182.66 -63.5001 1154.79 8.99006 1154.8C81.4802 1154.82 151.018 1182.72 202.312 1232.38C253.59 1282.05 323.12 1309.97 395.61 1310.01C468.1 1310.05 537.615 1282.2 588.869 1232.58C614.242 1208 644.369 1188.51 677.529 1175.22C710.689 1161.93 746.233 1155.1 782.129 1155.12C818.026 1155.14 853.572 1162.01 886.739 1175.33C919.905 1188.66 950.042 1208.18 975.427 1232.78C1026.71 1282.46 1096.26 1310.39 1168.77 1310.42C1241.27 1310.44 1310.79 1282.57 1362.04 1232.93L1377.25 1218.2C1428.32 1168.52 1456.94 1101.23 1456.84 1031.1C1456.73 960.962 1427.91 893.711 1376.69 844.1C1325.43 794.415 1296.62 727.058 1296.61 656.84C1296.59 586.623 1325.36 519.296 1376.6 469.664C1427.85 420.022 1456.63 352.679 1456.6 282.448C1456.57 212.217 1427.74 144.852 1376.45 95.1714L1361.29 80.4822C1310 30.802 1240.45 2.87655 1167.95 2.84925C1095.44 2.82195 1025.92 30.6945 974.67 80.336C923.432 129.968 853.925 157.84 781.435 157.823C708.945 157.807 639.407 129.903 588.113 80.2476C536.835 30.5773 467.306 2.65277 394.816 2.6148C322.326 2.57683 252.81 30.4284 201.556 80.045C176.19 104.63 146.07 124.13 112.914 137.431C79.7582 150.732 44.2175 157.574 8.32086 157.566C-27.5758 157.558 -63.1248 150.7 -96.2954 137.383C-129.466 124.067 -159.608 104.553 -185.001 79.9569C-236.289 30.2767 -305.836 2.35092 -378.341 2.32362C-450.845 2.29632 -520.368 30.1698 -571.617 79.8113L-586.77 94.4895C-638.019 144.131 -666.795 211.474 -666.766 281.705C-666.738 351.936 -637.908 419.302 -586.62 468.982C-561.219 493.571 -541.065 522.762 -527.308 554.889C-513.55 587.015 -506.459 621.448 -506.44 656.219C-506.42 690.99 -513.473 725.418 -527.195 757.538C-540.916 789.659 -561.038 818.84 -586.411 843.418L-586.176 842.963Z" fill="white"/>
</g>
<defs>
<clipPath id="clip0_3508_12978">
<rect width="791" height="158" fill="white"/>
</clipPath>
</defs>
</svg>
