<svg width="2143" height="1350" viewBox="0 0 2143 1350" fill="none" xmlns="http://www.w3.org/2000/svg">
<path d="M87.6805 885.439C62.4487 910.731 42.5431 940.53 29.101 973.133C15.6588 1005.74 8.94311 1040.5 9.33778 1075.45C9.73254 1110.4 17.2297 1144.84 31.4011 1176.81C45.5726 1208.79 66.1403 1237.66 91.9302 1261.78L107.328 1276.19C133.103 1300.33 163.597 1319.25 197.069 1331.88C230.542 1344.5 266.337 1350.58 302.409 1349.76C338.482 1348.94 374.125 1341.25 407.304 1327.12C440.482 1312.99 470.547 1292.7 495.778 1267.41C546.732 1216.33 616.277 1186.7 689.122 1185.03C761.967 1183.36 832.146 1209.79 884.226 1258.51C936.291 1307.24 1006.46 1333.69 1079.31 1332.04C1152.15 1330.39 1221.71 1300.78 1272.68 1249.72C1297.91 1224.43 1327.97 1204.14 1361.15 1190.01C1394.33 1175.88 1429.97 1168.18 1466.05 1167.37C1502.12 1166.55 1537.91 1172.63 1571.38 1185.25C1604.86 1197.87 1635.35 1216.8 1661.13 1240.94C1713.2 1289.68 1783.39 1316.13 1856.25 1314.47C1929.11 1312.81 1998.67 1283.18 2049.63 1232.09L2064.76 1216.93C2115.54 1165.81 2143.58 1097.51 2142.72 1027.02C2141.85 956.533 2112.16 889.609 2060.16 840.936C2008.11 792.189 1978.44 725.158 1977.66 654.583C1976.89 584.008 2005.07 515.668 2056.03 464.591C2106.99 413.505 2135.18 345.148 2134.39 274.559C2133.61 203.97 2103.91 136.932 2051.84 88.1907L2036.44 73.7792C1984.36 25.0382 1914.18 -1.41253 1841.32 0.246098C1768.46 1.90472 1698.89 31.5363 1647.93 82.623C1596.98 133.7 1527.43 163.33 1454.59 164.999C1381.74 166.668 1311.56 140.239 1259.48 91.5232C1207.42 42.7919 1137.25 16.3417 1064.4 17.9892C991.556 19.6368 922.001 49.2472 871.032 100.309C845.808 125.609 815.75 145.909 782.576 160.049C749.401 174.189 713.761 181.893 677.689 182.719C641.616 183.545 605.819 177.479 572.343 164.866C538.866 152.253 508.366 133.341 482.584 109.209C430.509 60.4682 360.32 34.0174 287.461 35.676C214.602 37.3346 145.039 66.9669 94.0759 118.054L79.0068 133.159C28.0433 184.246 -0.146407 252.602 0.639779 323.19C1.42592 393.779 31.1239 460.818 83.1992 509.559C108.989 533.683 129.557 562.555 143.728 594.525C157.9 626.496 165.397 660.939 165.792 695.887C166.186 730.835 159.471 765.603 146.028 798.207C132.586 830.81 112.681 860.608 87.4488 885.901L87.6805 885.439Z" fill="white"/>
</svg>
