<svg width="0" height="0" class="hidden">
  <symbol xmlns="http://www.w3.org/2000/svg" viewBox="0 0 1915 828" id="main-vector">
    <path d="M95.1072 591.729C70.2463 605.323 49.2719 621.142 33.3822 638.284C17.4924 655.426 6.99837 673.553 2.4997 691.631C-1.99898 709.709 -0.414315 727.387 7.16324 743.643C14.7408 759.906 28.1624 774.436 46.6622 786.405L57.7065 793.557C76.191 805.533 99.3931 814.713 125.988 820.578C152.583 826.442 182.049 828.871 212.703 827.723C243.359 826.583 274.6 821.887 304.646 813.911C334.691 805.934 362.952 794.832 387.813 781.237C438.018 753.781 500.998 737.06 562.904 734.737C624.811 732.414 680.576 744.692 717.934 768.861C755.277 793.037 811.031 805.322 872.936 803.012C934.84 800.696 997.825 783.983 1048.04 756.54C1072.9 742.946 1101.16 731.844 1131.21 723.867C1161.25 715.891 1192.49 711.195 1223.15 710.047C1253.8 708.907 1283.27 711.336 1309.86 717.2C1336.46 723.058 1359.66 732.245 1378.14 744.22C1415.5 768.403 1471.27 780.688 1533.18 778.372C1595.1 776.056 1658.1 759.328 1708.31 731.865L1723.22 723.719C1773.28 696.247 1806.47 660.341 1815.48 623.879C1824.49 587.417 1808.61 553.377 1771.32 529.229C1733.98 505.043 1718.13 470.948 1727.23 434.44C1736.34 397.932 1769.66 362.001 1819.86 334.549C1870.08 307.091 1903.39 271.151 1912.49 234.636C1921.59 198.121 1905.71 164.022 1868.36 139.84L1857.31 132.69C1819.97 108.508 1851.04 39.1388 1789.13 41.455C1727.21 43.7713 1660.82 -7.81731 1610.61 19.6405C1560.41 47.0928 1471.75 -2.24159 1409.83 0.0797607C1347.92 2.40111 1253.01 78.7149 1215.65 54.5458C1178.32 30.3686 1103.94 120.958 1042.03 123.268C980.127 125.578 929.676 56.8132 879.461 84.2583C854.605 97.8563 851.765 62.7271 821.722 70.7088C818.715 -76.0408 749.462 126.864 718.806 128.013C685.202 -44.6939 626.465 136.922 599.865 131.065C573.266 125.207 563.858 168.515 545.366 156.542C508.016 132.36 443.686 145.652 381.768 147.968C319.851 150.284 256.856 167.011 206.641 194.469L191.794 202.588C141.579 230.046 108.259 265.985 99.1633 302.5C90.0675 339.014 105.941 373.114 143.292 397.296C161.792 409.264 175.214 423.794 182.791 440.056C190.368 456.317 191.953 473.992 187.455 492.07C182.956 510.149 172.462 528.276 156.572 545.418C140.683 562.559 119.708 578.378 94.8471 591.973L95.1072 591.729Z" ></path>
  </symbol>
	<symbol xmlns="http://www.w3.org/2000/svg" viewBox="0 0 412 378" id="vector-white-hero">
    <path d="M411.682 108.163C413.035 59.2042 367.012 11.7399 308.904 2.11232C279.001 -2.86222 251.77 3.25559 232.142 16.9785C232.142 16.9785 195.138 52.086 100.659 72.1901C82.2925 74.5627 65.5915 80.1647 51.1664 88.5242C50.9782 88.5772 50.79 88.6302 50.6018 88.6832L50.7434 88.7432C20.931 106.183 1.68596 135.141 0.689518 170.905C-0.72572 221.631 34.941 271.212 86.8217 298.186C111.19 336.204 155.193 366.146 206.131 374.593C256.055 382.876 301.351 375.121 327.021 340.056C327.067 339.943 327.161 339.916 327.255 339.89C408.858 206.364 411.307 117.964 411.564 108.246L411.682 108.163Z" ></path>
  </symbol>
	<symbol xmlns="http://www.w3.org/2000/svg" viewBox="0 0 2143 1350" id="cloud-vector">
    <path d="M87.6805 885.439C62.4487 910.731 42.5431 940.53 29.101 973.133C15.6588 1005.74 8.94311 1040.5 9.33778 1075.45C9.73254 1110.4 17.2297 1144.84 31.4011 1176.81C45.5726 1208.79 66.1403 1237.66 91.9302 1261.78L107.328 1276.19C133.103 1300.33 163.597 1319.25 197.069 1331.88C230.542 1344.5 266.337 1350.58 302.409 1349.76C338.482 1348.94 374.125 1341.25 407.304 1327.12C440.482 1312.99 470.547 1292.7 495.778 1267.41C546.732 1216.33 616.277 1186.7 689.122 1185.03C761.967 1183.36 832.146 1209.79 884.226 1258.51C936.291 1307.24 1006.46 1333.69 1079.31 1332.04C1152.15 1330.39 1221.71 1300.78 1272.68 1249.72C1297.91 1224.43 1327.97 1204.14 1361.15 1190.01C1394.33 1175.88 1429.97 1168.18 1466.05 1167.37C1502.12 1166.55 1537.91 1172.63 1571.38 1185.25C1604.86 1197.87 1635.35 1216.8 1661.13 1240.94C1713.2 1289.68 1783.39 1316.13 1856.25 1314.47C1929.11 1312.81 1998.67 1283.18 2049.63 1232.09L2064.76 1216.93C2115.54 1165.81 2143.58 1097.51 2142.72 1027.02C2141.85 956.533 2112.16 889.609 2060.16 840.936C2008.11 792.189 1978.44 725.158 1977.66 654.583C1976.89 584.008 2005.07 515.668 2056.03 464.591C2106.99 413.505 2135.18 345.148 2134.39 274.559C2133.61 203.97 2103.91 136.932 2051.84 88.1907L2036.44 73.7792C1984.36 25.0382 1914.18 -1.41253 1841.32 0.246098C1768.46 1.90472 1698.89 31.5363 1647.93 82.623C1596.98 133.7 1527.43 163.33 1454.59 164.999C1381.74 166.668 1311.56 140.239 1259.48 91.5232C1207.42 42.7919 1137.25 16.3417 1064.4 17.9892C991.556 19.6368 922.001 49.2472 871.032 100.309C845.808 125.609 815.75 145.909 782.576 160.049C749.401 174.189 713.761 181.893 677.689 182.719C641.616 183.545 605.819 177.479 572.343 164.866C538.866 152.253 508.366 133.341 482.584 109.209C430.509 60.4682 360.32 34.0174 287.461 35.676C214.602 37.3346 145.039 66.9669 94.0759 118.054L79.0068 133.159C28.0433 184.246 -0.146407 252.602 0.639779 323.19C1.42592 393.779 31.1239 460.818 83.1992 509.559C108.989 533.683 129.557 562.555 143.728 594.525C157.9 626.496 165.397 660.939 165.792 695.887C166.186 730.835 159.471 765.603 146.028 798.207C132.586 830.81 112.681 860.608 87.4488 885.901L87.6805 885.439Z" ></path>
  </symbol>
</svg>