<svg width="412" height="378" viewBox="0 0 412 378" fill="none" xmlns="http://www.w3.org/2000/svg">
<path d="M411.682 108.163C413.035 59.2042 367.012 11.7399 308.904 2.11232C279.001 -2.86222 251.77 3.25559 232.142 16.9785C232.142 16.9785 195.138 52.086 100.659 72.1901C82.2925 74.5627 65.5915 80.1647 51.1664 88.5242C50.9782 88.5772 50.79 88.6302 50.6018 88.6832L50.7434 88.7432C20.931 106.183 1.68596 135.141 0.689518 170.905C-0.72572 221.631 34.941 271.212 86.8217 298.186C111.19 336.204 155.193 366.146 206.131 374.593C256.055 382.876 301.351 375.121 327.021 340.056C327.067 339.943 327.161 339.916 327.255 339.89C408.858 206.364 411.307 117.964 411.564 108.246L411.682 108.163Z" fill="white"/>
</svg>
